%TF.GenerationSoftware,KiCad,Pcbnew,10.0.4*%
%TF.CreationDate,2026-07-03T21:14:15-04:00*%
%TF.ProjectId,data_streamdeck,64617461-5f73-4747-9265-616d6465636b,rev?*%
%TF.SameCoordinates,Original*%
%TF.FileFunction,Legend,Top*%
%TF.FilePolarity,Positive*%
%FSLAX46Y46*%
G04 Gerber Fmt 4.6, Leading zero omitted, Abs format (unit mm)*
G04 Created by KiCad (PCBNEW 10.0.4) date 2026-07-03 21:14:15*
%MOMM*%
%LPD*%
G01*
G04 APERTURE LIST*
G04 Aperture macros list*
%AMRoundRect*
0 Rectangle with rounded corners*
0 $1 Rounding radius*
0 $2 $3 $4 $5 $6 $7 $8 $9 X,Y pos of 4 corners*
0 Add a 4 corners polygon primitive as box body*
4,1,4,$2,$3,$4,$5,$6,$7,$8,$9,$2,$3,0*
0 Add four circle primitives for the rounded corners*
1,1,$1+$1,$2,$3*
1,1,$1+$1,$4,$5*
1,1,$1+$1,$6,$7*
1,1,$1+$1,$8,$9*
0 Add four rect primitives between the rounded corners*
20,1,$1+$1,$2,$3,$4,$5,0*
20,1,$1+$1,$4,$5,$6,$7,0*
20,1,$1+$1,$6,$7,$8,$9,0*
20,1,$1+$1,$8,$9,$2,$3,0*%
G04 Aperture macros list end*
%ADD10C,0.150000*%
%ADD11C,0.120000*%
%ADD12C,0.650000*%
%ADD13RoundRect,0.150000X0.150000X0.425000X-0.150000X0.425000X-0.150000X-0.425000X0.150000X-0.425000X0*%
%ADD14RoundRect,0.075000X0.075000X0.500000X-0.075000X0.500000X-0.075000X-0.500000X0.075000X-0.500000X0*%
%ADD15O,1.000000X2.100000*%
%ADD16O,1.000000X1.800000*%
%ADD17C,2.200000*%
%ADD18R,0.900000X1.500000*%
%ADD19R,1.500000X0.900000*%
%ADD20C,0.600000*%
%ADD21R,3.900000X3.900000*%
%ADD22RoundRect,0.135000X-0.185000X0.135000X-0.185000X-0.135000X0.185000X-0.135000X0.185000X0.135000X0*%
%ADD23RoundRect,0.140000X0.170000X-0.140000X0.170000X0.140000X-0.170000X0.140000X-0.170000X-0.140000X0*%
%ADD24RoundRect,0.375000X0.625000X0.375000X-0.625000X0.375000X-0.625000X-0.375000X0.625000X-0.375000X0*%
%ADD25RoundRect,0.500000X0.500000X1.400000X-0.500000X1.400000X-0.500000X-1.400000X0.500000X-1.400000X0*%
%ADD26RoundRect,0.140000X-0.140000X-0.170000X0.140000X-0.170000X0.140000X0.170000X-0.140000X0.170000X0*%
%ADD27R,0.900000X1.000000*%
%ADD28RoundRect,0.200000X0.600000X-0.200000X0.600000X0.200000X-0.600000X0.200000X-0.600000X-0.200000X0*%
%ADD29RoundRect,0.250001X1.249999X-0.799999X1.249999X0.799999X-1.249999X0.799999X-1.249999X-0.799999X0*%
%ADD30RoundRect,0.200000X-0.600000X0.200000X-0.600000X-0.200000X0.600000X-0.200000X0.600000X0.200000X0*%
%ADD31RoundRect,0.250001X-1.249999X0.799999X-1.249999X-0.799999X1.249999X-0.799999X1.249999X0.799999X0*%
%ADD32RoundRect,0.135000X0.185000X-0.135000X0.185000X0.135000X-0.185000X0.135000X-0.185000X-0.135000X0*%
%ADD33RoundRect,0.250000X0.475000X-0.250000X0.475000X0.250000X-0.475000X0.250000X-0.475000X-0.250000X0*%
%ADD34RoundRect,0.150000X-0.150000X0.512500X-0.150000X-0.512500X0.150000X-0.512500X0.150000X0.512500X0*%
%ADD35R,1.750000X0.700000*%
%ADD36R,1.000000X1.450000*%
%ADD37R,1.550000X1.000000*%
%ADD38R,1.500000X0.800000*%
%ADD39R,1.500000X1.300000*%
%ADD40R,1.500000X1.500000*%
%ADD41R,1.400000X0.800000*%
%ADD42RoundRect,0.135000X-0.135000X-0.185000X0.135000X-0.185000X0.135000X0.185000X-0.135000X0.185000X0*%
G04 APERTURE END LIST*
D10*
X27166666Y-8054819D02*
X27166666Y-8769104D01*
X27166666Y-8769104D02*
X27119047Y-8911961D01*
X27119047Y-8911961D02*
X27023809Y-9007200D01*
X27023809Y-9007200D02*
X26880952Y-9054819D01*
X26880952Y-9054819D02*
X26785714Y-9054819D01*
X27547619Y-8054819D02*
X28214285Y-8054819D01*
X28214285Y-8054819D02*
X27785714Y-9054819D01*
X51661905Y-40554819D02*
X51661905Y-39554819D01*
X51661905Y-40031009D02*
X52233333Y-40031009D01*
X52233333Y-40554819D02*
X52233333Y-39554819D01*
X53233333Y-40554819D02*
X52661905Y-40554819D01*
X52947619Y-40554819D02*
X52947619Y-39554819D01*
X52947619Y-39554819D02*
X52852381Y-39697676D01*
X52852381Y-39697676D02*
X52757143Y-39792914D01*
X52757143Y-39792914D02*
X52661905Y-39840533D01*
X54185714Y-40554819D02*
X53614286Y-40554819D01*
X53900000Y-40554819D02*
X53900000Y-39554819D01*
X53900000Y-39554819D02*
X53804762Y-39697676D01*
X53804762Y-39697676D02*
X53709524Y-39792914D01*
X53709524Y-39792914D02*
X53614286Y-39840533D01*
X38354819Y-47961904D02*
X39164342Y-47961904D01*
X39164342Y-47961904D02*
X39259580Y-47914285D01*
X39259580Y-47914285D02*
X39307200Y-47866666D01*
X39307200Y-47866666D02*
X39354819Y-47771428D01*
X39354819Y-47771428D02*
X39354819Y-47580952D01*
X39354819Y-47580952D02*
X39307200Y-47485714D01*
X39307200Y-47485714D02*
X39259580Y-47438095D01*
X39259580Y-47438095D02*
X39164342Y-47390476D01*
X39164342Y-47390476D02*
X38354819Y-47390476D01*
X39354819Y-46390476D02*
X39354819Y-46961904D01*
X39354819Y-46676190D02*
X38354819Y-46676190D01*
X38354819Y-46676190D02*
X38497676Y-46771428D01*
X38497676Y-46771428D02*
X38592914Y-46866666D01*
X38592914Y-46866666D02*
X38640533Y-46961904D01*
X47003333Y-11054819D02*
X46670000Y-10578628D01*
X46431905Y-11054819D02*
X46431905Y-10054819D01*
X46431905Y-10054819D02*
X46812857Y-10054819D01*
X46812857Y-10054819D02*
X46908095Y-10102438D01*
X46908095Y-10102438D02*
X46955714Y-10150057D01*
X46955714Y-10150057D02*
X47003333Y-10245295D01*
X47003333Y-10245295D02*
X47003333Y-10388152D01*
X47003333Y-10388152D02*
X46955714Y-10483390D01*
X46955714Y-10483390D02*
X46908095Y-10531009D01*
X46908095Y-10531009D02*
X46812857Y-10578628D01*
X46812857Y-10578628D02*
X46431905Y-10578628D01*
X47384286Y-10150057D02*
X47431905Y-10102438D01*
X47431905Y-10102438D02*
X47527143Y-10054819D01*
X47527143Y-10054819D02*
X47765238Y-10054819D01*
X47765238Y-10054819D02*
X47860476Y-10102438D01*
X47860476Y-10102438D02*
X47908095Y-10150057D01*
X47908095Y-10150057D02*
X47955714Y-10245295D01*
X47955714Y-10245295D02*
X47955714Y-10340533D01*
X47955714Y-10340533D02*
X47908095Y-10483390D01*
X47908095Y-10483390D02*
X47336667Y-11054819D01*
X47336667Y-11054819D02*
X47955714Y-11054819D01*
X44673333Y-14959580D02*
X44625714Y-15007200D01*
X44625714Y-15007200D02*
X44482857Y-15054819D01*
X44482857Y-15054819D02*
X44387619Y-15054819D01*
X44387619Y-15054819D02*
X44244762Y-15007200D01*
X44244762Y-15007200D02*
X44149524Y-14911961D01*
X44149524Y-14911961D02*
X44101905Y-14816723D01*
X44101905Y-14816723D02*
X44054286Y-14626247D01*
X44054286Y-14626247D02*
X44054286Y-14483390D01*
X44054286Y-14483390D02*
X44101905Y-14292914D01*
X44101905Y-14292914D02*
X44149524Y-14197676D01*
X44149524Y-14197676D02*
X44244762Y-14102438D01*
X44244762Y-14102438D02*
X44387619Y-14054819D01*
X44387619Y-14054819D02*
X44482857Y-14054819D01*
X44482857Y-14054819D02*
X44625714Y-14102438D01*
X44625714Y-14102438D02*
X44673333Y-14150057D01*
X45054286Y-14150057D02*
X45101905Y-14102438D01*
X45101905Y-14102438D02*
X45197143Y-14054819D01*
X45197143Y-14054819D02*
X45435238Y-14054819D01*
X45435238Y-14054819D02*
X45530476Y-14102438D01*
X45530476Y-14102438D02*
X45578095Y-14150057D01*
X45578095Y-14150057D02*
X45625714Y-14245295D01*
X45625714Y-14245295D02*
X45625714Y-14340533D01*
X45625714Y-14340533D02*
X45578095Y-14483390D01*
X45578095Y-14483390D02*
X45006667Y-15054819D01*
X45006667Y-15054819D02*
X45625714Y-15054819D01*
X47003333Y-49354819D02*
X46670000Y-48878628D01*
X46431905Y-49354819D02*
X46431905Y-48354819D01*
X46431905Y-48354819D02*
X46812857Y-48354819D01*
X46812857Y-48354819D02*
X46908095Y-48402438D01*
X46908095Y-48402438D02*
X46955714Y-48450057D01*
X46955714Y-48450057D02*
X47003333Y-48545295D01*
X47003333Y-48545295D02*
X47003333Y-48688152D01*
X47003333Y-48688152D02*
X46955714Y-48783390D01*
X46955714Y-48783390D02*
X46908095Y-48831009D01*
X46908095Y-48831009D02*
X46812857Y-48878628D01*
X46812857Y-48878628D02*
X46431905Y-48878628D01*
X47860476Y-48688152D02*
X47860476Y-49354819D01*
X47622381Y-48307200D02*
X47384286Y-49021485D01*
X47384286Y-49021485D02*
X48003333Y-49021485D01*
X12454819Y-9761904D02*
X13264342Y-9761904D01*
X13264342Y-9761904D02*
X13359580Y-9714285D01*
X13359580Y-9714285D02*
X13407200Y-9666666D01*
X13407200Y-9666666D02*
X13454819Y-9571428D01*
X13454819Y-9571428D02*
X13454819Y-9380952D01*
X13454819Y-9380952D02*
X13407200Y-9285714D01*
X13407200Y-9285714D02*
X13359580Y-9238095D01*
X13359580Y-9238095D02*
X13264342Y-9190476D01*
X13264342Y-9190476D02*
X12454819Y-9190476D01*
X12550057Y-8761904D02*
X12502438Y-8714285D01*
X12502438Y-8714285D02*
X12454819Y-8619047D01*
X12454819Y-8619047D02*
X12454819Y-8380952D01*
X12454819Y-8380952D02*
X12502438Y-8285714D01*
X12502438Y-8285714D02*
X12550057Y-8238095D01*
X12550057Y-8238095D02*
X12645295Y-8190476D01*
X12645295Y-8190476D02*
X12740533Y-8190476D01*
X12740533Y-8190476D02*
X12883390Y-8238095D01*
X12883390Y-8238095D02*
X13454819Y-8809523D01*
X13454819Y-8809523D02*
X13454819Y-8190476D01*
X29357142Y-50699580D02*
X29309523Y-50747200D01*
X29309523Y-50747200D02*
X29166666Y-50794819D01*
X29166666Y-50794819D02*
X29071428Y-50794819D01*
X29071428Y-50794819D02*
X28928571Y-50747200D01*
X28928571Y-50747200D02*
X28833333Y-50651961D01*
X28833333Y-50651961D02*
X28785714Y-50556723D01*
X28785714Y-50556723D02*
X28738095Y-50366247D01*
X28738095Y-50366247D02*
X28738095Y-50223390D01*
X28738095Y-50223390D02*
X28785714Y-50032914D01*
X28785714Y-50032914D02*
X28833333Y-49937676D01*
X28833333Y-49937676D02*
X28928571Y-49842438D01*
X28928571Y-49842438D02*
X29071428Y-49794819D01*
X29071428Y-49794819D02*
X29166666Y-49794819D01*
X29166666Y-49794819D02*
X29309523Y-49842438D01*
X29309523Y-49842438D02*
X29357142Y-49890057D01*
X30309523Y-50794819D02*
X29738095Y-50794819D01*
X30023809Y-50794819D02*
X30023809Y-49794819D01*
X30023809Y-49794819D02*
X29928571Y-49937676D01*
X29928571Y-49937676D02*
X29833333Y-50032914D01*
X29833333Y-50032914D02*
X29738095Y-50080533D01*
X31261904Y-50794819D02*
X30690476Y-50794819D01*
X30976190Y-50794819D02*
X30976190Y-49794819D01*
X30976190Y-49794819D02*
X30880952Y-49937676D01*
X30880952Y-49937676D02*
X30785714Y-50032914D01*
X30785714Y-50032914D02*
X30690476Y-50080533D01*
X29661905Y-65854819D02*
X29661905Y-64854819D01*
X29661905Y-65331009D02*
X30233333Y-65331009D01*
X30233333Y-65854819D02*
X30233333Y-64854819D01*
X31233333Y-65854819D02*
X30661905Y-65854819D01*
X30947619Y-65854819D02*
X30947619Y-64854819D01*
X30947619Y-64854819D02*
X30852381Y-64997676D01*
X30852381Y-64997676D02*
X30757143Y-65092914D01*
X30757143Y-65092914D02*
X30661905Y-65140533D01*
X31852381Y-64854819D02*
X31947619Y-64854819D01*
X31947619Y-64854819D02*
X32042857Y-64902438D01*
X32042857Y-64902438D02*
X32090476Y-64950057D01*
X32090476Y-64950057D02*
X32138095Y-65045295D01*
X32138095Y-65045295D02*
X32185714Y-65235771D01*
X32185714Y-65235771D02*
X32185714Y-65473866D01*
X32185714Y-65473866D02*
X32138095Y-65664342D01*
X32138095Y-65664342D02*
X32090476Y-65759580D01*
X32090476Y-65759580D02*
X32042857Y-65807200D01*
X32042857Y-65807200D02*
X31947619Y-65854819D01*
X31947619Y-65854819D02*
X31852381Y-65854819D01*
X31852381Y-65854819D02*
X31757143Y-65807200D01*
X31757143Y-65807200D02*
X31709524Y-65759580D01*
X31709524Y-65759580D02*
X31661905Y-65664342D01*
X31661905Y-65664342D02*
X31614286Y-65473866D01*
X31614286Y-65473866D02*
X31614286Y-65235771D01*
X31614286Y-65235771D02*
X31661905Y-65045295D01*
X31661905Y-65045295D02*
X31709524Y-64950057D01*
X31709524Y-64950057D02*
X31757143Y-64902438D01*
X31757143Y-64902438D02*
X31852381Y-64854819D01*
X36166667Y-1957200D02*
X36309524Y-2004819D01*
X36309524Y-2004819D02*
X36547619Y-2004819D01*
X36547619Y-2004819D02*
X36642857Y-1957200D01*
X36642857Y-1957200D02*
X36690476Y-1909580D01*
X36690476Y-1909580D02*
X36738095Y-1814342D01*
X36738095Y-1814342D02*
X36738095Y-1719104D01*
X36738095Y-1719104D02*
X36690476Y-1623866D01*
X36690476Y-1623866D02*
X36642857Y-1576247D01*
X36642857Y-1576247D02*
X36547619Y-1528628D01*
X36547619Y-1528628D02*
X36357143Y-1481009D01*
X36357143Y-1481009D02*
X36261905Y-1433390D01*
X36261905Y-1433390D02*
X36214286Y-1385771D01*
X36214286Y-1385771D02*
X36166667Y-1290533D01*
X36166667Y-1290533D02*
X36166667Y-1195295D01*
X36166667Y-1195295D02*
X36214286Y-1100057D01*
X36214286Y-1100057D02*
X36261905Y-1052438D01*
X36261905Y-1052438D02*
X36357143Y-1004819D01*
X36357143Y-1004819D02*
X36595238Y-1004819D01*
X36595238Y-1004819D02*
X36738095Y-1052438D01*
X37071429Y-1004819D02*
X37309524Y-2004819D01*
X37309524Y-2004819D02*
X37500000Y-1290533D01*
X37500000Y-1290533D02*
X37690476Y-2004819D01*
X37690476Y-2004819D02*
X37928572Y-1004819D01*
X38833333Y-2004819D02*
X38261905Y-2004819D01*
X38547619Y-2004819D02*
X38547619Y-1004819D01*
X38547619Y-1004819D02*
X38452381Y-1147676D01*
X38452381Y-1147676D02*
X38357143Y-1242914D01*
X38357143Y-1242914D02*
X38261905Y-1290533D01*
X7673333Y-90559580D02*
X7625714Y-90607200D01*
X7625714Y-90607200D02*
X7482857Y-90654819D01*
X7482857Y-90654819D02*
X7387619Y-90654819D01*
X7387619Y-90654819D02*
X7244762Y-90607200D01*
X7244762Y-90607200D02*
X7149524Y-90511961D01*
X7149524Y-90511961D02*
X7101905Y-90416723D01*
X7101905Y-90416723D02*
X7054286Y-90226247D01*
X7054286Y-90226247D02*
X7054286Y-90083390D01*
X7054286Y-90083390D02*
X7101905Y-89892914D01*
X7101905Y-89892914D02*
X7149524Y-89797676D01*
X7149524Y-89797676D02*
X7244762Y-89702438D01*
X7244762Y-89702438D02*
X7387619Y-89654819D01*
X7387619Y-89654819D02*
X7482857Y-89654819D01*
X7482857Y-89654819D02*
X7625714Y-89702438D01*
X7625714Y-89702438D02*
X7673333Y-89750057D01*
X8578095Y-89654819D02*
X8101905Y-89654819D01*
X8101905Y-89654819D02*
X8054286Y-90131009D01*
X8054286Y-90131009D02*
X8101905Y-90083390D01*
X8101905Y-90083390D02*
X8197143Y-90035771D01*
X8197143Y-90035771D02*
X8435238Y-90035771D01*
X8435238Y-90035771D02*
X8530476Y-90083390D01*
X8530476Y-90083390D02*
X8578095Y-90131009D01*
X8578095Y-90131009D02*
X8625714Y-90226247D01*
X8625714Y-90226247D02*
X8625714Y-90464342D01*
X8625714Y-90464342D02*
X8578095Y-90559580D01*
X8578095Y-90559580D02*
X8530476Y-90607200D01*
X8530476Y-90607200D02*
X8435238Y-90654819D01*
X8435238Y-90654819D02*
X8197143Y-90654819D01*
X8197143Y-90654819D02*
X8101905Y-90607200D01*
X8101905Y-90607200D02*
X8054286Y-90559580D01*
X10003333Y-60354819D02*
X9670000Y-59878628D01*
X9431905Y-60354819D02*
X9431905Y-59354819D01*
X9431905Y-59354819D02*
X9812857Y-59354819D01*
X9812857Y-59354819D02*
X9908095Y-59402438D01*
X9908095Y-59402438D02*
X9955714Y-59450057D01*
X9955714Y-59450057D02*
X10003333Y-59545295D01*
X10003333Y-59545295D02*
X10003333Y-59688152D01*
X10003333Y-59688152D02*
X9955714Y-59783390D01*
X9955714Y-59783390D02*
X9908095Y-59831009D01*
X9908095Y-59831009D02*
X9812857Y-59878628D01*
X9812857Y-59878628D02*
X9431905Y-59878628D01*
X10336667Y-59354819D02*
X10955714Y-59354819D01*
X10955714Y-59354819D02*
X10622381Y-59735771D01*
X10622381Y-59735771D02*
X10765238Y-59735771D01*
X10765238Y-59735771D02*
X10860476Y-59783390D01*
X10860476Y-59783390D02*
X10908095Y-59831009D01*
X10908095Y-59831009D02*
X10955714Y-59926247D01*
X10955714Y-59926247D02*
X10955714Y-60164342D01*
X10955714Y-60164342D02*
X10908095Y-60259580D01*
X10908095Y-60259580D02*
X10860476Y-60307200D01*
X10860476Y-60307200D02*
X10765238Y-60354819D01*
X10765238Y-60354819D02*
X10479524Y-60354819D01*
X10479524Y-60354819D02*
X10384286Y-60307200D01*
X10384286Y-60307200D02*
X10336667Y-60259580D01*
X8266666Y-93654819D02*
X8266666Y-94369104D01*
X8266666Y-94369104D02*
X8219047Y-94511961D01*
X8219047Y-94511961D02*
X8123809Y-94607200D01*
X8123809Y-94607200D02*
X7980952Y-94654819D01*
X7980952Y-94654819D02*
X7885714Y-94654819D01*
X9219047Y-93654819D02*
X8742857Y-93654819D01*
X8742857Y-93654819D02*
X8695238Y-94131009D01*
X8695238Y-94131009D02*
X8742857Y-94083390D01*
X8742857Y-94083390D02*
X8838095Y-94035771D01*
X8838095Y-94035771D02*
X9076190Y-94035771D01*
X9076190Y-94035771D02*
X9171428Y-94083390D01*
X9171428Y-94083390D02*
X9219047Y-94131009D01*
X9219047Y-94131009D02*
X9266666Y-94226247D01*
X9266666Y-94226247D02*
X9266666Y-94464342D01*
X9266666Y-94464342D02*
X9219047Y-94559580D01*
X9219047Y-94559580D02*
X9171428Y-94607200D01*
X9171428Y-94607200D02*
X9076190Y-94654819D01*
X9076190Y-94654819D02*
X8838095Y-94654819D01*
X8838095Y-94654819D02*
X8742857Y-94607200D01*
X8742857Y-94607200D02*
X8695238Y-94559580D01*
X45966666Y-93654819D02*
X45966666Y-94369104D01*
X45966666Y-94369104D02*
X45919047Y-94511961D01*
X45919047Y-94511961D02*
X45823809Y-94607200D01*
X45823809Y-94607200D02*
X45680952Y-94654819D01*
X45680952Y-94654819D02*
X45585714Y-94654819D01*
X46871428Y-93654819D02*
X46680952Y-93654819D01*
X46680952Y-93654819D02*
X46585714Y-93702438D01*
X46585714Y-93702438D02*
X46538095Y-93750057D01*
X46538095Y-93750057D02*
X46442857Y-93892914D01*
X46442857Y-93892914D02*
X46395238Y-94083390D01*
X46395238Y-94083390D02*
X46395238Y-94464342D01*
X46395238Y-94464342D02*
X46442857Y-94559580D01*
X46442857Y-94559580D02*
X46490476Y-94607200D01*
X46490476Y-94607200D02*
X46585714Y-94654819D01*
X46585714Y-94654819D02*
X46776190Y-94654819D01*
X46776190Y-94654819D02*
X46871428Y-94607200D01*
X46871428Y-94607200D02*
X46919047Y-94559580D01*
X46919047Y-94559580D02*
X46966666Y-94464342D01*
X46966666Y-94464342D02*
X46966666Y-94226247D01*
X46966666Y-94226247D02*
X46919047Y-94131009D01*
X46919047Y-94131009D02*
X46871428Y-94083390D01*
X46871428Y-94083390D02*
X46776190Y-94035771D01*
X46776190Y-94035771D02*
X46585714Y-94035771D01*
X46585714Y-94035771D02*
X46490476Y-94083390D01*
X46490476Y-94083390D02*
X46442857Y-94131009D01*
X46442857Y-94131009D02*
X46395238Y-94226247D01*
X22761905Y-104154819D02*
X22761905Y-103154819D01*
X22761905Y-103631009D02*
X23333333Y-103631009D01*
X23333333Y-104154819D02*
X23333333Y-103154819D01*
X24333333Y-104154819D02*
X23761905Y-104154819D01*
X24047619Y-104154819D02*
X24047619Y-103154819D01*
X24047619Y-103154819D02*
X23952381Y-103297676D01*
X23952381Y-103297676D02*
X23857143Y-103392914D01*
X23857143Y-103392914D02*
X23761905Y-103440533D01*
X25190476Y-103488152D02*
X25190476Y-104154819D01*
X24952381Y-103107200D02*
X24714286Y-103821485D01*
X24714286Y-103821485D02*
X25333333Y-103821485D01*
X52138095Y-104154819D02*
X52138095Y-103154819D01*
X52138095Y-103631009D02*
X52709523Y-103631009D01*
X52709523Y-104154819D02*
X52709523Y-103154819D01*
X53614285Y-103488152D02*
X53614285Y-104154819D01*
X53376190Y-103107200D02*
X53138095Y-103821485D01*
X53138095Y-103821485D02*
X53757142Y-103821485D01*
X29661905Y-78854819D02*
X29661905Y-77854819D01*
X29661905Y-78331009D02*
X30233333Y-78331009D01*
X30233333Y-78854819D02*
X30233333Y-77854819D01*
X31233333Y-78854819D02*
X30661905Y-78854819D01*
X30947619Y-78854819D02*
X30947619Y-77854819D01*
X30947619Y-77854819D02*
X30852381Y-77997676D01*
X30852381Y-77997676D02*
X30757143Y-78092914D01*
X30757143Y-78092914D02*
X30661905Y-78140533D01*
X32138095Y-77854819D02*
X31661905Y-77854819D01*
X31661905Y-77854819D02*
X31614286Y-78331009D01*
X31614286Y-78331009D02*
X31661905Y-78283390D01*
X31661905Y-78283390D02*
X31757143Y-78235771D01*
X31757143Y-78235771D02*
X31995238Y-78235771D01*
X31995238Y-78235771D02*
X32090476Y-78283390D01*
X32090476Y-78283390D02*
X32138095Y-78331009D01*
X32138095Y-78331009D02*
X32185714Y-78426247D01*
X32185714Y-78426247D02*
X32185714Y-78664342D01*
X32185714Y-78664342D02*
X32138095Y-78759580D01*
X32138095Y-78759580D02*
X32090476Y-78807200D01*
X32090476Y-78807200D02*
X31995238Y-78854819D01*
X31995238Y-78854819D02*
X31757143Y-78854819D01*
X31757143Y-78854819D02*
X31661905Y-78807200D01*
X31661905Y-78807200D02*
X31614286Y-78759580D01*
X1238095Y-65854819D02*
X1238095Y-64854819D01*
X1238095Y-65331009D02*
X1809523Y-65331009D01*
X1809523Y-65854819D02*
X1809523Y-64854819D01*
X2428571Y-65283390D02*
X2333333Y-65235771D01*
X2333333Y-65235771D02*
X2285714Y-65188152D01*
X2285714Y-65188152D02*
X2238095Y-65092914D01*
X2238095Y-65092914D02*
X2238095Y-65045295D01*
X2238095Y-65045295D02*
X2285714Y-64950057D01*
X2285714Y-64950057D02*
X2333333Y-64902438D01*
X2333333Y-64902438D02*
X2428571Y-64854819D01*
X2428571Y-64854819D02*
X2619047Y-64854819D01*
X2619047Y-64854819D02*
X2714285Y-64902438D01*
X2714285Y-64902438D02*
X2761904Y-64950057D01*
X2761904Y-64950057D02*
X2809523Y-65045295D01*
X2809523Y-65045295D02*
X2809523Y-65092914D01*
X2809523Y-65092914D02*
X2761904Y-65188152D01*
X2761904Y-65188152D02*
X2714285Y-65235771D01*
X2714285Y-65235771D02*
X2619047Y-65283390D01*
X2619047Y-65283390D02*
X2428571Y-65283390D01*
X2428571Y-65283390D02*
X2333333Y-65331009D01*
X2333333Y-65331009D02*
X2285714Y-65378628D01*
X2285714Y-65378628D02*
X2238095Y-65473866D01*
X2238095Y-65473866D02*
X2238095Y-65664342D01*
X2238095Y-65664342D02*
X2285714Y-65759580D01*
X2285714Y-65759580D02*
X2333333Y-65807200D01*
X2333333Y-65807200D02*
X2428571Y-65854819D01*
X2428571Y-65854819D02*
X2619047Y-65854819D01*
X2619047Y-65854819D02*
X2714285Y-65807200D01*
X2714285Y-65807200D02*
X2761904Y-65759580D01*
X2761904Y-65759580D02*
X2809523Y-65664342D01*
X2809523Y-65664342D02*
X2809523Y-65473866D01*
X2809523Y-65473866D02*
X2761904Y-65378628D01*
X2761904Y-65378628D02*
X2714285Y-65331009D01*
X2714285Y-65331009D02*
X2619047Y-65283390D01*
X23333333Y-50699580D02*
X23285714Y-50747200D01*
X23285714Y-50747200D02*
X23142857Y-50794819D01*
X23142857Y-50794819D02*
X23047619Y-50794819D01*
X23047619Y-50794819D02*
X22904762Y-50747200D01*
X22904762Y-50747200D02*
X22809524Y-50651961D01*
X22809524Y-50651961D02*
X22761905Y-50556723D01*
X22761905Y-50556723D02*
X22714286Y-50366247D01*
X22714286Y-50366247D02*
X22714286Y-50223390D01*
X22714286Y-50223390D02*
X22761905Y-50032914D01*
X22761905Y-50032914D02*
X22809524Y-49937676D01*
X22809524Y-49937676D02*
X22904762Y-49842438D01*
X22904762Y-49842438D02*
X23047619Y-49794819D01*
X23047619Y-49794819D02*
X23142857Y-49794819D01*
X23142857Y-49794819D02*
X23285714Y-49842438D01*
X23285714Y-49842438D02*
X23333333Y-49890057D01*
X23809524Y-50794819D02*
X24000000Y-50794819D01*
X24000000Y-50794819D02*
X24095238Y-50747200D01*
X24095238Y-50747200D02*
X24142857Y-50699580D01*
X24142857Y-50699580D02*
X24238095Y-50556723D01*
X24238095Y-50556723D02*
X24285714Y-50366247D01*
X24285714Y-50366247D02*
X24285714Y-49985295D01*
X24285714Y-49985295D02*
X24238095Y-49890057D01*
X24238095Y-49890057D02*
X24190476Y-49842438D01*
X24190476Y-49842438D02*
X24095238Y-49794819D01*
X24095238Y-49794819D02*
X23904762Y-49794819D01*
X23904762Y-49794819D02*
X23809524Y-49842438D01*
X23809524Y-49842438D02*
X23761905Y-49890057D01*
X23761905Y-49890057D02*
X23714286Y-49985295D01*
X23714286Y-49985295D02*
X23714286Y-50223390D01*
X23714286Y-50223390D02*
X23761905Y-50318628D01*
X23761905Y-50318628D02*
X23809524Y-50366247D01*
X23809524Y-50366247D02*
X23904762Y-50413866D01*
X23904762Y-50413866D02*
X24095238Y-50413866D01*
X24095238Y-50413866D02*
X24190476Y-50366247D01*
X24190476Y-50366247D02*
X24238095Y-50318628D01*
X24238095Y-50318628D02*
X24285714Y-50223390D01*
X52138095Y-2254819D02*
X52138095Y-1254819D01*
X52138095Y-1731009D02*
X52709523Y-1731009D01*
X52709523Y-2254819D02*
X52709523Y-1254819D01*
X53138095Y-1350057D02*
X53185714Y-1302438D01*
X53185714Y-1302438D02*
X53280952Y-1254819D01*
X53280952Y-1254819D02*
X53519047Y-1254819D01*
X53519047Y-1254819D02*
X53614285Y-1302438D01*
X53614285Y-1302438D02*
X53661904Y-1350057D01*
X53661904Y-1350057D02*
X53709523Y-1445295D01*
X53709523Y-1445295D02*
X53709523Y-1540533D01*
X53709523Y-1540533D02*
X53661904Y-1683390D01*
X53661904Y-1683390D02*
X53090476Y-2254819D01*
X53090476Y-2254819D02*
X53709523Y-2254819D01*
X32357142Y-50699580D02*
X32309523Y-50747200D01*
X32309523Y-50747200D02*
X32166666Y-50794819D01*
X32166666Y-50794819D02*
X32071428Y-50794819D01*
X32071428Y-50794819D02*
X31928571Y-50747200D01*
X31928571Y-50747200D02*
X31833333Y-50651961D01*
X31833333Y-50651961D02*
X31785714Y-50556723D01*
X31785714Y-50556723D02*
X31738095Y-50366247D01*
X31738095Y-50366247D02*
X31738095Y-50223390D01*
X31738095Y-50223390D02*
X31785714Y-50032914D01*
X31785714Y-50032914D02*
X31833333Y-49937676D01*
X31833333Y-49937676D02*
X31928571Y-49842438D01*
X31928571Y-49842438D02*
X32071428Y-49794819D01*
X32071428Y-49794819D02*
X32166666Y-49794819D01*
X32166666Y-49794819D02*
X32309523Y-49842438D01*
X32309523Y-49842438D02*
X32357142Y-49890057D01*
X33309523Y-50794819D02*
X32738095Y-50794819D01*
X33023809Y-50794819D02*
X33023809Y-49794819D01*
X33023809Y-49794819D02*
X32928571Y-49937676D01*
X32928571Y-49937676D02*
X32833333Y-50032914D01*
X32833333Y-50032914D02*
X32738095Y-50080533D01*
X33928571Y-49794819D02*
X34023809Y-49794819D01*
X34023809Y-49794819D02*
X34119047Y-49842438D01*
X34119047Y-49842438D02*
X34166666Y-49890057D01*
X34166666Y-49890057D02*
X34214285Y-49985295D01*
X34214285Y-49985295D02*
X34261904Y-50175771D01*
X34261904Y-50175771D02*
X34261904Y-50413866D01*
X34261904Y-50413866D02*
X34214285Y-50604342D01*
X34214285Y-50604342D02*
X34166666Y-50699580D01*
X34166666Y-50699580D02*
X34119047Y-50747200D01*
X34119047Y-50747200D02*
X34023809Y-50794819D01*
X34023809Y-50794819D02*
X33928571Y-50794819D01*
X33928571Y-50794819D02*
X33833333Y-50747200D01*
X33833333Y-50747200D02*
X33785714Y-50699580D01*
X33785714Y-50699580D02*
X33738095Y-50604342D01*
X33738095Y-50604342D02*
X33690476Y-50413866D01*
X33690476Y-50413866D02*
X33690476Y-50175771D01*
X33690476Y-50175771D02*
X33738095Y-49985295D01*
X33738095Y-49985295D02*
X33785714Y-49890057D01*
X33785714Y-49890057D02*
X33833333Y-49842438D01*
X33833333Y-49842438D02*
X33928571Y-49794819D01*
X8266666Y-55354819D02*
X8266666Y-56069104D01*
X8266666Y-56069104D02*
X8219047Y-56211961D01*
X8219047Y-56211961D02*
X8123809Y-56307200D01*
X8123809Y-56307200D02*
X7980952Y-56354819D01*
X7980952Y-56354819D02*
X7885714Y-56354819D01*
X8647619Y-55354819D02*
X9266666Y-55354819D01*
X9266666Y-55354819D02*
X8933333Y-55735771D01*
X8933333Y-55735771D02*
X9076190Y-55735771D01*
X9076190Y-55735771D02*
X9171428Y-55783390D01*
X9171428Y-55783390D02*
X9219047Y-55831009D01*
X9219047Y-55831009D02*
X9266666Y-55926247D01*
X9266666Y-55926247D02*
X9266666Y-56164342D01*
X9266666Y-56164342D02*
X9219047Y-56259580D01*
X9219047Y-56259580D02*
X9171428Y-56307200D01*
X9171428Y-56307200D02*
X9076190Y-56354819D01*
X9076190Y-56354819D02*
X8790476Y-56354819D01*
X8790476Y-56354819D02*
X8695238Y-56307200D01*
X8695238Y-56307200D02*
X8647619Y-56259580D01*
X44673333Y-94859580D02*
X44625714Y-94907200D01*
X44625714Y-94907200D02*
X44482857Y-94954819D01*
X44482857Y-94954819D02*
X44387619Y-94954819D01*
X44387619Y-94954819D02*
X44244762Y-94907200D01*
X44244762Y-94907200D02*
X44149524Y-94811961D01*
X44149524Y-94811961D02*
X44101905Y-94716723D01*
X44101905Y-94716723D02*
X44054286Y-94526247D01*
X44054286Y-94526247D02*
X44054286Y-94383390D01*
X44054286Y-94383390D02*
X44101905Y-94192914D01*
X44101905Y-94192914D02*
X44149524Y-94097676D01*
X44149524Y-94097676D02*
X44244762Y-94002438D01*
X44244762Y-94002438D02*
X44387619Y-93954819D01*
X44387619Y-93954819D02*
X44482857Y-93954819D01*
X44482857Y-93954819D02*
X44625714Y-94002438D01*
X44625714Y-94002438D02*
X44673333Y-94050057D01*
X45530476Y-93954819D02*
X45340000Y-93954819D01*
X45340000Y-93954819D02*
X45244762Y-94002438D01*
X45244762Y-94002438D02*
X45197143Y-94050057D01*
X45197143Y-94050057D02*
X45101905Y-94192914D01*
X45101905Y-94192914D02*
X45054286Y-94383390D01*
X45054286Y-94383390D02*
X45054286Y-94764342D01*
X45054286Y-94764342D02*
X45101905Y-94859580D01*
X45101905Y-94859580D02*
X45149524Y-94907200D01*
X45149524Y-94907200D02*
X45244762Y-94954819D01*
X45244762Y-94954819D02*
X45435238Y-94954819D01*
X45435238Y-94954819D02*
X45530476Y-94907200D01*
X45530476Y-94907200D02*
X45578095Y-94859580D01*
X45578095Y-94859580D02*
X45625714Y-94764342D01*
X45625714Y-94764342D02*
X45625714Y-94526247D01*
X45625714Y-94526247D02*
X45578095Y-94431009D01*
X45578095Y-94431009D02*
X45530476Y-94383390D01*
X45530476Y-94383390D02*
X45435238Y-94335771D01*
X45435238Y-94335771D02*
X45244762Y-94335771D01*
X45244762Y-94335771D02*
X45149524Y-94383390D01*
X45149524Y-94383390D02*
X45101905Y-94431009D01*
X45101905Y-94431009D02*
X45054286Y-94526247D01*
X33163333Y-9954819D02*
X32830000Y-9478628D01*
X32591905Y-9954819D02*
X32591905Y-8954819D01*
X32591905Y-8954819D02*
X32972857Y-8954819D01*
X32972857Y-8954819D02*
X33068095Y-9002438D01*
X33068095Y-9002438D02*
X33115714Y-9050057D01*
X33115714Y-9050057D02*
X33163333Y-9145295D01*
X33163333Y-9145295D02*
X33163333Y-9288152D01*
X33163333Y-9288152D02*
X33115714Y-9383390D01*
X33115714Y-9383390D02*
X33068095Y-9431009D01*
X33068095Y-9431009D02*
X32972857Y-9478628D01*
X32972857Y-9478628D02*
X32591905Y-9478628D01*
X33734762Y-9383390D02*
X33639524Y-9335771D01*
X33639524Y-9335771D02*
X33591905Y-9288152D01*
X33591905Y-9288152D02*
X33544286Y-9192914D01*
X33544286Y-9192914D02*
X33544286Y-9145295D01*
X33544286Y-9145295D02*
X33591905Y-9050057D01*
X33591905Y-9050057D02*
X33639524Y-9002438D01*
X33639524Y-9002438D02*
X33734762Y-8954819D01*
X33734762Y-8954819D02*
X33925238Y-8954819D01*
X33925238Y-8954819D02*
X34020476Y-9002438D01*
X34020476Y-9002438D02*
X34068095Y-9050057D01*
X34068095Y-9050057D02*
X34115714Y-9145295D01*
X34115714Y-9145295D02*
X34115714Y-9192914D01*
X34115714Y-9192914D02*
X34068095Y-9288152D01*
X34068095Y-9288152D02*
X34020476Y-9335771D01*
X34020476Y-9335771D02*
X33925238Y-9383390D01*
X33925238Y-9383390D02*
X33734762Y-9383390D01*
X33734762Y-9383390D02*
X33639524Y-9431009D01*
X33639524Y-9431009D02*
X33591905Y-9478628D01*
X33591905Y-9478628D02*
X33544286Y-9573866D01*
X33544286Y-9573866D02*
X33544286Y-9764342D01*
X33544286Y-9764342D02*
X33591905Y-9859580D01*
X33591905Y-9859580D02*
X33639524Y-9907200D01*
X33639524Y-9907200D02*
X33734762Y-9954819D01*
X33734762Y-9954819D02*
X33925238Y-9954819D01*
X33925238Y-9954819D02*
X34020476Y-9907200D01*
X34020476Y-9907200D02*
X34068095Y-9859580D01*
X34068095Y-9859580D02*
X34115714Y-9764342D01*
X34115714Y-9764342D02*
X34115714Y-9573866D01*
X34115714Y-9573866D02*
X34068095Y-9478628D01*
X34068095Y-9478628D02*
X34020476Y-9431009D01*
X34020476Y-9431009D02*
X33925238Y-9383390D01*
X10003333Y-22054819D02*
X9670000Y-21578628D01*
X9431905Y-22054819D02*
X9431905Y-21054819D01*
X9431905Y-21054819D02*
X9812857Y-21054819D01*
X9812857Y-21054819D02*
X9908095Y-21102438D01*
X9908095Y-21102438D02*
X9955714Y-21150057D01*
X9955714Y-21150057D02*
X10003333Y-21245295D01*
X10003333Y-21245295D02*
X10003333Y-21388152D01*
X10003333Y-21388152D02*
X9955714Y-21483390D01*
X9955714Y-21483390D02*
X9908095Y-21531009D01*
X9908095Y-21531009D02*
X9812857Y-21578628D01*
X9812857Y-21578628D02*
X9431905Y-21578628D01*
X10955714Y-22054819D02*
X10384286Y-22054819D01*
X10670000Y-22054819D02*
X10670000Y-21054819D01*
X10670000Y-21054819D02*
X10574762Y-21197676D01*
X10574762Y-21197676D02*
X10479524Y-21292914D01*
X10479524Y-21292914D02*
X10384286Y-21340533D01*
X4653333Y-10159580D02*
X4605714Y-10207200D01*
X4605714Y-10207200D02*
X4462857Y-10254819D01*
X4462857Y-10254819D02*
X4367619Y-10254819D01*
X4367619Y-10254819D02*
X4224762Y-10207200D01*
X4224762Y-10207200D02*
X4129524Y-10111961D01*
X4129524Y-10111961D02*
X4081905Y-10016723D01*
X4081905Y-10016723D02*
X4034286Y-9826247D01*
X4034286Y-9826247D02*
X4034286Y-9683390D01*
X4034286Y-9683390D02*
X4081905Y-9492914D01*
X4081905Y-9492914D02*
X4129524Y-9397676D01*
X4129524Y-9397676D02*
X4224762Y-9302438D01*
X4224762Y-9302438D02*
X4367619Y-9254819D01*
X4367619Y-9254819D02*
X4462857Y-9254819D01*
X4462857Y-9254819D02*
X4605714Y-9302438D01*
X4605714Y-9302438D02*
X4653333Y-9350057D01*
X5224762Y-9683390D02*
X5129524Y-9635771D01*
X5129524Y-9635771D02*
X5081905Y-9588152D01*
X5081905Y-9588152D02*
X5034286Y-9492914D01*
X5034286Y-9492914D02*
X5034286Y-9445295D01*
X5034286Y-9445295D02*
X5081905Y-9350057D01*
X5081905Y-9350057D02*
X5129524Y-9302438D01*
X5129524Y-9302438D02*
X5224762Y-9254819D01*
X5224762Y-9254819D02*
X5415238Y-9254819D01*
X5415238Y-9254819D02*
X5510476Y-9302438D01*
X5510476Y-9302438D02*
X5558095Y-9350057D01*
X5558095Y-9350057D02*
X5605714Y-9445295D01*
X5605714Y-9445295D02*
X5605714Y-9492914D01*
X5605714Y-9492914D02*
X5558095Y-9588152D01*
X5558095Y-9588152D02*
X5510476Y-9635771D01*
X5510476Y-9635771D02*
X5415238Y-9683390D01*
X5415238Y-9683390D02*
X5224762Y-9683390D01*
X5224762Y-9683390D02*
X5129524Y-9731009D01*
X5129524Y-9731009D02*
X5081905Y-9778628D01*
X5081905Y-9778628D02*
X5034286Y-9873866D01*
X5034286Y-9873866D02*
X5034286Y-10064342D01*
X5034286Y-10064342D02*
X5081905Y-10159580D01*
X5081905Y-10159580D02*
X5129524Y-10207200D01*
X5129524Y-10207200D02*
X5224762Y-10254819D01*
X5224762Y-10254819D02*
X5415238Y-10254819D01*
X5415238Y-10254819D02*
X5510476Y-10207200D01*
X5510476Y-10207200D02*
X5558095Y-10159580D01*
X5558095Y-10159580D02*
X5605714Y-10064342D01*
X5605714Y-10064342D02*
X5605714Y-9873866D01*
X5605714Y-9873866D02*
X5558095Y-9778628D01*
X5558095Y-9778628D02*
X5510476Y-9731009D01*
X5510476Y-9731009D02*
X5415238Y-9683390D01*
X1238095Y-2254819D02*
X1238095Y-1254819D01*
X1238095Y-1731009D02*
X1809523Y-1731009D01*
X1809523Y-2254819D02*
X1809523Y-1254819D01*
X2809523Y-2254819D02*
X2238095Y-2254819D01*
X2523809Y-2254819D02*
X2523809Y-1254819D01*
X2523809Y-1254819D02*
X2428571Y-1397676D01*
X2428571Y-1397676D02*
X2333333Y-1492914D01*
X2333333Y-1492914D02*
X2238095Y-1540533D01*
X22761905Y-78854819D02*
X22761905Y-77854819D01*
X22761905Y-78331009D02*
X23333333Y-78331009D01*
X23333333Y-78854819D02*
X23333333Y-77854819D01*
X24333333Y-78854819D02*
X23761905Y-78854819D01*
X24047619Y-78854819D02*
X24047619Y-77854819D01*
X24047619Y-77854819D02*
X23952381Y-77997676D01*
X23952381Y-77997676D02*
X23857143Y-78092914D01*
X23857143Y-78092914D02*
X23761905Y-78140533D01*
X24666667Y-77854819D02*
X25285714Y-77854819D01*
X25285714Y-77854819D02*
X24952381Y-78235771D01*
X24952381Y-78235771D02*
X25095238Y-78235771D01*
X25095238Y-78235771D02*
X25190476Y-78283390D01*
X25190476Y-78283390D02*
X25238095Y-78331009D01*
X25238095Y-78331009D02*
X25285714Y-78426247D01*
X25285714Y-78426247D02*
X25285714Y-78664342D01*
X25285714Y-78664342D02*
X25238095Y-78759580D01*
X25238095Y-78759580D02*
X25190476Y-78807200D01*
X25190476Y-78807200D02*
X25095238Y-78854819D01*
X25095238Y-78854819D02*
X24809524Y-78854819D01*
X24809524Y-78854819D02*
X24714286Y-78807200D01*
X24714286Y-78807200D02*
X24666667Y-78759580D01*
X1238095Y-27554819D02*
X1238095Y-26554819D01*
X1238095Y-27031009D02*
X1809523Y-27031009D01*
X1809523Y-27554819D02*
X1809523Y-26554819D01*
X2761904Y-26554819D02*
X2285714Y-26554819D01*
X2285714Y-26554819D02*
X2238095Y-27031009D01*
X2238095Y-27031009D02*
X2285714Y-26983390D01*
X2285714Y-26983390D02*
X2380952Y-26935771D01*
X2380952Y-26935771D02*
X2619047Y-26935771D01*
X2619047Y-26935771D02*
X2714285Y-26983390D01*
X2714285Y-26983390D02*
X2761904Y-27031009D01*
X2761904Y-27031009D02*
X2809523Y-27126247D01*
X2809523Y-27126247D02*
X2809523Y-27364342D01*
X2809523Y-27364342D02*
X2761904Y-27459580D01*
X2761904Y-27459580D02*
X2714285Y-27507200D01*
X2714285Y-27507200D02*
X2619047Y-27554819D01*
X2619047Y-27554819D02*
X2380952Y-27554819D01*
X2380952Y-27554819D02*
X2285714Y-27507200D01*
X2285714Y-27507200D02*
X2238095Y-27459580D01*
X45966666Y-55354819D02*
X45966666Y-56069104D01*
X45966666Y-56069104D02*
X45919047Y-56211961D01*
X45919047Y-56211961D02*
X45823809Y-56307200D01*
X45823809Y-56307200D02*
X45680952Y-56354819D01*
X45680952Y-56354819D02*
X45585714Y-56354819D01*
X46871428Y-55688152D02*
X46871428Y-56354819D01*
X46633333Y-55307200D02*
X46395238Y-56021485D01*
X46395238Y-56021485D02*
X47014285Y-56021485D01*
X19163333Y-9954819D02*
X18830000Y-9478628D01*
X18591905Y-9954819D02*
X18591905Y-8954819D01*
X18591905Y-8954819D02*
X18972857Y-8954819D01*
X18972857Y-8954819D02*
X19068095Y-9002438D01*
X19068095Y-9002438D02*
X19115714Y-9050057D01*
X19115714Y-9050057D02*
X19163333Y-9145295D01*
X19163333Y-9145295D02*
X19163333Y-9288152D01*
X19163333Y-9288152D02*
X19115714Y-9383390D01*
X19115714Y-9383390D02*
X19068095Y-9431009D01*
X19068095Y-9431009D02*
X18972857Y-9478628D01*
X18972857Y-9478628D02*
X18591905Y-9478628D01*
X19496667Y-8954819D02*
X20163333Y-8954819D01*
X20163333Y-8954819D02*
X19734762Y-9954819D01*
X29354819Y-13261904D02*
X30164342Y-13261904D01*
X30164342Y-13261904D02*
X30259580Y-13214285D01*
X30259580Y-13214285D02*
X30307200Y-13166666D01*
X30307200Y-13166666D02*
X30354819Y-13071428D01*
X30354819Y-13071428D02*
X30354819Y-12880952D01*
X30354819Y-12880952D02*
X30307200Y-12785714D01*
X30307200Y-12785714D02*
X30259580Y-12738095D01*
X30259580Y-12738095D02*
X30164342Y-12690476D01*
X30164342Y-12690476D02*
X29354819Y-12690476D01*
X29354819Y-12309523D02*
X29354819Y-11690476D01*
X29354819Y-11690476D02*
X29735771Y-12023809D01*
X29735771Y-12023809D02*
X29735771Y-11880952D01*
X29735771Y-11880952D02*
X29783390Y-11785714D01*
X29783390Y-11785714D02*
X29831009Y-11738095D01*
X29831009Y-11738095D02*
X29926247Y-11690476D01*
X29926247Y-11690476D02*
X30164342Y-11690476D01*
X30164342Y-11690476D02*
X30259580Y-11738095D01*
X30259580Y-11738095D02*
X30307200Y-11785714D01*
X30307200Y-11785714D02*
X30354819Y-11880952D01*
X30354819Y-11880952D02*
X30354819Y-12166666D01*
X30354819Y-12166666D02*
X30307200Y-12261904D01*
X30307200Y-12261904D02*
X30259580Y-12309523D01*
X54791666Y-74429819D02*
X54791666Y-75144104D01*
X54791666Y-75144104D02*
X54744047Y-75286961D01*
X54744047Y-75286961D02*
X54648809Y-75382200D01*
X54648809Y-75382200D02*
X54505952Y-75429819D01*
X54505952Y-75429819D02*
X54410714Y-75429819D01*
X55410714Y-74858390D02*
X55315476Y-74810771D01*
X55315476Y-74810771D02*
X55267857Y-74763152D01*
X55267857Y-74763152D02*
X55220238Y-74667914D01*
X55220238Y-74667914D02*
X55220238Y-74620295D01*
X55220238Y-74620295D02*
X55267857Y-74525057D01*
X55267857Y-74525057D02*
X55315476Y-74477438D01*
X55315476Y-74477438D02*
X55410714Y-74429819D01*
X55410714Y-74429819D02*
X55601190Y-74429819D01*
X55601190Y-74429819D02*
X55696428Y-74477438D01*
X55696428Y-74477438D02*
X55744047Y-74525057D01*
X55744047Y-74525057D02*
X55791666Y-74620295D01*
X55791666Y-74620295D02*
X55791666Y-74667914D01*
X55791666Y-74667914D02*
X55744047Y-74763152D01*
X55744047Y-74763152D02*
X55696428Y-74810771D01*
X55696428Y-74810771D02*
X55601190Y-74858390D01*
X55601190Y-74858390D02*
X55410714Y-74858390D01*
X55410714Y-74858390D02*
X55315476Y-74906009D01*
X55315476Y-74906009D02*
X55267857Y-74953628D01*
X55267857Y-74953628D02*
X55220238Y-75048866D01*
X55220238Y-75048866D02*
X55220238Y-75239342D01*
X55220238Y-75239342D02*
X55267857Y-75334580D01*
X55267857Y-75334580D02*
X55315476Y-75382200D01*
X55315476Y-75382200D02*
X55410714Y-75429819D01*
X55410714Y-75429819D02*
X55601190Y-75429819D01*
X55601190Y-75429819D02*
X55696428Y-75382200D01*
X55696428Y-75382200D02*
X55744047Y-75334580D01*
X55744047Y-75334580D02*
X55791666Y-75239342D01*
X55791666Y-75239342D02*
X55791666Y-75048866D01*
X55791666Y-75048866D02*
X55744047Y-74953628D01*
X55744047Y-74953628D02*
X55696428Y-74906009D01*
X55696428Y-74906009D02*
X55601190Y-74858390D01*
X44673333Y-53259580D02*
X44625714Y-53307200D01*
X44625714Y-53307200D02*
X44482857Y-53354819D01*
X44482857Y-53354819D02*
X44387619Y-53354819D01*
X44387619Y-53354819D02*
X44244762Y-53307200D01*
X44244762Y-53307200D02*
X44149524Y-53211961D01*
X44149524Y-53211961D02*
X44101905Y-53116723D01*
X44101905Y-53116723D02*
X44054286Y-52926247D01*
X44054286Y-52926247D02*
X44054286Y-52783390D01*
X44054286Y-52783390D02*
X44101905Y-52592914D01*
X44101905Y-52592914D02*
X44149524Y-52497676D01*
X44149524Y-52497676D02*
X44244762Y-52402438D01*
X44244762Y-52402438D02*
X44387619Y-52354819D01*
X44387619Y-52354819D02*
X44482857Y-52354819D01*
X44482857Y-52354819D02*
X44625714Y-52402438D01*
X44625714Y-52402438D02*
X44673333Y-52450057D01*
X45530476Y-52688152D02*
X45530476Y-53354819D01*
X45292381Y-52307200D02*
X45054286Y-53021485D01*
X45054286Y-53021485D02*
X45673333Y-53021485D01*
X52138095Y-27554819D02*
X52138095Y-26554819D01*
X52138095Y-27031009D02*
X52709523Y-27031009D01*
X52709523Y-27554819D02*
X52709523Y-26554819D01*
X53614285Y-26554819D02*
X53423809Y-26554819D01*
X53423809Y-26554819D02*
X53328571Y-26602438D01*
X53328571Y-26602438D02*
X53280952Y-26650057D01*
X53280952Y-26650057D02*
X53185714Y-26792914D01*
X53185714Y-26792914D02*
X53138095Y-26983390D01*
X53138095Y-26983390D02*
X53138095Y-27364342D01*
X53138095Y-27364342D02*
X53185714Y-27459580D01*
X53185714Y-27459580D02*
X53233333Y-27507200D01*
X53233333Y-27507200D02*
X53328571Y-27554819D01*
X53328571Y-27554819D02*
X53519047Y-27554819D01*
X53519047Y-27554819D02*
X53614285Y-27507200D01*
X53614285Y-27507200D02*
X53661904Y-27459580D01*
X53661904Y-27459580D02*
X53709523Y-27364342D01*
X53709523Y-27364342D02*
X53709523Y-27126247D01*
X53709523Y-27126247D02*
X53661904Y-27031009D01*
X53661904Y-27031009D02*
X53614285Y-26983390D01*
X53614285Y-26983390D02*
X53519047Y-26935771D01*
X53519047Y-26935771D02*
X53328571Y-26935771D01*
X53328571Y-26935771D02*
X53233333Y-26983390D01*
X53233333Y-26983390D02*
X53185714Y-27031009D01*
X53185714Y-27031009D02*
X53138095Y-27126247D01*
X26833333Y-50784819D02*
X26500000Y-50308628D01*
X26261905Y-50784819D02*
X26261905Y-49784819D01*
X26261905Y-49784819D02*
X26642857Y-49784819D01*
X26642857Y-49784819D02*
X26738095Y-49832438D01*
X26738095Y-49832438D02*
X26785714Y-49880057D01*
X26785714Y-49880057D02*
X26833333Y-49975295D01*
X26833333Y-49975295D02*
X26833333Y-50118152D01*
X26833333Y-50118152D02*
X26785714Y-50213390D01*
X26785714Y-50213390D02*
X26738095Y-50261009D01*
X26738095Y-50261009D02*
X26642857Y-50308628D01*
X26642857Y-50308628D02*
X26261905Y-50308628D01*
X27309524Y-50784819D02*
X27500000Y-50784819D01*
X27500000Y-50784819D02*
X27595238Y-50737200D01*
X27595238Y-50737200D02*
X27642857Y-50689580D01*
X27642857Y-50689580D02*
X27738095Y-50546723D01*
X27738095Y-50546723D02*
X27785714Y-50356247D01*
X27785714Y-50356247D02*
X27785714Y-49975295D01*
X27785714Y-49975295D02*
X27738095Y-49880057D01*
X27738095Y-49880057D02*
X27690476Y-49832438D01*
X27690476Y-49832438D02*
X27595238Y-49784819D01*
X27595238Y-49784819D02*
X27404762Y-49784819D01*
X27404762Y-49784819D02*
X27309524Y-49832438D01*
X27309524Y-49832438D02*
X27261905Y-49880057D01*
X27261905Y-49880057D02*
X27214286Y-49975295D01*
X27214286Y-49975295D02*
X27214286Y-50213390D01*
X27214286Y-50213390D02*
X27261905Y-50308628D01*
X27261905Y-50308628D02*
X27309524Y-50356247D01*
X27309524Y-50356247D02*
X27404762Y-50403866D01*
X27404762Y-50403866D02*
X27595238Y-50403866D01*
X27595238Y-50403866D02*
X27690476Y-50356247D01*
X27690476Y-50356247D02*
X27738095Y-50308628D01*
X27738095Y-50308628D02*
X27785714Y-50213390D01*
X23238095Y-65854819D02*
X23238095Y-64854819D01*
X23238095Y-65331009D02*
X23809523Y-65331009D01*
X23809523Y-65854819D02*
X23809523Y-64854819D01*
X24333333Y-65854819D02*
X24523809Y-65854819D01*
X24523809Y-65854819D02*
X24619047Y-65807200D01*
X24619047Y-65807200D02*
X24666666Y-65759580D01*
X24666666Y-65759580D02*
X24761904Y-65616723D01*
X24761904Y-65616723D02*
X24809523Y-65426247D01*
X24809523Y-65426247D02*
X24809523Y-65045295D01*
X24809523Y-65045295D02*
X24761904Y-64950057D01*
X24761904Y-64950057D02*
X24714285Y-64902438D01*
X24714285Y-64902438D02*
X24619047Y-64854819D01*
X24619047Y-64854819D02*
X24428571Y-64854819D01*
X24428571Y-64854819D02*
X24333333Y-64902438D01*
X24333333Y-64902438D02*
X24285714Y-64950057D01*
X24285714Y-64950057D02*
X24238095Y-65045295D01*
X24238095Y-65045295D02*
X24238095Y-65283390D01*
X24238095Y-65283390D02*
X24285714Y-65378628D01*
X24285714Y-65378628D02*
X24333333Y-65426247D01*
X24333333Y-65426247D02*
X24428571Y-65473866D01*
X24428571Y-65473866D02*
X24619047Y-65473866D01*
X24619047Y-65473866D02*
X24714285Y-65426247D01*
X24714285Y-65426247D02*
X24761904Y-65378628D01*
X24761904Y-65378628D02*
X24809523Y-65283390D01*
X1238095Y-40554819D02*
X1238095Y-39554819D01*
X1238095Y-40031009D02*
X1809523Y-40031009D01*
X1809523Y-40554819D02*
X1809523Y-39554819D01*
X2190476Y-39554819D02*
X2857142Y-39554819D01*
X2857142Y-39554819D02*
X2428571Y-40554819D01*
X45966666Y-17054819D02*
X45966666Y-17769104D01*
X45966666Y-17769104D02*
X45919047Y-17911961D01*
X45919047Y-17911961D02*
X45823809Y-18007200D01*
X45823809Y-18007200D02*
X45680952Y-18054819D01*
X45680952Y-18054819D02*
X45585714Y-18054819D01*
X46395238Y-17150057D02*
X46442857Y-17102438D01*
X46442857Y-17102438D02*
X46538095Y-17054819D01*
X46538095Y-17054819D02*
X46776190Y-17054819D01*
X46776190Y-17054819D02*
X46871428Y-17102438D01*
X46871428Y-17102438D02*
X46919047Y-17150057D01*
X46919047Y-17150057D02*
X46966666Y-17245295D01*
X46966666Y-17245295D02*
X46966666Y-17340533D01*
X46966666Y-17340533D02*
X46919047Y-17483390D01*
X46919047Y-17483390D02*
X46347619Y-18054819D01*
X46347619Y-18054819D02*
X46966666Y-18054819D01*
X7673333Y-52259580D02*
X7625714Y-52307200D01*
X7625714Y-52307200D02*
X7482857Y-52354819D01*
X7482857Y-52354819D02*
X7387619Y-52354819D01*
X7387619Y-52354819D02*
X7244762Y-52307200D01*
X7244762Y-52307200D02*
X7149524Y-52211961D01*
X7149524Y-52211961D02*
X7101905Y-52116723D01*
X7101905Y-52116723D02*
X7054286Y-51926247D01*
X7054286Y-51926247D02*
X7054286Y-51783390D01*
X7054286Y-51783390D02*
X7101905Y-51592914D01*
X7101905Y-51592914D02*
X7149524Y-51497676D01*
X7149524Y-51497676D02*
X7244762Y-51402438D01*
X7244762Y-51402438D02*
X7387619Y-51354819D01*
X7387619Y-51354819D02*
X7482857Y-51354819D01*
X7482857Y-51354819D02*
X7625714Y-51402438D01*
X7625714Y-51402438D02*
X7673333Y-51450057D01*
X8006667Y-51354819D02*
X8625714Y-51354819D01*
X8625714Y-51354819D02*
X8292381Y-51735771D01*
X8292381Y-51735771D02*
X8435238Y-51735771D01*
X8435238Y-51735771D02*
X8530476Y-51783390D01*
X8530476Y-51783390D02*
X8578095Y-51831009D01*
X8578095Y-51831009D02*
X8625714Y-51926247D01*
X8625714Y-51926247D02*
X8625714Y-52164342D01*
X8625714Y-52164342D02*
X8578095Y-52259580D01*
X8578095Y-52259580D02*
X8530476Y-52307200D01*
X8530476Y-52307200D02*
X8435238Y-52354819D01*
X8435238Y-52354819D02*
X8149524Y-52354819D01*
X8149524Y-52354819D02*
X8054286Y-52307200D01*
X8054286Y-52307200D02*
X8006667Y-52259580D01*
X47003333Y-87654819D02*
X46670000Y-87178628D01*
X46431905Y-87654819D02*
X46431905Y-86654819D01*
X46431905Y-86654819D02*
X46812857Y-86654819D01*
X46812857Y-86654819D02*
X46908095Y-86702438D01*
X46908095Y-86702438D02*
X46955714Y-86750057D01*
X46955714Y-86750057D02*
X47003333Y-86845295D01*
X47003333Y-86845295D02*
X47003333Y-86988152D01*
X47003333Y-86988152D02*
X46955714Y-87083390D01*
X46955714Y-87083390D02*
X46908095Y-87131009D01*
X46908095Y-87131009D02*
X46812857Y-87178628D01*
X46812857Y-87178628D02*
X46431905Y-87178628D01*
X47860476Y-86654819D02*
X47670000Y-86654819D01*
X47670000Y-86654819D02*
X47574762Y-86702438D01*
X47574762Y-86702438D02*
X47527143Y-86750057D01*
X47527143Y-86750057D02*
X47431905Y-86892914D01*
X47431905Y-86892914D02*
X47384286Y-87083390D01*
X47384286Y-87083390D02*
X47384286Y-87464342D01*
X47384286Y-87464342D02*
X47431905Y-87559580D01*
X47431905Y-87559580D02*
X47479524Y-87607200D01*
X47479524Y-87607200D02*
X47574762Y-87654819D01*
X47574762Y-87654819D02*
X47765238Y-87654819D01*
X47765238Y-87654819D02*
X47860476Y-87607200D01*
X47860476Y-87607200D02*
X47908095Y-87559580D01*
X47908095Y-87559580D02*
X47955714Y-87464342D01*
X47955714Y-87464342D02*
X47955714Y-87226247D01*
X47955714Y-87226247D02*
X47908095Y-87131009D01*
X47908095Y-87131009D02*
X47860476Y-87083390D01*
X47860476Y-87083390D02*
X47765238Y-87035771D01*
X47765238Y-87035771D02*
X47574762Y-87035771D01*
X47574762Y-87035771D02*
X47479524Y-87083390D01*
X47479524Y-87083390D02*
X47431905Y-87131009D01*
X47431905Y-87131009D02*
X47384286Y-87226247D01*
X761905Y-78854819D02*
X761905Y-77854819D01*
X761905Y-78331009D02*
X1333333Y-78331009D01*
X1333333Y-78854819D02*
X1333333Y-77854819D01*
X2333333Y-78854819D02*
X1761905Y-78854819D01*
X2047619Y-78854819D02*
X2047619Y-77854819D01*
X2047619Y-77854819D02*
X1952381Y-77997676D01*
X1952381Y-77997676D02*
X1857143Y-78092914D01*
X1857143Y-78092914D02*
X1761905Y-78140533D01*
X2714286Y-77950057D02*
X2761905Y-77902438D01*
X2761905Y-77902438D02*
X2857143Y-77854819D01*
X2857143Y-77854819D02*
X3095238Y-77854819D01*
X3095238Y-77854819D02*
X3190476Y-77902438D01*
X3190476Y-77902438D02*
X3238095Y-77950057D01*
X3238095Y-77950057D02*
X3285714Y-78045295D01*
X3285714Y-78045295D02*
X3285714Y-78140533D01*
X3285714Y-78140533D02*
X3238095Y-78283390D01*
X3238095Y-78283390D02*
X2666667Y-78854819D01*
X2666667Y-78854819D02*
X3285714Y-78854819D01*
X29661905Y-104154819D02*
X29661905Y-103154819D01*
X29661905Y-103631009D02*
X30233333Y-103631009D01*
X30233333Y-104154819D02*
X30233333Y-103154819D01*
X31233333Y-104154819D02*
X30661905Y-104154819D01*
X30947619Y-104154819D02*
X30947619Y-103154819D01*
X30947619Y-103154819D02*
X30852381Y-103297676D01*
X30852381Y-103297676D02*
X30757143Y-103392914D01*
X30757143Y-103392914D02*
X30661905Y-103440533D01*
X32090476Y-103154819D02*
X31900000Y-103154819D01*
X31900000Y-103154819D02*
X31804762Y-103202438D01*
X31804762Y-103202438D02*
X31757143Y-103250057D01*
X31757143Y-103250057D02*
X31661905Y-103392914D01*
X31661905Y-103392914D02*
X31614286Y-103583390D01*
X31614286Y-103583390D02*
X31614286Y-103964342D01*
X31614286Y-103964342D02*
X31661905Y-104059580D01*
X31661905Y-104059580D02*
X31709524Y-104107200D01*
X31709524Y-104107200D02*
X31804762Y-104154819D01*
X31804762Y-104154819D02*
X31995238Y-104154819D01*
X31995238Y-104154819D02*
X32090476Y-104107200D01*
X32090476Y-104107200D02*
X32138095Y-104059580D01*
X32138095Y-104059580D02*
X32185714Y-103964342D01*
X32185714Y-103964342D02*
X32185714Y-103726247D01*
X32185714Y-103726247D02*
X32138095Y-103631009D01*
X32138095Y-103631009D02*
X32090476Y-103583390D01*
X32090476Y-103583390D02*
X31995238Y-103535771D01*
X31995238Y-103535771D02*
X31804762Y-103535771D01*
X31804762Y-103535771D02*
X31709524Y-103583390D01*
X31709524Y-103583390D02*
X31661905Y-103631009D01*
X31661905Y-103631009D02*
X31614286Y-103726247D01*
X8266666Y-17054819D02*
X8266666Y-17769104D01*
X8266666Y-17769104D02*
X8219047Y-17911961D01*
X8219047Y-17911961D02*
X8123809Y-18007200D01*
X8123809Y-18007200D02*
X7980952Y-18054819D01*
X7980952Y-18054819D02*
X7885714Y-18054819D01*
X9266666Y-18054819D02*
X8695238Y-18054819D01*
X8980952Y-18054819D02*
X8980952Y-17054819D01*
X8980952Y-17054819D02*
X8885714Y-17197676D01*
X8885714Y-17197676D02*
X8790476Y-17292914D01*
X8790476Y-17292914D02*
X8695238Y-17340533D01*
X7673333Y-13959580D02*
X7625714Y-14007200D01*
X7625714Y-14007200D02*
X7482857Y-14054819D01*
X7482857Y-14054819D02*
X7387619Y-14054819D01*
X7387619Y-14054819D02*
X7244762Y-14007200D01*
X7244762Y-14007200D02*
X7149524Y-13911961D01*
X7149524Y-13911961D02*
X7101905Y-13816723D01*
X7101905Y-13816723D02*
X7054286Y-13626247D01*
X7054286Y-13626247D02*
X7054286Y-13483390D01*
X7054286Y-13483390D02*
X7101905Y-13292914D01*
X7101905Y-13292914D02*
X7149524Y-13197676D01*
X7149524Y-13197676D02*
X7244762Y-13102438D01*
X7244762Y-13102438D02*
X7387619Y-13054819D01*
X7387619Y-13054819D02*
X7482857Y-13054819D01*
X7482857Y-13054819D02*
X7625714Y-13102438D01*
X7625714Y-13102438D02*
X7673333Y-13150057D01*
X8625714Y-14054819D02*
X8054286Y-14054819D01*
X8340000Y-14054819D02*
X8340000Y-13054819D01*
X8340000Y-13054819D02*
X8244762Y-13197676D01*
X8244762Y-13197676D02*
X8149524Y-13292914D01*
X8149524Y-13292914D02*
X8054286Y-13340533D01*
X42166667Y-1957200D02*
X42309524Y-2004819D01*
X42309524Y-2004819D02*
X42547619Y-2004819D01*
X42547619Y-2004819D02*
X42642857Y-1957200D01*
X42642857Y-1957200D02*
X42690476Y-1909580D01*
X42690476Y-1909580D02*
X42738095Y-1814342D01*
X42738095Y-1814342D02*
X42738095Y-1719104D01*
X42738095Y-1719104D02*
X42690476Y-1623866D01*
X42690476Y-1623866D02*
X42642857Y-1576247D01*
X42642857Y-1576247D02*
X42547619Y-1528628D01*
X42547619Y-1528628D02*
X42357143Y-1481009D01*
X42357143Y-1481009D02*
X42261905Y-1433390D01*
X42261905Y-1433390D02*
X42214286Y-1385771D01*
X42214286Y-1385771D02*
X42166667Y-1290533D01*
X42166667Y-1290533D02*
X42166667Y-1195295D01*
X42166667Y-1195295D02*
X42214286Y-1100057D01*
X42214286Y-1100057D02*
X42261905Y-1052438D01*
X42261905Y-1052438D02*
X42357143Y-1004819D01*
X42357143Y-1004819D02*
X42595238Y-1004819D01*
X42595238Y-1004819D02*
X42738095Y-1052438D01*
X43071429Y-1004819D02*
X43309524Y-2004819D01*
X43309524Y-2004819D02*
X43500000Y-1290533D01*
X43500000Y-1290533D02*
X43690476Y-2004819D01*
X43690476Y-2004819D02*
X43928572Y-1004819D01*
X44261905Y-1100057D02*
X44309524Y-1052438D01*
X44309524Y-1052438D02*
X44404762Y-1004819D01*
X44404762Y-1004819D02*
X44642857Y-1004819D01*
X44642857Y-1004819D02*
X44738095Y-1052438D01*
X44738095Y-1052438D02*
X44785714Y-1100057D01*
X44785714Y-1100057D02*
X44833333Y-1195295D01*
X44833333Y-1195295D02*
X44833333Y-1290533D01*
X44833333Y-1290533D02*
X44785714Y-1433390D01*
X44785714Y-1433390D02*
X44214286Y-2004819D01*
X44214286Y-2004819D02*
X44833333Y-2004819D01*
X10003333Y-98654819D02*
X9670000Y-98178628D01*
X9431905Y-98654819D02*
X9431905Y-97654819D01*
X9431905Y-97654819D02*
X9812857Y-97654819D01*
X9812857Y-97654819D02*
X9908095Y-97702438D01*
X9908095Y-97702438D02*
X9955714Y-97750057D01*
X9955714Y-97750057D02*
X10003333Y-97845295D01*
X10003333Y-97845295D02*
X10003333Y-97988152D01*
X10003333Y-97988152D02*
X9955714Y-98083390D01*
X9955714Y-98083390D02*
X9908095Y-98131009D01*
X9908095Y-98131009D02*
X9812857Y-98178628D01*
X9812857Y-98178628D02*
X9431905Y-98178628D01*
X10908095Y-97654819D02*
X10431905Y-97654819D01*
X10431905Y-97654819D02*
X10384286Y-98131009D01*
X10384286Y-98131009D02*
X10431905Y-98083390D01*
X10431905Y-98083390D02*
X10527143Y-98035771D01*
X10527143Y-98035771D02*
X10765238Y-98035771D01*
X10765238Y-98035771D02*
X10860476Y-98083390D01*
X10860476Y-98083390D02*
X10908095Y-98131009D01*
X10908095Y-98131009D02*
X10955714Y-98226247D01*
X10955714Y-98226247D02*
X10955714Y-98464342D01*
X10955714Y-98464342D02*
X10908095Y-98559580D01*
X10908095Y-98559580D02*
X10860476Y-98607200D01*
X10860476Y-98607200D02*
X10765238Y-98654819D01*
X10765238Y-98654819D02*
X10527143Y-98654819D01*
X10527143Y-98654819D02*
X10431905Y-98607200D01*
X10431905Y-98607200D02*
X10384286Y-98559580D01*
X1238095Y-104154819D02*
X1238095Y-103154819D01*
X1238095Y-103631009D02*
X1809523Y-103631009D01*
X1809523Y-104154819D02*
X1809523Y-103154819D01*
X2190476Y-103154819D02*
X2809523Y-103154819D01*
X2809523Y-103154819D02*
X2476190Y-103535771D01*
X2476190Y-103535771D02*
X2619047Y-103535771D01*
X2619047Y-103535771D02*
X2714285Y-103583390D01*
X2714285Y-103583390D02*
X2761904Y-103631009D01*
X2761904Y-103631009D02*
X2809523Y-103726247D01*
X2809523Y-103726247D02*
X2809523Y-103964342D01*
X2809523Y-103964342D02*
X2761904Y-104059580D01*
X2761904Y-104059580D02*
X2714285Y-104107200D01*
X2714285Y-104107200D02*
X2619047Y-104154819D01*
X2619047Y-104154819D02*
X2333333Y-104154819D01*
X2333333Y-104154819D02*
X2238095Y-104107200D01*
X2238095Y-104107200D02*
X2190476Y-104059580D01*
X17153333Y-6859580D02*
X17105714Y-6907200D01*
X17105714Y-6907200D02*
X16962857Y-6954819D01*
X16962857Y-6954819D02*
X16867619Y-6954819D01*
X16867619Y-6954819D02*
X16724762Y-6907200D01*
X16724762Y-6907200D02*
X16629524Y-6811961D01*
X16629524Y-6811961D02*
X16581905Y-6716723D01*
X16581905Y-6716723D02*
X16534286Y-6526247D01*
X16534286Y-6526247D02*
X16534286Y-6383390D01*
X16534286Y-6383390D02*
X16581905Y-6192914D01*
X16581905Y-6192914D02*
X16629524Y-6097676D01*
X16629524Y-6097676D02*
X16724762Y-6002438D01*
X16724762Y-6002438D02*
X16867619Y-5954819D01*
X16867619Y-5954819D02*
X16962857Y-5954819D01*
X16962857Y-5954819D02*
X17105714Y-6002438D01*
X17105714Y-6002438D02*
X17153333Y-6050057D01*
X17486667Y-5954819D02*
X18153333Y-5954819D01*
X18153333Y-5954819D02*
X17724762Y-6954819D01*
%TO.C,J7*%
D11*
X22830000Y-3200000D02*
X22830000Y-4900000D01*
X32170000Y-3200000D02*
X32170000Y-4900000D01*
%TO.C,U1*%
X14600000Y-27500000D02*
X20800000Y-27500000D01*
X14600000Y-45900000D02*
X14600000Y-27500000D01*
X14600000Y-45900000D02*
X20800000Y-45900000D01*
X39450000Y-45900000D02*
X40450000Y-45900000D01*
X40450000Y-27500000D02*
X39450000Y-27500000D01*
X40450000Y-27500000D02*
X40450000Y-29000000D01*
X40450000Y-45900000D02*
X40450000Y-44400000D01*
X21475000Y-45900000D02*
X21475000Y-46400000D01*
X20975000Y-45900000D01*
X21475000Y-45900000D01*
G36*
X21475000Y-46400000D02*
G01*
X20975000Y-45900000D01*
X21475000Y-45900000D01*
X21475000Y-46400000D01*
G37*
%TO.C,R2*%
X45620000Y-10446359D02*
X45620000Y-10753641D01*
X46380000Y-10446359D02*
X46380000Y-10753641D01*
%TO.C,C2*%
X45640000Y-14707836D02*
X45640000Y-14492164D01*
X46360000Y-14707836D02*
X46360000Y-14492164D01*
%TO.C,R4*%
X45620000Y-48746359D02*
X45620000Y-49053641D01*
X46380000Y-48746359D02*
X46380000Y-49053641D01*
%TO.C,U2*%
X11090000Y-1090000D02*
X11090000Y-2350000D01*
X11090000Y-7910000D02*
X11090000Y-6650000D01*
X14850000Y-1090000D02*
X11090000Y-1090000D01*
X14850000Y-7910000D02*
X11090000Y-7910000D01*
X16130000Y-7810000D02*
X16370000Y-8140000D01*
X15890000Y-8140000D01*
X16130000Y-7810000D01*
G36*
X16370000Y-8140000D02*
G01*
X15890000Y-8140000D01*
X16130000Y-7810000D01*
X16370000Y-8140000D01*
G37*
%TO.C,C11*%
X29892164Y-51140000D02*
X30107836Y-51140000D01*
X29892164Y-51860000D02*
X30107836Y-51860000D01*
%TO.C,SW1*%
X35300000Y-4050000D02*
X35300000Y-3950000D01*
X35300000Y-5550000D02*
X39700000Y-5550000D01*
X39700000Y-2450000D02*
X35300000Y-2450000D01*
X39700000Y-4050000D02*
X39700000Y-3950000D01*
%TO.C,C5*%
X8640000Y-90307836D02*
X8640000Y-90092164D01*
X9360000Y-90307836D02*
X9360000Y-90092164D01*
%TO.C,R3*%
X8620000Y-59746359D02*
X8620000Y-60053641D01*
X9380000Y-59746359D02*
X9380000Y-60053641D01*
%TO.C,J5*%
X11290000Y-87590000D02*
X11290000Y-88540000D01*
X11290000Y-99860000D02*
X9800000Y-99860000D01*
X11290000Y-100810000D02*
X11290000Y-99860000D01*
X11740000Y-87590000D02*
X11290000Y-87590000D01*
X11740000Y-100810000D02*
X11290000Y-100810000D01*
X15260000Y-100810000D02*
X15710000Y-100810000D01*
X15710000Y-87590000D02*
X15260000Y-87590000D01*
X15710000Y-100810000D02*
X15710000Y-87590000D01*
%TO.C,J6*%
X39190000Y-87590000D02*
X39190000Y-100810000D01*
X39190000Y-100810000D02*
X39640000Y-100810000D01*
X39640000Y-87590000D02*
X39190000Y-87590000D01*
X43160000Y-87590000D02*
X43610000Y-87590000D01*
X43160000Y-100810000D02*
X43610000Y-100810000D01*
X43610000Y-87590000D02*
X43610000Y-88540000D01*
X43610000Y-88540000D02*
X45100000Y-88540000D01*
X43610000Y-100810000D02*
X43610000Y-99860000D01*
%TO.C,C9*%
X23392164Y-51140000D02*
X23607836Y-51140000D01*
X23392164Y-51860000D02*
X23607836Y-51860000D01*
%TO.C,C10*%
X32892164Y-51140000D02*
X33107836Y-51140000D01*
X32892164Y-51860000D02*
X33107836Y-51860000D01*
%TO.C,J3*%
X11290000Y-49290000D02*
X11290000Y-50240000D01*
X11290000Y-61560000D02*
X9800000Y-61560000D01*
X11290000Y-62510000D02*
X11290000Y-61560000D01*
X11740000Y-49290000D02*
X11290000Y-49290000D01*
X11740000Y-62510000D02*
X11290000Y-62510000D01*
X15260000Y-62510000D02*
X15710000Y-62510000D01*
X15710000Y-49290000D02*
X15260000Y-49290000D01*
X15710000Y-62510000D02*
X15710000Y-49290000D01*
%TO.C,C6*%
X45640000Y-94607836D02*
X45640000Y-94392164D01*
X46360000Y-94607836D02*
X46360000Y-94392164D01*
%TO.C,R8*%
X34120000Y-9653641D02*
X34120000Y-9346359D01*
X34880000Y-9653641D02*
X34880000Y-9346359D01*
%TO.C,R1*%
X8620000Y-21446359D02*
X8620000Y-21753641D01*
X9380000Y-21446359D02*
X9380000Y-21753641D01*
%TO.C,C8*%
X5765000Y-10061252D02*
X5765000Y-9538748D01*
X7235000Y-10061252D02*
X7235000Y-9538748D01*
%TO.C,J4*%
X39190000Y-49290000D02*
X39190000Y-62510000D01*
X39190000Y-62510000D02*
X39640000Y-62510000D01*
X39640000Y-49290000D02*
X39190000Y-49290000D01*
X43160000Y-49290000D02*
X43610000Y-49290000D01*
X43160000Y-62510000D02*
X43610000Y-62510000D01*
X43610000Y-49290000D02*
X43610000Y-50240000D01*
X43610000Y-50240000D02*
X45100000Y-50240000D01*
X43610000Y-62510000D02*
X43610000Y-61560000D01*
%TO.C,R7*%
X20120000Y-9653641D02*
X20120000Y-9346359D01*
X20880000Y-9653641D02*
X20880000Y-9346359D01*
%TO.C,U3*%
X25940000Y-11590000D02*
X25990000Y-11590000D01*
X25940000Y-13410000D02*
X25940000Y-11590000D01*
X25990000Y-13410000D02*
X25940000Y-13410000D01*
X29010000Y-11590000D02*
X29060000Y-11590000D01*
X29060000Y-11590000D02*
X29060000Y-13410000D01*
X29060000Y-13410000D02*
X29010000Y-13410000D01*
X29010000Y-11050000D02*
X29340000Y-10810000D01*
X29340000Y-11290000D01*
X29010000Y-11050000D01*
G36*
X29340000Y-11290000D02*
G01*
X29010000Y-11050000D01*
X29340000Y-10810000D01*
X29340000Y-11290000D01*
G37*
%TO.C,J8*%
X48875000Y-68565000D02*
X43275000Y-68565000D01*
X49575000Y-81435000D02*
X43275000Y-81435000D01*
X52125000Y-68565000D02*
X53285000Y-68565000D01*
X53285000Y-68565000D02*
X53285000Y-79825000D01*
X53285000Y-81325000D02*
X53285000Y-81435000D01*
X53285000Y-81435000D02*
X51475000Y-81435000D01*
%TO.C,C4*%
X45640000Y-53007836D02*
X45640000Y-52792164D01*
X46360000Y-53007836D02*
X46360000Y-52792164D01*
%TO.C,R9*%
X26846359Y-51120000D02*
X27153641Y-51120000D01*
X26846359Y-51880000D02*
X27153641Y-51880000D01*
%TO.C,J2*%
X39190000Y-10990000D02*
X39190000Y-24210000D01*
X39190000Y-24210000D02*
X39640000Y-24210000D01*
X39640000Y-10990000D02*
X39190000Y-10990000D01*
X43160000Y-10990000D02*
X43610000Y-10990000D01*
X43160000Y-24210000D02*
X43610000Y-24210000D01*
X43610000Y-10990000D02*
X43610000Y-11940000D01*
X43610000Y-11940000D02*
X45100000Y-11940000D01*
X43610000Y-24210000D02*
X43610000Y-23260000D01*
%TO.C,C3*%
X8640000Y-52007836D02*
X8640000Y-51792164D01*
X9360000Y-52007836D02*
X9360000Y-51792164D01*
%TO.C,R6*%
X45620000Y-87046359D02*
X45620000Y-87353641D01*
X46380000Y-87046359D02*
X46380000Y-87353641D01*
%TO.C,J1*%
X11290000Y-10990000D02*
X11290000Y-11940000D01*
X11290000Y-23260000D02*
X9800000Y-23260000D01*
X11290000Y-24210000D02*
X11290000Y-23260000D01*
X11740000Y-10990000D02*
X11290000Y-10990000D01*
X11740000Y-24210000D02*
X11290000Y-24210000D01*
X15260000Y-24210000D02*
X15710000Y-24210000D01*
X15710000Y-10990000D02*
X15260000Y-10990000D01*
X15710000Y-24210000D02*
X15710000Y-10990000D01*
%TO.C,C1*%
X8640000Y-13707836D02*
X8640000Y-13492164D01*
X9360000Y-13707836D02*
X9360000Y-13492164D01*
%TO.C,SW2*%
X41300000Y-4050000D02*
X41300000Y-3950000D01*
X41300000Y-5550000D02*
X45700000Y-5550000D01*
X45700000Y-2450000D02*
X41300000Y-2450000D01*
X45700000Y-4050000D02*
X45700000Y-3950000D01*
%TO.C,R5*%
X8620000Y-98046359D02*
X8620000Y-98353641D01*
X9380000Y-98046359D02*
X9380000Y-98353641D01*
%TO.C,C7*%
X18265000Y-6761252D02*
X18265000Y-6238748D01*
X19735000Y-6761252D02*
X19735000Y-6238748D01*
%TD*%
%LPC*%
D12*
%TO.C,J7*%
X30390000Y-5705000D03*
X24610000Y-5705000D03*
D13*
X30700000Y-6780000D03*
X29900000Y-6780000D03*
D14*
X28750000Y-6780000D03*
X27750000Y-6780000D03*
X27250000Y-6780000D03*
X26250000Y-6780000D03*
D13*
X25100000Y-6780000D03*
X24300000Y-6780000D03*
X24300000Y-6780000D03*
X25100000Y-6780000D03*
D14*
X25750000Y-6780000D03*
X26750000Y-6780000D03*
X28250000Y-6780000D03*
X29250000Y-6780000D03*
D13*
X29900000Y-6780000D03*
X30700000Y-6780000D03*
D15*
X31820000Y-6205000D03*
D16*
X31820000Y-2025000D03*
D15*
X23180000Y-6205000D03*
D16*
X23180000Y-2025000D03*
%TD*%
D17*
%TO.C,H11*%
X52900000Y-43250000D03*
%TD*%
D18*
%TO.C,U1*%
X22240000Y-45450000D03*
X23510000Y-45450000D03*
X24780000Y-45450000D03*
X26050000Y-45450000D03*
X27320000Y-45450000D03*
X28590000Y-45450000D03*
X29860000Y-45450000D03*
X31130000Y-45450000D03*
X32400000Y-45450000D03*
X33670000Y-45450000D03*
X34940000Y-45450000D03*
X36210000Y-45450000D03*
X37480000Y-45450000D03*
X38750000Y-45450000D03*
D19*
X40000000Y-43685000D03*
X40000000Y-42415000D03*
X40000000Y-41145000D03*
X40000000Y-39875000D03*
X40000000Y-38605000D03*
X40000000Y-37335000D03*
X40000000Y-36065000D03*
X40000000Y-34795000D03*
X40000000Y-33525000D03*
X40000000Y-32255000D03*
X40000000Y-30985000D03*
X40000000Y-29715000D03*
D18*
X38750000Y-27950000D03*
X37480000Y-27950000D03*
X36210000Y-27950000D03*
X34940000Y-27950000D03*
X33670000Y-27950000D03*
X32400000Y-27950000D03*
X31130000Y-27950000D03*
X29860000Y-27950000D03*
X28590000Y-27950000D03*
X27320000Y-27950000D03*
X26050000Y-27950000D03*
X24780000Y-27950000D03*
X23510000Y-27950000D03*
X22240000Y-27950000D03*
D20*
X29260000Y-39600000D03*
X30660000Y-39600000D03*
X28560000Y-38900000D03*
X29960000Y-38900000D03*
X31360000Y-38900000D03*
X29260000Y-38200000D03*
D21*
X29960000Y-38200000D03*
D20*
X30660000Y-38200000D03*
X28560000Y-37500000D03*
X29960000Y-37500000D03*
X31360000Y-37500000D03*
X29260000Y-36800000D03*
X30660000Y-36800000D03*
%TD*%
D22*
%TO.C,R2*%
X46000000Y-10090000D03*
X46000000Y-11110000D03*
%TD*%
D23*
%TO.C,C2*%
X46000000Y-15080000D03*
X46000000Y-14120000D03*
%TD*%
D22*
%TO.C,R4*%
X46000000Y-48390000D03*
X46000000Y-49410000D03*
%TD*%
D24*
%TO.C,U2*%
X16150000Y-6800000D03*
X16150000Y-4500000D03*
D25*
X9850000Y-4500000D03*
D24*
X16150000Y-2200000D03*
%TD*%
D26*
%TO.C,C11*%
X29520000Y-51500000D03*
X30480000Y-51500000D03*
%TD*%
D17*
%TO.C,H10*%
X30900000Y-68550000D03*
%TD*%
D27*
%TO.C,SW1*%
X35450000Y-3200000D03*
X39550000Y-3200000D03*
X35450000Y-4800000D03*
X39550000Y-4800000D03*
%TD*%
D23*
%TO.C,C5*%
X9000000Y-90680000D03*
X9000000Y-89720000D03*
%TD*%
D22*
%TO.C,R3*%
X9000000Y-59390000D03*
X9000000Y-60410000D03*
%TD*%
D28*
%TO.C,J5*%
X10600000Y-99200000D03*
X10600000Y-97950000D03*
X10600000Y-96700000D03*
X10600000Y-95450000D03*
X10600000Y-94200000D03*
X10600000Y-92950000D03*
X10600000Y-91700000D03*
X10600000Y-90450000D03*
X10600000Y-89200000D03*
D29*
X13500000Y-101750000D03*
X13500000Y-86650000D03*
%TD*%
D30*
%TO.C,J6*%
X44300000Y-89200000D03*
X44300000Y-90450000D03*
X44300000Y-91700000D03*
X44300000Y-92950000D03*
X44300000Y-94200000D03*
X44300000Y-95450000D03*
X44300000Y-96700000D03*
X44300000Y-97950000D03*
X44300000Y-99200000D03*
D31*
X41400000Y-86650000D03*
X41400000Y-101750000D03*
%TD*%
D17*
%TO.C,H14*%
X24000000Y-106850000D03*
%TD*%
%TO.C,H4*%
X52900000Y-106850000D03*
%TD*%
%TO.C,H15*%
X30900000Y-81550000D03*
%TD*%
%TO.C,H8*%
X2000000Y-68550000D03*
%TD*%
D26*
%TO.C,C9*%
X23020000Y-51500000D03*
X23980000Y-51500000D03*
%TD*%
D17*
%TO.C,H2*%
X52900000Y-4950000D03*
%TD*%
D26*
%TO.C,C10*%
X32520000Y-51500000D03*
X33480000Y-51500000D03*
%TD*%
D28*
%TO.C,J3*%
X10600000Y-60900000D03*
X10600000Y-59650000D03*
X10600000Y-58400000D03*
X10600000Y-57150000D03*
X10600000Y-55900000D03*
X10600000Y-54650000D03*
X10600000Y-53400000D03*
X10600000Y-52150000D03*
X10600000Y-50900000D03*
D29*
X13500000Y-63450000D03*
X13500000Y-48350000D03*
%TD*%
D23*
%TO.C,C6*%
X46000000Y-94980000D03*
X46000000Y-94020000D03*
%TD*%
D32*
%TO.C,R8*%
X34500000Y-10010000D03*
X34500000Y-8990000D03*
%TD*%
D22*
%TO.C,R1*%
X9000000Y-21090000D03*
X9000000Y-22110000D03*
%TD*%
D33*
%TO.C,C8*%
X6500000Y-10750000D03*
X6500000Y-8850000D03*
%TD*%
D17*
%TO.C,H1*%
X2000000Y-4950000D03*
%TD*%
%TO.C,H13*%
X24000000Y-81550000D03*
%TD*%
%TO.C,H5*%
X2000000Y-30250000D03*
%TD*%
D30*
%TO.C,J4*%
X44300000Y-50900000D03*
X44300000Y-52150000D03*
X44300000Y-53400000D03*
X44300000Y-54650000D03*
X44300000Y-55900000D03*
X44300000Y-57150000D03*
X44300000Y-58400000D03*
X44300000Y-59650000D03*
X44300000Y-60900000D03*
D31*
X41400000Y-48350000D03*
X41400000Y-63450000D03*
%TD*%
D32*
%TO.C,R7*%
X20500000Y-10010000D03*
X20500000Y-8990000D03*
%TD*%
D34*
%TO.C,U3*%
X28450000Y-11362500D03*
X27500000Y-11362500D03*
X26550000Y-11362500D03*
X26550000Y-13637500D03*
X27500000Y-13637500D03*
X28450000Y-13637500D03*
%TD*%
D35*
%TO.C,J8*%
X42150000Y-78175000D03*
X42150000Y-77075000D03*
X42150000Y-75975000D03*
X42150000Y-74875000D03*
X42150000Y-73775000D03*
X42150000Y-72675000D03*
X42150000Y-71575000D03*
X42150000Y-70475000D03*
D36*
X51375000Y-69350000D03*
D37*
X52950000Y-80575000D03*
D38*
X49875000Y-69025000D03*
D39*
X42275000Y-69275000D03*
D40*
X42275000Y-80625000D03*
D41*
X50525000Y-80975000D03*
%TD*%
D23*
%TO.C,C4*%
X46000000Y-53380000D03*
X46000000Y-52420000D03*
%TD*%
D17*
%TO.C,H6*%
X52900000Y-30250000D03*
%TD*%
D42*
%TO.C,R9*%
X26490000Y-51500000D03*
X27510000Y-51500000D03*
%TD*%
D17*
%TO.C,H9*%
X24000000Y-68550000D03*
%TD*%
%TO.C,H7*%
X2000000Y-43250000D03*
%TD*%
D30*
%TO.C,J2*%
X44300000Y-12600000D03*
X44300000Y-13850000D03*
X44300000Y-15100000D03*
X44300000Y-16350000D03*
X44300000Y-17600000D03*
X44300000Y-18850000D03*
X44300000Y-20100000D03*
X44300000Y-21350000D03*
X44300000Y-22600000D03*
D31*
X41400000Y-10050000D03*
X41400000Y-25150000D03*
%TD*%
D23*
%TO.C,C3*%
X9000000Y-52380000D03*
X9000000Y-51420000D03*
%TD*%
D22*
%TO.C,R6*%
X46000000Y-86690000D03*
X46000000Y-87710000D03*
%TD*%
D17*
%TO.C,H12*%
X2000000Y-81550000D03*
%TD*%
%TO.C,H16*%
X30900000Y-106850000D03*
%TD*%
D28*
%TO.C,J1*%
X10600000Y-22600000D03*
X10600000Y-21350000D03*
X10600000Y-20100000D03*
X10600000Y-18850000D03*
X10600000Y-17600000D03*
X10600000Y-16350000D03*
X10600000Y-15100000D03*
X10600000Y-13850000D03*
X10600000Y-12600000D03*
D29*
X13500000Y-25150000D03*
X13500000Y-10050000D03*
%TD*%
D23*
%TO.C,C1*%
X9000000Y-14080000D03*
X9000000Y-13120000D03*
%TD*%
D27*
%TO.C,SW2*%
X41450000Y-3200000D03*
X45550000Y-3200000D03*
X41450000Y-4800000D03*
X45550000Y-4800000D03*
%TD*%
D22*
%TO.C,R5*%
X9000000Y-97690000D03*
X9000000Y-98710000D03*
%TD*%
D17*
%TO.C,H3*%
X2000000Y-106850000D03*
%TD*%
D33*
%TO.C,C7*%
X19000000Y-7450000D03*
X19000000Y-5550000D03*
%TD*%
%LPD*%
M02*
