%TF.GenerationSoftware,KiCad,Pcbnew,10.0.4*%
%TF.CreationDate,2026-07-03T21:14:15-04:00*%
%TF.ProjectId,data_streamdeck,64617461-5f73-4747-9265-616d6465636b,rev?*%
%TF.SameCoordinates,Original*%
%TF.FileFunction,Copper,L2,Bot*%
%TF.FilePolarity,Positive*%
%FSLAX46Y46*%
G04 Gerber Fmt 4.6, Leading zero omitted, Abs format (unit mm)*
G04 Created by KiCad (PCBNEW 10.0.4) date 2026-07-03 21:14:15*
%MOMM*%
%LPD*%
G01*
G04 APERTURE LIST*
%TA.AperFunction,ComponentPad*%
%ADD10O,1.000000X2.100000*%
%TD*%
%TA.AperFunction,ComponentPad*%
%ADD11O,1.000000X1.800000*%
%TD*%
%TA.AperFunction,HeatsinkPad*%
%ADD12C,0.600000*%
%TD*%
%TA.AperFunction,ViaPad*%
%ADD13C,0.500000*%
%TD*%
%TA.AperFunction,ViaPad*%
%ADD14C,0.600000*%
%TD*%
%TA.AperFunction,Conductor*%
%ADD15C,0.200000*%
%TD*%
G04 APERTURE END LIST*
D10*
%TO.P,J7,SH*%
%TO.N,GND*%
X31820000Y-6205000D03*
D11*
X31820000Y-2025000D03*
D10*
X23180000Y-6205000D03*
D11*
X23180000Y-2025000D03*
%TD*%
D12*
%TO.P,U1,41*%
%TO.N,GND*%
X29260000Y-39600000D03*
X30660000Y-39600000D03*
X28560000Y-38900000D03*
X29960000Y-38900000D03*
X31360000Y-38900000D03*
X29260000Y-38200000D03*
X30660000Y-38200000D03*
X28560000Y-37500000D03*
X29960000Y-37500000D03*
X31360000Y-37500000D03*
X29260000Y-36800000D03*
X30660000Y-36800000D03*
%TD*%
D13*
%TO.N,GND*%
X23400000Y-6780000D03*
X11500000Y-92950000D03*
D14*
X4500000Y-32000000D03*
D13*
X42300000Y-101750000D03*
X43400000Y-95450000D03*
X19720577Y-9440000D03*
X14400000Y-10050000D03*
X22472937Y-28819333D03*
X40000000Y-5579422D03*
X34080000Y-52539230D03*
X24580000Y-52539230D03*
X51425000Y-80975000D03*
X5863603Y-9486396D03*
X17049999Y-6800000D03*
X14400000Y-48350000D03*
X45767062Y-51550666D03*
X14400000Y-101750000D03*
X42300000Y-10050000D03*
X12720577Y-86200000D03*
X46449999Y-4800000D03*
X45767062Y-13250666D03*
X43175000Y-80625000D03*
X11372740Y-54442944D03*
X52275000Y-69350000D03*
X42300000Y-25150000D03*
X43400000Y-18850000D03*
X9232937Y-50550666D03*
X35400000Y-8990000D03*
X42300000Y-48350000D03*
D14*
X52000000Y-74000000D03*
D13*
X36350000Y-4800000D03*
X10600000Y-16350000D03*
D14*
X50000000Y-32000000D03*
X3000000Y-74000000D03*
D13*
X42300000Y-63450000D03*
X14136396Y-25786396D03*
X9232937Y-88850666D03*
X40620577Y-86200000D03*
X9000000Y-12219999D03*
X43400000Y-57150000D03*
X22472937Y-46319333D03*
X14400000Y-63450000D03*
D14*
X27500000Y-60000000D03*
D13*
X41405666Y-69042062D03*
X29880000Y-50460769D03*
X31599999Y-6780000D03*
D14*
X27500000Y-90000000D03*
D13*
X42150000Y-72675000D03*
X46000000Y-94020000D03*
X27500000Y-11362500D03*
D14*
%TO.N,VBUS*%
X29720300Y-8055500D03*
X25374200Y-8959400D03*
%TO.N,CC1*%
X28626800Y-8204500D03*
X22910100Y-8258500D03*
%TO.N,USB_D+*%
X38459500Y-41923300D03*
X34659500Y-30604500D03*
X34388200Y-41923300D03*
X27500400Y-25830200D03*
X25403500Y-11020000D03*
X22907500Y-11473300D03*
%TO.N,USB_D-*%
X31342400Y-26028400D03*
X36216300Y-29559500D03*
%TO.N,+3V3*%
X32528900Y-52431400D03*
X43103300Y-66327300D03*
X26683300Y-52433200D03*
X45734200Y-58466700D03*
%TO.N,EN*%
X39534100Y-7279100D03*
X23850900Y-10231800D03*
%TO.N,CS5*%
X18769800Y-48383000D03*
X13833700Y-94971900D03*
X25463900Y-47608500D03*
X16963400Y-95071900D03*
%TO.N,MISO*%
X35601600Y-63696200D03*
X42661800Y-67054300D03*
%TO.N,SD_CS*%
X44639000Y-72585400D03*
X36539500Y-66009900D03*
%TO.N,CS1*%
X41326500Y-39163800D03*
X12197600Y-19089900D03*
X16655500Y-21055400D03*
X16655500Y-39758800D03*
%TO.N,MOSI*%
X41503900Y-38062600D03*
X15948800Y-54592000D03*
X41811700Y-54735300D03*
X42837300Y-93729700D03*
X12634600Y-93246700D03*
X15879200Y-16625600D03*
X42471600Y-17100300D03*
X44179900Y-88073500D03*
X16419900Y-89067900D03*
X12197600Y-16137200D03*
X15990000Y-33853400D03*
%TO.N,SCK*%
X38562600Y-49696000D03*
X9207600Y-55829300D03*
X42003000Y-46452400D03*
X42028200Y-16135900D03*
X40630100Y-81921000D03*
X46242400Y-16487000D03*
X9232500Y-19933500D03*
X13340900Y-95860100D03*
X42026900Y-92907400D03*
%TO.N,BL*%
X15879200Y-96648300D03*
X41594600Y-36044200D03*
X42041600Y-95887500D03*
X12280500Y-15249000D03*
X12973900Y-36804500D03*
X14816500Y-15921300D03*
X48226200Y-36807300D03*
X44691400Y-63380400D03*
X48225500Y-63379200D03*
%TO.N,DC*%
X45603200Y-89870700D03*
X13366300Y-54522300D03*
X42818900Y-23109500D03*
X42380500Y-51216000D03*
X12348800Y-21644500D03*
X45236600Y-34327400D03*
X41949200Y-33689500D03*
X42734600Y-13978600D03*
X15879200Y-89954700D03*
%TO.N,RST*%
X41430000Y-15537700D03*
X44094800Y-32992400D03*
X12973900Y-13184500D03*
X47434900Y-89954700D03*
X48118900Y-33621900D03*
X10068600Y-87002000D03*
%TO.N,KEY6*%
X48808400Y-72238500D03*
X48808400Y-42711500D03*
X45300300Y-73287600D03*
X38459500Y-40145100D03*
%TO.N,KEY1*%
X33725200Y-25088800D03*
X10068600Y-24995300D03*
%TO.N,KEY2*%
X32641800Y-25830200D03*
X38995600Y-24995300D03*
%TO.N,KEY3*%
X32500600Y-43533800D03*
X9207600Y-61292300D03*
%TO.N,KEY4*%
X33311000Y-42711500D03*
X44133400Y-49845500D03*
%TO.N,KEY5*%
X27500400Y-30900700D03*
X6986800Y-33853400D03*
%TD*%
%TO.N,VBUS*%
D15*
X25374200Y-8959400D02*
X28816400Y-8959400D01*
X28816400Y-8959400D02*
X29720300Y-8055500D01*
%TO.N,CC1*%
X28572800Y-8258500D02*
X28626800Y-8204500D01*
X22910100Y-8258500D02*
X28572800Y-8258500D01*
%TO.N,USB_D+*%
X29885200Y-25830200D02*
X34659500Y-30604500D01*
X23360800Y-11020000D02*
X25403500Y-11020000D01*
X34388200Y-41923300D02*
X38459500Y-41923300D01*
X27500400Y-25830200D02*
X29885200Y-25830200D01*
X22907500Y-11473300D02*
X23360800Y-11020000D01*
%TO.N,USB_D-*%
X34873500Y-29559500D02*
X36216300Y-29559500D01*
X31342400Y-26028400D02*
X34873500Y-29559500D01*
%TO.N,+3V3*%
X45734200Y-58466700D02*
X42325700Y-61875200D01*
X26685100Y-52431400D02*
X32528900Y-52431400D01*
X39491700Y-59392600D02*
X39843000Y-59392600D01*
X42325700Y-61875200D02*
X43103300Y-62652900D01*
X43103300Y-62652900D02*
X43103300Y-66327300D01*
X26683300Y-52433200D02*
X26685100Y-52431400D01*
X32528900Y-52431400D02*
X32530500Y-52431400D01*
X32530500Y-52431400D02*
X39491700Y-59392600D01*
X39843000Y-59392600D02*
X42325700Y-61875200D01*
%TO.N,EN*%
X36581400Y-10231800D02*
X39534100Y-7279100D01*
X23850900Y-10231800D02*
X36581400Y-10231800D01*
%TO.N,CS5*%
X18769800Y-48383000D02*
X24689400Y-48383000D01*
X16863400Y-94971900D02*
X16963400Y-95071900D01*
X24689400Y-48383000D02*
X25463900Y-47608500D01*
X13833700Y-94971900D02*
X16863400Y-94971900D01*
%TO.N,MISO*%
X39303700Y-63696200D02*
X42661800Y-67054300D01*
X35601600Y-63696200D02*
X39303700Y-63696200D01*
%TO.N,SD_CS*%
X44639000Y-72585300D02*
X44639000Y-72585400D01*
X43114900Y-72585300D02*
X44639000Y-72585300D01*
X36539500Y-66009900D02*
X43114900Y-72585300D01*
%TO.N,CS1*%
X14690000Y-19089900D02*
X16655500Y-21055400D01*
X16655500Y-39758800D02*
X17123000Y-40226300D01*
X38440600Y-39163800D02*
X41326500Y-39163800D01*
X12197600Y-19089900D02*
X14690000Y-19089900D01*
X17123000Y-40226300D02*
X37378100Y-40226300D01*
X37378100Y-40226300D02*
X38440600Y-39163800D01*
%TO.N,MOSI*%
X42837300Y-92301400D02*
X42837300Y-93729700D01*
X44179900Y-88073500D02*
X44659200Y-88073500D01*
X46223600Y-90167000D02*
X44089200Y-92301400D01*
X48858900Y-37062500D02*
X48858900Y-36588800D01*
X47858800Y-38062600D02*
X48858900Y-37062500D01*
X38857400Y-51781000D02*
X41811700Y-54735300D01*
X46223600Y-89637900D02*
X46223600Y-90167000D01*
X15255200Y-92301400D02*
X15255200Y-89719500D01*
X44089200Y-92301400D02*
X42837300Y-92301400D01*
X47236900Y-34966800D02*
X17103400Y-34966800D01*
X15948800Y-54592000D02*
X18759800Y-51781000D01*
X12686000Y-16625600D02*
X12197600Y-16137200D01*
X18759800Y-51781000D02*
X38857400Y-51781000D01*
X44659200Y-88073500D02*
X46223600Y-89637900D01*
X13579900Y-92301400D02*
X15255200Y-92301400D01*
X15906800Y-89067900D02*
X16419900Y-89067900D01*
X41503900Y-38062600D02*
X47858800Y-38062600D01*
X16353900Y-17100300D02*
X15879200Y-16625600D01*
X42471600Y-17100300D02*
X16353900Y-17100300D01*
X48858900Y-36588800D02*
X47236900Y-34966800D01*
X17103400Y-34966800D02*
X15990000Y-33853400D01*
X15255200Y-92301400D02*
X42837300Y-92301400D01*
X12634600Y-93246700D02*
X13579900Y-92301400D01*
X15879200Y-16625600D02*
X12686000Y-16625600D01*
X15255200Y-89719500D02*
X15906800Y-89067900D01*
%TO.N,SCK*%
X42379300Y-16487000D02*
X42028200Y-16135900D01*
X42031700Y-16132400D02*
X42031700Y-15288500D01*
X12778800Y-12528700D02*
X9232500Y-16075000D01*
X39271900Y-12528700D02*
X12778800Y-12528700D01*
X9207600Y-55829300D02*
X15340900Y-49696000D01*
X42026900Y-94383700D02*
X42026900Y-92907400D01*
X42026900Y-94383700D02*
X43942600Y-94383700D01*
X42031700Y-15288500D02*
X39271900Y-12528700D01*
X46242400Y-16487000D02*
X42379300Y-16487000D01*
X48042100Y-90284200D02*
X48042100Y-89333000D01*
X38562600Y-49696000D02*
X41806200Y-46452400D01*
X48042100Y-89333000D02*
X40630100Y-81921000D01*
X13340900Y-95860100D02*
X40550500Y-95860100D01*
X40550500Y-95860100D02*
X42026900Y-94383700D01*
X15340900Y-49696000D02*
X38562600Y-49696000D01*
X9232500Y-16075000D02*
X9232500Y-19933500D01*
X42028200Y-16135900D02*
X42031700Y-16132400D01*
X41806200Y-46452400D02*
X42003000Y-46452400D01*
X43942600Y-94383700D02*
X48042100Y-90284200D01*
%TO.N,BL*%
X15879200Y-96648300D02*
X41268200Y-96648300D01*
X44691400Y-63380400D02*
X48224300Y-63380400D01*
X12280500Y-15249000D02*
X12952800Y-15921300D01*
X42041600Y-95874900D02*
X42041600Y-95887500D01*
X41268200Y-96648300D02*
X42041600Y-95874900D01*
X12952800Y-15921300D02*
X14816500Y-15921300D01*
X13734200Y-36044200D02*
X12973900Y-36804500D01*
X48226200Y-36807300D02*
X47463100Y-36044200D01*
X47463100Y-36044200D02*
X41594600Y-36044200D01*
X48224300Y-63380400D02*
X48225500Y-63379200D01*
X41594600Y-36044200D02*
X13734200Y-36044200D01*
%TO.N,DC*%
X42380500Y-51216000D02*
X16672600Y-51216000D01*
X42734600Y-13978600D02*
X44681400Y-13978600D01*
X44841100Y-90632800D02*
X45603200Y-89870700D01*
X46862700Y-19065700D02*
X42818900Y-23109500D01*
X15879200Y-89954700D02*
X16557300Y-90632800D01*
X16672600Y-51216000D02*
X13366300Y-54522300D01*
X45236600Y-34327400D02*
X42587100Y-34327400D01*
X46862700Y-16159900D02*
X46862700Y-19065700D01*
X16557300Y-90632800D02*
X44841100Y-90632800D01*
X44681400Y-13978600D02*
X46862700Y-16159900D01*
X12348800Y-21644500D02*
X13813800Y-23109500D01*
X42587100Y-34327400D02*
X41949200Y-33689500D01*
X13813800Y-23109500D02*
X42818900Y-23109500D01*
%TO.N,RST*%
X47489400Y-32992400D02*
X48118900Y-33621900D01*
X15327100Y-15537700D02*
X12973900Y-13184500D01*
X44094800Y-32992400D02*
X47489400Y-32992400D01*
X10068600Y-87002000D02*
X44482200Y-87002000D01*
X41430000Y-15537700D02*
X15327100Y-15537700D01*
X44482200Y-87002000D02*
X47434900Y-89954700D01*
%TO.N,KEY6*%
X48808400Y-72238500D02*
X46349400Y-72238500D01*
X46349400Y-72238500D02*
X45300300Y-73287600D01*
X46242000Y-40145100D02*
X48808400Y-42711500D01*
X38459500Y-40145100D02*
X46242000Y-40145100D01*
%TO.N,KEY1*%
X10162100Y-25088800D02*
X10068600Y-24995300D01*
X33725200Y-25088800D02*
X10162100Y-25088800D01*
%TO.N,KEY2*%
X38995600Y-24995300D02*
X38160700Y-25830200D01*
X38160700Y-25830200D02*
X32641800Y-25830200D01*
%TO.N,KEY3*%
X32500600Y-43533800D02*
X20604800Y-43533800D01*
X8559500Y-55579100D02*
X8559500Y-60644200D01*
X20604800Y-43533800D02*
X8559500Y-55579100D01*
X8559500Y-60644200D02*
X9207600Y-61292300D01*
%TO.N,KEY4*%
X39195800Y-42711500D02*
X44133400Y-47649100D01*
X33311000Y-42711500D02*
X39195800Y-42711500D01*
X44133400Y-47649100D02*
X44133400Y-49845500D01*
%TO.N,KEY5*%
X6986800Y-33853400D02*
X9939500Y-30900700D01*
X9939500Y-30900700D02*
X27500400Y-30900700D01*
%TD*%
%TA.AperFunction,Conductor*%
%TO.N,GND*%
G36*
X39087006Y-43031685D02*
G01*
X39107648Y-43048319D01*
X41845129Y-45785800D01*
X41878614Y-45847123D01*
X41873630Y-45916815D01*
X41831758Y-45972748D01*
X41816546Y-45981412D01*
X41816853Y-45981944D01*
X41695686Y-46051900D01*
X41695683Y-46051902D01*
X41602502Y-46145083D01*
X41602500Y-46145086D01*
X41536607Y-46259214D01*
X41536607Y-46259215D01*
X41531368Y-46278767D01*
X41499275Y-46334352D01*
X38674447Y-49159181D01*
X38613124Y-49192666D01*
X38586766Y-49195500D01*
X38496708Y-49195500D01*
X38369412Y-49229608D01*
X38255286Y-49295500D01*
X38255283Y-49295502D01*
X38191605Y-49359181D01*
X38130282Y-49392666D01*
X38103924Y-49395500D01*
X15467433Y-49395500D01*
X15400394Y-49375815D01*
X15354639Y-49323011D01*
X15344695Y-49253853D01*
X15373720Y-49190297D01*
X15379752Y-49183819D01*
X16246463Y-48317108D01*
X18269300Y-48317108D01*
X18269300Y-48448891D01*
X18303408Y-48576187D01*
X18330702Y-48623460D01*
X18369300Y-48690314D01*
X18462486Y-48783500D01*
X18576614Y-48849392D01*
X18703908Y-48883500D01*
X18703910Y-48883500D01*
X18835690Y-48883500D01*
X18835692Y-48883500D01*
X18962986Y-48849392D01*
X19077114Y-48783500D01*
X19140795Y-48719819D01*
X19202118Y-48686334D01*
X19228476Y-48683500D01*
X24728960Y-48683500D01*
X24728962Y-48683500D01*
X24805389Y-48663021D01*
X24873911Y-48623460D01*
X24929860Y-48567511D01*
X25352051Y-48145318D01*
X25413374Y-48111834D01*
X25439732Y-48109000D01*
X25529790Y-48109000D01*
X25529792Y-48109000D01*
X25657086Y-48074892D01*
X25771214Y-48009000D01*
X25864400Y-47915814D01*
X25930292Y-47801686D01*
X25964400Y-47674392D01*
X25964400Y-47542608D01*
X25930292Y-47415314D01*
X25864400Y-47301186D01*
X25771214Y-47208000D01*
X25714150Y-47175054D01*
X25657087Y-47142108D01*
X25593439Y-47125054D01*
X25529792Y-47108000D01*
X25398008Y-47108000D01*
X25270712Y-47142108D01*
X25156586Y-47208000D01*
X25156583Y-47208002D01*
X25063402Y-47301183D01*
X25063400Y-47301186D01*
X24997508Y-47415312D01*
X24963400Y-47542608D01*
X24963400Y-47632666D01*
X24943715Y-47699705D01*
X24927081Y-47720347D01*
X24601248Y-48046181D01*
X24539925Y-48079666D01*
X24513567Y-48082500D01*
X19228476Y-48082500D01*
X19161437Y-48062815D01*
X19140795Y-48046181D01*
X19077116Y-47982502D01*
X19077114Y-47982500D01*
X19020050Y-47949554D01*
X18962987Y-47916608D01*
X18899339Y-47899554D01*
X18835692Y-47882500D01*
X18703908Y-47882500D01*
X18576612Y-47916608D01*
X18462486Y-47982500D01*
X18462483Y-47982502D01*
X18369302Y-48075683D01*
X18369300Y-48075686D01*
X18303408Y-48189812D01*
X18269300Y-48317108D01*
X16246463Y-48317108D01*
X20692952Y-43870619D01*
X20754275Y-43837134D01*
X20780633Y-43834300D01*
X32041924Y-43834300D01*
X32108963Y-43853985D01*
X32129605Y-43870619D01*
X32193286Y-43934300D01*
X32307414Y-44000192D01*
X32434708Y-44034300D01*
X32434710Y-44034300D01*
X32566490Y-44034300D01*
X32566492Y-44034300D01*
X32693786Y-44000192D01*
X32807914Y-43934300D01*
X32901100Y-43841114D01*
X32966992Y-43726986D01*
X33001100Y-43599692D01*
X33001100Y-43467908D01*
X32966992Y-43340614D01*
X32966991Y-43340612D01*
X32964888Y-43332763D01*
X32967249Y-43332130D01*
X32961100Y-43274962D01*
X32992371Y-43212481D01*
X33052458Y-43176825D01*
X33115225Y-43177197D01*
X33117809Y-43177889D01*
X33117814Y-43177892D01*
X33245108Y-43212000D01*
X33245111Y-43212000D01*
X33376890Y-43212000D01*
X33376892Y-43212000D01*
X33504186Y-43177892D01*
X33618314Y-43112000D01*
X33681995Y-43048319D01*
X33743318Y-43014834D01*
X33769676Y-43012000D01*
X39019967Y-43012000D01*
X39087006Y-43031685D01*
G37*
%TD.AperFunction*%
%TA.AperFunction,Conductor*%
G36*
X52223441Y-407248D02*
G01*
X52448259Y-487693D01*
X52459494Y-492347D01*
X52785550Y-646564D01*
X52796264Y-652291D01*
X53105648Y-837731D01*
X53115750Y-844481D01*
X53405477Y-1059359D01*
X53414856Y-1067057D01*
X53682118Y-1309290D01*
X53690709Y-1317881D01*
X53932936Y-1585136D01*
X53940642Y-1594525D01*
X54111576Y-1825000D01*
X54155511Y-1884239D01*
X54162271Y-1894356D01*
X54347701Y-2203722D01*
X54353437Y-2214454D01*
X54507650Y-2540502D01*
X54512307Y-2551744D01*
X54574302Y-2725000D01*
X54592751Y-2776557D01*
X54600000Y-2818333D01*
X54600000Y-109181665D01*
X54592751Y-109223441D01*
X54512307Y-109448255D01*
X54507650Y-109459497D01*
X54353437Y-109785545D01*
X54347701Y-109796277D01*
X54162271Y-110105643D01*
X54155511Y-110115760D01*
X53940649Y-110405464D01*
X53932936Y-110414863D01*
X53690716Y-110682111D01*
X53682111Y-110690716D01*
X53414863Y-110932936D01*
X53405464Y-110940649D01*
X53361377Y-110973348D01*
X53115760Y-111155511D01*
X53105643Y-111162271D01*
X52796277Y-111347701D01*
X52785545Y-111353437D01*
X52459497Y-111507650D01*
X52448255Y-111512307D01*
X52223442Y-111592751D01*
X52181666Y-111600000D01*
X2818334Y-111600000D01*
X2776558Y-111592751D01*
X2551744Y-111512307D01*
X2540502Y-111507650D01*
X2214454Y-111353437D01*
X2203728Y-111347704D01*
X1894355Y-111162270D01*
X1884244Y-111155514D01*
X1594525Y-110940642D01*
X1585136Y-110932936D01*
X1317881Y-110690709D01*
X1309290Y-110682118D01*
X1067057Y-110414856D01*
X1059359Y-110405477D01*
X844481Y-110115750D01*
X837728Y-110105643D01*
X652291Y-109796264D01*
X646562Y-109785545D01*
X492349Y-109459497D01*
X487692Y-109448255D01*
X407249Y-109223441D01*
X400000Y-109181665D01*
X400000Y-106748435D01*
X709500Y-106748435D01*
X709500Y-106951564D01*
X741277Y-107152194D01*
X741277Y-107152197D01*
X804045Y-107345377D01*
X896268Y-107526372D01*
X1015656Y-107690697D01*
X1015660Y-107690702D01*
X1159297Y-107834339D01*
X1159302Y-107834343D01*
X1302635Y-107938480D01*
X1323631Y-107953734D01*
X1492705Y-108039882D01*
X1504622Y-108045954D01*
X1697803Y-108108722D01*
X1697804Y-108108722D01*
X1697807Y-108108723D01*
X1898435Y-108140500D01*
X1898436Y-108140500D01*
X2101564Y-108140500D01*
X2101565Y-108140500D01*
X2302193Y-108108723D01*
X2302196Y-108108722D01*
X2302197Y-108108722D01*
X2495377Y-108045954D01*
X2495377Y-108045953D01*
X2495380Y-108045953D01*
X2676369Y-107953734D01*
X2840704Y-107834338D01*
X2984338Y-107690704D01*
X3103734Y-107526369D01*
X3195953Y-107345380D01*
X3258723Y-107152193D01*
X3290500Y-106951565D01*
X3290500Y-106748435D01*
X22709500Y-106748435D01*
X22709500Y-106951564D01*
X22741277Y-107152194D01*
X22741277Y-107152197D01*
X22804045Y-107345377D01*
X22896268Y-107526372D01*
X23015656Y-107690697D01*
X23015660Y-107690702D01*
X23159297Y-107834339D01*
X23159302Y-107834343D01*
X23302635Y-107938480D01*
X23323631Y-107953734D01*
X23492705Y-108039882D01*
X23504622Y-108045954D01*
X23697803Y-108108722D01*
X23697804Y-108108722D01*
X23697807Y-108108723D01*
X23898435Y-108140500D01*
X23898436Y-108140500D01*
X24101564Y-108140500D01*
X24101565Y-108140500D01*
X24302193Y-108108723D01*
X24302196Y-108108722D01*
X24302197Y-108108722D01*
X24495377Y-108045954D01*
X24495377Y-108045953D01*
X24495380Y-108045953D01*
X24676369Y-107953734D01*
X24840704Y-107834338D01*
X24984338Y-107690704D01*
X25103734Y-107526369D01*
X25195953Y-107345380D01*
X25258723Y-107152193D01*
X25290500Y-106951565D01*
X25290500Y-106748435D01*
X29609500Y-106748435D01*
X29609500Y-106951564D01*
X29641277Y-107152194D01*
X29641277Y-107152197D01*
X29704045Y-107345377D01*
X29796268Y-107526372D01*
X29915656Y-107690697D01*
X29915660Y-107690702D01*
X30059297Y-107834339D01*
X30059302Y-107834343D01*
X30202635Y-107938480D01*
X30223631Y-107953734D01*
X30392705Y-108039882D01*
X30404622Y-108045954D01*
X30597803Y-108108722D01*
X30597804Y-108108722D01*
X30597807Y-108108723D01*
X30798435Y-108140500D01*
X30798436Y-108140500D01*
X31001564Y-108140500D01*
X31001565Y-108140500D01*
X31202193Y-108108723D01*
X31202196Y-108108722D01*
X31202197Y-108108722D01*
X31395377Y-108045954D01*
X31395377Y-108045953D01*
X31395380Y-108045953D01*
X31576369Y-107953734D01*
X31740704Y-107834338D01*
X31884338Y-107690704D01*
X32003734Y-107526369D01*
X32095953Y-107345380D01*
X32158723Y-107152193D01*
X32190500Y-106951565D01*
X32190500Y-106748435D01*
X51609500Y-106748435D01*
X51609500Y-106951564D01*
X51641277Y-107152194D01*
X51641277Y-107152197D01*
X51704045Y-107345377D01*
X51796268Y-107526372D01*
X51915656Y-107690697D01*
X51915660Y-107690702D01*
X52059297Y-107834339D01*
X52059302Y-107834343D01*
X52202635Y-107938480D01*
X52223631Y-107953734D01*
X52392705Y-108039882D01*
X52404622Y-108045954D01*
X52597803Y-108108722D01*
X52597804Y-108108722D01*
X52597807Y-108108723D01*
X52798435Y-108140500D01*
X52798436Y-108140500D01*
X53001564Y-108140500D01*
X53001565Y-108140500D01*
X53202193Y-108108723D01*
X53202196Y-108108722D01*
X53202197Y-108108722D01*
X53395377Y-108045954D01*
X53395377Y-108045953D01*
X53395380Y-108045953D01*
X53576369Y-107953734D01*
X53740704Y-107834338D01*
X53884338Y-107690704D01*
X54003734Y-107526369D01*
X54095953Y-107345380D01*
X54158723Y-107152193D01*
X54190500Y-106951565D01*
X54190500Y-106748435D01*
X54158723Y-106547807D01*
X54158722Y-106547803D01*
X54158722Y-106547802D01*
X54095954Y-106354622D01*
X54095953Y-106354620D01*
X54003734Y-106173631D01*
X53988480Y-106152635D01*
X53884343Y-106009302D01*
X53884339Y-106009297D01*
X53740702Y-105865660D01*
X53740697Y-105865656D01*
X53576372Y-105746268D01*
X53576371Y-105746267D01*
X53576369Y-105746266D01*
X53485874Y-105700156D01*
X53395377Y-105654045D01*
X53202196Y-105591277D01*
X53051722Y-105567444D01*
X53001565Y-105559500D01*
X52798435Y-105559500D01*
X52731559Y-105570092D01*
X52597805Y-105591277D01*
X52597802Y-105591277D01*
X52404622Y-105654045D01*
X52223627Y-105746268D01*
X52059302Y-105865656D01*
X52059297Y-105865660D01*
X51915660Y-106009297D01*
X51915656Y-106009302D01*
X51796268Y-106173627D01*
X51704045Y-106354622D01*
X51641277Y-106547802D01*
X51641277Y-106547805D01*
X51609500Y-106748435D01*
X32190500Y-106748435D01*
X32158723Y-106547807D01*
X32158722Y-106547803D01*
X32158722Y-106547802D01*
X32095954Y-106354622D01*
X32095953Y-106354620D01*
X32003734Y-106173631D01*
X31988480Y-106152635D01*
X31884343Y-106009302D01*
X31884339Y-106009297D01*
X31740702Y-105865660D01*
X31740697Y-105865656D01*
X31576372Y-105746268D01*
X31576371Y-105746267D01*
X31576369Y-105746266D01*
X31485874Y-105700156D01*
X31395377Y-105654045D01*
X31202196Y-105591277D01*
X31051722Y-105567444D01*
X31001565Y-105559500D01*
X30798435Y-105559500D01*
X30731559Y-105570092D01*
X30597805Y-105591277D01*
X30597802Y-105591277D01*
X30404622Y-105654045D01*
X30223627Y-105746268D01*
X30059302Y-105865656D01*
X30059297Y-105865660D01*
X29915660Y-106009297D01*
X29915656Y-106009302D01*
X29796268Y-106173627D01*
X29704045Y-106354622D01*
X29641277Y-106547802D01*
X29641277Y-106547805D01*
X29609500Y-106748435D01*
X25290500Y-106748435D01*
X25258723Y-106547807D01*
X25258722Y-106547803D01*
X25258722Y-106547802D01*
X25195954Y-106354622D01*
X25195953Y-106354620D01*
X25103734Y-106173631D01*
X25088480Y-106152635D01*
X24984343Y-106009302D01*
X24984339Y-106009297D01*
X24840702Y-105865660D01*
X24840697Y-105865656D01*
X24676372Y-105746268D01*
X24676371Y-105746267D01*
X24676369Y-105746266D01*
X24585874Y-105700156D01*
X24495377Y-105654045D01*
X24302196Y-105591277D01*
X24151722Y-105567444D01*
X24101565Y-105559500D01*
X23898435Y-105559500D01*
X23831559Y-105570092D01*
X23697805Y-105591277D01*
X23697802Y-105591277D01*
X23504622Y-105654045D01*
X23323627Y-105746268D01*
X23159302Y-105865656D01*
X23159297Y-105865660D01*
X23015660Y-106009297D01*
X23015656Y-106009302D01*
X22896268Y-106173627D01*
X22804045Y-106354622D01*
X22741277Y-106547802D01*
X22741277Y-106547805D01*
X22709500Y-106748435D01*
X3290500Y-106748435D01*
X3258723Y-106547807D01*
X3258722Y-106547803D01*
X3258722Y-106547802D01*
X3195954Y-106354622D01*
X3195953Y-106354620D01*
X3103734Y-106173631D01*
X3088480Y-106152635D01*
X2984343Y-106009302D01*
X2984339Y-106009297D01*
X2840702Y-105865660D01*
X2840697Y-105865656D01*
X2676372Y-105746268D01*
X2676371Y-105746267D01*
X2676369Y-105746266D01*
X2585874Y-105700156D01*
X2495377Y-105654045D01*
X2302196Y-105591277D01*
X2151722Y-105567444D01*
X2101565Y-105559500D01*
X1898435Y-105559500D01*
X1831559Y-105570092D01*
X1697805Y-105591277D01*
X1697802Y-105591277D01*
X1504622Y-105654045D01*
X1323627Y-105746268D01*
X1159302Y-105865656D01*
X1159297Y-105865660D01*
X1015660Y-106009297D01*
X1015656Y-106009302D01*
X896268Y-106173627D01*
X804045Y-106354622D01*
X741277Y-106547802D01*
X741277Y-106547805D01*
X709500Y-106748435D01*
X400000Y-106748435D01*
X400000Y-86936108D01*
X9568100Y-86936108D01*
X9568100Y-87067891D01*
X9602208Y-87195187D01*
X9635154Y-87252250D01*
X9668100Y-87309314D01*
X9761286Y-87402500D01*
X9875414Y-87468392D01*
X10002708Y-87502500D01*
X10002710Y-87502500D01*
X10134490Y-87502500D01*
X10134492Y-87502500D01*
X10261786Y-87468392D01*
X10375914Y-87402500D01*
X10439595Y-87338819D01*
X10500918Y-87305334D01*
X10527276Y-87302500D01*
X44306367Y-87302500D01*
X44373406Y-87322185D01*
X44394048Y-87338819D01*
X44440980Y-87385751D01*
X44474465Y-87447074D01*
X44469481Y-87516766D01*
X44427609Y-87572699D01*
X44362145Y-87597116D01*
X44321206Y-87593207D01*
X44245792Y-87573000D01*
X44114008Y-87573000D01*
X43986712Y-87607108D01*
X43872586Y-87673000D01*
X43872583Y-87673002D01*
X43779402Y-87766183D01*
X43779400Y-87766186D01*
X43713508Y-87880312D01*
X43679400Y-88007608D01*
X43679400Y-88139391D01*
X43713508Y-88266687D01*
X43746454Y-88323750D01*
X43779400Y-88380814D01*
X43872586Y-88474000D01*
X43986714Y-88539892D01*
X44114008Y-88574000D01*
X44114010Y-88574000D01*
X44245790Y-88574000D01*
X44245792Y-88574000D01*
X44373086Y-88539892D01*
X44487214Y-88474000D01*
X44487215Y-88473998D01*
X44494252Y-88469936D01*
X44495390Y-88471908D01*
X44549569Y-88450959D01*
X44618015Y-88464992D01*
X44647576Y-88486847D01*
X45394026Y-89233297D01*
X45427511Y-89294620D01*
X45422527Y-89364312D01*
X45380655Y-89420245D01*
X45368346Y-89428365D01*
X45295886Y-89470200D01*
X45295883Y-89470202D01*
X45202702Y-89563383D01*
X45202700Y-89563386D01*
X45136808Y-89677512D01*
X45102700Y-89804808D01*
X45102700Y-89894866D01*
X45083015Y-89961905D01*
X45066381Y-89982547D01*
X44752948Y-90295981D01*
X44691625Y-90329466D01*
X44665267Y-90332300D01*
X16733133Y-90332300D01*
X16666094Y-90312615D01*
X16645452Y-90295981D01*
X16416019Y-90066548D01*
X16382534Y-90005225D01*
X16379700Y-89978867D01*
X16379700Y-89888810D01*
X16379700Y-89888808D01*
X16345592Y-89761514D01*
X16345591Y-89761513D01*
X16345591Y-89761511D01*
X16341486Y-89754402D01*
X16325012Y-89686502D01*
X16347863Y-89620475D01*
X16402784Y-89577283D01*
X16448872Y-89568400D01*
X16485790Y-89568400D01*
X16485792Y-89568400D01*
X16613086Y-89534292D01*
X16727214Y-89468400D01*
X16820400Y-89375214D01*
X16886292Y-89261086D01*
X16920400Y-89133792D01*
X16920400Y-89002008D01*
X16886292Y-88874714D01*
X16820400Y-88760586D01*
X16727214Y-88667400D01*
X16670150Y-88634454D01*
X16613087Y-88601508D01*
X16549439Y-88584454D01*
X16485792Y-88567400D01*
X16354008Y-88567400D01*
X16226712Y-88601508D01*
X16112586Y-88667400D01*
X16112583Y-88667402D01*
X16048905Y-88731081D01*
X15987582Y-88764566D01*
X15961224Y-88767400D01*
X15867238Y-88767400D01*
X15790810Y-88787878D01*
X15722289Y-88827440D01*
X15722286Y-88827442D01*
X15014741Y-89534987D01*
X15014735Y-89534995D01*
X14975182Y-89603504D01*
X14975179Y-89603509D01*
X14954700Y-89679939D01*
X14954700Y-91876900D01*
X14935015Y-91943939D01*
X14882211Y-91989694D01*
X14830700Y-92000900D01*
X13540338Y-92000900D01*
X13502124Y-92011139D01*
X13463909Y-92021379D01*
X13463904Y-92021382D01*
X13395395Y-92060935D01*
X13395387Y-92060941D01*
X12746447Y-92709881D01*
X12685124Y-92743366D01*
X12658766Y-92746200D01*
X12568708Y-92746200D01*
X12441412Y-92780308D01*
X12327286Y-92846200D01*
X12327283Y-92846202D01*
X12234102Y-92939383D01*
X12234100Y-92939386D01*
X12168208Y-93053512D01*
X12134100Y-93180808D01*
X12134100Y-93312591D01*
X12168208Y-93439887D01*
X12201154Y-93496950D01*
X12234100Y-93554014D01*
X12327286Y-93647200D01*
X12441414Y-93713092D01*
X12568708Y-93747200D01*
X12568710Y-93747200D01*
X12700490Y-93747200D01*
X12700492Y-93747200D01*
X12827786Y-93713092D01*
X12941914Y-93647200D01*
X13035100Y-93554014D01*
X13100992Y-93439886D01*
X13135100Y-93312592D01*
X13135100Y-93222532D01*
X13154785Y-93155493D01*
X13171419Y-93134851D01*
X13668052Y-92638219D01*
X13729375Y-92604734D01*
X13755733Y-92601900D01*
X15215638Y-92601900D01*
X41429003Y-92601900D01*
X41496042Y-92621585D01*
X41541797Y-92674389D01*
X41551741Y-92743547D01*
X41548779Y-92757986D01*
X41526400Y-92841508D01*
X41526400Y-92973291D01*
X41560508Y-93100587D01*
X41580291Y-93134851D01*
X41626400Y-93214714D01*
X41626402Y-93214716D01*
X41690081Y-93278395D01*
X41723566Y-93339718D01*
X41726400Y-93366076D01*
X41726400Y-94207867D01*
X41706715Y-94274906D01*
X41690081Y-94295548D01*
X40462348Y-95523281D01*
X40401025Y-95556766D01*
X40374667Y-95559600D01*
X17474528Y-95559600D01*
X17407489Y-95539915D01*
X17361734Y-95487111D01*
X17351790Y-95417953D01*
X17367141Y-95373600D01*
X17429792Y-95265086D01*
X17463900Y-95137792D01*
X17463900Y-95006008D01*
X17429792Y-94878714D01*
X17363900Y-94764586D01*
X17270714Y-94671400D01*
X17188899Y-94624164D01*
X17156587Y-94605508D01*
X17092939Y-94588454D01*
X17029292Y-94571400D01*
X16897508Y-94571400D01*
X16770214Y-94605508D01*
X16770213Y-94605508D01*
X16770211Y-94605509D01*
X16770210Y-94605509D01*
X16684860Y-94654787D01*
X16622860Y-94671400D01*
X14292376Y-94671400D01*
X14225337Y-94651715D01*
X14204695Y-94635081D01*
X14141016Y-94571402D01*
X14141014Y-94571400D01*
X14083950Y-94538454D01*
X14026887Y-94505508D01*
X13963239Y-94488454D01*
X13899592Y-94471400D01*
X13767808Y-94471400D01*
X13640512Y-94505508D01*
X13526386Y-94571400D01*
X13526383Y-94571402D01*
X13433202Y-94664583D01*
X13433200Y-94664586D01*
X13367308Y-94778712D01*
X13333200Y-94906008D01*
X13333200Y-95037791D01*
X13367308Y-95165088D01*
X13372368Y-95173851D01*
X13388839Y-95241752D01*
X13365986Y-95307778D01*
X13311065Y-95350968D01*
X13281170Y-95358789D01*
X13275007Y-95359600D01*
X13147712Y-95393708D01*
X13033586Y-95459600D01*
X13033583Y-95459602D01*
X12940402Y-95552783D01*
X12940400Y-95552786D01*
X12874508Y-95666912D01*
X12867166Y-95694314D01*
X12840400Y-95794208D01*
X12840400Y-95925992D01*
X12856679Y-95986748D01*
X12874508Y-96053287D01*
X12901802Y-96100560D01*
X12940400Y-96167414D01*
X13033586Y-96260600D01*
X13147714Y-96326492D01*
X13275008Y-96360600D01*
X13275010Y-96360600D01*
X13406790Y-96360600D01*
X13406792Y-96360600D01*
X13534086Y-96326492D01*
X13648214Y-96260600D01*
X13711895Y-96196919D01*
X13773218Y-96163434D01*
X13799576Y-96160600D01*
X15368072Y-96160600D01*
X15435111Y-96180285D01*
X15480866Y-96233089D01*
X15490810Y-96302247D01*
X15475460Y-96346597D01*
X15467376Y-96360600D01*
X15412808Y-96455112D01*
X15378700Y-96582408D01*
X15378700Y-96714191D01*
X15412808Y-96841487D01*
X15440102Y-96888760D01*
X15478700Y-96955614D01*
X15571886Y-97048800D01*
X15686014Y-97114692D01*
X15813308Y-97148800D01*
X15813310Y-97148800D01*
X15945090Y-97148800D01*
X15945092Y-97148800D01*
X16072386Y-97114692D01*
X16186514Y-97048800D01*
X16250195Y-96985119D01*
X16311518Y-96951634D01*
X16337876Y-96948800D01*
X41307760Y-96948800D01*
X41307762Y-96948800D01*
X41384189Y-96928321D01*
X41452711Y-96888760D01*
X41508660Y-96832811D01*
X41917151Y-96424318D01*
X41978474Y-96390834D01*
X42004832Y-96388000D01*
X42107490Y-96388000D01*
X42107492Y-96388000D01*
X42234786Y-96353892D01*
X42348914Y-96288000D01*
X42442100Y-96194814D01*
X42507992Y-96080686D01*
X42542100Y-95953392D01*
X42542100Y-95821608D01*
X42507992Y-95694314D01*
X42442100Y-95580186D01*
X42348914Y-95487000D01*
X42291850Y-95454054D01*
X42234787Y-95421108D01*
X42147832Y-95397809D01*
X42107492Y-95387000D01*
X41975708Y-95387000D01*
X41848412Y-95421108D01*
X41734286Y-95487000D01*
X41734283Y-95487002D01*
X41641102Y-95580183D01*
X41641100Y-95580186D01*
X41575208Y-95694312D01*
X41541100Y-95821608D01*
X41541100Y-95899067D01*
X41521415Y-95966106D01*
X41504781Y-95986748D01*
X41180048Y-96311481D01*
X41118725Y-96344966D01*
X41092367Y-96347800D01*
X40769553Y-96347800D01*
X40702514Y-96328115D01*
X40656759Y-96275311D01*
X40646815Y-96206153D01*
X40675840Y-96142597D01*
X40707554Y-96116412D01*
X40735011Y-96100560D01*
X40790960Y-96044611D01*
X42115052Y-94720519D01*
X42176375Y-94687034D01*
X42202733Y-94684200D01*
X43982160Y-94684200D01*
X43982162Y-94684200D01*
X44058589Y-94663721D01*
X44127111Y-94624160D01*
X44183060Y-94568211D01*
X48282560Y-90468711D01*
X48283259Y-90467500D01*
X48322121Y-90400189D01*
X48342600Y-90323762D01*
X48342600Y-89293438D01*
X48322121Y-89217011D01*
X48322117Y-89217004D01*
X48282564Y-89148495D01*
X48282558Y-89148487D01*
X41166919Y-82032848D01*
X41133434Y-81971525D01*
X41130600Y-81945167D01*
X41130600Y-81855110D01*
X41130600Y-81855108D01*
X41096492Y-81727814D01*
X41030600Y-81613686D01*
X40937414Y-81520500D01*
X40880350Y-81487554D01*
X40823287Y-81454608D01*
X40759639Y-81437554D01*
X40695992Y-81420500D01*
X40564208Y-81420500D01*
X40436912Y-81454608D01*
X40322786Y-81520500D01*
X40322783Y-81520502D01*
X40229602Y-81613683D01*
X40229600Y-81613686D01*
X40163708Y-81727812D01*
X40130381Y-81852193D01*
X40129600Y-81855108D01*
X40129600Y-81986892D01*
X40141914Y-82032848D01*
X40163708Y-82114187D01*
X40196654Y-82171250D01*
X40229600Y-82228314D01*
X40322786Y-82321500D01*
X40436914Y-82387392D01*
X40564208Y-82421500D01*
X40564210Y-82421500D01*
X40654267Y-82421500D01*
X40721306Y-82441185D01*
X40741948Y-82457819D01*
X47526648Y-89242519D01*
X47537260Y-89261955D01*
X47551761Y-89278689D01*
X47553677Y-89292020D01*
X47560133Y-89303842D01*
X47558553Y-89325928D01*
X47561705Y-89347847D01*
X47556109Y-89360098D01*
X47555149Y-89373534D01*
X47541878Y-89391260D01*
X47532680Y-89411403D01*
X47521348Y-89418685D01*
X47513277Y-89429467D01*
X47492531Y-89437204D01*
X47473902Y-89449177D01*
X47451983Y-89452328D01*
X47447813Y-89453884D01*
X47438967Y-89454200D01*
X47410733Y-89454200D01*
X47343694Y-89434515D01*
X47323052Y-89417881D01*
X44666712Y-86761541D01*
X44666704Y-86761535D01*
X44598195Y-86721982D01*
X44598190Y-86721979D01*
X44572713Y-86715152D01*
X44521762Y-86701500D01*
X44521760Y-86701500D01*
X10527276Y-86701500D01*
X10460237Y-86681815D01*
X10439595Y-86665181D01*
X10375916Y-86601502D01*
X10375914Y-86601500D01*
X10318850Y-86568554D01*
X10261787Y-86535608D01*
X10198139Y-86518554D01*
X10134492Y-86501500D01*
X10002708Y-86501500D01*
X9875412Y-86535608D01*
X9761286Y-86601500D01*
X9761283Y-86601502D01*
X9668102Y-86694683D01*
X9668100Y-86694686D01*
X9602208Y-86808812D01*
X9568100Y-86936108D01*
X400000Y-86936108D01*
X400000Y-81448435D01*
X709500Y-81448435D01*
X709500Y-81651564D01*
X741277Y-81852194D01*
X741277Y-81852197D01*
X804045Y-82045377D01*
X896268Y-82226372D01*
X1015656Y-82390697D01*
X1015660Y-82390702D01*
X1159297Y-82534339D01*
X1159302Y-82534343D01*
X1302635Y-82638480D01*
X1323631Y-82653734D01*
X1504620Y-82745953D01*
X1504622Y-82745954D01*
X1697803Y-82808722D01*
X1697804Y-82808722D01*
X1697807Y-82808723D01*
X1898435Y-82840500D01*
X1898436Y-82840500D01*
X2101564Y-82840500D01*
X2101565Y-82840500D01*
X2302193Y-82808723D01*
X2302196Y-82808722D01*
X2302197Y-82808722D01*
X2495377Y-82745954D01*
X2495377Y-82745953D01*
X2495380Y-82745953D01*
X2676369Y-82653734D01*
X2840704Y-82534338D01*
X2984338Y-82390704D01*
X3103734Y-82226369D01*
X3195953Y-82045380D01*
X3200025Y-82032848D01*
X3258722Y-81852197D01*
X3258722Y-81852196D01*
X3258723Y-81852193D01*
X3290500Y-81651565D01*
X3290500Y-81448435D01*
X22709500Y-81448435D01*
X22709500Y-81651564D01*
X22741277Y-81852194D01*
X22741277Y-81852197D01*
X22804045Y-82045377D01*
X22896268Y-82226372D01*
X23015656Y-82390697D01*
X23015660Y-82390702D01*
X23159297Y-82534339D01*
X23159302Y-82534343D01*
X23302635Y-82638480D01*
X23323631Y-82653734D01*
X23504620Y-82745953D01*
X23504622Y-82745954D01*
X23697803Y-82808722D01*
X23697804Y-82808722D01*
X23697807Y-82808723D01*
X23898435Y-82840500D01*
X23898436Y-82840500D01*
X24101564Y-82840500D01*
X24101565Y-82840500D01*
X24302193Y-82808723D01*
X24302196Y-82808722D01*
X24302197Y-82808722D01*
X24495377Y-82745954D01*
X24495377Y-82745953D01*
X24495380Y-82745953D01*
X24676369Y-82653734D01*
X24840704Y-82534338D01*
X24984338Y-82390704D01*
X25103734Y-82226369D01*
X25195953Y-82045380D01*
X25200025Y-82032848D01*
X25258722Y-81852197D01*
X25258722Y-81852196D01*
X25258723Y-81852193D01*
X25290500Y-81651565D01*
X25290500Y-81448435D01*
X29609500Y-81448435D01*
X29609500Y-81651564D01*
X29641277Y-81852194D01*
X29641277Y-81852197D01*
X29704045Y-82045377D01*
X29796268Y-82226372D01*
X29915656Y-82390697D01*
X29915660Y-82390702D01*
X30059297Y-82534339D01*
X30059302Y-82534343D01*
X30202635Y-82638480D01*
X30223631Y-82653734D01*
X30404620Y-82745953D01*
X30404622Y-82745954D01*
X30597803Y-82808722D01*
X30597804Y-82808722D01*
X30597807Y-82808723D01*
X30798435Y-82840500D01*
X30798436Y-82840500D01*
X31001564Y-82840500D01*
X31001565Y-82840500D01*
X31202193Y-82808723D01*
X31202196Y-82808722D01*
X31202197Y-82808722D01*
X31395377Y-82745954D01*
X31395377Y-82745953D01*
X31395380Y-82745953D01*
X31576369Y-82653734D01*
X31740704Y-82534338D01*
X31884338Y-82390704D01*
X32003734Y-82226369D01*
X32095953Y-82045380D01*
X32100025Y-82032848D01*
X32158722Y-81852197D01*
X32158722Y-81852196D01*
X32158723Y-81852193D01*
X32190500Y-81651565D01*
X32190500Y-81448435D01*
X32158723Y-81247807D01*
X32158722Y-81247803D01*
X32158722Y-81247802D01*
X32095954Y-81054622D01*
X32095953Y-81054620D01*
X32003734Y-80873631D01*
X31988480Y-80852635D01*
X31884343Y-80709302D01*
X31884339Y-80709297D01*
X31740702Y-80565660D01*
X31740697Y-80565656D01*
X31576372Y-80446268D01*
X31576371Y-80446267D01*
X31576369Y-80446266D01*
X31485874Y-80400156D01*
X31395377Y-80354045D01*
X31202196Y-80291277D01*
X31051722Y-80267444D01*
X31001565Y-80259500D01*
X30798435Y-80259500D01*
X30731559Y-80270092D01*
X30597805Y-80291277D01*
X30597802Y-80291277D01*
X30404622Y-80354045D01*
X30223627Y-80446268D01*
X30059302Y-80565656D01*
X30059297Y-80565660D01*
X29915660Y-80709297D01*
X29915656Y-80709302D01*
X29796268Y-80873627D01*
X29704045Y-81054622D01*
X29641277Y-81247802D01*
X29641277Y-81247805D01*
X29609500Y-81448435D01*
X25290500Y-81448435D01*
X25258723Y-81247807D01*
X25258722Y-81247803D01*
X25258722Y-81247802D01*
X25195954Y-81054622D01*
X25195953Y-81054620D01*
X25103734Y-80873631D01*
X25088480Y-80852635D01*
X24984343Y-80709302D01*
X24984339Y-80709297D01*
X24840702Y-80565660D01*
X24840697Y-80565656D01*
X24676372Y-80446268D01*
X24676371Y-80446267D01*
X24676369Y-80446266D01*
X24585874Y-80400156D01*
X24495377Y-80354045D01*
X24302196Y-80291277D01*
X24151722Y-80267444D01*
X24101565Y-80259500D01*
X23898435Y-80259500D01*
X23831559Y-80270092D01*
X23697805Y-80291277D01*
X23697802Y-80291277D01*
X23504622Y-80354045D01*
X23323627Y-80446268D01*
X23159302Y-80565656D01*
X23159297Y-80565660D01*
X23015660Y-80709297D01*
X23015656Y-80709302D01*
X22896268Y-80873627D01*
X22804045Y-81054622D01*
X22741277Y-81247802D01*
X22741277Y-81247805D01*
X22709500Y-81448435D01*
X3290500Y-81448435D01*
X3258723Y-81247807D01*
X3258722Y-81247803D01*
X3258722Y-81247802D01*
X3195954Y-81054622D01*
X3195953Y-81054620D01*
X3103734Y-80873631D01*
X3088480Y-80852635D01*
X2984343Y-80709302D01*
X2984339Y-80709297D01*
X2840702Y-80565660D01*
X2840697Y-80565656D01*
X2676372Y-80446268D01*
X2676371Y-80446267D01*
X2676369Y-80446266D01*
X2585874Y-80400156D01*
X2495377Y-80354045D01*
X2302196Y-80291277D01*
X2151722Y-80267444D01*
X2101565Y-80259500D01*
X1898435Y-80259500D01*
X1831559Y-80270092D01*
X1697805Y-80291277D01*
X1697802Y-80291277D01*
X1504622Y-80354045D01*
X1323627Y-80446268D01*
X1159302Y-80565656D01*
X1159297Y-80565660D01*
X1015660Y-80709297D01*
X1015656Y-80709302D01*
X896268Y-80873627D01*
X804045Y-81054622D01*
X741277Y-81247802D01*
X741277Y-81247805D01*
X709500Y-81448435D01*
X400000Y-81448435D01*
X400000Y-68448435D01*
X709500Y-68448435D01*
X709500Y-68651564D01*
X741277Y-68852194D01*
X741277Y-68852197D01*
X804045Y-69045377D01*
X896268Y-69226372D01*
X1015656Y-69390697D01*
X1015660Y-69390702D01*
X1159297Y-69534339D01*
X1159302Y-69534343D01*
X1302635Y-69638480D01*
X1323631Y-69653734D01*
X1504620Y-69745953D01*
X1504622Y-69745954D01*
X1697803Y-69808722D01*
X1697804Y-69808722D01*
X1697807Y-69808723D01*
X1898435Y-69840500D01*
X1898436Y-69840500D01*
X2101564Y-69840500D01*
X2101565Y-69840500D01*
X2302193Y-69808723D01*
X2302196Y-69808722D01*
X2302197Y-69808722D01*
X2495377Y-69745954D01*
X2495377Y-69745953D01*
X2495380Y-69745953D01*
X2676369Y-69653734D01*
X2840704Y-69534338D01*
X2984338Y-69390704D01*
X3103734Y-69226369D01*
X3195953Y-69045380D01*
X3258723Y-68852193D01*
X3290500Y-68651565D01*
X3290500Y-68448435D01*
X22709500Y-68448435D01*
X22709500Y-68651564D01*
X22741277Y-68852194D01*
X22741277Y-68852197D01*
X22804045Y-69045377D01*
X22896268Y-69226372D01*
X23015656Y-69390697D01*
X23015660Y-69390702D01*
X23159297Y-69534339D01*
X23159302Y-69534343D01*
X23302635Y-69638480D01*
X23323631Y-69653734D01*
X23504620Y-69745953D01*
X23504622Y-69745954D01*
X23697803Y-69808722D01*
X23697804Y-69808722D01*
X23697807Y-69808723D01*
X23898435Y-69840500D01*
X23898436Y-69840500D01*
X24101564Y-69840500D01*
X24101565Y-69840500D01*
X24302193Y-69808723D01*
X24302196Y-69808722D01*
X24302197Y-69808722D01*
X24495377Y-69745954D01*
X24495377Y-69745953D01*
X24495380Y-69745953D01*
X24676369Y-69653734D01*
X24840704Y-69534338D01*
X24984338Y-69390704D01*
X25103734Y-69226369D01*
X25195953Y-69045380D01*
X25258723Y-68852193D01*
X25290500Y-68651565D01*
X25290500Y-68448435D01*
X29609500Y-68448435D01*
X29609500Y-68651564D01*
X29641277Y-68852194D01*
X29641277Y-68852197D01*
X29704045Y-69045377D01*
X29796268Y-69226372D01*
X29915656Y-69390697D01*
X29915660Y-69390702D01*
X30059297Y-69534339D01*
X30059302Y-69534343D01*
X30202635Y-69638480D01*
X30223631Y-69653734D01*
X30404620Y-69745953D01*
X30404622Y-69745954D01*
X30597803Y-69808722D01*
X30597804Y-69808722D01*
X30597807Y-69808723D01*
X30798435Y-69840500D01*
X30798436Y-69840500D01*
X31001564Y-69840500D01*
X31001565Y-69840500D01*
X31202193Y-69808723D01*
X31202196Y-69808722D01*
X31202197Y-69808722D01*
X31395377Y-69745954D01*
X31395377Y-69745953D01*
X31395380Y-69745953D01*
X31576369Y-69653734D01*
X31740704Y-69534338D01*
X31884338Y-69390704D01*
X32003734Y-69226369D01*
X32095953Y-69045380D01*
X32158723Y-68852193D01*
X32190500Y-68651565D01*
X32190500Y-68448435D01*
X32158723Y-68247807D01*
X32158722Y-68247803D01*
X32158722Y-68247802D01*
X32095954Y-68054622D01*
X32095953Y-68054620D01*
X32003734Y-67873631D01*
X31988480Y-67852635D01*
X31884343Y-67709302D01*
X31884339Y-67709297D01*
X31740702Y-67565660D01*
X31740697Y-67565656D01*
X31576372Y-67446268D01*
X31576371Y-67446267D01*
X31576369Y-67446266D01*
X31485874Y-67400156D01*
X31395377Y-67354045D01*
X31202196Y-67291277D01*
X31051722Y-67267444D01*
X31001565Y-67259500D01*
X30798435Y-67259500D01*
X30731559Y-67270092D01*
X30597805Y-67291277D01*
X30597802Y-67291277D01*
X30404622Y-67354045D01*
X30223627Y-67446268D01*
X30059302Y-67565656D01*
X30059297Y-67565660D01*
X29915660Y-67709297D01*
X29915656Y-67709302D01*
X29796268Y-67873627D01*
X29704045Y-68054622D01*
X29641277Y-68247802D01*
X29641277Y-68247805D01*
X29609500Y-68448435D01*
X25290500Y-68448435D01*
X25258723Y-68247807D01*
X25258722Y-68247803D01*
X25258722Y-68247802D01*
X25195954Y-68054622D01*
X25195953Y-68054620D01*
X25103734Y-67873631D01*
X25088480Y-67852635D01*
X24984343Y-67709302D01*
X24984339Y-67709297D01*
X24840702Y-67565660D01*
X24840697Y-67565656D01*
X24676372Y-67446268D01*
X24676371Y-67446267D01*
X24676369Y-67446266D01*
X24585874Y-67400156D01*
X24495377Y-67354045D01*
X24302196Y-67291277D01*
X24151722Y-67267444D01*
X24101565Y-67259500D01*
X23898435Y-67259500D01*
X23831559Y-67270092D01*
X23697805Y-67291277D01*
X23697802Y-67291277D01*
X23504622Y-67354045D01*
X23323627Y-67446268D01*
X23159302Y-67565656D01*
X23159297Y-67565660D01*
X23015660Y-67709297D01*
X23015656Y-67709302D01*
X22896268Y-67873627D01*
X22804045Y-68054622D01*
X22741277Y-68247802D01*
X22741277Y-68247805D01*
X22709500Y-68448435D01*
X3290500Y-68448435D01*
X3258723Y-68247807D01*
X3258722Y-68247803D01*
X3258722Y-68247802D01*
X3195954Y-68054622D01*
X3195953Y-68054620D01*
X3103734Y-67873631D01*
X3088480Y-67852635D01*
X2984343Y-67709302D01*
X2984339Y-67709297D01*
X2840702Y-67565660D01*
X2840697Y-67565656D01*
X2676372Y-67446268D01*
X2676371Y-67446267D01*
X2676369Y-67446266D01*
X2585874Y-67400156D01*
X2495377Y-67354045D01*
X2302196Y-67291277D01*
X2151722Y-67267444D01*
X2101565Y-67259500D01*
X1898435Y-67259500D01*
X1831559Y-67270092D01*
X1697805Y-67291277D01*
X1697802Y-67291277D01*
X1504622Y-67354045D01*
X1323627Y-67446268D01*
X1159302Y-67565656D01*
X1159297Y-67565660D01*
X1015660Y-67709297D01*
X1015656Y-67709302D01*
X896268Y-67873627D01*
X804045Y-68054622D01*
X741277Y-68247802D01*
X741277Y-68247805D01*
X709500Y-68448435D01*
X400000Y-68448435D01*
X400000Y-65944008D01*
X36039000Y-65944008D01*
X36039000Y-66075792D01*
X36051314Y-66121748D01*
X36073108Y-66203087D01*
X36106054Y-66260150D01*
X36139000Y-66317214D01*
X36232186Y-66410400D01*
X36346314Y-66476292D01*
X36473608Y-66510400D01*
X36473610Y-66510400D01*
X36563667Y-66510400D01*
X36630706Y-66530085D01*
X36651348Y-66546719D01*
X42874440Y-72769811D01*
X42930389Y-72825760D01*
X42930391Y-72825761D01*
X42930395Y-72825764D01*
X42961999Y-72844010D01*
X42998911Y-72865321D01*
X43075338Y-72885800D01*
X43154462Y-72885800D01*
X44180223Y-72885800D01*
X44247262Y-72905485D01*
X44267904Y-72922118D01*
X44331686Y-72985900D01*
X44445814Y-73051792D01*
X44573108Y-73085900D01*
X44573110Y-73085900D01*
X44676285Y-73085900D01*
X44743324Y-73105585D01*
X44789079Y-73158389D01*
X44797347Y-73213581D01*
X44799800Y-73213581D01*
X44799800Y-73353491D01*
X44833908Y-73480787D01*
X44866854Y-73537850D01*
X44899800Y-73594914D01*
X44992986Y-73688100D01*
X45107114Y-73753992D01*
X45234408Y-73788100D01*
X45234410Y-73788100D01*
X45366190Y-73788100D01*
X45366192Y-73788100D01*
X45493486Y-73753992D01*
X45607614Y-73688100D01*
X45700800Y-73594914D01*
X45766692Y-73480786D01*
X45800800Y-73353492D01*
X45800800Y-73263432D01*
X45820485Y-73196393D01*
X45837119Y-73175751D01*
X46437552Y-72575319D01*
X46498875Y-72541834D01*
X46525233Y-72539000D01*
X48349724Y-72539000D01*
X48416763Y-72558685D01*
X48437405Y-72575319D01*
X48501086Y-72639000D01*
X48615214Y-72704892D01*
X48742508Y-72739000D01*
X48742510Y-72739000D01*
X48874290Y-72739000D01*
X48874292Y-72739000D01*
X49001586Y-72704892D01*
X49115714Y-72639000D01*
X49208900Y-72545814D01*
X49274792Y-72431686D01*
X49308900Y-72304392D01*
X49308900Y-72172608D01*
X49274792Y-72045314D01*
X49208900Y-71931186D01*
X49115714Y-71838000D01*
X49058650Y-71805054D01*
X49001587Y-71772108D01*
X48937939Y-71755054D01*
X48874292Y-71738000D01*
X48742508Y-71738000D01*
X48615212Y-71772108D01*
X48501086Y-71838000D01*
X48501083Y-71838002D01*
X48437405Y-71901681D01*
X48376082Y-71935166D01*
X48349724Y-71938000D01*
X46309838Y-71938000D01*
X46271624Y-71948239D01*
X46233409Y-71958479D01*
X46233404Y-71958482D01*
X46164895Y-71998035D01*
X46164887Y-71998041D01*
X45412147Y-72750781D01*
X45385219Y-72765484D01*
X45359401Y-72782077D01*
X45353200Y-72782968D01*
X45350824Y-72784266D01*
X45324466Y-72787100D01*
X45263015Y-72787100D01*
X45195976Y-72767415D01*
X45150221Y-72714611D01*
X45141953Y-72659419D01*
X45139500Y-72659419D01*
X45139500Y-72519510D01*
X45139500Y-72519508D01*
X45105392Y-72392214D01*
X45039500Y-72278086D01*
X44946314Y-72184900D01*
X44889250Y-72151954D01*
X44832187Y-72119008D01*
X44768539Y-72101954D01*
X44704892Y-72084900D01*
X44573108Y-72084900D01*
X44445812Y-72119008D01*
X44331686Y-72184900D01*
X44331683Y-72184902D01*
X44268105Y-72248481D01*
X44206782Y-72281966D01*
X44180424Y-72284800D01*
X43290733Y-72284800D01*
X43223694Y-72265115D01*
X43203052Y-72248481D01*
X37076319Y-66121748D01*
X37042834Y-66060425D01*
X37040000Y-66034067D01*
X37040000Y-65944010D01*
X37040000Y-65944008D01*
X37005892Y-65816714D01*
X36940000Y-65702586D01*
X36846814Y-65609400D01*
X36789750Y-65576454D01*
X36732687Y-65543508D01*
X36669039Y-65526454D01*
X36605392Y-65509400D01*
X36473608Y-65509400D01*
X36346312Y-65543508D01*
X36232186Y-65609400D01*
X36232183Y-65609402D01*
X36139002Y-65702583D01*
X36139000Y-65702586D01*
X36073108Y-65816712D01*
X36059199Y-65868623D01*
X36039000Y-65944008D01*
X400000Y-65944008D01*
X400000Y-55539538D01*
X8259000Y-55539538D01*
X8259000Y-60683762D01*
X8269974Y-60724718D01*
X8279478Y-60760187D01*
X8297731Y-60791802D01*
X8319039Y-60828709D01*
X8319041Y-60828712D01*
X8670781Y-61180452D01*
X8704266Y-61241775D01*
X8707100Y-61268133D01*
X8707100Y-61358191D01*
X8741208Y-61485487D01*
X8774154Y-61542550D01*
X8807100Y-61599614D01*
X8900286Y-61692800D01*
X9014414Y-61758692D01*
X9141708Y-61792800D01*
X9141710Y-61792800D01*
X9273490Y-61792800D01*
X9273492Y-61792800D01*
X9400786Y-61758692D01*
X9514914Y-61692800D01*
X9608100Y-61599614D01*
X9673992Y-61485486D01*
X9708100Y-61358192D01*
X9708100Y-61226408D01*
X9673992Y-61099114D01*
X9608100Y-60984986D01*
X9514914Y-60891800D01*
X9457850Y-60858854D01*
X9400787Y-60825908D01*
X9337139Y-60808854D01*
X9273492Y-60791800D01*
X9183433Y-60791800D01*
X9116394Y-60772115D01*
X9095752Y-60755481D01*
X8896319Y-60556048D01*
X8862834Y-60494725D01*
X8860000Y-60468367D01*
X8860000Y-56415916D01*
X8879685Y-56348877D01*
X8932489Y-56303122D01*
X9001647Y-56293178D01*
X9016075Y-56296137D01*
X9141708Y-56329800D01*
X9141711Y-56329800D01*
X9273490Y-56329800D01*
X9273492Y-56329800D01*
X9400786Y-56295692D01*
X9514914Y-56229800D01*
X9608100Y-56136614D01*
X9673992Y-56022486D01*
X9708100Y-55895192D01*
X9708100Y-55805132D01*
X9727785Y-55738093D01*
X9744419Y-55717451D01*
X11005462Y-54456408D01*
X12865800Y-54456408D01*
X12865800Y-54588191D01*
X12899908Y-54715487D01*
X12932854Y-54772550D01*
X12965800Y-54829614D01*
X13058986Y-54922800D01*
X13173114Y-54988692D01*
X13300408Y-55022800D01*
X13300410Y-55022800D01*
X13432190Y-55022800D01*
X13432192Y-55022800D01*
X13559486Y-54988692D01*
X13673614Y-54922800D01*
X13766800Y-54829614D01*
X13832692Y-54715486D01*
X13866800Y-54588192D01*
X13866800Y-54498132D01*
X13886485Y-54431093D01*
X13903119Y-54410451D01*
X16760752Y-51552819D01*
X16822075Y-51519334D01*
X16848433Y-51516500D01*
X18299967Y-51516500D01*
X18367006Y-51536185D01*
X18412761Y-51588989D01*
X18422705Y-51658147D01*
X18393680Y-51721703D01*
X18387648Y-51728179D01*
X17218037Y-52897791D01*
X16060647Y-54055181D01*
X15999324Y-54088666D01*
X15972966Y-54091500D01*
X15882908Y-54091500D01*
X15755612Y-54125608D01*
X15641486Y-54191500D01*
X15641483Y-54191502D01*
X15548302Y-54284683D01*
X15548300Y-54284686D01*
X15482408Y-54398812D01*
X15448300Y-54526108D01*
X15448300Y-54657891D01*
X15482408Y-54785187D01*
X15508060Y-54829616D01*
X15548300Y-54899314D01*
X15641486Y-54992500D01*
X15755614Y-55058392D01*
X15882908Y-55092500D01*
X15882910Y-55092500D01*
X16014690Y-55092500D01*
X16014692Y-55092500D01*
X16141986Y-55058392D01*
X16256114Y-54992500D01*
X16349300Y-54899314D01*
X16415192Y-54785186D01*
X16449300Y-54657892D01*
X16449300Y-54567832D01*
X16468985Y-54500793D01*
X16485619Y-54480151D01*
X18847952Y-52117819D01*
X18909275Y-52084334D01*
X18935633Y-52081500D01*
X26097782Y-52081500D01*
X26164821Y-52101185D01*
X26210576Y-52153989D01*
X26220520Y-52223147D01*
X26217557Y-52237593D01*
X26182800Y-52367308D01*
X26182800Y-52499091D01*
X26216908Y-52626387D01*
X26249854Y-52683450D01*
X26282800Y-52740514D01*
X26375986Y-52833700D01*
X26474821Y-52890763D01*
X26486994Y-52897791D01*
X26490114Y-52899592D01*
X26617408Y-52933700D01*
X26617410Y-52933700D01*
X26749190Y-52933700D01*
X26749192Y-52933700D01*
X26876486Y-52899592D01*
X26990614Y-52833700D01*
X27056096Y-52768218D01*
X27117420Y-52734734D01*
X27143777Y-52731900D01*
X32070224Y-52731900D01*
X32137263Y-52751585D01*
X32157904Y-52768218D01*
X32221586Y-52831900D01*
X32335714Y-52897792D01*
X32463008Y-52931900D01*
X32463010Y-52931900D01*
X32554667Y-52931900D01*
X32621706Y-52951585D01*
X32642348Y-52968219D01*
X39251240Y-59577111D01*
X39307189Y-59633060D01*
X39307191Y-59633061D01*
X39307195Y-59633064D01*
X39375704Y-59672617D01*
X39375711Y-59672621D01*
X39452138Y-59693100D01*
X39531262Y-59693100D01*
X39667172Y-59693100D01*
X39734211Y-59712785D01*
X39754851Y-59729417D01*
X42110427Y-62084898D01*
X42110432Y-62084908D01*
X42110435Y-62084906D01*
X42766487Y-62741042D01*
X42799968Y-62802368D01*
X42802800Y-62828718D01*
X42802800Y-65868623D01*
X42783115Y-65935662D01*
X42766482Y-65956304D01*
X42702800Y-66019986D01*
X42636908Y-66134112D01*
X42602800Y-66261408D01*
X42602800Y-66270967D01*
X42583115Y-66338006D01*
X42530311Y-66383761D01*
X42461153Y-66393705D01*
X42397597Y-66364680D01*
X42391119Y-66358648D01*
X39488212Y-63455741D01*
X39488204Y-63455735D01*
X39419695Y-63416182D01*
X39419690Y-63416179D01*
X39394213Y-63409352D01*
X39343262Y-63395700D01*
X39343260Y-63395700D01*
X36060276Y-63395700D01*
X35993237Y-63376015D01*
X35972595Y-63359381D01*
X35908916Y-63295702D01*
X35908914Y-63295700D01*
X35851850Y-63262754D01*
X35794787Y-63229808D01*
X35731139Y-63212754D01*
X35667492Y-63195700D01*
X35535708Y-63195700D01*
X35408412Y-63229808D01*
X35294286Y-63295700D01*
X35294283Y-63295702D01*
X35201102Y-63388883D01*
X35201100Y-63388886D01*
X35135208Y-63503012D01*
X35101100Y-63630308D01*
X35101100Y-63762091D01*
X35135208Y-63889387D01*
X35168154Y-63946450D01*
X35201100Y-64003514D01*
X35294286Y-64096700D01*
X35408414Y-64162592D01*
X35535708Y-64196700D01*
X35535710Y-64196700D01*
X35667490Y-64196700D01*
X35667492Y-64196700D01*
X35794786Y-64162592D01*
X35908914Y-64096700D01*
X35972595Y-64033019D01*
X36033918Y-63999534D01*
X36060276Y-63996700D01*
X39127867Y-63996700D01*
X39194906Y-64016385D01*
X39215548Y-64033019D01*
X42124981Y-66942452D01*
X42158466Y-67003775D01*
X42161300Y-67030133D01*
X42161300Y-67120191D01*
X42195408Y-67247487D01*
X42202344Y-67259500D01*
X42261300Y-67361614D01*
X42354486Y-67454800D01*
X42468614Y-67520692D01*
X42595908Y-67554800D01*
X42595910Y-67554800D01*
X42727690Y-67554800D01*
X42727692Y-67554800D01*
X42854986Y-67520692D01*
X42969114Y-67454800D01*
X43062300Y-67361614D01*
X43128192Y-67247486D01*
X43162300Y-67120192D01*
X43162300Y-66988408D01*
X43154703Y-66960055D01*
X43156365Y-66890207D01*
X43195526Y-66832344D01*
X43242382Y-66808188D01*
X43296486Y-66793692D01*
X43410614Y-66727800D01*
X43503800Y-66634614D01*
X43569692Y-66520486D01*
X43603800Y-66393192D01*
X43603800Y-66261408D01*
X43569692Y-66134114D01*
X43503800Y-66019986D01*
X43440118Y-65956304D01*
X43406634Y-65894980D01*
X43403800Y-65868623D01*
X43403800Y-63314508D01*
X44190900Y-63314508D01*
X44190900Y-63446291D01*
X44225008Y-63573587D01*
X44257757Y-63630308D01*
X44290900Y-63687714D01*
X44384086Y-63780900D01*
X44482921Y-63837963D01*
X44496135Y-63845592D01*
X44498214Y-63846792D01*
X44625508Y-63880900D01*
X44625510Y-63880900D01*
X44757290Y-63880900D01*
X44757292Y-63880900D01*
X44884586Y-63846792D01*
X44998714Y-63780900D01*
X45062395Y-63717219D01*
X45123718Y-63683734D01*
X45150076Y-63680900D01*
X47768023Y-63680900D01*
X47835062Y-63700585D01*
X47855704Y-63717218D01*
X47918186Y-63779700D01*
X48032314Y-63845592D01*
X48159608Y-63879700D01*
X48159610Y-63879700D01*
X48291390Y-63879700D01*
X48291392Y-63879700D01*
X48418686Y-63845592D01*
X48532814Y-63779700D01*
X48626000Y-63686514D01*
X48691892Y-63572386D01*
X48726000Y-63445092D01*
X48726000Y-63313308D01*
X48691892Y-63186014D01*
X48626000Y-63071886D01*
X48532814Y-62978700D01*
X48475750Y-62945754D01*
X48418687Y-62912808D01*
X48355039Y-62895754D01*
X48291392Y-62878700D01*
X48159608Y-62878700D01*
X48032312Y-62912808D01*
X47918186Y-62978700D01*
X47853304Y-63043582D01*
X47791980Y-63077066D01*
X47765623Y-63079900D01*
X45150076Y-63079900D01*
X45083037Y-63060215D01*
X45062395Y-63043581D01*
X44998716Y-62979902D01*
X44998714Y-62979900D01*
X44941650Y-62946954D01*
X44884587Y-62914008D01*
X44820939Y-62896954D01*
X44757292Y-62879900D01*
X44625508Y-62879900D01*
X44498212Y-62914008D01*
X44384086Y-62979900D01*
X44384083Y-62979902D01*
X44290902Y-63073083D01*
X44290900Y-63073086D01*
X44225008Y-63187212D01*
X44190900Y-63314508D01*
X43403800Y-63314508D01*
X43403800Y-62645006D01*
X43403802Y-62613357D01*
X43403800Y-62613349D01*
X43403800Y-62613338D01*
X43393254Y-62573982D01*
X43383990Y-62539400D01*
X43383427Y-62537098D01*
X43383424Y-62537091D01*
X43383321Y-62536913D01*
X43383321Y-62536911D01*
X43364714Y-62504684D01*
X43364712Y-62504677D01*
X43364711Y-62504678D01*
X43357043Y-62491395D01*
X43343772Y-62468404D01*
X43343767Y-62468399D01*
X43343761Y-62468391D01*
X43343760Y-62468389D01*
X43320186Y-62444815D01*
X43320182Y-62444808D01*
X43320181Y-62444810D01*
X42838325Y-61962892D01*
X42804845Y-61901568D01*
X42809834Y-61831877D01*
X42838330Y-61787539D01*
X45622351Y-59003519D01*
X45683674Y-58970034D01*
X45710032Y-58967200D01*
X45800090Y-58967200D01*
X45800092Y-58967200D01*
X45927386Y-58933092D01*
X46041514Y-58867200D01*
X46134700Y-58774014D01*
X46200592Y-58659886D01*
X46234700Y-58532592D01*
X46234700Y-58400808D01*
X46200592Y-58273514D01*
X46134700Y-58159386D01*
X46041514Y-58066200D01*
X45984450Y-58033254D01*
X45927387Y-58000308D01*
X45863739Y-57983254D01*
X45800092Y-57966200D01*
X45668308Y-57966200D01*
X45541012Y-58000308D01*
X45426886Y-58066200D01*
X45426883Y-58066202D01*
X45333702Y-58159383D01*
X45333700Y-58159386D01*
X45267808Y-58273512D01*
X45233700Y-58400808D01*
X45233700Y-58490866D01*
X45214015Y-58557905D01*
X45197381Y-58578547D01*
X42413374Y-61362553D01*
X42352051Y-61396038D01*
X42282359Y-61391054D01*
X42238014Y-61362555D01*
X40052394Y-59177023D01*
X40052393Y-59177022D01*
X40027511Y-59152140D01*
X40027510Y-59152139D01*
X40027506Y-59152135D01*
X39992113Y-59131702D01*
X39992104Y-59131697D01*
X39992101Y-59131696D01*
X39962429Y-59114565D01*
X39959481Y-59112734D01*
X39959322Y-59112666D01*
X39958105Y-59112339D01*
X39958048Y-59112325D01*
X39928138Y-59104311D01*
X39909371Y-59099283D01*
X39882562Y-59092100D01*
X39882558Y-59092099D01*
X39882556Y-59092099D01*
X39842994Y-59092100D01*
X39667533Y-59092100D01*
X39600494Y-59072415D01*
X39579852Y-59055781D01*
X33065719Y-52541648D01*
X33032234Y-52480325D01*
X33029400Y-52453967D01*
X33029400Y-52365510D01*
X33029400Y-52365508D01*
X32995292Y-52238214D01*
X32995290Y-52238212D01*
X32995125Y-52237593D01*
X32996788Y-52167744D01*
X33035950Y-52109881D01*
X33100179Y-52082377D01*
X33114900Y-52081500D01*
X38681567Y-52081500D01*
X38748606Y-52101185D01*
X38769248Y-52117819D01*
X41274881Y-54623452D01*
X41308366Y-54684775D01*
X41311200Y-54711133D01*
X41311200Y-54801191D01*
X41345308Y-54928487D01*
X41378254Y-54985550D01*
X41411200Y-55042614D01*
X41504386Y-55135800D01*
X41618514Y-55201692D01*
X41745808Y-55235800D01*
X41745810Y-55235800D01*
X41877590Y-55235800D01*
X41877592Y-55235800D01*
X42004886Y-55201692D01*
X42119014Y-55135800D01*
X42212200Y-55042614D01*
X42278092Y-54928486D01*
X42312200Y-54801192D01*
X42312200Y-54669408D01*
X42278092Y-54542114D01*
X42212200Y-54427986D01*
X42119014Y-54334800D01*
X42061950Y-54301854D01*
X42004887Y-54268908D01*
X41941239Y-54251854D01*
X41877592Y-54234800D01*
X41787533Y-54234800D01*
X41720494Y-54215115D01*
X41699852Y-54198481D01*
X39229552Y-51728181D01*
X39196067Y-51666858D01*
X39201051Y-51597166D01*
X39242923Y-51541233D01*
X39308387Y-51516816D01*
X39317233Y-51516500D01*
X41921824Y-51516500D01*
X41988863Y-51536185D01*
X42009505Y-51552819D01*
X42073186Y-51616500D01*
X42187314Y-51682392D01*
X42314608Y-51716500D01*
X42314610Y-51716500D01*
X42446390Y-51716500D01*
X42446392Y-51716500D01*
X42573686Y-51682392D01*
X42687814Y-51616500D01*
X42781000Y-51523314D01*
X42846892Y-51409186D01*
X42881000Y-51281892D01*
X42881000Y-51150108D01*
X42846892Y-51022814D01*
X42781000Y-50908686D01*
X42687814Y-50815500D01*
X42630750Y-50782554D01*
X42573687Y-50749608D01*
X42510039Y-50732554D01*
X42446392Y-50715500D01*
X42314608Y-50715500D01*
X42187312Y-50749608D01*
X42073186Y-50815500D01*
X42073183Y-50815502D01*
X42009505Y-50879181D01*
X41948182Y-50912666D01*
X41921824Y-50915500D01*
X16633038Y-50915500D01*
X16594824Y-50925739D01*
X16556609Y-50935979D01*
X16556604Y-50935982D01*
X16488095Y-50975535D01*
X16488087Y-50975541D01*
X13478147Y-53985481D01*
X13416824Y-54018966D01*
X13390466Y-54021800D01*
X13300408Y-54021800D01*
X13173112Y-54055908D01*
X13058986Y-54121800D01*
X13058983Y-54121802D01*
X12965802Y-54214983D01*
X12965800Y-54214986D01*
X12899908Y-54329112D01*
X12865800Y-54456408D01*
X11005462Y-54456408D01*
X11101270Y-54360600D01*
X12628171Y-52833700D01*
X15429052Y-50032819D01*
X15490375Y-49999334D01*
X15516733Y-49996500D01*
X38103924Y-49996500D01*
X38170963Y-50016185D01*
X38191605Y-50032819D01*
X38255286Y-50096500D01*
X38369414Y-50162392D01*
X38496708Y-50196500D01*
X38496710Y-50196500D01*
X38628490Y-50196500D01*
X38628492Y-50196500D01*
X38755786Y-50162392D01*
X38869914Y-50096500D01*
X38963100Y-50003314D01*
X39028992Y-49889186D01*
X39063100Y-49761892D01*
X39063100Y-49671832D01*
X39082785Y-49604793D01*
X39099419Y-49584151D01*
X40366462Y-48317108D01*
X41723674Y-46959895D01*
X41784995Y-46926412D01*
X41843443Y-46927802D01*
X41937108Y-46952900D01*
X41937110Y-46952900D01*
X42068890Y-46952900D01*
X42068892Y-46952900D01*
X42196186Y-46918792D01*
X42310314Y-46852900D01*
X42403500Y-46759714D01*
X42469392Y-46645586D01*
X42469392Y-46645585D01*
X42473456Y-46638547D01*
X42475870Y-46639941D01*
X42511174Y-46596111D01*
X42577463Y-46574031D01*
X42645167Y-46591294D01*
X42669599Y-46610270D01*
X43796581Y-47737252D01*
X43830066Y-47798575D01*
X43832900Y-47824933D01*
X43832900Y-49386823D01*
X43813215Y-49453862D01*
X43796582Y-49474504D01*
X43732900Y-49538186D01*
X43667008Y-49652312D01*
X43632900Y-49779608D01*
X43632900Y-49911391D01*
X43667008Y-50038687D01*
X43699954Y-50095750D01*
X43732900Y-50152814D01*
X43826086Y-50246000D01*
X43940214Y-50311892D01*
X44067508Y-50346000D01*
X44067510Y-50346000D01*
X44199290Y-50346000D01*
X44199292Y-50346000D01*
X44326586Y-50311892D01*
X44440714Y-50246000D01*
X44533900Y-50152814D01*
X44599792Y-50038686D01*
X44633900Y-49911392D01*
X44633900Y-49779608D01*
X44599792Y-49652314D01*
X44533900Y-49538186D01*
X44470218Y-49474504D01*
X44436734Y-49413180D01*
X44433900Y-49386823D01*
X44433900Y-47609539D01*
X44415966Y-47542610D01*
X44413421Y-47533111D01*
X44413417Y-47533104D01*
X44373864Y-47464595D01*
X44373858Y-47464587D01*
X39380312Y-42471041D01*
X39380304Y-42471035D01*
X39311795Y-42431482D01*
X39311790Y-42431479D01*
X39286313Y-42424652D01*
X39235362Y-42411000D01*
X39235360Y-42411000D01*
X38970628Y-42411000D01*
X38903589Y-42391315D01*
X38857834Y-42338511D01*
X38847890Y-42269353D01*
X38863239Y-42225002D01*
X38925892Y-42116486D01*
X38960000Y-41989192D01*
X38960000Y-41857408D01*
X38925892Y-41730114D01*
X38860000Y-41615986D01*
X38766814Y-41522800D01*
X38709750Y-41489854D01*
X38652687Y-41456908D01*
X38589039Y-41439854D01*
X38525392Y-41422800D01*
X38393608Y-41422800D01*
X38266312Y-41456908D01*
X38152186Y-41522800D01*
X38152183Y-41522802D01*
X38088505Y-41586481D01*
X38027182Y-41619966D01*
X38000824Y-41622800D01*
X34846876Y-41622800D01*
X34779837Y-41603115D01*
X34759195Y-41586481D01*
X34695516Y-41522802D01*
X34695514Y-41522800D01*
X34638450Y-41489854D01*
X34581387Y-41456908D01*
X34517739Y-41439854D01*
X34454092Y-41422800D01*
X34322308Y-41422800D01*
X34195012Y-41456908D01*
X34080886Y-41522800D01*
X34080883Y-41522802D01*
X33987702Y-41615983D01*
X33987700Y-41615986D01*
X33921808Y-41730112D01*
X33887700Y-41857408D01*
X33887700Y-41989191D01*
X33921808Y-42116487D01*
X33947509Y-42161001D01*
X33984459Y-42225001D01*
X33985891Y-42230901D01*
X33989866Y-42235489D01*
X33994030Y-42264451D01*
X34000932Y-42292899D01*
X33998945Y-42298637D01*
X33999810Y-42304647D01*
X33987651Y-42331269D01*
X33978080Y-42358926D01*
X33973307Y-42362679D01*
X33970785Y-42368203D01*
X33946161Y-42384027D01*
X33923159Y-42402117D01*
X33915808Y-42403533D01*
X33912007Y-42405977D01*
X33877072Y-42411000D01*
X33769676Y-42411000D01*
X33702637Y-42391315D01*
X33681995Y-42374681D01*
X33618316Y-42311002D01*
X33618314Y-42311000D01*
X33561250Y-42278054D01*
X33504187Y-42245108D01*
X33429137Y-42224999D01*
X33376892Y-42211000D01*
X33245108Y-42211000D01*
X33117812Y-42245108D01*
X33003686Y-42311000D01*
X33003683Y-42311002D01*
X32910502Y-42404183D01*
X32910500Y-42404186D01*
X32844608Y-42518312D01*
X32810500Y-42645608D01*
X32810500Y-42777391D01*
X32846712Y-42912537D01*
X32844352Y-42913169D01*
X32850496Y-42970353D01*
X32819216Y-43032830D01*
X32759124Y-43068478D01*
X32696375Y-43068102D01*
X32693786Y-43067408D01*
X32566492Y-43033300D01*
X32434708Y-43033300D01*
X32307412Y-43067408D01*
X32193286Y-43133300D01*
X32193283Y-43133302D01*
X32129605Y-43196981D01*
X32068282Y-43230466D01*
X32041924Y-43233300D01*
X20565238Y-43233300D01*
X20488810Y-43253778D01*
X20420289Y-43293340D01*
X20420286Y-43293342D01*
X8319041Y-55394587D01*
X8319035Y-55394595D01*
X8279482Y-55463104D01*
X8279479Y-55463109D01*
X8265826Y-55514062D01*
X8259000Y-55539538D01*
X400000Y-55539538D01*
X400000Y-43148435D01*
X709500Y-43148435D01*
X709500Y-43351564D01*
X741277Y-43552194D01*
X741277Y-43552197D01*
X804045Y-43745377D01*
X896268Y-43926372D01*
X1015656Y-44090697D01*
X1015660Y-44090702D01*
X1159297Y-44234339D01*
X1159302Y-44234343D01*
X1302635Y-44338480D01*
X1323631Y-44353734D01*
X1504620Y-44445953D01*
X1504622Y-44445954D01*
X1697803Y-44508722D01*
X1697804Y-44508722D01*
X1697807Y-44508723D01*
X1898435Y-44540500D01*
X1898436Y-44540500D01*
X2101564Y-44540500D01*
X2101565Y-44540500D01*
X2302193Y-44508723D01*
X2302196Y-44508722D01*
X2302197Y-44508722D01*
X2495377Y-44445954D01*
X2495377Y-44445953D01*
X2495380Y-44445953D01*
X2676369Y-44353734D01*
X2840704Y-44234338D01*
X2984338Y-44090704D01*
X3103734Y-43926369D01*
X3195953Y-43745380D01*
X3243290Y-43599691D01*
X3258722Y-43552197D01*
X3258722Y-43552196D01*
X3258723Y-43552193D01*
X3290500Y-43351565D01*
X3290500Y-43148435D01*
X3258723Y-42947807D01*
X3258722Y-42947803D01*
X3258722Y-42947802D01*
X3195954Y-42754622D01*
X3116992Y-42599652D01*
X3103734Y-42573631D01*
X3063543Y-42518312D01*
X2984343Y-42409302D01*
X2984339Y-42409297D01*
X2840702Y-42265660D01*
X2840697Y-42265656D01*
X2676372Y-42146268D01*
X2676371Y-42146267D01*
X2676369Y-42146266D01*
X2585874Y-42100156D01*
X2495377Y-42054045D01*
X2302196Y-41991277D01*
X2151722Y-41967444D01*
X2101565Y-41959500D01*
X1898435Y-41959500D01*
X1831559Y-41970092D01*
X1697805Y-41991277D01*
X1697802Y-41991277D01*
X1504622Y-42054045D01*
X1323627Y-42146268D01*
X1159302Y-42265656D01*
X1159297Y-42265660D01*
X1015660Y-42409297D01*
X1015656Y-42409302D01*
X896268Y-42573627D01*
X804045Y-42754622D01*
X741277Y-42947802D01*
X741277Y-42947805D01*
X709500Y-43148435D01*
X400000Y-43148435D01*
X400000Y-36738608D01*
X12473400Y-36738608D01*
X12473400Y-36870392D01*
X12490454Y-36934039D01*
X12507508Y-36997687D01*
X12509125Y-37000487D01*
X12573400Y-37111814D01*
X12666586Y-37205000D01*
X12780714Y-37270892D01*
X12908008Y-37305000D01*
X12908010Y-37305000D01*
X13039790Y-37305000D01*
X13039792Y-37305000D01*
X13167086Y-37270892D01*
X13281214Y-37205000D01*
X13374400Y-37111814D01*
X13440292Y-36997686D01*
X13474400Y-36870392D01*
X13474400Y-36780332D01*
X13494085Y-36713293D01*
X13510719Y-36692651D01*
X13822352Y-36381019D01*
X13883675Y-36347534D01*
X13910033Y-36344700D01*
X41135924Y-36344700D01*
X41202963Y-36364385D01*
X41223605Y-36381019D01*
X41287286Y-36444700D01*
X41401414Y-36510592D01*
X41528708Y-36544700D01*
X41528710Y-36544700D01*
X41660490Y-36544700D01*
X41660492Y-36544700D01*
X41787786Y-36510592D01*
X41901914Y-36444700D01*
X41965595Y-36381019D01*
X42026918Y-36347534D01*
X42053276Y-36344700D01*
X47287267Y-36344700D01*
X47354306Y-36364385D01*
X47374948Y-36381019D01*
X47689381Y-36695452D01*
X47722866Y-36756775D01*
X47725700Y-36783133D01*
X47725700Y-36873191D01*
X47759808Y-37000487D01*
X47792754Y-37057550D01*
X47825700Y-37114614D01*
X47918886Y-37207800D01*
X48013345Y-37262336D01*
X48061559Y-37312902D01*
X48074783Y-37381509D01*
X48048815Y-37446373D01*
X48039025Y-37457403D01*
X47770648Y-37725781D01*
X47709325Y-37759266D01*
X47682967Y-37762100D01*
X41962576Y-37762100D01*
X41895537Y-37742415D01*
X41874895Y-37725781D01*
X41811216Y-37662102D01*
X41811214Y-37662100D01*
X41754150Y-37629154D01*
X41697087Y-37596208D01*
X41633439Y-37579154D01*
X41569792Y-37562100D01*
X41438008Y-37562100D01*
X41310712Y-37596208D01*
X41196586Y-37662100D01*
X41196583Y-37662102D01*
X41103402Y-37755283D01*
X41103400Y-37755286D01*
X41037508Y-37869412D01*
X41003400Y-37996708D01*
X41003400Y-38128491D01*
X41037508Y-38255787D01*
X41064802Y-38303060D01*
X41103400Y-38369914D01*
X41196586Y-38463100D01*
X41196589Y-38463102D01*
X41203035Y-38468048D01*
X41201836Y-38469610D01*
X41242672Y-38512427D01*
X41255904Y-38581032D01*
X41229944Y-38645900D01*
X41173035Y-38686436D01*
X41164560Y-38689035D01*
X41133314Y-38697407D01*
X41019186Y-38763300D01*
X41019183Y-38763302D01*
X40955505Y-38826981D01*
X40894182Y-38860466D01*
X40867824Y-38863300D01*
X38401038Y-38863300D01*
X38362824Y-38873539D01*
X38324609Y-38883779D01*
X38324604Y-38883782D01*
X38256095Y-38923335D01*
X38256087Y-38923341D01*
X37289948Y-39889481D01*
X37228625Y-39922966D01*
X37202267Y-39925800D01*
X17298833Y-39925800D01*
X17269392Y-39917155D01*
X17239406Y-39910632D01*
X17234390Y-39906877D01*
X17231794Y-39906115D01*
X17211152Y-39889481D01*
X17192319Y-39870648D01*
X17158834Y-39809325D01*
X17156000Y-39782967D01*
X17156000Y-39692910D01*
X17156000Y-39692908D01*
X17121892Y-39565614D01*
X17121133Y-39564300D01*
X17113063Y-39550321D01*
X17056000Y-39451486D01*
X16962814Y-39358300D01*
X16905750Y-39325354D01*
X16848687Y-39292408D01*
X16785039Y-39275354D01*
X16721392Y-39258300D01*
X16589608Y-39258300D01*
X16462312Y-39292408D01*
X16348186Y-39358300D01*
X16348183Y-39358302D01*
X16255002Y-39451483D01*
X16255000Y-39451486D01*
X16189108Y-39565612D01*
X16167077Y-39647834D01*
X16155000Y-39692908D01*
X16155000Y-39824692D01*
X16160334Y-39844600D01*
X16189108Y-39951987D01*
X16222054Y-40009050D01*
X16255000Y-40066114D01*
X16348186Y-40159300D01*
X16437719Y-40210992D01*
X16459303Y-40223454D01*
X16462314Y-40225192D01*
X16589608Y-40259300D01*
X16589610Y-40259300D01*
X16679667Y-40259300D01*
X16746706Y-40278985D01*
X16767348Y-40295619D01*
X16882540Y-40410811D01*
X16938489Y-40466760D01*
X16938491Y-40466761D01*
X16938495Y-40466764D01*
X16964745Y-40481919D01*
X17007011Y-40506321D01*
X17083438Y-40526800D01*
X17083440Y-40526800D01*
X37417660Y-40526800D01*
X37417662Y-40526800D01*
X37494089Y-40506321D01*
X37562611Y-40466760D01*
X37618560Y-40410811D01*
X37777417Y-40251953D01*
X37838738Y-40218470D01*
X37908429Y-40223454D01*
X37964363Y-40265325D01*
X37984871Y-40307543D01*
X37993108Y-40338287D01*
X38026054Y-40395350D01*
X38059000Y-40452414D01*
X38152186Y-40545600D01*
X38266314Y-40611492D01*
X38393608Y-40645600D01*
X38393610Y-40645600D01*
X38525390Y-40645600D01*
X38525392Y-40645600D01*
X38652686Y-40611492D01*
X38766814Y-40545600D01*
X38830495Y-40481919D01*
X38891818Y-40448434D01*
X38918176Y-40445600D01*
X46066167Y-40445600D01*
X46133206Y-40465285D01*
X46153848Y-40481919D01*
X48271581Y-42599652D01*
X48305066Y-42660975D01*
X48307900Y-42687333D01*
X48307900Y-42777391D01*
X48342008Y-42904687D01*
X48366901Y-42947802D01*
X48407900Y-43018814D01*
X48501086Y-43112000D01*
X48615214Y-43177892D01*
X48742508Y-43212000D01*
X48742510Y-43212000D01*
X48874290Y-43212000D01*
X48874292Y-43212000D01*
X49001586Y-43177892D01*
X49052607Y-43148435D01*
X51609500Y-43148435D01*
X51609500Y-43351564D01*
X51641277Y-43552194D01*
X51641277Y-43552197D01*
X51704045Y-43745377D01*
X51796268Y-43926372D01*
X51915656Y-44090697D01*
X51915660Y-44090702D01*
X52059297Y-44234339D01*
X52059302Y-44234343D01*
X52202635Y-44338480D01*
X52223631Y-44353734D01*
X52404620Y-44445953D01*
X52404622Y-44445954D01*
X52597803Y-44508722D01*
X52597804Y-44508722D01*
X52597807Y-44508723D01*
X52798435Y-44540500D01*
X52798436Y-44540500D01*
X53001564Y-44540500D01*
X53001565Y-44540500D01*
X53202193Y-44508723D01*
X53202196Y-44508722D01*
X53202197Y-44508722D01*
X53395377Y-44445954D01*
X53395377Y-44445953D01*
X53395380Y-44445953D01*
X53576369Y-44353734D01*
X53740704Y-44234338D01*
X53884338Y-44090704D01*
X54003734Y-43926369D01*
X54095953Y-43745380D01*
X54143290Y-43599691D01*
X54158722Y-43552197D01*
X54158722Y-43552196D01*
X54158723Y-43552193D01*
X54190500Y-43351565D01*
X54190500Y-43148435D01*
X54158723Y-42947807D01*
X54158722Y-42947803D01*
X54158722Y-42947802D01*
X54095954Y-42754622D01*
X54016992Y-42599652D01*
X54003734Y-42573631D01*
X53963543Y-42518312D01*
X53884343Y-42409302D01*
X53884339Y-42409297D01*
X53740702Y-42265660D01*
X53740697Y-42265656D01*
X53576372Y-42146268D01*
X53576371Y-42146267D01*
X53576369Y-42146266D01*
X53485874Y-42100156D01*
X53395377Y-42054045D01*
X53202196Y-41991277D01*
X53051722Y-41967444D01*
X53001565Y-41959500D01*
X52798435Y-41959500D01*
X52731559Y-41970092D01*
X52597805Y-41991277D01*
X52597802Y-41991277D01*
X52404622Y-42054045D01*
X52223627Y-42146268D01*
X52059302Y-42265656D01*
X52059297Y-42265660D01*
X51915660Y-42409297D01*
X51915656Y-42409302D01*
X51796268Y-42573627D01*
X51704045Y-42754622D01*
X51641277Y-42947802D01*
X51641277Y-42947805D01*
X51609500Y-43148435D01*
X49052607Y-43148435D01*
X49115714Y-43112000D01*
X49208900Y-43018814D01*
X49274792Y-42904686D01*
X49308900Y-42777392D01*
X49308900Y-42645608D01*
X49274792Y-42518314D01*
X49208900Y-42404186D01*
X49115714Y-42311000D01*
X49058650Y-42278054D01*
X49001587Y-42245108D01*
X48926537Y-42224999D01*
X48874292Y-42211000D01*
X48784233Y-42211000D01*
X48717194Y-42191315D01*
X48696552Y-42174681D01*
X46426512Y-39904641D01*
X46426511Y-39904640D01*
X46408234Y-39894088D01*
X46408234Y-39894087D01*
X46408232Y-39894087D01*
X46357989Y-39865079D01*
X46281562Y-39844600D01*
X46281560Y-39844600D01*
X41611095Y-39844600D01*
X41544056Y-39824915D01*
X41498301Y-39772111D01*
X41488357Y-39702953D01*
X41517382Y-39639397D01*
X41549095Y-39613213D01*
X41593290Y-39587696D01*
X41633814Y-39564300D01*
X41727000Y-39471114D01*
X41792892Y-39356986D01*
X41827000Y-39229692D01*
X41827000Y-39097908D01*
X41792892Y-38970614D01*
X41727000Y-38856486D01*
X41633814Y-38763300D01*
X41633811Y-38763298D01*
X41627365Y-38758352D01*
X41628562Y-38756790D01*
X41587723Y-38713965D01*
X41574496Y-38645359D01*
X41600460Y-38580492D01*
X41657371Y-38539960D01*
X41665831Y-38537366D01*
X41697086Y-38528992D01*
X41811214Y-38463100D01*
X41874895Y-38399419D01*
X41936218Y-38365934D01*
X41962576Y-38363100D01*
X47898360Y-38363100D01*
X47898362Y-38363100D01*
X47974789Y-38342621D01*
X48043311Y-38303060D01*
X48099260Y-38247111D01*
X49099360Y-37247011D01*
X49123615Y-37205000D01*
X49138921Y-37178489D01*
X49159400Y-37102062D01*
X49159400Y-36549238D01*
X49138921Y-36472811D01*
X49122691Y-36444699D01*
X49099364Y-36404295D01*
X49099358Y-36404287D01*
X47421412Y-34726341D01*
X47421404Y-34726335D01*
X47352895Y-34686782D01*
X47352890Y-34686779D01*
X47327413Y-34679952D01*
X47276462Y-34666300D01*
X47276460Y-34666300D01*
X45825548Y-34666300D01*
X45758509Y-34646615D01*
X45712754Y-34593811D01*
X45702810Y-34524653D01*
X45705773Y-34510207D01*
X45737100Y-34393292D01*
X45737100Y-34261508D01*
X45702992Y-34134214D01*
X45637100Y-34020086D01*
X45543914Y-33926900D01*
X45467335Y-33882687D01*
X45429787Y-33861008D01*
X45366139Y-33843954D01*
X45302492Y-33826900D01*
X45170708Y-33826900D01*
X45043412Y-33861008D01*
X44929286Y-33926900D01*
X44929283Y-33926902D01*
X44865605Y-33990581D01*
X44804282Y-34024066D01*
X44777924Y-34026900D01*
X42762933Y-34026900D01*
X42695894Y-34007215D01*
X42675252Y-33990581D01*
X42486019Y-33801348D01*
X42452534Y-33740025D01*
X42449700Y-33713667D01*
X42449700Y-33623610D01*
X42449700Y-33623608D01*
X42415592Y-33496314D01*
X42349700Y-33382186D01*
X42256514Y-33289000D01*
X42199450Y-33256054D01*
X42142387Y-33223108D01*
X42078739Y-33206054D01*
X42015092Y-33189000D01*
X41883308Y-33189000D01*
X41756012Y-33223108D01*
X41641886Y-33289000D01*
X41641883Y-33289002D01*
X41548702Y-33382183D01*
X41548700Y-33382186D01*
X41482808Y-33496312D01*
X41455633Y-33597733D01*
X41448700Y-33623608D01*
X41448700Y-33755392D01*
X41457306Y-33787510D01*
X41482808Y-33882687D01*
X41508330Y-33926892D01*
X41548700Y-33996814D01*
X41641886Y-34090000D01*
X41756014Y-34155892D01*
X41883308Y-34190000D01*
X41883310Y-34190000D01*
X41973367Y-34190000D01*
X42040406Y-34209685D01*
X42061048Y-34226319D01*
X42289348Y-34454619D01*
X42322833Y-34515942D01*
X42317849Y-34585634D01*
X42275977Y-34641567D01*
X42210513Y-34665984D01*
X42201667Y-34666300D01*
X17279233Y-34666300D01*
X17212194Y-34646615D01*
X17191552Y-34629981D01*
X16526819Y-33965248D01*
X16493334Y-33903925D01*
X16490500Y-33877567D01*
X16490500Y-33787510D01*
X16490500Y-33787508D01*
X16456392Y-33660214D01*
X16390500Y-33546086D01*
X16297314Y-33452900D01*
X16240250Y-33419954D01*
X16183187Y-33387008D01*
X16119539Y-33369954D01*
X16055892Y-33352900D01*
X15924108Y-33352900D01*
X15796812Y-33387008D01*
X15682686Y-33452900D01*
X15682683Y-33452902D01*
X15589502Y-33546083D01*
X15589500Y-33546086D01*
X15523608Y-33660212D01*
X15509285Y-33713667D01*
X15489500Y-33787508D01*
X15489500Y-33919292D01*
X15492159Y-33929214D01*
X15523608Y-34046587D01*
X15548673Y-34090000D01*
X15589500Y-34160714D01*
X15682686Y-34253900D01*
X15796814Y-34319792D01*
X15924108Y-34353900D01*
X15924110Y-34353900D01*
X16014167Y-34353900D01*
X16081206Y-34373585D01*
X16101848Y-34390219D01*
X16862940Y-35151311D01*
X16918889Y-35207260D01*
X16918891Y-35207261D01*
X16918895Y-35207264D01*
X16987404Y-35246817D01*
X16987411Y-35246821D01*
X17063838Y-35267300D01*
X17142962Y-35267300D01*
X47061067Y-35267300D01*
X47128106Y-35286985D01*
X47148748Y-35303619D01*
X47377148Y-35532019D01*
X47410633Y-35593342D01*
X47405649Y-35663034D01*
X47363777Y-35718967D01*
X47298313Y-35743384D01*
X47289467Y-35743700D01*
X42053276Y-35743700D01*
X41986237Y-35724015D01*
X41965595Y-35707381D01*
X41901916Y-35643702D01*
X41901914Y-35643700D01*
X41814692Y-35593342D01*
X41787787Y-35577808D01*
X41724139Y-35560754D01*
X41660492Y-35543700D01*
X41528708Y-35543700D01*
X41401412Y-35577808D01*
X41287286Y-35643700D01*
X41287283Y-35643702D01*
X41223605Y-35707381D01*
X41162282Y-35740866D01*
X41135924Y-35743700D01*
X13694638Y-35743700D01*
X13618210Y-35764178D01*
X13549689Y-35803740D01*
X13549686Y-35803742D01*
X13085747Y-36267681D01*
X13024424Y-36301166D01*
X12998066Y-36304000D01*
X12908008Y-36304000D01*
X12780712Y-36338108D01*
X12666586Y-36404000D01*
X12666583Y-36404002D01*
X12573402Y-36497183D01*
X12573400Y-36497186D01*
X12507508Y-36611312D01*
X12480183Y-36713293D01*
X12473400Y-36738608D01*
X400000Y-36738608D01*
X400000Y-33787508D01*
X6486300Y-33787508D01*
X6486300Y-33919292D01*
X6488959Y-33929214D01*
X6520408Y-34046587D01*
X6545473Y-34090000D01*
X6586300Y-34160714D01*
X6679486Y-34253900D01*
X6793614Y-34319792D01*
X6920908Y-34353900D01*
X6920910Y-34353900D01*
X7052690Y-34353900D01*
X7052692Y-34353900D01*
X7179986Y-34319792D01*
X7294114Y-34253900D01*
X7387300Y-34160714D01*
X7453192Y-34046586D01*
X7487300Y-33919292D01*
X7487300Y-33829232D01*
X7506985Y-33762193D01*
X7523619Y-33741551D01*
X8338662Y-32926508D01*
X43594300Y-32926508D01*
X43594300Y-33058291D01*
X43628408Y-33185587D01*
X43630379Y-33189000D01*
X43694300Y-33299714D01*
X43787486Y-33392900D01*
X43901614Y-33458792D01*
X44028908Y-33492900D01*
X44028910Y-33492900D01*
X44160690Y-33492900D01*
X44160692Y-33492900D01*
X44287986Y-33458792D01*
X44402114Y-33392900D01*
X44465795Y-33329219D01*
X44527118Y-33295734D01*
X44553476Y-33292900D01*
X47313567Y-33292900D01*
X47380606Y-33312585D01*
X47401248Y-33329219D01*
X47582081Y-33510052D01*
X47615566Y-33571375D01*
X47618400Y-33597733D01*
X47618400Y-33687791D01*
X47652508Y-33815087D01*
X47660675Y-33829232D01*
X47718400Y-33929214D01*
X47811586Y-34022400D01*
X47925714Y-34088292D01*
X48053008Y-34122400D01*
X48053010Y-34122400D01*
X48184790Y-34122400D01*
X48184792Y-34122400D01*
X48312086Y-34088292D01*
X48426214Y-34022400D01*
X48519400Y-33929214D01*
X48585292Y-33815086D01*
X48619400Y-33687792D01*
X48619400Y-33556008D01*
X48585292Y-33428714D01*
X48519400Y-33314586D01*
X48426214Y-33221400D01*
X48364184Y-33185587D01*
X48312087Y-33155508D01*
X48248439Y-33138454D01*
X48184792Y-33121400D01*
X48094733Y-33121400D01*
X48027694Y-33101715D01*
X48007052Y-33085081D01*
X47673912Y-32751941D01*
X47673904Y-32751935D01*
X47605395Y-32712382D01*
X47605390Y-32712379D01*
X47579913Y-32705552D01*
X47528962Y-32691900D01*
X47528960Y-32691900D01*
X44553476Y-32691900D01*
X44486437Y-32672215D01*
X44465795Y-32655581D01*
X44402116Y-32591902D01*
X44402114Y-32591900D01*
X44345050Y-32558954D01*
X44287987Y-32526008D01*
X44224339Y-32508954D01*
X44160692Y-32491900D01*
X44028908Y-32491900D01*
X43901612Y-32526008D01*
X43787486Y-32591900D01*
X43787483Y-32591902D01*
X43694302Y-32685083D01*
X43694300Y-32685086D01*
X43628408Y-32799212D01*
X43594300Y-32926508D01*
X8338662Y-32926508D01*
X8434470Y-32830700D01*
X10027652Y-31237519D01*
X10088975Y-31204034D01*
X10115333Y-31201200D01*
X27041724Y-31201200D01*
X27108763Y-31220885D01*
X27129405Y-31237519D01*
X27193086Y-31301200D01*
X27307214Y-31367092D01*
X27434508Y-31401200D01*
X27434510Y-31401200D01*
X27566290Y-31401200D01*
X27566292Y-31401200D01*
X27693586Y-31367092D01*
X27807714Y-31301200D01*
X27900900Y-31208014D01*
X27966792Y-31093886D01*
X28000900Y-30966592D01*
X28000900Y-30834808D01*
X27966792Y-30707514D01*
X27900900Y-30593386D01*
X27807714Y-30500200D01*
X27750650Y-30467254D01*
X27693587Y-30434308D01*
X27607763Y-30411312D01*
X27566292Y-30400200D01*
X27434508Y-30400200D01*
X27307212Y-30434308D01*
X27193086Y-30500200D01*
X27193083Y-30500202D01*
X27129405Y-30563881D01*
X27068082Y-30597366D01*
X27041724Y-30600200D01*
X9899938Y-30600200D01*
X9832539Y-30618259D01*
X9823507Y-30620680D01*
X9771611Y-30650643D01*
X9754992Y-30660237D01*
X9754987Y-30660241D01*
X7098647Y-33316581D01*
X7037324Y-33350066D01*
X7010966Y-33352900D01*
X6920908Y-33352900D01*
X6793612Y-33387008D01*
X6679486Y-33452900D01*
X6679483Y-33452902D01*
X6586302Y-33546083D01*
X6586300Y-33546086D01*
X6520408Y-33660212D01*
X6506085Y-33713667D01*
X6486300Y-33787508D01*
X400000Y-33787508D01*
X400000Y-30148435D01*
X709500Y-30148435D01*
X709500Y-30351564D01*
X741277Y-30552194D01*
X741277Y-30552197D01*
X804045Y-30745377D01*
X804047Y-30745380D01*
X888849Y-30911813D01*
X896268Y-30926372D01*
X1015656Y-31090697D01*
X1015660Y-31090702D01*
X1159297Y-31234339D01*
X1159302Y-31234343D01*
X1251324Y-31301200D01*
X1323631Y-31353734D01*
X1504620Y-31445953D01*
X1504622Y-31445954D01*
X1697803Y-31508722D01*
X1697804Y-31508722D01*
X1697807Y-31508723D01*
X1898435Y-31540500D01*
X1898436Y-31540500D01*
X2101564Y-31540500D01*
X2101565Y-31540500D01*
X2302193Y-31508723D01*
X2302196Y-31508722D01*
X2302197Y-31508722D01*
X2495377Y-31445954D01*
X2495377Y-31445953D01*
X2495380Y-31445953D01*
X2676369Y-31353734D01*
X2840704Y-31234338D01*
X2984338Y-31090704D01*
X3103734Y-30926369D01*
X3195953Y-30745380D01*
X3223618Y-30660237D01*
X3258722Y-30552197D01*
X3258722Y-30552196D01*
X3258723Y-30552193D01*
X3290500Y-30351565D01*
X3290500Y-30148435D01*
X3258723Y-29947807D01*
X3258722Y-29947803D01*
X3258722Y-29947802D01*
X3195954Y-29754622D01*
X3194968Y-29752686D01*
X3103734Y-29573631D01*
X3045594Y-29493608D01*
X2984343Y-29409302D01*
X2984339Y-29409297D01*
X2840702Y-29265660D01*
X2840697Y-29265656D01*
X2676372Y-29146268D01*
X2676371Y-29146267D01*
X2676369Y-29146266D01*
X2572041Y-29093108D01*
X2495377Y-29054045D01*
X2302196Y-28991277D01*
X2151722Y-28967444D01*
X2101565Y-28959500D01*
X1898435Y-28959500D01*
X1831559Y-28970092D01*
X1697805Y-28991277D01*
X1697802Y-28991277D01*
X1504622Y-29054045D01*
X1323627Y-29146268D01*
X1159302Y-29265656D01*
X1159297Y-29265660D01*
X1015660Y-29409297D01*
X1015656Y-29409302D01*
X896268Y-29573627D01*
X804045Y-29754622D01*
X741277Y-29947802D01*
X741277Y-29947805D01*
X709500Y-30148435D01*
X400000Y-30148435D01*
X400000Y-24929408D01*
X9568100Y-24929408D01*
X9568100Y-25061192D01*
X9585154Y-25124839D01*
X9602208Y-25188487D01*
X9635154Y-25245550D01*
X9668100Y-25302614D01*
X9761286Y-25395800D01*
X9875414Y-25461692D01*
X10002708Y-25495800D01*
X10002710Y-25495800D01*
X10134490Y-25495800D01*
X10134492Y-25495800D01*
X10261786Y-25461692D01*
X10358398Y-25405912D01*
X10420398Y-25389300D01*
X26962251Y-25389300D01*
X27029290Y-25408985D01*
X27075045Y-25461789D01*
X27084989Y-25530947D01*
X27069638Y-25575300D01*
X27034009Y-25637010D01*
X27034009Y-25637011D01*
X26999900Y-25764308D01*
X26999900Y-25896091D01*
X27034008Y-26023387D01*
X27061302Y-26070660D01*
X27099900Y-26137514D01*
X27193086Y-26230700D01*
X27307214Y-26296592D01*
X27434508Y-26330700D01*
X27434510Y-26330700D01*
X27566290Y-26330700D01*
X27566292Y-26330700D01*
X27693586Y-26296592D01*
X27807714Y-26230700D01*
X27871395Y-26167019D01*
X27932718Y-26133534D01*
X27959076Y-26130700D01*
X29709367Y-26130700D01*
X29776406Y-26150385D01*
X29797048Y-26167019D01*
X34122681Y-30492652D01*
X34156166Y-30553975D01*
X34159000Y-30580333D01*
X34159000Y-30670391D01*
X34193108Y-30797687D01*
X34226054Y-30854750D01*
X34259000Y-30911814D01*
X34352186Y-31005000D01*
X34466314Y-31070892D01*
X34593608Y-31105000D01*
X34593610Y-31105000D01*
X34725390Y-31105000D01*
X34725392Y-31105000D01*
X34852686Y-31070892D01*
X34966814Y-31005000D01*
X35060000Y-30911814D01*
X35125892Y-30797686D01*
X35160000Y-30670392D01*
X35160000Y-30538608D01*
X35125892Y-30411314D01*
X35060000Y-30297186D01*
X34966814Y-30204000D01*
X34909750Y-30171054D01*
X34870574Y-30148435D01*
X51609500Y-30148435D01*
X51609500Y-30351564D01*
X51641277Y-30552194D01*
X51641277Y-30552197D01*
X51704045Y-30745377D01*
X51704047Y-30745380D01*
X51788849Y-30911813D01*
X51796268Y-30926372D01*
X51915656Y-31090697D01*
X51915660Y-31090702D01*
X52059297Y-31234339D01*
X52059302Y-31234343D01*
X52151324Y-31301200D01*
X52223631Y-31353734D01*
X52404620Y-31445953D01*
X52404622Y-31445954D01*
X52597803Y-31508722D01*
X52597804Y-31508722D01*
X52597807Y-31508723D01*
X52798435Y-31540500D01*
X52798436Y-31540500D01*
X53001564Y-31540500D01*
X53001565Y-31540500D01*
X53202193Y-31508723D01*
X53202196Y-31508722D01*
X53202197Y-31508722D01*
X53395377Y-31445954D01*
X53395377Y-31445953D01*
X53395380Y-31445953D01*
X53576369Y-31353734D01*
X53740704Y-31234338D01*
X53884338Y-31090704D01*
X54003734Y-30926369D01*
X54095953Y-30745380D01*
X54123618Y-30660237D01*
X54158722Y-30552197D01*
X54158722Y-30552196D01*
X54158723Y-30552193D01*
X54190500Y-30351565D01*
X54190500Y-30148435D01*
X54158723Y-29947807D01*
X54158722Y-29947803D01*
X54158722Y-29947802D01*
X54095954Y-29754622D01*
X54094968Y-29752686D01*
X54003734Y-29573631D01*
X53945594Y-29493608D01*
X53884343Y-29409302D01*
X53884339Y-29409297D01*
X53740702Y-29265660D01*
X53740697Y-29265656D01*
X53576372Y-29146268D01*
X53576371Y-29146267D01*
X53576369Y-29146266D01*
X53472041Y-29093108D01*
X53395377Y-29054045D01*
X53202196Y-28991277D01*
X53051722Y-28967444D01*
X53001565Y-28959500D01*
X52798435Y-28959500D01*
X52731559Y-28970092D01*
X52597805Y-28991277D01*
X52597802Y-28991277D01*
X52404622Y-29054045D01*
X52223627Y-29146268D01*
X52059302Y-29265656D01*
X52059297Y-29265660D01*
X51915660Y-29409297D01*
X51915656Y-29409302D01*
X51796268Y-29573627D01*
X51704045Y-29754622D01*
X51641277Y-29947802D01*
X51641277Y-29947805D01*
X51609500Y-30148435D01*
X34870574Y-30148435D01*
X34852687Y-30138108D01*
X34789039Y-30121054D01*
X34725392Y-30104000D01*
X34635333Y-30104000D01*
X34568294Y-30084315D01*
X34547652Y-30067681D01*
X31220553Y-26740581D01*
X31209940Y-26721144D01*
X31195440Y-26704411D01*
X31193523Y-26691079D01*
X31187068Y-26679258D01*
X31188647Y-26657171D01*
X31185496Y-26635253D01*
X31191091Y-26623001D01*
X31192052Y-26609566D01*
X31205322Y-26591839D01*
X31214521Y-26571697D01*
X31225852Y-26564414D01*
X31233924Y-26553633D01*
X31254669Y-26545895D01*
X31273299Y-26533923D01*
X31295217Y-26530771D01*
X31299388Y-26529216D01*
X31308234Y-26528900D01*
X31366567Y-26528900D01*
X31433606Y-26548585D01*
X31454248Y-26565219D01*
X34688989Y-29799960D01*
X34757512Y-29839522D01*
X34833938Y-29860000D01*
X34913062Y-29860000D01*
X35757624Y-29860000D01*
X35824663Y-29879685D01*
X35845305Y-29896319D01*
X35908986Y-29960000D01*
X36023114Y-30025892D01*
X36150408Y-30060000D01*
X36150410Y-30060000D01*
X36282190Y-30060000D01*
X36282192Y-30060000D01*
X36409486Y-30025892D01*
X36523614Y-29960000D01*
X36616800Y-29866814D01*
X36682692Y-29752686D01*
X36716800Y-29625392D01*
X36716800Y-29493608D01*
X36682692Y-29366314D01*
X36616800Y-29252186D01*
X36523614Y-29159000D01*
X36466550Y-29126054D01*
X36409487Y-29093108D01*
X36345839Y-29076054D01*
X36282192Y-29059000D01*
X36150408Y-29059000D01*
X36023112Y-29093108D01*
X35908986Y-29159000D01*
X35908983Y-29159002D01*
X35845305Y-29222681D01*
X35783982Y-29256166D01*
X35757624Y-29259000D01*
X35049333Y-29259000D01*
X34982294Y-29239315D01*
X34961652Y-29222681D01*
X31879219Y-26140248D01*
X31845734Y-26078925D01*
X31842900Y-26052567D01*
X31842900Y-25962510D01*
X31842900Y-25962508D01*
X31808792Y-25835214D01*
X31742900Y-25721086D01*
X31649714Y-25627900D01*
X31637219Y-25620686D01*
X31589005Y-25570119D01*
X31575783Y-25501512D01*
X31601751Y-25436648D01*
X31658665Y-25396120D01*
X31699221Y-25389300D01*
X32103651Y-25389300D01*
X32170690Y-25408985D01*
X32216445Y-25461789D01*
X32226389Y-25530947D01*
X32211038Y-25575300D01*
X32175409Y-25637010D01*
X32175409Y-25637011D01*
X32141300Y-25764308D01*
X32141300Y-25896091D01*
X32175408Y-26023387D01*
X32202702Y-26070660D01*
X32241300Y-26137514D01*
X32334486Y-26230700D01*
X32448614Y-26296592D01*
X32575908Y-26330700D01*
X32575910Y-26330700D01*
X32707690Y-26330700D01*
X32707692Y-26330700D01*
X32834986Y-26296592D01*
X32949114Y-26230700D01*
X33012795Y-26167019D01*
X33074118Y-26133534D01*
X33100476Y-26130700D01*
X38200260Y-26130700D01*
X38200262Y-26130700D01*
X38276689Y-26110221D01*
X38345211Y-26070660D01*
X38401160Y-26014711D01*
X38883751Y-25532118D01*
X38945074Y-25498634D01*
X38971432Y-25495800D01*
X39061490Y-25495800D01*
X39061492Y-25495800D01*
X39188786Y-25461692D01*
X39302914Y-25395800D01*
X39396100Y-25302614D01*
X39461992Y-25188486D01*
X39496100Y-25061192D01*
X39496100Y-24929408D01*
X39461992Y-24802114D01*
X39396100Y-24687986D01*
X39302914Y-24594800D01*
X39245850Y-24561854D01*
X39188787Y-24528908D01*
X39125139Y-24511854D01*
X39061492Y-24494800D01*
X38929708Y-24494800D01*
X38802412Y-24528908D01*
X38688286Y-24594800D01*
X38688283Y-24594802D01*
X38595102Y-24687983D01*
X38595100Y-24687986D01*
X38529208Y-24802112D01*
X38495100Y-24929408D01*
X38495100Y-25019466D01*
X38475415Y-25086505D01*
X38458781Y-25107147D01*
X38072548Y-25493381D01*
X38011225Y-25526866D01*
X37984867Y-25529700D01*
X34263349Y-25529700D01*
X34196310Y-25510015D01*
X34150555Y-25457211D01*
X34140611Y-25388053D01*
X34155962Y-25343700D01*
X34191590Y-25281989D01*
X34191592Y-25281986D01*
X34225700Y-25154692D01*
X34225700Y-25022908D01*
X34191592Y-24895614D01*
X34125700Y-24781486D01*
X34032514Y-24688300D01*
X33975450Y-24655354D01*
X33918387Y-24622408D01*
X33854739Y-24605354D01*
X33791092Y-24588300D01*
X33659308Y-24588300D01*
X33532012Y-24622408D01*
X33417886Y-24688300D01*
X33417883Y-24688302D01*
X33354205Y-24751981D01*
X33292882Y-24785466D01*
X33266524Y-24788300D01*
X10598608Y-24788300D01*
X10531569Y-24768615D01*
X10491221Y-24726300D01*
X10469102Y-24687989D01*
X10469098Y-24687984D01*
X10375916Y-24594802D01*
X10375914Y-24594800D01*
X10318850Y-24561854D01*
X10261787Y-24528908D01*
X10198139Y-24511854D01*
X10134492Y-24494800D01*
X10002708Y-24494800D01*
X9875412Y-24528908D01*
X9761286Y-24594800D01*
X9761283Y-24594802D01*
X9668102Y-24687983D01*
X9668100Y-24687986D01*
X9602208Y-24802112D01*
X9577155Y-24895614D01*
X9568100Y-24929408D01*
X400000Y-24929408D01*
X400000Y-19867608D01*
X8732000Y-19867608D01*
X8732000Y-19999391D01*
X8766108Y-20126687D01*
X8799054Y-20183750D01*
X8832000Y-20240814D01*
X8925186Y-20334000D01*
X9039314Y-20399892D01*
X9166608Y-20434000D01*
X9166610Y-20434000D01*
X9298390Y-20434000D01*
X9298392Y-20434000D01*
X9425686Y-20399892D01*
X9539814Y-20334000D01*
X9633000Y-20240814D01*
X9698892Y-20126686D01*
X9733000Y-19999392D01*
X9733000Y-19867608D01*
X9698892Y-19740314D01*
X9633000Y-19626186D01*
X9569318Y-19562504D01*
X9535834Y-19501180D01*
X9533000Y-19474823D01*
X9533000Y-19024008D01*
X11697100Y-19024008D01*
X11697100Y-19155791D01*
X11731208Y-19283087D01*
X11764154Y-19340150D01*
X11797100Y-19397214D01*
X11890286Y-19490400D01*
X12004414Y-19556292D01*
X12131708Y-19590400D01*
X12131710Y-19590400D01*
X12263490Y-19590400D01*
X12263492Y-19590400D01*
X12390786Y-19556292D01*
X12504914Y-19490400D01*
X12568595Y-19426719D01*
X12629918Y-19393234D01*
X12656276Y-19390400D01*
X14514167Y-19390400D01*
X14581206Y-19410085D01*
X14601848Y-19426719D01*
X16118681Y-20943552D01*
X16152166Y-21004875D01*
X16155000Y-21031233D01*
X16155000Y-21121291D01*
X16189108Y-21248587D01*
X16222054Y-21305650D01*
X16255000Y-21362714D01*
X16348186Y-21455900D01*
X16462314Y-21521792D01*
X16589608Y-21555900D01*
X16589610Y-21555900D01*
X16721390Y-21555900D01*
X16721392Y-21555900D01*
X16848686Y-21521792D01*
X16962814Y-21455900D01*
X17056000Y-21362714D01*
X17121892Y-21248586D01*
X17156000Y-21121292D01*
X17156000Y-20989508D01*
X17121892Y-20862214D01*
X17056000Y-20748086D01*
X16962814Y-20654900D01*
X16905750Y-20621954D01*
X16848687Y-20589008D01*
X16785039Y-20571954D01*
X16721392Y-20554900D01*
X16631333Y-20554900D01*
X16564294Y-20535215D01*
X16543652Y-20518581D01*
X14874510Y-18849439D01*
X14853553Y-18837340D01*
X14832595Y-18825240D01*
X14826971Y-18821993D01*
X14805990Y-18809879D01*
X14805991Y-18809879D01*
X14767775Y-18799639D01*
X14729562Y-18789400D01*
X14729560Y-18789400D01*
X12656276Y-18789400D01*
X12589237Y-18769715D01*
X12568595Y-18753081D01*
X12504916Y-18689402D01*
X12504914Y-18689400D01*
X12447850Y-18656454D01*
X12390787Y-18623508D01*
X12327139Y-18606454D01*
X12263492Y-18589400D01*
X12131708Y-18589400D01*
X12004412Y-18623508D01*
X11890286Y-18689400D01*
X11890283Y-18689402D01*
X11797102Y-18782583D01*
X11797100Y-18782586D01*
X11731208Y-18896712D01*
X11697100Y-19024008D01*
X9533000Y-19024008D01*
X9533000Y-16250832D01*
X9552685Y-16183793D01*
X9569314Y-16163156D01*
X12337340Y-13395129D01*
X12398661Y-13361646D01*
X12468353Y-13366630D01*
X12524286Y-13408502D01*
X12532406Y-13420811D01*
X12573400Y-13491814D01*
X12666586Y-13585000D01*
X12780714Y-13650892D01*
X12908008Y-13685000D01*
X12908010Y-13685000D01*
X12998067Y-13685000D01*
X13065106Y-13704685D01*
X13085748Y-13721319D01*
X14633319Y-15268890D01*
X14641899Y-15284603D01*
X14654545Y-15297281D01*
X14658297Y-15314633D01*
X14666804Y-15330213D01*
X14665526Y-15348070D01*
X14669311Y-15365572D01*
X14663086Y-15382197D01*
X14661820Y-15399905D01*
X14651089Y-15414238D01*
X14644812Y-15431006D01*
X14626159Y-15447540D01*
X14619948Y-15455838D01*
X14619824Y-15455931D01*
X14613964Y-15460306D01*
X14509186Y-15520800D01*
X14439177Y-15590808D01*
X14432010Y-15596160D01*
X14407308Y-15605338D01*
X14384182Y-15617966D01*
X14368898Y-15619609D01*
X14366515Y-15620495D01*
X14364586Y-15620072D01*
X14357824Y-15620800D01*
X13128633Y-15620800D01*
X13061594Y-15601115D01*
X13040952Y-15584481D01*
X12817319Y-15360848D01*
X12783834Y-15299525D01*
X12781000Y-15273167D01*
X12781000Y-15183110D01*
X12781000Y-15183108D01*
X12746892Y-15055814D01*
X12681000Y-14941686D01*
X12587814Y-14848500D01*
X12530750Y-14815554D01*
X12473687Y-14782608D01*
X12410039Y-14765554D01*
X12346392Y-14748500D01*
X12214608Y-14748500D01*
X12087312Y-14782608D01*
X11973186Y-14848500D01*
X11973183Y-14848502D01*
X11880002Y-14941683D01*
X11880000Y-14941686D01*
X11814108Y-15055812D01*
X11792301Y-15137200D01*
X11780000Y-15183108D01*
X11780000Y-15314892D01*
X11784105Y-15330213D01*
X11814108Y-15442187D01*
X11847054Y-15499250D01*
X11880000Y-15556314D01*
X11880002Y-15556316D01*
X11887655Y-15563969D01*
X11921140Y-15625292D01*
X11916156Y-15694984D01*
X11887655Y-15739331D01*
X11797102Y-15829883D01*
X11797100Y-15829886D01*
X11731208Y-15944012D01*
X11710685Y-16020607D01*
X11697100Y-16071308D01*
X11697100Y-16203092D01*
X11714154Y-16266739D01*
X11731208Y-16330387D01*
X11764154Y-16387450D01*
X11797100Y-16444514D01*
X11890286Y-16537700D01*
X12004414Y-16603592D01*
X12131708Y-16637700D01*
X12131710Y-16637700D01*
X12221767Y-16637700D01*
X12288806Y-16657385D01*
X12309448Y-16674019D01*
X12445540Y-16810111D01*
X12501489Y-16866060D01*
X12501491Y-16866061D01*
X12501495Y-16866064D01*
X12538624Y-16887500D01*
X12570011Y-16905621D01*
X12646438Y-16926100D01*
X15420524Y-16926100D01*
X15487563Y-16945785D01*
X15508205Y-16962419D01*
X15571886Y-17026100D01*
X15686014Y-17091992D01*
X15813308Y-17126100D01*
X15813310Y-17126100D01*
X15903367Y-17126100D01*
X15970406Y-17145785D01*
X15991048Y-17162419D01*
X16113440Y-17284811D01*
X16169389Y-17340760D01*
X16169391Y-17340761D01*
X16169395Y-17340764D01*
X16237904Y-17380317D01*
X16237911Y-17380321D01*
X16314338Y-17400800D01*
X42012924Y-17400800D01*
X42079963Y-17420485D01*
X42100605Y-17437119D01*
X42164286Y-17500800D01*
X42278414Y-17566692D01*
X42405708Y-17600800D01*
X42405710Y-17600800D01*
X42537490Y-17600800D01*
X42537492Y-17600800D01*
X42664786Y-17566692D01*
X42778914Y-17500800D01*
X42872100Y-17407614D01*
X42937992Y-17293486D01*
X42972100Y-17166192D01*
X42972100Y-17034408D01*
X42947766Y-16943591D01*
X42949429Y-16873743D01*
X42988592Y-16815881D01*
X43052820Y-16788377D01*
X43067541Y-16787500D01*
X45783724Y-16787500D01*
X45850763Y-16807185D01*
X45871405Y-16823819D01*
X45935086Y-16887500D01*
X46049214Y-16953392D01*
X46176508Y-16987500D01*
X46176510Y-16987500D01*
X46308289Y-16987500D01*
X46308292Y-16987500D01*
X46406109Y-16961290D01*
X46475956Y-16962953D01*
X46533819Y-17002115D01*
X46561323Y-17066344D01*
X46562200Y-17081065D01*
X46562200Y-18889866D01*
X46542515Y-18956905D01*
X46525881Y-18977547D01*
X42930747Y-22572681D01*
X42869424Y-22606166D01*
X42843066Y-22609000D01*
X42753008Y-22609000D01*
X42625712Y-22643108D01*
X42511586Y-22709000D01*
X42511583Y-22709002D01*
X42447905Y-22772681D01*
X42386582Y-22806166D01*
X42360224Y-22809000D01*
X13989633Y-22809000D01*
X13922594Y-22789315D01*
X13901952Y-22772681D01*
X12885619Y-21756348D01*
X12852134Y-21695025D01*
X12849300Y-21668667D01*
X12849300Y-21578610D01*
X12849300Y-21578608D01*
X12815192Y-21451314D01*
X12749300Y-21337186D01*
X12656114Y-21244000D01*
X12599050Y-21211054D01*
X12541987Y-21178108D01*
X12478339Y-21161054D01*
X12414692Y-21144000D01*
X12282908Y-21144000D01*
X12155612Y-21178108D01*
X12041486Y-21244000D01*
X12041483Y-21244002D01*
X11948302Y-21337183D01*
X11948300Y-21337186D01*
X11882408Y-21451312D01*
X11848300Y-21578608D01*
X11848300Y-21710392D01*
X11860614Y-21756348D01*
X11882408Y-21837687D01*
X11915354Y-21894750D01*
X11948300Y-21951814D01*
X12041486Y-22045000D01*
X12155614Y-22110892D01*
X12282908Y-22145000D01*
X12282910Y-22145000D01*
X12372967Y-22145000D01*
X12440006Y-22164685D01*
X12460648Y-22181319D01*
X13573340Y-23294011D01*
X13629289Y-23349960D01*
X13629291Y-23349961D01*
X13629295Y-23349964D01*
X13697804Y-23389517D01*
X13697811Y-23389521D01*
X13774238Y-23410000D01*
X42360224Y-23410000D01*
X42427263Y-23429685D01*
X42447905Y-23446319D01*
X42511586Y-23510000D01*
X42625714Y-23575892D01*
X42753008Y-23610000D01*
X42753010Y-23610000D01*
X42884790Y-23610000D01*
X42884792Y-23610000D01*
X43012086Y-23575892D01*
X43126214Y-23510000D01*
X43219400Y-23416814D01*
X43285292Y-23302686D01*
X43319400Y-23175392D01*
X43319400Y-23085332D01*
X43339085Y-23018293D01*
X43355719Y-22997651D01*
X45209370Y-21144000D01*
X47103160Y-19250211D01*
X47128749Y-19205889D01*
X47142721Y-19181689D01*
X47163200Y-19105262D01*
X47163200Y-16120338D01*
X47142721Y-16043911D01*
X47129267Y-16020608D01*
X47103164Y-15975395D01*
X47103158Y-15975387D01*
X44865912Y-13738141D01*
X44865904Y-13738135D01*
X44797395Y-13698582D01*
X44797390Y-13698579D01*
X44771913Y-13691752D01*
X44720962Y-13678100D01*
X44720960Y-13678100D01*
X43193276Y-13678100D01*
X43126237Y-13658415D01*
X43105595Y-13641781D01*
X43041916Y-13578102D01*
X43041914Y-13578100D01*
X42984850Y-13545154D01*
X42927787Y-13512208D01*
X42851670Y-13491813D01*
X42800492Y-13478100D01*
X42668708Y-13478100D01*
X42541412Y-13512208D01*
X42427286Y-13578100D01*
X42427283Y-13578102D01*
X42334102Y-13671283D01*
X42334100Y-13671286D01*
X42268208Y-13785412D01*
X42234100Y-13912708D01*
X42234100Y-14044491D01*
X42268208Y-14171787D01*
X42301154Y-14228850D01*
X42334100Y-14285914D01*
X42427286Y-14379100D01*
X42541414Y-14444992D01*
X42668708Y-14479100D01*
X42668710Y-14479100D01*
X42800490Y-14479100D01*
X42800492Y-14479100D01*
X42927786Y-14444992D01*
X43041914Y-14379100D01*
X43105595Y-14315419D01*
X43166918Y-14281934D01*
X43193276Y-14279100D01*
X44505567Y-14279100D01*
X44572606Y-14298785D01*
X44593248Y-14315419D01*
X46094217Y-15816388D01*
X46127702Y-15877711D01*
X46122718Y-15947403D01*
X46080846Y-16003336D01*
X46053987Y-16018631D01*
X46049214Y-16020607D01*
X45935086Y-16086500D01*
X45935083Y-16086502D01*
X45871405Y-16150181D01*
X45810082Y-16183666D01*
X45783724Y-16186500D01*
X42652700Y-16186500D01*
X42585661Y-16166815D01*
X42539906Y-16114011D01*
X42532021Y-16077770D01*
X42529761Y-16078068D01*
X42528700Y-16070015D01*
X42528700Y-16070008D01*
X42494592Y-15942714D01*
X42428700Y-15828586D01*
X42368518Y-15768404D01*
X42335034Y-15707080D01*
X42332200Y-15680723D01*
X42332200Y-15248940D01*
X42332200Y-15248938D01*
X42327229Y-15230386D01*
X42311722Y-15172512D01*
X42272160Y-15103989D01*
X39456411Y-12288240D01*
X39456409Y-12288239D01*
X39456404Y-12288235D01*
X39387895Y-12248682D01*
X39387890Y-12248679D01*
X39362413Y-12241852D01*
X39311462Y-12228200D01*
X12818362Y-12228200D01*
X12739238Y-12228200D01*
X12662810Y-12248678D01*
X12594289Y-12288240D01*
X12594286Y-12288242D01*
X8992041Y-15890487D01*
X8992035Y-15890495D01*
X8952482Y-15959004D01*
X8952479Y-15959009D01*
X8932000Y-16035439D01*
X8932000Y-19474823D01*
X8912315Y-19541862D01*
X8895682Y-19562504D01*
X8832000Y-19626186D01*
X8766108Y-19740312D01*
X8732000Y-19867608D01*
X400000Y-19867608D01*
X400000Y-11407408D01*
X22407000Y-11407408D01*
X22407000Y-11539191D01*
X22441108Y-11666487D01*
X22474054Y-11723550D01*
X22507000Y-11780614D01*
X22600186Y-11873800D01*
X22714314Y-11939692D01*
X22841608Y-11973800D01*
X22841610Y-11973800D01*
X22973390Y-11973800D01*
X22973392Y-11973800D01*
X23100686Y-11939692D01*
X23214814Y-11873800D01*
X23308000Y-11780614D01*
X23373892Y-11666486D01*
X23408000Y-11539192D01*
X23408000Y-11449133D01*
X23416645Y-11419689D01*
X23423174Y-11389694D01*
X23426923Y-11384685D01*
X23427685Y-11382094D01*
X23444328Y-11361442D01*
X23448962Y-11356809D01*
X23510289Y-11323331D01*
X23536634Y-11320500D01*
X24944824Y-11320500D01*
X25011863Y-11340185D01*
X25032505Y-11356819D01*
X25096186Y-11420500D01*
X25210314Y-11486392D01*
X25337608Y-11520500D01*
X25337610Y-11520500D01*
X25469390Y-11520500D01*
X25469392Y-11520500D01*
X25596686Y-11486392D01*
X25710814Y-11420500D01*
X25804000Y-11327314D01*
X25869892Y-11213186D01*
X25904000Y-11085892D01*
X25904000Y-10954108D01*
X25869892Y-10826814D01*
X25807240Y-10718298D01*
X25790768Y-10650401D01*
X25813620Y-10584374D01*
X25868541Y-10541183D01*
X25914628Y-10532300D01*
X36620960Y-10532300D01*
X36620962Y-10532300D01*
X36697389Y-10511821D01*
X36765911Y-10472260D01*
X36821860Y-10416311D01*
X39422251Y-7815918D01*
X39483574Y-7782434D01*
X39509932Y-7779600D01*
X39599990Y-7779600D01*
X39599992Y-7779600D01*
X39727286Y-7745492D01*
X39841414Y-7679600D01*
X39934600Y-7586414D01*
X40000492Y-7472286D01*
X40034600Y-7344992D01*
X40034600Y-7213208D01*
X40000492Y-7085914D01*
X39934600Y-6971786D01*
X39841414Y-6878600D01*
X39763808Y-6833794D01*
X39727287Y-6812708D01*
X39659317Y-6794496D01*
X39599992Y-6778600D01*
X39468208Y-6778600D01*
X39340912Y-6812708D01*
X39226786Y-6878600D01*
X39226783Y-6878602D01*
X39133602Y-6971783D01*
X39133600Y-6971786D01*
X39067708Y-7085912D01*
X39033600Y-7213208D01*
X39033600Y-7303266D01*
X39013915Y-7370305D01*
X38997281Y-7390947D01*
X36493248Y-9894981D01*
X36431925Y-9928466D01*
X36405567Y-9931300D01*
X24309576Y-9931300D01*
X24242537Y-9911615D01*
X24221895Y-9894981D01*
X24158216Y-9831302D01*
X24158214Y-9831300D01*
X24101150Y-9798354D01*
X24044087Y-9765408D01*
X23980439Y-9748354D01*
X23916792Y-9731300D01*
X23785008Y-9731300D01*
X23657712Y-9765408D01*
X23543586Y-9831300D01*
X23543583Y-9831302D01*
X23450402Y-9924483D01*
X23450400Y-9924486D01*
X23384508Y-10038612D01*
X23350400Y-10165908D01*
X23350400Y-10297691D01*
X23384508Y-10424987D01*
X23410209Y-10469501D01*
X23447159Y-10533501D01*
X23463632Y-10601399D01*
X23440780Y-10667426D01*
X23385859Y-10710617D01*
X23339772Y-10719500D01*
X23321238Y-10719500D01*
X23283024Y-10729739D01*
X23244809Y-10739979D01*
X23244804Y-10739982D01*
X23176295Y-10779535D01*
X23176291Y-10779538D01*
X23176289Y-10779540D01*
X23019345Y-10936482D01*
X22958024Y-10969966D01*
X22931666Y-10972800D01*
X22841608Y-10972800D01*
X22714312Y-11006908D01*
X22600186Y-11072800D01*
X22600183Y-11072802D01*
X22507002Y-11165983D01*
X22507000Y-11165986D01*
X22441108Y-11280112D01*
X22407000Y-11407408D01*
X400000Y-11407408D01*
X400000Y-8192608D01*
X22409600Y-8192608D01*
X22409600Y-8324391D01*
X22443708Y-8451687D01*
X22476654Y-8508750D01*
X22509600Y-8565814D01*
X22602786Y-8659000D01*
X22716914Y-8724892D01*
X22844208Y-8759000D01*
X22844210Y-8759000D01*
X22975990Y-8759000D01*
X22975992Y-8759000D01*
X23103286Y-8724892D01*
X23217414Y-8659000D01*
X23281095Y-8595319D01*
X23342418Y-8561834D01*
X23368776Y-8559000D01*
X24812668Y-8559000D01*
X24879707Y-8578685D01*
X24925462Y-8631489D01*
X24935406Y-8700647D01*
X24920056Y-8744999D01*
X24907808Y-8766212D01*
X24873700Y-8893508D01*
X24873700Y-9025291D01*
X24907808Y-9152587D01*
X24935102Y-9199860D01*
X24973700Y-9266714D01*
X25066886Y-9359900D01*
X25181014Y-9425792D01*
X25308308Y-9459900D01*
X25308310Y-9459900D01*
X25440090Y-9459900D01*
X25440092Y-9459900D01*
X25567386Y-9425792D01*
X25681514Y-9359900D01*
X25745195Y-9296219D01*
X25806518Y-9262734D01*
X25832876Y-9259900D01*
X28855960Y-9259900D01*
X28855962Y-9259900D01*
X28932389Y-9239421D01*
X29000911Y-9199860D01*
X29056860Y-9143911D01*
X29608451Y-8592318D01*
X29669774Y-8558834D01*
X29696132Y-8556000D01*
X29786190Y-8556000D01*
X29786192Y-8556000D01*
X29913486Y-8521892D01*
X30027614Y-8456000D01*
X30120800Y-8362814D01*
X30186692Y-8248686D01*
X30220800Y-8121392D01*
X30220800Y-7989608D01*
X30186692Y-7862314D01*
X30184202Y-7858002D01*
X30177863Y-7847021D01*
X30120800Y-7748186D01*
X30027614Y-7655000D01*
X29970550Y-7622054D01*
X29913487Y-7589108D01*
X29849839Y-7572054D01*
X29786192Y-7555000D01*
X29654408Y-7555000D01*
X29527112Y-7589108D01*
X29412986Y-7655000D01*
X29412983Y-7655002D01*
X29319802Y-7748183D01*
X29319800Y-7748186D01*
X29253907Y-7862314D01*
X29253174Y-7865053D01*
X29251924Y-7867102D01*
X29250800Y-7869818D01*
X29250376Y-7869642D01*
X29216808Y-7924713D01*
X29153961Y-7955241D01*
X29084585Y-7946944D01*
X29030708Y-7902458D01*
X29027888Y-7897953D01*
X29027302Y-7897189D01*
X29027300Y-7897186D01*
X28934114Y-7804000D01*
X28877050Y-7771054D01*
X28819987Y-7738108D01*
X28756339Y-7721054D01*
X28692692Y-7704000D01*
X28560908Y-7704000D01*
X28433612Y-7738108D01*
X28319486Y-7804000D01*
X28319483Y-7804002D01*
X28226302Y-7897183D01*
X28221352Y-7903635D01*
X28220035Y-7902625D01*
X28176421Y-7944214D01*
X28119598Y-7958000D01*
X23368776Y-7958000D01*
X23301737Y-7938315D01*
X23281095Y-7921681D01*
X23217416Y-7858002D01*
X23217414Y-7858000D01*
X23144528Y-7815919D01*
X23103287Y-7792108D01*
X23014594Y-7768343D01*
X23014592Y-7768342D01*
X22975992Y-7758000D01*
X22844208Y-7758000D01*
X22716912Y-7792108D01*
X22602786Y-7858000D01*
X22602783Y-7858002D01*
X22509602Y-7951183D01*
X22509600Y-7951186D01*
X22443708Y-8065312D01*
X22409600Y-8192608D01*
X400000Y-8192608D01*
X400000Y-4848435D01*
X709500Y-4848435D01*
X709500Y-5051564D01*
X741277Y-5252194D01*
X741277Y-5252197D01*
X804045Y-5445377D01*
X821467Y-5479569D01*
X870704Y-5576202D01*
X896268Y-5626372D01*
X1015656Y-5790697D01*
X1015660Y-5790702D01*
X1159297Y-5934339D01*
X1159302Y-5934343D01*
X1279300Y-6021526D01*
X1323631Y-6053734D01*
X1504620Y-6145953D01*
X1504622Y-6145954D01*
X1697803Y-6208722D01*
X1697804Y-6208722D01*
X1697807Y-6208723D01*
X1898435Y-6240500D01*
X1898436Y-6240500D01*
X2101564Y-6240500D01*
X2101565Y-6240500D01*
X2302193Y-6208723D01*
X2302196Y-6208722D01*
X2302197Y-6208722D01*
X2495377Y-6145954D01*
X2495377Y-6145953D01*
X2495380Y-6145953D01*
X2676369Y-6053734D01*
X2840704Y-5934338D01*
X2984338Y-5790704D01*
X3103734Y-5626369D01*
X3129296Y-5576202D01*
X22380000Y-5576202D01*
X22380000Y-6005000D01*
X22880000Y-6005000D01*
X22880000Y-6405000D01*
X22380000Y-6405000D01*
X22380000Y-6833797D01*
X22410741Y-6988343D01*
X22410743Y-6988351D01*
X22471047Y-7133939D01*
X22471052Y-7133948D01*
X22558598Y-7264969D01*
X22558601Y-7264973D01*
X22670026Y-7376398D01*
X22670030Y-7376401D01*
X22801051Y-7463947D01*
X22801061Y-7463952D01*
X22916856Y-7511917D01*
X22980000Y-7516869D01*
X22980000Y-6979265D01*
X22995795Y-6995060D01*
X23064204Y-7034556D01*
X23140504Y-7055000D01*
X23219496Y-7055000D01*
X23295796Y-7034556D01*
X23364205Y-6995060D01*
X23380000Y-6979265D01*
X23380000Y-7530890D01*
X23413346Y-7524258D01*
X23413352Y-7524256D01*
X23558938Y-7463952D01*
X23558948Y-7463947D01*
X23689969Y-7376401D01*
X23689973Y-7376398D01*
X23801398Y-7264973D01*
X23801401Y-7264969D01*
X23888947Y-7133948D01*
X23888952Y-7133939D01*
X23949256Y-6988351D01*
X23949258Y-6988343D01*
X23979999Y-6833797D01*
X23980000Y-6833794D01*
X23980000Y-6405000D01*
X23480000Y-6405000D01*
X23480000Y-6005000D01*
X23979999Y-6005000D01*
X23997570Y-5987429D01*
X24058893Y-5953943D01*
X24128584Y-5958927D01*
X24184518Y-6000798D01*
X24192637Y-6013106D01*
X24197493Y-6021517D01*
X24197496Y-6021521D01*
X24197498Y-6021524D01*
X24293476Y-6117502D01*
X24293477Y-6117503D01*
X24293479Y-6117504D01*
X24411021Y-6185367D01*
X24411022Y-6185367D01*
X24411025Y-6185369D01*
X24542133Y-6220500D01*
X24542135Y-6220500D01*
X24677865Y-6220500D01*
X24677867Y-6220500D01*
X24808975Y-6185369D01*
X24926524Y-6117502D01*
X25022502Y-6021524D01*
X25090369Y-5903975D01*
X25125500Y-5772867D01*
X25125500Y-5637133D01*
X29874500Y-5637133D01*
X29874500Y-5772867D01*
X29879278Y-5790697D01*
X29909632Y-5903978D01*
X29977495Y-6021520D01*
X29977497Y-6021522D01*
X29977498Y-6021524D01*
X30073476Y-6117502D01*
X30073477Y-6117503D01*
X30073479Y-6117504D01*
X30191021Y-6185367D01*
X30191022Y-6185367D01*
X30191025Y-6185369D01*
X30322133Y-6220500D01*
X30322135Y-6220500D01*
X30457865Y-6220500D01*
X30457867Y-6220500D01*
X30588975Y-6185369D01*
X30706524Y-6117502D01*
X30802502Y-6021524D01*
X30807359Y-6013110D01*
X30857925Y-5964894D01*
X30926532Y-5951670D01*
X30991397Y-5977637D01*
X31002428Y-5987428D01*
X31020000Y-6005000D01*
X31520000Y-6005000D01*
X31520000Y-6405000D01*
X31020000Y-6405000D01*
X31020000Y-6833797D01*
X31050741Y-6988343D01*
X31050743Y-6988351D01*
X31111047Y-7133939D01*
X31111052Y-7133948D01*
X31198598Y-7264969D01*
X31198601Y-7264973D01*
X31310026Y-7376398D01*
X31310030Y-7376401D01*
X31441051Y-7463947D01*
X31441061Y-7463952D01*
X31586647Y-7524256D01*
X31586653Y-7524258D01*
X31619999Y-7530890D01*
X31620000Y-7530890D01*
X31620000Y-6979265D01*
X31635795Y-6995060D01*
X31704204Y-7034556D01*
X31780504Y-7055000D01*
X31859496Y-7055000D01*
X31935796Y-7034556D01*
X32004205Y-6995060D01*
X32020000Y-6979265D01*
X32020000Y-7530890D01*
X32053346Y-7524258D01*
X32053352Y-7524256D01*
X32198938Y-7463952D01*
X32198948Y-7463947D01*
X32329969Y-7376401D01*
X32329973Y-7376398D01*
X32441398Y-7264973D01*
X32441401Y-7264969D01*
X32528947Y-7133948D01*
X32528952Y-7133939D01*
X32589256Y-6988351D01*
X32589258Y-6988343D01*
X32619999Y-6833797D01*
X32620000Y-6833794D01*
X32620000Y-6405000D01*
X32120000Y-6405000D01*
X32120000Y-6005000D01*
X32620000Y-6005000D01*
X32620000Y-5576206D01*
X32619999Y-5576202D01*
X32589258Y-5421656D01*
X32589256Y-5421648D01*
X32528952Y-5276060D01*
X32528947Y-5276051D01*
X32441401Y-5145030D01*
X32441398Y-5145026D01*
X32329973Y-5033601D01*
X32329969Y-5033598D01*
X32199865Y-4946665D01*
X32198946Y-4946051D01*
X32198939Y-4946047D01*
X32053351Y-4885743D01*
X32053343Y-4885741D01*
X32020000Y-4879108D01*
X32020000Y-5430735D01*
X32004205Y-5414940D01*
X31935796Y-5375444D01*
X31859496Y-5355000D01*
X31780504Y-5355000D01*
X31704204Y-5375444D01*
X31635795Y-5414940D01*
X31620000Y-5430735D01*
X31620000Y-4879109D01*
X31619999Y-4879108D01*
X31586656Y-4885741D01*
X31586648Y-4885743D01*
X31441060Y-4946047D01*
X31441051Y-4946052D01*
X31310030Y-5033598D01*
X31310026Y-5033601D01*
X31198601Y-5145026D01*
X31198598Y-5145030D01*
X31111052Y-5276051D01*
X31111047Y-5276061D01*
X31051268Y-5420380D01*
X31007427Y-5474783D01*
X30941132Y-5496848D01*
X30873433Y-5479569D01*
X30829321Y-5434928D01*
X30802502Y-5388476D01*
X30706524Y-5292498D01*
X30706522Y-5292497D01*
X30706520Y-5292495D01*
X30588978Y-5224632D01*
X30588979Y-5224632D01*
X30573484Y-5220480D01*
X30457867Y-5189500D01*
X30322133Y-5189500D01*
X30206515Y-5220480D01*
X30191021Y-5224632D01*
X30073479Y-5292495D01*
X30073473Y-5292500D01*
X29977500Y-5388473D01*
X29977495Y-5388479D01*
X29909632Y-5506021D01*
X29909631Y-5506025D01*
X29874500Y-5637133D01*
X25125500Y-5637133D01*
X25090369Y-5506025D01*
X25072331Y-5474783D01*
X25022504Y-5388479D01*
X25022499Y-5388473D01*
X24926526Y-5292500D01*
X24926520Y-5292495D01*
X24808978Y-5224632D01*
X24808979Y-5224632D01*
X24793484Y-5220480D01*
X24677867Y-5189500D01*
X24542133Y-5189500D01*
X24426515Y-5220480D01*
X24411021Y-5224632D01*
X24293479Y-5292495D01*
X24293473Y-5292500D01*
X24197500Y-5388473D01*
X24197498Y-5388476D01*
X24170679Y-5434928D01*
X24120111Y-5483143D01*
X24051504Y-5496365D01*
X23986640Y-5470397D01*
X23948731Y-5420380D01*
X23888952Y-5276060D01*
X23888947Y-5276051D01*
X23801401Y-5145030D01*
X23801398Y-5145026D01*
X23689973Y-5033601D01*
X23689969Y-5033598D01*
X23558948Y-4946052D01*
X23558939Y-4946047D01*
X23413351Y-4885743D01*
X23413343Y-4885741D01*
X23380000Y-4879108D01*
X23380000Y-5430735D01*
X23364205Y-5414940D01*
X23295796Y-5375444D01*
X23219496Y-5355000D01*
X23140504Y-5355000D01*
X23064204Y-5375444D01*
X22995795Y-5414940D01*
X22980000Y-5430735D01*
X22980000Y-4879109D01*
X22979999Y-4879108D01*
X22946656Y-4885741D01*
X22946648Y-4885743D01*
X22801060Y-4946047D01*
X22801051Y-4946052D01*
X22670030Y-5033598D01*
X22670026Y-5033601D01*
X22558601Y-5145026D01*
X22558598Y-5145030D01*
X22471052Y-5276051D01*
X22471047Y-5276060D01*
X22410743Y-5421648D01*
X22410741Y-5421656D01*
X22380000Y-5576202D01*
X3129296Y-5576202D01*
X3195953Y-5445380D01*
X3214443Y-5388473D01*
X3258722Y-5252197D01*
X3258722Y-5252196D01*
X3258723Y-5252193D01*
X3290500Y-5051565D01*
X3290500Y-4848435D01*
X51609500Y-4848435D01*
X51609500Y-5051564D01*
X51641277Y-5252194D01*
X51641277Y-5252197D01*
X51704045Y-5445377D01*
X51721467Y-5479569D01*
X51770704Y-5576202D01*
X51796268Y-5626372D01*
X51915656Y-5790697D01*
X51915660Y-5790702D01*
X52059297Y-5934339D01*
X52059302Y-5934343D01*
X52179300Y-6021526D01*
X52223631Y-6053734D01*
X52404620Y-6145953D01*
X52404622Y-6145954D01*
X52597803Y-6208722D01*
X52597804Y-6208722D01*
X52597807Y-6208723D01*
X52798435Y-6240500D01*
X52798436Y-6240500D01*
X53001564Y-6240500D01*
X53001565Y-6240500D01*
X53202193Y-6208723D01*
X53202196Y-6208722D01*
X53202197Y-6208722D01*
X53395377Y-6145954D01*
X53395377Y-6145953D01*
X53395380Y-6145953D01*
X53576369Y-6053734D01*
X53740704Y-5934338D01*
X53884338Y-5790704D01*
X54003734Y-5626369D01*
X54095953Y-5445380D01*
X54114443Y-5388473D01*
X54158722Y-5252197D01*
X54158722Y-5252196D01*
X54158723Y-5252193D01*
X54190500Y-5051565D01*
X54190500Y-4848435D01*
X54158723Y-4647807D01*
X54158722Y-4647803D01*
X54158722Y-4647802D01*
X54095954Y-4454622D01*
X54095953Y-4454620D01*
X54003734Y-4273631D01*
X53988480Y-4252635D01*
X53884343Y-4109302D01*
X53884339Y-4109297D01*
X53740702Y-3965660D01*
X53740697Y-3965656D01*
X53576372Y-3846268D01*
X53576371Y-3846267D01*
X53576369Y-3846266D01*
X53485874Y-3800156D01*
X53395377Y-3754045D01*
X53202196Y-3691277D01*
X53051722Y-3667444D01*
X53001565Y-3659500D01*
X52798435Y-3659500D01*
X52731559Y-3670092D01*
X52597805Y-3691277D01*
X52597802Y-3691277D01*
X52404622Y-3754045D01*
X52223627Y-3846268D01*
X52059302Y-3965656D01*
X52059297Y-3965660D01*
X51915660Y-4109297D01*
X51915656Y-4109302D01*
X51796268Y-4273627D01*
X51704045Y-4454622D01*
X51641277Y-4647802D01*
X51641277Y-4647805D01*
X51609500Y-4848435D01*
X3290500Y-4848435D01*
X3258723Y-4647807D01*
X3258722Y-4647803D01*
X3258722Y-4647802D01*
X3195954Y-4454622D01*
X3195953Y-4454620D01*
X3103734Y-4273631D01*
X3088480Y-4252635D01*
X2984343Y-4109302D01*
X2984339Y-4109297D01*
X2840702Y-3965660D01*
X2840697Y-3965656D01*
X2676372Y-3846268D01*
X2676371Y-3846267D01*
X2676369Y-3846266D01*
X2585874Y-3800156D01*
X2495377Y-3754045D01*
X2302196Y-3691277D01*
X2151722Y-3667444D01*
X2101565Y-3659500D01*
X1898435Y-3659500D01*
X1831559Y-3670092D01*
X1697805Y-3691277D01*
X1697802Y-3691277D01*
X1504622Y-3754045D01*
X1323627Y-3846268D01*
X1159302Y-3965656D01*
X1159297Y-3965660D01*
X1015660Y-4109297D01*
X1015656Y-4109302D01*
X896268Y-4273627D01*
X804045Y-4454622D01*
X741277Y-4647802D01*
X741277Y-4647805D01*
X709500Y-4848435D01*
X400000Y-4848435D01*
X400000Y-2818333D01*
X407249Y-2776557D01*
X487696Y-2551733D01*
X492344Y-2540512D01*
X646568Y-2214441D01*
X652286Y-2203743D01*
X837731Y-1894351D01*
X844475Y-1884258D01*
X1059367Y-1594512D01*
X1067049Y-1585152D01*
X1102351Y-1546202D01*
X22380000Y-1546202D01*
X22380000Y-1825000D01*
X22880000Y-1825000D01*
X22880000Y-2225000D01*
X22380000Y-2225000D01*
X22380000Y-2503797D01*
X22410741Y-2658343D01*
X22410743Y-2658351D01*
X22471047Y-2803939D01*
X22471052Y-2803948D01*
X22558598Y-2934969D01*
X22558601Y-2934973D01*
X22670026Y-3046398D01*
X22670030Y-3046401D01*
X22801051Y-3133947D01*
X22801061Y-3133952D01*
X22946647Y-3194256D01*
X22946653Y-3194258D01*
X22979999Y-3200890D01*
X22980000Y-3200890D01*
X22980000Y-2649265D01*
X22995795Y-2665060D01*
X23064204Y-2704556D01*
X23140504Y-2725000D01*
X23219496Y-2725000D01*
X23295796Y-2704556D01*
X23364205Y-2665060D01*
X23380000Y-2649265D01*
X23380000Y-3200890D01*
X23413346Y-3194258D01*
X23413352Y-3194256D01*
X23558938Y-3133952D01*
X23558948Y-3133947D01*
X23689969Y-3046401D01*
X23689973Y-3046398D01*
X23801398Y-2934973D01*
X23801401Y-2934969D01*
X23888947Y-2803948D01*
X23888952Y-2803939D01*
X23949256Y-2658351D01*
X23949258Y-2658343D01*
X23979999Y-2503797D01*
X23980000Y-2503794D01*
X23980000Y-2225000D01*
X23480000Y-2225000D01*
X23480000Y-1825000D01*
X23980000Y-1825000D01*
X23980000Y-1546206D01*
X23979999Y-1546202D01*
X31020000Y-1546202D01*
X31020000Y-1825000D01*
X31520000Y-1825000D01*
X31520000Y-2225000D01*
X31020000Y-2225000D01*
X31020000Y-2503797D01*
X31050741Y-2658343D01*
X31050743Y-2658351D01*
X31111047Y-2803939D01*
X31111052Y-2803948D01*
X31198598Y-2934969D01*
X31198601Y-2934973D01*
X31310026Y-3046398D01*
X31310030Y-3046401D01*
X31441051Y-3133947D01*
X31441061Y-3133952D01*
X31586647Y-3194256D01*
X31586653Y-3194258D01*
X31619999Y-3200890D01*
X31620000Y-3200890D01*
X31620000Y-2649265D01*
X31635795Y-2665060D01*
X31704204Y-2704556D01*
X31780504Y-2725000D01*
X31859496Y-2725000D01*
X31935796Y-2704556D01*
X32004205Y-2665060D01*
X32020000Y-2649265D01*
X32020000Y-3200890D01*
X32053346Y-3194258D01*
X32053352Y-3194256D01*
X32198938Y-3133952D01*
X32198948Y-3133947D01*
X32329969Y-3046401D01*
X32329973Y-3046398D01*
X32441398Y-2934973D01*
X32441401Y-2934969D01*
X32528947Y-2803948D01*
X32528952Y-2803939D01*
X32589256Y-2658351D01*
X32589258Y-2658343D01*
X32619999Y-2503797D01*
X32620000Y-2503794D01*
X32620000Y-2225000D01*
X32120000Y-2225000D01*
X32120000Y-1825000D01*
X32620000Y-1825000D01*
X32620000Y-1546206D01*
X32619999Y-1546202D01*
X32589258Y-1391656D01*
X32589256Y-1391648D01*
X32528952Y-1246060D01*
X32528947Y-1246051D01*
X32441401Y-1115030D01*
X32441398Y-1115026D01*
X32329973Y-1003601D01*
X32329969Y-1003598D01*
X32198948Y-916052D01*
X32198939Y-916047D01*
X32053351Y-855743D01*
X32053343Y-855741D01*
X32020000Y-849108D01*
X32020000Y-1400735D01*
X32004205Y-1384940D01*
X31935796Y-1345444D01*
X31859496Y-1325000D01*
X31780504Y-1325000D01*
X31704204Y-1345444D01*
X31635795Y-1384940D01*
X31620000Y-1400735D01*
X31620000Y-849109D01*
X31619999Y-849108D01*
X31586656Y-855741D01*
X31586648Y-855743D01*
X31441060Y-916047D01*
X31441051Y-916052D01*
X31310030Y-1003598D01*
X31310026Y-1003601D01*
X31198601Y-1115026D01*
X31198598Y-1115030D01*
X31111052Y-1246051D01*
X31111047Y-1246060D01*
X31050743Y-1391648D01*
X31050741Y-1391656D01*
X31020000Y-1546202D01*
X23979999Y-1546202D01*
X23949258Y-1391656D01*
X23949256Y-1391648D01*
X23888952Y-1246060D01*
X23888947Y-1246051D01*
X23801401Y-1115030D01*
X23801398Y-1115026D01*
X23689973Y-1003601D01*
X23689969Y-1003598D01*
X23558948Y-916052D01*
X23558939Y-916047D01*
X23413351Y-855743D01*
X23413343Y-855741D01*
X23380000Y-849108D01*
X23380000Y-1400735D01*
X23364205Y-1384940D01*
X23295796Y-1345444D01*
X23219496Y-1325000D01*
X23140504Y-1325000D01*
X23064204Y-1345444D01*
X22995795Y-1384940D01*
X22980000Y-1400735D01*
X22980000Y-849109D01*
X22979999Y-849108D01*
X22946656Y-855741D01*
X22946648Y-855743D01*
X22801060Y-916047D01*
X22801051Y-916052D01*
X22670030Y-1003598D01*
X22670026Y-1003601D01*
X22558601Y-1115026D01*
X22558598Y-1115030D01*
X22471052Y-1246051D01*
X22471047Y-1246060D01*
X22410743Y-1391648D01*
X22410741Y-1391656D01*
X22380000Y-1546202D01*
X1102351Y-1546202D01*
X1309300Y-1317870D01*
X1317870Y-1309300D01*
X1585152Y-1067049D01*
X1594512Y-1059367D01*
X1884258Y-844475D01*
X1894341Y-837737D01*
X2203743Y-652286D01*
X2214441Y-646568D01*
X2540512Y-492344D01*
X2551733Y-487696D01*
X2776558Y-407248D01*
X2818334Y-400000D01*
X52181666Y-400000D01*
X52223441Y-407248D01*
G37*
%TD.AperFunction*%
%TD*%
M02*
