%TF.GenerationSoftware,KiCad,Pcbnew,10.0.4*%
%TF.CreationDate,2026-07-13T23:03:06-04:00*%
%TF.ProjectId,data_streamdeck,64617461-5f73-4747-9265-616d6465636b,C*%
%TF.SameCoordinates,Original*%
%TF.FileFunction,Legend,Bot*%
%TF.FilePolarity,Positive*%
%FSLAX46Y46*%
G04 Gerber Fmt 4.6, Leading zero omitted, Abs format (unit mm)*
G04 Created by KiCad (PCBNEW 10.0.4) date 2026-07-13 23:03:06*
%MOMM*%
%LPD*%
G01*
G04 APERTURE LIST*
%ADD10C,0.200000*%
%ADD11C,0.240000*%
%ADD12C,0.360000*%
G04 APERTURE END LIST*
G36*
X21000000Y-83570833D02*
G01*
X21677083Y-83570833D01*
X21677083Y-83726250D01*
X21000000Y-83726250D01*
X21000000Y-83570833D01*
G37*
G36*
X21000000Y-83706250D02*
G01*
X22083333Y-83706250D01*
X22083333Y-83861666D01*
X21000000Y-83861666D01*
X21000000Y-83706250D01*
G37*
G36*
X21000000Y-83841666D02*
G01*
X22354166Y-83841666D01*
X22354166Y-83997083D01*
X21000000Y-83997083D01*
X21000000Y-83841666D01*
G37*
G36*
X21000000Y-83977083D02*
G01*
X22625000Y-83977083D01*
X22625000Y-84132500D01*
X21000000Y-84132500D01*
X21000000Y-83977083D01*
G37*
G36*
X21000000Y-84112500D02*
G01*
X23031250Y-84112500D01*
X23031250Y-84267916D01*
X21000000Y-84267916D01*
X21000000Y-84112500D01*
G37*
G36*
X21135416Y-84247916D02*
G01*
X23166666Y-84247916D01*
X23166666Y-84403333D01*
X21135416Y-84403333D01*
X21135416Y-84247916D01*
G37*
G36*
X21135416Y-84383333D02*
G01*
X23437500Y-84383333D01*
X23437500Y-84538750D01*
X21135416Y-84538750D01*
X21135416Y-84383333D01*
G37*
G36*
X21135416Y-84518750D02*
G01*
X23572916Y-84518750D01*
X23572916Y-84674166D01*
X21135416Y-84674166D01*
X21135416Y-84518750D01*
G37*
G36*
X21270833Y-84654166D02*
G01*
X23843750Y-84654166D01*
X23843750Y-84809583D01*
X21270833Y-84809583D01*
X21270833Y-84654166D01*
G37*
G36*
X21270833Y-84789583D02*
G01*
X23979166Y-84789583D01*
X23979166Y-84945000D01*
X21270833Y-84945000D01*
X21270833Y-84789583D01*
G37*
G36*
X21270833Y-84925000D02*
G01*
X24250000Y-84925000D01*
X24250000Y-85080416D01*
X21270833Y-85080416D01*
X21270833Y-84925000D01*
G37*
G36*
X21406250Y-85060416D02*
G01*
X24385416Y-85060416D01*
X24385416Y-85215833D01*
X21406250Y-85215833D01*
X21406250Y-85060416D01*
G37*
G36*
X21406250Y-85195833D02*
G01*
X24520833Y-85195833D01*
X24520833Y-85351250D01*
X21406250Y-85351250D01*
X21406250Y-85195833D01*
G37*
G36*
X21541666Y-85331250D02*
G01*
X24656250Y-85331250D01*
X24656250Y-85486666D01*
X21541666Y-85486666D01*
X21541666Y-85331250D01*
G37*
G36*
X21541666Y-85466666D02*
G01*
X24791666Y-85466666D01*
X24791666Y-85622083D01*
X21541666Y-85622083D01*
X21541666Y-85466666D01*
G37*
G36*
X21677083Y-85602083D02*
G01*
X24927083Y-85602083D01*
X24927083Y-85757500D01*
X21677083Y-85757500D01*
X21677083Y-85602083D01*
G37*
G36*
X21677083Y-85737500D02*
G01*
X25062500Y-85737500D01*
X25062500Y-85892916D01*
X21677083Y-85892916D01*
X21677083Y-85737500D01*
G37*
G36*
X21677083Y-88445833D02*
G01*
X22760416Y-88445833D01*
X22760416Y-88601250D01*
X21677083Y-88601250D01*
X21677083Y-88445833D01*
G37*
G36*
X21812500Y-85872916D02*
G01*
X25197916Y-85872916D01*
X25197916Y-86028333D01*
X21812500Y-86028333D01*
X21812500Y-85872916D01*
G37*
G36*
X21812500Y-86008333D02*
G01*
X25333333Y-86008333D01*
X25333333Y-86163750D01*
X21812500Y-86163750D01*
X21812500Y-86008333D01*
G37*
G36*
X21947916Y-86143750D02*
G01*
X25468750Y-86143750D01*
X25468750Y-86299166D01*
X21947916Y-86299166D01*
X21947916Y-86143750D01*
G37*
G36*
X21947916Y-88310416D02*
G01*
X22489583Y-88310416D01*
X22489583Y-88465833D01*
X21947916Y-88465833D01*
X21947916Y-88310416D01*
G37*
G36*
X21947916Y-88581250D02*
G01*
X22489583Y-88581250D01*
X22489583Y-88736666D01*
X21947916Y-88736666D01*
X21947916Y-88581250D01*
G37*
G36*
X22083333Y-86279166D02*
G01*
X25604166Y-86279166D01*
X25604166Y-86434583D01*
X22083333Y-86434583D01*
X22083333Y-86279166D01*
G37*
G36*
X22083333Y-86414583D02*
G01*
X25739583Y-86414583D01*
X25739583Y-86570000D01*
X22083333Y-86570000D01*
X22083333Y-86414583D01*
G37*
G36*
X22083333Y-88039583D02*
G01*
X22218750Y-88039583D01*
X22218750Y-88195000D01*
X22083333Y-88195000D01*
X22083333Y-88039583D01*
G37*
G36*
X22083333Y-88175000D02*
G01*
X22354166Y-88175000D01*
X22354166Y-88330416D01*
X22083333Y-88330416D01*
X22083333Y-88175000D01*
G37*
G36*
X22083333Y-88716666D02*
G01*
X22354166Y-88716666D01*
X22354166Y-88872083D01*
X22083333Y-88872083D01*
X22083333Y-88716666D01*
G37*
G36*
X22083333Y-88852083D02*
G01*
X22218750Y-88852083D01*
X22218750Y-89007500D01*
X22083333Y-89007500D01*
X22083333Y-88852083D01*
G37*
G36*
X22218750Y-86550000D02*
G01*
X25875000Y-86550000D01*
X25875000Y-86705416D01*
X22218750Y-86705416D01*
X22218750Y-86550000D01*
G37*
G36*
X22218750Y-86685416D02*
G01*
X26010416Y-86685416D01*
X26010416Y-86840833D01*
X22218750Y-86840833D01*
X22218750Y-86685416D01*
G37*
G36*
X22354166Y-86820833D02*
G01*
X26145833Y-86820833D01*
X26145833Y-86976250D01*
X22354166Y-86976250D01*
X22354166Y-86820833D01*
G37*
G36*
X22489583Y-86956250D02*
G01*
X26281250Y-86956250D01*
X26281250Y-87111666D01*
X22489583Y-87111666D01*
X22489583Y-86956250D01*
G37*
G36*
X22625000Y-87091666D02*
G01*
X26416666Y-87091666D01*
X26416666Y-87247083D01*
X22625000Y-87247083D01*
X22625000Y-87091666D01*
G37*
G36*
X22625000Y-87227083D02*
G01*
X27364583Y-87227083D01*
X27364583Y-87382500D01*
X22625000Y-87382500D01*
X22625000Y-87227083D01*
G37*
G36*
X22760416Y-87362500D02*
G01*
X28312500Y-87362500D01*
X28312500Y-87517916D01*
X22760416Y-87517916D01*
X22760416Y-87362500D01*
G37*
G36*
X22895833Y-87497916D02*
G01*
X29260416Y-87497916D01*
X29260416Y-87653333D01*
X22895833Y-87653333D01*
X22895833Y-87497916D01*
G37*
G36*
X22895833Y-91831250D02*
G01*
X23031250Y-91831250D01*
X23031250Y-91986666D01*
X22895833Y-91986666D01*
X22895833Y-91831250D01*
G37*
G36*
X22895833Y-91966666D02*
G01*
X23166666Y-91966666D01*
X23166666Y-92122083D01*
X22895833Y-92122083D01*
X22895833Y-91966666D01*
G37*
G36*
X23031250Y-87633333D02*
G01*
X30208333Y-87633333D01*
X30208333Y-87788750D01*
X23031250Y-87788750D01*
X23031250Y-87633333D01*
G37*
G36*
X23031250Y-90341666D02*
G01*
X23437500Y-90341666D01*
X23437500Y-90497083D01*
X23031250Y-90497083D01*
X23031250Y-90341666D01*
G37*
G36*
X23031250Y-90477083D02*
G01*
X23437500Y-90477083D01*
X23437500Y-90632500D01*
X23031250Y-90632500D01*
X23031250Y-90477083D01*
G37*
G36*
X23031250Y-92102083D02*
G01*
X23166666Y-92102083D01*
X23166666Y-92257500D01*
X23031250Y-92257500D01*
X23031250Y-92102083D01*
G37*
G36*
X23031250Y-92237500D02*
G01*
X23302083Y-92237500D01*
X23302083Y-92392916D01*
X23031250Y-92392916D01*
X23031250Y-92237500D01*
G37*
G36*
X23166666Y-87768750D02*
G01*
X30614583Y-87768750D01*
X30614583Y-87924166D01*
X23166666Y-87924166D01*
X23166666Y-87768750D01*
G37*
G36*
X23166666Y-87904166D02*
G01*
X30885416Y-87904166D01*
X30885416Y-88059583D01*
X23166666Y-88059583D01*
X23166666Y-87904166D01*
G37*
G36*
X23166666Y-90612500D02*
G01*
X23302083Y-90612500D01*
X23302083Y-90767916D01*
X23166666Y-90767916D01*
X23166666Y-90612500D01*
G37*
G36*
X23166666Y-92372916D02*
G01*
X23302083Y-92372916D01*
X23302083Y-92528333D01*
X23166666Y-92528333D01*
X23166666Y-92372916D01*
G37*
G36*
X23166666Y-92508333D02*
G01*
X23437500Y-92508333D01*
X23437500Y-92663750D01*
X23166666Y-92663750D01*
X23166666Y-92508333D01*
G37*
G36*
X23166666Y-92643750D02*
G01*
X23437500Y-92643750D01*
X23437500Y-92799166D01*
X23166666Y-92799166D01*
X23166666Y-92643750D01*
G37*
G36*
X23302083Y-88039583D02*
G01*
X31020833Y-88039583D01*
X31020833Y-88195000D01*
X23302083Y-88195000D01*
X23302083Y-88039583D01*
G37*
G36*
X23302083Y-92779166D02*
G01*
X23572916Y-92779166D01*
X23572916Y-92934583D01*
X23302083Y-92934583D01*
X23302083Y-92779166D01*
G37*
G36*
X23302083Y-92914583D02*
G01*
X23708333Y-92914583D01*
X23708333Y-93070000D01*
X23302083Y-93070000D01*
X23302083Y-92914583D01*
G37*
G36*
X23437500Y-88175000D02*
G01*
X31156250Y-88175000D01*
X31156250Y-88330416D01*
X23437500Y-88330416D01*
X23437500Y-88175000D01*
G37*
G36*
X23437500Y-93050000D02*
G01*
X23843750Y-93050000D01*
X23843750Y-93205416D01*
X23437500Y-93205416D01*
X23437500Y-93050000D01*
G37*
G36*
X23572916Y-88310416D02*
G01*
X31156250Y-88310416D01*
X31156250Y-88465833D01*
X23572916Y-88465833D01*
X23572916Y-88310416D01*
G37*
G36*
X23572916Y-93185416D02*
G01*
X23843750Y-93185416D01*
X23843750Y-93340833D01*
X23572916Y-93340833D01*
X23572916Y-93185416D01*
G37*
G36*
X23572916Y-93320833D02*
G01*
X23979166Y-93320833D01*
X23979166Y-93476250D01*
X23572916Y-93476250D01*
X23572916Y-93320833D01*
G37*
G36*
X23708333Y-88445833D02*
G01*
X31156250Y-88445833D01*
X31156250Y-88601250D01*
X23708333Y-88601250D01*
X23708333Y-88445833D01*
G37*
G36*
X23708333Y-93456250D02*
G01*
X24114583Y-93456250D01*
X24114583Y-93611666D01*
X23708333Y-93611666D01*
X23708333Y-93456250D01*
G37*
G36*
X23843750Y-88581250D02*
G01*
X31020833Y-88581250D01*
X31020833Y-88736666D01*
X23843750Y-88736666D01*
X23843750Y-88581250D01*
G37*
G36*
X23843750Y-93591666D02*
G01*
X24250000Y-93591666D01*
X24250000Y-93747083D01*
X23843750Y-93747083D01*
X23843750Y-93591666D01*
G37*
G36*
X23843750Y-93727083D02*
G01*
X24520833Y-93727083D01*
X24520833Y-93882500D01*
X23843750Y-93882500D01*
X23843750Y-93727083D01*
G37*
G36*
X23979166Y-88716666D02*
G01*
X30750000Y-88716666D01*
X30750000Y-88872083D01*
X23979166Y-88872083D01*
X23979166Y-88716666D01*
G37*
G36*
X23979166Y-93862500D02*
G01*
X24656250Y-93862500D01*
X24656250Y-94017916D01*
X23979166Y-94017916D01*
X23979166Y-93862500D01*
G37*
G36*
X24114583Y-88852083D02*
G01*
X30614583Y-88852083D01*
X30614583Y-89007500D01*
X24114583Y-89007500D01*
X24114583Y-88852083D01*
G37*
G36*
X24114583Y-93997916D02*
G01*
X24791666Y-93997916D01*
X24791666Y-94153333D01*
X24114583Y-94153333D01*
X24114583Y-93997916D01*
G37*
G36*
X24250000Y-88987500D02*
G01*
X30343750Y-88987500D01*
X30343750Y-89142916D01*
X24250000Y-89142916D01*
X24250000Y-88987500D01*
G37*
G36*
X24250000Y-89122916D02*
G01*
X30072916Y-89122916D01*
X30072916Y-89278333D01*
X24250000Y-89278333D01*
X24250000Y-89122916D01*
G37*
G36*
X24250000Y-94133333D02*
G01*
X25062500Y-94133333D01*
X25062500Y-94288750D01*
X24250000Y-94288750D01*
X24250000Y-94133333D01*
G37*
G36*
X24385416Y-89258333D02*
G01*
X29937500Y-89258333D01*
X29937500Y-89413750D01*
X24385416Y-89413750D01*
X24385416Y-89258333D01*
G37*
G36*
X24385416Y-89393750D02*
G01*
X29666666Y-89393750D01*
X29666666Y-89549166D01*
X24385416Y-89549166D01*
X24385416Y-89393750D01*
G37*
G36*
X24385416Y-89529166D02*
G01*
X29531250Y-89529166D01*
X29531250Y-89684583D01*
X24385416Y-89684583D01*
X24385416Y-89529166D01*
G37*
G36*
X24385416Y-89664583D02*
G01*
X29260416Y-89664583D01*
X29260416Y-89820000D01*
X24385416Y-89820000D01*
X24385416Y-89664583D01*
G37*
G36*
X24385416Y-89800000D02*
G01*
X29125000Y-89800000D01*
X29125000Y-89955416D01*
X24385416Y-89955416D01*
X24385416Y-89800000D01*
G37*
G36*
X24385416Y-94268750D02*
G01*
X25197916Y-94268750D01*
X25197916Y-94424166D01*
X24385416Y-94424166D01*
X24385416Y-94268750D01*
G37*
G36*
X24520833Y-89935416D02*
G01*
X29260416Y-89935416D01*
X29260416Y-90090833D01*
X24520833Y-90090833D01*
X24520833Y-89935416D01*
G37*
G36*
X24520833Y-90070833D02*
G01*
X29260416Y-90070833D01*
X29260416Y-90226250D01*
X24520833Y-90226250D01*
X24520833Y-90070833D01*
G37*
G36*
X24520833Y-90206250D02*
G01*
X29395833Y-90206250D01*
X29395833Y-90361666D01*
X24520833Y-90361666D01*
X24520833Y-90206250D01*
G37*
G36*
X24520833Y-90341666D02*
G01*
X29395833Y-90341666D01*
X29395833Y-90497083D01*
X24520833Y-90497083D01*
X24520833Y-90341666D01*
G37*
G36*
X24520833Y-90477083D02*
G01*
X29260416Y-90477083D01*
X29260416Y-90632500D01*
X24520833Y-90632500D01*
X24520833Y-90477083D01*
G37*
G36*
X24520833Y-90612500D02*
G01*
X29125000Y-90612500D01*
X29125000Y-90767916D01*
X24520833Y-90767916D01*
X24520833Y-90612500D01*
G37*
G36*
X24520833Y-90747916D02*
G01*
X28989583Y-90747916D01*
X28989583Y-90903333D01*
X24520833Y-90903333D01*
X24520833Y-90747916D01*
G37*
G36*
X24520833Y-90883333D02*
G01*
X29125000Y-90883333D01*
X29125000Y-91038750D01*
X24520833Y-91038750D01*
X24520833Y-90883333D01*
G37*
G36*
X24520833Y-94404166D02*
G01*
X25468750Y-94404166D01*
X25468750Y-94559583D01*
X24520833Y-94559583D01*
X24520833Y-94404166D01*
G37*
G36*
X24656250Y-91018750D02*
G01*
X29395833Y-91018750D01*
X29395833Y-91174166D01*
X24656250Y-91174166D01*
X24656250Y-91018750D01*
G37*
G36*
X24656250Y-91154166D02*
G01*
X29395833Y-91154166D01*
X29395833Y-91309583D01*
X24656250Y-91309583D01*
X24656250Y-91154166D01*
G37*
G36*
X24656250Y-91289583D02*
G01*
X29260416Y-91289583D01*
X29260416Y-91445000D01*
X24656250Y-91445000D01*
X24656250Y-91289583D01*
G37*
G36*
X24656250Y-91425000D02*
G01*
X29125000Y-91425000D01*
X29125000Y-91580416D01*
X24656250Y-91580416D01*
X24656250Y-91425000D01*
G37*
G36*
X24656250Y-91560416D02*
G01*
X29260416Y-91560416D01*
X29260416Y-91715833D01*
X24656250Y-91715833D01*
X24656250Y-91560416D01*
G37*
G36*
X24656250Y-91695833D02*
G01*
X29395833Y-91695833D01*
X29395833Y-91851250D01*
X24656250Y-91851250D01*
X24656250Y-91695833D01*
G37*
G36*
X24656250Y-91831250D02*
G01*
X29531250Y-91831250D01*
X29531250Y-91986666D01*
X24656250Y-91986666D01*
X24656250Y-91831250D01*
G37*
G36*
X24656250Y-91966666D02*
G01*
X26822916Y-91966666D01*
X26822916Y-92122083D01*
X24656250Y-92122083D01*
X24656250Y-91966666D01*
G37*
G36*
X24656250Y-94539583D02*
G01*
X25739583Y-94539583D01*
X25739583Y-94695000D01*
X24656250Y-94695000D01*
X24656250Y-94539583D01*
G37*
G36*
X24791666Y-92102083D02*
G01*
X26687500Y-92102083D01*
X26687500Y-92257500D01*
X24791666Y-92257500D01*
X24791666Y-92102083D01*
G37*
G36*
X24791666Y-92237500D02*
G01*
X26552083Y-92237500D01*
X26552083Y-92392916D01*
X24791666Y-92392916D01*
X24791666Y-92237500D01*
G37*
G36*
X24791666Y-92372916D02*
G01*
X26552083Y-92372916D01*
X26552083Y-92528333D01*
X24791666Y-92528333D01*
X24791666Y-92372916D01*
G37*
G36*
X24791666Y-92508333D02*
G01*
X26416666Y-92508333D01*
X26416666Y-92663750D01*
X24791666Y-92663750D01*
X24791666Y-92508333D01*
G37*
G36*
X24791666Y-92643750D02*
G01*
X26281250Y-92643750D01*
X26281250Y-92799166D01*
X24791666Y-92799166D01*
X24791666Y-92643750D01*
G37*
G36*
X24791666Y-92779166D02*
G01*
X26145833Y-92779166D01*
X26145833Y-92934583D01*
X24791666Y-92934583D01*
X24791666Y-92779166D01*
G37*
G36*
X24927083Y-92914583D02*
G01*
X26010416Y-92914583D01*
X26010416Y-93070000D01*
X24927083Y-93070000D01*
X24927083Y-92914583D01*
G37*
G36*
X24927083Y-93050000D02*
G01*
X26010416Y-93050000D01*
X26010416Y-93205416D01*
X24927083Y-93205416D01*
X24927083Y-93050000D01*
G37*
G36*
X24927083Y-94675000D02*
G01*
X26010416Y-94675000D01*
X26010416Y-94830416D01*
X24927083Y-94830416D01*
X24927083Y-94675000D01*
G37*
G36*
X25062500Y-93185416D02*
G01*
X25875000Y-93185416D01*
X25875000Y-93340833D01*
X25062500Y-93340833D01*
X25062500Y-93185416D01*
G37*
G36*
X25062500Y-94810416D02*
G01*
X26552083Y-94810416D01*
X26552083Y-94965833D01*
X25062500Y-94965833D01*
X25062500Y-94810416D01*
G37*
G36*
X25197916Y-93320833D02*
G01*
X25739583Y-93320833D01*
X25739583Y-93476250D01*
X25197916Y-93476250D01*
X25197916Y-93320833D01*
G37*
G36*
X25197916Y-94945833D02*
G01*
X27229166Y-94945833D01*
X27229166Y-95101250D01*
X25197916Y-95101250D01*
X25197916Y-94945833D01*
G37*
G36*
X25333333Y-93456250D02*
G01*
X25604166Y-93456250D01*
X25604166Y-93611666D01*
X25333333Y-93611666D01*
X25333333Y-93456250D01*
G37*
G36*
X25468750Y-95081250D02*
G01*
X30750000Y-95081250D01*
X30750000Y-95236666D01*
X25468750Y-95236666D01*
X25468750Y-95081250D01*
G37*
G36*
X25739583Y-95216666D02*
G01*
X30750000Y-95216666D01*
X30750000Y-95372083D01*
X25739583Y-95372083D01*
X25739583Y-95216666D01*
G37*
G36*
X26010416Y-95352083D02*
G01*
X30479166Y-95352083D01*
X30479166Y-95507500D01*
X26010416Y-95507500D01*
X26010416Y-95352083D01*
G37*
G36*
X26281250Y-95487500D02*
G01*
X30072916Y-95487500D01*
X30072916Y-95642916D01*
X26281250Y-95642916D01*
X26281250Y-95487500D01*
G37*
G36*
X26687500Y-84789583D02*
G01*
X27635416Y-84789583D01*
X27635416Y-84945000D01*
X26687500Y-84945000D01*
X26687500Y-84789583D01*
G37*
G36*
X26822916Y-95622916D02*
G01*
X29666666Y-95622916D01*
X29666666Y-95778333D01*
X26822916Y-95778333D01*
X26822916Y-95622916D01*
G37*
G36*
X26958333Y-84654166D02*
G01*
X27364583Y-84654166D01*
X27364583Y-84809583D01*
X26958333Y-84809583D01*
X26958333Y-84654166D01*
G37*
G36*
X26958333Y-84925000D02*
G01*
X27364583Y-84925000D01*
X27364583Y-85080416D01*
X26958333Y-85080416D01*
X26958333Y-84925000D01*
G37*
G36*
X27093750Y-84383333D02*
G01*
X27229166Y-84383333D01*
X27229166Y-84538750D01*
X27093750Y-84538750D01*
X27093750Y-84383333D01*
G37*
G36*
X27093750Y-84518750D02*
G01*
X27229166Y-84518750D01*
X27229166Y-84674166D01*
X27093750Y-84674166D01*
X27093750Y-84518750D01*
G37*
G36*
X27093750Y-85060416D02*
G01*
X27229166Y-85060416D01*
X27229166Y-85215833D01*
X27093750Y-85215833D01*
X27093750Y-85060416D01*
G37*
G36*
X27093750Y-85195833D02*
G01*
X27229166Y-85195833D01*
X27229166Y-85351250D01*
X27093750Y-85351250D01*
X27093750Y-85195833D01*
G37*
G36*
X27093750Y-91966666D02*
G01*
X27770833Y-91966666D01*
X27770833Y-92122083D01*
X27093750Y-92122083D01*
X27093750Y-91966666D01*
G37*
G36*
X27364583Y-92102083D02*
G01*
X27500000Y-92102083D01*
X27500000Y-92257500D01*
X27364583Y-92257500D01*
X27364583Y-92102083D01*
G37*
G36*
X27364583Y-95758333D02*
G01*
X28989583Y-95758333D01*
X28989583Y-95913750D01*
X27364583Y-95913750D01*
X27364583Y-95758333D01*
G37*
G36*
X28041666Y-91966666D02*
G01*
X28447916Y-91966666D01*
X28447916Y-92122083D01*
X28041666Y-92122083D01*
X28041666Y-91966666D01*
G37*
G36*
X28041666Y-92102083D02*
G01*
X28312500Y-92102083D01*
X28312500Y-92257500D01*
X28041666Y-92257500D01*
X28041666Y-92102083D01*
G37*
G36*
X28312500Y-94945833D02*
G01*
X30479166Y-94945833D01*
X30479166Y-95101250D01*
X28312500Y-95101250D01*
X28312500Y-94945833D01*
G37*
G36*
X28447916Y-85872916D02*
G01*
X28583333Y-85872916D01*
X28583333Y-86028333D01*
X28447916Y-86028333D01*
X28447916Y-85872916D01*
G37*
G36*
X28447916Y-86008333D02*
G01*
X28718750Y-86008333D01*
X28718750Y-86163750D01*
X28447916Y-86163750D01*
X28447916Y-86008333D01*
G37*
G36*
X28447916Y-92508333D02*
G01*
X28583333Y-92508333D01*
X28583333Y-92663750D01*
X28447916Y-92663750D01*
X28447916Y-92508333D01*
G37*
G36*
X28583333Y-92643750D02*
G01*
X28718750Y-92643750D01*
X28718750Y-92799166D01*
X28583333Y-92799166D01*
X28583333Y-92643750D01*
G37*
G36*
X28583333Y-92779166D02*
G01*
X28854166Y-92779166D01*
X28854166Y-92934583D01*
X28583333Y-92934583D01*
X28583333Y-92779166D01*
G37*
G36*
X28583333Y-92914583D02*
G01*
X28854166Y-92914583D01*
X28854166Y-93070000D01*
X28583333Y-93070000D01*
X28583333Y-92914583D01*
G37*
G36*
X28718750Y-91966666D02*
G01*
X29666666Y-91966666D01*
X29666666Y-92122083D01*
X28718750Y-92122083D01*
X28718750Y-91966666D01*
G37*
G36*
X28718750Y-93050000D02*
G01*
X28989583Y-93050000D01*
X28989583Y-93205416D01*
X28718750Y-93205416D01*
X28718750Y-93050000D01*
G37*
G36*
X28718750Y-93185416D02*
G01*
X29125000Y-93185416D01*
X29125000Y-93340833D01*
X28718750Y-93340833D01*
X28718750Y-93185416D01*
G37*
G36*
X28854166Y-92102083D02*
G01*
X29666666Y-92102083D01*
X29666666Y-92257500D01*
X28854166Y-92257500D01*
X28854166Y-92102083D01*
G37*
G36*
X28854166Y-93320833D02*
G01*
X29260416Y-93320833D01*
X29260416Y-93476250D01*
X28854166Y-93476250D01*
X28854166Y-93320833D01*
G37*
G36*
X28989583Y-84789583D02*
G01*
X29802083Y-84789583D01*
X29802083Y-84945000D01*
X28989583Y-84945000D01*
X28989583Y-84789583D01*
G37*
G36*
X28989583Y-92237500D02*
G01*
X29802083Y-92237500D01*
X29802083Y-92392916D01*
X28989583Y-92392916D01*
X28989583Y-92237500D01*
G37*
G36*
X28989583Y-93456250D02*
G01*
X29531250Y-93456250D01*
X29531250Y-93611666D01*
X28989583Y-93611666D01*
X28989583Y-93456250D01*
G37*
G36*
X28989583Y-93591666D02*
G01*
X29666666Y-93591666D01*
X29666666Y-93747083D01*
X28989583Y-93747083D01*
X28989583Y-93591666D01*
G37*
G36*
X29125000Y-92372916D02*
G01*
X29802083Y-92372916D01*
X29802083Y-92528333D01*
X29125000Y-92528333D01*
X29125000Y-92372916D01*
G37*
G36*
X29125000Y-93727083D02*
G01*
X29802083Y-93727083D01*
X29802083Y-93882500D01*
X29125000Y-93882500D01*
X29125000Y-93727083D01*
G37*
G36*
X29125000Y-94810416D02*
G01*
X30208333Y-94810416D01*
X30208333Y-94965833D01*
X29125000Y-94965833D01*
X29125000Y-94810416D01*
G37*
G36*
X29260416Y-92508333D02*
G01*
X29937500Y-92508333D01*
X29937500Y-92663750D01*
X29260416Y-92663750D01*
X29260416Y-92508333D01*
G37*
G36*
X29260416Y-93862500D02*
G01*
X30072916Y-93862500D01*
X30072916Y-94017916D01*
X29260416Y-94017916D01*
X29260416Y-93862500D01*
G37*
G36*
X29395833Y-91425000D02*
G01*
X29937500Y-91425000D01*
X29937500Y-91580416D01*
X29395833Y-91580416D01*
X29395833Y-91425000D01*
G37*
G36*
X29395833Y-92643750D02*
G01*
X29937500Y-92643750D01*
X29937500Y-92799166D01*
X29395833Y-92799166D01*
X29395833Y-92643750D01*
G37*
G36*
X29531250Y-84925000D02*
G01*
X30343750Y-84925000D01*
X30343750Y-85080416D01*
X29531250Y-85080416D01*
X29531250Y-84925000D01*
G37*
G36*
X29531250Y-91560416D02*
G01*
X30208333Y-91560416D01*
X30208333Y-91715833D01*
X29531250Y-91715833D01*
X29531250Y-91560416D01*
G37*
G36*
X29531250Y-93997916D02*
G01*
X30343750Y-93997916D01*
X30343750Y-94153333D01*
X29531250Y-94153333D01*
X29531250Y-93997916D01*
G37*
G36*
X29531250Y-94675000D02*
G01*
X29937500Y-94675000D01*
X29937500Y-94830416D01*
X29531250Y-94830416D01*
X29531250Y-94675000D01*
G37*
G36*
X29666666Y-91695833D02*
G01*
X30343750Y-91695833D01*
X30343750Y-91851250D01*
X29666666Y-91851250D01*
X29666666Y-91695833D01*
G37*
G36*
X29666666Y-92779166D02*
G01*
X30072916Y-92779166D01*
X30072916Y-92934583D01*
X29666666Y-92934583D01*
X29666666Y-92779166D01*
G37*
G36*
X29666666Y-94133333D02*
G01*
X30750000Y-94133333D01*
X30750000Y-94288750D01*
X29666666Y-94288750D01*
X29666666Y-94133333D01*
G37*
G36*
X29802083Y-91831250D02*
G01*
X30479166Y-91831250D01*
X30479166Y-91986666D01*
X29802083Y-91986666D01*
X29802083Y-91831250D01*
G37*
G36*
X29802083Y-92914583D02*
G01*
X30072916Y-92914583D01*
X30072916Y-93070000D01*
X29802083Y-93070000D01*
X29802083Y-92914583D01*
G37*
G36*
X29802083Y-94268750D02*
G01*
X31020833Y-94268750D01*
X31020833Y-94424166D01*
X29802083Y-94424166D01*
X29802083Y-94268750D01*
G37*
G36*
X29937500Y-85060416D02*
G01*
X30750000Y-85060416D01*
X30750000Y-85215833D01*
X29937500Y-85215833D01*
X29937500Y-85060416D01*
G37*
G36*
X29937500Y-91966666D02*
G01*
X30614583Y-91966666D01*
X30614583Y-92122083D01*
X29937500Y-92122083D01*
X29937500Y-91966666D01*
G37*
G36*
X30072916Y-92102083D02*
G01*
X30750000Y-92102083D01*
X30750000Y-92257500D01*
X30072916Y-92257500D01*
X30072916Y-92102083D01*
G37*
G36*
X30072916Y-92237500D02*
G01*
X30750000Y-92237500D01*
X30750000Y-92392916D01*
X30072916Y-92392916D01*
X30072916Y-92237500D01*
G37*
G36*
X30072916Y-94404166D02*
G01*
X31968750Y-94404166D01*
X31968750Y-94559583D01*
X30072916Y-94559583D01*
X30072916Y-94404166D01*
G37*
G36*
X30208333Y-85195833D02*
G01*
X31020833Y-85195833D01*
X31020833Y-85351250D01*
X30208333Y-85351250D01*
X30208333Y-85195833D01*
G37*
G36*
X30208333Y-92372916D02*
G01*
X30885416Y-92372916D01*
X30885416Y-92528333D01*
X30208333Y-92528333D01*
X30208333Y-92372916D01*
G37*
G36*
X30208333Y-92508333D02*
G01*
X31020833Y-92508333D01*
X31020833Y-92663750D01*
X30208333Y-92663750D01*
X30208333Y-92508333D01*
G37*
G36*
X30208333Y-94539583D02*
G01*
X32104166Y-94539583D01*
X32104166Y-94695000D01*
X30208333Y-94695000D01*
X30208333Y-94539583D01*
G37*
G36*
X30343750Y-92643750D02*
G01*
X31020833Y-92643750D01*
X31020833Y-92799166D01*
X30343750Y-92799166D01*
X30343750Y-92643750D01*
G37*
G36*
X30343750Y-92779166D02*
G01*
X31156250Y-92779166D01*
X31156250Y-92934583D01*
X30343750Y-92934583D01*
X30343750Y-92779166D01*
G37*
G36*
X30479166Y-85331250D02*
G01*
X31291666Y-85331250D01*
X31291666Y-85486666D01*
X30479166Y-85486666D01*
X30479166Y-85331250D01*
G37*
G36*
X30479166Y-92914583D02*
G01*
X31156250Y-92914583D01*
X31156250Y-93070000D01*
X30479166Y-93070000D01*
X30479166Y-92914583D01*
G37*
G36*
X30479166Y-93050000D02*
G01*
X31291666Y-93050000D01*
X31291666Y-93205416D01*
X30479166Y-93205416D01*
X30479166Y-93050000D01*
G37*
G36*
X30479166Y-94675000D02*
G01*
X32239583Y-94675000D01*
X32239583Y-94830416D01*
X30479166Y-94830416D01*
X30479166Y-94675000D01*
G37*
G36*
X30614583Y-93185416D02*
G01*
X31291666Y-93185416D01*
X31291666Y-93340833D01*
X30614583Y-93340833D01*
X30614583Y-93185416D01*
G37*
G36*
X30614583Y-93320833D02*
G01*
X31427083Y-93320833D01*
X31427083Y-93476250D01*
X30614583Y-93476250D01*
X30614583Y-93320833D01*
G37*
G36*
X30614583Y-93456250D02*
G01*
X31427083Y-93456250D01*
X31427083Y-93611666D01*
X30614583Y-93611666D01*
X30614583Y-93456250D01*
G37*
G36*
X30750000Y-85466666D02*
G01*
X31562500Y-85466666D01*
X31562500Y-85622083D01*
X30750000Y-85622083D01*
X30750000Y-85466666D01*
G37*
G36*
X30750000Y-93591666D02*
G01*
X31562500Y-93591666D01*
X31562500Y-93747083D01*
X30750000Y-93747083D01*
X30750000Y-93591666D01*
G37*
G36*
X30750000Y-94810416D02*
G01*
X32375000Y-94810416D01*
X32375000Y-94965833D01*
X30750000Y-94965833D01*
X30750000Y-94810416D01*
G37*
G36*
X30885416Y-93727083D02*
G01*
X31562500Y-93727083D01*
X31562500Y-93882500D01*
X30885416Y-93882500D01*
X30885416Y-93727083D01*
G37*
G36*
X30885416Y-93862500D02*
G01*
X31697916Y-93862500D01*
X31697916Y-94017916D01*
X30885416Y-94017916D01*
X30885416Y-93862500D01*
G37*
G36*
X30885416Y-94945833D02*
G01*
X32510416Y-94945833D01*
X32510416Y-95101250D01*
X30885416Y-95101250D01*
X30885416Y-94945833D01*
G37*
G36*
X31020833Y-85602083D02*
G01*
X31697916Y-85602083D01*
X31697916Y-85757500D01*
X31020833Y-85757500D01*
X31020833Y-85602083D01*
G37*
G36*
X31020833Y-93997916D02*
G01*
X31697916Y-93997916D01*
X31697916Y-94153333D01*
X31020833Y-94153333D01*
X31020833Y-93997916D01*
G37*
G36*
X31020833Y-94133333D02*
G01*
X31833333Y-94133333D01*
X31833333Y-94288750D01*
X31020833Y-94288750D01*
X31020833Y-94133333D01*
G37*
G36*
X31156250Y-85737500D02*
G01*
X31968750Y-85737500D01*
X31968750Y-85892916D01*
X31156250Y-85892916D01*
X31156250Y-85737500D01*
G37*
G36*
X31156250Y-94268750D02*
G01*
X31968750Y-94268750D01*
X31968750Y-94424166D01*
X31156250Y-94424166D01*
X31156250Y-94268750D01*
G37*
G36*
X31156250Y-95081250D02*
G01*
X32645833Y-95081250D01*
X32645833Y-95236666D01*
X31156250Y-95236666D01*
X31156250Y-95081250D01*
G37*
G36*
X31291666Y-85872916D02*
G01*
X32104166Y-85872916D01*
X32104166Y-86028333D01*
X31291666Y-86028333D01*
X31291666Y-85872916D01*
G37*
G36*
X31291666Y-89664583D02*
G01*
X31968750Y-89664583D01*
X31968750Y-89820000D01*
X31291666Y-89820000D01*
X31291666Y-89664583D01*
G37*
G36*
X31427083Y-89529166D02*
G01*
X31833333Y-89529166D01*
X31833333Y-89684583D01*
X31427083Y-89684583D01*
X31427083Y-89529166D01*
G37*
G36*
X31427083Y-89800000D02*
G01*
X31697916Y-89800000D01*
X31697916Y-89955416D01*
X31427083Y-89955416D01*
X31427083Y-89800000D01*
G37*
G36*
X31427083Y-95216666D02*
G01*
X32781250Y-95216666D01*
X32781250Y-95372083D01*
X31427083Y-95372083D01*
X31427083Y-95216666D01*
G37*
G36*
X31562500Y-86008333D02*
G01*
X32239583Y-86008333D01*
X32239583Y-86163750D01*
X31562500Y-86163750D01*
X31562500Y-86008333D01*
G37*
G36*
X31562500Y-89393750D02*
G01*
X31697916Y-89393750D01*
X31697916Y-89549166D01*
X31562500Y-89549166D01*
X31562500Y-89393750D01*
G37*
G36*
X31562500Y-89935416D02*
G01*
X31697916Y-89935416D01*
X31697916Y-90090833D01*
X31562500Y-90090833D01*
X31562500Y-89935416D01*
G37*
G36*
X31697916Y-86143750D02*
G01*
X32375000Y-86143750D01*
X32375000Y-86299166D01*
X31697916Y-86299166D01*
X31697916Y-86143750D01*
G37*
G36*
X31697916Y-93320833D02*
G01*
X32916666Y-93320833D01*
X32916666Y-93476250D01*
X31697916Y-93476250D01*
X31697916Y-93320833D01*
G37*
G36*
X31697916Y-93456250D02*
G01*
X32916666Y-93456250D01*
X32916666Y-93611666D01*
X31697916Y-93611666D01*
X31697916Y-93456250D01*
G37*
G36*
X31833333Y-86279166D02*
G01*
X32510416Y-86279166D01*
X32510416Y-86434583D01*
X31833333Y-86434583D01*
X31833333Y-86279166D01*
G37*
G36*
X31833333Y-86414583D02*
G01*
X32645833Y-86414583D01*
X32645833Y-86570000D01*
X31833333Y-86570000D01*
X31833333Y-86414583D01*
G37*
G36*
X31833333Y-93185416D02*
G01*
X33052083Y-93185416D01*
X33052083Y-93340833D01*
X31833333Y-93340833D01*
X31833333Y-93185416D01*
G37*
G36*
X31833333Y-93591666D02*
G01*
X32781250Y-93591666D01*
X32781250Y-93747083D01*
X31833333Y-93747083D01*
X31833333Y-93591666D01*
G37*
G36*
X31833333Y-95352083D02*
G01*
X32781250Y-95352083D01*
X32781250Y-95507500D01*
X31833333Y-95507500D01*
X31833333Y-95352083D01*
G37*
G36*
X31968750Y-86550000D02*
G01*
X32781250Y-86550000D01*
X32781250Y-86705416D01*
X31968750Y-86705416D01*
X31968750Y-86550000D01*
G37*
G36*
X31968750Y-93050000D02*
G01*
X33187500Y-93050000D01*
X33187500Y-93205416D01*
X31968750Y-93205416D01*
X31968750Y-93050000D01*
G37*
G36*
X31968750Y-93727083D02*
G01*
X32645833Y-93727083D01*
X32645833Y-93882500D01*
X31968750Y-93882500D01*
X31968750Y-93727083D01*
G37*
G36*
X31968750Y-93862500D02*
G01*
X32510416Y-93862500D01*
X32510416Y-94017916D01*
X31968750Y-94017916D01*
X31968750Y-93862500D01*
G37*
G36*
X32104166Y-86685416D02*
G01*
X32916666Y-86685416D01*
X32916666Y-86840833D01*
X32104166Y-86840833D01*
X32104166Y-86685416D01*
G37*
G36*
X32104166Y-92914583D02*
G01*
X33187500Y-92914583D01*
X33187500Y-93070000D01*
X32104166Y-93070000D01*
X32104166Y-92914583D01*
G37*
G36*
X32104166Y-93997916D02*
G01*
X32375000Y-93997916D01*
X32375000Y-94153333D01*
X32104166Y-94153333D01*
X32104166Y-93997916D01*
G37*
G36*
X32104166Y-95487500D02*
G01*
X32916666Y-95487500D01*
X32916666Y-95642916D01*
X32104166Y-95642916D01*
X32104166Y-95487500D01*
G37*
G36*
X32239583Y-86820833D02*
G01*
X32916666Y-86820833D01*
X32916666Y-86976250D01*
X32239583Y-86976250D01*
X32239583Y-86820833D01*
G37*
G36*
X32239583Y-92643750D02*
G01*
X33322916Y-92643750D01*
X33322916Y-92799166D01*
X32239583Y-92799166D01*
X32239583Y-92643750D01*
G37*
G36*
X32239583Y-92779166D02*
G01*
X33322916Y-92779166D01*
X33322916Y-92934583D01*
X32239583Y-92934583D01*
X32239583Y-92779166D01*
G37*
G36*
X32375000Y-86956250D02*
G01*
X33052083Y-86956250D01*
X33052083Y-87111666D01*
X32375000Y-87111666D01*
X32375000Y-86956250D01*
G37*
G36*
X32375000Y-87091666D02*
G01*
X33187500Y-87091666D01*
X33187500Y-87247083D01*
X32375000Y-87247083D01*
X32375000Y-87091666D01*
G37*
G36*
X32375000Y-92372916D02*
G01*
X33458333Y-92372916D01*
X33458333Y-92528333D01*
X32375000Y-92528333D01*
X32375000Y-92372916D01*
G37*
G36*
X32375000Y-92508333D02*
G01*
X33458333Y-92508333D01*
X33458333Y-92663750D01*
X32375000Y-92663750D01*
X32375000Y-92508333D01*
G37*
G36*
X32375000Y-95622916D02*
G01*
X33187500Y-95622916D01*
X33187500Y-95778333D01*
X32375000Y-95778333D01*
X32375000Y-95622916D01*
G37*
G36*
X32510416Y-87227083D02*
G01*
X33187500Y-87227083D01*
X33187500Y-87382500D01*
X32510416Y-87382500D01*
X32510416Y-87227083D01*
G37*
G36*
X32510416Y-87362500D02*
G01*
X33322916Y-87362500D01*
X33322916Y-87517916D01*
X32510416Y-87517916D01*
X32510416Y-87362500D01*
G37*
G36*
X32510416Y-92237500D02*
G01*
X33593750Y-92237500D01*
X33593750Y-92392916D01*
X32510416Y-92392916D01*
X32510416Y-92237500D01*
G37*
G36*
X32645833Y-87497916D02*
G01*
X33322916Y-87497916D01*
X33322916Y-87653333D01*
X32645833Y-87653333D01*
X32645833Y-87497916D01*
G37*
G36*
X32645833Y-87633333D02*
G01*
X33458333Y-87633333D01*
X33458333Y-87788750D01*
X32645833Y-87788750D01*
X32645833Y-87633333D01*
G37*
G36*
X32645833Y-91966666D02*
G01*
X33729166Y-91966666D01*
X33729166Y-92122083D01*
X32645833Y-92122083D01*
X32645833Y-91966666D01*
G37*
G36*
X32645833Y-92102083D02*
G01*
X33593750Y-92102083D01*
X33593750Y-92257500D01*
X32645833Y-92257500D01*
X32645833Y-92102083D01*
G37*
G36*
X32781250Y-87768750D02*
G01*
X33458333Y-87768750D01*
X33458333Y-87924166D01*
X32781250Y-87924166D01*
X32781250Y-87768750D01*
G37*
G36*
X32781250Y-87904166D02*
G01*
X33593750Y-87904166D01*
X33593750Y-88059583D01*
X32781250Y-88059583D01*
X32781250Y-87904166D01*
G37*
G36*
X32781250Y-88039583D02*
G01*
X33593750Y-88039583D01*
X33593750Y-88195000D01*
X32781250Y-88195000D01*
X32781250Y-88039583D01*
G37*
G36*
X32781250Y-91560416D02*
G01*
X33729166Y-91560416D01*
X33729166Y-91715833D01*
X32781250Y-91715833D01*
X32781250Y-91560416D01*
G37*
G36*
X32781250Y-91695833D02*
G01*
X33729166Y-91695833D01*
X33729166Y-91851250D01*
X32781250Y-91851250D01*
X32781250Y-91695833D01*
G37*
G36*
X32781250Y-91831250D02*
G01*
X33729166Y-91831250D01*
X33729166Y-91986666D01*
X32781250Y-91986666D01*
X32781250Y-91831250D01*
G37*
G36*
X32781250Y-95758333D02*
G01*
X33322916Y-95758333D01*
X33322916Y-95913750D01*
X32781250Y-95913750D01*
X32781250Y-95758333D01*
G37*
G36*
X32916666Y-88175000D02*
G01*
X33729166Y-88175000D01*
X33729166Y-88330416D01*
X32916666Y-88330416D01*
X32916666Y-88175000D01*
G37*
G36*
X32916666Y-88310416D02*
G01*
X33729166Y-88310416D01*
X33729166Y-88465833D01*
X32916666Y-88465833D01*
X32916666Y-88310416D01*
G37*
G36*
X32916666Y-88445833D02*
G01*
X33729166Y-88445833D01*
X33729166Y-88601250D01*
X32916666Y-88601250D01*
X32916666Y-88445833D01*
G37*
G36*
X32916666Y-91154166D02*
G01*
X33864583Y-91154166D01*
X33864583Y-91309583D01*
X32916666Y-91309583D01*
X32916666Y-91154166D01*
G37*
G36*
X32916666Y-91289583D02*
G01*
X33864583Y-91289583D01*
X33864583Y-91445000D01*
X32916666Y-91445000D01*
X32916666Y-91289583D01*
G37*
G36*
X32916666Y-91425000D02*
G01*
X33864583Y-91425000D01*
X33864583Y-91580416D01*
X32916666Y-91580416D01*
X32916666Y-91425000D01*
G37*
G36*
X33052083Y-88581250D02*
G01*
X33729166Y-88581250D01*
X33729166Y-88736666D01*
X33052083Y-88736666D01*
X33052083Y-88581250D01*
G37*
G36*
X33052083Y-88716666D02*
G01*
X33864583Y-88716666D01*
X33864583Y-88872083D01*
X33052083Y-88872083D01*
X33052083Y-88716666D01*
G37*
G36*
X33052083Y-88852083D02*
G01*
X33864583Y-88852083D01*
X33864583Y-89007500D01*
X33052083Y-89007500D01*
X33052083Y-88852083D01*
G37*
G36*
X33052083Y-88987500D02*
G01*
X33864583Y-88987500D01*
X33864583Y-89142916D01*
X33052083Y-89142916D01*
X33052083Y-88987500D01*
G37*
G36*
X33052083Y-89122916D02*
G01*
X33864583Y-89122916D01*
X33864583Y-89278333D01*
X33052083Y-89278333D01*
X33052083Y-89122916D01*
G37*
G36*
X33052083Y-89258333D02*
G01*
X34000000Y-89258333D01*
X34000000Y-89413750D01*
X33052083Y-89413750D01*
X33052083Y-89258333D01*
G37*
G36*
X33052083Y-90341666D02*
G01*
X34000000Y-90341666D01*
X34000000Y-90497083D01*
X33052083Y-90497083D01*
X33052083Y-90341666D01*
G37*
G36*
X33052083Y-90477083D02*
G01*
X34000000Y-90477083D01*
X34000000Y-90632500D01*
X33052083Y-90632500D01*
X33052083Y-90477083D01*
G37*
G36*
X33052083Y-90612500D02*
G01*
X34000000Y-90612500D01*
X34000000Y-90767916D01*
X33052083Y-90767916D01*
X33052083Y-90612500D01*
G37*
G36*
X33052083Y-90747916D02*
G01*
X34000000Y-90747916D01*
X34000000Y-90903333D01*
X33052083Y-90903333D01*
X33052083Y-90747916D01*
G37*
G36*
X33052083Y-90883333D02*
G01*
X34000000Y-90883333D01*
X34000000Y-91038750D01*
X33052083Y-91038750D01*
X33052083Y-90883333D01*
G37*
G36*
X33052083Y-91018750D02*
G01*
X33864583Y-91018750D01*
X33864583Y-91174166D01*
X33052083Y-91174166D01*
X33052083Y-91018750D01*
G37*
G36*
X33187500Y-89393750D02*
G01*
X34000000Y-89393750D01*
X34000000Y-89549166D01*
X33187500Y-89549166D01*
X33187500Y-89393750D01*
G37*
G36*
X33187500Y-89529166D02*
G01*
X34000000Y-89529166D01*
X34000000Y-89684583D01*
X33187500Y-89684583D01*
X33187500Y-89529166D01*
G37*
G36*
X33187500Y-89664583D02*
G01*
X34000000Y-89664583D01*
X34000000Y-89820000D01*
X33187500Y-89820000D01*
X33187500Y-89664583D01*
G37*
G36*
X33187500Y-89800000D02*
G01*
X34000000Y-89800000D01*
X34000000Y-89955416D01*
X33187500Y-89955416D01*
X33187500Y-89800000D01*
G37*
G36*
X33187500Y-89935416D02*
G01*
X34000000Y-89935416D01*
X34000000Y-90090833D01*
X33187500Y-90090833D01*
X33187500Y-89935416D01*
G37*
G36*
X33187500Y-90070833D02*
G01*
X34000000Y-90070833D01*
X34000000Y-90226250D01*
X33187500Y-90226250D01*
X33187500Y-90070833D01*
G37*
G36*
X33187500Y-90206250D02*
G01*
X34000000Y-90206250D01*
X34000000Y-90361666D01*
X33187500Y-90361666D01*
X33187500Y-90206250D01*
G37*
G36*
X33187500Y-95893750D02*
G01*
X33458333Y-95893750D01*
X33458333Y-96049166D01*
X33187500Y-96049166D01*
X33187500Y-95893750D01*
G37*
D10*
X42507142Y-104465147D02*
X42245237Y-105198480D01*
X42245237Y-105198480D02*
X41983332Y-104465147D01*
X41092856Y-105146100D02*
X41197618Y-105198480D01*
X41197618Y-105198480D02*
X41407142Y-105198480D01*
X41407142Y-105198480D02*
X41511904Y-105146100D01*
X41511904Y-105146100D02*
X41564285Y-105093719D01*
X41564285Y-105093719D02*
X41616666Y-104988957D01*
X41616666Y-104988957D02*
X41616666Y-104674671D01*
X41616666Y-104674671D02*
X41564285Y-104569909D01*
X41564285Y-104569909D02*
X41511904Y-104517528D01*
X41511904Y-104517528D02*
X41407142Y-104465147D01*
X41407142Y-104465147D02*
X41197618Y-104465147D01*
X41197618Y-104465147D02*
X41092856Y-104517528D01*
X40149999Y-105198480D02*
X40149999Y-104622290D01*
X40149999Y-104622290D02*
X40202380Y-104517528D01*
X40202380Y-104517528D02*
X40307142Y-104465147D01*
X40307142Y-104465147D02*
X40516666Y-104465147D01*
X40516666Y-104465147D02*
X40621428Y-104517528D01*
X40149999Y-105146100D02*
X40254761Y-105198480D01*
X40254761Y-105198480D02*
X40516666Y-105198480D01*
X40516666Y-105198480D02*
X40621428Y-105146100D01*
X40621428Y-105146100D02*
X40673809Y-105041338D01*
X40673809Y-105041338D02*
X40673809Y-104936576D01*
X40673809Y-104936576D02*
X40621428Y-104831814D01*
X40621428Y-104831814D02*
X40516666Y-104779433D01*
X40516666Y-104779433D02*
X40254761Y-104779433D01*
X40254761Y-104779433D02*
X40149999Y-104727052D01*
X39730952Y-104465147D02*
X39154761Y-104465147D01*
X39154761Y-104465147D02*
X39730952Y-105198480D01*
X39730952Y-105198480D02*
X39154761Y-105198480D01*
X38264285Y-105198480D02*
X38264285Y-104622290D01*
X38264285Y-104622290D02*
X38316666Y-104517528D01*
X38316666Y-104517528D02*
X38421428Y-104465147D01*
X38421428Y-104465147D02*
X38630952Y-104465147D01*
X38630952Y-104465147D02*
X38735714Y-104517528D01*
X38264285Y-105146100D02*
X38369047Y-105198480D01*
X38369047Y-105198480D02*
X38630952Y-105198480D01*
X38630952Y-105198480D02*
X38735714Y-105146100D01*
X38735714Y-105146100D02*
X38788095Y-105041338D01*
X38788095Y-105041338D02*
X38788095Y-104936576D01*
X38788095Y-104936576D02*
X38735714Y-104831814D01*
X38735714Y-104831814D02*
X38630952Y-104779433D01*
X38630952Y-104779433D02*
X38369047Y-104779433D01*
X38369047Y-104779433D02*
X38264285Y-104727052D01*
X37740476Y-104465147D02*
X37740476Y-105198480D01*
X37740476Y-104569909D02*
X37688095Y-104517528D01*
X37688095Y-104517528D02*
X37583333Y-104465147D01*
X37583333Y-104465147D02*
X37426190Y-104465147D01*
X37426190Y-104465147D02*
X37321428Y-104517528D01*
X37321428Y-104517528D02*
X37269047Y-104622290D01*
X37269047Y-104622290D02*
X37269047Y-105198480D01*
X36745238Y-105093719D02*
X36692857Y-105146100D01*
X36692857Y-105146100D02*
X36745238Y-105198480D01*
X36745238Y-105198480D02*
X36797619Y-105146100D01*
X36797619Y-105146100D02*
X36745238Y-105093719D01*
X36745238Y-105093719D02*
X36745238Y-105198480D01*
X35749999Y-104465147D02*
X35749999Y-105355623D01*
X35749999Y-105355623D02*
X35802380Y-105460385D01*
X35802380Y-105460385D02*
X35854761Y-105512766D01*
X35854761Y-105512766D02*
X35959523Y-105565147D01*
X35959523Y-105565147D02*
X36116666Y-105565147D01*
X36116666Y-105565147D02*
X36221428Y-105512766D01*
X35749999Y-105146100D02*
X35854761Y-105198480D01*
X35854761Y-105198480D02*
X36064285Y-105198480D01*
X36064285Y-105198480D02*
X36169047Y-105146100D01*
X36169047Y-105146100D02*
X36221428Y-105093719D01*
X36221428Y-105093719D02*
X36273809Y-104988957D01*
X36273809Y-104988957D02*
X36273809Y-104674671D01*
X36273809Y-104674671D02*
X36221428Y-104569909D01*
X36221428Y-104569909D02*
X36169047Y-104517528D01*
X36169047Y-104517528D02*
X36064285Y-104465147D01*
X36064285Y-104465147D02*
X35854761Y-104465147D01*
X35854761Y-104465147D02*
X35749999Y-104517528D01*
X35226190Y-105198480D02*
X35226190Y-104465147D01*
X35226190Y-104098480D02*
X35278571Y-104150861D01*
X35278571Y-104150861D02*
X35226190Y-104203242D01*
X35226190Y-104203242D02*
X35173809Y-104150861D01*
X35173809Y-104150861D02*
X35226190Y-104098480D01*
X35226190Y-104098480D02*
X35226190Y-104203242D01*
X34859523Y-104465147D02*
X34440475Y-104465147D01*
X34702380Y-104098480D02*
X34702380Y-105041338D01*
X34702380Y-105041338D02*
X34649999Y-105146100D01*
X34649999Y-105146100D02*
X34545237Y-105198480D01*
X34545237Y-105198480D02*
X34440475Y-105198480D01*
X34073809Y-105198480D02*
X34073809Y-104098480D01*
X33602380Y-105198480D02*
X33602380Y-104622290D01*
X33602380Y-104622290D02*
X33654761Y-104517528D01*
X33654761Y-104517528D02*
X33759523Y-104465147D01*
X33759523Y-104465147D02*
X33916666Y-104465147D01*
X33916666Y-104465147D02*
X34021428Y-104517528D01*
X34021428Y-104517528D02*
X34073809Y-104569909D01*
X32607142Y-104465147D02*
X32607142Y-105198480D01*
X33078571Y-104465147D02*
X33078571Y-105041338D01*
X33078571Y-105041338D02*
X33026190Y-105146100D01*
X33026190Y-105146100D02*
X32921428Y-105198480D01*
X32921428Y-105198480D02*
X32764285Y-105198480D01*
X32764285Y-105198480D02*
X32659523Y-105146100D01*
X32659523Y-105146100D02*
X32607142Y-105093719D01*
X32083333Y-105198480D02*
X32083333Y-104098480D01*
X32083333Y-104517528D02*
X31978571Y-104465147D01*
X31978571Y-104465147D02*
X31769047Y-104465147D01*
X31769047Y-104465147D02*
X31664285Y-104517528D01*
X31664285Y-104517528D02*
X31611904Y-104569909D01*
X31611904Y-104569909D02*
X31559523Y-104674671D01*
X31559523Y-104674671D02*
X31559523Y-104988957D01*
X31559523Y-104988957D02*
X31611904Y-105093719D01*
X31611904Y-105093719D02*
X31664285Y-105146100D01*
X31664285Y-105146100D02*
X31769047Y-105198480D01*
X31769047Y-105198480D02*
X31978571Y-105198480D01*
X31978571Y-105198480D02*
X32083333Y-105146100D01*
X31088095Y-105093719D02*
X31035714Y-105146100D01*
X31035714Y-105146100D02*
X31088095Y-105198480D01*
X31088095Y-105198480D02*
X31140476Y-105146100D01*
X31140476Y-105146100D02*
X31088095Y-105093719D01*
X31088095Y-105093719D02*
X31088095Y-105198480D01*
X30564285Y-105198480D02*
X30564285Y-104465147D01*
X30564285Y-104098480D02*
X30616666Y-104150861D01*
X30616666Y-104150861D02*
X30564285Y-104203242D01*
X30564285Y-104203242D02*
X30511904Y-104150861D01*
X30511904Y-104150861D02*
X30564285Y-104098480D01*
X30564285Y-104098480D02*
X30564285Y-104203242D01*
X29883332Y-105198480D02*
X29988094Y-105146100D01*
X29988094Y-105146100D02*
X30040475Y-105093719D01*
X30040475Y-105093719D02*
X30092856Y-104988957D01*
X30092856Y-104988957D02*
X30092856Y-104674671D01*
X30092856Y-104674671D02*
X30040475Y-104569909D01*
X30040475Y-104569909D02*
X29988094Y-104517528D01*
X29988094Y-104517528D02*
X29883332Y-104465147D01*
X29883332Y-104465147D02*
X29726189Y-104465147D01*
X29726189Y-104465147D02*
X29621427Y-104517528D01*
X29621427Y-104517528D02*
X29569046Y-104569909D01*
X29569046Y-104569909D02*
X29516665Y-104674671D01*
X29516665Y-104674671D02*
X29516665Y-104988957D01*
X29516665Y-104988957D02*
X29569046Y-105093719D01*
X29569046Y-105093719D02*
X29621427Y-105146100D01*
X29621427Y-105146100D02*
X29726189Y-105198480D01*
X29726189Y-105198480D02*
X29883332Y-105198480D01*
X28259522Y-104046100D02*
X29202380Y-105460385D01*
X27735713Y-105198480D02*
X27840475Y-105146100D01*
X27840475Y-105146100D02*
X27892856Y-105093719D01*
X27892856Y-105093719D02*
X27945237Y-104988957D01*
X27945237Y-104988957D02*
X27945237Y-104674671D01*
X27945237Y-104674671D02*
X27892856Y-104569909D01*
X27892856Y-104569909D02*
X27840475Y-104517528D01*
X27840475Y-104517528D02*
X27735713Y-104465147D01*
X27735713Y-104465147D02*
X27578570Y-104465147D01*
X27578570Y-104465147D02*
X27473808Y-104517528D01*
X27473808Y-104517528D02*
X27421427Y-104569909D01*
X27421427Y-104569909D02*
X27369046Y-104674671D01*
X27369046Y-104674671D02*
X27369046Y-104988957D01*
X27369046Y-104988957D02*
X27421427Y-105093719D01*
X27421427Y-105093719D02*
X27473808Y-105146100D01*
X27473808Y-105146100D02*
X27578570Y-105198480D01*
X27578570Y-105198480D02*
X27735713Y-105198480D01*
X26897618Y-104465147D02*
X26897618Y-105565147D01*
X26897618Y-104517528D02*
X26792856Y-104465147D01*
X26792856Y-104465147D02*
X26583332Y-104465147D01*
X26583332Y-104465147D02*
X26478570Y-104517528D01*
X26478570Y-104517528D02*
X26426189Y-104569909D01*
X26426189Y-104569909D02*
X26373808Y-104674671D01*
X26373808Y-104674671D02*
X26373808Y-104988957D01*
X26373808Y-104988957D02*
X26426189Y-105093719D01*
X26426189Y-105093719D02*
X26478570Y-105146100D01*
X26478570Y-105146100D02*
X26583332Y-105198480D01*
X26583332Y-105198480D02*
X26792856Y-105198480D01*
X26792856Y-105198480D02*
X26897618Y-105146100D01*
X25483332Y-105146100D02*
X25588094Y-105198480D01*
X25588094Y-105198480D02*
X25797618Y-105198480D01*
X25797618Y-105198480D02*
X25902380Y-105146100D01*
X25902380Y-105146100D02*
X25954761Y-105041338D01*
X25954761Y-105041338D02*
X25954761Y-104622290D01*
X25954761Y-104622290D02*
X25902380Y-104517528D01*
X25902380Y-104517528D02*
X25797618Y-104465147D01*
X25797618Y-104465147D02*
X25588094Y-104465147D01*
X25588094Y-104465147D02*
X25483332Y-104517528D01*
X25483332Y-104517528D02*
X25430951Y-104622290D01*
X25430951Y-104622290D02*
X25430951Y-104727052D01*
X25430951Y-104727052D02*
X25954761Y-104831814D01*
X24959523Y-104465147D02*
X24959523Y-105198480D01*
X24959523Y-104569909D02*
X24907142Y-104517528D01*
X24907142Y-104517528D02*
X24802380Y-104465147D01*
X24802380Y-104465147D02*
X24645237Y-104465147D01*
X24645237Y-104465147D02*
X24540475Y-104517528D01*
X24540475Y-104517528D02*
X24488094Y-104622290D01*
X24488094Y-104622290D02*
X24488094Y-105198480D01*
X23964285Y-104779433D02*
X23126190Y-104779433D01*
X22654761Y-105146100D02*
X22549999Y-105198480D01*
X22549999Y-105198480D02*
X22340475Y-105198480D01*
X22340475Y-105198480D02*
X22235713Y-105146100D01*
X22235713Y-105146100D02*
X22183332Y-105041338D01*
X22183332Y-105041338D02*
X22183332Y-104988957D01*
X22183332Y-104988957D02*
X22235713Y-104884195D01*
X22235713Y-104884195D02*
X22340475Y-104831814D01*
X22340475Y-104831814D02*
X22497618Y-104831814D01*
X22497618Y-104831814D02*
X22602380Y-104779433D01*
X22602380Y-104779433D02*
X22654761Y-104674671D01*
X22654761Y-104674671D02*
X22654761Y-104622290D01*
X22654761Y-104622290D02*
X22602380Y-104517528D01*
X22602380Y-104517528D02*
X22497618Y-104465147D01*
X22497618Y-104465147D02*
X22340475Y-104465147D01*
X22340475Y-104465147D02*
X22235713Y-104517528D01*
X21240475Y-105146100D02*
X21345237Y-105198480D01*
X21345237Y-105198480D02*
X21554761Y-105198480D01*
X21554761Y-105198480D02*
X21659523Y-105146100D01*
X21659523Y-105146100D02*
X21711904Y-105093719D01*
X21711904Y-105093719D02*
X21764285Y-104988957D01*
X21764285Y-104988957D02*
X21764285Y-104674671D01*
X21764285Y-104674671D02*
X21711904Y-104569909D01*
X21711904Y-104569909D02*
X21659523Y-104517528D01*
X21659523Y-104517528D02*
X21554761Y-104465147D01*
X21554761Y-104465147D02*
X21345237Y-104465147D01*
X21345237Y-104465147D02*
X21240475Y-104517528D01*
X20769047Y-105198480D02*
X20769047Y-104465147D01*
X20769047Y-104674671D02*
X20716666Y-104569909D01*
X20716666Y-104569909D02*
X20664285Y-104517528D01*
X20664285Y-104517528D02*
X20559523Y-104465147D01*
X20559523Y-104465147D02*
X20454761Y-104465147D01*
X19669047Y-105146100D02*
X19773809Y-105198480D01*
X19773809Y-105198480D02*
X19983333Y-105198480D01*
X19983333Y-105198480D02*
X20088095Y-105146100D01*
X20088095Y-105146100D02*
X20140476Y-105041338D01*
X20140476Y-105041338D02*
X20140476Y-104622290D01*
X20140476Y-104622290D02*
X20088095Y-104517528D01*
X20088095Y-104517528D02*
X19983333Y-104465147D01*
X19983333Y-104465147D02*
X19773809Y-104465147D01*
X19773809Y-104465147D02*
X19669047Y-104517528D01*
X19669047Y-104517528D02*
X19616666Y-104622290D01*
X19616666Y-104622290D02*
X19616666Y-104727052D01*
X19616666Y-104727052D02*
X20140476Y-104831814D01*
X18726190Y-105146100D02*
X18830952Y-105198480D01*
X18830952Y-105198480D02*
X19040476Y-105198480D01*
X19040476Y-105198480D02*
X19145238Y-105146100D01*
X19145238Y-105146100D02*
X19197619Y-105041338D01*
X19197619Y-105041338D02*
X19197619Y-104622290D01*
X19197619Y-104622290D02*
X19145238Y-104517528D01*
X19145238Y-104517528D02*
X19040476Y-104465147D01*
X19040476Y-104465147D02*
X18830952Y-104465147D01*
X18830952Y-104465147D02*
X18726190Y-104517528D01*
X18726190Y-104517528D02*
X18673809Y-104622290D01*
X18673809Y-104622290D02*
X18673809Y-104727052D01*
X18673809Y-104727052D02*
X19197619Y-104831814D01*
X18202381Y-104465147D02*
X18202381Y-105198480D01*
X18202381Y-104569909D02*
X18150000Y-104517528D01*
X18150000Y-104517528D02*
X18045238Y-104465147D01*
X18045238Y-104465147D02*
X17888095Y-104465147D01*
X17888095Y-104465147D02*
X17783333Y-104517528D01*
X17783333Y-104517528D02*
X17730952Y-104622290D01*
X17730952Y-104622290D02*
X17730952Y-105198480D01*
X17207143Y-104779433D02*
X16369048Y-104779433D01*
X15373809Y-105198480D02*
X15373809Y-104098480D01*
X15373809Y-105146100D02*
X15478571Y-105198480D01*
X15478571Y-105198480D02*
X15688095Y-105198480D01*
X15688095Y-105198480D02*
X15792857Y-105146100D01*
X15792857Y-105146100D02*
X15845238Y-105093719D01*
X15845238Y-105093719D02*
X15897619Y-104988957D01*
X15897619Y-104988957D02*
X15897619Y-104674671D01*
X15897619Y-104674671D02*
X15845238Y-104569909D01*
X15845238Y-104569909D02*
X15792857Y-104517528D01*
X15792857Y-104517528D02*
X15688095Y-104465147D01*
X15688095Y-104465147D02*
X15478571Y-104465147D01*
X15478571Y-104465147D02*
X15373809Y-104517528D01*
X14430952Y-105146100D02*
X14535714Y-105198480D01*
X14535714Y-105198480D02*
X14745238Y-105198480D01*
X14745238Y-105198480D02*
X14850000Y-105146100D01*
X14850000Y-105146100D02*
X14902381Y-105041338D01*
X14902381Y-105041338D02*
X14902381Y-104622290D01*
X14902381Y-104622290D02*
X14850000Y-104517528D01*
X14850000Y-104517528D02*
X14745238Y-104465147D01*
X14745238Y-104465147D02*
X14535714Y-104465147D01*
X14535714Y-104465147D02*
X14430952Y-104517528D01*
X14430952Y-104517528D02*
X14378571Y-104622290D01*
X14378571Y-104622290D02*
X14378571Y-104727052D01*
X14378571Y-104727052D02*
X14902381Y-104831814D01*
X13435714Y-105146100D02*
X13540476Y-105198480D01*
X13540476Y-105198480D02*
X13750000Y-105198480D01*
X13750000Y-105198480D02*
X13854762Y-105146100D01*
X13854762Y-105146100D02*
X13907143Y-105093719D01*
X13907143Y-105093719D02*
X13959524Y-104988957D01*
X13959524Y-104988957D02*
X13959524Y-104674671D01*
X13959524Y-104674671D02*
X13907143Y-104569909D01*
X13907143Y-104569909D02*
X13854762Y-104517528D01*
X13854762Y-104517528D02*
X13750000Y-104465147D01*
X13750000Y-104465147D02*
X13540476Y-104465147D01*
X13540476Y-104465147D02*
X13435714Y-104517528D01*
X12964286Y-105198480D02*
X12964286Y-104098480D01*
X12859524Y-104779433D02*
X12545238Y-105198480D01*
X12545238Y-104465147D02*
X12964286Y-104884195D01*
D11*
X34866666Y-103035186D02*
X35333333Y-102368520D01*
X35666666Y-103035186D02*
X35666666Y-101635186D01*
X35666666Y-101635186D02*
X35133333Y-101635186D01*
X35133333Y-101635186D02*
X35000000Y-101701853D01*
X35000000Y-101701853D02*
X34933333Y-101768520D01*
X34933333Y-101768520D02*
X34866666Y-101901853D01*
X34866666Y-101901853D02*
X34866666Y-102101853D01*
X34866666Y-102101853D02*
X34933333Y-102235186D01*
X34933333Y-102235186D02*
X35000000Y-102301853D01*
X35000000Y-102301853D02*
X35133333Y-102368520D01*
X35133333Y-102368520D02*
X35666666Y-102368520D01*
X34266666Y-102301853D02*
X33800000Y-102301853D01*
X33600000Y-103035186D02*
X34266666Y-103035186D01*
X34266666Y-103035186D02*
X34266666Y-101635186D01*
X34266666Y-101635186D02*
X33600000Y-101635186D01*
X33199999Y-101635186D02*
X32733333Y-103035186D01*
X32733333Y-103035186D02*
X32266666Y-101635186D01*
X29933332Y-102901853D02*
X29999999Y-102968520D01*
X29999999Y-102968520D02*
X30199999Y-103035186D01*
X30199999Y-103035186D02*
X30333332Y-103035186D01*
X30333332Y-103035186D02*
X30533332Y-102968520D01*
X30533332Y-102968520D02*
X30666666Y-102835186D01*
X30666666Y-102835186D02*
X30733332Y-102701853D01*
X30733332Y-102701853D02*
X30799999Y-102435186D01*
X30799999Y-102435186D02*
X30799999Y-102235186D01*
X30799999Y-102235186D02*
X30733332Y-101968520D01*
X30733332Y-101968520D02*
X30666666Y-101835186D01*
X30666666Y-101835186D02*
X30533332Y-101701853D01*
X30533332Y-101701853D02*
X30333332Y-101635186D01*
X30333332Y-101635186D02*
X30199999Y-101635186D01*
X30199999Y-101635186D02*
X29999999Y-101701853D01*
X29999999Y-101701853D02*
X29933332Y-101768520D01*
X26999998Y-102435186D02*
X27066665Y-102501853D01*
X27066665Y-102501853D02*
X26999998Y-102568520D01*
X26999998Y-102568520D02*
X26933332Y-102501853D01*
X26933332Y-102501853D02*
X26999998Y-102435186D01*
X26999998Y-102435186D02*
X26999998Y-102568520D01*
X24066664Y-101768520D02*
X23999997Y-101701853D01*
X23999997Y-101701853D02*
X23866664Y-101635186D01*
X23866664Y-101635186D02*
X23533331Y-101635186D01*
X23533331Y-101635186D02*
X23399997Y-101701853D01*
X23399997Y-101701853D02*
X23333331Y-101768520D01*
X23333331Y-101768520D02*
X23266664Y-101901853D01*
X23266664Y-101901853D02*
X23266664Y-102035186D01*
X23266664Y-102035186D02*
X23333331Y-102235186D01*
X23333331Y-102235186D02*
X24133331Y-103035186D01*
X24133331Y-103035186D02*
X23266664Y-103035186D01*
X22399998Y-101635186D02*
X22266664Y-101635186D01*
X22266664Y-101635186D02*
X22133331Y-101701853D01*
X22133331Y-101701853D02*
X22066664Y-101768520D01*
X22066664Y-101768520D02*
X21999998Y-101901853D01*
X21999998Y-101901853D02*
X21933331Y-102168520D01*
X21933331Y-102168520D02*
X21933331Y-102501853D01*
X21933331Y-102501853D02*
X21999998Y-102768520D01*
X21999998Y-102768520D02*
X22066664Y-102901853D01*
X22066664Y-102901853D02*
X22133331Y-102968520D01*
X22133331Y-102968520D02*
X22266664Y-103035186D01*
X22266664Y-103035186D02*
X22399998Y-103035186D01*
X22399998Y-103035186D02*
X22533331Y-102968520D01*
X22533331Y-102968520D02*
X22599998Y-102901853D01*
X22599998Y-102901853D02*
X22666664Y-102768520D01*
X22666664Y-102768520D02*
X22733331Y-102501853D01*
X22733331Y-102501853D02*
X22733331Y-102168520D01*
X22733331Y-102168520D02*
X22666664Y-101901853D01*
X22666664Y-101901853D02*
X22599998Y-101768520D01*
X22599998Y-101768520D02*
X22533331Y-101701853D01*
X22533331Y-101701853D02*
X22399998Y-101635186D01*
X21399998Y-101768520D02*
X21333331Y-101701853D01*
X21333331Y-101701853D02*
X21199998Y-101635186D01*
X21199998Y-101635186D02*
X20866665Y-101635186D01*
X20866665Y-101635186D02*
X20733331Y-101701853D01*
X20733331Y-101701853D02*
X20666665Y-101768520D01*
X20666665Y-101768520D02*
X20599998Y-101901853D01*
X20599998Y-101901853D02*
X20599998Y-102035186D01*
X20599998Y-102035186D02*
X20666665Y-102235186D01*
X20666665Y-102235186D02*
X21466665Y-103035186D01*
X21466665Y-103035186D02*
X20599998Y-103035186D01*
X19399998Y-101635186D02*
X19666665Y-101635186D01*
X19666665Y-101635186D02*
X19799998Y-101701853D01*
X19799998Y-101701853D02*
X19866665Y-101768520D01*
X19866665Y-101768520D02*
X19999998Y-101968520D01*
X19999998Y-101968520D02*
X20066665Y-102235186D01*
X20066665Y-102235186D02*
X20066665Y-102768520D01*
X20066665Y-102768520D02*
X19999998Y-102901853D01*
X19999998Y-102901853D02*
X19933332Y-102968520D01*
X19933332Y-102968520D02*
X19799998Y-103035186D01*
X19799998Y-103035186D02*
X19533332Y-103035186D01*
X19533332Y-103035186D02*
X19399998Y-102968520D01*
X19399998Y-102968520D02*
X19333332Y-102901853D01*
X19333332Y-102901853D02*
X19266665Y-102768520D01*
X19266665Y-102768520D02*
X19266665Y-102435186D01*
X19266665Y-102435186D02*
X19333332Y-102301853D01*
X19333332Y-102301853D02*
X19399998Y-102235186D01*
X19399998Y-102235186D02*
X19533332Y-102168520D01*
X19533332Y-102168520D02*
X19799998Y-102168520D01*
X19799998Y-102168520D02*
X19933332Y-102235186D01*
X19933332Y-102235186D02*
X19999998Y-102301853D01*
X19999998Y-102301853D02*
X20066665Y-102435186D01*
D12*
X43319046Y-98199041D02*
X42899999Y-98199041D01*
X42899999Y-98199041D02*
X42690475Y-98303803D01*
X42690475Y-98303803D02*
X42480951Y-98513327D01*
X42480951Y-98513327D02*
X42376189Y-98932375D01*
X42376189Y-98932375D02*
X42376189Y-99665708D01*
X42376189Y-99665708D02*
X42480951Y-100084756D01*
X42480951Y-100084756D02*
X42690475Y-100294280D01*
X42690475Y-100294280D02*
X42899999Y-100399041D01*
X42899999Y-100399041D02*
X43319046Y-100399041D01*
X43319046Y-100399041D02*
X43528570Y-100294280D01*
X43528570Y-100294280D02*
X43738094Y-100084756D01*
X43738094Y-100084756D02*
X43842856Y-99665708D01*
X43842856Y-99665708D02*
X43842856Y-98932375D01*
X43842856Y-98932375D02*
X43738094Y-98513327D01*
X43738094Y-98513327D02*
X43528570Y-98303803D01*
X43528570Y-98303803D02*
X43319046Y-98199041D01*
X41433332Y-100399041D02*
X41433332Y-98199041D01*
X41433332Y-98199041D02*
X40595237Y-98199041D01*
X40595237Y-98199041D02*
X40385713Y-98303803D01*
X40385713Y-98303803D02*
X40280951Y-98408565D01*
X40280951Y-98408565D02*
X40176189Y-98618089D01*
X40176189Y-98618089D02*
X40176189Y-98932375D01*
X40176189Y-98932375D02*
X40280951Y-99141899D01*
X40280951Y-99141899D02*
X40385713Y-99246660D01*
X40385713Y-99246660D02*
X40595237Y-99351422D01*
X40595237Y-99351422D02*
X41433332Y-99351422D01*
X39233332Y-99246660D02*
X38499999Y-99246660D01*
X38185713Y-100399041D02*
X39233332Y-100399041D01*
X39233332Y-100399041D02*
X39233332Y-98199041D01*
X39233332Y-98199041D02*
X38185713Y-98199041D01*
X37242856Y-100399041D02*
X37242856Y-98199041D01*
X37242856Y-98199041D02*
X35985713Y-100399041D01*
X35985713Y-100399041D02*
X35985713Y-98199041D01*
X33366666Y-100294280D02*
X33052380Y-100399041D01*
X33052380Y-100399041D02*
X32528571Y-100399041D01*
X32528571Y-100399041D02*
X32319047Y-100294280D01*
X32319047Y-100294280D02*
X32214285Y-100189518D01*
X32214285Y-100189518D02*
X32109523Y-99979994D01*
X32109523Y-99979994D02*
X32109523Y-99770470D01*
X32109523Y-99770470D02*
X32214285Y-99560946D01*
X32214285Y-99560946D02*
X32319047Y-99456184D01*
X32319047Y-99456184D02*
X32528571Y-99351422D01*
X32528571Y-99351422D02*
X32947618Y-99246660D01*
X32947618Y-99246660D02*
X33157142Y-99141899D01*
X33157142Y-99141899D02*
X33261904Y-99037137D01*
X33261904Y-99037137D02*
X33366666Y-98827613D01*
X33366666Y-98827613D02*
X33366666Y-98618089D01*
X33366666Y-98618089D02*
X33261904Y-98408565D01*
X33261904Y-98408565D02*
X33157142Y-98303803D01*
X33157142Y-98303803D02*
X32947618Y-98199041D01*
X32947618Y-98199041D02*
X32423809Y-98199041D01*
X32423809Y-98199041D02*
X32109523Y-98303803D01*
X29909523Y-100189518D02*
X30014285Y-100294280D01*
X30014285Y-100294280D02*
X30328571Y-100399041D01*
X30328571Y-100399041D02*
X30538095Y-100399041D01*
X30538095Y-100399041D02*
X30852380Y-100294280D01*
X30852380Y-100294280D02*
X31061904Y-100084756D01*
X31061904Y-100084756D02*
X31166666Y-99875232D01*
X31166666Y-99875232D02*
X31271428Y-99456184D01*
X31271428Y-99456184D02*
X31271428Y-99141899D01*
X31271428Y-99141899D02*
X31166666Y-98722851D01*
X31166666Y-98722851D02*
X31061904Y-98513327D01*
X31061904Y-98513327D02*
X30852380Y-98303803D01*
X30852380Y-98303803D02*
X30538095Y-98199041D01*
X30538095Y-98199041D02*
X30328571Y-98199041D01*
X30328571Y-98199041D02*
X30014285Y-98303803D01*
X30014285Y-98303803D02*
X29909523Y-98408565D01*
X27709523Y-100399041D02*
X28442856Y-99351422D01*
X28966666Y-100399041D02*
X28966666Y-98199041D01*
X28966666Y-98199041D02*
X28128571Y-98199041D01*
X28128571Y-98199041D02*
X27919047Y-98303803D01*
X27919047Y-98303803D02*
X27814285Y-98408565D01*
X27814285Y-98408565D02*
X27709523Y-98618089D01*
X27709523Y-98618089D02*
X27709523Y-98932375D01*
X27709523Y-98932375D02*
X27814285Y-99141899D01*
X27814285Y-99141899D02*
X27919047Y-99246660D01*
X27919047Y-99246660D02*
X28128571Y-99351422D01*
X28128571Y-99351422D02*
X28966666Y-99351422D01*
X26766666Y-99246660D02*
X26033333Y-99246660D01*
X25719047Y-100399041D02*
X26766666Y-100399041D01*
X26766666Y-100399041D02*
X26766666Y-98199041D01*
X26766666Y-98199041D02*
X25719047Y-98199041D01*
X24776190Y-99246660D02*
X24042857Y-99246660D01*
X23728571Y-100399041D02*
X24776190Y-100399041D01*
X24776190Y-100399041D02*
X24776190Y-98199041D01*
X24776190Y-98199041D02*
X23728571Y-98199041D01*
X22785714Y-100399041D02*
X22785714Y-98199041D01*
X22785714Y-98199041D02*
X21528571Y-100399041D01*
X21528571Y-100399041D02*
X21528571Y-98199041D01*
X18804762Y-100399041D02*
X18804762Y-98199041D01*
X18804762Y-98199041D02*
X18280952Y-98199041D01*
X18280952Y-98199041D02*
X17966667Y-98303803D01*
X17966667Y-98303803D02*
X17757143Y-98513327D01*
X17757143Y-98513327D02*
X17652381Y-98722851D01*
X17652381Y-98722851D02*
X17547619Y-99141899D01*
X17547619Y-99141899D02*
X17547619Y-99456184D01*
X17547619Y-99456184D02*
X17652381Y-99875232D01*
X17652381Y-99875232D02*
X17757143Y-100084756D01*
X17757143Y-100084756D02*
X17966667Y-100294280D01*
X17966667Y-100294280D02*
X18280952Y-100399041D01*
X18280952Y-100399041D02*
X18804762Y-100399041D01*
X16604762Y-99246660D02*
X15871429Y-99246660D01*
X15557143Y-100399041D02*
X16604762Y-100399041D01*
X16604762Y-100399041D02*
X16604762Y-98199041D01*
X16604762Y-98199041D02*
X15557143Y-98199041D01*
X13357143Y-100189518D02*
X13461905Y-100294280D01*
X13461905Y-100294280D02*
X13776191Y-100399041D01*
X13776191Y-100399041D02*
X13985715Y-100399041D01*
X13985715Y-100399041D02*
X14300000Y-100294280D01*
X14300000Y-100294280D02*
X14509524Y-100084756D01*
X14509524Y-100084756D02*
X14614286Y-99875232D01*
X14614286Y-99875232D02*
X14719048Y-99456184D01*
X14719048Y-99456184D02*
X14719048Y-99141899D01*
X14719048Y-99141899D02*
X14614286Y-98722851D01*
X14614286Y-98722851D02*
X14509524Y-98513327D01*
X14509524Y-98513327D02*
X14300000Y-98303803D01*
X14300000Y-98303803D02*
X13985715Y-98199041D01*
X13985715Y-98199041D02*
X13776191Y-98199041D01*
X13776191Y-98199041D02*
X13461905Y-98303803D01*
X13461905Y-98303803D02*
X13357143Y-98408565D01*
X12414286Y-100399041D02*
X12414286Y-98199041D01*
X11157143Y-100399041D02*
X12100000Y-99141899D01*
X11157143Y-98199041D02*
X12414286Y-99456184D01*
M02*
