%TF.GenerationSoftware,KiCad,Pcbnew,10.0.4*%
%TF.CreationDate,2026-07-13T23:03:06-04:00*%
%TF.ProjectId,data_streamdeck,64617461-5f73-4747-9265-616d6465636b,C*%
%TF.SameCoordinates,Original*%
%TF.FileFunction,Legend,Top*%
%TF.FilePolarity,Positive*%
%FSLAX46Y46*%
G04 Gerber Fmt 4.6, Leading zero omitted, Abs format (unit mm)*
G04 Created by KiCad (PCBNEW 10.0.4) date 2026-07-13 23:03:06*
%MOMM*%
%LPD*%
G01*
G04 APERTURE LIST*
%ADD10C,0.220000*%
%ADD11C,0.150000*%
%ADD12C,0.120000*%
G04 APERTURE END LIST*
D10*
X1726191Y-74689964D02*
X1973810Y-74689964D01*
X1973810Y-74689964D02*
X2097620Y-74751869D01*
X2097620Y-74751869D02*
X2221429Y-74875679D01*
X2221429Y-74875679D02*
X2283334Y-75123298D01*
X2283334Y-75123298D02*
X2283334Y-75556631D01*
X2283334Y-75556631D02*
X2221429Y-75804250D01*
X2221429Y-75804250D02*
X2097620Y-75928060D01*
X2097620Y-75928060D02*
X1973810Y-75989964D01*
X1973810Y-75989964D02*
X1726191Y-75989964D01*
X1726191Y-75989964D02*
X1602382Y-75928060D01*
X1602382Y-75928060D02*
X1478572Y-75804250D01*
X1478572Y-75804250D02*
X1416668Y-75556631D01*
X1416668Y-75556631D02*
X1416668Y-75123298D01*
X1416668Y-75123298D02*
X1478572Y-74875679D01*
X1478572Y-74875679D02*
X1602382Y-74751869D01*
X1602382Y-74751869D02*
X1726191Y-74689964D01*
X2840477Y-75989964D02*
X2840477Y-74689964D01*
X2840477Y-74689964D02*
X3335715Y-74689964D01*
X3335715Y-74689964D02*
X3459525Y-74751869D01*
X3459525Y-74751869D02*
X3521430Y-74813774D01*
X3521430Y-74813774D02*
X3583334Y-74937583D01*
X3583334Y-74937583D02*
X3583334Y-75123298D01*
X3583334Y-75123298D02*
X3521430Y-75247107D01*
X3521430Y-75247107D02*
X3459525Y-75309012D01*
X3459525Y-75309012D02*
X3335715Y-75370917D01*
X3335715Y-75370917D02*
X2840477Y-75370917D01*
X4140477Y-75309012D02*
X4573811Y-75309012D01*
X4759525Y-75989964D02*
X4140477Y-75989964D01*
X4140477Y-75989964D02*
X4140477Y-74689964D01*
X4140477Y-74689964D02*
X4759525Y-74689964D01*
X5316667Y-75989964D02*
X5316667Y-74689964D01*
X5316667Y-74689964D02*
X6059524Y-75989964D01*
X6059524Y-75989964D02*
X6059524Y-74689964D01*
X7607144Y-75928060D02*
X7792858Y-75989964D01*
X7792858Y-75989964D02*
X8102382Y-75989964D01*
X8102382Y-75989964D02*
X8226191Y-75928060D01*
X8226191Y-75928060D02*
X8288096Y-75866155D01*
X8288096Y-75866155D02*
X8350001Y-75742345D01*
X8350001Y-75742345D02*
X8350001Y-75618536D01*
X8350001Y-75618536D02*
X8288096Y-75494726D01*
X8288096Y-75494726D02*
X8226191Y-75432821D01*
X8226191Y-75432821D02*
X8102382Y-75370917D01*
X8102382Y-75370917D02*
X7854763Y-75309012D01*
X7854763Y-75309012D02*
X7730953Y-75247107D01*
X7730953Y-75247107D02*
X7669048Y-75185202D01*
X7669048Y-75185202D02*
X7607144Y-75061393D01*
X7607144Y-75061393D02*
X7607144Y-74937583D01*
X7607144Y-74937583D02*
X7669048Y-74813774D01*
X7669048Y-74813774D02*
X7730953Y-74751869D01*
X7730953Y-74751869D02*
X7854763Y-74689964D01*
X7854763Y-74689964D02*
X8164286Y-74689964D01*
X8164286Y-74689964D02*
X8350001Y-74751869D01*
X9650000Y-75866155D02*
X9588096Y-75928060D01*
X9588096Y-75928060D02*
X9402381Y-75989964D01*
X9402381Y-75989964D02*
X9278572Y-75989964D01*
X9278572Y-75989964D02*
X9092858Y-75928060D01*
X9092858Y-75928060D02*
X8969048Y-75804250D01*
X8969048Y-75804250D02*
X8907143Y-75680440D01*
X8907143Y-75680440D02*
X8845239Y-75432821D01*
X8845239Y-75432821D02*
X8845239Y-75247107D01*
X8845239Y-75247107D02*
X8907143Y-74999488D01*
X8907143Y-74999488D02*
X8969048Y-74875679D01*
X8969048Y-74875679D02*
X9092858Y-74751869D01*
X9092858Y-74751869D02*
X9278572Y-74689964D01*
X9278572Y-74689964D02*
X9402381Y-74689964D01*
X9402381Y-74689964D02*
X9588096Y-74751869D01*
X9588096Y-74751869D02*
X9650000Y-74813774D01*
X10950000Y-75989964D02*
X10516667Y-75370917D01*
X10207143Y-75989964D02*
X10207143Y-74689964D01*
X10207143Y-74689964D02*
X10702381Y-74689964D01*
X10702381Y-74689964D02*
X10826191Y-74751869D01*
X10826191Y-74751869D02*
X10888096Y-74813774D01*
X10888096Y-74813774D02*
X10950000Y-74937583D01*
X10950000Y-74937583D02*
X10950000Y-75123298D01*
X10950000Y-75123298D02*
X10888096Y-75247107D01*
X10888096Y-75247107D02*
X10826191Y-75309012D01*
X10826191Y-75309012D02*
X10702381Y-75370917D01*
X10702381Y-75370917D02*
X10207143Y-75370917D01*
X11507143Y-75309012D02*
X11940477Y-75309012D01*
X12126191Y-75989964D02*
X11507143Y-75989964D01*
X11507143Y-75989964D02*
X11507143Y-74689964D01*
X11507143Y-74689964D02*
X12126191Y-74689964D01*
X12683333Y-75309012D02*
X13116667Y-75309012D01*
X13302381Y-75989964D02*
X12683333Y-75989964D01*
X12683333Y-75989964D02*
X12683333Y-74689964D01*
X12683333Y-74689964D02*
X13302381Y-74689964D01*
X13859523Y-75989964D02*
X13859523Y-74689964D01*
X13859523Y-74689964D02*
X14602380Y-75989964D01*
X14602380Y-75989964D02*
X14602380Y-74689964D01*
X16211904Y-75989964D02*
X16211904Y-74689964D01*
X16211904Y-74689964D02*
X16521428Y-74689964D01*
X16521428Y-74689964D02*
X16707142Y-74751869D01*
X16707142Y-74751869D02*
X16830952Y-74875679D01*
X16830952Y-74875679D02*
X16892857Y-74999488D01*
X16892857Y-74999488D02*
X16954761Y-75247107D01*
X16954761Y-75247107D02*
X16954761Y-75432821D01*
X16954761Y-75432821D02*
X16892857Y-75680440D01*
X16892857Y-75680440D02*
X16830952Y-75804250D01*
X16830952Y-75804250D02*
X16707142Y-75928060D01*
X16707142Y-75928060D02*
X16521428Y-75989964D01*
X16521428Y-75989964D02*
X16211904Y-75989964D01*
X17511904Y-75309012D02*
X17945238Y-75309012D01*
X18130952Y-75989964D02*
X17511904Y-75989964D01*
X17511904Y-75989964D02*
X17511904Y-74689964D01*
X17511904Y-74689964D02*
X18130952Y-74689964D01*
X19430951Y-75866155D02*
X19369047Y-75928060D01*
X19369047Y-75928060D02*
X19183332Y-75989964D01*
X19183332Y-75989964D02*
X19059523Y-75989964D01*
X19059523Y-75989964D02*
X18873809Y-75928060D01*
X18873809Y-75928060D02*
X18749999Y-75804250D01*
X18749999Y-75804250D02*
X18688094Y-75680440D01*
X18688094Y-75680440D02*
X18626190Y-75432821D01*
X18626190Y-75432821D02*
X18626190Y-75247107D01*
X18626190Y-75247107D02*
X18688094Y-74999488D01*
X18688094Y-74999488D02*
X18749999Y-74875679D01*
X18749999Y-74875679D02*
X18873809Y-74751869D01*
X18873809Y-74751869D02*
X19059523Y-74689964D01*
X19059523Y-74689964D02*
X19183332Y-74689964D01*
X19183332Y-74689964D02*
X19369047Y-74751869D01*
X19369047Y-74751869D02*
X19430951Y-74813774D01*
X19988094Y-75989964D02*
X19988094Y-74689964D01*
X20730951Y-75989964D02*
X20173809Y-75247107D01*
X20730951Y-74689964D02*
X19988094Y-75432821D01*
X22464285Y-75432821D02*
X22402380Y-75494726D01*
X22402380Y-75494726D02*
X22464285Y-75556631D01*
X22464285Y-75556631D02*
X22526189Y-75494726D01*
X22526189Y-75494726D02*
X22464285Y-75432821D01*
X22464285Y-75432821D02*
X22464285Y-75556631D01*
X25002379Y-75989964D02*
X24569046Y-75370917D01*
X24259522Y-75989964D02*
X24259522Y-74689964D01*
X24259522Y-74689964D02*
X24754760Y-74689964D01*
X24754760Y-74689964D02*
X24878570Y-74751869D01*
X24878570Y-74751869D02*
X24940475Y-74813774D01*
X24940475Y-74813774D02*
X25002379Y-74937583D01*
X25002379Y-74937583D02*
X25002379Y-75123298D01*
X25002379Y-75123298D02*
X24940475Y-75247107D01*
X24940475Y-75247107D02*
X24878570Y-75309012D01*
X24878570Y-75309012D02*
X24754760Y-75370917D01*
X24754760Y-75370917D02*
X24259522Y-75370917D01*
X25559522Y-75309012D02*
X25992856Y-75309012D01*
X26178570Y-75989964D02*
X25559522Y-75989964D01*
X25559522Y-75989964D02*
X25559522Y-74689964D01*
X25559522Y-74689964D02*
X26178570Y-74689964D01*
X26549998Y-74689964D02*
X26983331Y-75989964D01*
X26983331Y-75989964D02*
X27416665Y-74689964D01*
X29583331Y-75866155D02*
X29521427Y-75928060D01*
X29521427Y-75928060D02*
X29335712Y-75989964D01*
X29335712Y-75989964D02*
X29211903Y-75989964D01*
X29211903Y-75989964D02*
X29026189Y-75928060D01*
X29026189Y-75928060D02*
X28902379Y-75804250D01*
X28902379Y-75804250D02*
X28840474Y-75680440D01*
X28840474Y-75680440D02*
X28778570Y-75432821D01*
X28778570Y-75432821D02*
X28778570Y-75247107D01*
X28778570Y-75247107D02*
X28840474Y-74999488D01*
X28840474Y-74999488D02*
X28902379Y-74875679D01*
X28902379Y-74875679D02*
X29026189Y-74751869D01*
X29026189Y-74751869D02*
X29211903Y-74689964D01*
X29211903Y-74689964D02*
X29335712Y-74689964D01*
X29335712Y-74689964D02*
X29521427Y-74751869D01*
X29521427Y-74751869D02*
X29583331Y-74813774D01*
D11*
X27166666Y-8054819D02*
X27166666Y-8769104D01*
X27166666Y-8769104D02*
X27119047Y-8911961D01*
X27119047Y-8911961D02*
X27023809Y-9007200D01*
X27023809Y-9007200D02*
X26880952Y-9054819D01*
X26880952Y-9054819D02*
X26785714Y-9054819D01*
X27547619Y-8054819D02*
X28214285Y-8054819D01*
X28214285Y-8054819D02*
X27785714Y-9054819D01*
X51661905Y-40554819D02*
X51661905Y-39554819D01*
X51661905Y-40031009D02*
X52233333Y-40031009D01*
X52233333Y-40554819D02*
X52233333Y-39554819D01*
X53233333Y-40554819D02*
X52661905Y-40554819D01*
X52947619Y-40554819D02*
X52947619Y-39554819D01*
X52947619Y-39554819D02*
X52852381Y-39697676D01*
X52852381Y-39697676D02*
X52757143Y-39792914D01*
X52757143Y-39792914D02*
X52661905Y-39840533D01*
X54185714Y-40554819D02*
X53614286Y-40554819D01*
X53900000Y-40554819D02*
X53900000Y-39554819D01*
X53900000Y-39554819D02*
X53804762Y-39697676D01*
X53804762Y-39697676D02*
X53709524Y-39792914D01*
X53709524Y-39792914D02*
X53614286Y-39840533D01*
X38354819Y-47961904D02*
X39164342Y-47961904D01*
X39164342Y-47961904D02*
X39259580Y-47914285D01*
X39259580Y-47914285D02*
X39307200Y-47866666D01*
X39307200Y-47866666D02*
X39354819Y-47771428D01*
X39354819Y-47771428D02*
X39354819Y-47580952D01*
X39354819Y-47580952D02*
X39307200Y-47485714D01*
X39307200Y-47485714D02*
X39259580Y-47438095D01*
X39259580Y-47438095D02*
X39164342Y-47390476D01*
X39164342Y-47390476D02*
X38354819Y-47390476D01*
X39354819Y-46390476D02*
X39354819Y-46961904D01*
X39354819Y-46676190D02*
X38354819Y-46676190D01*
X38354819Y-46676190D02*
X38497676Y-46771428D01*
X38497676Y-46771428D02*
X38592914Y-46866666D01*
X38592914Y-46866666D02*
X38640533Y-46961904D01*
X9854819Y-1961904D02*
X10664342Y-1961904D01*
X10664342Y-1961904D02*
X10759580Y-1914285D01*
X10759580Y-1914285D02*
X10807200Y-1866666D01*
X10807200Y-1866666D02*
X10854819Y-1771428D01*
X10854819Y-1771428D02*
X10854819Y-1580952D01*
X10854819Y-1580952D02*
X10807200Y-1485714D01*
X10807200Y-1485714D02*
X10759580Y-1438095D01*
X10759580Y-1438095D02*
X10664342Y-1390476D01*
X10664342Y-1390476D02*
X9854819Y-1390476D01*
X9950057Y-961904D02*
X9902438Y-914285D01*
X9902438Y-914285D02*
X9854819Y-819047D01*
X9854819Y-819047D02*
X9854819Y-580952D01*
X9854819Y-580952D02*
X9902438Y-485714D01*
X9902438Y-485714D02*
X9950057Y-438095D01*
X9950057Y-438095D02*
X10045295Y-390476D01*
X10045295Y-390476D02*
X10140533Y-390476D01*
X10140533Y-390476D02*
X10283390Y-438095D01*
X10283390Y-438095D02*
X10854819Y-1009523D01*
X10854819Y-1009523D02*
X10854819Y-390476D01*
X29661905Y-65854819D02*
X29661905Y-64854819D01*
X29661905Y-65331009D02*
X30233333Y-65331009D01*
X30233333Y-65854819D02*
X30233333Y-64854819D01*
X31233333Y-65854819D02*
X30661905Y-65854819D01*
X30947619Y-65854819D02*
X30947619Y-64854819D01*
X30947619Y-64854819D02*
X30852381Y-64997676D01*
X30852381Y-64997676D02*
X30757143Y-65092914D01*
X30757143Y-65092914D02*
X30661905Y-65140533D01*
X31852381Y-64854819D02*
X31947619Y-64854819D01*
X31947619Y-64854819D02*
X32042857Y-64902438D01*
X32042857Y-64902438D02*
X32090476Y-64950057D01*
X32090476Y-64950057D02*
X32138095Y-65045295D01*
X32138095Y-65045295D02*
X32185714Y-65235771D01*
X32185714Y-65235771D02*
X32185714Y-65473866D01*
X32185714Y-65473866D02*
X32138095Y-65664342D01*
X32138095Y-65664342D02*
X32090476Y-65759580D01*
X32090476Y-65759580D02*
X32042857Y-65807200D01*
X32042857Y-65807200D02*
X31947619Y-65854819D01*
X31947619Y-65854819D02*
X31852381Y-65854819D01*
X31852381Y-65854819D02*
X31757143Y-65807200D01*
X31757143Y-65807200D02*
X31709524Y-65759580D01*
X31709524Y-65759580D02*
X31661905Y-65664342D01*
X31661905Y-65664342D02*
X31614286Y-65473866D01*
X31614286Y-65473866D02*
X31614286Y-65235771D01*
X31614286Y-65235771D02*
X31661905Y-65045295D01*
X31661905Y-65045295D02*
X31709524Y-64950057D01*
X31709524Y-64950057D02*
X31757143Y-64902438D01*
X31757143Y-64902438D02*
X31852381Y-64854819D01*
X36166667Y-1957200D02*
X36309524Y-2004819D01*
X36309524Y-2004819D02*
X36547619Y-2004819D01*
X36547619Y-2004819D02*
X36642857Y-1957200D01*
X36642857Y-1957200D02*
X36690476Y-1909580D01*
X36690476Y-1909580D02*
X36738095Y-1814342D01*
X36738095Y-1814342D02*
X36738095Y-1719104D01*
X36738095Y-1719104D02*
X36690476Y-1623866D01*
X36690476Y-1623866D02*
X36642857Y-1576247D01*
X36642857Y-1576247D02*
X36547619Y-1528628D01*
X36547619Y-1528628D02*
X36357143Y-1481009D01*
X36357143Y-1481009D02*
X36261905Y-1433390D01*
X36261905Y-1433390D02*
X36214286Y-1385771D01*
X36214286Y-1385771D02*
X36166667Y-1290533D01*
X36166667Y-1290533D02*
X36166667Y-1195295D01*
X36166667Y-1195295D02*
X36214286Y-1100057D01*
X36214286Y-1100057D02*
X36261905Y-1052438D01*
X36261905Y-1052438D02*
X36357143Y-1004819D01*
X36357143Y-1004819D02*
X36595238Y-1004819D01*
X36595238Y-1004819D02*
X36738095Y-1052438D01*
X37071429Y-1004819D02*
X37309524Y-2004819D01*
X37309524Y-2004819D02*
X37500000Y-1290533D01*
X37500000Y-1290533D02*
X37690476Y-2004819D01*
X37690476Y-2004819D02*
X37928572Y-1004819D01*
X38833333Y-2004819D02*
X38261905Y-2004819D01*
X38547619Y-2004819D02*
X38547619Y-1004819D01*
X38547619Y-1004819D02*
X38452381Y-1147676D01*
X38452381Y-1147676D02*
X38357143Y-1242914D01*
X38357143Y-1242914D02*
X38261905Y-1290533D01*
X8266666Y-93654819D02*
X8266666Y-94369104D01*
X8266666Y-94369104D02*
X8219047Y-94511961D01*
X8219047Y-94511961D02*
X8123809Y-94607200D01*
X8123809Y-94607200D02*
X7980952Y-94654819D01*
X7980952Y-94654819D02*
X7885714Y-94654819D01*
X9219047Y-93654819D02*
X8742857Y-93654819D01*
X8742857Y-93654819D02*
X8695238Y-94131009D01*
X8695238Y-94131009D02*
X8742857Y-94083390D01*
X8742857Y-94083390D02*
X8838095Y-94035771D01*
X8838095Y-94035771D02*
X9076190Y-94035771D01*
X9076190Y-94035771D02*
X9171428Y-94083390D01*
X9171428Y-94083390D02*
X9219047Y-94131009D01*
X9219047Y-94131009D02*
X9266666Y-94226247D01*
X9266666Y-94226247D02*
X9266666Y-94464342D01*
X9266666Y-94464342D02*
X9219047Y-94559580D01*
X9219047Y-94559580D02*
X9171428Y-94607200D01*
X9171428Y-94607200D02*
X9076190Y-94654819D01*
X9076190Y-94654819D02*
X8838095Y-94654819D01*
X8838095Y-94654819D02*
X8742857Y-94607200D01*
X8742857Y-94607200D02*
X8695238Y-94559580D01*
X41666666Y-96654819D02*
X41666666Y-97369104D01*
X41666666Y-97369104D02*
X41619047Y-97511961D01*
X41619047Y-97511961D02*
X41523809Y-97607200D01*
X41523809Y-97607200D02*
X41380952Y-97654819D01*
X41380952Y-97654819D02*
X41285714Y-97654819D01*
X42571428Y-96654819D02*
X42380952Y-96654819D01*
X42380952Y-96654819D02*
X42285714Y-96702438D01*
X42285714Y-96702438D02*
X42238095Y-96750057D01*
X42238095Y-96750057D02*
X42142857Y-96892914D01*
X42142857Y-96892914D02*
X42095238Y-97083390D01*
X42095238Y-97083390D02*
X42095238Y-97464342D01*
X42095238Y-97464342D02*
X42142857Y-97559580D01*
X42142857Y-97559580D02*
X42190476Y-97607200D01*
X42190476Y-97607200D02*
X42285714Y-97654819D01*
X42285714Y-97654819D02*
X42476190Y-97654819D01*
X42476190Y-97654819D02*
X42571428Y-97607200D01*
X42571428Y-97607200D02*
X42619047Y-97559580D01*
X42619047Y-97559580D02*
X42666666Y-97464342D01*
X42666666Y-97464342D02*
X42666666Y-97226247D01*
X42666666Y-97226247D02*
X42619047Y-97131009D01*
X42619047Y-97131009D02*
X42571428Y-97083390D01*
X42571428Y-97083390D02*
X42476190Y-97035771D01*
X42476190Y-97035771D02*
X42285714Y-97035771D01*
X42285714Y-97035771D02*
X42190476Y-97083390D01*
X42190476Y-97083390D02*
X42142857Y-97131009D01*
X42142857Y-97131009D02*
X42095238Y-97226247D01*
X22761905Y-104154819D02*
X22761905Y-103154819D01*
X22761905Y-103631009D02*
X23333333Y-103631009D01*
X23333333Y-104154819D02*
X23333333Y-103154819D01*
X24333333Y-104154819D02*
X23761905Y-104154819D01*
X24047619Y-104154819D02*
X24047619Y-103154819D01*
X24047619Y-103154819D02*
X23952381Y-103297676D01*
X23952381Y-103297676D02*
X23857143Y-103392914D01*
X23857143Y-103392914D02*
X23761905Y-103440533D01*
X25190476Y-103488152D02*
X25190476Y-104154819D01*
X24952381Y-103107200D02*
X24714286Y-103821485D01*
X24714286Y-103821485D02*
X25333333Y-103821485D01*
X52138095Y-104154819D02*
X52138095Y-103154819D01*
X52138095Y-103631009D02*
X52709523Y-103631009D01*
X52709523Y-104154819D02*
X52709523Y-103154819D01*
X53614285Y-103488152D02*
X53614285Y-104154819D01*
X53376190Y-103107200D02*
X53138095Y-103821485D01*
X53138095Y-103821485D02*
X53757142Y-103821485D01*
X29661905Y-78854819D02*
X29661905Y-77854819D01*
X29661905Y-78331009D02*
X30233333Y-78331009D01*
X30233333Y-78854819D02*
X30233333Y-77854819D01*
X31233333Y-78854819D02*
X30661905Y-78854819D01*
X30947619Y-78854819D02*
X30947619Y-77854819D01*
X30947619Y-77854819D02*
X30852381Y-77997676D01*
X30852381Y-77997676D02*
X30757143Y-78092914D01*
X30757143Y-78092914D02*
X30661905Y-78140533D01*
X32138095Y-77854819D02*
X31661905Y-77854819D01*
X31661905Y-77854819D02*
X31614286Y-78331009D01*
X31614286Y-78331009D02*
X31661905Y-78283390D01*
X31661905Y-78283390D02*
X31757143Y-78235771D01*
X31757143Y-78235771D02*
X31995238Y-78235771D01*
X31995238Y-78235771D02*
X32090476Y-78283390D01*
X32090476Y-78283390D02*
X32138095Y-78331009D01*
X32138095Y-78331009D02*
X32185714Y-78426247D01*
X32185714Y-78426247D02*
X32185714Y-78664342D01*
X32185714Y-78664342D02*
X32138095Y-78759580D01*
X32138095Y-78759580D02*
X32090476Y-78807200D01*
X32090476Y-78807200D02*
X31995238Y-78854819D01*
X31995238Y-78854819D02*
X31757143Y-78854819D01*
X31757143Y-78854819D02*
X31661905Y-78807200D01*
X31661905Y-78807200D02*
X31614286Y-78759580D01*
X1238095Y-65854819D02*
X1238095Y-64854819D01*
X1238095Y-65331009D02*
X1809523Y-65331009D01*
X1809523Y-65854819D02*
X1809523Y-64854819D01*
X2428571Y-65283390D02*
X2333333Y-65235771D01*
X2333333Y-65235771D02*
X2285714Y-65188152D01*
X2285714Y-65188152D02*
X2238095Y-65092914D01*
X2238095Y-65092914D02*
X2238095Y-65045295D01*
X2238095Y-65045295D02*
X2285714Y-64950057D01*
X2285714Y-64950057D02*
X2333333Y-64902438D01*
X2333333Y-64902438D02*
X2428571Y-64854819D01*
X2428571Y-64854819D02*
X2619047Y-64854819D01*
X2619047Y-64854819D02*
X2714285Y-64902438D01*
X2714285Y-64902438D02*
X2761904Y-64950057D01*
X2761904Y-64950057D02*
X2809523Y-65045295D01*
X2809523Y-65045295D02*
X2809523Y-65092914D01*
X2809523Y-65092914D02*
X2761904Y-65188152D01*
X2761904Y-65188152D02*
X2714285Y-65235771D01*
X2714285Y-65235771D02*
X2619047Y-65283390D01*
X2619047Y-65283390D02*
X2428571Y-65283390D01*
X2428571Y-65283390D02*
X2333333Y-65331009D01*
X2333333Y-65331009D02*
X2285714Y-65378628D01*
X2285714Y-65378628D02*
X2238095Y-65473866D01*
X2238095Y-65473866D02*
X2238095Y-65664342D01*
X2238095Y-65664342D02*
X2285714Y-65759580D01*
X2285714Y-65759580D02*
X2333333Y-65807200D01*
X2333333Y-65807200D02*
X2428571Y-65854819D01*
X2428571Y-65854819D02*
X2619047Y-65854819D01*
X2619047Y-65854819D02*
X2714285Y-65807200D01*
X2714285Y-65807200D02*
X2761904Y-65759580D01*
X2761904Y-65759580D02*
X2809523Y-65664342D01*
X2809523Y-65664342D02*
X2809523Y-65473866D01*
X2809523Y-65473866D02*
X2761904Y-65378628D01*
X2761904Y-65378628D02*
X2714285Y-65331009D01*
X2714285Y-65331009D02*
X2619047Y-65283390D01*
X52138095Y-2254819D02*
X52138095Y-1254819D01*
X52138095Y-1731009D02*
X52709523Y-1731009D01*
X52709523Y-2254819D02*
X52709523Y-1254819D01*
X53138095Y-1350057D02*
X53185714Y-1302438D01*
X53185714Y-1302438D02*
X53280952Y-1254819D01*
X53280952Y-1254819D02*
X53519047Y-1254819D01*
X53519047Y-1254819D02*
X53614285Y-1302438D01*
X53614285Y-1302438D02*
X53661904Y-1350057D01*
X53661904Y-1350057D02*
X53709523Y-1445295D01*
X53709523Y-1445295D02*
X53709523Y-1540533D01*
X53709523Y-1540533D02*
X53661904Y-1683390D01*
X53661904Y-1683390D02*
X53090476Y-2254819D01*
X53090476Y-2254819D02*
X53709523Y-2254819D01*
X8266666Y-55354819D02*
X8266666Y-56069104D01*
X8266666Y-56069104D02*
X8219047Y-56211961D01*
X8219047Y-56211961D02*
X8123809Y-56307200D01*
X8123809Y-56307200D02*
X7980952Y-56354819D01*
X7980952Y-56354819D02*
X7885714Y-56354819D01*
X8647619Y-55354819D02*
X9266666Y-55354819D01*
X9266666Y-55354819D02*
X8933333Y-55735771D01*
X8933333Y-55735771D02*
X9076190Y-55735771D01*
X9076190Y-55735771D02*
X9171428Y-55783390D01*
X9171428Y-55783390D02*
X9219047Y-55831009D01*
X9219047Y-55831009D02*
X9266666Y-55926247D01*
X9266666Y-55926247D02*
X9266666Y-56164342D01*
X9266666Y-56164342D02*
X9219047Y-56259580D01*
X9219047Y-56259580D02*
X9171428Y-56307200D01*
X9171428Y-56307200D02*
X9076190Y-56354819D01*
X9076190Y-56354819D02*
X8790476Y-56354819D01*
X8790476Y-56354819D02*
X8695238Y-56307200D01*
X8695238Y-56307200D02*
X8647619Y-56259580D01*
X1238095Y-2254819D02*
X1238095Y-1254819D01*
X1238095Y-1731009D02*
X1809523Y-1731009D01*
X1809523Y-2254819D02*
X1809523Y-1254819D01*
X2809523Y-2254819D02*
X2238095Y-2254819D01*
X2523809Y-2254819D02*
X2523809Y-1254819D01*
X2523809Y-1254819D02*
X2428571Y-1397676D01*
X2428571Y-1397676D02*
X2333333Y-1492914D01*
X2333333Y-1492914D02*
X2238095Y-1540533D01*
X22761905Y-78854819D02*
X22761905Y-77854819D01*
X22761905Y-78331009D02*
X23333333Y-78331009D01*
X23333333Y-78854819D02*
X23333333Y-77854819D01*
X24333333Y-78854819D02*
X23761905Y-78854819D01*
X24047619Y-78854819D02*
X24047619Y-77854819D01*
X24047619Y-77854819D02*
X23952381Y-77997676D01*
X23952381Y-77997676D02*
X23857143Y-78092914D01*
X23857143Y-78092914D02*
X23761905Y-78140533D01*
X24666667Y-77854819D02*
X25285714Y-77854819D01*
X25285714Y-77854819D02*
X24952381Y-78235771D01*
X24952381Y-78235771D02*
X25095238Y-78235771D01*
X25095238Y-78235771D02*
X25190476Y-78283390D01*
X25190476Y-78283390D02*
X25238095Y-78331009D01*
X25238095Y-78331009D02*
X25285714Y-78426247D01*
X25285714Y-78426247D02*
X25285714Y-78664342D01*
X25285714Y-78664342D02*
X25238095Y-78759580D01*
X25238095Y-78759580D02*
X25190476Y-78807200D01*
X25190476Y-78807200D02*
X25095238Y-78854819D01*
X25095238Y-78854819D02*
X24809524Y-78854819D01*
X24809524Y-78854819D02*
X24714286Y-78807200D01*
X24714286Y-78807200D02*
X24666667Y-78759580D01*
X1238095Y-27554819D02*
X1238095Y-26554819D01*
X1238095Y-27031009D02*
X1809523Y-27031009D01*
X1809523Y-27554819D02*
X1809523Y-26554819D01*
X2761904Y-26554819D02*
X2285714Y-26554819D01*
X2285714Y-26554819D02*
X2238095Y-27031009D01*
X2238095Y-27031009D02*
X2285714Y-26983390D01*
X2285714Y-26983390D02*
X2380952Y-26935771D01*
X2380952Y-26935771D02*
X2619047Y-26935771D01*
X2619047Y-26935771D02*
X2714285Y-26983390D01*
X2714285Y-26983390D02*
X2761904Y-27031009D01*
X2761904Y-27031009D02*
X2809523Y-27126247D01*
X2809523Y-27126247D02*
X2809523Y-27364342D01*
X2809523Y-27364342D02*
X2761904Y-27459580D01*
X2761904Y-27459580D02*
X2714285Y-27507200D01*
X2714285Y-27507200D02*
X2619047Y-27554819D01*
X2619047Y-27554819D02*
X2380952Y-27554819D01*
X2380952Y-27554819D02*
X2285714Y-27507200D01*
X2285714Y-27507200D02*
X2238095Y-27459580D01*
X45966666Y-55354819D02*
X45966666Y-56069104D01*
X45966666Y-56069104D02*
X45919047Y-56211961D01*
X45919047Y-56211961D02*
X45823809Y-56307200D01*
X45823809Y-56307200D02*
X45680952Y-56354819D01*
X45680952Y-56354819D02*
X45585714Y-56354819D01*
X46871428Y-55688152D02*
X46871428Y-56354819D01*
X46633333Y-55307200D02*
X46395238Y-56021485D01*
X46395238Y-56021485D02*
X47014285Y-56021485D01*
X29354819Y-13261904D02*
X30164342Y-13261904D01*
X30164342Y-13261904D02*
X30259580Y-13214285D01*
X30259580Y-13214285D02*
X30307200Y-13166666D01*
X30307200Y-13166666D02*
X30354819Y-13071428D01*
X30354819Y-13071428D02*
X30354819Y-12880952D01*
X30354819Y-12880952D02*
X30307200Y-12785714D01*
X30307200Y-12785714D02*
X30259580Y-12738095D01*
X30259580Y-12738095D02*
X30164342Y-12690476D01*
X30164342Y-12690476D02*
X29354819Y-12690476D01*
X29354819Y-12309523D02*
X29354819Y-11690476D01*
X29354819Y-11690476D02*
X29735771Y-12023809D01*
X29735771Y-12023809D02*
X29735771Y-11880952D01*
X29735771Y-11880952D02*
X29783390Y-11785714D01*
X29783390Y-11785714D02*
X29831009Y-11738095D01*
X29831009Y-11738095D02*
X29926247Y-11690476D01*
X29926247Y-11690476D02*
X30164342Y-11690476D01*
X30164342Y-11690476D02*
X30259580Y-11738095D01*
X30259580Y-11738095D02*
X30307200Y-11785714D01*
X30307200Y-11785714D02*
X30354819Y-11880952D01*
X30354819Y-11880952D02*
X30354819Y-12166666D01*
X30354819Y-12166666D02*
X30307200Y-12261904D01*
X30307200Y-12261904D02*
X30259580Y-12309523D01*
X47166666Y-74454819D02*
X47166666Y-75169104D01*
X47166666Y-75169104D02*
X47119047Y-75311961D01*
X47119047Y-75311961D02*
X47023809Y-75407200D01*
X47023809Y-75407200D02*
X46880952Y-75454819D01*
X46880952Y-75454819D02*
X46785714Y-75454819D01*
X47785714Y-74883390D02*
X47690476Y-74835771D01*
X47690476Y-74835771D02*
X47642857Y-74788152D01*
X47642857Y-74788152D02*
X47595238Y-74692914D01*
X47595238Y-74692914D02*
X47595238Y-74645295D01*
X47595238Y-74645295D02*
X47642857Y-74550057D01*
X47642857Y-74550057D02*
X47690476Y-74502438D01*
X47690476Y-74502438D02*
X47785714Y-74454819D01*
X47785714Y-74454819D02*
X47976190Y-74454819D01*
X47976190Y-74454819D02*
X48071428Y-74502438D01*
X48071428Y-74502438D02*
X48119047Y-74550057D01*
X48119047Y-74550057D02*
X48166666Y-74645295D01*
X48166666Y-74645295D02*
X48166666Y-74692914D01*
X48166666Y-74692914D02*
X48119047Y-74788152D01*
X48119047Y-74788152D02*
X48071428Y-74835771D01*
X48071428Y-74835771D02*
X47976190Y-74883390D01*
X47976190Y-74883390D02*
X47785714Y-74883390D01*
X47785714Y-74883390D02*
X47690476Y-74931009D01*
X47690476Y-74931009D02*
X47642857Y-74978628D01*
X47642857Y-74978628D02*
X47595238Y-75073866D01*
X47595238Y-75073866D02*
X47595238Y-75264342D01*
X47595238Y-75264342D02*
X47642857Y-75359580D01*
X47642857Y-75359580D02*
X47690476Y-75407200D01*
X47690476Y-75407200D02*
X47785714Y-75454819D01*
X47785714Y-75454819D02*
X47976190Y-75454819D01*
X47976190Y-75454819D02*
X48071428Y-75407200D01*
X48071428Y-75407200D02*
X48119047Y-75359580D01*
X48119047Y-75359580D02*
X48166666Y-75264342D01*
X48166666Y-75264342D02*
X48166666Y-75073866D01*
X48166666Y-75073866D02*
X48119047Y-74978628D01*
X48119047Y-74978628D02*
X48071428Y-74931009D01*
X48071428Y-74931009D02*
X47976190Y-74883390D01*
X52138095Y-27554819D02*
X52138095Y-26554819D01*
X52138095Y-27031009D02*
X52709523Y-27031009D01*
X52709523Y-27554819D02*
X52709523Y-26554819D01*
X53614285Y-26554819D02*
X53423809Y-26554819D01*
X53423809Y-26554819D02*
X53328571Y-26602438D01*
X53328571Y-26602438D02*
X53280952Y-26650057D01*
X53280952Y-26650057D02*
X53185714Y-26792914D01*
X53185714Y-26792914D02*
X53138095Y-26983390D01*
X53138095Y-26983390D02*
X53138095Y-27364342D01*
X53138095Y-27364342D02*
X53185714Y-27459580D01*
X53185714Y-27459580D02*
X53233333Y-27507200D01*
X53233333Y-27507200D02*
X53328571Y-27554819D01*
X53328571Y-27554819D02*
X53519047Y-27554819D01*
X53519047Y-27554819D02*
X53614285Y-27507200D01*
X53614285Y-27507200D02*
X53661904Y-27459580D01*
X53661904Y-27459580D02*
X53709523Y-27364342D01*
X53709523Y-27364342D02*
X53709523Y-27126247D01*
X53709523Y-27126247D02*
X53661904Y-27031009D01*
X53661904Y-27031009D02*
X53614285Y-26983390D01*
X53614285Y-26983390D02*
X53519047Y-26935771D01*
X53519047Y-26935771D02*
X53328571Y-26935771D01*
X53328571Y-26935771D02*
X53233333Y-26983390D01*
X53233333Y-26983390D02*
X53185714Y-27031009D01*
X53185714Y-27031009D02*
X53138095Y-27126247D01*
X23238095Y-65854819D02*
X23238095Y-64854819D01*
X23238095Y-65331009D02*
X23809523Y-65331009D01*
X23809523Y-65854819D02*
X23809523Y-64854819D01*
X24333333Y-65854819D02*
X24523809Y-65854819D01*
X24523809Y-65854819D02*
X24619047Y-65807200D01*
X24619047Y-65807200D02*
X24666666Y-65759580D01*
X24666666Y-65759580D02*
X24761904Y-65616723D01*
X24761904Y-65616723D02*
X24809523Y-65426247D01*
X24809523Y-65426247D02*
X24809523Y-65045295D01*
X24809523Y-65045295D02*
X24761904Y-64950057D01*
X24761904Y-64950057D02*
X24714285Y-64902438D01*
X24714285Y-64902438D02*
X24619047Y-64854819D01*
X24619047Y-64854819D02*
X24428571Y-64854819D01*
X24428571Y-64854819D02*
X24333333Y-64902438D01*
X24333333Y-64902438D02*
X24285714Y-64950057D01*
X24285714Y-64950057D02*
X24238095Y-65045295D01*
X24238095Y-65045295D02*
X24238095Y-65283390D01*
X24238095Y-65283390D02*
X24285714Y-65378628D01*
X24285714Y-65378628D02*
X24333333Y-65426247D01*
X24333333Y-65426247D02*
X24428571Y-65473866D01*
X24428571Y-65473866D02*
X24619047Y-65473866D01*
X24619047Y-65473866D02*
X24714285Y-65426247D01*
X24714285Y-65426247D02*
X24761904Y-65378628D01*
X24761904Y-65378628D02*
X24809523Y-65283390D01*
X1238095Y-40554819D02*
X1238095Y-39554819D01*
X1238095Y-40031009D02*
X1809523Y-40031009D01*
X1809523Y-40554819D02*
X1809523Y-39554819D01*
X2190476Y-39554819D02*
X2857142Y-39554819D01*
X2857142Y-39554819D02*
X2428571Y-40554819D01*
X45966666Y-17054819D02*
X45966666Y-17769104D01*
X45966666Y-17769104D02*
X45919047Y-17911961D01*
X45919047Y-17911961D02*
X45823809Y-18007200D01*
X45823809Y-18007200D02*
X45680952Y-18054819D01*
X45680952Y-18054819D02*
X45585714Y-18054819D01*
X46395238Y-17150057D02*
X46442857Y-17102438D01*
X46442857Y-17102438D02*
X46538095Y-17054819D01*
X46538095Y-17054819D02*
X46776190Y-17054819D01*
X46776190Y-17054819D02*
X46871428Y-17102438D01*
X46871428Y-17102438D02*
X46919047Y-17150057D01*
X46919047Y-17150057D02*
X46966666Y-17245295D01*
X46966666Y-17245295D02*
X46966666Y-17340533D01*
X46966666Y-17340533D02*
X46919047Y-17483390D01*
X46919047Y-17483390D02*
X46347619Y-18054819D01*
X46347619Y-18054819D02*
X46966666Y-18054819D01*
X761905Y-78854819D02*
X761905Y-77854819D01*
X761905Y-78331009D02*
X1333333Y-78331009D01*
X1333333Y-78854819D02*
X1333333Y-77854819D01*
X2333333Y-78854819D02*
X1761905Y-78854819D01*
X2047619Y-78854819D02*
X2047619Y-77854819D01*
X2047619Y-77854819D02*
X1952381Y-77997676D01*
X1952381Y-77997676D02*
X1857143Y-78092914D01*
X1857143Y-78092914D02*
X1761905Y-78140533D01*
X2714286Y-77950057D02*
X2761905Y-77902438D01*
X2761905Y-77902438D02*
X2857143Y-77854819D01*
X2857143Y-77854819D02*
X3095238Y-77854819D01*
X3095238Y-77854819D02*
X3190476Y-77902438D01*
X3190476Y-77902438D02*
X3238095Y-77950057D01*
X3238095Y-77950057D02*
X3285714Y-78045295D01*
X3285714Y-78045295D02*
X3285714Y-78140533D01*
X3285714Y-78140533D02*
X3238095Y-78283390D01*
X3238095Y-78283390D02*
X2666667Y-78854819D01*
X2666667Y-78854819D02*
X3285714Y-78854819D01*
X29661905Y-104154819D02*
X29661905Y-103154819D01*
X29661905Y-103631009D02*
X30233333Y-103631009D01*
X30233333Y-104154819D02*
X30233333Y-103154819D01*
X31233333Y-104154819D02*
X30661905Y-104154819D01*
X30947619Y-104154819D02*
X30947619Y-103154819D01*
X30947619Y-103154819D02*
X30852381Y-103297676D01*
X30852381Y-103297676D02*
X30757143Y-103392914D01*
X30757143Y-103392914D02*
X30661905Y-103440533D01*
X32090476Y-103154819D02*
X31900000Y-103154819D01*
X31900000Y-103154819D02*
X31804762Y-103202438D01*
X31804762Y-103202438D02*
X31757143Y-103250057D01*
X31757143Y-103250057D02*
X31661905Y-103392914D01*
X31661905Y-103392914D02*
X31614286Y-103583390D01*
X31614286Y-103583390D02*
X31614286Y-103964342D01*
X31614286Y-103964342D02*
X31661905Y-104059580D01*
X31661905Y-104059580D02*
X31709524Y-104107200D01*
X31709524Y-104107200D02*
X31804762Y-104154819D01*
X31804762Y-104154819D02*
X31995238Y-104154819D01*
X31995238Y-104154819D02*
X32090476Y-104107200D01*
X32090476Y-104107200D02*
X32138095Y-104059580D01*
X32138095Y-104059580D02*
X32185714Y-103964342D01*
X32185714Y-103964342D02*
X32185714Y-103726247D01*
X32185714Y-103726247D02*
X32138095Y-103631009D01*
X32138095Y-103631009D02*
X32090476Y-103583390D01*
X32090476Y-103583390D02*
X31995238Y-103535771D01*
X31995238Y-103535771D02*
X31804762Y-103535771D01*
X31804762Y-103535771D02*
X31709524Y-103583390D01*
X31709524Y-103583390D02*
X31661905Y-103631009D01*
X31661905Y-103631009D02*
X31614286Y-103726247D01*
X8266666Y-17054819D02*
X8266666Y-17769104D01*
X8266666Y-17769104D02*
X8219047Y-17911961D01*
X8219047Y-17911961D02*
X8123809Y-18007200D01*
X8123809Y-18007200D02*
X7980952Y-18054819D01*
X7980952Y-18054819D02*
X7885714Y-18054819D01*
X9266666Y-18054819D02*
X8695238Y-18054819D01*
X8980952Y-18054819D02*
X8980952Y-17054819D01*
X8980952Y-17054819D02*
X8885714Y-17197676D01*
X8885714Y-17197676D02*
X8790476Y-17292914D01*
X8790476Y-17292914D02*
X8695238Y-17340533D01*
X42166667Y-1957200D02*
X42309524Y-2004819D01*
X42309524Y-2004819D02*
X42547619Y-2004819D01*
X42547619Y-2004819D02*
X42642857Y-1957200D01*
X42642857Y-1957200D02*
X42690476Y-1909580D01*
X42690476Y-1909580D02*
X42738095Y-1814342D01*
X42738095Y-1814342D02*
X42738095Y-1719104D01*
X42738095Y-1719104D02*
X42690476Y-1623866D01*
X42690476Y-1623866D02*
X42642857Y-1576247D01*
X42642857Y-1576247D02*
X42547619Y-1528628D01*
X42547619Y-1528628D02*
X42357143Y-1481009D01*
X42357143Y-1481009D02*
X42261905Y-1433390D01*
X42261905Y-1433390D02*
X42214286Y-1385771D01*
X42214286Y-1385771D02*
X42166667Y-1290533D01*
X42166667Y-1290533D02*
X42166667Y-1195295D01*
X42166667Y-1195295D02*
X42214286Y-1100057D01*
X42214286Y-1100057D02*
X42261905Y-1052438D01*
X42261905Y-1052438D02*
X42357143Y-1004819D01*
X42357143Y-1004819D02*
X42595238Y-1004819D01*
X42595238Y-1004819D02*
X42738095Y-1052438D01*
X43071429Y-1004819D02*
X43309524Y-2004819D01*
X43309524Y-2004819D02*
X43500000Y-1290533D01*
X43500000Y-1290533D02*
X43690476Y-2004819D01*
X43690476Y-2004819D02*
X43928572Y-1004819D01*
X44261905Y-1100057D02*
X44309524Y-1052438D01*
X44309524Y-1052438D02*
X44404762Y-1004819D01*
X44404762Y-1004819D02*
X44642857Y-1004819D01*
X44642857Y-1004819D02*
X44738095Y-1052438D01*
X44738095Y-1052438D02*
X44785714Y-1100057D01*
X44785714Y-1100057D02*
X44833333Y-1195295D01*
X44833333Y-1195295D02*
X44833333Y-1290533D01*
X44833333Y-1290533D02*
X44785714Y-1433390D01*
X44785714Y-1433390D02*
X44214286Y-2004819D01*
X44214286Y-2004819D02*
X44833333Y-2004819D01*
X1238095Y-104154819D02*
X1238095Y-103154819D01*
X1238095Y-103631009D02*
X1809523Y-103631009D01*
X1809523Y-104154819D02*
X1809523Y-103154819D01*
X2190476Y-103154819D02*
X2809523Y-103154819D01*
X2809523Y-103154819D02*
X2476190Y-103535771D01*
X2476190Y-103535771D02*
X2619047Y-103535771D01*
X2619047Y-103535771D02*
X2714285Y-103583390D01*
X2714285Y-103583390D02*
X2761904Y-103631009D01*
X2761904Y-103631009D02*
X2809523Y-103726247D01*
X2809523Y-103726247D02*
X2809523Y-103964342D01*
X2809523Y-103964342D02*
X2761904Y-104059580D01*
X2761904Y-104059580D02*
X2714285Y-104107200D01*
X2714285Y-104107200D02*
X2619047Y-104154819D01*
X2619047Y-104154819D02*
X2333333Y-104154819D01*
X2333333Y-104154819D02*
X2238095Y-104107200D01*
X2238095Y-104107200D02*
X2190476Y-104059580D01*
%TO.C,J7*%
D12*
X22830000Y-3200000D02*
X22830000Y-4900000D01*
X32170000Y-3200000D02*
X32170000Y-4900000D01*
%TO.C,U1*%
X14600000Y-27500000D02*
X20800000Y-27500000D01*
X14600000Y-45900000D02*
X14600000Y-27500000D01*
X14600000Y-45900000D02*
X20800000Y-45900000D01*
X39450000Y-45900000D02*
X40450000Y-45900000D01*
X40450000Y-27500000D02*
X39450000Y-27500000D01*
X40450000Y-27500000D02*
X40450000Y-29000000D01*
X40450000Y-45900000D02*
X40450000Y-44400000D01*
X21475000Y-45900000D02*
X21475000Y-46400000D01*
X20975000Y-45900000D01*
X21475000Y-45900000D01*
G36*
X21475000Y-46400000D02*
G01*
X20975000Y-45900000D01*
X21475000Y-45900000D01*
X21475000Y-46400000D01*
G37*
%TO.C,R2*%
X45620000Y-10446359D02*
X45620000Y-10753641D01*
X46380000Y-10446359D02*
X46380000Y-10753641D01*
%TO.C,C2*%
X45640000Y-14707836D02*
X45640000Y-14492164D01*
X46360000Y-14707836D02*
X46360000Y-14492164D01*
%TO.C,R4*%
X45620000Y-48746359D02*
X45620000Y-49053641D01*
X46380000Y-48746359D02*
X46380000Y-49053641D01*
%TO.C,U2*%
X11090000Y-1090000D02*
X11090000Y-2350000D01*
X11090000Y-7910000D02*
X11090000Y-6650000D01*
X14850000Y-1090000D02*
X11090000Y-1090000D01*
X14850000Y-7910000D02*
X11090000Y-7910000D01*
X16130000Y-7810000D02*
X16370000Y-8140000D01*
X15890000Y-8140000D01*
X16130000Y-7810000D01*
G36*
X16370000Y-8140000D02*
G01*
X15890000Y-8140000D01*
X16130000Y-7810000D01*
X16370000Y-8140000D01*
G37*
%TO.C,C11*%
X29892164Y-51140000D02*
X30107836Y-51140000D01*
X29892164Y-51860000D02*
X30107836Y-51860000D01*
%TO.C,SW1*%
X35300000Y-4050000D02*
X35300000Y-3950000D01*
X35300000Y-5550000D02*
X39700000Y-5550000D01*
X39700000Y-2450000D02*
X35300000Y-2450000D01*
X39700000Y-4050000D02*
X39700000Y-3950000D01*
%TO.C,C5*%
X8640000Y-90307836D02*
X8640000Y-90092164D01*
X9360000Y-90307836D02*
X9360000Y-90092164D01*
%TO.C,R3*%
X8620000Y-59746359D02*
X8620000Y-60053641D01*
X9380000Y-59746359D02*
X9380000Y-60053641D01*
%TO.C,J5*%
X11290000Y-87590000D02*
X11290000Y-88540000D01*
X11290000Y-99860000D02*
X9800000Y-99860000D01*
X11290000Y-100810000D02*
X11290000Y-99860000D01*
X11740000Y-87590000D02*
X11290000Y-87590000D01*
X11740000Y-100810000D02*
X11290000Y-100810000D01*
X15260000Y-100810000D02*
X15710000Y-100810000D01*
X15710000Y-87590000D02*
X15260000Y-87590000D01*
X15710000Y-100810000D02*
X15710000Y-87590000D01*
%TO.C,J6*%
X39190000Y-87590000D02*
X39190000Y-100810000D01*
X39190000Y-100810000D02*
X39640000Y-100810000D01*
X39640000Y-87590000D02*
X39190000Y-87590000D01*
X43160000Y-87590000D02*
X43610000Y-87590000D01*
X43160000Y-100810000D02*
X43610000Y-100810000D01*
X43610000Y-87590000D02*
X43610000Y-88540000D01*
X43610000Y-88540000D02*
X45100000Y-88540000D01*
X43610000Y-100810000D02*
X43610000Y-99860000D01*
%TO.C,C9*%
X23392164Y-51140000D02*
X23607836Y-51140000D01*
X23392164Y-51860000D02*
X23607836Y-51860000D01*
%TO.C,C10*%
X32892164Y-51140000D02*
X33107836Y-51140000D01*
X32892164Y-51860000D02*
X33107836Y-51860000D01*
%TO.C,J3*%
X11290000Y-49290000D02*
X11290000Y-50240000D01*
X11290000Y-61560000D02*
X9800000Y-61560000D01*
X11290000Y-62510000D02*
X11290000Y-61560000D01*
X11740000Y-49290000D02*
X11290000Y-49290000D01*
X11740000Y-62510000D02*
X11290000Y-62510000D01*
X15260000Y-62510000D02*
X15710000Y-62510000D01*
X15710000Y-49290000D02*
X15260000Y-49290000D01*
X15710000Y-62510000D02*
X15710000Y-49290000D01*
%TO.C,C6*%
X45640000Y-94607836D02*
X45640000Y-94392164D01*
X46360000Y-94607836D02*
X46360000Y-94392164D01*
%TO.C,R8*%
X34120000Y-9653641D02*
X34120000Y-9346359D01*
X34880000Y-9653641D02*
X34880000Y-9346359D01*
%TO.C,R1*%
X8620000Y-21446359D02*
X8620000Y-21753641D01*
X9380000Y-21446359D02*
X9380000Y-21753641D01*
%TO.C,C8*%
X5765000Y-10061252D02*
X5765000Y-9538748D01*
X7235000Y-10061252D02*
X7235000Y-9538748D01*
%TO.C,J4*%
X39190000Y-49290000D02*
X39190000Y-62510000D01*
X39190000Y-62510000D02*
X39640000Y-62510000D01*
X39640000Y-49290000D02*
X39190000Y-49290000D01*
X43160000Y-49290000D02*
X43610000Y-49290000D01*
X43160000Y-62510000D02*
X43610000Y-62510000D01*
X43610000Y-49290000D02*
X43610000Y-50240000D01*
X43610000Y-50240000D02*
X45100000Y-50240000D01*
X43610000Y-62510000D02*
X43610000Y-61560000D01*
%TO.C,R7*%
X20120000Y-9653641D02*
X20120000Y-9346359D01*
X20880000Y-9653641D02*
X20880000Y-9346359D01*
%TO.C,U3*%
X25940000Y-11590000D02*
X25990000Y-11590000D01*
X25940000Y-13410000D02*
X25940000Y-11590000D01*
X25990000Y-13410000D02*
X25940000Y-13410000D01*
X29010000Y-11590000D02*
X29060000Y-11590000D01*
X29060000Y-11590000D02*
X29060000Y-13410000D01*
X29060000Y-13410000D02*
X29010000Y-13410000D01*
X29010000Y-11050000D02*
X29340000Y-10810000D01*
X29340000Y-11290000D01*
X29010000Y-11050000D01*
G36*
X29340000Y-11290000D02*
G01*
X29010000Y-11050000D01*
X29340000Y-10810000D01*
X29340000Y-11290000D01*
G37*
%TO.C,J8*%
X41715000Y-68565000D02*
X43525000Y-68565000D01*
X41715000Y-68675000D02*
X41715000Y-68565000D01*
X41715000Y-81435000D02*
X41715000Y-70175000D01*
X42875000Y-81435000D02*
X41715000Y-81435000D01*
X45425000Y-68565000D02*
X51725000Y-68565000D01*
X46125000Y-81435000D02*
X51725000Y-81435000D01*
%TO.C,C4*%
X45640000Y-53007836D02*
X45640000Y-52792164D01*
X46360000Y-53007836D02*
X46360000Y-52792164D01*
%TO.C,R9*%
X26846359Y-51120000D02*
X27153641Y-51120000D01*
X26846359Y-51880000D02*
X27153641Y-51880000D01*
%TO.C,J2*%
X39190000Y-10990000D02*
X39190000Y-24210000D01*
X39190000Y-24210000D02*
X39640000Y-24210000D01*
X39640000Y-10990000D02*
X39190000Y-10990000D01*
X43160000Y-10990000D02*
X43610000Y-10990000D01*
X43160000Y-24210000D02*
X43610000Y-24210000D01*
X43610000Y-10990000D02*
X43610000Y-11940000D01*
X43610000Y-11940000D02*
X45100000Y-11940000D01*
X43610000Y-24210000D02*
X43610000Y-23260000D01*
%TO.C,C3*%
X8640000Y-52007836D02*
X8640000Y-51792164D01*
X9360000Y-52007836D02*
X9360000Y-51792164D01*
%TO.C,R6*%
X45620000Y-87046359D02*
X45620000Y-87353641D01*
X46380000Y-87046359D02*
X46380000Y-87353641D01*
%TO.C,J1*%
X11290000Y-10990000D02*
X11290000Y-11940000D01*
X11290000Y-23260000D02*
X9800000Y-23260000D01*
X11290000Y-24210000D02*
X11290000Y-23260000D01*
X11740000Y-10990000D02*
X11290000Y-10990000D01*
X11740000Y-24210000D02*
X11290000Y-24210000D01*
X15260000Y-24210000D02*
X15710000Y-24210000D01*
X15710000Y-10990000D02*
X15260000Y-10990000D01*
X15710000Y-24210000D02*
X15710000Y-10990000D01*
%TO.C,C1*%
X8640000Y-13707836D02*
X8640000Y-13492164D01*
X9360000Y-13707836D02*
X9360000Y-13492164D01*
%TO.C,SW2*%
X41300000Y-4050000D02*
X41300000Y-3950000D01*
X41300000Y-5550000D02*
X45700000Y-5550000D01*
X45700000Y-2450000D02*
X41300000Y-2450000D01*
X45700000Y-4050000D02*
X45700000Y-3950000D01*
%TO.C,R5*%
X8620000Y-98046359D02*
X8620000Y-98353641D01*
X9380000Y-98046359D02*
X9380000Y-98353641D01*
%TO.C,C7*%
X18265000Y-6761252D02*
X18265000Y-6238748D01*
X19735000Y-6761252D02*
X19735000Y-6238748D01*
%TD*%
M02*
