%TF.GenerationSoftware,KiCad,Pcbnew,10.0.4*%
%TF.CreationDate,2026-08-10T16:01:08+03:00*%
%TF.ProjectId,data_streamdeck,64617461-5f73-4747-9265-616d6465636b,rev?*%
%TF.SameCoordinates,Original*%
%TF.FileFunction,Paste,Top*%
%TF.FilePolarity,Positive*%
%FSLAX46Y46*%
G04 Gerber Fmt 4.6, Leading zero omitted, Abs format (unit mm)*
G04 Created by KiCad (PCBNEW 10.0.4) date 2026-08-10 16:01:08*
%MOMM*%
%LPD*%
G01*
G04 APERTURE LIST*
G04 Aperture macros list*
%AMRoundRect*
0 Rectangle with rounded corners*
0 $1 Rounding radius*
0 $2 $3 $4 $5 $6 $7 $8 $9 X,Y pos of 4 corners*
0 Add a 4 corners polygon primitive as box body*
4,1,4,$2,$3,$4,$5,$6,$7,$8,$9,$2,$3,0*
0 Add four circle primitives for the rounded corners*
1,1,$1+$1,$2,$3*
1,1,$1+$1,$4,$5*
1,1,$1+$1,$6,$7*
1,1,$1+$1,$8,$9*
0 Add four rect primitives between the rounded corners*
20,1,$1+$1,$2,$3,$4,$5,0*
20,1,$1+$1,$4,$5,$6,$7,0*
20,1,$1+$1,$6,$7,$8,$9,0*
20,1,$1+$1,$8,$9,$2,$3,0*%
G04 Aperture macros list end*
%ADD10RoundRect,0.150000X-0.512500X-0.150000X0.512500X-0.150000X0.512500X0.150000X-0.512500X0.150000X0*%
%ADD11RoundRect,0.135000X-0.185000X0.135000X-0.185000X-0.135000X0.185000X-0.135000X0.185000X0.135000X0*%
%ADD12RoundRect,0.250000X0.475000X-0.250000X0.475000X0.250000X-0.475000X0.250000X-0.475000X-0.250000X0*%
%ADD13RoundRect,0.140000X0.170000X-0.140000X0.170000X0.140000X-0.170000X0.140000X-0.170000X-0.140000X0*%
%ADD14R,2.000000X4.200000*%
%ADD15RoundRect,0.375000X-0.625000X-0.375000X0.625000X-0.375000X0.625000X0.375000X-0.625000X0.375000X0*%
%ADD16RoundRect,0.500000X-0.500000X-1.400000X0.500000X-1.400000X0.500000X1.400000X-0.500000X1.400000X0*%
%ADD17R,0.700000X1.400000*%
%ADD18R,0.850000X1.600000*%
%ADD19RoundRect,0.200000X0.600000X-0.200000X0.600000X0.200000X-0.600000X0.200000X-0.600000X-0.200000X0*%
%ADD20RoundRect,0.250001X1.249999X-0.799999X1.249999X0.799999X-1.249999X0.799999X-1.249999X-0.799999X0*%
%ADD21R,1.600000X0.850000*%
%ADD22RoundRect,0.150000X0.150000X0.625000X-0.150000X0.625000X-0.150000X-0.625000X0.150000X-0.625000X0*%
%ADD23RoundRect,0.250000X0.350000X0.650000X-0.350000X0.650000X-0.350000X-0.650000X0.350000X-0.650000X0*%
%ADD24R,0.900000X1.000000*%
%ADD25RoundRect,0.140000X0.140000X0.170000X-0.140000X0.170000X-0.140000X-0.170000X0.140000X-0.170000X0*%
%ADD26RoundRect,0.135000X-0.135000X-0.185000X0.135000X-0.185000X0.135000X0.185000X-0.135000X0.185000X0*%
%ADD27RoundRect,0.150000X-0.625000X0.150000X-0.625000X-0.150000X0.625000X-0.150000X0.625000X0.150000X0*%
%ADD28RoundRect,0.250000X-0.650000X0.350000X-0.650000X-0.350000X0.650000X-0.350000X0.650000X0.350000X0*%
%ADD29RoundRect,0.200000X-0.600000X0.200000X-0.600000X-0.200000X0.600000X-0.200000X0.600000X0.200000X0*%
%ADD30RoundRect,0.250001X-1.249999X0.799999X-1.249999X-0.799999X1.249999X-0.799999X1.249999X0.799999X0*%
%ADD31R,0.900000X0.900000*%
%ADD32R,0.900000X1.500000*%
%ADD33R,1.500000X0.900000*%
%ADD34R,1.750000X0.700000*%
%ADD35R,1.000000X1.450000*%
%ADD36R,1.550000X1.000000*%
%ADD37R,1.500000X0.800000*%
%ADD38R,1.500000X1.300000*%
%ADD39R,1.500000X1.500000*%
%ADD40R,1.400000X0.800000*%
%ADD41RoundRect,0.140000X-0.140000X-0.170000X0.140000X-0.170000X0.140000X0.170000X-0.140000X0.170000X0*%
%ADD42RoundRect,0.087500X-0.662500X-0.087500X0.662500X-0.087500X0.662500X0.087500X-0.662500X0.087500X0*%
%ADD43RoundRect,0.150000X0.150000X0.425000X-0.150000X0.425000X-0.150000X-0.425000X0.150000X-0.425000X0*%
%ADD44RoundRect,0.075000X0.075000X0.500000X-0.075000X0.500000X-0.075000X-0.500000X0.075000X-0.500000X0*%
%ADD45O,1.000000X2.100000*%
%ADD46O,1.000000X1.800000*%
%ADD47RoundRect,0.087500X-0.225000X-0.087500X0.225000X-0.087500X0.225000X0.087500X-0.225000X0.087500X0*%
%ADD48RoundRect,0.087500X-0.087500X-0.225000X0.087500X-0.225000X0.087500X0.225000X-0.087500X0.225000X0*%
G04 APERTURE END LIST*
D10*
%TO.C,U7*%
X20262500Y-7850000D03*
X20262500Y-8800000D03*
X20262500Y-9750000D03*
X22537500Y-9750000D03*
X22537500Y-7850000D03*
%TD*%
D11*
%TO.C,R4*%
X50250000Y-57740000D03*
X50250000Y-58760000D03*
%TD*%
D12*
%TO.C,C8*%
X3600000Y-11750000D03*
X3600000Y-9850000D03*
%TD*%
D13*
%TO.C,C1*%
X9250000Y-14430000D03*
X9250000Y-13470000D03*
%TD*%
D14*
%TO.C,BZ1*%
X25750000Y-84500000D03*
X33750000Y-84500000D03*
%TD*%
D15*
%TO.C,U2*%
X8250000Y-2400000D03*
X8250000Y-4700000D03*
D16*
X14550000Y-4700000D03*
D15*
X8250000Y-7000000D03*
%TD*%
D17*
%TO.C,U5*%
X31655000Y-105800000D03*
X30385000Y-105800000D03*
X29115000Y-105800000D03*
X27845000Y-105800000D03*
%TD*%
D18*
%TO.C,D2*%
X57375000Y-16200000D03*
X55625000Y-16200000D03*
X55625000Y-19700000D03*
X57375000Y-19700000D03*
%TD*%
D11*
%TO.C,R6*%
X50250000Y-94040000D03*
X50250000Y-95060000D03*
%TD*%
D19*
%TO.C,J3*%
X10850000Y-59250000D03*
X10850000Y-58000000D03*
X10850000Y-56750000D03*
X10850000Y-55500000D03*
X10850000Y-54250000D03*
X10850000Y-53000000D03*
X10850000Y-51750000D03*
X10850000Y-50500000D03*
X10850000Y-49250000D03*
D20*
X13750000Y-61800000D03*
X13750000Y-46700000D03*
%TD*%
D19*
%TO.C,J5*%
X10850000Y-95550000D03*
X10850000Y-94300000D03*
X10850000Y-93050000D03*
X10850000Y-91800000D03*
X10850000Y-90550000D03*
X10850000Y-89300000D03*
X10850000Y-88050000D03*
X10850000Y-86800000D03*
X10850000Y-85550000D03*
D20*
X13750000Y-98100000D03*
X13750000Y-83000000D03*
%TD*%
D21*
%TO.C,D7*%
X18750000Y-925000D03*
X18750000Y-2675000D03*
X22250000Y-2675000D03*
X22250000Y-925000D03*
%TD*%
D22*
%TO.C,J9*%
X50500000Y-5100000D03*
X49500000Y-5100000D03*
X48500000Y-5100000D03*
X47500000Y-5100000D03*
D23*
X51800000Y-1225000D03*
X46200000Y-1225000D03*
%TD*%
D24*
%TO.C,SW2*%
X46950000Y-104400000D03*
X51050000Y-104400000D03*
X46950000Y-106000000D03*
X51050000Y-106000000D03*
%TD*%
D18*
%TO.C,D5*%
X2125000Y-92300000D03*
X3875000Y-92300000D03*
X3875000Y-88800000D03*
X2125000Y-88800000D03*
%TD*%
D13*
%TO.C,C5*%
X9250000Y-87030000D03*
X9250000Y-86070000D03*
%TD*%
D24*
%TO.C,SW1*%
X40450000Y-104400000D03*
X44550000Y-104400000D03*
X40450000Y-106000000D03*
X44550000Y-106000000D03*
%TD*%
D25*
%TO.C,C4*%
X40380000Y-56490000D03*
X39420000Y-56490000D03*
%TD*%
D26*
%TO.C,R9*%
X27990000Y-47500000D03*
X29010000Y-47500000D03*
%TD*%
D27*
%TO.C,J10*%
X43500000Y-71900000D03*
X43500000Y-72900000D03*
D28*
X39625000Y-70600000D03*
X39625000Y-74200000D03*
%TD*%
D26*
%TO.C,R10*%
X29240000Y-78300000D03*
X30260000Y-78300000D03*
%TD*%
D11*
%TO.C,R2*%
X50250000Y-21440000D03*
X50250000Y-22460000D03*
%TD*%
D18*
%TO.C,D3*%
X2125000Y-56000000D03*
X3875000Y-56000000D03*
X3875000Y-52500000D03*
X2125000Y-52500000D03*
%TD*%
D13*
%TO.C,C12*%
X35200000Y-72880000D03*
X35200000Y-71920000D03*
%TD*%
D29*
%TO.C,J6*%
X48650000Y-85550000D03*
X48650000Y-86800000D03*
X48650000Y-88050000D03*
X48650000Y-89300000D03*
X48650000Y-90550000D03*
X48650000Y-91800000D03*
X48650000Y-93050000D03*
X48650000Y-94300000D03*
X48650000Y-95550000D03*
D30*
X45750000Y-83000000D03*
X45750000Y-98100000D03*
%TD*%
D31*
%TO.C,U1*%
X30810000Y-39000000D03*
X32210000Y-39000000D03*
X33610000Y-39000000D03*
X30810000Y-37600000D03*
X32210000Y-37600000D03*
X33610000Y-37600000D03*
X30810000Y-36200000D03*
X32210000Y-36200000D03*
X33610000Y-36200000D03*
D32*
X24490000Y-44850000D03*
X25760000Y-44850000D03*
X27030000Y-44850000D03*
X28300000Y-44850000D03*
X29570000Y-44850000D03*
X30840000Y-44850000D03*
X32110000Y-44850000D03*
X33380000Y-44850000D03*
X34650000Y-44850000D03*
X35920000Y-44850000D03*
X37190000Y-44850000D03*
X38460000Y-44850000D03*
X39730000Y-44850000D03*
X41000000Y-44850000D03*
D33*
X42250000Y-43085000D03*
X42250000Y-41815000D03*
X42250000Y-40545000D03*
X42250000Y-39275000D03*
X42250000Y-38005000D03*
X42250000Y-36735000D03*
X42250000Y-35465000D03*
X42250000Y-34195000D03*
X42250000Y-32925000D03*
X42250000Y-31655000D03*
X42250000Y-30385000D03*
X42250000Y-29115000D03*
D32*
X41000000Y-27350000D03*
X39730000Y-27350000D03*
X38460000Y-27350000D03*
X37190000Y-27350000D03*
X35920000Y-27350000D03*
X34650000Y-27350000D03*
X33380000Y-27350000D03*
X32110000Y-27350000D03*
X30840000Y-27350000D03*
X29570000Y-27350000D03*
X28300000Y-27350000D03*
X27030000Y-27350000D03*
X25760000Y-27350000D03*
X24490000Y-27350000D03*
%TD*%
D34*
%TO.C,J8*%
X57350000Y-69225000D03*
X57350000Y-70325000D03*
X57350000Y-71425000D03*
X57350000Y-72525000D03*
X57350000Y-73625000D03*
X57350000Y-74725000D03*
X57350000Y-75825000D03*
X57350000Y-76925000D03*
D35*
X48125000Y-78050000D03*
D36*
X46550000Y-66825000D03*
D37*
X49625000Y-78375000D03*
D38*
X57225000Y-78125000D03*
D39*
X57225000Y-66775000D03*
D40*
X48975000Y-66425000D03*
%TD*%
D11*
%TO.C,R8*%
X25500000Y-8990000D03*
X25500000Y-10010000D03*
%TD*%
D13*
%TO.C,C3*%
X9250000Y-50730000D03*
X9250000Y-49770000D03*
%TD*%
%TO.C,C16*%
X18600000Y-10080000D03*
X18600000Y-9120000D03*
%TD*%
D11*
%TO.C,R7*%
X34000000Y-8990000D03*
X34000000Y-10010000D03*
%TD*%
D29*
%TO.C,J4*%
X48650000Y-49250000D03*
X48650000Y-50500000D03*
X48650000Y-51750000D03*
X48650000Y-53000000D03*
X48650000Y-54250000D03*
X48650000Y-55500000D03*
X48650000Y-56750000D03*
X48650000Y-58000000D03*
X48650000Y-59250000D03*
D30*
X45750000Y-46700000D03*
X45750000Y-61800000D03*
%TD*%
D11*
%TO.C,R1*%
X9250000Y-21440000D03*
X9250000Y-22460000D03*
%TD*%
D21*
%TO.C,D8*%
X36250000Y-925000D03*
X36250000Y-2675000D03*
X39750000Y-2675000D03*
X39750000Y-925000D03*
%TD*%
D29*
%TO.C,J2*%
X48650000Y-12950000D03*
X48650000Y-14200000D03*
X48650000Y-15450000D03*
X48650000Y-16700000D03*
X48650000Y-17950000D03*
X48650000Y-19200000D03*
X48650000Y-20450000D03*
X48650000Y-21700000D03*
X48650000Y-22950000D03*
D30*
X45750000Y-10400000D03*
X45750000Y-25500000D03*
%TD*%
D41*
%TO.C,C11*%
X31020000Y-47500000D03*
X31980000Y-47500000D03*
%TD*%
D11*
%TO.C,R5*%
X9250000Y-94040000D03*
X9250000Y-95060000D03*
%TD*%
D12*
%TO.C,C17*%
X23600000Y-6550000D03*
X23600000Y-4650000D03*
%TD*%
D11*
%TO.C,R3*%
X9250000Y-57740000D03*
X9250000Y-58760000D03*
%TD*%
D18*
%TO.C,D6*%
X57375000Y-88800000D03*
X55625000Y-88800000D03*
X55625000Y-92300000D03*
X57375000Y-92300000D03*
%TD*%
D12*
%TO.C,C7*%
X17400000Y-7450000D03*
X17400000Y-5550000D03*
%TD*%
D42*
%TO.C,U6*%
X29400000Y-71400000D03*
X29400000Y-71900000D03*
X29400000Y-72400000D03*
X29400000Y-72900000D03*
X29400000Y-73400000D03*
X33600000Y-73400000D03*
X33600000Y-72900000D03*
X33600000Y-72400000D03*
X33600000Y-71900000D03*
X33600000Y-71400000D03*
%TD*%
D13*
%TO.C,C6*%
X50250000Y-87030000D03*
X50250000Y-86070000D03*
%TD*%
D19*
%TO.C,J1*%
X10850000Y-22950000D03*
X10850000Y-21700000D03*
X10850000Y-20450000D03*
X10850000Y-19200000D03*
X10850000Y-17950000D03*
X10850000Y-16700000D03*
X10850000Y-15450000D03*
X10850000Y-14200000D03*
X10850000Y-12950000D03*
D20*
X13750000Y-25500000D03*
X13750000Y-10400000D03*
%TD*%
D18*
%TO.C,D4*%
X57375000Y-52500000D03*
X55625000Y-52500000D03*
X55625000Y-56000000D03*
X57375000Y-56000000D03*
%TD*%
D43*
%TO.C,J7*%
X32950000Y-6780000D03*
X32150000Y-6780000D03*
D44*
X31000000Y-6780000D03*
X30000000Y-6780000D03*
X29500000Y-6780000D03*
X28500000Y-6780000D03*
D43*
X27350000Y-6780000D03*
X26550000Y-6780000D03*
X26550000Y-6780000D03*
X27350000Y-6780000D03*
D44*
X28000000Y-6780000D03*
X29000000Y-6780000D03*
X30500000Y-6780000D03*
X31500000Y-6780000D03*
D43*
X32150000Y-6780000D03*
X32950000Y-6780000D03*
D45*
X34070000Y-6205000D03*
D46*
X34070000Y-2025000D03*
D45*
X25430000Y-6205000D03*
D46*
X25430000Y-2025000D03*
%TD*%
D13*
%TO.C,C2*%
X50250000Y-14430000D03*
X50250000Y-13470000D03*
%TD*%
D41*
%TO.C,C14*%
X19320000Y-107200000D03*
X20280000Y-107200000D03*
%TD*%
%TO.C,C9*%
X25020000Y-47500000D03*
X25980000Y-47500000D03*
%TD*%
%TO.C,C10*%
X34020000Y-47500000D03*
X34980000Y-47500000D03*
%TD*%
D47*
%TO.C,U4*%
X19337500Y-71650000D03*
X19337500Y-72150000D03*
X19337500Y-72650000D03*
X19337500Y-73150000D03*
D48*
X20000000Y-73312500D03*
X20500000Y-73312500D03*
X21000000Y-73312500D03*
D47*
X21662500Y-73150000D03*
X21662500Y-72650000D03*
X21662500Y-72150000D03*
X21662500Y-71650000D03*
D48*
X21000000Y-71487500D03*
X20500000Y-71487500D03*
X20000000Y-71487500D03*
%TD*%
D13*
%TO.C,C15*%
X28000000Y-72880000D03*
X28000000Y-71920000D03*
%TD*%
%TO.C,C13*%
X17000000Y-72880000D03*
X17000000Y-71920000D03*
%TD*%
D10*
%TO.C,U3*%
X28612500Y-8850000D03*
X28612500Y-9800000D03*
X28612500Y-10750000D03*
X30887500Y-10750000D03*
X30887500Y-9800000D03*
X30887500Y-8850000D03*
%TD*%
D18*
%TO.C,D1*%
X2125000Y-19700000D03*
X3875000Y-19700000D03*
X3875000Y-16200000D03*
X2125000Y-16200000D03*
%TD*%
M02*
