%TF.GenerationSoftware,KiCad,Pcbnew,10.0.4*%
%TF.CreationDate,2026-07-13T22:32:36-04:00*%
%TF.ProjectId,data_streamdeck,64617461-5f73-4747-9265-616d6465636b,C*%
%TF.SameCoordinates,Original*%
%TF.FileFunction,Other,User*%
%FSLAX46Y46*%
G04 Gerber Fmt 4.6, Leading zero omitted, Abs format (unit mm)*
G04 Created by KiCad (PCBNEW 10.0.4) date 2026-07-13 22:32:36*
%MOMM*%
%LPD*%
G01*
G04 APERTURE LIST*
%ADD10C,0.050000*%
G04 APERTURE END LIST*
%TO.C,J7*%
D10*
X22180000Y1080000D02*
X32820000Y1080000D01*
X32820000Y-7860000D01*
X22180000Y-7860000D01*
X22180000Y1080000D01*
%TO.C,H11*%
X55350000Y-43250000D02*
G75*
G02*
X50450000Y-43250000I-2450000J0D01*
G01*
X50450000Y-43250000D02*
G75*
G02*
X55350000Y-43250000I2450000J0D01*
G01*
%TO.C,U1*%
X-250000Y-12700000D02*
X-250000Y-60700000D01*
X-250000Y-60700000D02*
X20750000Y-60700000D01*
X20750000Y-12700000D02*
X-250000Y-12700000D01*
X20750000Y-26950000D02*
X20750000Y-12700000D01*
X20750000Y-26950000D02*
X40950000Y-26950000D01*
X20750000Y-60700000D02*
X20750000Y-46450000D01*
X40950000Y-46450000D02*
X20750000Y-46450000D01*
X40950000Y-46450000D02*
X40950000Y-26950000D01*
%TO.C,R2*%
X45530000Y-9670000D02*
X46470000Y-9670000D01*
X46470000Y-11530000D01*
X45530000Y-11530000D01*
X45530000Y-9670000D01*
%TO.C,C2*%
X45540000Y-13690000D02*
X46460000Y-13690000D01*
X46460000Y-15510000D01*
X45540000Y-15510000D01*
X45540000Y-13690000D01*
%TO.C,R4*%
X45530000Y-47970000D02*
X46470000Y-47970000D01*
X46470000Y-49830000D01*
X45530000Y-49830000D01*
X45530000Y-47970000D01*
%TO.C,U2*%
X8600000Y-900000D02*
X8600000Y-8100000D01*
X8600000Y-8100000D02*
X17400000Y-8100000D01*
X17400000Y-900000D02*
X8600000Y-900000D01*
X17400000Y-8100000D02*
X17400000Y-900000D01*
%TO.C,C11*%
X29090000Y-51040000D02*
X30910000Y-51040000D01*
X30910000Y-51960000D01*
X29090000Y-51960000D01*
X29090000Y-51040000D01*
%TO.C,H10*%
X33350000Y-68550000D02*
G75*
G02*
X28450000Y-68550000I-2450000J0D01*
G01*
X28450000Y-68550000D02*
G75*
G02*
X33350000Y-68550000I2450000J0D01*
G01*
%TO.C,SW1*%
X34700000Y-2200000D02*
X40300000Y-2200000D01*
X34700000Y-5800000D02*
X34700000Y-2200000D01*
X40300000Y-2200000D02*
X40300000Y-5800000D01*
X40300000Y-5800000D02*
X34700000Y-5800000D01*
%TO.C,C5*%
X8540000Y-89290000D02*
X9460000Y-89290000D01*
X9460000Y-91110000D01*
X8540000Y-91110000D01*
X8540000Y-89290000D01*
%TO.C,R3*%
X8530000Y-58970000D02*
X9470000Y-58970000D01*
X9470000Y-60830000D01*
X8530000Y-60830000D01*
X8530000Y-58970000D01*
%TO.C,J5*%
X9300000Y-88300000D02*
X10900000Y-88300000D01*
X9300000Y-100100000D02*
X9300000Y-88300000D01*
X10900000Y-87200000D02*
X11500000Y-87200000D01*
X10900000Y-88300000D02*
X10900000Y-87200000D01*
X10900000Y-100100000D02*
X9300000Y-100100000D01*
X10900000Y-101200000D02*
X10900000Y-100100000D01*
X11500000Y-85100000D02*
X15500000Y-85100000D01*
X11500000Y-87200000D02*
X11500000Y-85100000D01*
X11500000Y-101200000D02*
X10900000Y-101200000D01*
X11500000Y-103300000D02*
X11500000Y-101200000D01*
X15500000Y-85100000D02*
X15500000Y-85700000D01*
X15500000Y-85700000D02*
X15700000Y-85700000D01*
X15500000Y-102700000D02*
X15500000Y-103300000D01*
X15500000Y-103300000D02*
X11500000Y-103300000D01*
X15700000Y-85700000D02*
X15700000Y-87200000D01*
X15700000Y-87200000D02*
X16100000Y-87200000D01*
X15700000Y-101200000D02*
X15700000Y-102700000D01*
X15700000Y-102700000D02*
X15500000Y-102700000D01*
X16100000Y-87200000D02*
X16100000Y-101200000D01*
X16100000Y-101200000D02*
X15700000Y-101200000D01*
%TO.C,J6*%
X38800000Y-87200000D02*
X39200000Y-87200000D01*
X38800000Y-101200000D02*
X38800000Y-87200000D01*
X39200000Y-85700000D02*
X39400000Y-85700000D01*
X39200000Y-87200000D02*
X39200000Y-85700000D01*
X39200000Y-101200000D02*
X38800000Y-101200000D01*
X39200000Y-102700000D02*
X39200000Y-101200000D01*
X39400000Y-85100000D02*
X43400000Y-85100000D01*
X39400000Y-85700000D02*
X39400000Y-85100000D01*
X39400000Y-102700000D02*
X39200000Y-102700000D01*
X39400000Y-103300000D02*
X39400000Y-102700000D01*
X43400000Y-85100000D02*
X43400000Y-87200000D01*
X43400000Y-87200000D02*
X44000000Y-87200000D01*
X43400000Y-101200000D02*
X43400000Y-103300000D01*
X43400000Y-103300000D02*
X39400000Y-103300000D01*
X44000000Y-87200000D02*
X44000000Y-88300000D01*
X44000000Y-88300000D02*
X45600000Y-88300000D01*
X44000000Y-100100000D02*
X44000000Y-101200000D01*
X44000000Y-101200000D02*
X43400000Y-101200000D01*
X45600000Y-88300000D02*
X45600000Y-100100000D01*
X45600000Y-100100000D02*
X44000000Y-100100000D01*
%TO.C,H14*%
X26450000Y-106850000D02*
G75*
G02*
X21550000Y-106850000I-2450000J0D01*
G01*
X21550000Y-106850000D02*
G75*
G02*
X26450000Y-106850000I2450000J0D01*
G01*
%TO.C,H4*%
X55350000Y-106850000D02*
G75*
G02*
X50450000Y-106850000I-2450000J0D01*
G01*
X50450000Y-106850000D02*
G75*
G02*
X55350000Y-106850000I2450000J0D01*
G01*
%TO.C,H15*%
X33350000Y-81550000D02*
G75*
G02*
X28450000Y-81550000I-2450000J0D01*
G01*
X28450000Y-81550000D02*
G75*
G02*
X33350000Y-81550000I2450000J0D01*
G01*
%TO.C,H8*%
X4450000Y-68550000D02*
G75*
G02*
X-450000Y-68550000I-2450000J0D01*
G01*
X-450000Y-68550000D02*
G75*
G02*
X4450000Y-68550000I2450000J0D01*
G01*
%TO.C,C9*%
X22590000Y-51040000D02*
X24410000Y-51040000D01*
X24410000Y-51960000D01*
X22590000Y-51960000D01*
X22590000Y-51040000D01*
%TO.C,H2*%
X55350000Y-4950000D02*
G75*
G02*
X50450000Y-4950000I-2450000J0D01*
G01*
X50450000Y-4950000D02*
G75*
G02*
X55350000Y-4950000I2450000J0D01*
G01*
%TO.C,C10*%
X32090000Y-51040000D02*
X33910000Y-51040000D01*
X33910000Y-51960000D01*
X32090000Y-51960000D01*
X32090000Y-51040000D01*
%TO.C,J3*%
X9300000Y-50000000D02*
X10900000Y-50000000D01*
X9300000Y-61800000D02*
X9300000Y-50000000D01*
X10900000Y-48900000D02*
X11500000Y-48900000D01*
X10900000Y-50000000D02*
X10900000Y-48900000D01*
X10900000Y-61800000D02*
X9300000Y-61800000D01*
X10900000Y-62900000D02*
X10900000Y-61800000D01*
X11500000Y-46800000D02*
X15500000Y-46800000D01*
X11500000Y-48900000D02*
X11500000Y-46800000D01*
X11500000Y-62900000D02*
X10900000Y-62900000D01*
X11500000Y-65000000D02*
X11500000Y-62900000D01*
X15500000Y-46800000D02*
X15500000Y-47400000D01*
X15500000Y-47400000D02*
X15700000Y-47400000D01*
X15500000Y-64400000D02*
X15500000Y-65000000D01*
X15500000Y-65000000D02*
X11500000Y-65000000D01*
X15700000Y-47400000D02*
X15700000Y-48900000D01*
X15700000Y-48900000D02*
X16100000Y-48900000D01*
X15700000Y-62900000D02*
X15700000Y-64400000D01*
X15700000Y-64400000D02*
X15500000Y-64400000D01*
X16100000Y-48900000D02*
X16100000Y-62900000D01*
X16100000Y-62900000D02*
X15700000Y-62900000D01*
%TO.C,C6*%
X45540000Y-93590000D02*
X46460000Y-93590000D01*
X46460000Y-95410000D01*
X45540000Y-95410000D01*
X45540000Y-93590000D01*
%TO.C,R8*%
X34030000Y-8570000D02*
X34970000Y-8570000D01*
X34970000Y-10430000D01*
X34030000Y-10430000D01*
X34030000Y-8570000D01*
%TO.C,R1*%
X8530000Y-20670000D02*
X9470000Y-20670000D01*
X9470000Y-22530000D01*
X8530000Y-22530000D01*
X8530000Y-20670000D01*
%TO.C,C8*%
X5520000Y-8100000D02*
X7480000Y-8100000D01*
X7480000Y-11500000D01*
X5520000Y-11500000D01*
X5520000Y-8100000D01*
%TO.C,H1*%
X4450000Y-4950000D02*
G75*
G02*
X-450000Y-4950000I-2450000J0D01*
G01*
X-450000Y-4950000D02*
G75*
G02*
X4450000Y-4950000I2450000J0D01*
G01*
%TO.C,H13*%
X26450000Y-81550000D02*
G75*
G02*
X21550000Y-81550000I-2450000J0D01*
G01*
X21550000Y-81550000D02*
G75*
G02*
X26450000Y-81550000I2450000J0D01*
G01*
%TO.C,H5*%
X4450000Y-30250000D02*
G75*
G02*
X-450000Y-30250000I-2450000J0D01*
G01*
X-450000Y-30250000D02*
G75*
G02*
X4450000Y-30250000I2450000J0D01*
G01*
%TO.C,J4*%
X38800000Y-48900000D02*
X39200000Y-48900000D01*
X38800000Y-62900000D02*
X38800000Y-48900000D01*
X39200000Y-47400000D02*
X39400000Y-47400000D01*
X39200000Y-48900000D02*
X39200000Y-47400000D01*
X39200000Y-62900000D02*
X38800000Y-62900000D01*
X39200000Y-64400000D02*
X39200000Y-62900000D01*
X39400000Y-46800000D02*
X43400000Y-46800000D01*
X39400000Y-47400000D02*
X39400000Y-46800000D01*
X39400000Y-64400000D02*
X39200000Y-64400000D01*
X39400000Y-65000000D02*
X39400000Y-64400000D01*
X43400000Y-46800000D02*
X43400000Y-48900000D01*
X43400000Y-48900000D02*
X44000000Y-48900000D01*
X43400000Y-62900000D02*
X43400000Y-65000000D01*
X43400000Y-65000000D02*
X39400000Y-65000000D01*
X44000000Y-48900000D02*
X44000000Y-50000000D01*
X44000000Y-50000000D02*
X45600000Y-50000000D01*
X44000000Y-61800000D02*
X44000000Y-62900000D01*
X44000000Y-62900000D02*
X43400000Y-62900000D01*
X45600000Y-50000000D02*
X45600000Y-61800000D01*
X45600000Y-61800000D02*
X44000000Y-61800000D01*
%TO.C,R7*%
X20030000Y-8570000D02*
X20970000Y-8570000D01*
X20970000Y-10430000D01*
X20030000Y-10430000D01*
X20030000Y-8570000D01*
%TO.C,U3*%
X25800000Y-11450000D02*
X26000000Y-11450000D01*
X25800000Y-13550000D02*
X25800000Y-11450000D01*
X26000000Y-10450000D02*
X29000000Y-10450000D01*
X26000000Y-11450000D02*
X26000000Y-10450000D01*
X26000000Y-13550000D02*
X25800000Y-13550000D01*
X26000000Y-14550000D02*
X26000000Y-13550000D01*
X29000000Y-10450000D02*
X29000000Y-11450000D01*
X29000000Y-11450000D02*
X29200000Y-11450000D01*
X29000000Y-13550000D02*
X29000000Y-14550000D01*
X29000000Y-14550000D02*
X26000000Y-14550000D01*
X29200000Y-11450000D02*
X29200000Y-13550000D01*
X29200000Y-13550000D02*
X29000000Y-13550000D01*
%TO.C,J8*%
X40780000Y-68120000D02*
X53780000Y-68120000D01*
X40780000Y-81920000D02*
X40780000Y-68120000D01*
X53780000Y-68120000D02*
X53780000Y-81920000D01*
X53780000Y-81920000D02*
X40780000Y-81920000D01*
%TO.C,C4*%
X45540000Y-51990000D02*
X46460000Y-51990000D01*
X46460000Y-53810000D01*
X45540000Y-53810000D01*
X45540000Y-51990000D01*
%TO.C,H6*%
X55350000Y-30250000D02*
G75*
G02*
X50450000Y-30250000I-2450000J0D01*
G01*
X50450000Y-30250000D02*
G75*
G02*
X55350000Y-30250000I2450000J0D01*
G01*
%TO.C,R9*%
X26070000Y-51030000D02*
X27930000Y-51030000D01*
X27930000Y-51970000D01*
X26070000Y-51970000D01*
X26070000Y-51030000D01*
%TO.C,H9*%
X26450000Y-68550000D02*
G75*
G02*
X21550000Y-68550000I-2450000J0D01*
G01*
X21550000Y-68550000D02*
G75*
G02*
X26450000Y-68550000I2450000J0D01*
G01*
%TO.C,H7*%
X4450000Y-43250000D02*
G75*
G02*
X-450000Y-43250000I-2450000J0D01*
G01*
X-450000Y-43250000D02*
G75*
G02*
X4450000Y-43250000I2450000J0D01*
G01*
%TO.C,J2*%
X38800000Y-10600000D02*
X39200000Y-10600000D01*
X38800000Y-24600000D02*
X38800000Y-10600000D01*
X39200000Y-9100000D02*
X39400000Y-9100000D01*
X39200000Y-10600000D02*
X39200000Y-9100000D01*
X39200000Y-24600000D02*
X38800000Y-24600000D01*
X39200000Y-26100000D02*
X39200000Y-24600000D01*
X39400000Y-8500000D02*
X43400000Y-8500000D01*
X39400000Y-9100000D02*
X39400000Y-8500000D01*
X39400000Y-26100000D02*
X39200000Y-26100000D01*
X39400000Y-26700000D02*
X39400000Y-26100000D01*
X43400000Y-8500000D02*
X43400000Y-10600000D01*
X43400000Y-10600000D02*
X44000000Y-10600000D01*
X43400000Y-24600000D02*
X43400000Y-26700000D01*
X43400000Y-26700000D02*
X39400000Y-26700000D01*
X44000000Y-10600000D02*
X44000000Y-11700000D01*
X44000000Y-11700000D02*
X45600000Y-11700000D01*
X44000000Y-23500000D02*
X44000000Y-24600000D01*
X44000000Y-24600000D02*
X43400000Y-24600000D01*
X45600000Y-11700000D02*
X45600000Y-23500000D01*
X45600000Y-23500000D02*
X44000000Y-23500000D01*
%TO.C,C3*%
X8540000Y-50990000D02*
X9460000Y-50990000D01*
X9460000Y-52810000D01*
X8540000Y-52810000D01*
X8540000Y-50990000D01*
%TO.C,R6*%
X45530000Y-86270000D02*
X46470000Y-86270000D01*
X46470000Y-88130000D01*
X45530000Y-88130000D01*
X45530000Y-86270000D01*
%TO.C,H12*%
X4450000Y-81550000D02*
G75*
G02*
X-450000Y-81550000I-2450000J0D01*
G01*
X-450000Y-81550000D02*
G75*
G02*
X4450000Y-81550000I2450000J0D01*
G01*
%TO.C,H16*%
X33350000Y-106850000D02*
G75*
G02*
X28450000Y-106850000I-2450000J0D01*
G01*
X28450000Y-106850000D02*
G75*
G02*
X33350000Y-106850000I2450000J0D01*
G01*
%TO.C,J1*%
X9300000Y-11700000D02*
X10900000Y-11700000D01*
X9300000Y-23500000D02*
X9300000Y-11700000D01*
X10900000Y-10600000D02*
X11500000Y-10600000D01*
X10900000Y-11700000D02*
X10900000Y-10600000D01*
X10900000Y-23500000D02*
X9300000Y-23500000D01*
X10900000Y-24600000D02*
X10900000Y-23500000D01*
X11500000Y-8500000D02*
X15500000Y-8500000D01*
X11500000Y-10600000D02*
X11500000Y-8500000D01*
X11500000Y-24600000D02*
X10900000Y-24600000D01*
X11500000Y-26700000D02*
X11500000Y-24600000D01*
X15500000Y-8500000D02*
X15500000Y-9100000D01*
X15500000Y-9100000D02*
X15700000Y-9100000D01*
X15500000Y-26100000D02*
X15500000Y-26700000D01*
X15500000Y-26700000D02*
X11500000Y-26700000D01*
X15700000Y-9100000D02*
X15700000Y-10600000D01*
X15700000Y-10600000D02*
X16100000Y-10600000D01*
X15700000Y-24600000D02*
X15700000Y-26100000D01*
X15700000Y-26100000D02*
X15500000Y-26100000D01*
X16100000Y-10600000D02*
X16100000Y-24600000D01*
X16100000Y-24600000D02*
X15700000Y-24600000D01*
%TO.C,C1*%
X8540000Y-12690000D02*
X9460000Y-12690000D01*
X9460000Y-14510000D01*
X8540000Y-14510000D01*
X8540000Y-12690000D01*
%TO.C,SW2*%
X40700000Y-2200000D02*
X46300000Y-2200000D01*
X40700000Y-5800000D02*
X40700000Y-2200000D01*
X46300000Y-2200000D02*
X46300000Y-5800000D01*
X46300000Y-5800000D02*
X40700000Y-5800000D01*
%TO.C,R5*%
X8530000Y-97270000D02*
X9470000Y-97270000D01*
X9470000Y-99130000D01*
X8530000Y-99130000D01*
X8530000Y-97270000D01*
%TO.C,H3*%
X4450000Y-106850000D02*
G75*
G02*
X-450000Y-106850000I-2450000J0D01*
G01*
X-450000Y-106850000D02*
G75*
G02*
X4450000Y-106850000I2450000J0D01*
G01*
%TO.C,C7*%
X18020000Y-4800000D02*
X19980000Y-4800000D01*
X19980000Y-8200000D01*
X18020000Y-8200000D01*
X18020000Y-4800000D01*
%TD*%
M02*
