%TF.GenerationSoftware,KiCad,Pcbnew,10.0.4*%
%TF.CreationDate,2026-08-10T16:01:08+03:00*%
%TF.ProjectId,data_streamdeck,64617461-5f73-4747-9265-616d6465636b,rev?*%
%TF.SameCoordinates,Original*%
%TF.FileFunction,Copper,L2,Bot*%
%TF.FilePolarity,Positive*%
%FSLAX46Y46*%
G04 Gerber Fmt 4.6, Leading zero omitted, Abs format (unit mm)*
G04 Created by KiCad (PCBNEW 10.0.4) date 2026-08-10 16:01:08*
%MOMM*%
%LPD*%
G01*
G04 APERTURE LIST*
%TA.AperFunction,HeatsinkPad*%
%ADD10C,0.600000*%
%TD*%
%TA.AperFunction,ComponentPad*%
%ADD11O,1.000000X2.100000*%
%TD*%
%TA.AperFunction,ComponentPad*%
%ADD12O,1.000000X1.800000*%
%TD*%
%TA.AperFunction,ViaPad*%
%ADD13C,0.500000*%
%TD*%
%TA.AperFunction,ViaPad*%
%ADD14C,0.460000*%
%TD*%
%TA.AperFunction,ViaPad*%
%ADD15C,0.600000*%
%TD*%
%TA.AperFunction,Conductor*%
%ADD16C,0.200000*%
%TD*%
%TA.AperFunction,Conductor*%
%ADD17C,0.500000*%
%TD*%
%TA.AperFunction,Conductor*%
%ADD18C,0.250000*%
%TD*%
G04 APERTURE END LIST*
D10*
%TO.P,U1,41*%
%TO.N,GND*%
X31510000Y-39000000D03*
X32910000Y-39000000D03*
X30810000Y-38300000D03*
X32210000Y-38300000D03*
X33610000Y-38300000D03*
X31510000Y-37600000D03*
X32910000Y-37600000D03*
X30810000Y-36900000D03*
X32210000Y-36900000D03*
X33610000Y-36900000D03*
X31510000Y-36200000D03*
X32910000Y-36200000D03*
%TD*%
D11*
%TO.P,J7,SH*%
%TO.N,GND*%
X34070000Y-6205000D03*
D12*
X34070000Y-2025000D03*
D11*
X25430000Y-6205000D03*
D12*
X25430000Y-2025000D03*
%TD*%
D13*
%TO.N,GND*%
X8346600Y-14773300D03*
X40525000Y-74200000D03*
X17000000Y-70500000D03*
X43013528Y-13768700D03*
X17100000Y-5550000D03*
X34000000Y-11600000D03*
D14*
X8730000Y-50100000D03*
D13*
X58125000Y-66775000D03*
X42500000Y-106000000D03*
X58094300Y-78357900D03*
X14650000Y-46700000D03*
X58275000Y-52500000D03*
X28491800Y-70084700D03*
X8780000Y-13850000D03*
X46650000Y-61800000D03*
X20750000Y-73310000D03*
X56446700Y-74735700D03*
X49000000Y-106000000D03*
X34530000Y-46720600D03*
X49025000Y-78050000D03*
X53219700Y-16253800D03*
X41666800Y-7000500D03*
X10235200Y-5650500D03*
X10022200Y-40332900D03*
X53779400Y-5550000D03*
X19200000Y-70300000D03*
X39050000Y-5300000D03*
X12350000Y-88391100D03*
X29347900Y-106669000D03*
X49550000Y-91800000D03*
X24300000Y-106900000D03*
X31747100Y-48369300D03*
X14650000Y-98100000D03*
X51400000Y-5100000D03*
X58275000Y-88800000D03*
X2963600Y-10486400D03*
X51000000Y-14250000D03*
X2125000Y-20600000D03*
X49096593Y-6724279D03*
X46650000Y-98100000D03*
X24490000Y-43950000D03*
X48975000Y-64525000D03*
X49600000Y-1225000D03*
X25680700Y-7012900D03*
X38850000Y-55600000D03*
X44550000Y-5300000D03*
X44442700Y-37459700D03*
X36069300Y-72152900D03*
X48650000Y-19200000D03*
X4700000Y-60000000D03*
X19812500Y-10286200D03*
X6550000Y-3700000D03*
X2125000Y-56900000D03*
X27900000Y-9800000D03*
X24722900Y-28219300D03*
X19619300Y-1157900D03*
X26849300Y-47732900D03*
X37119300Y-1157900D03*
X44000000Y-60000000D03*
X10850000Y-16700000D03*
X14650000Y-25500000D03*
X35200000Y-71920000D03*
X28000000Y-71920000D03*
X40525000Y-70600000D03*
X55200000Y-1225000D03*
X50350000Y-86300000D03*
X14650000Y-10400000D03*
X46650000Y-46700000D03*
X14650000Y-83000000D03*
X58275000Y-16200000D03*
X21180000Y-107200000D03*
X14650000Y-61800000D03*
X10621000Y-63477300D03*
X29750000Y-97000000D03*
X9435100Y-18065500D03*
X13745100Y-14004800D03*
X24050000Y-3870600D03*
X10240000Y-53350000D03*
X26300000Y-11400000D03*
X8470600Y-86520000D03*
X46650000Y-30078758D03*
X47750000Y-55500000D03*
X46650000Y-83000000D03*
X29750000Y-62000000D03*
X2575000Y-93079400D03*
X19393200Y-7617100D03*
X47100000Y-1225000D03*
X45142700Y-44409700D03*
X32970600Y-84050000D03*
X46650000Y-10400000D03*
X46200000Y-26279422D03*
D15*
%TO.N,LED_DATA_3V3*%
X40977600Y-30579300D03*
X18358300Y-31359000D03*
D13*
%TO.N,VBUS*%
X30890000Y-9800000D03*
X5249400Y-45435100D03*
X54244000Y-11942200D03*
X55400000Y-56900000D03*
X55400000Y-93800000D03*
X3656900Y-45435100D03*
X16484000Y-9881200D03*
X35020000Y-9400000D03*
X26750000Y-7900000D03*
%TO.N,+3V3*%
X6937000Y-17676900D03*
X28257500Y-66000400D03*
X17980500Y-68938300D03*
X41000000Y-56490000D03*
X44397400Y-56489900D03*
X50324400Y-53305900D03*
X54198500Y-71996800D03*
X33924900Y-70188700D03*
X44767900Y-49739500D03*
X47273100Y-92757700D03*
X7636700Y-55503000D03*
X21710000Y-70200000D03*
X34486400Y-57186700D03*
X13431000Y-69036900D03*
X46737700Y-56483100D03*
X22287500Y-92710900D03*
X9496200Y-48893300D03*
X2868100Y-14304400D03*
X53083700Y-13118200D03*
X9355000Y-53426900D03*
D15*
%TO.N,KEY4*%
X39396700Y-43514200D03*
X48625100Y-47744300D03*
%TO.N,SCL*%
X52682400Y-35003900D03*
X21710200Y-42497200D03*
D13*
X47300000Y-6079400D03*
D15*
X20362400Y-72400000D03*
X31736300Y-74902900D03*
X34227500Y-41712700D03*
X52625000Y-15298600D03*
%TO.N,SDA*%
X31242500Y-68938300D03*
X44675900Y-33280800D03*
X19900000Y-70700000D03*
X34940000Y-36621400D03*
X30741400Y-72813600D03*
%TO.N,LED_CH2*%
X55907500Y-18212500D03*
X37473000Y-15795600D03*
%TO.N,KEY6*%
X50889600Y-59773100D03*
X40459500Y-43670600D03*
%TO.N,KEY3*%
X30698700Y-25047700D03*
X7218500Y-30737300D03*
%TO.N,DC_A*%
X47337200Y-15093300D03*
X42379700Y-14297400D03*
X40615800Y-11792300D03*
X7718700Y-19305000D03*
X9452100Y-20506500D03*
%TO.N,CS3*%
X9622200Y-56060800D03*
X21710200Y-55033300D03*
%TO.N,SCK_A*%
X9412200Y-54728100D03*
X43681300Y-17012900D03*
X41382100Y-67870400D03*
X54198100Y-74213200D03*
X40197500Y-54248800D03*
X9333100Y-19128200D03*
X47337200Y-17593300D03*
%TO.N,MOSI_A*%
X8364600Y-25942100D03*
X12933200Y-23596900D03*
X47076200Y-63541500D03*
X8245400Y-39558900D03*
X43837500Y-38272700D03*
X54198100Y-63122800D03*
%TO.N,BL*%
X40810700Y-35000500D03*
X9917400Y-73498700D03*
X6498400Y-36621400D03*
X51107400Y-34807400D03*
X46648600Y-78027900D03*
%TO.N,RST*%
X40868600Y-33047400D03*
X50275700Y-72833600D03*
X47885100Y-32593500D03*
X15591600Y-34559000D03*
X54198100Y-78651600D03*
%TO.N,DC_B*%
X47325900Y-49979700D03*
X49691300Y-76433200D03*
X47573100Y-84847400D03*
X39627500Y-46252000D03*
X9452100Y-88719100D03*
X49364200Y-60622200D03*
%TO.N,CS5*%
X28440000Y-43232500D03*
X15968900Y-45435100D03*
%TO.N,SCK_B*%
X52548400Y-90288100D03*
X12961400Y-91411300D03*
X45710600Y-52439200D03*
X51947900Y-55489900D03*
X39787700Y-51584500D03*
X46963800Y-90288100D03*
%TO.N,MOSI_B*%
X40280400Y-53364300D03*
X13332500Y-88719100D03*
X47069800Y-53393900D03*
X52560700Y-86565700D03*
X52276500Y-57186700D03*
X49860500Y-88719100D03*
%TO.N,LED_CH1*%
X20172500Y-2542800D03*
X37885800Y-1572400D03*
%TO.N,EN*%
X31633200Y-54853600D03*
X43144800Y-55799100D03*
%TO.N,LED_CH5*%
X54415000Y-89503600D03*
X2292500Y-90286300D03*
%TO.N,BOOT*%
X47151200Y-29471400D03*
X42289400Y-27869700D03*
X42520800Y-45077600D03*
X48037300Y-45465700D03*
%TO.N,KEY2*%
X33821400Y-25598100D03*
X49268300Y-25942100D03*
X46637000Y-23508000D03*
%TO.N,CS6*%
X47073500Y-87115300D03*
X30267000Y-46394400D03*
D13*
X51805900Y-85781200D03*
D15*
X50901000Y-48024000D03*
%TO.N,MISO*%
X54198100Y-76433200D03*
X32089400Y-69855000D03*
%TO.N,SD_CS*%
X40197500Y-68292000D03*
X54199700Y-65342800D03*
%TO.N,USB_D-*%
X32820500Y-30539000D03*
X32050000Y-9570000D03*
X32786200Y-25538400D03*
%TO.N,USB_D+*%
X41144600Y-47338200D03*
X53907500Y-14722200D03*
X28900000Y-7900000D03*
X30210000Y-8030000D03*
X52093700Y-49116600D03*
%TO.N,CS4*%
X45515100Y-51614300D03*
X43292000Y-50201700D03*
%TO.N,IMU_INT*%
X17184100Y-42497200D03*
X43837500Y-42398800D03*
%TO.N,CS1*%
X10133500Y-39370500D03*
X43697600Y-39631900D03*
%TO.N,KEY1*%
X34227500Y-21147400D03*
X10322300Y-24869800D03*
%TO.N,CS2*%
X25797900Y-28633800D03*
X47248900Y-16478200D03*
%TD*%
%TO.N,LED_DATA_3V3*%
D16*
X40197900Y-31359000D02*
X40977600Y-30579300D01*
X18358300Y-31359000D02*
X40197900Y-31359000D01*
%TO.N,VBUS*%
D17*
X17242400Y-9122800D02*
X25527200Y-9122800D01*
X16484000Y-9881200D02*
X17242400Y-9122800D01*
X5249400Y-45435100D02*
X3656900Y-45435100D01*
X25527200Y-9122800D02*
X26750000Y-7900000D01*
X55400000Y-56900000D02*
X55400000Y-93800000D01*
X31700000Y-8850000D02*
X34400000Y-8850000D01*
X26750000Y-7900000D02*
X30890000Y-9800000D01*
X34400000Y-8850000D02*
X35020000Y-9400000D01*
X30890000Y-9800000D02*
X31700000Y-8850000D01*
X35020000Y-9400000D02*
X51701800Y-9400000D01*
X51701800Y-9400000D02*
X54244000Y-11942200D01*
%TO.N,+3V3*%
X6937000Y-19369700D02*
X7040000Y-19472700D01*
D18*
X25320000Y-67920000D02*
X25320000Y-68937900D01*
D17*
X6937000Y-17676900D02*
X6937000Y-19369700D01*
X17978800Y-68940000D02*
X19800000Y-68940000D01*
X42730000Y-69360000D02*
X38500000Y-69360000D01*
D18*
X24600000Y-67200000D02*
X25320000Y-67920000D01*
D17*
X7040000Y-19586100D02*
X7437600Y-19983700D01*
X7636700Y-55503000D02*
X7636700Y-63242600D01*
X17978800Y-68940000D02*
X17980500Y-68938300D01*
D18*
X21710000Y-67950000D02*
X21710000Y-67200000D01*
X19800000Y-68940000D02*
X20550000Y-67950000D01*
D17*
X35000000Y-70600000D02*
X33930000Y-70193800D01*
X25319600Y-68938300D02*
X26724000Y-67533900D01*
X26724000Y-67533900D02*
X28257500Y-66000400D01*
X35183200Y-56489900D02*
X34486400Y-57186700D01*
X44894300Y-49865900D02*
X45473600Y-49865900D01*
X13431000Y-69036900D02*
X17881900Y-69036900D01*
X54198500Y-71996800D02*
X51566300Y-69364600D01*
X7636700Y-63242600D02*
X13431000Y-69036900D01*
X44767900Y-49739500D02*
X44894300Y-49865900D01*
X7437600Y-19983700D02*
X7551000Y-19983700D01*
X26724000Y-67533900D02*
X25706100Y-67533900D01*
X42732700Y-69364600D02*
X42732700Y-69362700D01*
X33930000Y-70193800D02*
X33924900Y-70188700D01*
X7040000Y-19472700D02*
X7040000Y-19586100D01*
X33924900Y-70188700D02*
X29736600Y-66000400D01*
X9077600Y-21510300D02*
X12744700Y-21510300D01*
X2868100Y-14304400D02*
X6240600Y-17676900D01*
X38500000Y-69360000D02*
X37260000Y-70600000D01*
X29736600Y-66000400D02*
X28257500Y-66000400D01*
X45473600Y-49865900D02*
X48913600Y-53305900D01*
X7551000Y-19983700D02*
X9077600Y-21510300D01*
X9355000Y-53426900D02*
X9355000Y-49034500D01*
X6240600Y-17676900D02*
X6937000Y-17676900D01*
X47273100Y-92757700D02*
X22334300Y-92757700D01*
X51566300Y-69364600D02*
X42732700Y-69364600D01*
X42732700Y-69362700D02*
X42730000Y-69360000D01*
D18*
X20550000Y-67950000D02*
X21710000Y-67950000D01*
D17*
X22334300Y-92757700D02*
X22287500Y-92710900D01*
X9355000Y-53426900D02*
X7636700Y-55145200D01*
X21136800Y-13118200D02*
X53083700Y-13118200D01*
X12744700Y-21510300D02*
X21136800Y-13118200D01*
X7636700Y-55145200D02*
X7636700Y-55503000D01*
X34486400Y-61250600D02*
X29736600Y-66000400D01*
X34486400Y-57186700D02*
X34486400Y-61250600D01*
X44397400Y-56489900D02*
X35183200Y-56489900D01*
D18*
X21710000Y-70200000D02*
X21710000Y-67950000D01*
D17*
X44404200Y-56483100D02*
X44397400Y-56489900D01*
X48913600Y-53305900D02*
X50324400Y-53305900D01*
X25706100Y-67533900D02*
X25320000Y-67920000D01*
X46737700Y-56483100D02*
X44404200Y-56483100D01*
X9355000Y-49034500D02*
X9496200Y-48893300D01*
X17881900Y-69036900D02*
X17978800Y-68940000D01*
D18*
X21710000Y-67200000D02*
X24600000Y-67200000D01*
D17*
X37260000Y-70600000D02*
X35000000Y-70600000D01*
%TO.N,KEY4*%
D16*
X48625100Y-47744300D02*
X43626800Y-47744300D01*
X43626800Y-47744300D02*
X39396700Y-43514200D01*
%TO.N,SCL*%
X47300000Y-6079400D02*
X49278300Y-6079400D01*
X47040400Y-41712700D02*
X34227500Y-41712700D01*
X54894000Y-12931500D02*
X52625000Y-15200500D01*
X31736300Y-74902900D02*
X29233400Y-72400000D01*
X22494700Y-41712700D02*
X21710200Y-42497200D01*
X54894000Y-11695100D02*
X54894000Y-12931500D01*
X52682400Y-35003900D02*
X49173100Y-38513200D01*
X29233400Y-72400000D02*
X20362400Y-72400000D01*
X49173100Y-38513200D02*
X49173100Y-39580000D01*
X49278300Y-6079400D02*
X54894000Y-11695100D01*
X34227500Y-41712700D02*
X22494700Y-41712700D01*
X49173100Y-39580000D02*
X47040400Y-41712700D01*
X52625000Y-15200500D02*
X52625000Y-15298600D01*
%TO.N,SDA*%
X45789600Y-33683500D02*
X52437300Y-33683500D01*
X28867800Y-70940000D02*
X29054300Y-71126500D01*
X45386900Y-33683500D02*
X45748300Y-33683500D01*
X44675900Y-33280800D02*
X44675900Y-33683500D01*
X31242500Y-68938300D02*
X29054300Y-71126500D01*
X37877900Y-33683500D02*
X44675900Y-33683500D01*
X20600000Y-70940000D02*
X28867800Y-70940000D01*
X44675900Y-33683500D02*
X45386900Y-33683500D01*
X19900000Y-70700000D02*
X20600000Y-70940000D01*
X34940000Y-36621400D02*
X37877900Y-33683500D01*
X45748300Y-33683500D02*
X45789600Y-33683500D01*
X29054300Y-71126500D02*
X30741400Y-72813600D01*
%TO.N,LED_CH2*%
X39889900Y-18212500D02*
X37473000Y-15795600D01*
X55907500Y-18212500D02*
X39889900Y-18212500D01*
%TO.N,KEY6*%
X50889600Y-59773100D02*
X50915500Y-59773100D01*
X53151100Y-48961500D02*
X47860200Y-43670600D01*
X47860200Y-43670600D02*
X40459500Y-43670600D01*
X50915500Y-59773100D02*
X53151100Y-57537500D01*
X53151100Y-57537500D02*
X53151100Y-48961500D01*
%TO.N,KEY3*%
X25009100Y-30737300D02*
X7218500Y-30737300D01*
X30698700Y-25047700D02*
X25009100Y-30737300D01*
%TO.N,DC_A*%
X10272700Y-19685900D02*
X9666100Y-19685900D01*
X47337200Y-15093300D02*
X46541300Y-14297400D01*
X40277000Y-12131100D02*
X14607100Y-12131100D01*
X8099600Y-19685900D02*
X7718700Y-19305000D01*
X9860300Y-19491700D02*
X10466900Y-19491700D01*
X7718700Y-19019500D02*
X7718700Y-19305000D01*
X9666100Y-19685900D02*
X8099600Y-19685900D01*
X40615800Y-11792300D02*
X40277000Y-12131100D01*
X9666100Y-19685900D02*
X9860300Y-19491700D01*
X14607100Y-12131100D02*
X7718700Y-19019500D01*
X9452100Y-20506500D02*
X10272700Y-19685900D01*
X10466900Y-19491700D02*
X10272700Y-19685900D01*
X46541300Y-14297400D02*
X42379700Y-14297400D01*
%TO.N,CS3*%
X20682700Y-56060800D02*
X9622200Y-56060800D01*
X21710200Y-55033300D02*
X20682700Y-56060800D01*
%TO.N,SCK_A*%
X54875100Y-71736800D02*
X51008700Y-67870400D01*
X54198100Y-74213200D02*
X54875100Y-73536200D01*
X44261700Y-17593300D02*
X43681300Y-17012900D01*
X51008700Y-67870400D02*
X41382100Y-67870400D01*
X9891500Y-54248800D02*
X9412200Y-54728100D01*
X53340200Y-12464000D02*
X53724300Y-12848100D01*
X53724300Y-12848100D02*
X53724300Y-13408900D01*
X54875100Y-73536200D02*
X54875100Y-71736800D01*
X20572000Y-12464000D02*
X53340200Y-12464000D01*
X9333100Y-19128200D02*
X13907800Y-19128200D01*
X49539900Y-17593300D02*
X47337200Y-17593300D01*
X13907800Y-19128200D02*
X20572000Y-12464000D01*
X47337200Y-17593300D02*
X44261700Y-17593300D01*
X53724300Y-13408900D02*
X49539900Y-17593300D01*
X40197500Y-54248800D02*
X9891500Y-54248800D01*
%TO.N,MOSI_A*%
X10588000Y-25942100D02*
X8364600Y-25942100D01*
X9000600Y-38803700D02*
X8245400Y-39558900D01*
X12933200Y-23596900D02*
X10588000Y-25942100D01*
X42552500Y-39557700D02*
X13332500Y-39557700D01*
X54198100Y-63122800D02*
X47494900Y-63122800D01*
X47494900Y-63122800D02*
X47076200Y-63541500D01*
X43837500Y-38272700D02*
X42552500Y-39557700D01*
X12578500Y-38803700D02*
X9000600Y-38803700D01*
X13332500Y-39557700D02*
X12578500Y-38803700D01*
%TO.N,BL*%
X40810700Y-35000500D02*
X41003800Y-34807400D01*
X14446600Y-78027900D02*
X9917400Y-73498700D01*
X34637300Y-37169000D02*
X38642200Y-37169000D01*
X38642200Y-37169000D02*
X40810700Y-35000500D01*
X41003800Y-34807400D02*
X51107400Y-34807400D01*
X6498400Y-36621400D02*
X7456700Y-35663100D01*
X46648600Y-78027900D02*
X14446600Y-78027900D01*
X33131400Y-35663100D02*
X34637300Y-37169000D01*
X7456700Y-35663100D02*
X33131400Y-35663100D01*
%TO.N,RST*%
X17103200Y-33047400D02*
X40868600Y-33047400D01*
X50275700Y-74729200D02*
X54198100Y-78651600D01*
X50275700Y-72833600D02*
X50275700Y-74729200D01*
X47885100Y-32593500D02*
X41322500Y-32593500D01*
X15591600Y-34559000D02*
X17103200Y-33047400D01*
X41322500Y-32593500D02*
X40868600Y-33047400D01*
%TO.N,DC_B*%
X52622400Y-48897600D02*
X52312700Y-48587900D01*
X51874900Y-48587900D02*
X51859400Y-48603400D01*
X52811200Y-57412600D02*
X50979400Y-59244400D01*
X51859400Y-48603400D02*
X45450500Y-48603400D01*
X51583400Y-50374600D02*
X51188500Y-49979700D01*
X49364200Y-60550900D02*
X49364200Y-60622200D01*
X52622400Y-49335600D02*
X52622400Y-48897600D01*
X9452100Y-88719100D02*
X13323800Y-84847400D01*
X51583400Y-50374600D02*
X52811200Y-51602400D01*
X40806100Y-46252000D02*
X39627500Y-46252000D01*
X51583400Y-50374600D02*
X52622400Y-49335600D01*
X45300500Y-48453400D02*
X43007500Y-48453400D01*
X52312700Y-48587900D02*
X51874900Y-48587900D01*
X52811200Y-51602400D02*
X52811200Y-57412600D01*
X45450500Y-48603400D02*
X45300500Y-48453400D01*
X50670700Y-59244400D02*
X49364200Y-60550900D01*
X43007500Y-48453400D02*
X40806100Y-46252000D01*
X50979400Y-59244400D02*
X50670700Y-59244400D01*
X13323800Y-84847400D02*
X47573100Y-84847400D01*
X47573100Y-78551400D02*
X47573100Y-84847400D01*
X51188500Y-49979700D02*
X47325900Y-49979700D01*
X49691300Y-76433200D02*
X47573100Y-78551400D01*
%TO.N,CS5*%
X28440000Y-43232500D02*
X26237400Y-45435100D01*
X26237400Y-45435100D02*
X15968900Y-45435100D01*
%TO.N,SCK_B*%
X51947900Y-55489900D02*
X51947900Y-54040300D01*
X45840600Y-91411300D02*
X46963800Y-90288100D01*
X44139200Y-49479200D02*
X44139200Y-49999800D01*
X51947900Y-54040300D02*
X48594000Y-50686400D01*
X44139200Y-49999800D02*
X44625100Y-50485700D01*
X44507600Y-49110800D02*
X44139200Y-49479200D01*
X48594000Y-50686400D02*
X47262200Y-50686400D01*
X39787700Y-51584500D02*
X40642400Y-52439200D01*
X45028300Y-49110800D02*
X44507600Y-49110800D01*
X12961400Y-91411300D02*
X45840600Y-91411300D01*
X47262200Y-50686400D02*
X45925300Y-49349500D01*
X40642400Y-52439200D02*
X45710600Y-52439200D01*
X46963800Y-90288100D02*
X52548400Y-90288100D01*
X45267000Y-49349500D02*
X45028300Y-49110800D01*
X46084100Y-51423800D02*
X46084100Y-52065700D01*
X44625100Y-50485700D02*
X45146000Y-50485700D01*
X46084100Y-52065700D02*
X45710600Y-52439200D01*
X45925300Y-49349500D02*
X45267000Y-49349500D01*
X45146000Y-50485700D02*
X46084100Y-51423800D01*
%TO.N,MOSI_B*%
X52013900Y-86565700D02*
X52560700Y-86565700D01*
X40280400Y-53364300D02*
X40310000Y-53393900D01*
X52276500Y-57186700D02*
X50862600Y-57186700D01*
X40310000Y-53393900D02*
X47069800Y-53393900D01*
X50862600Y-57186700D02*
X47069800Y-53393900D01*
X13332500Y-88719100D02*
X49860500Y-88719100D01*
X49860500Y-88719100D02*
X52013900Y-86565700D01*
%TO.N,LED_CH1*%
X20827500Y-3197800D02*
X20172500Y-2542800D01*
X36260400Y-3197800D02*
X20827500Y-3197800D01*
X37885800Y-1572400D02*
X36260400Y-3197800D01*
%TO.N,EN*%
X42199300Y-54853600D02*
X43144800Y-55799100D01*
X31633200Y-54853600D02*
X42199300Y-54853600D01*
%TO.N,LED_CH5*%
X3075200Y-89503600D02*
X2292500Y-90286300D01*
X54415000Y-89503600D02*
X3075200Y-89503600D01*
%TO.N,BOOT*%
X42520800Y-45077600D02*
X47649200Y-45077600D01*
X47649200Y-45077600D02*
X48037300Y-45465700D01*
X45549500Y-27869700D02*
X47151200Y-29471400D01*
X42289400Y-27869700D02*
X45549500Y-27869700D01*
%TO.N,KEY2*%
X46637000Y-25598100D02*
X48924300Y-25598100D01*
X33821400Y-25598100D02*
X46637000Y-25598100D01*
X46637000Y-23508000D02*
X46637000Y-25598100D01*
X48924300Y-25598100D02*
X49268300Y-25942100D01*
%TO.N,CS6*%
X50650300Y-48274700D02*
X45586600Y-48274700D01*
X41050600Y-45680400D02*
X30981000Y-45680400D01*
X43494900Y-48124700D02*
X41050600Y-45680400D01*
X50901000Y-48024000D02*
X50650300Y-48274700D01*
X45586600Y-48274700D02*
X45436600Y-48124700D01*
X48407600Y-85781200D02*
X47073500Y-87115300D01*
X45436600Y-48124700D02*
X43494900Y-48124700D01*
X30981000Y-45680400D02*
X30267000Y-46394400D01*
X51805900Y-85781200D02*
X48407600Y-85781200D01*
%TO.N,MISO*%
X54198100Y-76008300D02*
X49450500Y-71260700D01*
X54198100Y-76433200D02*
X54198100Y-76008300D01*
X33495100Y-71260700D02*
X32089400Y-69855000D01*
X49450500Y-71260700D02*
X33495100Y-71260700D01*
%TO.N,SD_CS*%
X40197500Y-68292000D02*
X43146700Y-65342800D01*
X43146700Y-65342800D02*
X54199700Y-65342800D01*
%TO.N,USB_D-*%
X32820500Y-30539000D02*
X32820500Y-25572700D01*
X32050000Y-9570000D02*
X32660300Y-10180300D01*
X32820500Y-25572700D02*
X32786200Y-25538400D01*
X32660300Y-10180300D02*
X32700300Y-10180300D01*
X32700300Y-10180300D02*
X32700000Y-10180000D01*
%TO.N,USB_D+*%
X55222700Y-11538400D02*
X49181000Y-5496700D01*
X30450000Y-7790000D02*
X30210000Y-8030000D01*
X45101000Y-5496700D02*
X42807700Y-7790000D01*
X28900000Y-7900000D02*
X30450000Y-7790000D01*
X45314400Y-48932100D02*
X45164400Y-48782100D01*
X55222700Y-13407000D02*
X55222700Y-11538400D01*
X51909200Y-48932100D02*
X45314400Y-48932100D01*
X42588500Y-48782100D02*
X41144600Y-47338200D01*
X45164400Y-48782100D02*
X42588500Y-48782100D01*
X52093700Y-49116600D02*
X51909200Y-48932100D01*
X49181000Y-5496700D02*
X45101000Y-5496700D01*
X53907500Y-14722200D02*
X55222700Y-13407000D01*
X42807700Y-7790000D02*
X30450000Y-7790000D01*
%TO.N,CS4*%
X44704600Y-51614300D02*
X45515100Y-51614300D01*
X43292000Y-50201700D02*
X44704600Y-51614300D01*
%TO.N,IMU_INT*%
X17713600Y-43026700D02*
X17184100Y-42497200D01*
X22347800Y-43026700D02*
X17713600Y-43026700D01*
X43837500Y-42398800D02*
X22975700Y-42398800D01*
X22975700Y-42398800D02*
X22347800Y-43026700D01*
%TO.N,CS1*%
X10700900Y-39937900D02*
X43391600Y-39937900D01*
X10133500Y-39370500D02*
X10700900Y-39937900D01*
X43391600Y-39937900D02*
X43697600Y-39631900D01*
%TO.N,KEY1*%
X14044700Y-21147400D02*
X34227500Y-21147400D01*
X10322300Y-24869800D02*
X14044700Y-21147400D01*
%TO.N,CS2*%
X32601500Y-21830200D02*
X34319700Y-21830200D01*
X45978700Y-15208000D02*
X47248900Y-16478200D01*
X34319700Y-21830200D02*
X36918700Y-19231200D01*
X25797900Y-28633800D02*
X32601500Y-21830200D01*
X37244800Y-15208000D02*
X45978700Y-15208000D01*
X36918700Y-19231200D02*
X36918700Y-15534100D01*
X36918700Y-15534100D02*
X37244800Y-15208000D01*
%TD*%
%TA.AperFunction,Conductor*%
%TO.N,GND*%
G36*
X29565674Y-66470585D02*
G01*
X29586316Y-66487219D01*
X31325216Y-68226119D01*
X31358701Y-68287442D01*
X31353717Y-68357134D01*
X31311845Y-68413067D01*
X31246381Y-68437484D01*
X31237535Y-68437800D01*
X31176608Y-68437800D01*
X31049312Y-68471908D01*
X30935186Y-68537800D01*
X30935183Y-68537802D01*
X30842002Y-68630983D01*
X30842000Y-68630986D01*
X30776108Y-68745112D01*
X30742000Y-68872408D01*
X30742000Y-68962466D01*
X30722315Y-69029505D01*
X30705681Y-69050147D01*
X29121614Y-70634214D01*
X29060291Y-70667699D01*
X28990599Y-70662715D01*
X28986480Y-70661094D01*
X28983790Y-70659979D01*
X28958313Y-70653152D01*
X28907362Y-70639500D01*
X28907360Y-70639500D01*
X22191221Y-70639500D01*
X22124182Y-70619815D01*
X22078427Y-70567011D01*
X22068483Y-70497853D01*
X22083834Y-70453500D01*
X22129797Y-70373889D01*
X22129796Y-70373889D01*
X22129799Y-70373886D01*
X22160500Y-70259309D01*
X22160500Y-70140691D01*
X22129799Y-70026114D01*
X22070489Y-69923387D01*
X22070484Y-69923382D01*
X22065542Y-69916941D01*
X22066973Y-69915842D01*
X22057115Y-69897789D01*
X22040523Y-69871971D01*
X22039631Y-69865770D01*
X22038334Y-69863394D01*
X22035500Y-69837036D01*
X22035500Y-69785546D01*
X22055185Y-69718507D01*
X22107989Y-69672752D01*
X22177147Y-69662808D01*
X22240703Y-69691833D01*
X22259821Y-69712664D01*
X22265661Y-69720703D01*
X22409297Y-69864339D01*
X22409302Y-69864343D01*
X22513326Y-69939920D01*
X22573631Y-69983734D01*
X22754620Y-70075953D01*
X22754622Y-70075954D01*
X22947803Y-70138722D01*
X22947804Y-70138722D01*
X22947807Y-70138723D01*
X23148435Y-70170500D01*
X23148436Y-70170500D01*
X23351564Y-70170500D01*
X23351565Y-70170500D01*
X23552193Y-70138723D01*
X23552196Y-70138722D01*
X23552197Y-70138722D01*
X23745377Y-70075954D01*
X23745377Y-70075953D01*
X23745380Y-70075953D01*
X23926369Y-69983734D01*
X24090704Y-69864338D01*
X24234338Y-69720704D01*
X24353734Y-69556369D01*
X24445953Y-69375380D01*
X24464500Y-69318297D01*
X24508722Y-69182197D01*
X24508722Y-69182196D01*
X24508723Y-69182193D01*
X24540500Y-68981565D01*
X24540500Y-68778435D01*
X24508723Y-68577807D01*
X24508722Y-68577803D01*
X24508722Y-68577802D01*
X24445954Y-68384622D01*
X24394211Y-68283072D01*
X24353734Y-68203631D01*
X24323804Y-68162436D01*
X24234343Y-68039302D01*
X24234339Y-68039297D01*
X24090702Y-67895660D01*
X24090697Y-67895656D01*
X23926370Y-67776266D01*
X23894415Y-67759984D01*
X23843620Y-67712010D01*
X23826825Y-67644189D01*
X23849363Y-67578054D01*
X23904078Y-67534603D01*
X23950711Y-67525500D01*
X24413811Y-67525500D01*
X24480850Y-67545185D01*
X24501492Y-67561819D01*
X24833182Y-67893508D01*
X24866667Y-67954831D01*
X24868432Y-67971249D01*
X24868440Y-67971248D01*
X24869501Y-67979310D01*
X24900199Y-68093885D01*
X24923761Y-68134694D01*
X24959511Y-68196614D01*
X24959514Y-68196617D01*
X24964458Y-68203060D01*
X24963026Y-68204158D01*
X24991666Y-68256607D01*
X24994500Y-68282965D01*
X24994500Y-68574935D01*
X24974815Y-68641974D01*
X24962725Y-68656976D01*
X24959111Y-68661686D01*
X24899799Y-68764414D01*
X24869101Y-68878989D01*
X24869101Y-68997610D01*
X24899799Y-69112185D01*
X24935040Y-69173222D01*
X24959111Y-69214914D01*
X25042986Y-69298789D01*
X25115195Y-69340479D01*
X25145714Y-69358100D01*
X25210205Y-69375379D01*
X25260291Y-69388799D01*
X25260294Y-69388799D01*
X25378906Y-69388799D01*
X25378909Y-69388799D01*
X25449029Y-69370010D01*
X25493485Y-69358100D01*
X25493487Y-69358099D01*
X25596214Y-69298789D01*
X27084490Y-67810513D01*
X28407784Y-66487219D01*
X28469107Y-66453734D01*
X28495465Y-66450900D01*
X29498635Y-66450900D01*
X29565674Y-66470585D01*
G37*
%TD.AperFunction*%
%TA.AperFunction,Conductor*%
G36*
X21263974Y-54568985D02*
G01*
X21309729Y-54621789D01*
X21319673Y-54690947D01*
X21304322Y-54735300D01*
X21243809Y-54840110D01*
X21243809Y-54840111D01*
X21209700Y-54967408D01*
X21209700Y-55057466D01*
X21190015Y-55124505D01*
X21173381Y-55145147D01*
X20594548Y-55723981D01*
X20533225Y-55757466D01*
X20506867Y-55760300D01*
X10080876Y-55760300D01*
X10013837Y-55740615D01*
X9993195Y-55723981D01*
X9929516Y-55660302D01*
X9929514Y-55660300D01*
X9872450Y-55627354D01*
X9815387Y-55594408D01*
X9724737Y-55570119D01*
X9688092Y-55560300D01*
X9556308Y-55560300D01*
X9429012Y-55594408D01*
X9314886Y-55660300D01*
X9314883Y-55660302D01*
X9221702Y-55753483D01*
X9221700Y-55753486D01*
X9155808Y-55867612D01*
X9121700Y-55994908D01*
X9121700Y-56126691D01*
X9155808Y-56253987D01*
X9183102Y-56301260D01*
X9221700Y-56368114D01*
X9314886Y-56461300D01*
X9429014Y-56527192D01*
X9556308Y-56561300D01*
X9556310Y-56561300D01*
X9688090Y-56561300D01*
X9688092Y-56561300D01*
X9815386Y-56527192D01*
X9929514Y-56461300D01*
X9993195Y-56397619D01*
X10054518Y-56364134D01*
X10080876Y-56361300D01*
X20722260Y-56361300D01*
X20722262Y-56361300D01*
X20798689Y-56340821D01*
X20867211Y-56301260D01*
X20923160Y-56245311D01*
X21598351Y-55570118D01*
X21659674Y-55536634D01*
X21686032Y-55533800D01*
X21776090Y-55533800D01*
X21776092Y-55533800D01*
X21903386Y-55499692D01*
X22017514Y-55433800D01*
X22110700Y-55340614D01*
X22176592Y-55226486D01*
X22210700Y-55099192D01*
X22210700Y-54967408D01*
X22176592Y-54840114D01*
X22176590Y-54840110D01*
X22116078Y-54735300D01*
X22099605Y-54667400D01*
X22122457Y-54601373D01*
X22177379Y-54558182D01*
X22223465Y-54549300D01*
X31034981Y-54549300D01*
X31102020Y-54568985D01*
X31147775Y-54621789D01*
X31157719Y-54690947D01*
X31154755Y-54705393D01*
X31132700Y-54787708D01*
X31132700Y-54919492D01*
X31146585Y-54971312D01*
X31166808Y-55046787D01*
X31197064Y-55099191D01*
X31232700Y-55160914D01*
X31325886Y-55254100D01*
X31440014Y-55319992D01*
X31567308Y-55354100D01*
X31567310Y-55354100D01*
X31699090Y-55354100D01*
X31699092Y-55354100D01*
X31826386Y-55319992D01*
X31940514Y-55254100D01*
X32004195Y-55190419D01*
X32065518Y-55156934D01*
X32091876Y-55154100D01*
X42023467Y-55154100D01*
X42090506Y-55173785D01*
X42111148Y-55190419D01*
X42607981Y-55687252D01*
X42620829Y-55710782D01*
X42636760Y-55732352D01*
X42638752Y-55743606D01*
X42641466Y-55748575D01*
X42644039Y-55766888D01*
X42644300Y-55770902D01*
X42644300Y-55864992D01*
X42652377Y-55895138D01*
X42653172Y-55907355D01*
X42648096Y-55929978D01*
X42647545Y-55953156D01*
X42640592Y-55963427D01*
X42637878Y-55975530D01*
X42621379Y-55991816D01*
X42608383Y-56011019D01*
X42596980Y-56015901D01*
X42588154Y-56024615D01*
X42565467Y-56029396D01*
X42544155Y-56038523D01*
X42529433Y-56039400D01*
X35123891Y-56039400D01*
X35034691Y-56063301D01*
X35034690Y-56063301D01*
X35009314Y-56070099D01*
X34906586Y-56129411D01*
X34906583Y-56129413D01*
X34125913Y-56910083D01*
X34125909Y-56910089D01*
X34066601Y-57012812D01*
X34066600Y-57012817D01*
X34035900Y-57127391D01*
X34035900Y-61012634D01*
X34016215Y-61079673D01*
X33999581Y-61100315D01*
X29586316Y-65513581D01*
X29524993Y-65547066D01*
X29498635Y-65549900D01*
X28198191Y-65549900D01*
X28083615Y-65580600D01*
X28083610Y-65580602D01*
X28079017Y-65583255D01*
X28079008Y-65583260D01*
X27980892Y-65639906D01*
X27980884Y-65639912D01*
X26573716Y-67047081D01*
X26512393Y-67080566D01*
X26486035Y-67083400D01*
X25646791Y-67083400D01*
X25556425Y-67107613D01*
X25556424Y-67107612D01*
X25532215Y-67114100D01*
X25532206Y-67114104D01*
X25429492Y-67173405D01*
X25429488Y-67173408D01*
X25429486Y-67173410D01*
X25319290Y-67283604D01*
X25257969Y-67317088D01*
X25188277Y-67312104D01*
X25143930Y-67283603D01*
X24799864Y-66939537D01*
X24799862Y-66939535D01*
X24762750Y-66918108D01*
X24725640Y-66896682D01*
X24684246Y-66885591D01*
X24642853Y-66874500D01*
X21752853Y-66874500D01*
X21667147Y-66874500D01*
X21584362Y-66896682D01*
X21584355Y-66896685D01*
X21510144Y-66939530D01*
X21510136Y-66939536D01*
X21449536Y-67000136D01*
X21449530Y-67000144D01*
X21406685Y-67074355D01*
X21406682Y-67074362D01*
X21384500Y-67157147D01*
X21384500Y-67500500D01*
X21364815Y-67567539D01*
X21312011Y-67613294D01*
X21260500Y-67624500D01*
X20570322Y-67624500D01*
X20547975Y-67621698D01*
X20527659Y-67624500D01*
X20507143Y-67624500D01*
X20492865Y-67628326D01*
X20477722Y-67631387D01*
X20463073Y-67633407D01*
X20463068Y-67633409D01*
X20452015Y-67638066D01*
X20452016Y-67638067D01*
X20444172Y-67641373D01*
X20424362Y-67646682D01*
X20404857Y-67657942D01*
X20397719Y-67660951D01*
X20384095Y-67666692D01*
X20384093Y-67666694D01*
X20374617Y-67674057D01*
X20374618Y-67674058D01*
X20367900Y-67679279D01*
X20350138Y-67689535D01*
X20334212Y-67705459D01*
X20328105Y-67710206D01*
X20328103Y-67710208D01*
X20316424Y-67719286D01*
X20316420Y-67719289D01*
X20309174Y-67728851D01*
X20309175Y-67728852D01*
X20304033Y-67735638D01*
X20289535Y-67750138D01*
X20278276Y-67769635D01*
X20273594Y-67775817D01*
X20273593Y-67775820D01*
X20125542Y-67971248D01*
X19770139Y-68440380D01*
X19713970Y-68481928D01*
X19671303Y-68489500D01*
X18060849Y-68489500D01*
X18044663Y-68488439D01*
X18039810Y-68487800D01*
X18039809Y-68487800D01*
X17921191Y-68487800D01*
X17830825Y-68512013D01*
X17830824Y-68512012D01*
X17806616Y-68518499D01*
X17806613Y-68518500D01*
X17753240Y-68549315D01*
X17717782Y-68569787D01*
X17655784Y-68586400D01*
X13668966Y-68586400D01*
X13601927Y-68566715D01*
X13581285Y-68550081D01*
X8123519Y-63092315D01*
X8090034Y-63030992D01*
X8087200Y-63004634D01*
X8087200Y-55383165D01*
X8106885Y-55316126D01*
X8123519Y-55295484D01*
X8387780Y-55031223D01*
X8700549Y-54718453D01*
X8761870Y-54684970D01*
X8831561Y-54689954D01*
X8887495Y-54731825D01*
X8911166Y-54789939D01*
X8911699Y-54793988D01*
X8945808Y-54921287D01*
X8972437Y-54967408D01*
X9011700Y-55035414D01*
X9104886Y-55128600D01*
X9219014Y-55194492D01*
X9346308Y-55228600D01*
X9346310Y-55228600D01*
X9478090Y-55228600D01*
X9478092Y-55228600D01*
X9605386Y-55194492D01*
X9719514Y-55128600D01*
X9812700Y-55035414D01*
X9878592Y-54921286D01*
X9912700Y-54793992D01*
X9912700Y-54703933D01*
X9921345Y-54674490D01*
X9927869Y-54644504D01*
X9931622Y-54639489D01*
X9932385Y-54636894D01*
X9949020Y-54616250D01*
X9963898Y-54601373D01*
X9979654Y-54585617D01*
X10040978Y-54552133D01*
X10067334Y-54549300D01*
X21196935Y-54549300D01*
X21263974Y-54568985D01*
G37*
%TD.AperFunction*%
%TA.AperFunction,Conductor*%
G36*
X47751406Y-43990785D02*
G01*
X47772048Y-44007419D01*
X51078532Y-47313903D01*
X51112017Y-47375226D01*
X51107033Y-47444918D01*
X51065161Y-47500851D01*
X50999697Y-47525268D01*
X50974668Y-47524523D01*
X50966896Y-47523500D01*
X50966892Y-47523500D01*
X50835108Y-47523500D01*
X50707812Y-47557608D01*
X50593686Y-47623500D01*
X50593683Y-47623502D01*
X50500502Y-47716683D01*
X50500500Y-47716686D01*
X50434608Y-47830812D01*
X50432495Y-47838699D01*
X50420813Y-47882294D01*
X50384451Y-47941953D01*
X50321604Y-47972483D01*
X50301040Y-47974200D01*
X49243254Y-47974200D01*
X49176215Y-47954515D01*
X49130460Y-47901711D01*
X49120516Y-47832553D01*
X49123479Y-47818108D01*
X49124611Y-47813882D01*
X49125600Y-47810192D01*
X49125600Y-47678408D01*
X49091492Y-47551114D01*
X49025600Y-47436986D01*
X48932414Y-47343800D01*
X48875350Y-47310854D01*
X48818287Y-47277908D01*
X48754639Y-47260854D01*
X48690992Y-47243800D01*
X48559208Y-47243800D01*
X48431912Y-47277908D01*
X48317786Y-47343800D01*
X48317783Y-47343802D01*
X48254105Y-47407481D01*
X48192782Y-47440966D01*
X48166424Y-47443800D01*
X43802633Y-47443800D01*
X43735594Y-47424115D01*
X43714952Y-47407481D01*
X41319179Y-45011708D01*
X42020300Y-45011708D01*
X42020300Y-45143491D01*
X42054408Y-45270787D01*
X42087354Y-45327850D01*
X42120300Y-45384914D01*
X42213486Y-45478100D01*
X42327614Y-45543992D01*
X42454908Y-45578100D01*
X42454910Y-45578100D01*
X42586690Y-45578100D01*
X42586692Y-45578100D01*
X42713986Y-45543992D01*
X42828114Y-45478100D01*
X42891795Y-45414419D01*
X42953118Y-45380934D01*
X42979476Y-45378100D01*
X47412800Y-45378100D01*
X47479839Y-45397785D01*
X47525594Y-45450589D01*
X47536800Y-45502100D01*
X47536800Y-45531591D01*
X47570908Y-45658887D01*
X47580537Y-45675564D01*
X47636800Y-45773014D01*
X47729986Y-45866200D01*
X47844114Y-45932092D01*
X47971408Y-45966200D01*
X47971410Y-45966200D01*
X48103190Y-45966200D01*
X48103192Y-45966200D01*
X48230486Y-45932092D01*
X48344614Y-45866200D01*
X48437800Y-45773014D01*
X48503692Y-45658886D01*
X48537800Y-45531592D01*
X48537800Y-45399808D01*
X48503692Y-45272514D01*
X48437800Y-45158386D01*
X48344614Y-45065200D01*
X48287550Y-45032254D01*
X48230487Y-44999308D01*
X48166839Y-44982254D01*
X48103192Y-44965200D01*
X48013133Y-44965200D01*
X47946094Y-44945515D01*
X47925452Y-44928881D01*
X47833712Y-44837141D01*
X47833704Y-44837135D01*
X47765195Y-44797582D01*
X47765190Y-44797579D01*
X47739713Y-44790752D01*
X47688762Y-44777100D01*
X47688760Y-44777100D01*
X42979476Y-44777100D01*
X42912437Y-44757415D01*
X42891795Y-44740781D01*
X42828116Y-44677102D01*
X42828114Y-44677100D01*
X42771050Y-44644154D01*
X42713987Y-44611208D01*
X42650339Y-44594154D01*
X42586692Y-44577100D01*
X42454908Y-44577100D01*
X42327612Y-44611208D01*
X42213486Y-44677100D01*
X42213483Y-44677102D01*
X42120302Y-44770283D01*
X42120300Y-44770286D01*
X42054408Y-44884412D01*
X42020300Y-45011708D01*
X41319179Y-45011708D01*
X40634946Y-44327475D01*
X40626240Y-44311531D01*
X40613466Y-44298614D01*
X40609843Y-44281502D01*
X40601461Y-44266152D01*
X40602756Y-44248031D01*
X40598994Y-44230259D01*
X40605197Y-44213905D01*
X40606445Y-44196460D01*
X40617331Y-44181917D01*
X40623775Y-44164932D01*
X40642261Y-44148616D01*
X40648317Y-44140527D01*
X40648871Y-44140115D01*
X40654532Y-44135926D01*
X40766814Y-44071100D01*
X40837010Y-44000903D01*
X40844420Y-43995421D01*
X40868915Y-43986439D01*
X40891818Y-43973934D01*
X40907672Y-43972229D01*
X40910019Y-43971369D01*
X40911856Y-43971779D01*
X40918176Y-43971100D01*
X47684367Y-43971100D01*
X47751406Y-43990785D01*
G37*
%TD.AperFunction*%
%TA.AperFunction,Conductor*%
G36*
X19947106Y-12451285D02*
G01*
X19992861Y-12504089D01*
X20002805Y-12573247D01*
X19973780Y-12636803D01*
X19967748Y-12643281D01*
X13819648Y-18791381D01*
X13758325Y-18824866D01*
X13731967Y-18827700D01*
X9791776Y-18827700D01*
X9724737Y-18808015D01*
X9704095Y-18791381D01*
X9640416Y-18727702D01*
X9640414Y-18727700D01*
X9583350Y-18694754D01*
X9526287Y-18661808D01*
X9427031Y-18635213D01*
X9398992Y-18627700D01*
X9267208Y-18627700D01*
X9139912Y-18661808D01*
X9025786Y-18727700D01*
X9025783Y-18727702D01*
X8932602Y-18820883D01*
X8932600Y-18820886D01*
X8866708Y-18935012D01*
X8832600Y-19062308D01*
X8832600Y-19194091D01*
X8842036Y-19229307D01*
X8840373Y-19299157D01*
X8801210Y-19357019D01*
X8736982Y-19384523D01*
X8722261Y-19385400D01*
X8343200Y-19385400D01*
X8276161Y-19365715D01*
X8230406Y-19312911D01*
X8222720Y-19290735D01*
X8219200Y-19276278D01*
X8219200Y-19239108D01*
X8185092Y-19111814D01*
X8174827Y-19094034D01*
X8170622Y-19076764D01*
X8171457Y-19058907D01*
X8167242Y-19041535D01*
X8173056Y-19024731D01*
X8173888Y-19006970D01*
X8184245Y-18992399D01*
X8190091Y-18975507D01*
X8203415Y-18959754D01*
X14695252Y-12467919D01*
X14756575Y-12434434D01*
X14782933Y-12431600D01*
X19880067Y-12431600D01*
X19947106Y-12451285D01*
G37*
%TD.AperFunction*%
%TA.AperFunction,Conductor*%
G36*
X52907206Y-13588385D02*
G01*
X52952961Y-13641189D01*
X52962905Y-13710347D01*
X52933880Y-13773903D01*
X52927848Y-13780381D01*
X49451748Y-17256481D01*
X49390425Y-17289966D01*
X49364067Y-17292800D01*
X47795876Y-17292800D01*
X47728837Y-17273115D01*
X47708195Y-17256481D01*
X47644516Y-17192802D01*
X47644514Y-17192800D01*
X47530386Y-17126908D01*
X47530383Y-17126906D01*
X47527417Y-17125678D01*
X47525297Y-17123969D01*
X47523347Y-17122844D01*
X47523522Y-17122539D01*
X47473011Y-17081840D01*
X47450943Y-17015547D01*
X47468219Y-16947847D01*
X47512864Y-16903728D01*
X47556214Y-16878700D01*
X47649400Y-16785514D01*
X47715292Y-16671386D01*
X47749400Y-16544092D01*
X47749400Y-16412308D01*
X47715292Y-16285014D01*
X47649400Y-16170886D01*
X47556214Y-16077700D01*
X47499150Y-16044754D01*
X47442087Y-16011808D01*
X47378439Y-15994754D01*
X47314792Y-15977700D01*
X47224733Y-15977700D01*
X47157694Y-15958015D01*
X47137052Y-15941381D01*
X46163212Y-14967541D01*
X46163204Y-14967535D01*
X46094695Y-14927982D01*
X46094690Y-14927979D01*
X46069213Y-14921152D01*
X46018262Y-14907500D01*
X42776776Y-14907500D01*
X42755530Y-14901261D01*
X42733442Y-14899682D01*
X42722658Y-14891609D01*
X42709737Y-14887815D01*
X42695237Y-14871081D01*
X42677509Y-14857810D01*
X42672801Y-14845189D01*
X42663982Y-14835011D01*
X42660830Y-14813093D01*
X42653092Y-14792346D01*
X42655954Y-14779185D01*
X42654038Y-14765853D01*
X42663237Y-14745709D01*
X42667944Y-14724073D01*
X42681212Y-14706347D01*
X42683063Y-14702297D01*
X42689095Y-14695819D01*
X42750695Y-14634219D01*
X42812018Y-14600734D01*
X42838376Y-14597900D01*
X46365467Y-14597900D01*
X46432506Y-14617585D01*
X46453148Y-14634219D01*
X46800381Y-14981452D01*
X46833866Y-15042775D01*
X46836700Y-15069133D01*
X46836700Y-15159192D01*
X46856399Y-15232711D01*
X46870809Y-15286488D01*
X46870809Y-15286489D01*
X46922616Y-15376221D01*
X46922617Y-15376222D01*
X46936700Y-15400614D01*
X47029886Y-15493800D01*
X47144014Y-15559692D01*
X47271308Y-15593800D01*
X47271310Y-15593800D01*
X47403090Y-15593800D01*
X47403092Y-15593800D01*
X47530386Y-15559692D01*
X47644514Y-15493800D01*
X47737700Y-15400614D01*
X47803592Y-15286486D01*
X47837700Y-15159192D01*
X47837700Y-15027408D01*
X47803592Y-14900114D01*
X47737700Y-14785986D01*
X47644514Y-14692800D01*
X47568143Y-14648707D01*
X47530387Y-14626908D01*
X47466739Y-14609854D01*
X47403092Y-14592800D01*
X47313033Y-14592800D01*
X47245994Y-14573115D01*
X47225352Y-14556481D01*
X46725810Y-14056939D01*
X46700563Y-14042363D01*
X46675316Y-14027787D01*
X46671504Y-14025586D01*
X46657290Y-14017379D01*
X46657291Y-14017379D01*
X46619075Y-14007139D01*
X46580862Y-13996900D01*
X46580860Y-13996900D01*
X42838376Y-13996900D01*
X42771337Y-13977215D01*
X42750695Y-13960581D01*
X42687016Y-13896902D01*
X42687014Y-13896900D01*
X42612536Y-13853900D01*
X42572887Y-13831008D01*
X42542067Y-13822750D01*
X42503717Y-13812474D01*
X42444057Y-13776110D01*
X42413528Y-13713263D01*
X42421823Y-13643888D01*
X42466308Y-13590010D01*
X42532860Y-13568735D01*
X42535811Y-13568700D01*
X52840167Y-13568700D01*
X52907206Y-13588385D01*
G37*
%TD.AperFunction*%
%TA.AperFunction,Conductor*%
G36*
X46814663Y-5816885D02*
G01*
X46860418Y-5869689D01*
X46870362Y-5938847D01*
X46867401Y-5953283D01*
X46849500Y-6020091D01*
X46849500Y-6138709D01*
X46880201Y-6253286D01*
X46939511Y-6356013D01*
X47023387Y-6439889D01*
X47126114Y-6499199D01*
X47240691Y-6529900D01*
X47240694Y-6529900D01*
X47359306Y-6529900D01*
X47359309Y-6529900D01*
X47473886Y-6499199D01*
X47576613Y-6439889D01*
X47600283Y-6416219D01*
X47661606Y-6382734D01*
X47687964Y-6379900D01*
X49102467Y-6379900D01*
X49169506Y-6399585D01*
X49190148Y-6416219D01*
X51511748Y-8737819D01*
X51545233Y-8799142D01*
X51540249Y-8868834D01*
X51498377Y-8924767D01*
X51432913Y-8949184D01*
X51424067Y-8949500D01*
X35238095Y-8949500D01*
X35171056Y-8929815D01*
X35155807Y-8918261D01*
X34711789Y-8524374D01*
X34709016Y-8521914D01*
X34676613Y-8489511D01*
X34664801Y-8482691D01*
X34654591Y-8473634D01*
X34616897Y-8454777D01*
X34613572Y-8453114D01*
X34573886Y-8430201D01*
X34560709Y-8426669D01*
X34549479Y-8421052D01*
X34549475Y-8421051D01*
X34548509Y-8420567D01*
X34548498Y-8420564D01*
X34507229Y-8412110D01*
X34500023Y-8410409D01*
X34489553Y-8407603D01*
X34459309Y-8399500D01*
X34459306Y-8399500D01*
X34445661Y-8399500D01*
X34432299Y-8396763D01*
X34386551Y-8399500D01*
X31752543Y-8399500D01*
X31730046Y-8397442D01*
X31723400Y-8396216D01*
X31687017Y-8399110D01*
X31677186Y-8399500D01*
X31640691Y-8399500D01*
X31640689Y-8399500D01*
X31640682Y-8399501D01*
X31634153Y-8401250D01*
X31634154Y-8401251D01*
X31623200Y-8404186D01*
X31605155Y-8405622D01*
X31566138Y-8419474D01*
X31561372Y-8420752D01*
X31561371Y-8420753D01*
X31526112Y-8430201D01*
X31520248Y-8433587D01*
X31520247Y-8433586D01*
X31510426Y-8439256D01*
X31493373Y-8445312D01*
X31459270Y-8468790D01*
X31455001Y-8471256D01*
X31454996Y-8471260D01*
X31423386Y-8489511D01*
X31423384Y-8489512D01*
X31418593Y-8494303D01*
X31401257Y-8508733D01*
X31395676Y-8512576D01*
X31395670Y-8512581D01*
X31380393Y-8530499D01*
X31368791Y-8544106D01*
X31339511Y-8573387D01*
X31330465Y-8589053D01*
X31323104Y-8597686D01*
X31323103Y-8597689D01*
X30829094Y-9177083D01*
X30770619Y-9215326D01*
X30700752Y-9215883D01*
X30683015Y-9209329D01*
X29201953Y-8529614D01*
X29149234Y-8483761D01*
X29129674Y-8416685D01*
X29149484Y-8349682D01*
X29191674Y-8309529D01*
X29207314Y-8300500D01*
X29300500Y-8207314D01*
X29300500Y-8207313D01*
X29304884Y-8202930D01*
X29366207Y-8169445D01*
X29383781Y-8166922D01*
X29621554Y-8150048D01*
X29689817Y-8164937D01*
X29739195Y-8214370D01*
X29742455Y-8221190D01*
X29776786Y-8280653D01*
X29809500Y-8337314D01*
X29902686Y-8430500D01*
X29993083Y-8482691D01*
X30004897Y-8489512D01*
X30016814Y-8496392D01*
X30144108Y-8530500D01*
X30144110Y-8530500D01*
X30275890Y-8530500D01*
X30275892Y-8530500D01*
X30403186Y-8496392D01*
X30517314Y-8430500D01*
X30610500Y-8337314D01*
X30676392Y-8223186D01*
X30687319Y-8182405D01*
X30723682Y-8122747D01*
X30786529Y-8092217D01*
X30807093Y-8090500D01*
X42847260Y-8090500D01*
X42847262Y-8090500D01*
X42923689Y-8070021D01*
X42992211Y-8030460D01*
X43048160Y-7974511D01*
X45189152Y-5833519D01*
X45250475Y-5800034D01*
X45276833Y-5797200D01*
X46747624Y-5797200D01*
X46814663Y-5816885D01*
G37*
%TD.AperFunction*%
%TA.AperFunction,Conductor*%
G36*
X56723441Y-407248D02*
G01*
X56948259Y-487693D01*
X56959494Y-492347D01*
X57285550Y-646564D01*
X57296264Y-652291D01*
X57605648Y-837731D01*
X57615750Y-844481D01*
X57905477Y-1059359D01*
X57914856Y-1067057D01*
X58182118Y-1309290D01*
X58190709Y-1317881D01*
X58432936Y-1585136D01*
X58440642Y-1594525D01*
X58611576Y-1825000D01*
X58655511Y-1884239D01*
X58662270Y-1894355D01*
X58810886Y-2142302D01*
X58847701Y-2203722D01*
X58853437Y-2214454D01*
X59007650Y-2540502D01*
X59012307Y-2551744D01*
X59032868Y-2609205D01*
X59078233Y-2735986D01*
X59092751Y-2776557D01*
X59100000Y-2818333D01*
X59100000Y-105681665D01*
X59092751Y-105723441D01*
X59012307Y-105948255D01*
X59007650Y-105959497D01*
X58853437Y-106285545D01*
X58847701Y-106296277D01*
X58662271Y-106605643D01*
X58655511Y-106615760D01*
X58440649Y-106905464D01*
X58432936Y-106914863D01*
X58190716Y-107182111D01*
X58182111Y-107190716D01*
X57914863Y-107432936D01*
X57905464Y-107440649D01*
X57861377Y-107473348D01*
X57615760Y-107655511D01*
X57605643Y-107662271D01*
X57296277Y-107847701D01*
X57285545Y-107853437D01*
X56959497Y-108007650D01*
X56948255Y-108012307D01*
X56723442Y-108092751D01*
X56681666Y-108100000D01*
X2818334Y-108100000D01*
X2776558Y-108092751D01*
X2551744Y-108012307D01*
X2540502Y-108007650D01*
X2214454Y-107853437D01*
X2203728Y-107847704D01*
X1894355Y-107662270D01*
X1884244Y-107655514D01*
X1594525Y-107440642D01*
X1585136Y-107432936D01*
X1317881Y-107190709D01*
X1309290Y-107182118D01*
X1067057Y-106914856D01*
X1059359Y-106905477D01*
X844481Y-106615750D01*
X837728Y-106605643D01*
X652291Y-106296264D01*
X646562Y-106285545D01*
X640974Y-106273731D01*
X492347Y-105959494D01*
X487692Y-105948255D01*
X407249Y-105723441D01*
X400000Y-105681665D01*
X400000Y-105068435D01*
X1959500Y-105068435D01*
X1959500Y-105271564D01*
X1991277Y-105472194D01*
X1991277Y-105472197D01*
X2054045Y-105665377D01*
X2146268Y-105846372D01*
X2265656Y-106010697D01*
X2265660Y-106010702D01*
X2409297Y-106154339D01*
X2409302Y-106154343D01*
X2470037Y-106198469D01*
X2573631Y-106273734D01*
X2754620Y-106365953D01*
X2754622Y-106365954D01*
X2947803Y-106428722D01*
X2947804Y-106428722D01*
X2947807Y-106428723D01*
X3148435Y-106460500D01*
X3148436Y-106460500D01*
X3351564Y-106460500D01*
X3351565Y-106460500D01*
X3552193Y-106428723D01*
X3552196Y-106428722D01*
X3552197Y-106428722D01*
X3745377Y-106365954D01*
X3745377Y-106365953D01*
X3745380Y-106365953D01*
X3926369Y-106273734D01*
X4090704Y-106154338D01*
X4234338Y-106010704D01*
X4353734Y-105846369D01*
X4445953Y-105665380D01*
X4508723Y-105472193D01*
X4540500Y-105271565D01*
X4540500Y-105068435D01*
X21959500Y-105068435D01*
X21959500Y-105271564D01*
X21991277Y-105472194D01*
X21991277Y-105472197D01*
X22054045Y-105665377D01*
X22146268Y-105846372D01*
X22265656Y-106010697D01*
X22265660Y-106010702D01*
X22409297Y-106154339D01*
X22409302Y-106154343D01*
X22470037Y-106198469D01*
X22573631Y-106273734D01*
X22754620Y-106365953D01*
X22754622Y-106365954D01*
X22947803Y-106428722D01*
X22947804Y-106428722D01*
X22947807Y-106428723D01*
X23148435Y-106460500D01*
X23148436Y-106460500D01*
X23351564Y-106460500D01*
X23351565Y-106460500D01*
X23552193Y-106428723D01*
X23552196Y-106428722D01*
X23552197Y-106428722D01*
X23745377Y-106365954D01*
X23745377Y-106365953D01*
X23745380Y-106365953D01*
X23926369Y-106273734D01*
X24090704Y-106154338D01*
X24234338Y-106010704D01*
X24353734Y-105846369D01*
X24445953Y-105665380D01*
X24508723Y-105472193D01*
X24540500Y-105271565D01*
X24540500Y-105068435D01*
X34959500Y-105068435D01*
X34959500Y-105271564D01*
X34991277Y-105472194D01*
X34991277Y-105472197D01*
X35054045Y-105665377D01*
X35146268Y-105846372D01*
X35265656Y-106010697D01*
X35265660Y-106010702D01*
X35409297Y-106154339D01*
X35409302Y-106154343D01*
X35470037Y-106198469D01*
X35573631Y-106273734D01*
X35754620Y-106365953D01*
X35754622Y-106365954D01*
X35947803Y-106428722D01*
X35947804Y-106428722D01*
X35947807Y-106428723D01*
X36148435Y-106460500D01*
X36148436Y-106460500D01*
X36351564Y-106460500D01*
X36351565Y-106460500D01*
X36552193Y-106428723D01*
X36552196Y-106428722D01*
X36552197Y-106428722D01*
X36745377Y-106365954D01*
X36745377Y-106365953D01*
X36745380Y-106365953D01*
X36926369Y-106273734D01*
X37090704Y-106154338D01*
X37234338Y-106010704D01*
X37353734Y-105846369D01*
X37445953Y-105665380D01*
X37508723Y-105472193D01*
X37540500Y-105271565D01*
X37540500Y-105068435D01*
X54959500Y-105068435D01*
X54959500Y-105271564D01*
X54991277Y-105472194D01*
X54991277Y-105472197D01*
X55054045Y-105665377D01*
X55146268Y-105846372D01*
X55265656Y-106010697D01*
X55265660Y-106010702D01*
X55409297Y-106154339D01*
X55409302Y-106154343D01*
X55470037Y-106198469D01*
X55573631Y-106273734D01*
X55754620Y-106365953D01*
X55754622Y-106365954D01*
X55947803Y-106428722D01*
X55947804Y-106428722D01*
X55947807Y-106428723D01*
X56148435Y-106460500D01*
X56148436Y-106460500D01*
X56351564Y-106460500D01*
X56351565Y-106460500D01*
X56552193Y-106428723D01*
X56552196Y-106428722D01*
X56552197Y-106428722D01*
X56745377Y-106365954D01*
X56745377Y-106365953D01*
X56745380Y-106365953D01*
X56926369Y-106273734D01*
X57090704Y-106154338D01*
X57234338Y-106010704D01*
X57353734Y-105846369D01*
X57445953Y-105665380D01*
X57508723Y-105472193D01*
X57540500Y-105271565D01*
X57540500Y-105068435D01*
X57508723Y-104867807D01*
X57508722Y-104867803D01*
X57508722Y-104867802D01*
X57445954Y-104674622D01*
X57445953Y-104674620D01*
X57353734Y-104493631D01*
X57329387Y-104460120D01*
X57234343Y-104329302D01*
X57234339Y-104329297D01*
X57090702Y-104185660D01*
X57090697Y-104185656D01*
X56926372Y-104066268D01*
X56926371Y-104066267D01*
X56926369Y-104066266D01*
X56835874Y-104020156D01*
X56745377Y-103974045D01*
X56552196Y-103911277D01*
X56401722Y-103887444D01*
X56351565Y-103879500D01*
X56148435Y-103879500D01*
X56081559Y-103890092D01*
X55947805Y-103911277D01*
X55947802Y-103911277D01*
X55754622Y-103974045D01*
X55573627Y-104066268D01*
X55409302Y-104185656D01*
X55409297Y-104185660D01*
X55265660Y-104329297D01*
X55265656Y-104329302D01*
X55146268Y-104493627D01*
X55054045Y-104674622D01*
X54991277Y-104867802D01*
X54991277Y-104867805D01*
X54959500Y-105068435D01*
X37540500Y-105068435D01*
X37508723Y-104867807D01*
X37508722Y-104867803D01*
X37508722Y-104867802D01*
X37445954Y-104674622D01*
X37445953Y-104674620D01*
X37353734Y-104493631D01*
X37329387Y-104460120D01*
X37234343Y-104329302D01*
X37234339Y-104329297D01*
X37090702Y-104185660D01*
X37090697Y-104185656D01*
X36926372Y-104066268D01*
X36926371Y-104066267D01*
X36926369Y-104066266D01*
X36835874Y-104020156D01*
X36745377Y-103974045D01*
X36552196Y-103911277D01*
X36401722Y-103887444D01*
X36351565Y-103879500D01*
X36148435Y-103879500D01*
X36081559Y-103890092D01*
X35947805Y-103911277D01*
X35947802Y-103911277D01*
X35754622Y-103974045D01*
X35573627Y-104066268D01*
X35409302Y-104185656D01*
X35409297Y-104185660D01*
X35265660Y-104329297D01*
X35265656Y-104329302D01*
X35146268Y-104493627D01*
X35054045Y-104674622D01*
X34991277Y-104867802D01*
X34991277Y-104867805D01*
X34959500Y-105068435D01*
X24540500Y-105068435D01*
X24508723Y-104867807D01*
X24508722Y-104867803D01*
X24508722Y-104867802D01*
X24445954Y-104674622D01*
X24445953Y-104674620D01*
X24353734Y-104493631D01*
X24329387Y-104460120D01*
X24234343Y-104329302D01*
X24234339Y-104329297D01*
X24090702Y-104185660D01*
X24090697Y-104185656D01*
X23926372Y-104066268D01*
X23926371Y-104066267D01*
X23926369Y-104066266D01*
X23835874Y-104020156D01*
X23745377Y-103974045D01*
X23552196Y-103911277D01*
X23401722Y-103887444D01*
X23351565Y-103879500D01*
X23148435Y-103879500D01*
X23081559Y-103890092D01*
X22947805Y-103911277D01*
X22947802Y-103911277D01*
X22754622Y-103974045D01*
X22573627Y-104066268D01*
X22409302Y-104185656D01*
X22409297Y-104185660D01*
X22265660Y-104329297D01*
X22265656Y-104329302D01*
X22146268Y-104493627D01*
X22054045Y-104674622D01*
X21991277Y-104867802D01*
X21991277Y-104867805D01*
X21959500Y-105068435D01*
X4540500Y-105068435D01*
X4508723Y-104867807D01*
X4508722Y-104867803D01*
X4508722Y-104867802D01*
X4445954Y-104674622D01*
X4445953Y-104674620D01*
X4353734Y-104493631D01*
X4329387Y-104460120D01*
X4234343Y-104329302D01*
X4234339Y-104329297D01*
X4090702Y-104185660D01*
X4090697Y-104185656D01*
X3926372Y-104066268D01*
X3926371Y-104066267D01*
X3926369Y-104066266D01*
X3835874Y-104020156D01*
X3745377Y-103974045D01*
X3552196Y-103911277D01*
X3401722Y-103887444D01*
X3351565Y-103879500D01*
X3148435Y-103879500D01*
X3081559Y-103890092D01*
X2947805Y-103911277D01*
X2947802Y-103911277D01*
X2754622Y-103974045D01*
X2573627Y-104066268D01*
X2409302Y-104185656D01*
X2409297Y-104185660D01*
X2265660Y-104329297D01*
X2265656Y-104329302D01*
X2146268Y-104493627D01*
X2054045Y-104674622D01*
X1991277Y-104867802D01*
X1991277Y-104867805D01*
X1959500Y-105068435D01*
X400000Y-105068435D01*
X400000Y-92651591D01*
X21837000Y-92651591D01*
X21837000Y-92770209D01*
X21857359Y-92846188D01*
X21859890Y-92855634D01*
X21859891Y-92855643D01*
X21867699Y-92884783D01*
X21867700Y-92884785D01*
X21867701Y-92884787D01*
X21927011Y-92987514D01*
X22057686Y-93118189D01*
X22160413Y-93177499D01*
X22184621Y-93183984D01*
X22184624Y-93183986D01*
X22184625Y-93183986D01*
X22214747Y-93192057D01*
X22274991Y-93208200D01*
X22274993Y-93208200D01*
X47332406Y-93208200D01*
X47332409Y-93208200D01*
X47446986Y-93177499D01*
X47549713Y-93118189D01*
X47633589Y-93034313D01*
X47692899Y-92931586D01*
X47723600Y-92817009D01*
X47723600Y-92698391D01*
X47692899Y-92583814D01*
X47633589Y-92481087D01*
X47549713Y-92397211D01*
X47446986Y-92337901D01*
X47332409Y-92307200D01*
X47332406Y-92307200D01*
X22522498Y-92307200D01*
X22482063Y-92300422D01*
X22470804Y-92296538D01*
X22461387Y-92291101D01*
X22437173Y-92284613D01*
X22432965Y-92283485D01*
X22432955Y-92283482D01*
X22368658Y-92266254D01*
X22346809Y-92260400D01*
X22228191Y-92260400D01*
X22137825Y-92284613D01*
X22137824Y-92284612D01*
X22113616Y-92291099D01*
X22113613Y-92291100D01*
X22010886Y-92350411D01*
X22010883Y-92350413D01*
X21927013Y-92434283D01*
X21927009Y-92434289D01*
X21867701Y-92537012D01*
X21867701Y-92537013D01*
X21867701Y-92537014D01*
X21837000Y-92651591D01*
X400000Y-92651591D01*
X400000Y-90220408D01*
X1792000Y-90220408D01*
X1792000Y-90352192D01*
X1794519Y-90361592D01*
X1826108Y-90479487D01*
X1859054Y-90536550D01*
X1892000Y-90593614D01*
X1985186Y-90686800D01*
X2099314Y-90752692D01*
X2226608Y-90786800D01*
X2226610Y-90786800D01*
X2358390Y-90786800D01*
X2358392Y-90786800D01*
X2485686Y-90752692D01*
X2599814Y-90686800D01*
X2693000Y-90593614D01*
X2758892Y-90479486D01*
X2793000Y-90352192D01*
X2793000Y-90262132D01*
X2812685Y-90195093D01*
X2829319Y-90174451D01*
X3163352Y-89840419D01*
X3224675Y-89806934D01*
X3251033Y-89804100D01*
X46450535Y-89804100D01*
X46517574Y-89823785D01*
X46563329Y-89876589D01*
X46573273Y-89945747D01*
X46557922Y-89990100D01*
X46497409Y-90094910D01*
X46497409Y-90094911D01*
X46463300Y-90222208D01*
X46463300Y-90312266D01*
X46443615Y-90379305D01*
X46426981Y-90399947D01*
X45752448Y-91074481D01*
X45691125Y-91107966D01*
X45664767Y-91110800D01*
X13420076Y-91110800D01*
X13353037Y-91091115D01*
X13332395Y-91074481D01*
X13268716Y-91010802D01*
X13268714Y-91010800D01*
X13211650Y-90977854D01*
X13154587Y-90944908D01*
X13090939Y-90927854D01*
X13027292Y-90910800D01*
X12895508Y-90910800D01*
X12768212Y-90944908D01*
X12654086Y-91010800D01*
X12654083Y-91010802D01*
X12560902Y-91103983D01*
X12560900Y-91103986D01*
X12495008Y-91218112D01*
X12460900Y-91345408D01*
X12460900Y-91477191D01*
X12495008Y-91604487D01*
X12522302Y-91651760D01*
X12560900Y-91718614D01*
X12654086Y-91811800D01*
X12768214Y-91877692D01*
X12895508Y-91911800D01*
X12895510Y-91911800D01*
X13027290Y-91911800D01*
X13027292Y-91911800D01*
X13154586Y-91877692D01*
X13268714Y-91811800D01*
X13332395Y-91748119D01*
X13393718Y-91714634D01*
X13420076Y-91711800D01*
X45880160Y-91711800D01*
X45880162Y-91711800D01*
X45956589Y-91691321D01*
X46025111Y-91651760D01*
X46081060Y-91595811D01*
X46851951Y-90824918D01*
X46913274Y-90791434D01*
X46939632Y-90788600D01*
X47029690Y-90788600D01*
X47029692Y-90788600D01*
X47156986Y-90754492D01*
X47271114Y-90688600D01*
X47334795Y-90624919D01*
X47396118Y-90591434D01*
X47422476Y-90588600D01*
X52089724Y-90588600D01*
X52156763Y-90608285D01*
X52177405Y-90624919D01*
X52241086Y-90688600D01*
X52339921Y-90745663D01*
X52352094Y-90752691D01*
X52355214Y-90754492D01*
X52482508Y-90788600D01*
X52482510Y-90788600D01*
X52614290Y-90788600D01*
X52614292Y-90788600D01*
X52741586Y-90754492D01*
X52855714Y-90688600D01*
X52948900Y-90595414D01*
X53014792Y-90481286D01*
X53048900Y-90353992D01*
X53048900Y-90222208D01*
X53014792Y-90094914D01*
X53013752Y-90093112D01*
X52954278Y-89990100D01*
X52937805Y-89922200D01*
X52960657Y-89856173D01*
X53015579Y-89812982D01*
X53061665Y-89804100D01*
X53956324Y-89804100D01*
X54023363Y-89823785D01*
X54044005Y-89840419D01*
X54107686Y-89904100D01*
X54221814Y-89969992D01*
X54349108Y-90004100D01*
X54349110Y-90004100D01*
X54480890Y-90004100D01*
X54480892Y-90004100D01*
X54608186Y-89969992D01*
X54722314Y-89904100D01*
X54737819Y-89888595D01*
X54799142Y-89855110D01*
X54868834Y-89860094D01*
X54924767Y-89901966D01*
X54949184Y-89967430D01*
X54949500Y-89976276D01*
X54949500Y-93859309D01*
X54980201Y-93973886D01*
X55039511Y-94076613D01*
X55123387Y-94160489D01*
X55226114Y-94219799D01*
X55340691Y-94250500D01*
X55340694Y-94250500D01*
X55459306Y-94250500D01*
X55459309Y-94250500D01*
X55573886Y-94219799D01*
X55676613Y-94160489D01*
X55760489Y-94076613D01*
X55819799Y-93973886D01*
X55850500Y-93859309D01*
X55850500Y-56840691D01*
X55819799Y-56726114D01*
X55760489Y-56623387D01*
X55676613Y-56539511D01*
X55573886Y-56480201D01*
X55459309Y-56449500D01*
X55340691Y-56449500D01*
X55226114Y-56480201D01*
X55226112Y-56480201D01*
X55226112Y-56480202D01*
X55123387Y-56539511D01*
X55123384Y-56539513D01*
X55039513Y-56623384D01*
X55039511Y-56623387D01*
X55003246Y-56686200D01*
X54980201Y-56726114D01*
X54949500Y-56840691D01*
X54949500Y-56840693D01*
X54949500Y-71086867D01*
X54929815Y-71153906D01*
X54877011Y-71199661D01*
X54807853Y-71209605D01*
X54744297Y-71180580D01*
X54737819Y-71174548D01*
X51193212Y-67629941D01*
X51193204Y-67629935D01*
X51124695Y-67590382D01*
X51124690Y-67590379D01*
X51078692Y-67578054D01*
X51048262Y-67569900D01*
X51048260Y-67569900D01*
X41840776Y-67569900D01*
X41814944Y-67562315D01*
X41788326Y-67558261D01*
X41779079Y-67551783D01*
X41773737Y-67550215D01*
X41758795Y-67538933D01*
X41755865Y-67536351D01*
X41689414Y-67469900D01*
X41663432Y-67454899D01*
X41654157Y-67446726D01*
X41641844Y-67427211D01*
X41625922Y-67410512D01*
X41623553Y-67398221D01*
X41616874Y-67387635D01*
X41617066Y-67364559D01*
X41612700Y-67341904D01*
X41617351Y-67330285D01*
X41617456Y-67317768D01*
X41630093Y-67298459D01*
X41638669Y-67277040D01*
X41648448Y-67266021D01*
X43234852Y-65679619D01*
X43296175Y-65646134D01*
X43322533Y-65643300D01*
X53741024Y-65643300D01*
X53808063Y-65662985D01*
X53828705Y-65679619D01*
X53892386Y-65743300D01*
X54006514Y-65809192D01*
X54133808Y-65843300D01*
X54133810Y-65843300D01*
X54265590Y-65843300D01*
X54265592Y-65843300D01*
X54392886Y-65809192D01*
X54507014Y-65743300D01*
X54600200Y-65650114D01*
X54666092Y-65535986D01*
X54700200Y-65408692D01*
X54700200Y-65276908D01*
X54666092Y-65149614D01*
X54600200Y-65035486D01*
X54507014Y-64942300D01*
X54449950Y-64909354D01*
X54392887Y-64876408D01*
X54329239Y-64859354D01*
X54265592Y-64842300D01*
X54133808Y-64842300D01*
X54006512Y-64876408D01*
X53892386Y-64942300D01*
X53892383Y-64942302D01*
X53828705Y-65005981D01*
X53767382Y-65039466D01*
X53741024Y-65042300D01*
X43107138Y-65042300D01*
X43030710Y-65062778D01*
X42962189Y-65102340D01*
X42962186Y-65102342D01*
X40309347Y-67755181D01*
X40248024Y-67788666D01*
X40221666Y-67791500D01*
X40131608Y-67791500D01*
X40004312Y-67825608D01*
X39890186Y-67891500D01*
X39890183Y-67891502D01*
X39797002Y-67984683D01*
X39797000Y-67984686D01*
X39731108Y-68098812D01*
X39711793Y-68170900D01*
X39697000Y-68226108D01*
X39697000Y-68357892D01*
X39704162Y-68384620D01*
X39731108Y-68485187D01*
X39750341Y-68518499D01*
X39797000Y-68599314D01*
X39797002Y-68599316D01*
X39895505Y-68697819D01*
X39928990Y-68759142D01*
X39924006Y-68828834D01*
X39882134Y-68884767D01*
X39816670Y-68909184D01*
X39807824Y-68909500D01*
X38440691Y-68909500D01*
X38350325Y-68933713D01*
X38350324Y-68933712D01*
X38326115Y-68940200D01*
X38326106Y-68940204D01*
X38223392Y-68999505D01*
X38223384Y-68999511D01*
X37582388Y-69640507D01*
X37521065Y-69673992D01*
X37451373Y-69669008D01*
X37395440Y-69627136D01*
X37371023Y-69561672D01*
X37384222Y-69496532D01*
X37445953Y-69375380D01*
X37498091Y-69214916D01*
X37508722Y-69182197D01*
X37508722Y-69182196D01*
X37508723Y-69182193D01*
X37540500Y-68981565D01*
X37540500Y-68778435D01*
X37508723Y-68577807D01*
X37508722Y-68577803D01*
X37508722Y-68577802D01*
X37445954Y-68384622D01*
X37394211Y-68283072D01*
X37353734Y-68203631D01*
X37323804Y-68162436D01*
X37234343Y-68039302D01*
X37234339Y-68039297D01*
X37090702Y-67895660D01*
X37090697Y-67895656D01*
X36926372Y-67776268D01*
X36926371Y-67776267D01*
X36926369Y-67776266D01*
X36814540Y-67719286D01*
X36745377Y-67684045D01*
X36552196Y-67621277D01*
X36401722Y-67597444D01*
X36351565Y-67589500D01*
X36148435Y-67589500D01*
X36094839Y-67597989D01*
X35947805Y-67621277D01*
X35947802Y-67621277D01*
X35754622Y-67684045D01*
X35573627Y-67776268D01*
X35409302Y-67895656D01*
X35409297Y-67895660D01*
X35265660Y-68039297D01*
X35265656Y-68039302D01*
X35146268Y-68203627D01*
X35054045Y-68384622D01*
X34991277Y-68577802D01*
X34991277Y-68577805D01*
X34964778Y-68745112D01*
X34959500Y-68778435D01*
X34959500Y-68981565D01*
X34963084Y-69004190D01*
X34991277Y-69182194D01*
X34991277Y-69182197D01*
X35054045Y-69375377D01*
X35068982Y-69404692D01*
X35115776Y-69496530D01*
X35146268Y-69556372D01*
X35265656Y-69720697D01*
X35265660Y-69720702D01*
X35409301Y-69864343D01*
X35493040Y-69925182D01*
X35535706Y-69980511D01*
X35541685Y-70050125D01*
X35509080Y-70111920D01*
X35448241Y-70146277D01*
X35420155Y-70149500D01*
X35105380Y-70149500D01*
X35061371Y-70141428D01*
X34205090Y-69816361D01*
X34161418Y-69788114D01*
X30461384Y-66088080D01*
X30427899Y-66026757D01*
X30432883Y-65957065D01*
X30461384Y-65912718D01*
X31431802Y-64942300D01*
X32898495Y-63475608D01*
X46575700Y-63475608D01*
X46575700Y-63607392D01*
X46592754Y-63671039D01*
X46609808Y-63734687D01*
X46642754Y-63791750D01*
X46675700Y-63848814D01*
X46768886Y-63942000D01*
X46883014Y-64007892D01*
X47010308Y-64042000D01*
X47010310Y-64042000D01*
X47142090Y-64042000D01*
X47142092Y-64042000D01*
X47269386Y-64007892D01*
X47383514Y-63942000D01*
X47476700Y-63848814D01*
X47542592Y-63734686D01*
X47576700Y-63607392D01*
X47576700Y-63547300D01*
X47596385Y-63480261D01*
X47649189Y-63434506D01*
X47700700Y-63423300D01*
X53739424Y-63423300D01*
X53806463Y-63442985D01*
X53827105Y-63459619D01*
X53890786Y-63523300D01*
X54004914Y-63589192D01*
X54132208Y-63623300D01*
X54132210Y-63623300D01*
X54263990Y-63623300D01*
X54263992Y-63623300D01*
X54391286Y-63589192D01*
X54505414Y-63523300D01*
X54598600Y-63430114D01*
X54664492Y-63315986D01*
X54698600Y-63188692D01*
X54698600Y-63056908D01*
X54664492Y-62929614D01*
X54598600Y-62815486D01*
X54505414Y-62722300D01*
X54448350Y-62689354D01*
X54391287Y-62656408D01*
X54327639Y-62639354D01*
X54263992Y-62622300D01*
X54132208Y-62622300D01*
X54004912Y-62656408D01*
X53890786Y-62722300D01*
X53890783Y-62722302D01*
X53827105Y-62785981D01*
X53765782Y-62819466D01*
X53739424Y-62822300D01*
X47455338Y-62822300D01*
X47387939Y-62840359D01*
X47378907Y-62842780D01*
X47323809Y-62874590D01*
X47323803Y-62874595D01*
X47310786Y-62882111D01*
X47310389Y-62882340D01*
X47187138Y-63005589D01*
X47186169Y-63006519D01*
X47156286Y-63022023D01*
X47126722Y-63038166D01*
X47124768Y-63038376D01*
X47124150Y-63038697D01*
X47122880Y-63038579D01*
X47100365Y-63041000D01*
X47010308Y-63041000D01*
X46883012Y-63075108D01*
X46768886Y-63141000D01*
X46768883Y-63141002D01*
X46675702Y-63234183D01*
X46675700Y-63234186D01*
X46609808Y-63348312D01*
X46601371Y-63379800D01*
X46575700Y-63475608D01*
X32898495Y-63475608D01*
X34846890Y-61527214D01*
X34906199Y-61424486D01*
X34936900Y-61309909D01*
X34936900Y-57424665D01*
X34956585Y-57357626D01*
X34973219Y-57336984D01*
X35333484Y-56976719D01*
X35394807Y-56943234D01*
X35421165Y-56940400D01*
X40940318Y-56940400D01*
X40940691Y-56940500D01*
X41059309Y-56940500D01*
X41059682Y-56940400D01*
X44338091Y-56940400D01*
X44456709Y-56940400D01*
X44466320Y-56937824D01*
X44498411Y-56933600D01*
X46797006Y-56933600D01*
X46797009Y-56933600D01*
X46911586Y-56902899D01*
X47014313Y-56843589D01*
X47098189Y-56759713D01*
X47157499Y-56656986D01*
X47188200Y-56542409D01*
X47188200Y-56423791D01*
X47157499Y-56309214D01*
X47098189Y-56206487D01*
X47014313Y-56122611D01*
X46911586Y-56063301D01*
X46797009Y-56032600D01*
X44344891Y-56032600D01*
X44335279Y-56035175D01*
X44303189Y-56039400D01*
X43760167Y-56039400D01*
X43693128Y-56019715D01*
X43647373Y-55966911D01*
X43637429Y-55897753D01*
X43640389Y-55883319D01*
X43645300Y-55864992D01*
X43645300Y-55733208D01*
X43611192Y-55605914D01*
X43545300Y-55491786D01*
X43452114Y-55398600D01*
X43375038Y-55354100D01*
X43337987Y-55332708D01*
X43274339Y-55315654D01*
X43210692Y-55298600D01*
X43120633Y-55298600D01*
X43053594Y-55278915D01*
X43032952Y-55262281D01*
X42383812Y-54613141D01*
X42383804Y-54613135D01*
X42359839Y-54599299D01*
X42359839Y-54599298D01*
X42359836Y-54599298D01*
X42315294Y-54573581D01*
X42315291Y-54573579D01*
X42277075Y-54563339D01*
X42238862Y-54553100D01*
X42238860Y-54553100D01*
X40795719Y-54553100D01*
X40728680Y-54533415D01*
X40682925Y-54480611D01*
X40672981Y-54411453D01*
X40675944Y-54397007D01*
X40676419Y-54395232D01*
X40698000Y-54314692D01*
X40698000Y-54182908D01*
X40663892Y-54055614D01*
X40598000Y-53941486D01*
X40592195Y-53935681D01*
X40587856Y-53927735D01*
X40580609Y-53922310D01*
X40571374Y-53897550D01*
X40558710Y-53874358D01*
X40559355Y-53865328D01*
X40556192Y-53856846D01*
X40561808Y-53831025D01*
X40563694Y-53804666D01*
X40569512Y-53795612D01*
X40571044Y-53788573D01*
X40592195Y-53760319D01*
X40621795Y-53730719D01*
X40683118Y-53697234D01*
X40709476Y-53694400D01*
X46611124Y-53694400D01*
X46678163Y-53714085D01*
X46698805Y-53730719D01*
X46762486Y-53794400D01*
X46855843Y-53848300D01*
X46868814Y-53855789D01*
X46876614Y-53860292D01*
X47003908Y-53894400D01*
X47003910Y-53894400D01*
X47093967Y-53894400D01*
X47161006Y-53914085D01*
X47181648Y-53930719D01*
X50622140Y-57371211D01*
X50678089Y-57427160D01*
X50678091Y-57427161D01*
X50678095Y-57427164D01*
X50746604Y-57466717D01*
X50746611Y-57466721D01*
X50823038Y-57487200D01*
X50902162Y-57487200D01*
X51817824Y-57487200D01*
X51843798Y-57494827D01*
X51870557Y-57498971D01*
X51879640Y-57505351D01*
X51884863Y-57506885D01*
X51900039Y-57518374D01*
X51902847Y-57520861D01*
X51969186Y-57587200D01*
X51993779Y-57601399D01*
X52003153Y-57609701D01*
X52015335Y-57629118D01*
X52031154Y-57645708D01*
X52033552Y-57658151D01*
X52040287Y-57668886D01*
X52040038Y-57691807D01*
X52044376Y-57714315D01*
X52039666Y-57726078D01*
X52039529Y-57738751D01*
X52026927Y-57757899D01*
X52018408Y-57779180D01*
X52008619Y-57790208D01*
X50891248Y-58907581D01*
X50829925Y-58941066D01*
X50803567Y-58943900D01*
X50631138Y-58943900D01*
X50592924Y-58954139D01*
X50554709Y-58964379D01*
X50554704Y-58964382D01*
X50486195Y-59003935D01*
X50486187Y-59003941D01*
X49404748Y-60085381D01*
X49343425Y-60118866D01*
X49317067Y-60121700D01*
X49298308Y-60121700D01*
X49171012Y-60155808D01*
X49056886Y-60221700D01*
X49056883Y-60221702D01*
X48963702Y-60314883D01*
X48963700Y-60314886D01*
X48897808Y-60429012D01*
X48863700Y-60556308D01*
X48863700Y-60688091D01*
X48897808Y-60815387D01*
X48930754Y-60872450D01*
X48963700Y-60929514D01*
X49056886Y-61022700D01*
X49171014Y-61088592D01*
X49298308Y-61122700D01*
X49298310Y-61122700D01*
X49430090Y-61122700D01*
X49430092Y-61122700D01*
X49557386Y-61088592D01*
X49671514Y-61022700D01*
X49764700Y-60929514D01*
X49830592Y-60815386D01*
X49864700Y-60688092D01*
X49864700Y-60556308D01*
X49864699Y-60556306D01*
X49863639Y-60548252D01*
X49866453Y-60547881D01*
X49867783Y-60491788D01*
X49898216Y-60441853D01*
X50290851Y-60049218D01*
X50352172Y-60015735D01*
X50421864Y-60020719D01*
X50477797Y-60062591D01*
X50485912Y-60074893D01*
X50489100Y-60080414D01*
X50582286Y-60173600D01*
X50696414Y-60239492D01*
X50823708Y-60273600D01*
X50823710Y-60273600D01*
X50955490Y-60273600D01*
X50955492Y-60273600D01*
X51082786Y-60239492D01*
X51196914Y-60173600D01*
X51290100Y-60080414D01*
X51355992Y-59966286D01*
X51390100Y-59838992D01*
X51390100Y-59774833D01*
X51409785Y-59707794D01*
X51426419Y-59687152D01*
X52205990Y-58907581D01*
X53391560Y-57722011D01*
X53411658Y-57687200D01*
X53431121Y-57653489D01*
X53451600Y-57577062D01*
X53451600Y-48921938D01*
X53445210Y-48898089D01*
X53431122Y-48845512D01*
X53391560Y-48776989D01*
X50737118Y-46122547D01*
X48044713Y-43430141D01*
X48042646Y-43428948D01*
X48036996Y-43425686D01*
X48036993Y-43425684D01*
X47976192Y-43390580D01*
X47976191Y-43390579D01*
X47937975Y-43380339D01*
X47899762Y-43370100D01*
X47899760Y-43370100D01*
X40918176Y-43370100D01*
X40851137Y-43350415D01*
X40830495Y-43333781D01*
X40766816Y-43270102D01*
X40766814Y-43270100D01*
X40664816Y-43211211D01*
X40652687Y-43204208D01*
X40589039Y-43187154D01*
X40525392Y-43170100D01*
X40393608Y-43170100D01*
X40266312Y-43204208D01*
X40152186Y-43270100D01*
X40064077Y-43358209D01*
X40002753Y-43391693D01*
X39933062Y-43386709D01*
X39877128Y-43344837D01*
X39867468Y-43327872D01*
X39867156Y-43328053D01*
X39854839Y-43306720D01*
X39797200Y-43206886D01*
X39704014Y-43113700D01*
X39646950Y-43080754D01*
X39589887Y-43047808D01*
X39526239Y-43030754D01*
X39462592Y-43013700D01*
X39330808Y-43013700D01*
X39203512Y-43047808D01*
X39089386Y-43113700D01*
X39089383Y-43113702D01*
X38996202Y-43206883D01*
X38996200Y-43206886D01*
X38930308Y-43321012D01*
X38912705Y-43386709D01*
X38896200Y-43448308D01*
X38896200Y-43580092D01*
X38902796Y-43604708D01*
X38930308Y-43707387D01*
X38963254Y-43764450D01*
X38996200Y-43821514D01*
X39089386Y-43914700D01*
X39187073Y-43971100D01*
X39198875Y-43977914D01*
X39203514Y-43980592D01*
X39330808Y-44014700D01*
X39330810Y-44014700D01*
X39420867Y-44014700D01*
X39487906Y-44034385D01*
X39508548Y-44051019D01*
X40625748Y-45168219D01*
X40659233Y-45229542D01*
X40654249Y-45299234D01*
X40612377Y-45355167D01*
X40546913Y-45379584D01*
X40538067Y-45379900D01*
X30941438Y-45379900D01*
X30903224Y-45390139D01*
X30865009Y-45400379D01*
X30840693Y-45414419D01*
X30820395Y-45426138D01*
X30813292Y-45430238D01*
X30796489Y-45439939D01*
X30378847Y-45857581D01*
X30317524Y-45891066D01*
X30291166Y-45893900D01*
X30201108Y-45893900D01*
X30073812Y-45928008D01*
X29959686Y-45993900D01*
X29959683Y-45993902D01*
X29866502Y-46087083D01*
X29866500Y-46087086D01*
X29800608Y-46201212D01*
X29766500Y-46328508D01*
X29766500Y-46460291D01*
X29800608Y-46587587D01*
X29833554Y-46644650D01*
X29866500Y-46701714D01*
X29959686Y-46794900D01*
X30073814Y-46860792D01*
X30201108Y-46894900D01*
X30201110Y-46894900D01*
X30332890Y-46894900D01*
X30332892Y-46894900D01*
X30460186Y-46860792D01*
X30574314Y-46794900D01*
X30667500Y-46701714D01*
X30733392Y-46587586D01*
X30767500Y-46460292D01*
X30767500Y-46370232D01*
X30787185Y-46303193D01*
X30803819Y-46282551D01*
X31069152Y-46017219D01*
X31130475Y-45983734D01*
X31156833Y-45980900D01*
X39020386Y-45980900D01*
X39087425Y-46000585D01*
X39133180Y-46053389D01*
X39143124Y-46122547D01*
X39140164Y-46136976D01*
X39127000Y-46186108D01*
X39127000Y-46186110D01*
X39127000Y-46317891D01*
X39161108Y-46445187D01*
X39169829Y-46460292D01*
X39227000Y-46559314D01*
X39320186Y-46652500D01*
X39434314Y-46718392D01*
X39561608Y-46752500D01*
X39561610Y-46752500D01*
X39693390Y-46752500D01*
X39693392Y-46752500D01*
X39820686Y-46718392D01*
X39934814Y-46652500D01*
X39998495Y-46588819D01*
X40059818Y-46555334D01*
X40086176Y-46552500D01*
X40630267Y-46552500D01*
X40659707Y-46561144D01*
X40689694Y-46567668D01*
X40694709Y-46571422D01*
X40697306Y-46572185D01*
X40717948Y-46588819D01*
X40868542Y-46739413D01*
X40902027Y-46800736D01*
X40897043Y-46870428D01*
X40855171Y-46926361D01*
X40842863Y-46934480D01*
X40837289Y-46937698D01*
X40837283Y-46937702D01*
X40744102Y-47030883D01*
X40744100Y-47030886D01*
X40678208Y-47145012D01*
X40644100Y-47272308D01*
X40644100Y-47404091D01*
X40678208Y-47531387D01*
X40689598Y-47551114D01*
X40744100Y-47645514D01*
X40837286Y-47738700D01*
X40951414Y-47804592D01*
X41078708Y-47838700D01*
X41078710Y-47838700D01*
X41168767Y-47838700D01*
X41235806Y-47858385D01*
X41256448Y-47875019D01*
X42348040Y-48966611D01*
X42403989Y-49022560D01*
X42403991Y-49022561D01*
X42403995Y-49022564D01*
X42472504Y-49062117D01*
X42472511Y-49062121D01*
X42548938Y-49082600D01*
X43811467Y-49082600D01*
X43878506Y-49102285D01*
X43924261Y-49155089D01*
X43934205Y-49224247D01*
X43905180Y-49287803D01*
X43899148Y-49294281D01*
X43898741Y-49294687D01*
X43898735Y-49294695D01*
X43859182Y-49363204D01*
X43859179Y-49363209D01*
X43838700Y-49439639D01*
X43838700Y-49741224D01*
X43819015Y-49808263D01*
X43766211Y-49854018D01*
X43697053Y-49863962D01*
X43633497Y-49834937D01*
X43627019Y-49828905D01*
X43599316Y-49801202D01*
X43599314Y-49801200D01*
X43542250Y-49768254D01*
X43485187Y-49735308D01*
X43369670Y-49704356D01*
X43357892Y-49701200D01*
X43226108Y-49701200D01*
X43098812Y-49735308D01*
X42984686Y-49801200D01*
X42984683Y-49801202D01*
X42891502Y-49894383D01*
X42891500Y-49894386D01*
X42825608Y-50008512D01*
X42817342Y-50039362D01*
X42791500Y-50135808D01*
X42791500Y-50267592D01*
X42804610Y-50316519D01*
X42825608Y-50394887D01*
X42846203Y-50430558D01*
X42891500Y-50509014D01*
X42984686Y-50602200D01*
X43098814Y-50668092D01*
X43226108Y-50702200D01*
X43226110Y-50702200D01*
X43316167Y-50702200D01*
X43383206Y-50721885D01*
X43403848Y-50738519D01*
X44464140Y-51798811D01*
X44520089Y-51854760D01*
X44520091Y-51854761D01*
X44520095Y-51854764D01*
X44584267Y-51891813D01*
X44588611Y-51894321D01*
X44588615Y-51894322D01*
X44590868Y-51894926D01*
X44592554Y-51895954D01*
X44596118Y-51897430D01*
X44595887Y-51897985D01*
X44650528Y-51931291D01*
X44681056Y-51994138D01*
X44672761Y-52063514D01*
X44628275Y-52117391D01*
X44561723Y-52138665D01*
X44558773Y-52138700D01*
X40818233Y-52138700D01*
X40751194Y-52119015D01*
X40730552Y-52102381D01*
X40324519Y-51696348D01*
X40291034Y-51635025D01*
X40288200Y-51608667D01*
X40288200Y-51518610D01*
X40288200Y-51518608D01*
X40254092Y-51391314D01*
X40188200Y-51277186D01*
X40095014Y-51184000D01*
X40014055Y-51137258D01*
X39980887Y-51118108D01*
X39903542Y-51097384D01*
X39853592Y-51084000D01*
X39721808Y-51084000D01*
X39594512Y-51118108D01*
X39480386Y-51184000D01*
X39480383Y-51184002D01*
X39387202Y-51277183D01*
X39387200Y-51277186D01*
X39321308Y-51391312D01*
X39287200Y-51518608D01*
X39287200Y-51650392D01*
X39297961Y-51690552D01*
X39321308Y-51777687D01*
X39354254Y-51834750D01*
X39387200Y-51891814D01*
X39480386Y-51985000D01*
X39594514Y-52050892D01*
X39721808Y-52085000D01*
X39721810Y-52085000D01*
X39811867Y-52085000D01*
X39878906Y-52104685D01*
X39899548Y-52121319D01*
X40430348Y-52652119D01*
X40463833Y-52713442D01*
X40458849Y-52783134D01*
X40416977Y-52839067D01*
X40351513Y-52863484D01*
X40342667Y-52863800D01*
X40214508Y-52863800D01*
X40087212Y-52897908D01*
X39973086Y-52963800D01*
X39973083Y-52963802D01*
X39879902Y-53056983D01*
X39879900Y-53056986D01*
X39814008Y-53171112D01*
X39791270Y-53255974D01*
X39779900Y-53298408D01*
X39779900Y-53430192D01*
X39814008Y-53557486D01*
X39879900Y-53671614D01*
X39879902Y-53671616D01*
X39885704Y-53677418D01*
X39890041Y-53685362D01*
X39897289Y-53690787D01*
X39906525Y-53715549D01*
X39919189Y-53738741D01*
X39918543Y-53747769D01*
X39921707Y-53756251D01*
X39916090Y-53782072D01*
X39914205Y-53808433D01*
X39908386Y-53817486D01*
X39906856Y-53824524D01*
X39885706Y-53852779D01*
X39864128Y-53874358D01*
X39826504Y-53911981D01*
X39765184Y-53945466D01*
X39738824Y-53948300D01*
X9851936Y-53948300D01*
X9778164Y-53968067D01*
X9708315Y-53966404D01*
X9650452Y-53927241D01*
X9622949Y-53863012D01*
X9634536Y-53794110D01*
X9658386Y-53760616D01*
X9715489Y-53703514D01*
X9774799Y-53600787D01*
X9786401Y-53557486D01*
X9805500Y-53486209D01*
X9805500Y-49272465D01*
X9820878Y-49212654D01*
X9829368Y-49197234D01*
X9856689Y-49169914D01*
X9915999Y-49067187D01*
X9926341Y-49028588D01*
X9946700Y-48952609D01*
X9946700Y-48833991D01*
X9922195Y-48742538D01*
X9915999Y-48719413D01*
X9856689Y-48616686D01*
X9772814Y-48532811D01*
X9721450Y-48503156D01*
X9670088Y-48473501D01*
X9657980Y-48470257D01*
X9645873Y-48467013D01*
X9645870Y-48467012D01*
X9607678Y-48456778D01*
X9555509Y-48442800D01*
X9436891Y-48442800D01*
X9346525Y-48467013D01*
X9346524Y-48467012D01*
X9322316Y-48473499D01*
X9322313Y-48473500D01*
X9219586Y-48532811D01*
X9219583Y-48532813D01*
X8994513Y-48757883D01*
X8994509Y-48757889D01*
X8935201Y-48860612D01*
X8935200Y-48860617D01*
X8904500Y-48975191D01*
X8904500Y-53188935D01*
X8884815Y-53255974D01*
X8868181Y-53276616D01*
X7276213Y-54868583D01*
X7276209Y-54868589D01*
X7216901Y-54971312D01*
X7216900Y-54971317D01*
X7193786Y-55057581D01*
X7186200Y-55085891D01*
X7186200Y-55443691D01*
X7186200Y-63301909D01*
X7200959Y-63356989D01*
X7216901Y-63416487D01*
X7276211Y-63519214D01*
X13154386Y-69397390D01*
X13253305Y-69454500D01*
X13257114Y-69456699D01*
X13371691Y-69487400D01*
X13371694Y-69487400D01*
X17941208Y-69487400D01*
X17941209Y-69487400D01*
X18031573Y-69463186D01*
X18055787Y-69456699D01*
X18145370Y-69404977D01*
X18149202Y-69403104D01*
X18169704Y-69399601D01*
X18203672Y-69390500D01*
X19859306Y-69390500D01*
X19859309Y-69390500D01*
X19973886Y-69359799D01*
X20076613Y-69300489D01*
X20160489Y-69216613D01*
X20219799Y-69113886D01*
X20250500Y-68999309D01*
X20250500Y-68926038D01*
X20270185Y-68858999D01*
X20275661Y-68851160D01*
X20276880Y-68849552D01*
X20674554Y-68324621D01*
X20730726Y-68283072D01*
X20773393Y-68275500D01*
X21260500Y-68275500D01*
X21327539Y-68295185D01*
X21373294Y-68347989D01*
X21384500Y-68399500D01*
X21384500Y-69837036D01*
X21364815Y-69904075D01*
X21354451Y-69916935D01*
X21354458Y-69916941D01*
X21349511Y-69923387D01*
X21324419Y-69966848D01*
X21290201Y-70026114D01*
X21259500Y-70140691D01*
X21259500Y-70259309D01*
X21290201Y-70373886D01*
X21290202Y-70373889D01*
X21336166Y-70453500D01*
X21352639Y-70521400D01*
X21329787Y-70587427D01*
X21274866Y-70630617D01*
X21228779Y-70639500D01*
X20670750Y-70639500D01*
X20667148Y-70638899D01*
X20665209Y-70639376D01*
X20630534Y-70632797D01*
X20435832Y-70566042D01*
X20378800Y-70525679D01*
X20368661Y-70510745D01*
X20366392Y-70506815D01*
X20366392Y-70506814D01*
X20300500Y-70392686D01*
X20207314Y-70299500D01*
X20150250Y-70266554D01*
X20093187Y-70233608D01*
X20029539Y-70216554D01*
X19965892Y-70199500D01*
X19834108Y-70199500D01*
X19706812Y-70233608D01*
X19592686Y-70299500D01*
X19592683Y-70299502D01*
X19499502Y-70392683D01*
X19499500Y-70392686D01*
X19433608Y-70506812D01*
X19399500Y-70634108D01*
X19399500Y-70765891D01*
X19433608Y-70893187D01*
X19435382Y-70896259D01*
X19499500Y-71007314D01*
X19592686Y-71100500D01*
X19706814Y-71166392D01*
X19834108Y-71200500D01*
X19834110Y-71200500D01*
X19965890Y-71200500D01*
X19965892Y-71200500D01*
X20093186Y-71166392D01*
X20133968Y-71142845D01*
X20167736Y-71134653D01*
X20201510Y-71126356D01*
X20201747Y-71126401D01*
X20201868Y-71126372D01*
X20236186Y-71132935D01*
X20277404Y-71147067D01*
X20463609Y-71210908D01*
X20479855Y-71218299D01*
X20484008Y-71220020D01*
X20484010Y-71220020D01*
X20484011Y-71220021D01*
X20508172Y-71226494D01*
X20516294Y-71228971D01*
X20539964Y-71237088D01*
X20540970Y-71237156D01*
X20550371Y-71237801D01*
X20560438Y-71240500D01*
X20589703Y-71240500D01*
X20618902Y-71242503D01*
X20618909Y-71242501D01*
X20623388Y-71242222D01*
X20641158Y-71240500D01*
X28691967Y-71240500D01*
X28759006Y-71260185D01*
X28779648Y-71276819D01*
X29395655Y-71892826D01*
X29429140Y-71954149D01*
X29424156Y-72023841D01*
X29382284Y-72079774D01*
X29316820Y-72104191D01*
X29275884Y-72100283D01*
X29272962Y-72099500D01*
X29272961Y-72099500D01*
X20821076Y-72099500D01*
X20754037Y-72079815D01*
X20733395Y-72063181D01*
X20669716Y-71999502D01*
X20669714Y-71999500D01*
X20591164Y-71954149D01*
X20555587Y-71933608D01*
X20491939Y-71916554D01*
X20428292Y-71899500D01*
X20296508Y-71899500D01*
X20169212Y-71933608D01*
X20055086Y-71999500D01*
X20055083Y-71999502D01*
X19961902Y-72092683D01*
X19961900Y-72092686D01*
X19896008Y-72206812D01*
X19872074Y-72296136D01*
X19861900Y-72334108D01*
X19861900Y-72465892D01*
X19874958Y-72514625D01*
X19896008Y-72593187D01*
X19911727Y-72620412D01*
X19961900Y-72707314D01*
X20055086Y-72800500D01*
X20169214Y-72866392D01*
X20296508Y-72900500D01*
X20296510Y-72900500D01*
X20428290Y-72900500D01*
X20428292Y-72900500D01*
X20555586Y-72866392D01*
X20669714Y-72800500D01*
X20733395Y-72736819D01*
X20794718Y-72703334D01*
X20821076Y-72700500D01*
X29057567Y-72700500D01*
X29124606Y-72720185D01*
X29145248Y-72736819D01*
X31199481Y-74791052D01*
X31232966Y-74852375D01*
X31235800Y-74878733D01*
X31235800Y-74968791D01*
X31269908Y-75096087D01*
X31302854Y-75153150D01*
X31335800Y-75210214D01*
X31428986Y-75303400D01*
X31543114Y-75369292D01*
X31670408Y-75403400D01*
X31670410Y-75403400D01*
X31802190Y-75403400D01*
X31802192Y-75403400D01*
X31929486Y-75369292D01*
X32043614Y-75303400D01*
X32136800Y-75210214D01*
X32202692Y-75096086D01*
X32236800Y-74968792D01*
X32236800Y-74837008D01*
X32202692Y-74709714D01*
X32136800Y-74595586D01*
X32043614Y-74502400D01*
X31986550Y-74469454D01*
X31929487Y-74436508D01*
X31865839Y-74419454D01*
X31802192Y-74402400D01*
X31712133Y-74402400D01*
X31645094Y-74382715D01*
X31624452Y-74366081D01*
X30773962Y-73515591D01*
X30740477Y-73454268D01*
X30745461Y-73384576D01*
X30787333Y-73328643D01*
X30829545Y-73308137D01*
X30934586Y-73279992D01*
X31048714Y-73214100D01*
X31141900Y-73120914D01*
X31207792Y-73006786D01*
X31241900Y-72879492D01*
X31241900Y-72747708D01*
X31207792Y-72620414D01*
X31141900Y-72506286D01*
X31048714Y-72413100D01*
X30966837Y-72365828D01*
X30934587Y-72347208D01*
X30870939Y-72330154D01*
X30807292Y-72313100D01*
X30717233Y-72313100D01*
X30650194Y-72293415D01*
X30629552Y-72276781D01*
X29566951Y-71214180D01*
X29533466Y-71152857D01*
X29538450Y-71083165D01*
X29566947Y-71038823D01*
X31130651Y-69475118D01*
X31191974Y-69441634D01*
X31218332Y-69438800D01*
X31308390Y-69438800D01*
X31308392Y-69438800D01*
X31435686Y-69404692D01*
X31549814Y-69338800D01*
X31643000Y-69245614D01*
X31708892Y-69131486D01*
X31743000Y-69004192D01*
X31743000Y-68943265D01*
X31762685Y-68876226D01*
X31815489Y-68830471D01*
X31884647Y-68820527D01*
X31948203Y-68849552D01*
X31954672Y-68855575D01*
X32098402Y-68999306D01*
X32241915Y-69142819D01*
X32275400Y-69204142D01*
X32270416Y-69273834D01*
X32228544Y-69329767D01*
X32163080Y-69354184D01*
X32154234Y-69354500D01*
X32023508Y-69354500D01*
X31896212Y-69388608D01*
X31799716Y-69444320D01*
X31782086Y-69454500D01*
X31706994Y-69529591D01*
X31706928Y-69529656D01*
X31688903Y-69547682D01*
X31688900Y-69547686D01*
X31623008Y-69661812D01*
X31589854Y-69785546D01*
X31588900Y-69789108D01*
X31588900Y-69920892D01*
X31605738Y-69983734D01*
X31623008Y-70048187D01*
X31624127Y-70050125D01*
X31688900Y-70162314D01*
X31782086Y-70255500D01*
X31896214Y-70321392D01*
X32023508Y-70355500D01*
X32023510Y-70355500D01*
X32113567Y-70355500D01*
X32180606Y-70375185D01*
X32201248Y-70391819D01*
X33254640Y-71445211D01*
X33310589Y-71501160D01*
X33310591Y-71501161D01*
X33310595Y-71501164D01*
X33379104Y-71540717D01*
X33379111Y-71540721D01*
X33455538Y-71561200D01*
X49274667Y-71561200D01*
X49341706Y-71580885D01*
X49362348Y-71597519D01*
X49999642Y-72234813D01*
X50033127Y-72296136D01*
X50028143Y-72365828D01*
X49986271Y-72421761D01*
X49973963Y-72429880D01*
X49968389Y-72433098D01*
X49968383Y-72433102D01*
X49875202Y-72526283D01*
X49875200Y-72526286D01*
X49809308Y-72640412D01*
X49775200Y-72767708D01*
X49775200Y-72899491D01*
X49809308Y-73026787D01*
X49839622Y-73079291D01*
X49875200Y-73140914D01*
X49875202Y-73140916D01*
X49938881Y-73204595D01*
X49972366Y-73265918D01*
X49975200Y-73292276D01*
X49975200Y-74768762D01*
X49988852Y-74819713D01*
X49995679Y-74845190D01*
X49995682Y-74845195D01*
X50035235Y-74913704D01*
X50035241Y-74913712D01*
X53661281Y-78539752D01*
X53694766Y-78601075D01*
X53697600Y-78627433D01*
X53697600Y-78717491D01*
X53731708Y-78844787D01*
X53764654Y-78901850D01*
X53797600Y-78958914D01*
X53890786Y-79052100D01*
X54004914Y-79117992D01*
X54132208Y-79152100D01*
X54132210Y-79152100D01*
X54263990Y-79152100D01*
X54263992Y-79152100D01*
X54391286Y-79117992D01*
X54505414Y-79052100D01*
X54598600Y-78958914D01*
X54664492Y-78844786D01*
X54698600Y-78717492D01*
X54698600Y-78585708D01*
X54664492Y-78458414D01*
X54598600Y-78344286D01*
X54505414Y-78251100D01*
X54438403Y-78212411D01*
X54391287Y-78185208D01*
X54327639Y-78168154D01*
X54263992Y-78151100D01*
X54173933Y-78151100D01*
X54106894Y-78131415D01*
X54086252Y-78114781D01*
X50612519Y-74641048D01*
X50579034Y-74579725D01*
X50576200Y-74553367D01*
X50576200Y-73292276D01*
X50584074Y-73265460D01*
X50588757Y-73237902D01*
X50594550Y-73229780D01*
X50595885Y-73225237D01*
X50608591Y-73208707D01*
X50610503Y-73206610D01*
X50676200Y-73140914D01*
X50686141Y-73123694D01*
X50695196Y-73113769D01*
X50714031Y-73102332D01*
X50729977Y-73087127D01*
X50743310Y-73084556D01*
X50754919Y-73077508D01*
X50776948Y-73078070D01*
X50798583Y-73073899D01*
X50811188Y-73078944D01*
X50824766Y-73079291D01*
X50842995Y-73091675D01*
X50863449Y-73099862D01*
X50874486Y-73109657D01*
X53764401Y-75999572D01*
X53797886Y-76060895D01*
X53792902Y-76130587D01*
X53784108Y-76149252D01*
X53731708Y-76240011D01*
X53697600Y-76367308D01*
X53697600Y-76499092D01*
X53714654Y-76562739D01*
X53731708Y-76626387D01*
X53764654Y-76683450D01*
X53797600Y-76740514D01*
X53890786Y-76833700D01*
X54004914Y-76899592D01*
X54132208Y-76933700D01*
X54132210Y-76933700D01*
X54263990Y-76933700D01*
X54263992Y-76933700D01*
X54391286Y-76899592D01*
X54505414Y-76833700D01*
X54598600Y-76740514D01*
X54664492Y-76626386D01*
X54698600Y-76499092D01*
X54698600Y-76367308D01*
X54664492Y-76240014D01*
X54598600Y-76125886D01*
X54534918Y-76062204D01*
X54501434Y-76000880D01*
X54498600Y-75974523D01*
X54498600Y-75968739D01*
X54478120Y-75892309D01*
X54478117Y-75892304D01*
X54438564Y-75823795D01*
X54438558Y-75823787D01*
X49635014Y-71020243D01*
X49635011Y-71020240D01*
X49634930Y-71020193D01*
X49634239Y-71019794D01*
X49634237Y-71019793D01*
X49566492Y-70980680D01*
X49566493Y-70980680D01*
X49557460Y-70978259D01*
X49490062Y-70960200D01*
X49490060Y-70960200D01*
X37836265Y-70960200D01*
X37769226Y-70940515D01*
X37723471Y-70887711D01*
X37713527Y-70818553D01*
X37742552Y-70754997D01*
X37748584Y-70748519D01*
X38121919Y-70375185D01*
X38650285Y-69846819D01*
X38711608Y-69813334D01*
X38737966Y-69810500D01*
X42639899Y-69810500D01*
X42671990Y-69814724D01*
X42673391Y-69815100D01*
X51328335Y-69815100D01*
X51395374Y-69834785D01*
X51416016Y-69851419D01*
X53921886Y-72357289D01*
X54024613Y-72416599D01*
X54048821Y-72423084D01*
X54048824Y-72423086D01*
X54048825Y-72423086D01*
X54074181Y-72429880D01*
X54139191Y-72447300D01*
X54139193Y-72447300D01*
X54257808Y-72447300D01*
X54257809Y-72447300D01*
X54348173Y-72423086D01*
X54372387Y-72416599D01*
X54396232Y-72402831D01*
X54404405Y-72399551D01*
X54430761Y-72397009D01*
X54456498Y-72390765D01*
X54464999Y-72393707D01*
X54473952Y-72392844D01*
X54497500Y-72404955D01*
X54522526Y-72413617D01*
X54528085Y-72420686D01*
X54536085Y-72424801D01*
X54549348Y-72447722D01*
X54565717Y-72468537D01*
X54567877Y-72479746D01*
X54571077Y-72485276D01*
X54570660Y-72494188D01*
X54574600Y-72514625D01*
X54574600Y-73360366D01*
X54554915Y-73427405D01*
X54538281Y-73448047D01*
X54309947Y-73676381D01*
X54248624Y-73709866D01*
X54222266Y-73712700D01*
X54132208Y-73712700D01*
X54004912Y-73746808D01*
X53890786Y-73812700D01*
X53890783Y-73812702D01*
X53797602Y-73905883D01*
X53797600Y-73905886D01*
X53731708Y-74020012D01*
X53697600Y-74147308D01*
X53697600Y-74279091D01*
X53731708Y-74406387D01*
X53749099Y-74436508D01*
X53797600Y-74520514D01*
X53890786Y-74613700D01*
X54004914Y-74679592D01*
X54132208Y-74713700D01*
X54132210Y-74713700D01*
X54263990Y-74713700D01*
X54263992Y-74713700D01*
X54391286Y-74679592D01*
X54505414Y-74613700D01*
X54598600Y-74520514D01*
X54664492Y-74406386D01*
X54698600Y-74279092D01*
X54698600Y-74189032D01*
X54707244Y-74159591D01*
X54713768Y-74129605D01*
X54717522Y-74124589D01*
X54718285Y-74121993D01*
X54734919Y-74101351D01*
X54737819Y-74098451D01*
X54799142Y-74064966D01*
X54868834Y-74069950D01*
X54924767Y-74111822D01*
X54949184Y-74177286D01*
X54949500Y-74186132D01*
X54949500Y-89030924D01*
X54929815Y-89097963D01*
X54877011Y-89143718D01*
X54807853Y-89153662D01*
X54744297Y-89124637D01*
X54737819Y-89118605D01*
X54722316Y-89103102D01*
X54722314Y-89103100D01*
X54665250Y-89070154D01*
X54608187Y-89037208D01*
X54533141Y-89017100D01*
X54480892Y-89003100D01*
X54349108Y-89003100D01*
X54221812Y-89037208D01*
X54107686Y-89103100D01*
X54107683Y-89103102D01*
X54044005Y-89166781D01*
X53982682Y-89200266D01*
X53956324Y-89203100D01*
X50373765Y-89203100D01*
X50306726Y-89183415D01*
X50260971Y-89130611D01*
X50251027Y-89061453D01*
X50266378Y-89017100D01*
X50326890Y-88912289D01*
X50326892Y-88912286D01*
X50361000Y-88784992D01*
X50361000Y-88694932D01*
X50380685Y-88627893D01*
X50397319Y-88607251D01*
X50822289Y-88182281D01*
X52058199Y-86946371D01*
X52119520Y-86912888D01*
X52189212Y-86917872D01*
X52233559Y-86946373D01*
X52253386Y-86966200D01*
X52367514Y-87032092D01*
X52494808Y-87066200D01*
X52494810Y-87066200D01*
X52626590Y-87066200D01*
X52626592Y-87066200D01*
X52753886Y-87032092D01*
X52868014Y-86966200D01*
X52961200Y-86873014D01*
X53027092Y-86758886D01*
X53061200Y-86631592D01*
X53061200Y-86499808D01*
X53027092Y-86372514D01*
X52961200Y-86258386D01*
X52868014Y-86165200D01*
X52810950Y-86132254D01*
X52753887Y-86099308D01*
X52688171Y-86081700D01*
X52626592Y-86065200D01*
X52494808Y-86065200D01*
X52380550Y-86095814D01*
X52310701Y-86094152D01*
X52252839Y-86054989D01*
X52225335Y-85990761D01*
X52228682Y-85943950D01*
X52256400Y-85840509D01*
X52256400Y-85721891D01*
X52225699Y-85607314D01*
X52166389Y-85504587D01*
X52082513Y-85420711D01*
X51979786Y-85361401D01*
X51865209Y-85330700D01*
X51746591Y-85330700D01*
X51632014Y-85361401D01*
X51632012Y-85361401D01*
X51632012Y-85361402D01*
X51529287Y-85420711D01*
X51529284Y-85420713D01*
X51505617Y-85444381D01*
X51444294Y-85477866D01*
X51417936Y-85480700D01*
X48368038Y-85480700D01*
X48321263Y-85493233D01*
X48291606Y-85501180D01*
X48291605Y-85501181D01*
X48257740Y-85520734D01*
X48257739Y-85520735D01*
X48247444Y-85526678D01*
X48223089Y-85540739D01*
X47185347Y-86578481D01*
X47124024Y-86611966D01*
X47097666Y-86614800D01*
X47007608Y-86614800D01*
X46880312Y-86648908D01*
X46766186Y-86714800D01*
X46766183Y-86714802D01*
X46673002Y-86807983D01*
X46673000Y-86807986D01*
X46607108Y-86922112D01*
X46573000Y-87049408D01*
X46573000Y-87181191D01*
X46607108Y-87308487D01*
X46640054Y-87365550D01*
X46673000Y-87422614D01*
X46766186Y-87515800D01*
X46880314Y-87581692D01*
X47007608Y-87615800D01*
X47007610Y-87615800D01*
X47139390Y-87615800D01*
X47139392Y-87615800D01*
X47266686Y-87581692D01*
X47380814Y-87515800D01*
X47474000Y-87422614D01*
X47539892Y-87308486D01*
X47574000Y-87181192D01*
X47574000Y-87091132D01*
X47593685Y-87024093D01*
X47610319Y-87003451D01*
X48495752Y-86118019D01*
X48557075Y-86084534D01*
X48583433Y-86081700D01*
X51417936Y-86081700D01*
X51484975Y-86101385D01*
X51505617Y-86118019D01*
X51529287Y-86141689D01*
X51632014Y-86200999D01*
X51678210Y-86213377D01*
X51737869Y-86249741D01*
X51768398Y-86312587D01*
X51760104Y-86381963D01*
X51733796Y-86420832D01*
X49972347Y-88182281D01*
X49911024Y-88215766D01*
X49884666Y-88218600D01*
X49794608Y-88218600D01*
X49667312Y-88252708D01*
X49553186Y-88318600D01*
X49553183Y-88318602D01*
X49489505Y-88382281D01*
X49428182Y-88415766D01*
X49401824Y-88418600D01*
X13791176Y-88418600D01*
X13724137Y-88398915D01*
X13703495Y-88382281D01*
X13639816Y-88318602D01*
X13639814Y-88318600D01*
X13582750Y-88285654D01*
X13525687Y-88252708D01*
X13462039Y-88235654D01*
X13398392Y-88218600D01*
X13266608Y-88218600D01*
X13139312Y-88252708D01*
X13025186Y-88318600D01*
X13025183Y-88318602D01*
X12932002Y-88411783D01*
X12932000Y-88411786D01*
X12866108Y-88525912D01*
X12832000Y-88653208D01*
X12832000Y-88784991D01*
X12866109Y-88912288D01*
X12866109Y-88912289D01*
X12926622Y-89017100D01*
X12943095Y-89085000D01*
X12920243Y-89151027D01*
X12865321Y-89194218D01*
X12819235Y-89203100D01*
X9965365Y-89203100D01*
X9898326Y-89183415D01*
X9852571Y-89130611D01*
X9842627Y-89061453D01*
X9857978Y-89017100D01*
X9918490Y-88912289D01*
X9918492Y-88912286D01*
X9952600Y-88784992D01*
X9952600Y-88694932D01*
X9972285Y-88627893D01*
X9988919Y-88607251D01*
X13411952Y-85184219D01*
X13473275Y-85150734D01*
X13499633Y-85147900D01*
X47114424Y-85147900D01*
X47181463Y-85167585D01*
X47202105Y-85184219D01*
X47265786Y-85247900D01*
X47379914Y-85313792D01*
X47507208Y-85347900D01*
X47507210Y-85347900D01*
X47638990Y-85347900D01*
X47638992Y-85347900D01*
X47766286Y-85313792D01*
X47880414Y-85247900D01*
X47973600Y-85154714D01*
X48039492Y-85040586D01*
X48073600Y-84913292D01*
X48073600Y-84781508D01*
X48039492Y-84654214D01*
X47973600Y-84540086D01*
X47909917Y-84476403D01*
X47876434Y-84415080D01*
X47873600Y-84388723D01*
X47873600Y-78727232D01*
X47893285Y-78660193D01*
X47909914Y-78639556D01*
X49579451Y-76970018D01*
X49640774Y-76936534D01*
X49667132Y-76933700D01*
X49757190Y-76933700D01*
X49757192Y-76933700D01*
X49884486Y-76899592D01*
X49998614Y-76833700D01*
X50091800Y-76740514D01*
X50157692Y-76626386D01*
X50191800Y-76499092D01*
X50191800Y-76367308D01*
X50157692Y-76240014D01*
X50091800Y-76125886D01*
X49998614Y-76032700D01*
X49941235Y-75999572D01*
X49884487Y-75966808D01*
X49820839Y-75949754D01*
X49757192Y-75932700D01*
X49625408Y-75932700D01*
X49498112Y-75966808D01*
X49383986Y-76032700D01*
X49383983Y-76032702D01*
X49290802Y-76125883D01*
X49290800Y-76125886D01*
X49224908Y-76240012D01*
X49190800Y-76367308D01*
X49190800Y-76457366D01*
X49171115Y-76524405D01*
X49154481Y-76545047D01*
X47388589Y-78310940D01*
X47332641Y-78366887D01*
X47332635Y-78366895D01*
X47293082Y-78435404D01*
X47293079Y-78435409D01*
X47272600Y-78511839D01*
X47272600Y-84388723D01*
X47263955Y-84418162D01*
X47257433Y-84448148D01*
X47253677Y-84453165D01*
X47252915Y-84455762D01*
X47236283Y-84476403D01*
X47202104Y-84510581D01*
X47140784Y-84544066D01*
X47114424Y-84546900D01*
X13284238Y-84546900D01*
X13207810Y-84567378D01*
X13139289Y-84606940D01*
X13139286Y-84606942D01*
X9563947Y-88182281D01*
X9502624Y-88215766D01*
X9476266Y-88218600D01*
X9386208Y-88218600D01*
X9258912Y-88252708D01*
X9144786Y-88318600D01*
X9144783Y-88318602D01*
X9051602Y-88411783D01*
X9051600Y-88411786D01*
X8985708Y-88525912D01*
X8951600Y-88653208D01*
X8951600Y-88784991D01*
X8985709Y-88912288D01*
X8985709Y-88912289D01*
X9046222Y-89017100D01*
X9062695Y-89085000D01*
X9039843Y-89151027D01*
X8984921Y-89194218D01*
X8938835Y-89203100D01*
X3035638Y-89203100D01*
X2997424Y-89213339D01*
X2959209Y-89223579D01*
X2959204Y-89223582D01*
X2890695Y-89263135D01*
X2890687Y-89263141D01*
X2404347Y-89749481D01*
X2343024Y-89782966D01*
X2316666Y-89785800D01*
X2226608Y-89785800D01*
X2099312Y-89819908D01*
X1985186Y-89885800D01*
X1985183Y-89885802D01*
X1892002Y-89978983D01*
X1892000Y-89978986D01*
X1826108Y-90093112D01*
X1804314Y-90174451D01*
X1792000Y-90220408D01*
X400000Y-90220408D01*
X400000Y-75818435D01*
X1959500Y-75818435D01*
X1959500Y-76021565D01*
X1961264Y-76032700D01*
X1991277Y-76222194D01*
X1991277Y-76222197D01*
X2054045Y-76415377D01*
X2146268Y-76596372D01*
X2265656Y-76760697D01*
X2265660Y-76760702D01*
X2409297Y-76904339D01*
X2409302Y-76904343D01*
X2449709Y-76933700D01*
X2573631Y-77023734D01*
X2754620Y-77115953D01*
X2754622Y-77115954D01*
X2947803Y-77178722D01*
X2947804Y-77178722D01*
X2947807Y-77178723D01*
X3148435Y-77210500D01*
X3148436Y-77210500D01*
X3351564Y-77210500D01*
X3351565Y-77210500D01*
X3552193Y-77178723D01*
X3552196Y-77178722D01*
X3552197Y-77178722D01*
X3745377Y-77115954D01*
X3745377Y-77115953D01*
X3745380Y-77115953D01*
X3926369Y-77023734D01*
X4090704Y-76904338D01*
X4234338Y-76760704D01*
X4353734Y-76596369D01*
X4445953Y-76415380D01*
X4461572Y-76367310D01*
X4508722Y-76222197D01*
X4508722Y-76222196D01*
X4508723Y-76222193D01*
X4540500Y-76021565D01*
X4540500Y-75818435D01*
X4508723Y-75617807D01*
X4508722Y-75617803D01*
X4508722Y-75617802D01*
X4445954Y-75424622D01*
X4417761Y-75369291D01*
X4353734Y-75243631D01*
X4329455Y-75210214D01*
X4234343Y-75079302D01*
X4234339Y-75079297D01*
X4090702Y-74935660D01*
X4090697Y-74935656D01*
X3926372Y-74816268D01*
X3926371Y-74816267D01*
X3926369Y-74816266D01*
X3833134Y-74768760D01*
X3745377Y-74724045D01*
X3552196Y-74661277D01*
X3401722Y-74637444D01*
X3351565Y-74629500D01*
X3148435Y-74629500D01*
X3081559Y-74640092D01*
X2947805Y-74661277D01*
X2947802Y-74661277D01*
X2754622Y-74724045D01*
X2573627Y-74816268D01*
X2409302Y-74935656D01*
X2409297Y-74935660D01*
X2265660Y-75079297D01*
X2265656Y-75079302D01*
X2146268Y-75243627D01*
X2054045Y-75424622D01*
X1991277Y-75617802D01*
X1991277Y-75617805D01*
X1991277Y-75617807D01*
X1959500Y-75818435D01*
X400000Y-75818435D01*
X400000Y-73432808D01*
X9416900Y-73432808D01*
X9416900Y-73564592D01*
X9429214Y-73610548D01*
X9451008Y-73691887D01*
X9463025Y-73712700D01*
X9516900Y-73806014D01*
X9610086Y-73899200D01*
X9724214Y-73965092D01*
X9851508Y-73999200D01*
X9851510Y-73999200D01*
X9941567Y-73999200D01*
X10008606Y-74018885D01*
X10029248Y-74035519D01*
X14206140Y-78212411D01*
X14262089Y-78268360D01*
X14262091Y-78268361D01*
X14262095Y-78268364D01*
X14330604Y-78307917D01*
X14330611Y-78307921D01*
X14407038Y-78328400D01*
X46189924Y-78328400D01*
X46256963Y-78348085D01*
X46277605Y-78364719D01*
X46341286Y-78428400D01*
X46455414Y-78494292D01*
X46582708Y-78528400D01*
X46582710Y-78528400D01*
X46714490Y-78528400D01*
X46714492Y-78528400D01*
X46841786Y-78494292D01*
X46955914Y-78428400D01*
X47049100Y-78335214D01*
X47114992Y-78221086D01*
X47149100Y-78093792D01*
X47149100Y-77962008D01*
X47114992Y-77834714D01*
X47049100Y-77720586D01*
X46955914Y-77627400D01*
X46898850Y-77594454D01*
X46841787Y-77561508D01*
X46778139Y-77544454D01*
X46714492Y-77527400D01*
X46582708Y-77527400D01*
X46455412Y-77561508D01*
X46341286Y-77627400D01*
X46341283Y-77627402D01*
X46277605Y-77691081D01*
X46216282Y-77724566D01*
X46189924Y-77727400D01*
X14622433Y-77727400D01*
X14555394Y-77707715D01*
X14534752Y-77691081D01*
X12662106Y-75818435D01*
X21959500Y-75818435D01*
X21959500Y-76021565D01*
X21961264Y-76032700D01*
X21991277Y-76222194D01*
X21991277Y-76222197D01*
X22054045Y-76415377D01*
X22146268Y-76596372D01*
X22265656Y-76760697D01*
X22265660Y-76760702D01*
X22409297Y-76904339D01*
X22409302Y-76904343D01*
X22449709Y-76933700D01*
X22573631Y-77023734D01*
X22754620Y-77115953D01*
X22754622Y-77115954D01*
X22947803Y-77178722D01*
X22947804Y-77178722D01*
X22947807Y-77178723D01*
X23148435Y-77210500D01*
X23148436Y-77210500D01*
X23351564Y-77210500D01*
X23351565Y-77210500D01*
X23552193Y-77178723D01*
X23552196Y-77178722D01*
X23552197Y-77178722D01*
X23745377Y-77115954D01*
X23745377Y-77115953D01*
X23745380Y-77115953D01*
X23926369Y-77023734D01*
X24090704Y-76904338D01*
X24234338Y-76760704D01*
X24353734Y-76596369D01*
X24445953Y-76415380D01*
X24461572Y-76367310D01*
X24508722Y-76222197D01*
X24508722Y-76222196D01*
X24508723Y-76222193D01*
X24540500Y-76021565D01*
X24540500Y-75818435D01*
X34959500Y-75818435D01*
X34959500Y-76021565D01*
X34961264Y-76032700D01*
X34991277Y-76222194D01*
X34991277Y-76222197D01*
X35054045Y-76415377D01*
X35146268Y-76596372D01*
X35265656Y-76760697D01*
X35265660Y-76760702D01*
X35409297Y-76904339D01*
X35409302Y-76904343D01*
X35449709Y-76933700D01*
X35573631Y-77023734D01*
X35754620Y-77115953D01*
X35754622Y-77115954D01*
X35947803Y-77178722D01*
X35947804Y-77178722D01*
X35947807Y-77178723D01*
X36148435Y-77210500D01*
X36148436Y-77210500D01*
X36351564Y-77210500D01*
X36351565Y-77210500D01*
X36552193Y-77178723D01*
X36552196Y-77178722D01*
X36552197Y-77178722D01*
X36745377Y-77115954D01*
X36745377Y-77115953D01*
X36745380Y-77115953D01*
X36926369Y-77023734D01*
X37090704Y-76904338D01*
X37234338Y-76760704D01*
X37353734Y-76596369D01*
X37445953Y-76415380D01*
X37461572Y-76367310D01*
X37508722Y-76222197D01*
X37508722Y-76222196D01*
X37508723Y-76222193D01*
X37540500Y-76021565D01*
X37540500Y-75818435D01*
X37508723Y-75617807D01*
X37508722Y-75617803D01*
X37508722Y-75617802D01*
X37445954Y-75424622D01*
X37417761Y-75369291D01*
X37353734Y-75243631D01*
X37329455Y-75210214D01*
X37234343Y-75079302D01*
X37234339Y-75079297D01*
X37090702Y-74935660D01*
X37090697Y-74935656D01*
X36926372Y-74816268D01*
X36926371Y-74816267D01*
X36926369Y-74816266D01*
X36833134Y-74768760D01*
X36745377Y-74724045D01*
X36552196Y-74661277D01*
X36401722Y-74637444D01*
X36351565Y-74629500D01*
X36148435Y-74629500D01*
X36081559Y-74640092D01*
X35947805Y-74661277D01*
X35947802Y-74661277D01*
X35754622Y-74724045D01*
X35573627Y-74816268D01*
X35409302Y-74935656D01*
X35409297Y-74935660D01*
X35265660Y-75079297D01*
X35265656Y-75079302D01*
X35146268Y-75243627D01*
X35054045Y-75424622D01*
X34991277Y-75617802D01*
X34991277Y-75617805D01*
X34991277Y-75617807D01*
X34959500Y-75818435D01*
X24540500Y-75818435D01*
X24508723Y-75617807D01*
X24508722Y-75617803D01*
X24508722Y-75617802D01*
X24445954Y-75424622D01*
X24417761Y-75369291D01*
X24353734Y-75243631D01*
X24329455Y-75210214D01*
X24234343Y-75079302D01*
X24234339Y-75079297D01*
X24090702Y-74935660D01*
X24090697Y-74935656D01*
X23926372Y-74816268D01*
X23926371Y-74816267D01*
X23926369Y-74816266D01*
X23833134Y-74768760D01*
X23745377Y-74724045D01*
X23552196Y-74661277D01*
X23401722Y-74637444D01*
X23351565Y-74629500D01*
X23148435Y-74629500D01*
X23081559Y-74640092D01*
X22947805Y-74661277D01*
X22947802Y-74661277D01*
X22754622Y-74724045D01*
X22573627Y-74816268D01*
X22409302Y-74935656D01*
X22409297Y-74935660D01*
X22265660Y-75079297D01*
X22265656Y-75079302D01*
X22146268Y-75243627D01*
X22054045Y-75424622D01*
X21991277Y-75617802D01*
X21991277Y-75617805D01*
X21991277Y-75617807D01*
X21959500Y-75818435D01*
X12662106Y-75818435D01*
X10454219Y-73610548D01*
X10420734Y-73549225D01*
X10417900Y-73522867D01*
X10417900Y-73432810D01*
X10417900Y-73432808D01*
X10383792Y-73305514D01*
X10317900Y-73191386D01*
X10224714Y-73098200D01*
X10167650Y-73065254D01*
X10110587Y-73032308D01*
X10015339Y-73006787D01*
X9983292Y-72998200D01*
X9851508Y-72998200D01*
X9724212Y-73032308D01*
X9610086Y-73098200D01*
X9610083Y-73098202D01*
X9516902Y-73191383D01*
X9516900Y-73191386D01*
X9451008Y-73305512D01*
X9422548Y-73411729D01*
X9416900Y-73432808D01*
X400000Y-73432808D01*
X400000Y-68778435D01*
X1959500Y-68778435D01*
X1959500Y-68981565D01*
X1963084Y-69004190D01*
X1991277Y-69182194D01*
X1991277Y-69182197D01*
X2054045Y-69375377D01*
X2068982Y-69404692D01*
X2115776Y-69496530D01*
X2146268Y-69556372D01*
X2265656Y-69720697D01*
X2265660Y-69720702D01*
X2409297Y-69864339D01*
X2409302Y-69864343D01*
X2513326Y-69939920D01*
X2573631Y-69983734D01*
X2754620Y-70075953D01*
X2754622Y-70075954D01*
X2947803Y-70138722D01*
X2947804Y-70138722D01*
X2947807Y-70138723D01*
X3148435Y-70170500D01*
X3148436Y-70170500D01*
X3351564Y-70170500D01*
X3351565Y-70170500D01*
X3552193Y-70138723D01*
X3552196Y-70138722D01*
X3552197Y-70138722D01*
X3745377Y-70075954D01*
X3745377Y-70075953D01*
X3745380Y-70075953D01*
X3926369Y-69983734D01*
X4090704Y-69864338D01*
X4234338Y-69720704D01*
X4353734Y-69556369D01*
X4445953Y-69375380D01*
X4464500Y-69318297D01*
X4508722Y-69182197D01*
X4508722Y-69182196D01*
X4508723Y-69182193D01*
X4540500Y-68981565D01*
X4540500Y-68778435D01*
X4508723Y-68577807D01*
X4508722Y-68577803D01*
X4508722Y-68577802D01*
X4445954Y-68384622D01*
X4394211Y-68283072D01*
X4353734Y-68203631D01*
X4323804Y-68162436D01*
X4234343Y-68039302D01*
X4234339Y-68039297D01*
X4090702Y-67895660D01*
X4090697Y-67895656D01*
X3926372Y-67776268D01*
X3926371Y-67776267D01*
X3926369Y-67776266D01*
X3814540Y-67719286D01*
X3745377Y-67684045D01*
X3552196Y-67621277D01*
X3401722Y-67597444D01*
X3351565Y-67589500D01*
X3148435Y-67589500D01*
X3094839Y-67597989D01*
X2947805Y-67621277D01*
X2947802Y-67621277D01*
X2754622Y-67684045D01*
X2573627Y-67776268D01*
X2409302Y-67895656D01*
X2409297Y-67895660D01*
X2265660Y-68039297D01*
X2265656Y-68039302D01*
X2146268Y-68203627D01*
X2054045Y-68384622D01*
X1991277Y-68577802D01*
X1991277Y-68577805D01*
X1964778Y-68745112D01*
X1959500Y-68778435D01*
X400000Y-68778435D01*
X400000Y-45375791D01*
X3206400Y-45375791D01*
X3206400Y-45494409D01*
X3237101Y-45608986D01*
X3296411Y-45711713D01*
X3380287Y-45795589D01*
X3483014Y-45854899D01*
X3597591Y-45885600D01*
X3597594Y-45885600D01*
X5308706Y-45885600D01*
X5308709Y-45885600D01*
X5423286Y-45854899D01*
X5526013Y-45795589D01*
X5609889Y-45711713D01*
X5669199Y-45608986D01*
X5699900Y-45494409D01*
X5699900Y-45375791D01*
X5698136Y-45369208D01*
X15468400Y-45369208D01*
X15468400Y-45500992D01*
X15479922Y-45543992D01*
X15502508Y-45628287D01*
X15529802Y-45675560D01*
X15568400Y-45742414D01*
X15661586Y-45835600D01*
X15775714Y-45901492D01*
X15903008Y-45935600D01*
X15903010Y-45935600D01*
X16034790Y-45935600D01*
X16034792Y-45935600D01*
X16162086Y-45901492D01*
X16276214Y-45835600D01*
X16339895Y-45771919D01*
X16401218Y-45738434D01*
X16427576Y-45735600D01*
X26276960Y-45735600D01*
X26276962Y-45735600D01*
X26353389Y-45715121D01*
X26421911Y-45675560D01*
X26477860Y-45619611D01*
X28328151Y-43769318D01*
X28389474Y-43735834D01*
X28415832Y-43733000D01*
X28505890Y-43733000D01*
X28505892Y-43733000D01*
X28633186Y-43698892D01*
X28747314Y-43633000D01*
X28840500Y-43539814D01*
X28906392Y-43425686D01*
X28940500Y-43298392D01*
X28940500Y-43166608D01*
X28906392Y-43039314D01*
X28840500Y-42925186D01*
X28826295Y-42910981D01*
X28792810Y-42849658D01*
X28797794Y-42779966D01*
X28839666Y-42724033D01*
X28905130Y-42699616D01*
X28913976Y-42699300D01*
X43378824Y-42699300D01*
X43445863Y-42718985D01*
X43466505Y-42735619D01*
X43530186Y-42799300D01*
X43644314Y-42865192D01*
X43771608Y-42899300D01*
X43771610Y-42899300D01*
X43903390Y-42899300D01*
X43903392Y-42899300D01*
X44030686Y-42865192D01*
X44144814Y-42799300D01*
X44238000Y-42706114D01*
X44303892Y-42591986D01*
X44338000Y-42464692D01*
X44338000Y-42332908D01*
X44303892Y-42205614D01*
X44300191Y-42199203D01*
X44283716Y-42131303D01*
X44306567Y-42065276D01*
X44361487Y-42022084D01*
X44407576Y-42013200D01*
X47079960Y-42013200D01*
X47079962Y-42013200D01*
X47156389Y-41992721D01*
X47224911Y-41953160D01*
X47280860Y-41897211D01*
X49413560Y-39764511D01*
X49419981Y-39753389D01*
X49453121Y-39695989D01*
X49473600Y-39619562D01*
X49473600Y-39518435D01*
X54959500Y-39518435D01*
X54959500Y-39721564D01*
X54991277Y-39922194D01*
X54991277Y-39922197D01*
X55054045Y-40115377D01*
X55146268Y-40296372D01*
X55265656Y-40460697D01*
X55265660Y-40460702D01*
X55409297Y-40604339D01*
X55409302Y-40604343D01*
X55552635Y-40708480D01*
X55573631Y-40723734D01*
X55754620Y-40815953D01*
X55754622Y-40815954D01*
X55947803Y-40878722D01*
X55947804Y-40878722D01*
X55947807Y-40878723D01*
X56148435Y-40910500D01*
X56148436Y-40910500D01*
X56351564Y-40910500D01*
X56351565Y-40910500D01*
X56552193Y-40878723D01*
X56552196Y-40878722D01*
X56552197Y-40878722D01*
X56745377Y-40815954D01*
X56745377Y-40815953D01*
X56745380Y-40815953D01*
X56926369Y-40723734D01*
X57090704Y-40604338D01*
X57234338Y-40460704D01*
X57353734Y-40296369D01*
X57445953Y-40115380D01*
X57508723Y-39922193D01*
X57540500Y-39721565D01*
X57540500Y-39518435D01*
X57508723Y-39317807D01*
X57508722Y-39317803D01*
X57508722Y-39317802D01*
X57445954Y-39124622D01*
X57441311Y-39115509D01*
X57353734Y-38943631D01*
X57336361Y-38919719D01*
X57234343Y-38779302D01*
X57234339Y-38779297D01*
X57090702Y-38635660D01*
X57090697Y-38635656D01*
X56926372Y-38516268D01*
X56926371Y-38516267D01*
X56926369Y-38516266D01*
X56827493Y-38465886D01*
X56745377Y-38424045D01*
X56552196Y-38361277D01*
X56401722Y-38337444D01*
X56351565Y-38329500D01*
X56148435Y-38329500D01*
X56091044Y-38338590D01*
X55947805Y-38361277D01*
X55947802Y-38361277D01*
X55754622Y-38424045D01*
X55573627Y-38516268D01*
X55409302Y-38635656D01*
X55409297Y-38635660D01*
X55265660Y-38779297D01*
X55265656Y-38779302D01*
X55146268Y-38943627D01*
X55054045Y-39124622D01*
X54991277Y-39317802D01*
X54991277Y-39317805D01*
X54959500Y-39518435D01*
X49473600Y-39518435D01*
X49473600Y-38689032D01*
X49493285Y-38621993D01*
X49509914Y-38601356D01*
X52570551Y-35540718D01*
X52631874Y-35507234D01*
X52658232Y-35504400D01*
X52748290Y-35504400D01*
X52748292Y-35504400D01*
X52875586Y-35470292D01*
X52989714Y-35404400D01*
X53082900Y-35311214D01*
X53148792Y-35197086D01*
X53182900Y-35069792D01*
X53182900Y-34938008D01*
X53148792Y-34810714D01*
X53082900Y-34696586D01*
X52989714Y-34603400D01*
X52932650Y-34570454D01*
X52875587Y-34537508D01*
X52811939Y-34520454D01*
X52748292Y-34503400D01*
X52616508Y-34503400D01*
X52489212Y-34537508D01*
X52375086Y-34603400D01*
X52375083Y-34603402D01*
X52281902Y-34696583D01*
X52281900Y-34696586D01*
X52216008Y-34810712D01*
X52181900Y-34938008D01*
X52181900Y-35028066D01*
X52162215Y-35095105D01*
X52145581Y-35115747D01*
X48988589Y-38272740D01*
X48932641Y-38328687D01*
X48932635Y-38328695D01*
X48893082Y-38397204D01*
X48893079Y-38397209D01*
X48872600Y-38473639D01*
X48872600Y-39404167D01*
X48852915Y-39471206D01*
X48836281Y-39491848D01*
X46952248Y-41375881D01*
X46890925Y-41409366D01*
X46864567Y-41412200D01*
X34686176Y-41412200D01*
X34619137Y-41392515D01*
X34598495Y-41375881D01*
X34534816Y-41312202D01*
X34534814Y-41312200D01*
X34477750Y-41279254D01*
X34420687Y-41246308D01*
X34357039Y-41229254D01*
X34293392Y-41212200D01*
X34161608Y-41212200D01*
X34034312Y-41246308D01*
X33920186Y-41312200D01*
X33920183Y-41312202D01*
X33856505Y-41375881D01*
X33795182Y-41409366D01*
X33768824Y-41412200D01*
X22455138Y-41412200D01*
X22378710Y-41432678D01*
X22310189Y-41472240D01*
X22310186Y-41472242D01*
X21822047Y-41960381D01*
X21760724Y-41993866D01*
X21734366Y-41996700D01*
X21644308Y-41996700D01*
X21517012Y-42030808D01*
X21402886Y-42096700D01*
X21402883Y-42096702D01*
X21309702Y-42189883D01*
X21309700Y-42189886D01*
X21243808Y-42304012D01*
X21209700Y-42431308D01*
X21209700Y-42563091D01*
X21211580Y-42570107D01*
X21209917Y-42639957D01*
X21170754Y-42697819D01*
X21106526Y-42725323D01*
X21091805Y-42726200D01*
X17889433Y-42726200D01*
X17859992Y-42717555D01*
X17830006Y-42711032D01*
X17824990Y-42707277D01*
X17822394Y-42706515D01*
X17801752Y-42689881D01*
X17720919Y-42609048D01*
X17687434Y-42547725D01*
X17684600Y-42521367D01*
X17684600Y-42431310D01*
X17684600Y-42431308D01*
X17650492Y-42304014D01*
X17584600Y-42189886D01*
X17491414Y-42096700D01*
X17434350Y-42063754D01*
X17377287Y-42030808D01*
X17311571Y-42013200D01*
X17249992Y-41996700D01*
X17118208Y-41996700D01*
X16990912Y-42030808D01*
X16876786Y-42096700D01*
X16876783Y-42096702D01*
X16783602Y-42189883D01*
X16783600Y-42189886D01*
X16717708Y-42304012D01*
X16709966Y-42332908D01*
X16683600Y-42431308D01*
X16683600Y-42563092D01*
X16691342Y-42591986D01*
X16717708Y-42690387D01*
X16737134Y-42724033D01*
X16783600Y-42804514D01*
X16876786Y-42897700D01*
X16990914Y-42963592D01*
X17118208Y-42997700D01*
X17118210Y-42997700D01*
X17208267Y-42997700D01*
X17275306Y-43017385D01*
X17295948Y-43034019D01*
X17473140Y-43211211D01*
X17529089Y-43267160D01*
X17529091Y-43267161D01*
X17529095Y-43267164D01*
X17596348Y-43305992D01*
X17597611Y-43306721D01*
X17674038Y-43327200D01*
X17674040Y-43327200D01*
X22387360Y-43327200D01*
X22387362Y-43327200D01*
X22463789Y-43306721D01*
X22532311Y-43267160D01*
X22588260Y-43211211D01*
X23063852Y-42735619D01*
X23125175Y-42702134D01*
X23151533Y-42699300D01*
X27966024Y-42699300D01*
X28033063Y-42718985D01*
X28078818Y-42771789D01*
X28088762Y-42840947D01*
X28059737Y-42904503D01*
X28053705Y-42910981D01*
X28039502Y-42925183D01*
X28039500Y-42925186D01*
X27973608Y-43039312D01*
X27939500Y-43166608D01*
X27939500Y-43256666D01*
X27919815Y-43323705D01*
X27903181Y-43344347D01*
X26149248Y-45098281D01*
X26087925Y-45131766D01*
X26061567Y-45134600D01*
X16427576Y-45134600D01*
X16360537Y-45114915D01*
X16339895Y-45098281D01*
X16276216Y-45034602D01*
X16276214Y-45034600D01*
X16189612Y-44984600D01*
X16162087Y-44968708D01*
X16098439Y-44951654D01*
X16034792Y-44934600D01*
X15903008Y-44934600D01*
X15775712Y-44968708D01*
X15661586Y-45034600D01*
X15661583Y-45034602D01*
X15568402Y-45127783D01*
X15568400Y-45127786D01*
X15502508Y-45241912D01*
X15487149Y-45299234D01*
X15468400Y-45369208D01*
X5698136Y-45369208D01*
X5669199Y-45261214D01*
X5609889Y-45158487D01*
X5526013Y-45074611D01*
X5423286Y-45015301D01*
X5308709Y-44984600D01*
X3597591Y-44984600D01*
X3483014Y-45015301D01*
X3483012Y-45015301D01*
X3483012Y-45015302D01*
X3380287Y-45074611D01*
X3380284Y-45074613D01*
X3296413Y-45158484D01*
X3296411Y-45158487D01*
X3237101Y-45261214D01*
X3206400Y-45375791D01*
X400000Y-45375791D01*
X400000Y-39518435D01*
X1959500Y-39518435D01*
X1959500Y-39721564D01*
X1991277Y-39922194D01*
X1991277Y-39922197D01*
X2054045Y-40115377D01*
X2146268Y-40296372D01*
X2265656Y-40460697D01*
X2265660Y-40460702D01*
X2409297Y-40604339D01*
X2409302Y-40604343D01*
X2552635Y-40708480D01*
X2573631Y-40723734D01*
X2754620Y-40815953D01*
X2754622Y-40815954D01*
X2947803Y-40878722D01*
X2947804Y-40878722D01*
X2947807Y-40878723D01*
X3148435Y-40910500D01*
X3148436Y-40910500D01*
X3351564Y-40910500D01*
X3351565Y-40910500D01*
X3552193Y-40878723D01*
X3552196Y-40878722D01*
X3552197Y-40878722D01*
X3745377Y-40815954D01*
X3745377Y-40815953D01*
X3745380Y-40815953D01*
X3926369Y-40723734D01*
X4090704Y-40604338D01*
X4234338Y-40460704D01*
X4353734Y-40296369D01*
X4445953Y-40115380D01*
X4508723Y-39922193D01*
X4540500Y-39721565D01*
X4540500Y-39518435D01*
X4536473Y-39493008D01*
X7744900Y-39493008D01*
X7744900Y-39624791D01*
X7779008Y-39752087D01*
X7789926Y-39770997D01*
X7844900Y-39866214D01*
X7938086Y-39959400D01*
X8052214Y-40025292D01*
X8179508Y-40059400D01*
X8179510Y-40059400D01*
X8311290Y-40059400D01*
X8311292Y-40059400D01*
X8438586Y-40025292D01*
X8552714Y-39959400D01*
X8645900Y-39866214D01*
X8711792Y-39752086D01*
X8745900Y-39624792D01*
X8745900Y-39534732D01*
X8765585Y-39467693D01*
X8782219Y-39447051D01*
X9088752Y-39140519D01*
X9150075Y-39107034D01*
X9176433Y-39104200D01*
X9525099Y-39104200D01*
X9592138Y-39123885D01*
X9637893Y-39176689D01*
X9647837Y-39245847D01*
X9644874Y-39260292D01*
X9633000Y-39304606D01*
X9633000Y-39304608D01*
X9633000Y-39436392D01*
X9647859Y-39491848D01*
X9667108Y-39563687D01*
X9688698Y-39601081D01*
X9733000Y-39677814D01*
X9826186Y-39771000D01*
X9940314Y-39836892D01*
X10067608Y-39871000D01*
X10067610Y-39871000D01*
X10157667Y-39871000D01*
X10224706Y-39890685D01*
X10245348Y-39907319D01*
X10516389Y-40178360D01*
X10575729Y-40212620D01*
X10584908Y-40217920D01*
X10584912Y-40217922D01*
X10661338Y-40238400D01*
X10661340Y-40238400D01*
X43431160Y-40238400D01*
X43431162Y-40238400D01*
X43507589Y-40217921D01*
X43576111Y-40178360D01*
X43585749Y-40168722D01*
X43647071Y-40135235D01*
X43673433Y-40132400D01*
X43763490Y-40132400D01*
X43763492Y-40132400D01*
X43890786Y-40098292D01*
X44004914Y-40032400D01*
X44098100Y-39939214D01*
X44163992Y-39825086D01*
X44198100Y-39697792D01*
X44198100Y-39566008D01*
X44163992Y-39438714D01*
X44162651Y-39436392D01*
X44121844Y-39365712D01*
X44098100Y-39324586D01*
X44004914Y-39231400D01*
X43911235Y-39177314D01*
X43890787Y-39165508D01*
X43827139Y-39148454D01*
X43763492Y-39131400D01*
X43703132Y-39131400D01*
X43681886Y-39125161D01*
X43659798Y-39123582D01*
X43649014Y-39115509D01*
X43636093Y-39111715D01*
X43621593Y-39094981D01*
X43603865Y-39081710D01*
X43599157Y-39069089D01*
X43590338Y-39058911D01*
X43587186Y-39036993D01*
X43579448Y-39016246D01*
X43582310Y-39003085D01*
X43580394Y-38989753D01*
X43589593Y-38969609D01*
X43594300Y-38947973D01*
X43607568Y-38930247D01*
X43609419Y-38926197D01*
X43615451Y-38919719D01*
X43725651Y-38809519D01*
X43786974Y-38776034D01*
X43813332Y-38773200D01*
X43903390Y-38773200D01*
X43903392Y-38773200D01*
X44030686Y-38739092D01*
X44144814Y-38673200D01*
X44238000Y-38580014D01*
X44303892Y-38465886D01*
X44338000Y-38338592D01*
X44338000Y-38206808D01*
X44303892Y-38079514D01*
X44238000Y-37965386D01*
X44144814Y-37872200D01*
X44087750Y-37839254D01*
X44030687Y-37806308D01*
X43967039Y-37789254D01*
X43903392Y-37772200D01*
X43771608Y-37772200D01*
X43644312Y-37806308D01*
X43530186Y-37872200D01*
X43530183Y-37872202D01*
X43437002Y-37965383D01*
X43437000Y-37965386D01*
X43371108Y-38079512D01*
X43337000Y-38206808D01*
X43337000Y-38296866D01*
X43317315Y-38363905D01*
X43300681Y-38384547D01*
X42464348Y-39220881D01*
X42403025Y-39254366D01*
X42376667Y-39257200D01*
X13508333Y-39257200D01*
X13441294Y-39237515D01*
X13420652Y-39220881D01*
X12763011Y-38563240D01*
X12744860Y-38552761D01*
X12744860Y-38552760D01*
X12744859Y-38552760D01*
X12694494Y-38523681D01*
X12694491Y-38523679D01*
X12656275Y-38513439D01*
X12618062Y-38503200D01*
X8961038Y-38503200D01*
X8930467Y-38511391D01*
X8884608Y-38523679D01*
X8884607Y-38523680D01*
X8834239Y-38552760D01*
X8834240Y-38552761D01*
X8816085Y-38563242D01*
X8816084Y-38563243D01*
X8357247Y-39022081D01*
X8295924Y-39055566D01*
X8269566Y-39058400D01*
X8179508Y-39058400D01*
X8052212Y-39092508D01*
X7938086Y-39158400D01*
X7938083Y-39158402D01*
X7844902Y-39251583D01*
X7844900Y-39251586D01*
X7779008Y-39365712D01*
X7744900Y-39493008D01*
X4536473Y-39493008D01*
X4508723Y-39317807D01*
X4508722Y-39317803D01*
X4508722Y-39317802D01*
X4445954Y-39124622D01*
X4441311Y-39115509D01*
X4353734Y-38943631D01*
X4336361Y-38919719D01*
X4234343Y-38779302D01*
X4234339Y-38779297D01*
X4090702Y-38635660D01*
X4090697Y-38635656D01*
X3926372Y-38516268D01*
X3926371Y-38516267D01*
X3926369Y-38516266D01*
X3827493Y-38465886D01*
X3745377Y-38424045D01*
X3552196Y-38361277D01*
X3401722Y-38337444D01*
X3351565Y-38329500D01*
X3148435Y-38329500D01*
X3091044Y-38338590D01*
X2947805Y-38361277D01*
X2947802Y-38361277D01*
X2754622Y-38424045D01*
X2573627Y-38516268D01*
X2409302Y-38635656D01*
X2409297Y-38635660D01*
X2265660Y-38779297D01*
X2265656Y-38779302D01*
X2146268Y-38943627D01*
X2054045Y-39124622D01*
X1991277Y-39317802D01*
X1991277Y-39317805D01*
X1959500Y-39518435D01*
X400000Y-39518435D01*
X400000Y-36555508D01*
X5997900Y-36555508D01*
X5997900Y-36687291D01*
X6032008Y-36814587D01*
X6051770Y-36848815D01*
X6097900Y-36928714D01*
X6191086Y-37021900D01*
X6305214Y-37087792D01*
X6432508Y-37121900D01*
X6432510Y-37121900D01*
X6564290Y-37121900D01*
X6564292Y-37121900D01*
X6691586Y-37087792D01*
X6805714Y-37021900D01*
X6898900Y-36928714D01*
X6964792Y-36814586D01*
X6998900Y-36687292D01*
X6998900Y-36597232D01*
X7018585Y-36530193D01*
X7035219Y-36509551D01*
X7544852Y-35999919D01*
X7606175Y-35966434D01*
X7632533Y-35963600D01*
X32955567Y-35963600D01*
X33022606Y-35983285D01*
X33043248Y-35999919D01*
X34396840Y-37353511D01*
X34452789Y-37409460D01*
X34452791Y-37409461D01*
X34452795Y-37409464D01*
X34521304Y-37449017D01*
X34521311Y-37449021D01*
X34597738Y-37469500D01*
X34597740Y-37469500D01*
X38681760Y-37469500D01*
X38681762Y-37469500D01*
X38758189Y-37449021D01*
X38826711Y-37409460D01*
X38882660Y-37353511D01*
X40698851Y-35537318D01*
X40760174Y-35503834D01*
X40786532Y-35501000D01*
X40876590Y-35501000D01*
X40876592Y-35501000D01*
X41003886Y-35466892D01*
X41118014Y-35401000D01*
X41211200Y-35307814D01*
X41277092Y-35193686D01*
X41277094Y-35193677D01*
X41280201Y-35186179D01*
X41283037Y-35187353D01*
X41311839Y-35140126D01*
X41374694Y-35109612D01*
X41395227Y-35107900D01*
X50648724Y-35107900D01*
X50715763Y-35127585D01*
X50736405Y-35144219D01*
X50800086Y-35207900D01*
X50914214Y-35273792D01*
X51041508Y-35307900D01*
X51041510Y-35307900D01*
X51173290Y-35307900D01*
X51173292Y-35307900D01*
X51300586Y-35273792D01*
X51414714Y-35207900D01*
X51507900Y-35114714D01*
X51573792Y-35000586D01*
X51607900Y-34873292D01*
X51607900Y-34741508D01*
X51573792Y-34614214D01*
X51507900Y-34500086D01*
X51414714Y-34406900D01*
X51343548Y-34365812D01*
X51300587Y-34341008D01*
X51236939Y-34323954D01*
X51173292Y-34306900D01*
X51041508Y-34306900D01*
X50914212Y-34341008D01*
X50800086Y-34406900D01*
X50800083Y-34406902D01*
X50736405Y-34470581D01*
X50675082Y-34504066D01*
X50648724Y-34506900D01*
X40964238Y-34506900D01*
X40956177Y-34507961D01*
X40955997Y-34506596D01*
X40901199Y-34506593D01*
X40887326Y-34502876D01*
X40876592Y-34500000D01*
X40744808Y-34500000D01*
X40617512Y-34534108D01*
X40503386Y-34600000D01*
X40503383Y-34600002D01*
X40410202Y-34693183D01*
X40410200Y-34693186D01*
X40344308Y-34807312D01*
X40310200Y-34934608D01*
X40310200Y-35024666D01*
X40290515Y-35091705D01*
X40273881Y-35112347D01*
X38554048Y-36832181D01*
X38492725Y-36865666D01*
X38466367Y-36868500D01*
X35553545Y-36868500D01*
X35486506Y-36848815D01*
X35440751Y-36796011D01*
X35429887Y-36735301D01*
X35430752Y-36723672D01*
X35440500Y-36687292D01*
X35440500Y-36592630D01*
X35440842Y-36588033D01*
X35451588Y-36559469D01*
X35460185Y-36530193D01*
X35464720Y-36524564D01*
X35465445Y-36522639D01*
X35467511Y-36521101D01*
X35476819Y-36509551D01*
X37966052Y-34020319D01*
X38027375Y-33986834D01*
X38053733Y-33984000D01*
X52476860Y-33984000D01*
X52476862Y-33984000D01*
X52553289Y-33963521D01*
X52621811Y-33923960D01*
X52677760Y-33868011D01*
X52717321Y-33799489D01*
X52737800Y-33723062D01*
X52737800Y-33643938D01*
X52717321Y-33567511D01*
X52709003Y-33553103D01*
X52677764Y-33498995D01*
X52677758Y-33498987D01*
X52621812Y-33443041D01*
X52621804Y-33443035D01*
X52553295Y-33403482D01*
X52553290Y-33403479D01*
X52527813Y-33396652D01*
X52476862Y-33383000D01*
X52476860Y-33383000D01*
X45300400Y-33383000D01*
X45233361Y-33363315D01*
X45187606Y-33310511D01*
X45179521Y-33286645D01*
X45176400Y-33272998D01*
X45176400Y-33214908D01*
X45142292Y-33087614D01*
X45128566Y-33063840D01*
X45124405Y-33045645D01*
X45125439Y-33028646D01*
X45121425Y-33012098D01*
X45127516Y-32994497D01*
X45128648Y-32975904D01*
X45138708Y-32962162D01*
X45144278Y-32946071D01*
X45158917Y-32934558D01*
X45169922Y-32919528D01*
X45185815Y-32913406D01*
X45199200Y-32902882D01*
X45227113Y-32897502D01*
X45235124Y-32894417D01*
X45238985Y-32895214D01*
X45245284Y-32894000D01*
X47426424Y-32894000D01*
X47493463Y-32913685D01*
X47514105Y-32930319D01*
X47577786Y-32994000D01*
X47691914Y-33059892D01*
X47819208Y-33094000D01*
X47819210Y-33094000D01*
X47950990Y-33094000D01*
X47950992Y-33094000D01*
X48078286Y-33059892D01*
X48192414Y-32994000D01*
X48285600Y-32900814D01*
X48351492Y-32786686D01*
X48385600Y-32659392D01*
X48385600Y-32527608D01*
X48372424Y-32478435D01*
X54959500Y-32478435D01*
X54959500Y-32681564D01*
X54991277Y-32882194D01*
X54991277Y-32882197D01*
X55054045Y-33075377D01*
X55073364Y-33113292D01*
X55138224Y-33240586D01*
X55146268Y-33256372D01*
X55265656Y-33420697D01*
X55265660Y-33420702D01*
X55409297Y-33564339D01*
X55409302Y-33564343D01*
X55518856Y-33643938D01*
X55573631Y-33683734D01*
X55754620Y-33775953D01*
X55754622Y-33775954D01*
X55947803Y-33838722D01*
X55947804Y-33838722D01*
X55947807Y-33838723D01*
X56148435Y-33870500D01*
X56148436Y-33870500D01*
X56351564Y-33870500D01*
X56351565Y-33870500D01*
X56552193Y-33838723D01*
X56552196Y-33838722D01*
X56552197Y-33838722D01*
X56745377Y-33775954D01*
X56745377Y-33775953D01*
X56745380Y-33775953D01*
X56926369Y-33683734D01*
X57090704Y-33564338D01*
X57234338Y-33420704D01*
X57353734Y-33256369D01*
X57445953Y-33075380D01*
X57455099Y-33047232D01*
X57508722Y-32882197D01*
X57508722Y-32882196D01*
X57508723Y-32882193D01*
X57540500Y-32681565D01*
X57540500Y-32478435D01*
X57508723Y-32277807D01*
X57508722Y-32277803D01*
X57508722Y-32277802D01*
X57445954Y-32084622D01*
X57445953Y-32084620D01*
X57353734Y-31903631D01*
X57296890Y-31825392D01*
X57234343Y-31739302D01*
X57234339Y-31739297D01*
X57090702Y-31595660D01*
X57090697Y-31595656D01*
X56926372Y-31476268D01*
X56926371Y-31476267D01*
X56926369Y-31476266D01*
X56825542Y-31424892D01*
X56745377Y-31384045D01*
X56552196Y-31321277D01*
X56374357Y-31293110D01*
X56351565Y-31289500D01*
X56148435Y-31289500D01*
X56125643Y-31293110D01*
X55947805Y-31321277D01*
X55947802Y-31321277D01*
X55754622Y-31384045D01*
X55573627Y-31476268D01*
X55409302Y-31595656D01*
X55409297Y-31595660D01*
X55265660Y-31739297D01*
X55265656Y-31739302D01*
X55146268Y-31903627D01*
X55054045Y-32084622D01*
X54991277Y-32277802D01*
X54991277Y-32277805D01*
X54959500Y-32478435D01*
X48372424Y-32478435D01*
X48351492Y-32400314D01*
X48285600Y-32286186D01*
X48192414Y-32193000D01*
X48135350Y-32160054D01*
X48078287Y-32127108D01*
X48014639Y-32110054D01*
X47950992Y-32093000D01*
X47819208Y-32093000D01*
X47691912Y-32127108D01*
X47577786Y-32193000D01*
X47577783Y-32193002D01*
X47514105Y-32256681D01*
X47452782Y-32290166D01*
X47426424Y-32293000D01*
X41282938Y-32293000D01*
X41206510Y-32313478D01*
X41137990Y-32353039D01*
X41137989Y-32353040D01*
X40980445Y-32510582D01*
X40919124Y-32544066D01*
X40892766Y-32546900D01*
X40802708Y-32546900D01*
X40675412Y-32581008D01*
X40561286Y-32646900D01*
X40561283Y-32646902D01*
X40497605Y-32710581D01*
X40436282Y-32744066D01*
X40409924Y-32746900D01*
X17063638Y-32746900D01*
X17025424Y-32757139D01*
X16987209Y-32767379D01*
X16987204Y-32767382D01*
X16918695Y-32806935D01*
X16918687Y-32806941D01*
X15703447Y-34022181D01*
X15642124Y-34055666D01*
X15615766Y-34058500D01*
X15525708Y-34058500D01*
X15398412Y-34092608D01*
X15284286Y-34158500D01*
X15284283Y-34158502D01*
X15191102Y-34251683D01*
X15191100Y-34251686D01*
X15125208Y-34365812D01*
X15091100Y-34493108D01*
X15091100Y-34624891D01*
X15125208Y-34752187D01*
X15157035Y-34807312D01*
X15191100Y-34866314D01*
X15284286Y-34959500D01*
X15355449Y-35000586D01*
X15397156Y-35024666D01*
X15398414Y-35025392D01*
X15525708Y-35059500D01*
X15525710Y-35059500D01*
X15657490Y-35059500D01*
X15657492Y-35059500D01*
X15784786Y-35025392D01*
X15898914Y-34959500D01*
X15992100Y-34866314D01*
X16057992Y-34752186D01*
X16092100Y-34624892D01*
X16092100Y-34534832D01*
X16111785Y-34467793D01*
X16128419Y-34447151D01*
X17191352Y-33384219D01*
X17252675Y-33350734D01*
X17279033Y-33347900D01*
X37489167Y-33347900D01*
X37556206Y-33367585D01*
X37601961Y-33420389D01*
X37611905Y-33489547D01*
X37582880Y-33553103D01*
X37576848Y-33559580D01*
X36270115Y-34866313D01*
X35051847Y-36084581D01*
X34990524Y-36118066D01*
X34964166Y-36120900D01*
X34874108Y-36120900D01*
X34746812Y-36155008D01*
X34632686Y-36220900D01*
X34632683Y-36220902D01*
X34539502Y-36314083D01*
X34539498Y-36314089D01*
X34498725Y-36384708D01*
X34448157Y-36432922D01*
X34379550Y-36446144D01*
X34314686Y-36420175D01*
X34303658Y-36410387D01*
X33315912Y-35422641D01*
X33315907Y-35422637D01*
X33284316Y-35404399D01*
X33278429Y-35401000D01*
X33278428Y-35400999D01*
X33247394Y-35383081D01*
X33247391Y-35383079D01*
X33209175Y-35372839D01*
X33170962Y-35362600D01*
X7417138Y-35362600D01*
X7386567Y-35370791D01*
X7340708Y-35383079D01*
X7340705Y-35383081D01*
X7309672Y-35400999D01*
X7309671Y-35401000D01*
X7303784Y-35404399D01*
X7272189Y-35422639D01*
X6610247Y-36084581D01*
X6548924Y-36118066D01*
X6522566Y-36120900D01*
X6432508Y-36120900D01*
X6305212Y-36155008D01*
X6191086Y-36220900D01*
X6191083Y-36220902D01*
X6097902Y-36314083D01*
X6097900Y-36314086D01*
X6032008Y-36428212D01*
X5997900Y-36555508D01*
X400000Y-36555508D01*
X400000Y-32478435D01*
X1959500Y-32478435D01*
X1959500Y-32681564D01*
X1991277Y-32882194D01*
X1991277Y-32882197D01*
X2054045Y-33075377D01*
X2073364Y-33113292D01*
X2138224Y-33240586D01*
X2146268Y-33256372D01*
X2265656Y-33420697D01*
X2265660Y-33420702D01*
X2409297Y-33564339D01*
X2409302Y-33564343D01*
X2518856Y-33643938D01*
X2573631Y-33683734D01*
X2754620Y-33775953D01*
X2754622Y-33775954D01*
X2947803Y-33838722D01*
X2947804Y-33838722D01*
X2947807Y-33838723D01*
X3148435Y-33870500D01*
X3148436Y-33870500D01*
X3351564Y-33870500D01*
X3351565Y-33870500D01*
X3552193Y-33838723D01*
X3552196Y-33838722D01*
X3552197Y-33838722D01*
X3745377Y-33775954D01*
X3745377Y-33775953D01*
X3745380Y-33775953D01*
X3926369Y-33683734D01*
X4090704Y-33564338D01*
X4234338Y-33420704D01*
X4353734Y-33256369D01*
X4445953Y-33075380D01*
X4455099Y-33047232D01*
X4508722Y-32882197D01*
X4508722Y-32882196D01*
X4508723Y-32882193D01*
X4540500Y-32681565D01*
X4540500Y-32478435D01*
X4508723Y-32277807D01*
X4508722Y-32277803D01*
X4508722Y-32277802D01*
X4445954Y-32084622D01*
X4445953Y-32084620D01*
X4353734Y-31903631D01*
X4296890Y-31825392D01*
X4234343Y-31739302D01*
X4234339Y-31739297D01*
X4090702Y-31595660D01*
X4090697Y-31595656D01*
X3926372Y-31476268D01*
X3926371Y-31476267D01*
X3926369Y-31476266D01*
X3825542Y-31424892D01*
X3745377Y-31384045D01*
X3552196Y-31321277D01*
X3374357Y-31293110D01*
X3351565Y-31289500D01*
X3148435Y-31289500D01*
X3125643Y-31293110D01*
X2947805Y-31321277D01*
X2947802Y-31321277D01*
X2754622Y-31384045D01*
X2573627Y-31476268D01*
X2409302Y-31595656D01*
X2409297Y-31595660D01*
X2265660Y-31739297D01*
X2265656Y-31739302D01*
X2146268Y-31903627D01*
X2054045Y-32084622D01*
X1991277Y-32277802D01*
X1991277Y-32277805D01*
X1959500Y-32478435D01*
X400000Y-32478435D01*
X400000Y-14245091D01*
X2417600Y-14245091D01*
X2417600Y-14363709D01*
X2430912Y-14413388D01*
X2433773Y-14424068D01*
X2433774Y-14424072D01*
X2448299Y-14478285D01*
X2455402Y-14490587D01*
X2507611Y-14581014D01*
X5963986Y-18037389D01*
X6066713Y-18096699D01*
X6090921Y-18103184D01*
X6090924Y-18103186D01*
X6090925Y-18103186D01*
X6121047Y-18111257D01*
X6181291Y-18127400D01*
X6362500Y-18127400D01*
X6429539Y-18147085D01*
X6475294Y-18199889D01*
X6486500Y-18251400D01*
X6486500Y-19429009D01*
X6499815Y-19478700D01*
X6517201Y-19543587D01*
X6576511Y-19646314D01*
X6576514Y-19646317D01*
X6581458Y-19652760D01*
X6579021Y-19654629D01*
X6579106Y-19654777D01*
X6589288Y-19664031D01*
X6603183Y-19696475D01*
X6606026Y-19707083D01*
X6606028Y-19707091D01*
X6620199Y-19759985D01*
X6655440Y-19821022D01*
X6679511Y-19862714D01*
X7160986Y-20344189D01*
X7207792Y-20371212D01*
X7263714Y-20403499D01*
X7335016Y-20422604D01*
X7342469Y-20425683D01*
X7358494Y-20438572D01*
X7382805Y-20452608D01*
X8800986Y-21870789D01*
X8800987Y-21870790D01*
X8800989Y-21870791D01*
X8860293Y-21905029D01*
X8860296Y-21905032D01*
X8894537Y-21924800D01*
X8903714Y-21930099D01*
X9018291Y-21960800D01*
X9018294Y-21960800D01*
X12506966Y-21960800D01*
X12574005Y-21980485D01*
X12619760Y-22033289D01*
X12629704Y-22102447D01*
X12600679Y-22166003D01*
X12594647Y-22172481D01*
X10434147Y-24332981D01*
X10372824Y-24366466D01*
X10346466Y-24369300D01*
X10256408Y-24369300D01*
X10129112Y-24403408D01*
X10014986Y-24469300D01*
X10014983Y-24469302D01*
X9921802Y-24562483D01*
X9921800Y-24562486D01*
X9855908Y-24676612D01*
X9821800Y-24803908D01*
X9821800Y-24935691D01*
X9855908Y-25062987D01*
X9888854Y-25120050D01*
X9921800Y-25177114D01*
X10014986Y-25270300D01*
X10129114Y-25336192D01*
X10256408Y-25370300D01*
X10256410Y-25370300D01*
X10388189Y-25370300D01*
X10388192Y-25370300D01*
X10414704Y-25363196D01*
X10484550Y-25364859D01*
X10542413Y-25404021D01*
X10569918Y-25468249D01*
X10558332Y-25537151D01*
X10534478Y-25570650D01*
X10499847Y-25605281D01*
X10438527Y-25638766D01*
X10412167Y-25641600D01*
X8823276Y-25641600D01*
X8756237Y-25621915D01*
X8735595Y-25605281D01*
X8671916Y-25541602D01*
X8671914Y-25541600D01*
X8614850Y-25508654D01*
X8557787Y-25475708D01*
X8494139Y-25458654D01*
X8430492Y-25441600D01*
X8298708Y-25441600D01*
X8171412Y-25475708D01*
X8057286Y-25541600D01*
X8057283Y-25541602D01*
X7964102Y-25634783D01*
X7964100Y-25634786D01*
X7898208Y-25748912D01*
X7864100Y-25876208D01*
X7864100Y-26007991D01*
X7898208Y-26135287D01*
X7925502Y-26182560D01*
X7964100Y-26249414D01*
X8057286Y-26342600D01*
X8171414Y-26408492D01*
X8298708Y-26442600D01*
X8298710Y-26442600D01*
X8430490Y-26442600D01*
X8430492Y-26442600D01*
X8557786Y-26408492D01*
X8671914Y-26342600D01*
X8735595Y-26278919D01*
X8796918Y-26245434D01*
X8823276Y-26242600D01*
X10627560Y-26242600D01*
X10627562Y-26242600D01*
X10703989Y-26222121D01*
X10772511Y-26182560D01*
X10828460Y-26126611D01*
X12821351Y-24133718D01*
X12882674Y-24100234D01*
X12909032Y-24097400D01*
X12999090Y-24097400D01*
X12999092Y-24097400D01*
X13126386Y-24063292D01*
X13240514Y-23997400D01*
X13333700Y-23904214D01*
X13399592Y-23790086D01*
X13433700Y-23662792D01*
X13433700Y-23531008D01*
X13399592Y-23403714D01*
X13333700Y-23289586D01*
X13240514Y-23196400D01*
X13183450Y-23163454D01*
X13126387Y-23130508D01*
X13062739Y-23113454D01*
X12999092Y-23096400D01*
X12867308Y-23096400D01*
X12840795Y-23103503D01*
X12770946Y-23101841D01*
X12713084Y-23062678D01*
X12685580Y-22998449D01*
X12697167Y-22929547D01*
X12721020Y-22896049D01*
X14132852Y-21484219D01*
X14194175Y-21450734D01*
X14220533Y-21447900D01*
X32259467Y-21447900D01*
X32326506Y-21467585D01*
X32372261Y-21520389D01*
X32382205Y-21589547D01*
X32353180Y-21653103D01*
X32347148Y-21659580D01*
X29126007Y-24880721D01*
X25909747Y-28096981D01*
X25848424Y-28130466D01*
X25822066Y-28133300D01*
X25732008Y-28133300D01*
X25604712Y-28167408D01*
X25490586Y-28233300D01*
X25490583Y-28233302D01*
X25397402Y-28326483D01*
X25397400Y-28326486D01*
X25331508Y-28440612D01*
X25297400Y-28567908D01*
X25297400Y-28699691D01*
X25331508Y-28826987D01*
X25364454Y-28884050D01*
X25397400Y-28941114D01*
X25490586Y-29034300D01*
X25604714Y-29100192D01*
X25732008Y-29134300D01*
X25732010Y-29134300D01*
X25863790Y-29134300D01*
X25863792Y-29134300D01*
X25863793Y-29134299D01*
X25871848Y-29133239D01*
X25872218Y-29136055D01*
X25928299Y-29137379D01*
X25986170Y-29176530D01*
X26013687Y-29240753D01*
X26002115Y-29309657D01*
X25978248Y-29343180D01*
X24920948Y-30400481D01*
X24859625Y-30433966D01*
X24833267Y-30436800D01*
X7677176Y-30436800D01*
X7610137Y-30417115D01*
X7589495Y-30400481D01*
X7525816Y-30336802D01*
X7525814Y-30336800D01*
X7468750Y-30303854D01*
X7411687Y-30270908D01*
X7348039Y-30253854D01*
X7284392Y-30236800D01*
X7152608Y-30236800D01*
X7025312Y-30270908D01*
X6911186Y-30336800D01*
X6911183Y-30336802D01*
X6818002Y-30429983D01*
X6818000Y-30429986D01*
X6752108Y-30544112D01*
X6725025Y-30645190D01*
X6718000Y-30671408D01*
X6718000Y-30803192D01*
X6731455Y-30853407D01*
X6752108Y-30930487D01*
X6784165Y-30986011D01*
X6818000Y-31044614D01*
X6911186Y-31137800D01*
X7025314Y-31203692D01*
X7152608Y-31237800D01*
X7152610Y-31237800D01*
X7284390Y-31237800D01*
X7284392Y-31237800D01*
X7411686Y-31203692D01*
X7525814Y-31137800D01*
X7589495Y-31074119D01*
X7650818Y-31040634D01*
X7677176Y-31037800D01*
X17764610Y-31037800D01*
X17831649Y-31057485D01*
X17877404Y-31110289D01*
X17887348Y-31179447D01*
X17884388Y-31193879D01*
X17857800Y-31293108D01*
X17857800Y-31424892D01*
X17871566Y-31476268D01*
X17891908Y-31552187D01*
X17919202Y-31599460D01*
X17957800Y-31666314D01*
X18050986Y-31759500D01*
X18165114Y-31825392D01*
X18292408Y-31859500D01*
X18292410Y-31859500D01*
X18424190Y-31859500D01*
X18424192Y-31859500D01*
X18551486Y-31825392D01*
X18665614Y-31759500D01*
X18729295Y-31695819D01*
X18790618Y-31662334D01*
X18816976Y-31659500D01*
X40237460Y-31659500D01*
X40237462Y-31659500D01*
X40313889Y-31639021D01*
X40382411Y-31599460D01*
X40438360Y-31543511D01*
X40865751Y-31116118D01*
X40927074Y-31082634D01*
X40953432Y-31079800D01*
X41043490Y-31079800D01*
X41043492Y-31079800D01*
X41170786Y-31045692D01*
X41284914Y-30979800D01*
X41378100Y-30886614D01*
X41443992Y-30772486D01*
X41478100Y-30645192D01*
X41478100Y-30513408D01*
X41443992Y-30386114D01*
X41378100Y-30271986D01*
X41284914Y-30178800D01*
X41208297Y-30134565D01*
X41170787Y-30112908D01*
X41107139Y-30095854D01*
X41043492Y-30078800D01*
X40911708Y-30078800D01*
X40784412Y-30112908D01*
X40670286Y-30178800D01*
X40670283Y-30178802D01*
X40577102Y-30271983D01*
X40577100Y-30271986D01*
X40511208Y-30386112D01*
X40477100Y-30513408D01*
X40477100Y-30603466D01*
X40457415Y-30670505D01*
X40440781Y-30691147D01*
X40109748Y-31022181D01*
X40048425Y-31055666D01*
X40022067Y-31058500D01*
X33308176Y-31058500D01*
X33241137Y-31038815D01*
X33195382Y-30986011D01*
X33185438Y-30916853D01*
X33214463Y-30853297D01*
X33220495Y-30846819D01*
X33221000Y-30846314D01*
X33286892Y-30732186D01*
X33321000Y-30604892D01*
X33321000Y-30473108D01*
X33286892Y-30345814D01*
X33221000Y-30231686D01*
X33157318Y-30168004D01*
X33123834Y-30106680D01*
X33121000Y-30080323D01*
X33121000Y-27803808D01*
X41788900Y-27803808D01*
X41788900Y-27935591D01*
X41823008Y-28062887D01*
X41842693Y-28096981D01*
X41888900Y-28177014D01*
X41982086Y-28270200D01*
X42096214Y-28336092D01*
X42223508Y-28370200D01*
X42223510Y-28370200D01*
X42355290Y-28370200D01*
X42355292Y-28370200D01*
X42482586Y-28336092D01*
X42596714Y-28270200D01*
X42660395Y-28206519D01*
X42721718Y-28173034D01*
X42748076Y-28170200D01*
X45373667Y-28170200D01*
X45440706Y-28189885D01*
X45461348Y-28206519D01*
X46614381Y-29359552D01*
X46647866Y-29420875D01*
X46650700Y-29447233D01*
X46650700Y-29537291D01*
X46684808Y-29664587D01*
X46717754Y-29721650D01*
X46750700Y-29778714D01*
X46843886Y-29871900D01*
X46958014Y-29937792D01*
X47085308Y-29971900D01*
X47085310Y-29971900D01*
X47217090Y-29971900D01*
X47217092Y-29971900D01*
X47344386Y-29937792D01*
X47458514Y-29871900D01*
X47551700Y-29778714D01*
X47617592Y-29664586D01*
X47651700Y-29537292D01*
X47651700Y-29405508D01*
X47617592Y-29278214D01*
X47551700Y-29164086D01*
X47458514Y-29070900D01*
X47395116Y-29034297D01*
X47344387Y-29005008D01*
X47280739Y-28987954D01*
X47217092Y-28970900D01*
X47127033Y-28970900D01*
X47059994Y-28951215D01*
X47039352Y-28934581D01*
X45734012Y-27629241D01*
X45734004Y-27629235D01*
X45665495Y-27589682D01*
X45665490Y-27589679D01*
X45640013Y-27582852D01*
X45589062Y-27569200D01*
X45589060Y-27569200D01*
X42748076Y-27569200D01*
X42681037Y-27549515D01*
X42660395Y-27532881D01*
X42596716Y-27469202D01*
X42596714Y-27469200D01*
X42539650Y-27436254D01*
X42482587Y-27403308D01*
X42418939Y-27386254D01*
X42355292Y-27369200D01*
X42223508Y-27369200D01*
X42096212Y-27403308D01*
X41982086Y-27469200D01*
X41982083Y-27469202D01*
X41888902Y-27562383D01*
X41888900Y-27562386D01*
X41823008Y-27676512D01*
X41788900Y-27803808D01*
X33121000Y-27803808D01*
X33121000Y-25962776D01*
X33129284Y-25934561D01*
X33134916Y-25905702D01*
X33139663Y-25899216D01*
X33140685Y-25895737D01*
X33155454Y-25877000D01*
X33156364Y-25876049D01*
X33186700Y-25845714D01*
X33188637Y-25842358D01*
X33196531Y-25834118D01*
X33221173Y-25819966D01*
X33244121Y-25803208D01*
X33251076Y-25802793D01*
X33257121Y-25799322D01*
X33285502Y-25800739D01*
X33313867Y-25799048D01*
X33319944Y-25802460D01*
X33326903Y-25802808D01*
X33350009Y-25819342D01*
X33374789Y-25833256D01*
X33381112Y-25841598D01*
X33383724Y-25843467D01*
X33385042Y-25846783D01*
X33393462Y-25857891D01*
X33420900Y-25905414D01*
X33514086Y-25998600D01*
X33628214Y-26064492D01*
X33755508Y-26098600D01*
X33755510Y-26098600D01*
X33887290Y-26098600D01*
X33887292Y-26098600D01*
X34014586Y-26064492D01*
X34128714Y-25998600D01*
X34192395Y-25934919D01*
X34253718Y-25901434D01*
X34280076Y-25898600D01*
X46597438Y-25898600D01*
X46676562Y-25898600D01*
X48644653Y-25898600D01*
X48711692Y-25918285D01*
X48757447Y-25971089D01*
X48767591Y-26006408D01*
X48767798Y-26007986D01*
X48801908Y-26135287D01*
X48829202Y-26182560D01*
X48867800Y-26249414D01*
X48960986Y-26342600D01*
X49075114Y-26408492D01*
X49202408Y-26442600D01*
X49202410Y-26442600D01*
X49334190Y-26442600D01*
X49334192Y-26442600D01*
X49461486Y-26408492D01*
X49575614Y-26342600D01*
X49668800Y-26249414D01*
X49734692Y-26135286D01*
X49768800Y-26007992D01*
X49768800Y-25876208D01*
X49734692Y-25748914D01*
X49668800Y-25634786D01*
X49575614Y-25541600D01*
X49518550Y-25508654D01*
X49461487Y-25475708D01*
X49397839Y-25458654D01*
X49334192Y-25441600D01*
X49244133Y-25441600D01*
X49219624Y-25434403D01*
X49194286Y-25431140D01*
X49183572Y-25423817D01*
X49177094Y-25421915D01*
X49164317Y-25412497D01*
X49160233Y-25409062D01*
X49108811Y-25357640D01*
X49087288Y-25345214D01*
X49077827Y-25339751D01*
X49077824Y-25339749D01*
X49040294Y-25318081D01*
X49040291Y-25318079D01*
X49002075Y-25307839D01*
X48963862Y-25297600D01*
X48963860Y-25297600D01*
X47061500Y-25297600D01*
X46994461Y-25277915D01*
X46948706Y-25225111D01*
X46937500Y-25173600D01*
X46937500Y-23966676D01*
X46957185Y-23899637D01*
X46973819Y-23878995D01*
X47037500Y-23815314D01*
X47103392Y-23701186D01*
X47137500Y-23573892D01*
X47137500Y-23442108D01*
X47103392Y-23314814D01*
X47037500Y-23200686D01*
X46944314Y-23107500D01*
X46887250Y-23074554D01*
X46830187Y-23041608D01*
X46766539Y-23024554D01*
X46702892Y-23007500D01*
X46571108Y-23007500D01*
X46443812Y-23041608D01*
X46329686Y-23107500D01*
X46329683Y-23107502D01*
X46236502Y-23200683D01*
X46236500Y-23200686D01*
X46170608Y-23314812D01*
X46136500Y-23442108D01*
X46136500Y-23573891D01*
X46170608Y-23701187D01*
X46174973Y-23708747D01*
X46236500Y-23815314D01*
X46236502Y-23815316D01*
X46300181Y-23878995D01*
X46333666Y-23940318D01*
X46336500Y-23966676D01*
X46336500Y-25173600D01*
X46316815Y-25240639D01*
X46264011Y-25286394D01*
X46212500Y-25297600D01*
X34280076Y-25297600D01*
X34213037Y-25277915D01*
X34192395Y-25261281D01*
X34128716Y-25197602D01*
X34128714Y-25197600D01*
X34071650Y-25164654D01*
X34014587Y-25131708D01*
X33950939Y-25114654D01*
X33887292Y-25097600D01*
X33755508Y-25097600D01*
X33628212Y-25131708D01*
X33514086Y-25197600D01*
X33514083Y-25197602D01*
X33420898Y-25290787D01*
X33419892Y-25292099D01*
X33418762Y-25292923D01*
X33415153Y-25296533D01*
X33414589Y-25295969D01*
X33363461Y-25333297D01*
X33293715Y-25337447D01*
X33232797Y-25303230D01*
X33214135Y-25278605D01*
X33209340Y-25270300D01*
X33186700Y-25231086D01*
X33093514Y-25137900D01*
X33023713Y-25097600D01*
X32979387Y-25072008D01*
X32915739Y-25054954D01*
X32852092Y-25037900D01*
X32720308Y-25037900D01*
X32593012Y-25072008D01*
X32478886Y-25137900D01*
X32478883Y-25137902D01*
X32385702Y-25231083D01*
X32385700Y-25231086D01*
X32319808Y-25345212D01*
X32285700Y-25472508D01*
X32285700Y-25604291D01*
X32319808Y-25731587D01*
X32329811Y-25748912D01*
X32385700Y-25845714D01*
X32385702Y-25845716D01*
X32483681Y-25943695D01*
X32517166Y-26005018D01*
X32520000Y-26031376D01*
X32520000Y-30080323D01*
X32500315Y-30147362D01*
X32483682Y-30168004D01*
X32420000Y-30231686D01*
X32354108Y-30345812D01*
X32320000Y-30473108D01*
X32320000Y-30604891D01*
X32354108Y-30732187D01*
X32377375Y-30772486D01*
X32420000Y-30846314D01*
X32420002Y-30846316D01*
X32420505Y-30846819D01*
X32420793Y-30847346D01*
X32424947Y-30852760D01*
X32424102Y-30853407D01*
X32453990Y-30908142D01*
X32449006Y-30977834D01*
X32407134Y-31033767D01*
X32341670Y-31058184D01*
X32332824Y-31058500D01*
X25412233Y-31058500D01*
X25345194Y-31038815D01*
X25299439Y-30986011D01*
X25289495Y-30916853D01*
X25318520Y-30853297D01*
X25324552Y-30846819D01*
X30586851Y-25584519D01*
X30648174Y-25551034D01*
X30674532Y-25548200D01*
X30764590Y-25548200D01*
X30764592Y-25548200D01*
X30891886Y-25514092D01*
X31006014Y-25448200D01*
X31099200Y-25355014D01*
X31165092Y-25240886D01*
X31199200Y-25113592D01*
X31199200Y-24981808D01*
X31165092Y-24854514D01*
X31099200Y-24740386D01*
X31006014Y-24647200D01*
X30948950Y-24614254D01*
X30891887Y-24581308D01*
X30821629Y-24562483D01*
X30764592Y-24547200D01*
X30632808Y-24547200D01*
X30632806Y-24547200D01*
X30624752Y-24548261D01*
X30624382Y-24545454D01*
X30568232Y-24544098D01*
X30510384Y-24504915D01*
X30482903Y-24440677D01*
X30494514Y-24371779D01*
X30518345Y-24338324D01*
X32689652Y-22167019D01*
X32750975Y-22133534D01*
X32777333Y-22130700D01*
X34359260Y-22130700D01*
X34359262Y-22130700D01*
X34435689Y-22110221D01*
X34504211Y-22070660D01*
X34560160Y-22014711D01*
X37159160Y-19415711D01*
X37185036Y-19370892D01*
X37198721Y-19347189D01*
X37219200Y-19270762D01*
X37219200Y-16407349D01*
X37238885Y-16340310D01*
X37291689Y-16294555D01*
X37353434Y-16283772D01*
X37364527Y-16284690D01*
X37407108Y-16296100D01*
X37502293Y-16296100D01*
X37507401Y-16296523D01*
X37535410Y-16307329D01*
X37564206Y-16315785D01*
X37570525Y-16320877D01*
X37572587Y-16321673D01*
X37574128Y-16323780D01*
X37584848Y-16332419D01*
X39705389Y-18452960D01*
X39773912Y-18492522D01*
X39850338Y-18513000D01*
X55448824Y-18513000D01*
X55515863Y-18532685D01*
X55536505Y-18549319D01*
X55600186Y-18613000D01*
X55714314Y-18678892D01*
X55841608Y-18713000D01*
X55841610Y-18713000D01*
X55973390Y-18713000D01*
X55973392Y-18713000D01*
X56100686Y-18678892D01*
X56214814Y-18613000D01*
X56308000Y-18519814D01*
X56373892Y-18405686D01*
X56408000Y-18278392D01*
X56408000Y-18146608D01*
X56373892Y-18019314D01*
X56308000Y-17905186D01*
X56214814Y-17812000D01*
X56155597Y-17777811D01*
X56100687Y-17746108D01*
X56037039Y-17729054D01*
X55973392Y-17712000D01*
X55841608Y-17712000D01*
X55714312Y-17746108D01*
X55600186Y-17812000D01*
X55600183Y-17812002D01*
X55536505Y-17875681D01*
X55475182Y-17909166D01*
X55448824Y-17912000D01*
X49945533Y-17912000D01*
X49878494Y-17892315D01*
X49832739Y-17839511D01*
X49822795Y-17770353D01*
X49851820Y-17706797D01*
X49857852Y-17700319D01*
X50368090Y-17190081D01*
X52010585Y-15547584D01*
X52071906Y-15514101D01*
X52141598Y-15519085D01*
X52197531Y-15560957D01*
X52205647Y-15573261D01*
X52224500Y-15605914D01*
X52317686Y-15699100D01*
X52431814Y-15764992D01*
X52559108Y-15799100D01*
X52559110Y-15799100D01*
X52690890Y-15799100D01*
X52690892Y-15799100D01*
X52818186Y-15764992D01*
X52932314Y-15699100D01*
X53025500Y-15605914D01*
X53091392Y-15491786D01*
X53125500Y-15364492D01*
X53125500Y-15232708D01*
X53121261Y-15216888D01*
X53121546Y-15204890D01*
X53117351Y-15193642D01*
X53122361Y-15170608D01*
X53122922Y-15147044D01*
X53130021Y-15135395D01*
X53132203Y-15125369D01*
X53153351Y-15097118D01*
X53288034Y-14962435D01*
X53349355Y-14928952D01*
X53419047Y-14933936D01*
X53474980Y-14975808D01*
X53483099Y-14988117D01*
X53507000Y-15029514D01*
X53600186Y-15122700D01*
X53714314Y-15188592D01*
X53841608Y-15222700D01*
X53841610Y-15222700D01*
X53973390Y-15222700D01*
X53973392Y-15222700D01*
X54100686Y-15188592D01*
X54214814Y-15122700D01*
X54308000Y-15029514D01*
X54373892Y-14915386D01*
X54408000Y-14788092D01*
X54408000Y-14698032D01*
X54427685Y-14630993D01*
X54444319Y-14610351D01*
X54924158Y-14130512D01*
X55463160Y-13591511D01*
X55502722Y-13522988D01*
X55523200Y-13446562D01*
X55523200Y-13367438D01*
X55523200Y-11498838D01*
X55502721Y-11422411D01*
X55485048Y-11391800D01*
X55463164Y-11353895D01*
X55463158Y-11353887D01*
X49365510Y-5256239D01*
X49310765Y-5224633D01*
X49310762Y-5224631D01*
X49310761Y-5224630D01*
X49304940Y-5221269D01*
X49296989Y-5216679D01*
X49220562Y-5196200D01*
X45061438Y-5196200D01*
X44985011Y-5216679D01*
X44971234Y-5224633D01*
X44916492Y-5256237D01*
X44916487Y-5256241D01*
X42719548Y-7453181D01*
X42658225Y-7486666D01*
X42631867Y-7489500D01*
X34766234Y-7489500D01*
X34699195Y-7469815D01*
X34653440Y-7417011D01*
X34643496Y-7347853D01*
X34672521Y-7284297D01*
X34678553Y-7277819D01*
X34691398Y-7264973D01*
X34691401Y-7264969D01*
X34778947Y-7133948D01*
X34778952Y-7133939D01*
X34839256Y-6988351D01*
X34839258Y-6988343D01*
X34869999Y-6833797D01*
X34870000Y-6833794D01*
X34870000Y-6405000D01*
X34370000Y-6405000D01*
X34370000Y-6005000D01*
X34870000Y-6005000D01*
X34870000Y-5576206D01*
X34869999Y-5576202D01*
X34839258Y-5421656D01*
X34839256Y-5421648D01*
X34778952Y-5276060D01*
X34778947Y-5276051D01*
X34691401Y-5145030D01*
X34691398Y-5145026D01*
X34579973Y-5033601D01*
X34579969Y-5033598D01*
X34448948Y-4946052D01*
X34448939Y-4946047D01*
X34303351Y-4885743D01*
X34303343Y-4885741D01*
X34270000Y-4879108D01*
X34270000Y-5430735D01*
X34254205Y-5414940D01*
X34185796Y-5375444D01*
X34109496Y-5355000D01*
X34030504Y-5355000D01*
X33954204Y-5375444D01*
X33885795Y-5414940D01*
X33870000Y-5430735D01*
X33870000Y-4879109D01*
X33869999Y-4879108D01*
X33836656Y-4885741D01*
X33836648Y-4885743D01*
X33691060Y-4946047D01*
X33691051Y-4946052D01*
X33560030Y-5033598D01*
X33560026Y-5033601D01*
X33448601Y-5145026D01*
X33448598Y-5145030D01*
X33361052Y-5276051D01*
X33361047Y-5276061D01*
X33301268Y-5420380D01*
X33257427Y-5474783D01*
X33191132Y-5496848D01*
X33123433Y-5479569D01*
X33079321Y-5434928D01*
X33052502Y-5388476D01*
X32956524Y-5292498D01*
X32956522Y-5292497D01*
X32956520Y-5292495D01*
X32838978Y-5224632D01*
X32838975Y-5224631D01*
X32707867Y-5189500D01*
X32572133Y-5189500D01*
X32470702Y-5216679D01*
X32441021Y-5224632D01*
X32323479Y-5292495D01*
X32323473Y-5292500D01*
X32227500Y-5388473D01*
X32227495Y-5388479D01*
X32159632Y-5506021D01*
X32159631Y-5506025D01*
X32124500Y-5637133D01*
X32124500Y-5772867D01*
X32136295Y-5816885D01*
X32159632Y-5903978D01*
X32227495Y-6021520D01*
X32227497Y-6021522D01*
X32227498Y-6021524D01*
X32323476Y-6117502D01*
X32323477Y-6117503D01*
X32323479Y-6117504D01*
X32441021Y-6185367D01*
X32441022Y-6185367D01*
X32441025Y-6185369D01*
X32572133Y-6220500D01*
X32572135Y-6220500D01*
X32707865Y-6220500D01*
X32707867Y-6220500D01*
X32838975Y-6185369D01*
X32956524Y-6117502D01*
X33052502Y-6021524D01*
X33057359Y-6013110D01*
X33107925Y-5964894D01*
X33176532Y-5951670D01*
X33241397Y-5977637D01*
X33252428Y-5987428D01*
X33270000Y-6005000D01*
X33770000Y-6005000D01*
X33770000Y-6405000D01*
X33270000Y-6405000D01*
X33270000Y-6833797D01*
X33300741Y-6988343D01*
X33300743Y-6988351D01*
X33361047Y-7133939D01*
X33361052Y-7133948D01*
X33448598Y-7264969D01*
X33448601Y-7264973D01*
X33461447Y-7277819D01*
X33494932Y-7339142D01*
X33489948Y-7408834D01*
X33448076Y-7464767D01*
X33382612Y-7489184D01*
X33373766Y-7489500D01*
X30478779Y-7489500D01*
X30468190Y-7487453D01*
X30439346Y-7489500D01*
X30410437Y-7489500D01*
X30407544Y-7489880D01*
X30388183Y-7493130D01*
X29336062Y-7567797D01*
X29267797Y-7552907D01*
X29239603Y-7531789D01*
X29207316Y-7499502D01*
X29207314Y-7499500D01*
X29145735Y-7463947D01*
X29093187Y-7433608D01*
X29000727Y-7408834D01*
X28965892Y-7399500D01*
X28834108Y-7399500D01*
X28706812Y-7433608D01*
X28592686Y-7499500D01*
X28592683Y-7499502D01*
X28499502Y-7592683D01*
X28499500Y-7592686D01*
X28433608Y-7706812D01*
X28399500Y-7834108D01*
X28399500Y-7967995D01*
X28379815Y-8035034D01*
X28327011Y-8080789D01*
X28257853Y-8090733D01*
X28223779Y-8080693D01*
X27090536Y-7560607D01*
X26957025Y-7499334D01*
X26923886Y-7480201D01*
X26903338Y-7474695D01*
X26884004Y-7465822D01*
X26883999Y-7465821D01*
X26883993Y-7465819D01*
X26851987Y-7460376D01*
X26840685Y-7457907D01*
X26809309Y-7449500D01*
X26788032Y-7449500D01*
X26767064Y-7445934D01*
X26728971Y-7449500D01*
X26690691Y-7449500D01*
X26690690Y-7449500D01*
X26680241Y-7452299D01*
X26680240Y-7452298D01*
X26670128Y-7455007D01*
X26648961Y-7456990D01*
X26613095Y-7470290D01*
X26607496Y-7471791D01*
X26607491Y-7471793D01*
X26576113Y-7480201D01*
X26576109Y-7480202D01*
X26566752Y-7485604D01*
X26566753Y-7485605D01*
X26559348Y-7489880D01*
X26557689Y-7490838D01*
X26537745Y-7498235D01*
X26506545Y-7520363D01*
X26501524Y-7523263D01*
X26501520Y-7523267D01*
X26473387Y-7539510D01*
X26473386Y-7539511D01*
X26465739Y-7547156D01*
X26449809Y-7560607D01*
X26440992Y-7566861D01*
X26440989Y-7566863D01*
X26420257Y-7591876D01*
X26412471Y-7600424D01*
X25376916Y-8635981D01*
X25315593Y-8669466D01*
X25289235Y-8672300D01*
X17183091Y-8672300D01*
X17097158Y-8695325D01*
X17068513Y-8703001D01*
X16965786Y-8762309D01*
X16965784Y-8762311D01*
X16123513Y-9604583D01*
X16123511Y-9604586D01*
X16064200Y-9707313D01*
X16064199Y-9707316D01*
X16057712Y-9731524D01*
X16057713Y-9731525D01*
X16057713Y-9731526D01*
X16033500Y-9821891D01*
X16033500Y-9940509D01*
X16048312Y-9995787D01*
X16053517Y-10015212D01*
X16053517Y-10015213D01*
X16064199Y-10055085D01*
X16076629Y-10076613D01*
X16123511Y-10157814D01*
X16207386Y-10241689D01*
X16310113Y-10300999D01*
X16334321Y-10307484D01*
X16334324Y-10307486D01*
X16334325Y-10307486D01*
X16364447Y-10315557D01*
X16424691Y-10331700D01*
X16424693Y-10331700D01*
X16543308Y-10331700D01*
X16543309Y-10331700D01*
X16633673Y-10307486D01*
X16657887Y-10300999D01*
X16760614Y-10241689D01*
X17392685Y-9609619D01*
X17454008Y-9576134D01*
X17480366Y-9573300D01*
X25586507Y-9573300D01*
X25586509Y-9573300D01*
X25679045Y-9548505D01*
X25701087Y-9542599D01*
X25803814Y-9483289D01*
X26785937Y-8501164D01*
X26847260Y-8467680D01*
X26916951Y-8472664D01*
X26925338Y-8476147D01*
X30630814Y-10176727D01*
X30677710Y-10198249D01*
X30678779Y-10198745D01*
X30683476Y-10200955D01*
X30716114Y-10219799D01*
X30733335Y-10224413D01*
X30743345Y-10229123D01*
X30743445Y-10229212D01*
X30743840Y-10229357D01*
X30749949Y-10232265D01*
X30750229Y-10232398D01*
X30752225Y-10233014D01*
X30752233Y-10233016D01*
X30755988Y-10234174D01*
X30755996Y-10234178D01*
X30782570Y-10238697D01*
X30788014Y-10239623D01*
X30799315Y-10242092D01*
X30830691Y-10250500D01*
X30837459Y-10250500D01*
X30854561Y-10251685D01*
X30857256Y-10252060D01*
X30866600Y-10253784D01*
X30868528Y-10253630D01*
X30871408Y-10254031D01*
X30872639Y-10254094D01*
X30872932Y-10254066D01*
X30872936Y-10254067D01*
X30902266Y-10251321D01*
X30905269Y-10251040D01*
X30916827Y-10250500D01*
X30949308Y-10250500D01*
X30949309Y-10250500D01*
X30955842Y-10248749D01*
X30972658Y-10245468D01*
X30975365Y-10245131D01*
X30984845Y-10244378D01*
X30986676Y-10243727D01*
X30989577Y-10243367D01*
X30990747Y-10243117D01*
X30991034Y-10243010D01*
X30991039Y-10243010D01*
X31021489Y-10231716D01*
X31032491Y-10228210D01*
X31063886Y-10219799D01*
X31069750Y-10216413D01*
X31085140Y-10208894D01*
X31087664Y-10207870D01*
X31096627Y-10204688D01*
X31098228Y-10203585D01*
X31100931Y-10202489D01*
X31102006Y-10201940D01*
X31102250Y-10201766D01*
X31102255Y-10201765D01*
X31128755Y-10182967D01*
X31138475Y-10176733D01*
X31166613Y-10160489D01*
X31171389Y-10155713D01*
X31184317Y-10144459D01*
X31186501Y-10142808D01*
X31194328Y-10137420D01*
X31195589Y-10135940D01*
X31197907Y-10134189D01*
X31198815Y-10133371D01*
X31199006Y-10133140D01*
X31199008Y-10133139D01*
X31219746Y-10108116D01*
X31227530Y-10099571D01*
X31250487Y-10076615D01*
X31250487Y-10076614D01*
X31250489Y-10076613D01*
X31253866Y-10070762D01*
X31266891Y-10052313D01*
X31441329Y-9847726D01*
X31499802Y-9809486D01*
X31569670Y-9808929D01*
X31628747Y-9846233D01*
X31643071Y-9866179D01*
X31649500Y-9877314D01*
X31742686Y-9970500D01*
X31856814Y-10036392D01*
X31984108Y-10070500D01*
X31984110Y-10070500D01*
X32074167Y-10070500D01*
X32141206Y-10090185D01*
X32161848Y-10106819D01*
X32475789Y-10420760D01*
X32535129Y-10455020D01*
X32544308Y-10460320D01*
X32544312Y-10460322D01*
X32620738Y-10480800D01*
X32620740Y-10480800D01*
X32739860Y-10480800D01*
X32739862Y-10480800D01*
X32816289Y-10460321D01*
X32884811Y-10420760D01*
X32940760Y-10364811D01*
X32980321Y-10296289D01*
X33000800Y-10219862D01*
X33000800Y-10140738D01*
X32980321Y-10064311D01*
X32974996Y-10055087D01*
X32940764Y-9995795D01*
X32940758Y-9995787D01*
X32884512Y-9939541D01*
X32884504Y-9939535D01*
X32808951Y-9895915D01*
X32809634Y-9894731D01*
X32779703Y-9874732D01*
X32586819Y-9681848D01*
X32574965Y-9660139D01*
X32559587Y-9640761D01*
X32556921Y-9627095D01*
X32553334Y-9620525D01*
X32551115Y-9606498D01*
X32550500Y-9600344D01*
X32550500Y-9504108D01*
X32535160Y-9446858D01*
X32534158Y-9436831D01*
X32538829Y-9412003D01*
X32539431Y-9386744D01*
X32545181Y-9378248D01*
X32547078Y-9368167D01*
X32564430Y-9349806D01*
X32578593Y-9328881D01*
X32588023Y-9324842D01*
X32595070Y-9317387D01*
X32619596Y-9311322D01*
X32642822Y-9301377D01*
X32657543Y-9300500D01*
X34181906Y-9300500D01*
X34248945Y-9320185D01*
X34264192Y-9331738D01*
X34615624Y-9643492D01*
X34708208Y-9725623D01*
X34713601Y-9730703D01*
X34743385Y-9760487D01*
X34743384Y-9760487D01*
X34743386Y-9760488D01*
X34743387Y-9760489D01*
X34744313Y-9761023D01*
X34764596Y-9775644D01*
X34765251Y-9776225D01*
X34765410Y-9776367D01*
X34803099Y-9795220D01*
X34803098Y-9795220D01*
X34806425Y-9796884D01*
X34846114Y-9819799D01*
X34859293Y-9823330D01*
X34871495Y-9829434D01*
X34871498Y-9829434D01*
X34871499Y-9829435D01*
X34886974Y-9832604D01*
X34912776Y-9837889D01*
X34919940Y-9839580D01*
X34960691Y-9850500D01*
X34960693Y-9850500D01*
X34974339Y-9850500D01*
X34987701Y-9853237D01*
X35033449Y-9850500D01*
X51463835Y-9850500D01*
X51530874Y-9870185D01*
X51551515Y-9886818D01*
X53967386Y-12302690D01*
X54070113Y-12361999D01*
X54094321Y-12368484D01*
X54094324Y-12368486D01*
X54094325Y-12368486D01*
X54124447Y-12376557D01*
X54184691Y-12392700D01*
X54184693Y-12392700D01*
X54303308Y-12392700D01*
X54303309Y-12392700D01*
X54393673Y-12368486D01*
X54417887Y-12361999D01*
X54421696Y-12359799D01*
X54433115Y-12356295D01*
X54462401Y-12355937D01*
X54491518Y-12352807D01*
X54496929Y-12355515D01*
X54502980Y-12355442D01*
X54527809Y-12370974D01*
X54553997Y-12384083D01*
X54557084Y-12389286D01*
X54562215Y-12392496D01*
X54574706Y-12418987D01*
X54589648Y-12444172D01*
X54590761Y-12453039D01*
X54592013Y-12455693D01*
X54591543Y-12459264D01*
X54593500Y-12474837D01*
X54593500Y-12755667D01*
X54573815Y-12822706D01*
X54557181Y-12843348D01*
X54236481Y-13164048D01*
X54175158Y-13197533D01*
X54105466Y-13192549D01*
X54049533Y-13150677D01*
X54025116Y-13085213D01*
X54024800Y-13076367D01*
X54024800Y-12808539D01*
X54024800Y-12808538D01*
X54004321Y-12732111D01*
X54004317Y-12732104D01*
X53964764Y-12663595D01*
X53964758Y-12663587D01*
X53908811Y-12607640D01*
X53524715Y-12223543D01*
X53524714Y-12223542D01*
X53524711Y-12223540D01*
X53516525Y-12218814D01*
X53482792Y-12199338D01*
X53456190Y-12183979D01*
X53430713Y-12177152D01*
X53379762Y-12163500D01*
X53379760Y-12163500D01*
X41194036Y-12163500D01*
X41126997Y-12143815D01*
X41081242Y-12091011D01*
X41071298Y-12021853D01*
X41079472Y-11992054D01*
X41082190Y-11985489D01*
X41082189Y-11985489D01*
X41082192Y-11985486D01*
X41116300Y-11858192D01*
X41116300Y-11726408D01*
X41082192Y-11599114D01*
X41016300Y-11484986D01*
X40923114Y-11391800D01*
X40857461Y-11353895D01*
X40808987Y-11325908D01*
X40745339Y-11308854D01*
X40681692Y-11291800D01*
X40549908Y-11291800D01*
X40422612Y-11325908D01*
X40308486Y-11391800D01*
X40308483Y-11391802D01*
X40215302Y-11484983D01*
X40215300Y-11484986D01*
X40149408Y-11599112D01*
X40113197Y-11734258D01*
X40110967Y-11733660D01*
X40087508Y-11786684D01*
X40029183Y-11825154D01*
X39992838Y-11830600D01*
X14567538Y-11830600D01*
X14491110Y-11851078D01*
X14422589Y-11890640D01*
X14422586Y-11890642D01*
X7599181Y-18714048D01*
X7537858Y-18747533D01*
X7468166Y-18742549D01*
X7412233Y-18700677D01*
X7387816Y-18635213D01*
X7387500Y-18626367D01*
X7387500Y-17617593D01*
X7387500Y-17617591D01*
X7356799Y-17503014D01*
X7297489Y-17400287D01*
X7213613Y-17316411D01*
X7110886Y-17257101D01*
X6996309Y-17226400D01*
X6996306Y-17226400D01*
X6478565Y-17226400D01*
X6411526Y-17206715D01*
X6390884Y-17190081D01*
X3144716Y-13943913D01*
X3144714Y-13943911D01*
X3063293Y-13896902D01*
X3041988Y-13884601D01*
X3029880Y-13881357D01*
X3017773Y-13878113D01*
X3017770Y-13878112D01*
X2979578Y-13867878D01*
X2927409Y-13853900D01*
X2808791Y-13853900D01*
X2718425Y-13878113D01*
X2718424Y-13878112D01*
X2694216Y-13884599D01*
X2694213Y-13884600D01*
X2591486Y-13943911D01*
X2591483Y-13943913D01*
X2507613Y-14027783D01*
X2507611Y-14027785D01*
X2507611Y-14027786D01*
X2507610Y-14027788D01*
X2448301Y-14130512D01*
X2448300Y-14130517D01*
X2421240Y-14231508D01*
X2417600Y-14245091D01*
X400000Y-14245091D01*
X400000Y-5576202D01*
X24630000Y-5576202D01*
X24630000Y-6005000D01*
X25130000Y-6005000D01*
X25130000Y-6405000D01*
X24630000Y-6405000D01*
X24630000Y-6833797D01*
X24660741Y-6988343D01*
X24660743Y-6988351D01*
X24721047Y-7133939D01*
X24721052Y-7133948D01*
X24808598Y-7264969D01*
X24808601Y-7264973D01*
X24920026Y-7376398D01*
X24920030Y-7376401D01*
X25051051Y-7463947D01*
X25051061Y-7463952D01*
X25196647Y-7524256D01*
X25196653Y-7524258D01*
X25229999Y-7530890D01*
X25230000Y-7530890D01*
X25230000Y-6979265D01*
X25245795Y-6995060D01*
X25314204Y-7034556D01*
X25390504Y-7055000D01*
X25469496Y-7055000D01*
X25545796Y-7034556D01*
X25614205Y-6995060D01*
X25630000Y-6979265D01*
X25630000Y-7530890D01*
X25663346Y-7524258D01*
X25663352Y-7524256D01*
X25808938Y-7463952D01*
X25808948Y-7463947D01*
X25939969Y-7376401D01*
X25939973Y-7376398D01*
X26051398Y-7264973D01*
X26051401Y-7264969D01*
X26138947Y-7133948D01*
X26138952Y-7133939D01*
X26199256Y-6988351D01*
X26199258Y-6988343D01*
X26229999Y-6833797D01*
X26230000Y-6833794D01*
X26230000Y-6405000D01*
X25730000Y-6405000D01*
X25730000Y-6005000D01*
X26229999Y-6005000D01*
X26247570Y-5987429D01*
X26308893Y-5953943D01*
X26378584Y-5958927D01*
X26434518Y-6000798D01*
X26442637Y-6013106D01*
X26447493Y-6021517D01*
X26447496Y-6021521D01*
X26447498Y-6021524D01*
X26543476Y-6117502D01*
X26543477Y-6117503D01*
X26543479Y-6117504D01*
X26661021Y-6185367D01*
X26661022Y-6185367D01*
X26661025Y-6185369D01*
X26792133Y-6220500D01*
X26792135Y-6220500D01*
X26927865Y-6220500D01*
X26927867Y-6220500D01*
X27058975Y-6185369D01*
X27176524Y-6117502D01*
X27272502Y-6021524D01*
X27340369Y-5903975D01*
X27375500Y-5772867D01*
X27375500Y-5637133D01*
X27340369Y-5506025D01*
X27322331Y-5474783D01*
X27272504Y-5388479D01*
X27272499Y-5388473D01*
X27176526Y-5292500D01*
X27176520Y-5292495D01*
X27058978Y-5224632D01*
X27058975Y-5224631D01*
X26927867Y-5189500D01*
X26792133Y-5189500D01*
X26690702Y-5216679D01*
X26661021Y-5224632D01*
X26543479Y-5292495D01*
X26543473Y-5292500D01*
X26447500Y-5388473D01*
X26447498Y-5388476D01*
X26420679Y-5434928D01*
X26370111Y-5483143D01*
X26301504Y-5496365D01*
X26236640Y-5470397D01*
X26198731Y-5420380D01*
X26138952Y-5276060D01*
X26138947Y-5276051D01*
X26051401Y-5145030D01*
X26051398Y-5145026D01*
X25939973Y-5033601D01*
X25939969Y-5033598D01*
X25808948Y-4946052D01*
X25808939Y-4946047D01*
X25663351Y-4885743D01*
X25663343Y-4885741D01*
X25630000Y-4879108D01*
X25630000Y-5430735D01*
X25614205Y-5414940D01*
X25545796Y-5375444D01*
X25469496Y-5355000D01*
X25390504Y-5355000D01*
X25314204Y-5375444D01*
X25245795Y-5414940D01*
X25230000Y-5430735D01*
X25230000Y-4879109D01*
X25229999Y-4879108D01*
X25196656Y-4885741D01*
X25196648Y-4885743D01*
X25051060Y-4946047D01*
X25051051Y-4946052D01*
X24920030Y-5033598D01*
X24920026Y-5033601D01*
X24808601Y-5145026D01*
X24808598Y-5145030D01*
X24721052Y-5276051D01*
X24721047Y-5276060D01*
X24660743Y-5421648D01*
X24660741Y-5421656D01*
X24630000Y-5576202D01*
X400000Y-5576202D01*
X400000Y-3218435D01*
X1959500Y-3218435D01*
X1959500Y-3421564D01*
X1991277Y-3622194D01*
X1991277Y-3622197D01*
X2054045Y-3815377D01*
X2146268Y-3996372D01*
X2265656Y-4160697D01*
X2265660Y-4160702D01*
X2409297Y-4304339D01*
X2409302Y-4304343D01*
X2552635Y-4408480D01*
X2573631Y-4423734D01*
X2754620Y-4515953D01*
X2754622Y-4515954D01*
X2947803Y-4578722D01*
X2947804Y-4578722D01*
X2947807Y-4578723D01*
X3148435Y-4610500D01*
X3148436Y-4610500D01*
X3351564Y-4610500D01*
X3351565Y-4610500D01*
X3552193Y-4578723D01*
X3552196Y-4578722D01*
X3552197Y-4578722D01*
X3745377Y-4515954D01*
X3745377Y-4515953D01*
X3745380Y-4515953D01*
X3926369Y-4423734D01*
X4090704Y-4304338D01*
X4234338Y-4160704D01*
X4353734Y-3996369D01*
X4445953Y-3815380D01*
X4508723Y-3622193D01*
X4540500Y-3421565D01*
X4540500Y-3218435D01*
X4508723Y-3017807D01*
X4508722Y-3017803D01*
X4508722Y-3017802D01*
X4445954Y-2824622D01*
X4440392Y-2813706D01*
X4353734Y-2643631D01*
X4328722Y-2609205D01*
X4279653Y-2541666D01*
X4234343Y-2479301D01*
X4231950Y-2476908D01*
X19672000Y-2476908D01*
X19672000Y-2608692D01*
X19681361Y-2643627D01*
X19706108Y-2735987D01*
X19729532Y-2776557D01*
X19772000Y-2850114D01*
X19865186Y-2943300D01*
X19979314Y-3009192D01*
X20106608Y-3043300D01*
X20106610Y-3043300D01*
X20196667Y-3043300D01*
X20263706Y-3062985D01*
X20284348Y-3079619D01*
X20587040Y-3382311D01*
X20642989Y-3438260D01*
X20642991Y-3438261D01*
X20642995Y-3438264D01*
X20711504Y-3477817D01*
X20711511Y-3477821D01*
X20787938Y-3498300D01*
X20787940Y-3498300D01*
X36299960Y-3498300D01*
X36299962Y-3498300D01*
X36376389Y-3477821D01*
X36444911Y-3438260D01*
X36500860Y-3382311D01*
X36664736Y-3218435D01*
X54959500Y-3218435D01*
X54959500Y-3421564D01*
X54991277Y-3622194D01*
X54991277Y-3622197D01*
X55054045Y-3815377D01*
X55146268Y-3996372D01*
X55265656Y-4160697D01*
X55265660Y-4160702D01*
X55409297Y-4304339D01*
X55409302Y-4304343D01*
X55552635Y-4408480D01*
X55573631Y-4423734D01*
X55754620Y-4515953D01*
X55754622Y-4515954D01*
X55947803Y-4578722D01*
X55947804Y-4578722D01*
X55947807Y-4578723D01*
X56148435Y-4610500D01*
X56148436Y-4610500D01*
X56351564Y-4610500D01*
X56351565Y-4610500D01*
X56552193Y-4578723D01*
X56552196Y-4578722D01*
X56552197Y-4578722D01*
X56745377Y-4515954D01*
X56745377Y-4515953D01*
X56745380Y-4515953D01*
X56926369Y-4423734D01*
X57090704Y-4304338D01*
X57234338Y-4160704D01*
X57353734Y-3996369D01*
X57445953Y-3815380D01*
X57508723Y-3622193D01*
X57540500Y-3421565D01*
X57540500Y-3218435D01*
X57508723Y-3017807D01*
X57508722Y-3017803D01*
X57508722Y-3017802D01*
X57445954Y-2824622D01*
X57440392Y-2813706D01*
X57353734Y-2643631D01*
X57298035Y-2566967D01*
X57234343Y-2479302D01*
X57234339Y-2479297D01*
X57090702Y-2335660D01*
X57090697Y-2335656D01*
X56926372Y-2216268D01*
X56926371Y-2216267D01*
X56926369Y-2216266D01*
X56835874Y-2170156D01*
X56745377Y-2124045D01*
X56552196Y-2061277D01*
X56401722Y-2037444D01*
X56351565Y-2029500D01*
X56148435Y-2029500D01*
X56089775Y-2038791D01*
X55947805Y-2061277D01*
X55947802Y-2061277D01*
X55754622Y-2124045D01*
X55573627Y-2216268D01*
X55409302Y-2335656D01*
X55409297Y-2335660D01*
X55265660Y-2479297D01*
X55265656Y-2479302D01*
X55146268Y-2643627D01*
X55054045Y-2824622D01*
X54991277Y-3017802D01*
X54991277Y-3017805D01*
X54959500Y-3218435D01*
X36664736Y-3218435D01*
X37157324Y-2725847D01*
X37773951Y-2109219D01*
X37835274Y-2075734D01*
X37861632Y-2072900D01*
X37951690Y-2072900D01*
X37951692Y-2072900D01*
X38078986Y-2038792D01*
X38193114Y-1972900D01*
X38286300Y-1879714D01*
X38352192Y-1765586D01*
X38386300Y-1638292D01*
X38386300Y-1506508D01*
X38352192Y-1379214D01*
X38286300Y-1265086D01*
X38193114Y-1171900D01*
X38094606Y-1115026D01*
X38078987Y-1106008D01*
X38015339Y-1088954D01*
X37951692Y-1071900D01*
X37819908Y-1071900D01*
X37692612Y-1106008D01*
X37578486Y-1171900D01*
X37578483Y-1171902D01*
X37485302Y-1265083D01*
X37485300Y-1265086D01*
X37419408Y-1379212D01*
X37385300Y-1506508D01*
X37385300Y-1596566D01*
X37365615Y-1663605D01*
X37348981Y-1684247D01*
X36172248Y-2860981D01*
X36110925Y-2894466D01*
X36084567Y-2897300D01*
X34925860Y-2897300D01*
X34858821Y-2877615D01*
X34813066Y-2824811D01*
X34803122Y-2755653D01*
X34811299Y-2725847D01*
X34839256Y-2658351D01*
X34839258Y-2658343D01*
X34869999Y-2503797D01*
X34870000Y-2503794D01*
X34870000Y-2225000D01*
X34370000Y-2225000D01*
X34370000Y-1825000D01*
X34870000Y-1825000D01*
X34870000Y-1546206D01*
X34869999Y-1546202D01*
X34839258Y-1391656D01*
X34839256Y-1391648D01*
X34778952Y-1246060D01*
X34778947Y-1246051D01*
X34691401Y-1115030D01*
X34691398Y-1115026D01*
X34579973Y-1003601D01*
X34579969Y-1003598D01*
X34448948Y-916052D01*
X34448939Y-916047D01*
X34303351Y-855743D01*
X34303343Y-855741D01*
X34270000Y-849108D01*
X34270000Y-1400735D01*
X34254205Y-1384940D01*
X34185796Y-1345444D01*
X34109496Y-1325000D01*
X34030504Y-1325000D01*
X33954204Y-1345444D01*
X33885795Y-1384940D01*
X33870000Y-1400735D01*
X33870000Y-849109D01*
X33869999Y-849108D01*
X33836656Y-855741D01*
X33836648Y-855743D01*
X33691060Y-916047D01*
X33691051Y-916052D01*
X33560030Y-1003598D01*
X33560026Y-1003601D01*
X33448601Y-1115026D01*
X33448598Y-1115030D01*
X33361052Y-1246051D01*
X33361047Y-1246060D01*
X33300743Y-1391648D01*
X33300741Y-1391656D01*
X33270000Y-1546202D01*
X33270000Y-1825000D01*
X33770000Y-1825000D01*
X33770000Y-2225000D01*
X33270000Y-2225000D01*
X33270000Y-2503797D01*
X33300741Y-2658343D01*
X33300743Y-2658351D01*
X33328701Y-2725847D01*
X33336170Y-2795317D01*
X33304895Y-2857796D01*
X33244806Y-2893448D01*
X33214140Y-2897300D01*
X26285860Y-2897300D01*
X26218821Y-2877615D01*
X26173066Y-2824811D01*
X26163122Y-2755653D01*
X26171299Y-2725847D01*
X26199256Y-2658351D01*
X26199258Y-2658343D01*
X26229999Y-2503797D01*
X26230000Y-2503794D01*
X26230000Y-2225000D01*
X25730000Y-2225000D01*
X25730000Y-1825000D01*
X26230000Y-1825000D01*
X26230000Y-1546206D01*
X26229999Y-1546202D01*
X26199258Y-1391656D01*
X26199256Y-1391648D01*
X26138952Y-1246060D01*
X26138947Y-1246051D01*
X26051401Y-1115030D01*
X26051398Y-1115026D01*
X25939973Y-1003601D01*
X25939969Y-1003598D01*
X25808948Y-916052D01*
X25808939Y-916047D01*
X25663351Y-855743D01*
X25663343Y-855741D01*
X25630000Y-849108D01*
X25630000Y-1400735D01*
X25614205Y-1384940D01*
X25545796Y-1345444D01*
X25469496Y-1325000D01*
X25390504Y-1325000D01*
X25314204Y-1345444D01*
X25245795Y-1384940D01*
X25230000Y-1400735D01*
X25230000Y-849109D01*
X25229999Y-849108D01*
X25196656Y-855741D01*
X25196648Y-855743D01*
X25051060Y-916047D01*
X25051051Y-916052D01*
X24920030Y-1003598D01*
X24920026Y-1003601D01*
X24808601Y-1115026D01*
X24808598Y-1115030D01*
X24721052Y-1246051D01*
X24721047Y-1246060D01*
X24660743Y-1391648D01*
X24660741Y-1391656D01*
X24630000Y-1546202D01*
X24630000Y-1825000D01*
X25130000Y-1825000D01*
X25130000Y-2225000D01*
X24630000Y-2225000D01*
X24630000Y-2503797D01*
X24660741Y-2658343D01*
X24660743Y-2658351D01*
X24688701Y-2725847D01*
X24696170Y-2795317D01*
X24664895Y-2857796D01*
X24604806Y-2893448D01*
X24574140Y-2897300D01*
X21003333Y-2897300D01*
X20936294Y-2877615D01*
X20915652Y-2860981D01*
X20709319Y-2654648D01*
X20675834Y-2593325D01*
X20673000Y-2566967D01*
X20673000Y-2476910D01*
X20673000Y-2476908D01*
X20638892Y-2349614D01*
X20573000Y-2235486D01*
X20479814Y-2142300D01*
X20422516Y-2109219D01*
X20365687Y-2076408D01*
X20302039Y-2059354D01*
X20238392Y-2042300D01*
X20106608Y-2042300D01*
X19979312Y-2076408D01*
X19865186Y-2142300D01*
X19865183Y-2142302D01*
X19772002Y-2235483D01*
X19772000Y-2235486D01*
X19706108Y-2349612D01*
X19675326Y-2464496D01*
X19672000Y-2476908D01*
X4231950Y-2476908D01*
X4090702Y-2335660D01*
X4090697Y-2335656D01*
X3926372Y-2216268D01*
X3926371Y-2216267D01*
X3926369Y-2216266D01*
X3835874Y-2170156D01*
X3745377Y-2124045D01*
X3552196Y-2061277D01*
X3401722Y-2037444D01*
X3351565Y-2029500D01*
X3148435Y-2029500D01*
X3089775Y-2038791D01*
X2947805Y-2061277D01*
X2947802Y-2061277D01*
X2754622Y-2124045D01*
X2573627Y-2216268D01*
X2409302Y-2335656D01*
X2409297Y-2335660D01*
X2265660Y-2479297D01*
X2265656Y-2479302D01*
X2146268Y-2643627D01*
X2054045Y-2824622D01*
X1991277Y-3017802D01*
X1991277Y-3017805D01*
X1959500Y-3218435D01*
X400000Y-3218435D01*
X400000Y-2818333D01*
X400802Y-2813706D01*
X400209Y-2811142D01*
X407249Y-2776557D01*
X421766Y-2735987D01*
X487696Y-2551733D01*
X492344Y-2540512D01*
X646568Y-2214441D01*
X652286Y-2203743D01*
X837737Y-1894341D01*
X844475Y-1884258D01*
X1059367Y-1594512D01*
X1067049Y-1585152D01*
X1309300Y-1317870D01*
X1317870Y-1309300D01*
X1585152Y-1067049D01*
X1594512Y-1059367D01*
X1884258Y-844475D01*
X1894341Y-837737D01*
X2203743Y-652286D01*
X2214441Y-646568D01*
X2540512Y-492344D01*
X2551733Y-487696D01*
X2776558Y-407248D01*
X2818334Y-400000D01*
X56681666Y-400000D01*
X56723441Y-407248D01*
G37*
%TD.AperFunction*%
%TD*%
M02*
