M48
; DRILL file KiCad 10.0.4 date 2026-07-20T06:28:23
; FORMAT={-:-/ absolute / metric / decimal}
; #@! TF.CreationDate,2026-07-20T06:28:23-04:00
; #@! TF.GenerationSoftware,Kicad,Pcbnew,10.0.4
; #@! TF.FileFunction,MixedPlating,1,2
FMAT,2
METRIC
; #@! TA.AperFunction,Plated,PTH,ComponentDrill
T1C0.200
; #@! TA.AperFunction,Plated,PTH,ViaDrill
T2C0.300
; #@! TA.AperFunction,Plated,PTH,ComponentDrill
T3C0.600
; #@! TA.AperFunction,NonPlated,NPTH,ComponentDrill
T4C0.650
; #@! TA.AperFunction,NonPlated,NPTH,ComponentDrill
T5C2.200
%
G90
G05
T1
X28.56Y-37.5
X28.56Y-38.9
X29.26Y-36.8
X29.26Y-38.2
X29.26Y-39.6
X29.96Y-37.5
X29.96Y-38.9
X30.66Y-36.8
X30.66Y-38.2
X30.66Y-39.6
X31.36Y-37.5
X31.36Y-38.9
T2
X3.0Y-74.0
X5.864Y-9.486
X6.987Y-33.853
X9.0Y-12.22
X9.208Y-55.829
X9.208Y-61.292
X9.232Y-19.933
X9.233Y-50.551
X9.233Y-88.851
X10.069Y-24.995
X10.069Y-87.002
X10.6Y-16.35
X11.373Y-54.443
X11.5Y-92.95
X12.198Y-16.137
X12.198Y-19.09
X12.28Y-15.249
X12.349Y-21.645
X12.635Y-93.247
X12.721Y-86.2
X12.974Y-13.184
X12.974Y-36.804
X13.341Y-95.86
X13.366Y-54.522
X13.834Y-94.972
X14.136Y-25.786
X14.4Y-10.05
X14.4Y-48.35
X14.4Y-63.45
X14.4Y-101.75
X14.816Y-15.921
X15.879Y-16.626
X15.879Y-89.955
X15.879Y-96.648
X15.949Y-54.592
X15.99Y-33.853
X16.42Y-89.068
X16.655Y-21.055
X16.655Y-39.759
X16.963Y-95.072
X17.05Y-6.8
X18.77Y-48.383
X19.721Y-9.44
X22.473Y-28.819
X22.473Y-46.319
X22.907Y-11.473
X22.91Y-8.258
X23.4Y-6.78
X23.851Y-10.232
X24.58Y-52.539
X25.374Y-8.959
X25.403Y-11.02
X25.464Y-47.608
X26.683Y-52.433
X27.5Y-11.362
X27.5Y-60.0
X27.5Y-90.0
X27.5Y-25.83
X27.5Y-30.901
X28.627Y-8.204
X29.72Y-8.056
X29.88Y-50.461
X31.342Y-26.028
X31.6Y-6.78
X32.501Y-43.534
X32.529Y-52.431
X32.642Y-25.83
X33.311Y-42.712
X33.725Y-25.089
X34.08Y-52.539
X34.388Y-41.923
X34.66Y-30.604
X35.4Y-8.99
X35.602Y-63.696
X36.216Y-29.559
X36.35Y-4.8
X36.539Y-66.01
X38.459Y-40.145
X38.459Y-41.923
X38.563Y-49.696
X38.996Y-24.995
X39.534Y-7.279
X40.0Y-5.579
X40.621Y-86.2
X40.63Y-81.921
X41.326Y-39.164
X41.43Y-15.538
X41.504Y-38.063
X41.595Y-36.044
X41.812Y-54.735
X41.949Y-33.689
X42.003Y-46.452
X42.027Y-92.907
X42.028Y-16.136
X42.042Y-95.887
X42.15Y-72.675
X42.3Y-10.05
X42.3Y-25.15
X42.3Y-48.35
X42.3Y-63.45
X42.3Y-101.75
X42.38Y-51.216
X42.472Y-17.1
X42.735Y-13.979
X42.819Y-23.11
X42.837Y-93.73
X43.4Y-18.85
X43.4Y-57.15
X43.4Y-95.45
X44.095Y-32.992
X44.133Y-49.846
X44.691Y-63.38
X45.13Y-80.98
X45.237Y-34.327
X45.3Y-79.5
X45.3Y-82.4
X45.3Y-73.288
X45.603Y-89.871
X45.734Y-58.467
X45.767Y-13.251
X45.767Y-51.551
X46.0Y-94.02
X46.242Y-16.487
X46.293Y-83.426
X46.45Y-4.8
X47.435Y-89.955
X48.119Y-33.622
X48.225Y-63.379
X48.226Y-36.807
X48.808Y-42.712
X48.808Y-72.239
X49.303Y-85.919
X49.778Y-68.092
X50.0Y-32.0
X51.137Y-71.165
X51.137Y-78.184
X51.5Y-55.998
X52.85Y-77.325
T4
X24.61Y-5.705
X30.39Y-5.705
T5
X3.0Y-2.975
X3.0Y-32.225
X3.0Y-41.275
X3.0Y-70.525
X3.0Y-79.575
X3.0Y-108.825
X23.0Y-70.525
X23.0Y-79.575
X23.0Y-108.825
X31.9Y-70.525
X31.9Y-79.575
X31.9Y-108.825
X51.9Y-2.975
X51.9Y-32.225
X51.9Y-41.275
X51.9Y-108.825
T3
X23.18Y-2.425G85X23.18Y-1.625
G05
X23.18Y-6.755G85X23.18Y-5.655
G05
X31.82Y-2.425G85X31.82Y-1.625
G05
X31.82Y-6.755G85X31.82Y-5.655
G05
M30
