%TF.GenerationSoftware,KiCad,Pcbnew,10.0.4*%
%TF.CreationDate,2026-08-10T16:01:08+03:00*%
%TF.ProjectId,data_streamdeck,64617461-5f73-4747-9265-616d6465636b,rev?*%
%TF.SameCoordinates,Original*%
%TF.FileFunction,Legend,Bot*%
%TF.FilePolarity,Positive*%
%FSLAX46Y46*%
G04 Gerber Fmt 4.6, Leading zero omitted, Abs format (unit mm)*
G04 Created by KiCad (PCBNEW 10.0.4) date 2026-08-10 16:01:08*
%MOMM*%
%LPD*%
G01*
G04 APERTURE LIST*
%ADD10C,0.000000*%
%ADD11C,0.150000*%
%ADD12C,0.240000*%
G04 APERTURE END LIST*
D10*
G36*
X31761785Y-30340417D02*
G01*
X31798702Y-30347764D01*
X31833967Y-30360718D01*
X31867054Y-30379045D01*
X31897437Y-30402508D01*
X31924590Y-30430871D01*
X31947987Y-30463898D01*
X31967100Y-30501353D01*
X31981404Y-30543000D01*
X31990372Y-30588604D01*
X31993478Y-30637928D01*
X31991201Y-30682761D01*
X31984549Y-30724229D01*
X31973796Y-30762157D01*
X31959214Y-30796374D01*
X31941075Y-30826708D01*
X31919651Y-30852985D01*
X31895214Y-30875034D01*
X31868037Y-30892681D01*
X31838392Y-30905756D01*
X31806551Y-30914084D01*
X31772786Y-30917494D01*
X31737370Y-30915814D01*
X31700574Y-30908871D01*
X31662671Y-30896492D01*
X31623934Y-30878506D01*
X31584634Y-30854739D01*
X31553928Y-30833129D01*
X31526861Y-30810203D01*
X31503443Y-30786098D01*
X31483681Y-30760949D01*
X31467585Y-30734892D01*
X31455164Y-30708065D01*
X31446427Y-30680602D01*
X31441383Y-30652640D01*
X31440042Y-30624315D01*
X31442411Y-30595763D01*
X31448502Y-30567121D01*
X31458321Y-30538523D01*
X31471880Y-30510108D01*
X31489186Y-30482010D01*
X31510248Y-30454365D01*
X31535077Y-30427311D01*
X31570850Y-30396056D01*
X31608130Y-30371825D01*
X31646389Y-30354382D01*
X31685102Y-30343490D01*
X31723743Y-30338913D01*
X31761785Y-30340417D01*
G37*
G36*
X21853705Y-38574684D02*
G01*
X21882303Y-38579039D01*
X21911608Y-38586299D01*
X21941647Y-38596462D01*
X21972450Y-38609529D01*
X22004041Y-38625499D01*
X22036450Y-38644373D01*
X22069702Y-38666151D01*
X22100262Y-38689553D01*
X22126893Y-38715442D01*
X22149586Y-38743545D01*
X22168332Y-38773589D01*
X22183121Y-38805303D01*
X22193945Y-38838415D01*
X22200794Y-38872652D01*
X22203660Y-38907741D01*
X22202534Y-38943412D01*
X22197405Y-38979391D01*
X22188266Y-39015406D01*
X22175107Y-39051185D01*
X22157919Y-39086457D01*
X22136693Y-39120947D01*
X22111420Y-39154386D01*
X22082091Y-39186499D01*
X22054902Y-39212707D01*
X22028929Y-39235584D01*
X22003935Y-39255140D01*
X21979686Y-39271385D01*
X21955945Y-39284326D01*
X21932477Y-39293973D01*
X21909044Y-39300336D01*
X21885412Y-39303422D01*
X21861344Y-39303242D01*
X21836605Y-39299805D01*
X21810959Y-39293119D01*
X21784169Y-39283193D01*
X21756000Y-39270037D01*
X21726215Y-39253660D01*
X21694580Y-39234070D01*
X21660857Y-39211277D01*
X21632264Y-39188346D01*
X21606920Y-39161684D01*
X21584879Y-39131774D01*
X21566196Y-39099097D01*
X21550924Y-39064133D01*
X21539118Y-39027363D01*
X21530834Y-38989268D01*
X21526124Y-38950329D01*
X21525044Y-38911028D01*
X21527649Y-38871844D01*
X21533991Y-38833259D01*
X21544127Y-38795754D01*
X21558111Y-38759810D01*
X21575996Y-38725907D01*
X21597837Y-38694528D01*
X21623689Y-38666151D01*
X21647142Y-38644373D01*
X21671056Y-38625499D01*
X21695461Y-38609529D01*
X21720383Y-38596462D01*
X21745850Y-38586299D01*
X21771888Y-38579039D01*
X21798526Y-38574684D01*
X21825789Y-38573232D01*
X21853705Y-38574684D01*
G37*
G36*
X23870105Y-31012663D02*
G01*
X23913375Y-31020445D01*
X23957879Y-31034761D01*
X24003862Y-31055701D01*
X24051569Y-31083356D01*
X24101246Y-31117817D01*
X24153136Y-31159174D01*
X24207486Y-31207518D01*
X24264540Y-31262940D01*
X24324542Y-31325530D01*
X24384947Y-31392567D01*
X24438429Y-31456754D01*
X24485032Y-31518292D01*
X24524803Y-31577380D01*
X24557786Y-31634217D01*
X24584027Y-31689004D01*
X24603571Y-31741940D01*
X24616464Y-31793224D01*
X24622751Y-31843056D01*
X24622477Y-31891636D01*
X24615688Y-31939163D01*
X24602429Y-31985838D01*
X24582746Y-32031859D01*
X24556683Y-32077426D01*
X24524287Y-32122739D01*
X24485602Y-32167998D01*
X24451691Y-32201606D01*
X24417280Y-32230404D01*
X24382307Y-32254375D01*
X24346708Y-32273500D01*
X24310418Y-32287762D01*
X24273376Y-32297141D01*
X24235517Y-32301621D01*
X24196778Y-32301182D01*
X24157096Y-32295807D01*
X24116406Y-32285478D01*
X24074645Y-32270176D01*
X24031750Y-32249883D01*
X23987657Y-32224581D01*
X23942303Y-32194253D01*
X23895624Y-32158878D01*
X23847557Y-32118441D01*
X23774468Y-32050757D01*
X23708565Y-31982619D01*
X23649922Y-31914300D01*
X23598611Y-31846071D01*
X23554704Y-31778206D01*
X23518274Y-31710976D01*
X23489394Y-31644653D01*
X23468137Y-31579509D01*
X23454574Y-31515818D01*
X23448778Y-31453851D01*
X23450823Y-31393880D01*
X23460781Y-31336177D01*
X23478723Y-31281015D01*
X23504724Y-31228667D01*
X23538854Y-31179403D01*
X23581188Y-31133497D01*
X23622680Y-31098087D01*
X23663691Y-31068574D01*
X23704465Y-31045051D01*
X23745249Y-31027608D01*
X23786287Y-31016335D01*
X23827824Y-31011323D01*
X23870105Y-31012663D01*
G37*
G36*
X22214377Y-29160227D02*
G01*
X22261324Y-29185822D01*
X22319849Y-29225863D01*
X22387757Y-29278209D01*
X22462851Y-29340718D01*
X22542937Y-29411248D01*
X22625817Y-29487659D01*
X22709296Y-29567808D01*
X22791178Y-29649553D01*
X22869267Y-29730755D01*
X22941367Y-29809271D01*
X23005283Y-29882959D01*
X23058817Y-29949678D01*
X23099775Y-30007287D01*
X23125960Y-30053643D01*
X23135176Y-30086607D01*
X23132006Y-30115385D01*
X23122884Y-30147839D01*
X23108389Y-30183287D01*
X23089103Y-30221049D01*
X23065607Y-30260445D01*
X23038482Y-30300793D01*
X23008307Y-30341413D01*
X22975665Y-30381625D01*
X22941134Y-30420748D01*
X22905298Y-30458102D01*
X22868735Y-30493006D01*
X22832027Y-30524779D01*
X22795754Y-30552741D01*
X22760498Y-30576211D01*
X22726839Y-30594509D01*
X22695358Y-30606955D01*
X22661640Y-30613666D01*
X22625681Y-30613028D01*
X22587707Y-30605239D01*
X22547946Y-30590500D01*
X22506623Y-30569009D01*
X22463967Y-30540967D01*
X22420204Y-30506573D01*
X22375561Y-30466027D01*
X22330264Y-30419528D01*
X22284541Y-30367276D01*
X22238619Y-30309471D01*
X22192723Y-30246312D01*
X22147082Y-30177998D01*
X22101921Y-30104731D01*
X22057468Y-30026708D01*
X22013950Y-29944130D01*
X21976846Y-29868969D01*
X21944479Y-29801049D01*
X21916793Y-29739772D01*
X21893736Y-29684537D01*
X21875252Y-29634747D01*
X21861287Y-29589803D01*
X21851786Y-29549106D01*
X21846696Y-29512056D01*
X21845961Y-29478055D01*
X21849527Y-29446504D01*
X21857340Y-29416805D01*
X21869345Y-29388357D01*
X21885488Y-29360563D01*
X21905714Y-29332823D01*
X21929969Y-29304539D01*
X21958199Y-29275112D01*
X21971320Y-29262491D01*
X21985058Y-29250224D01*
X21999305Y-29238375D01*
X22013950Y-29227007D01*
X22028886Y-29216183D01*
X22044004Y-29205967D01*
X22059194Y-29196422D01*
X22074348Y-29187613D01*
X22089356Y-29179602D01*
X22104111Y-29172453D01*
X22118503Y-29166230D01*
X22132422Y-29160995D01*
X22145761Y-29156814D01*
X22158411Y-29153748D01*
X22170262Y-29151862D01*
X22181205Y-29151220D01*
X22214377Y-29160227D01*
G37*
G36*
X25365491Y-32676952D02*
G01*
X25414021Y-32683700D01*
X25463640Y-32696691D01*
X25514357Y-32715907D01*
X25566180Y-32741330D01*
X25619121Y-32772941D01*
X25673186Y-32810723D01*
X25728385Y-32854657D01*
X25784728Y-32904725D01*
X25842224Y-32960909D01*
X25880944Y-33002346D01*
X25915918Y-33040943D01*
X25947316Y-33077053D01*
X25975311Y-33111032D01*
X26000076Y-33143231D01*
X26021783Y-33174006D01*
X26040604Y-33203710D01*
X26056712Y-33232698D01*
X26070280Y-33261322D01*
X26081479Y-33289937D01*
X26090482Y-33318898D01*
X26097461Y-33348556D01*
X26102590Y-33379268D01*
X26106039Y-33411386D01*
X26107983Y-33445264D01*
X26108592Y-33481257D01*
X26107204Y-33528671D01*
X26103002Y-33573390D01*
X26095934Y-33615477D01*
X26085943Y-33654996D01*
X26072976Y-33692011D01*
X26056978Y-33726585D01*
X26037895Y-33758782D01*
X26015673Y-33788665D01*
X25990256Y-33816297D01*
X25961591Y-33841742D01*
X25929623Y-33865064D01*
X25894297Y-33886327D01*
X25855560Y-33905593D01*
X25813356Y-33922926D01*
X25767631Y-33938390D01*
X25718331Y-33952048D01*
X25690378Y-33959195D01*
X25664286Y-33964219D01*
X25639590Y-33966884D01*
X25615830Y-33966953D01*
X25592541Y-33964192D01*
X25569261Y-33958363D01*
X25545528Y-33949232D01*
X25520878Y-33936561D01*
X25494849Y-33920116D01*
X25466977Y-33899660D01*
X25436801Y-33874957D01*
X25403858Y-33845771D01*
X25367684Y-33811867D01*
X25327816Y-33773009D01*
X25283793Y-33728960D01*
X25235151Y-33679485D01*
X25190909Y-33633553D01*
X25150967Y-33590788D01*
X25115127Y-33550872D01*
X25083189Y-33513488D01*
X25054954Y-33478318D01*
X25030221Y-33445045D01*
X25008790Y-33413350D01*
X24990464Y-33382917D01*
X24975041Y-33353428D01*
X24962322Y-33324564D01*
X24952107Y-33296010D01*
X24944198Y-33267446D01*
X24938393Y-33238555D01*
X24934494Y-33209020D01*
X24932301Y-33178524D01*
X24931615Y-33146747D01*
X24932190Y-33121279D01*
X24933889Y-33096029D01*
X24936678Y-33071069D01*
X24940520Y-33046472D01*
X24945377Y-33022311D01*
X24951215Y-32998657D01*
X24957996Y-32975585D01*
X24965685Y-32953166D01*
X24974245Y-32931472D01*
X24983640Y-32910578D01*
X24993833Y-32890554D01*
X25004789Y-32871474D01*
X25016470Y-32853411D01*
X25028841Y-32836436D01*
X25041866Y-32820623D01*
X25055507Y-32806044D01*
X25096669Y-32768582D01*
X25138856Y-32737491D01*
X25182078Y-32712752D01*
X25226343Y-32694347D01*
X25271661Y-32682257D01*
X25318040Y-32676465D01*
X25365491Y-32676952D01*
G37*
G36*
X37475714Y-36900685D02*
G01*
X37491966Y-36940890D01*
X37512519Y-36982183D01*
X37536883Y-37024057D01*
X37564568Y-37066004D01*
X37595085Y-37107515D01*
X37627942Y-37148083D01*
X37662651Y-37187198D01*
X37698720Y-37224354D01*
X37735661Y-37259042D01*
X37772983Y-37290753D01*
X37810196Y-37318979D01*
X37846811Y-37343213D01*
X37882336Y-37362947D01*
X37916282Y-37377671D01*
X37948160Y-37386878D01*
X37977478Y-37390060D01*
X38004941Y-37391473D01*
X38027023Y-37395553D01*
X38043860Y-37402065D01*
X38055589Y-37410773D01*
X38062344Y-37421442D01*
X38064263Y-37433834D01*
X38061482Y-37447714D01*
X38054137Y-37462847D01*
X38042363Y-37478996D01*
X38026297Y-37495925D01*
X38006075Y-37513399D01*
X37981834Y-37531181D01*
X37953709Y-37549036D01*
X37921836Y-37566728D01*
X37886351Y-37584020D01*
X37847391Y-37600677D01*
X37817977Y-37613829D01*
X37790079Y-37627779D01*
X37763614Y-37642600D01*
X37738502Y-37658364D01*
X37714659Y-37675146D01*
X37692006Y-37693016D01*
X37670459Y-37712047D01*
X37649938Y-37732313D01*
X37630360Y-37753885D01*
X37611645Y-37776837D01*
X37593710Y-37801240D01*
X37576474Y-37827168D01*
X37559854Y-37854693D01*
X37543770Y-37883887D01*
X37528140Y-37914824D01*
X37512882Y-37947576D01*
X37395184Y-38207750D01*
X37283681Y-37966159D01*
X37269104Y-37939534D01*
X37253301Y-37913154D01*
X37236355Y-37887119D01*
X37218347Y-37861529D01*
X37199360Y-37836482D01*
X37179474Y-37812080D01*
X37158771Y-37788423D01*
X37137333Y-37765609D01*
X37115242Y-37743739D01*
X37092580Y-37722912D01*
X37069427Y-37703229D01*
X37045866Y-37684788D01*
X37021978Y-37667691D01*
X36997846Y-37652037D01*
X36973550Y-37637925D01*
X36949172Y-37625456D01*
X36906780Y-37603197D01*
X36870215Y-37582698D01*
X36839493Y-37563688D01*
X36814632Y-37545893D01*
X36795652Y-37529043D01*
X36782571Y-37512864D01*
X36775405Y-37497084D01*
X36774174Y-37481431D01*
X36778895Y-37465633D01*
X36789588Y-37449417D01*
X36806269Y-37432512D01*
X36828958Y-37414645D01*
X36857671Y-37395544D01*
X36892428Y-37374937D01*
X36933247Y-37352551D01*
X36980145Y-37328114D01*
X37001182Y-37316661D01*
X37022418Y-37303275D01*
X37043764Y-37288056D01*
X37065127Y-37271104D01*
X37086418Y-37252519D01*
X37107546Y-37232400D01*
X37128419Y-37210847D01*
X37148948Y-37187961D01*
X37169041Y-37163840D01*
X37188608Y-37138585D01*
X37207558Y-37112296D01*
X37225800Y-37085072D01*
X37243244Y-37057013D01*
X37259798Y-37028219D01*
X37275372Y-36998790D01*
X37289876Y-36968826D01*
X37413768Y-36702458D01*
X37475714Y-36900685D01*
G37*
G36*
X28984962Y-33681900D02*
G01*
X29002543Y-33682679D01*
X29021685Y-33684075D01*
X29042360Y-33686078D01*
X29064542Y-33688681D01*
X29088203Y-33691874D01*
X29113178Y-33696731D01*
X29143688Y-33701988D01*
X29179316Y-33707608D01*
X29219645Y-33713555D01*
X29264256Y-33719792D01*
X29312734Y-33726283D01*
X29364659Y-33732992D01*
X29419615Y-33739882D01*
X29477184Y-33746918D01*
X29536950Y-33754062D01*
X29598494Y-33761279D01*
X29661399Y-33768532D01*
X29725247Y-33775785D01*
X29789622Y-33783002D01*
X29854106Y-33790147D01*
X29918282Y-33797182D01*
X29987026Y-33804646D01*
X30064908Y-33813044D01*
X30151047Y-33822295D01*
X30244564Y-33832317D01*
X30344577Y-33843029D01*
X30450208Y-33854349D01*
X30560575Y-33866196D01*
X30674799Y-33878487D01*
X30791999Y-33891140D01*
X30911296Y-33904076D01*
X31031808Y-33917211D01*
X31152656Y-33930463D01*
X31272959Y-33943752D01*
X31391838Y-33956996D01*
X31508412Y-33970113D01*
X31621801Y-33983021D01*
X31738189Y-33996284D01*
X31863561Y-34010437D01*
X31996736Y-34025352D01*
X32136535Y-34040902D01*
X32281779Y-34056960D01*
X32431288Y-34073399D01*
X32583881Y-34090093D01*
X32738381Y-34106913D01*
X32893606Y-34123734D01*
X33048378Y-34140427D01*
X33201516Y-34156866D01*
X33351842Y-34172924D01*
X33498174Y-34188475D01*
X33639335Y-34203389D01*
X33774143Y-34217542D01*
X33901420Y-34230805D01*
X35096981Y-34360892D01*
X35326182Y-34614872D01*
X35349246Y-34640397D01*
X35371892Y-34665760D01*
X35393993Y-34690795D01*
X35415423Y-34715341D01*
X35436055Y-34739233D01*
X35455761Y-34762308D01*
X35474414Y-34784404D01*
X35491888Y-34805356D01*
X35508055Y-34825002D01*
X35522789Y-34843177D01*
X35535961Y-34859719D01*
X35547446Y-34874465D01*
X35557116Y-34887250D01*
X35564844Y-34897912D01*
X35570504Y-34906288D01*
X35573967Y-34912213D01*
X35539189Y-34944079D01*
X35436572Y-35021369D01*
X35275663Y-35137533D01*
X35066008Y-35286020D01*
X34817153Y-35460277D01*
X34538643Y-35653753D01*
X34240025Y-35859896D01*
X33930845Y-36072155D01*
X33620648Y-36283979D01*
X33318981Y-36488816D01*
X33035390Y-36680114D01*
X32779420Y-36851322D01*
X32560618Y-36995888D01*
X32388530Y-37107261D01*
X32272702Y-37178890D01*
X32222679Y-37204222D01*
X32179606Y-37165871D01*
X32070608Y-37057414D01*
X31905116Y-36888741D01*
X31692555Y-36669742D01*
X31442355Y-36410309D01*
X31163944Y-36120333D01*
X30866749Y-35809704D01*
X30560199Y-35488313D01*
X30253721Y-35166050D01*
X29956744Y-34852808D01*
X29678695Y-34558476D01*
X29429004Y-34292945D01*
X29217097Y-34066107D01*
X29052402Y-33887851D01*
X28944349Y-33768069D01*
X28902364Y-33716652D01*
X28900981Y-33710045D01*
X28901457Y-33704154D01*
X28903766Y-33698971D01*
X28907881Y-33694487D01*
X28913775Y-33690693D01*
X28921420Y-33687579D01*
X28930789Y-33685136D01*
X28941855Y-33683356D01*
X28954591Y-33682229D01*
X28968969Y-33681747D01*
X28984962Y-33681900D01*
G37*
G36*
X26120981Y-38765265D02*
G01*
X26244975Y-38896220D01*
X26370157Y-39028319D01*
X26495685Y-39160671D01*
X26620713Y-39292388D01*
X26744398Y-39422581D01*
X26865896Y-39550360D01*
X26984364Y-39674836D01*
X27098956Y-39795120D01*
X27208831Y-39910322D01*
X27313143Y-40019554D01*
X27411048Y-40121926D01*
X27501703Y-40216548D01*
X27584265Y-40302531D01*
X27657888Y-40378987D01*
X27721729Y-40445026D01*
X27774944Y-40499758D01*
X27834998Y-40563594D01*
X27889799Y-40622803D01*
X27939463Y-40677548D01*
X27984109Y-40727991D01*
X28023855Y-40774296D01*
X28058820Y-40816627D01*
X28089120Y-40855147D01*
X28114874Y-40890019D01*
X28136199Y-40921406D01*
X28153215Y-40949473D01*
X28166038Y-40974381D01*
X28174787Y-40996295D01*
X28179580Y-41015378D01*
X28180534Y-41031793D01*
X28177768Y-41045704D01*
X28171400Y-41057273D01*
X28160385Y-41072250D01*
X28139325Y-41100430D01*
X28108774Y-41141078D01*
X28069285Y-41193458D01*
X28021411Y-41256837D01*
X27965707Y-41330478D01*
X27902725Y-41413647D01*
X27833019Y-41505609D01*
X27757142Y-41605629D01*
X27675649Y-41712971D01*
X27589092Y-41826902D01*
X27498025Y-41946685D01*
X27403002Y-42071586D01*
X27304577Y-42200870D01*
X27203302Y-42333802D01*
X27099731Y-42469646D01*
X26996230Y-42605350D01*
X26895151Y-42737878D01*
X26797031Y-42866522D01*
X26702404Y-42990575D01*
X26611806Y-43109328D01*
X26525773Y-43222074D01*
X26444839Y-43328106D01*
X26369540Y-43426714D01*
X26300412Y-43517193D01*
X26237989Y-43598833D01*
X26182808Y-43670927D01*
X26135403Y-43732767D01*
X26096310Y-43783646D01*
X26066065Y-43822855D01*
X26045202Y-43849688D01*
X26034257Y-43863435D01*
X26013472Y-43871284D01*
X25982389Y-43863507D01*
X25942612Y-43841902D01*
X25895749Y-43808264D01*
X25843405Y-43764391D01*
X25787186Y-43712078D01*
X25728698Y-43653123D01*
X25669549Y-43589323D01*
X25611343Y-43522474D01*
X25555686Y-43454372D01*
X25504186Y-43386815D01*
X25458448Y-43321599D01*
X25420078Y-43260521D01*
X25390682Y-43205378D01*
X25371867Y-43157965D01*
X25365238Y-43120081D01*
X25364740Y-43101371D01*
X25363290Y-43073488D01*
X25360951Y-43036984D01*
X25357785Y-42992414D01*
X25353858Y-42940330D01*
X25349231Y-42881286D01*
X25343970Y-42815835D01*
X25338137Y-42744532D01*
X25331795Y-42667930D01*
X25325009Y-42586582D01*
X25317842Y-42501041D01*
X25310358Y-42411862D01*
X25302619Y-42319597D01*
X25294690Y-42224801D01*
X25286633Y-42128027D01*
X25278513Y-42029828D01*
X25268804Y-41925273D01*
X25258333Y-41809847D01*
X25247208Y-41684729D01*
X25235538Y-41551100D01*
X25223433Y-41410140D01*
X25211002Y-41263027D01*
X25198352Y-41110941D01*
X25185594Y-40955062D01*
X25172836Y-40796570D01*
X25160187Y-40636644D01*
X25147755Y-40476465D01*
X25135650Y-40317210D01*
X25123981Y-40160061D01*
X25112856Y-40006197D01*
X25102384Y-39856797D01*
X25092675Y-39713041D01*
X25082229Y-39572070D01*
X25071829Y-39430836D01*
X25061519Y-39290236D01*
X25051345Y-39151170D01*
X25041353Y-39014536D01*
X25031588Y-38881233D01*
X25022095Y-38752157D01*
X25012919Y-38628209D01*
X25004107Y-38510286D01*
X24995703Y-38399287D01*
X24987752Y-38296109D01*
X24980301Y-38201652D01*
X24973394Y-38116813D01*
X24967077Y-38042491D01*
X24961395Y-37979585D01*
X24956393Y-37928992D01*
X24925420Y-37513952D01*
X26120981Y-38765265D01*
G37*
G36*
X29132184Y-27520370D02*
G01*
X29141341Y-27525810D01*
X29151261Y-27534408D01*
X29162115Y-27546027D01*
X29174076Y-27560532D01*
X29187317Y-27577787D01*
X29195367Y-27589606D01*
X29203227Y-27601779D01*
X29210851Y-27614224D01*
X29218193Y-27626860D01*
X29225209Y-27639604D01*
X29231853Y-27652376D01*
X29238079Y-27665094D01*
X29243843Y-27677675D01*
X29249098Y-27690039D01*
X29253800Y-27702103D01*
X29257903Y-27713786D01*
X29261362Y-27725006D01*
X29264131Y-27735681D01*
X29266165Y-27745731D01*
X29267419Y-27755073D01*
X29267847Y-27763625D01*
X29271380Y-27792200D01*
X29281591Y-27824095D01*
X29297900Y-27858713D01*
X29319727Y-27895454D01*
X29346489Y-27933720D01*
X29377608Y-27972911D01*
X29412501Y-28012429D01*
X29450588Y-28051675D01*
X29491289Y-28090050D01*
X29534022Y-28126954D01*
X29578207Y-28161790D01*
X29623263Y-28193958D01*
X29668609Y-28222859D01*
X29713666Y-28247894D01*
X29757851Y-28268465D01*
X29800584Y-28283973D01*
X29822342Y-28292240D01*
X29843402Y-28300742D01*
X29863645Y-28309426D01*
X29882953Y-28318237D01*
X29901209Y-28327121D01*
X29918294Y-28336022D01*
X29934090Y-28344888D01*
X29948480Y-28353663D01*
X29961346Y-28362292D01*
X29972569Y-28370722D01*
X29982032Y-28378898D01*
X29989616Y-28386765D01*
X29995205Y-28394269D01*
X29998678Y-28401356D01*
X29999920Y-28407971D01*
X29998812Y-28414060D01*
X29995132Y-28420504D01*
X29988830Y-28428155D01*
X29980042Y-28436913D01*
X29968903Y-28446679D01*
X29955551Y-28457351D01*
X29940120Y-28468832D01*
X29922748Y-28481020D01*
X29903569Y-28493816D01*
X29882721Y-28507120D01*
X29860340Y-28520833D01*
X29836561Y-28534854D01*
X29811521Y-28549083D01*
X29785356Y-28563422D01*
X29758202Y-28577770D01*
X29730194Y-28592027D01*
X29701470Y-28606093D01*
X29662233Y-28626893D01*
X29625683Y-28647629D01*
X29591600Y-28668528D01*
X29559768Y-28689817D01*
X29529969Y-28711724D01*
X29501984Y-28734474D01*
X29475596Y-28758295D01*
X29450588Y-28783414D01*
X29426741Y-28810057D01*
X29403838Y-28838452D01*
X29381661Y-28868825D01*
X29359992Y-28901402D01*
X29338613Y-28936412D01*
X29317307Y-28974080D01*
X29295856Y-29014634D01*
X29274041Y-29058300D01*
X29125371Y-29368031D01*
X29063424Y-29182193D01*
X29043895Y-29125420D01*
X29022470Y-29071234D01*
X28999139Y-29019607D01*
X28973893Y-28970511D01*
X28946723Y-28923920D01*
X28917621Y-28879806D01*
X28886577Y-28838142D01*
X28853582Y-28798901D01*
X28818627Y-28762055D01*
X28781702Y-28727578D01*
X28742800Y-28695442D01*
X28701910Y-28665620D01*
X28659025Y-28638084D01*
X28614133Y-28612808D01*
X28567227Y-28589764D01*
X28518298Y-28568926D01*
X28468136Y-28548094D01*
X28424508Y-28527426D01*
X28387413Y-28506940D01*
X28356851Y-28486653D01*
X28332823Y-28466584D01*
X28315328Y-28446751D01*
X28304366Y-28427172D01*
X28299938Y-28407865D01*
X28302043Y-28388849D01*
X28310682Y-28370141D01*
X28325854Y-28351760D01*
X28347559Y-28333724D01*
X28375798Y-28316050D01*
X28410570Y-28298758D01*
X28451875Y-28281865D01*
X28499714Y-28265389D01*
X28547688Y-28247899D01*
X28594001Y-28227968D01*
X28638590Y-28205622D01*
X28681391Y-28180891D01*
X28722341Y-28153800D01*
X28761376Y-28124377D01*
X28798434Y-28092649D01*
X28833449Y-28058644D01*
X28866360Y-28022388D01*
X28897101Y-27983909D01*
X28925611Y-27943234D01*
X28951825Y-27900391D01*
X28975679Y-27855406D01*
X28997111Y-27808306D01*
X29016056Y-27759120D01*
X29032451Y-27707874D01*
X29044603Y-27669594D01*
X29055621Y-27635970D01*
X29065676Y-27606865D01*
X29074943Y-27582142D01*
X29083592Y-27561667D01*
X29091796Y-27545301D01*
X29099729Y-27532911D01*
X29107561Y-27524358D01*
X29115466Y-27519508D01*
X29123616Y-27518224D01*
X29132184Y-27520370D01*
G37*
G36*
X18567175Y-26759583D02*
G01*
X18603547Y-26764501D01*
X18647651Y-26773412D01*
X18699830Y-26786424D01*
X18760430Y-26803647D01*
X18829796Y-26825189D01*
X18908272Y-26851159D01*
X18996204Y-26881667D01*
X19093935Y-26916820D01*
X19201812Y-26956728D01*
X19320178Y-27001500D01*
X19449379Y-27051244D01*
X19708214Y-27156001D01*
X19967150Y-27270802D01*
X20226865Y-27396112D01*
X20488042Y-27532392D01*
X20751360Y-27680105D01*
X21017500Y-27839715D01*
X21287143Y-28011684D01*
X21560969Y-28196474D01*
X21839659Y-28394549D01*
X22123893Y-28606371D01*
X22414351Y-28832404D01*
X22711716Y-29073109D01*
X23016666Y-29328950D01*
X23329883Y-29600390D01*
X23652047Y-29887890D01*
X23983838Y-30191915D01*
X24089666Y-30291490D01*
X24229094Y-30426064D01*
X24399865Y-30593324D01*
X24599719Y-30790954D01*
X24826396Y-31016642D01*
X25077636Y-31268073D01*
X25351181Y-31542933D01*
X25644770Y-31838909D01*
X25956145Y-32153687D01*
X26283046Y-32484952D01*
X26623213Y-32830391D01*
X26974387Y-33187690D01*
X27334308Y-33554535D01*
X27700718Y-33928612D01*
X28071356Y-34307607D01*
X28443963Y-34689207D01*
X29052015Y-35314897D01*
X29587547Y-35866451D01*
X30054987Y-36348714D01*
X30458762Y-36766533D01*
X30803301Y-37124753D01*
X31093033Y-37428220D01*
X31332384Y-37681779D01*
X31525785Y-37890275D01*
X31677662Y-38058555D01*
X31792444Y-38191464D01*
X31874559Y-38293848D01*
X31928435Y-38370552D01*
X31958500Y-38426421D01*
X31969184Y-38466302D01*
X31964913Y-38495040D01*
X31950116Y-38517480D01*
X31932482Y-38536991D01*
X31916481Y-38553644D01*
X31901714Y-38567338D01*
X31887783Y-38577975D01*
X31874286Y-38585453D01*
X31860826Y-38589674D01*
X31847003Y-38590538D01*
X31832418Y-38587944D01*
X31816672Y-38581793D01*
X31799364Y-38571986D01*
X31780097Y-38558421D01*
X31758470Y-38541001D01*
X31734085Y-38519623D01*
X31706542Y-38494190D01*
X31675442Y-38464601D01*
X31640385Y-38430756D01*
X31594750Y-38387983D01*
X31553189Y-38352525D01*
X31515856Y-38324289D01*
X31482906Y-38303185D01*
X31454494Y-38289123D01*
X31430772Y-38282012D01*
X31411897Y-38281761D01*
X31398021Y-38288280D01*
X31389299Y-38301476D01*
X31385886Y-38321261D01*
X31387935Y-38347543D01*
X31395601Y-38380231D01*
X31409038Y-38419235D01*
X31428401Y-38464463D01*
X31453843Y-38515826D01*
X31485520Y-38573232D01*
X31621801Y-38814822D01*
X30989950Y-39421894D01*
X30762962Y-39637808D01*
X30561735Y-39828876D01*
X30384591Y-39996533D01*
X30229851Y-40142212D01*
X30095837Y-40267348D01*
X29980869Y-40373373D01*
X29883269Y-40461722D01*
X29801358Y-40533828D01*
X29733458Y-40591125D01*
X29677889Y-40635047D01*
X29632974Y-40667028D01*
X29597033Y-40688500D01*
X29568387Y-40700898D01*
X29545358Y-40705656D01*
X29526268Y-40704207D01*
X29509437Y-40697986D01*
X29459974Y-40657267D01*
X29352708Y-40555461D01*
X29193575Y-40398702D01*
X28988508Y-40193124D01*
X28743443Y-39944862D01*
X28464313Y-39660048D01*
X28157053Y-39344819D01*
X27827598Y-39005306D01*
X27481882Y-38647646D01*
X27125840Y-38277971D01*
X26765406Y-37902417D01*
X26406514Y-37527116D01*
X26055100Y-37158204D01*
X25717097Y-36801813D01*
X25398440Y-36464080D01*
X25105064Y-36151137D01*
X24533414Y-35532549D01*
X23991074Y-34935177D01*
X23477298Y-34358022D01*
X22991345Y-33800086D01*
X22532468Y-33260371D01*
X22099925Y-32737879D01*
X21692971Y-32231611D01*
X21310861Y-31740569D01*
X20952853Y-31263756D01*
X20618201Y-30800173D01*
X20306163Y-30348822D01*
X20015993Y-29908705D01*
X19746947Y-29478823D01*
X19498282Y-29058179D01*
X19269254Y-28645774D01*
X19059118Y-28240611D01*
X19014947Y-28150219D01*
X18968824Y-28052050D01*
X18921413Y-27947765D01*
X18873376Y-27839025D01*
X18825376Y-27727491D01*
X18778074Y-27614821D01*
X18732133Y-27502679D01*
X18688215Y-27392723D01*
X18646984Y-27286614D01*
X18609101Y-27186014D01*
X18575229Y-27092582D01*
X18546029Y-27007979D01*
X18522166Y-26933866D01*
X18504300Y-26871903D01*
X18493095Y-26823751D01*
X18489213Y-26791070D01*
X18492102Y-26777659D01*
X18500997Y-26767695D01*
X18516245Y-26761289D01*
X18538189Y-26758549D01*
X18567175Y-26759583D01*
G37*
G36*
X19965081Y-34200607D02*
G01*
X19978940Y-34208043D01*
X19992618Y-34220461D01*
X20006078Y-34237833D01*
X20019284Y-34260133D01*
X20032199Y-34287333D01*
X20044788Y-34319405D01*
X20057014Y-34356324D01*
X20068841Y-34398060D01*
X20083072Y-34450549D01*
X20100225Y-34501179D01*
X20120318Y-34549975D01*
X20143370Y-34596965D01*
X20169397Y-34642177D01*
X20198419Y-34685638D01*
X20230454Y-34727374D01*
X20265520Y-34767414D01*
X20303634Y-34805784D01*
X20344816Y-34842512D01*
X20389082Y-34877624D01*
X20436452Y-34911149D01*
X20486944Y-34943112D01*
X20540575Y-34973542D01*
X20597364Y-35002466D01*
X20657329Y-35029911D01*
X20689247Y-35043977D01*
X20719868Y-35058234D01*
X20749055Y-35072582D01*
X20776672Y-35086921D01*
X20802584Y-35101151D01*
X20826653Y-35115172D01*
X20848744Y-35128884D01*
X20868720Y-35142188D01*
X20886447Y-35154985D01*
X20901787Y-35167173D01*
X20914604Y-35178653D01*
X20924762Y-35189326D01*
X20932126Y-35199091D01*
X20936559Y-35207849D01*
X20937924Y-35215500D01*
X20936087Y-35221944D01*
X20931250Y-35228316D01*
X20923819Y-35235749D01*
X20913955Y-35244144D01*
X20901823Y-35253401D01*
X20887586Y-35263421D01*
X20871406Y-35274102D01*
X20853449Y-35285347D01*
X20833876Y-35297054D01*
X20812851Y-35309124D01*
X20790538Y-35321457D01*
X20767099Y-35333954D01*
X20742699Y-35346514D01*
X20717500Y-35359038D01*
X20691666Y-35371426D01*
X20665360Y-35383577D01*
X20638745Y-35395393D01*
X20581578Y-35422152D01*
X20528404Y-35449173D01*
X20479004Y-35476720D01*
X20433161Y-35505058D01*
X20390658Y-35534447D01*
X20351276Y-35565153D01*
X20314798Y-35597437D01*
X20281006Y-35631563D01*
X20249682Y-35667795D01*
X20220609Y-35706395D01*
X20193568Y-35747626D01*
X20168342Y-35791752D01*
X20144712Y-35839036D01*
X20122463Y-35889741D01*
X20101374Y-35944130D01*
X20081230Y-36002466D01*
X20071805Y-36026617D01*
X20062162Y-36050196D01*
X20052374Y-36073067D01*
X20042513Y-36095095D01*
X20032653Y-36116142D01*
X20022865Y-36136074D01*
X20013222Y-36154753D01*
X20003797Y-36172044D01*
X19994662Y-36187810D01*
X19985891Y-36201916D01*
X19977555Y-36214225D01*
X19969727Y-36224601D01*
X19962479Y-36232908D01*
X19955886Y-36239011D01*
X19950018Y-36242772D01*
X19944948Y-36244056D01*
X19939879Y-36242770D01*
X19934011Y-36238999D01*
X19927417Y-36232868D01*
X19920170Y-36224504D01*
X19912342Y-36214036D01*
X19904006Y-36201589D01*
X19895234Y-36187291D01*
X19886099Y-36171269D01*
X19876674Y-36153650D01*
X19867032Y-36134561D01*
X19857244Y-36114129D01*
X19847383Y-36092481D01*
X19837522Y-36069745D01*
X19827734Y-36046046D01*
X19818092Y-36021513D01*
X19808667Y-35996271D01*
X19787217Y-35938744D01*
X19762509Y-35882469D01*
X19734771Y-35827683D01*
X19704229Y-35774620D01*
X19671110Y-35723518D01*
X19635641Y-35674611D01*
X19598048Y-35628136D01*
X19558559Y-35584329D01*
X19517400Y-35543426D01*
X19474799Y-35505662D01*
X19430981Y-35471274D01*
X19386174Y-35440498D01*
X19340606Y-35413569D01*
X19294501Y-35390723D01*
X19248089Y-35372197D01*
X19201594Y-35358226D01*
X19152736Y-35343450D01*
X19110683Y-35327132D01*
X19075418Y-35309470D01*
X19046922Y-35290666D01*
X19025178Y-35270917D01*
X19010166Y-35250425D01*
X19001869Y-35229388D01*
X19000269Y-35208006D01*
X19005348Y-35186479D01*
X19017087Y-35165007D01*
X19035468Y-35143789D01*
X19060473Y-35123024D01*
X19092084Y-35102913D01*
X19130283Y-35083654D01*
X19175052Y-35065448D01*
X19226373Y-35048495D01*
X19269454Y-35032990D01*
X19314622Y-35012440D01*
X19361205Y-34987462D01*
X19408533Y-34958673D01*
X19455933Y-34926690D01*
X19502735Y-34892129D01*
X19548266Y-34855609D01*
X19591855Y-34817745D01*
X19632831Y-34779156D01*
X19670522Y-34740458D01*
X19704256Y-34702268D01*
X19733363Y-34665203D01*
X19757171Y-34629880D01*
X19775008Y-34596917D01*
X19786202Y-34566930D01*
X19790083Y-34540536D01*
X19790370Y-34533950D01*
X19791220Y-34525885D01*
X19792614Y-34516458D01*
X19794535Y-34505788D01*
X19796964Y-34493993D01*
X19799883Y-34481191D01*
X19803274Y-34467500D01*
X19807118Y-34453037D01*
X19811398Y-34437921D01*
X19816095Y-34422270D01*
X19821192Y-34406201D01*
X19826670Y-34389833D01*
X19832510Y-34373283D01*
X19838696Y-34356670D01*
X19845208Y-34340111D01*
X19852029Y-34323725D01*
X19866033Y-34290327D01*
X19880147Y-34262129D01*
X19894333Y-34239104D01*
X19908555Y-34221223D01*
X19922777Y-34208460D01*
X19936963Y-34200788D01*
X19951076Y-34198179D01*
X19965081Y-34200607D01*
G37*
G36*
X21261456Y-41243162D02*
G01*
X21274129Y-41255102D01*
X21290069Y-41274428D01*
X21309313Y-41301186D01*
X21331895Y-41335422D01*
X21357853Y-41377179D01*
X21387223Y-41426505D01*
X21420041Y-41483444D01*
X21456344Y-41548041D01*
X21496167Y-41620342D01*
X21539548Y-41700393D01*
X21586522Y-41788238D01*
X21773525Y-42129511D01*
X21963159Y-42456773D01*
X22155879Y-42770533D01*
X22352138Y-43071298D01*
X22552389Y-43359578D01*
X22757087Y-43635879D01*
X22966684Y-43900711D01*
X23181636Y-44154582D01*
X23402394Y-44397999D01*
X23629414Y-44631471D01*
X23863149Y-44855505D01*
X24104053Y-45070611D01*
X24352578Y-45277296D01*
X24609180Y-45476068D01*
X24874312Y-45667436D01*
X25148426Y-45851907D01*
X25340594Y-45973184D01*
X25535893Y-46090678D01*
X25733967Y-46204233D01*
X25934465Y-46313696D01*
X26137032Y-46418912D01*
X26341314Y-46519728D01*
X26546957Y-46615988D01*
X26753607Y-46707538D01*
X26960910Y-46794225D01*
X27168513Y-46875894D01*
X27376061Y-46952391D01*
X27583201Y-47023561D01*
X27789579Y-47089250D01*
X27994841Y-47149304D01*
X28198633Y-47203569D01*
X28400600Y-47251890D01*
X28503841Y-47273906D01*
X28601066Y-47293571D01*
X28694099Y-47311004D01*
X28784763Y-47326323D01*
X28874883Y-47339645D01*
X28966283Y-47351089D01*
X29060785Y-47360773D01*
X29160215Y-47368814D01*
X29266396Y-47375330D01*
X29381153Y-47380441D01*
X29506308Y-47384262D01*
X29643686Y-47386914D01*
X29795111Y-47388512D01*
X29962406Y-47389176D01*
X30147396Y-47389023D01*
X30351905Y-47388172D01*
X30609178Y-47387175D01*
X30848176Y-47383974D01*
X31071094Y-47378249D01*
X31280129Y-47369685D01*
X31477477Y-47357963D01*
X31665333Y-47342765D01*
X31845893Y-47323774D01*
X32021354Y-47300673D01*
X32193911Y-47273144D01*
X32365760Y-47240868D01*
X32539098Y-47203530D01*
X32716119Y-47160810D01*
X32899021Y-47112392D01*
X33089998Y-47057958D01*
X33291247Y-46997190D01*
X33504965Y-46929770D01*
X34062480Y-46750126D01*
X34997867Y-47251890D01*
X35092154Y-47302515D01*
X35184190Y-47351996D01*
X35273467Y-47400062D01*
X35359478Y-47446440D01*
X35441714Y-47490858D01*
X35519667Y-47533044D01*
X35592829Y-47572725D01*
X35660691Y-47609629D01*
X35722747Y-47643485D01*
X35778486Y-47674020D01*
X35827402Y-47700961D01*
X35868985Y-47724036D01*
X35902729Y-47742974D01*
X35928125Y-47757502D01*
X35944664Y-47767347D01*
X35951838Y-47772238D01*
X35948248Y-47785273D01*
X35920502Y-47807410D01*
X35871015Y-47837586D01*
X35802200Y-47874740D01*
X35716470Y-47917810D01*
X35616240Y-47965735D01*
X35503924Y-48017453D01*
X35381934Y-48071903D01*
X35252685Y-48128022D01*
X35118590Y-48184749D01*
X34982063Y-48241022D01*
X34845519Y-48295780D01*
X34711369Y-48347961D01*
X34582030Y-48396503D01*
X34459913Y-48440345D01*
X34347433Y-48478425D01*
X34132065Y-48547886D01*
X33930300Y-48610169D01*
X33739624Y-48665647D01*
X33557522Y-48714691D01*
X33381482Y-48757674D01*
X33208990Y-48794967D01*
X33037533Y-48826943D01*
X32864596Y-48853973D01*
X32687667Y-48876430D01*
X32504232Y-48894686D01*
X32311777Y-48909112D01*
X32107788Y-48920081D01*
X31889753Y-48927965D01*
X31655158Y-48933136D01*
X31401489Y-48935966D01*
X31126232Y-48936826D01*
X30910409Y-48936589D01*
X30714750Y-48935798D01*
X30537492Y-48934335D01*
X30376877Y-48932083D01*
X30231143Y-48928924D01*
X30098530Y-48924739D01*
X29977279Y-48919411D01*
X29865627Y-48912822D01*
X29761816Y-48904853D01*
X29664084Y-48895388D01*
X29570672Y-48884307D01*
X29479819Y-48871492D01*
X29389764Y-48856827D01*
X29298747Y-48840193D01*
X29205008Y-48821471D01*
X29106787Y-48800545D01*
X28526226Y-48656952D01*
X27958387Y-48482272D01*
X27404377Y-48277357D01*
X26865303Y-48043059D01*
X26342273Y-47780233D01*
X25836392Y-47489730D01*
X25348768Y-47172404D01*
X24880509Y-46829108D01*
X24432721Y-46460694D01*
X24006512Y-46068017D01*
X23602987Y-45651928D01*
X23223256Y-45213281D01*
X22868423Y-44752928D01*
X22539597Y-44271723D01*
X22237885Y-43770519D01*
X21964393Y-43250168D01*
X21907187Y-43131817D01*
X21849672Y-43007513D01*
X21792266Y-42878418D01*
X21735386Y-42745694D01*
X21679450Y-42610501D01*
X21624875Y-42474002D01*
X21572079Y-42337357D01*
X21521478Y-42201729D01*
X21473491Y-42068278D01*
X21428535Y-41938167D01*
X21387027Y-41812557D01*
X21349384Y-41692609D01*
X21316024Y-41579484D01*
X21287365Y-41474345D01*
X21263824Y-41378353D01*
X21245818Y-41292669D01*
X21242702Y-41268358D01*
X21242672Y-41251206D01*
X21245763Y-41241259D01*
X21252012Y-41238563D01*
X21261456Y-41243162D01*
G37*
G36*
X32665026Y-28301154D02*
G01*
X32812821Y-28305067D01*
X32977648Y-28311849D01*
X33154308Y-28321244D01*
X33337601Y-28332998D01*
X33522328Y-28346857D01*
X33703289Y-28362567D01*
X33875285Y-28379875D01*
X34033116Y-28398525D01*
X34171583Y-28418264D01*
X34285487Y-28438839D01*
X34962324Y-28613387D01*
X35618708Y-28838379D01*
X36252770Y-29111845D01*
X36862641Y-29431816D01*
X37446450Y-29796323D01*
X38002329Y-30203397D01*
X38528409Y-30651068D01*
X39022820Y-31137369D01*
X39483693Y-31660328D01*
X39909158Y-32217978D01*
X40297347Y-32808350D01*
X40646390Y-33429474D01*
X40954418Y-34079381D01*
X41219562Y-34756102D01*
X41439952Y-35457668D01*
X41613718Y-36182110D01*
X41634645Y-36289132D01*
X41653366Y-36390755D01*
X41670001Y-36488839D01*
X41684666Y-36585244D01*
X41697480Y-36681831D01*
X41708561Y-36780459D01*
X41718027Y-36882989D01*
X41725996Y-36991282D01*
X41732585Y-37107196D01*
X41737913Y-37232593D01*
X41742098Y-37369333D01*
X41745257Y-37519276D01*
X41747509Y-37684282D01*
X41748972Y-37866211D01*
X41749763Y-38066923D01*
X41750000Y-38288280D01*
X41748672Y-38509560D01*
X41746927Y-38710034D01*
X41744637Y-38891542D01*
X41741676Y-39055928D01*
X41737916Y-39205033D01*
X41733231Y-39340699D01*
X41727493Y-39464768D01*
X41720576Y-39579083D01*
X41712351Y-39685485D01*
X41702693Y-39785816D01*
X41691475Y-39881919D01*
X41678568Y-39975635D01*
X41663847Y-40068807D01*
X41647184Y-40163276D01*
X41628452Y-40260885D01*
X41607524Y-40363476D01*
X41524013Y-40723015D01*
X41429295Y-41078834D01*
X41323635Y-41430405D01*
X41207293Y-41777204D01*
X41080535Y-42118703D01*
X40943623Y-42454377D01*
X40796820Y-42783699D01*
X40640389Y-43106143D01*
X40474594Y-43421182D01*
X40299697Y-43728291D01*
X40115963Y-44026942D01*
X39923653Y-44316610D01*
X39723031Y-44596768D01*
X39514360Y-44866890D01*
X39297904Y-45126450D01*
X39073925Y-45374921D01*
X38590745Y-45895269D01*
X38336766Y-45560760D01*
X38310168Y-45524165D01*
X38281656Y-45484331D01*
X38251492Y-45441648D01*
X38219939Y-45396506D01*
X38187262Y-45349295D01*
X38153722Y-45300405D01*
X38119584Y-45250226D01*
X38085110Y-45199149D01*
X38050563Y-45147564D01*
X38016207Y-45095861D01*
X37982304Y-45044430D01*
X37949119Y-44993662D01*
X37916913Y-44943946D01*
X37885950Y-44895673D01*
X37856494Y-44849233D01*
X37828807Y-44805017D01*
X37562439Y-44383783D01*
X37946505Y-43968743D01*
X38144191Y-43743029D01*
X38335145Y-43505417D01*
X38519020Y-43256645D01*
X38695473Y-42997447D01*
X38864158Y-42728557D01*
X39024731Y-42450711D01*
X39176847Y-42164644D01*
X39320161Y-41871091D01*
X39454329Y-41570787D01*
X39579005Y-41264466D01*
X39693844Y-40952865D01*
X39798502Y-40636717D01*
X39892634Y-40316758D01*
X39975896Y-39993723D01*
X40047941Y-39668347D01*
X40108426Y-39341364D01*
X40129345Y-39216013D01*
X40148014Y-39099036D01*
X40164505Y-38988793D01*
X40178890Y-38883640D01*
X40191243Y-38781936D01*
X40201636Y-38682037D01*
X40210142Y-38582302D01*
X40216832Y-38481087D01*
X40221781Y-38376751D01*
X40225060Y-38267651D01*
X40226741Y-38152145D01*
X40226899Y-38028590D01*
X40225604Y-37895343D01*
X40222930Y-37750763D01*
X40218950Y-37593208D01*
X40213735Y-37421033D01*
X40205783Y-37192053D01*
X40195708Y-36975723D01*
X40183273Y-36770607D01*
X40168243Y-36575274D01*
X40150382Y-36388290D01*
X40129454Y-36208219D01*
X40105223Y-36033630D01*
X40077453Y-35863087D01*
X40045909Y-35695158D01*
X40010353Y-35528408D01*
X39970551Y-35361405D01*
X39926266Y-35192713D01*
X39877263Y-35020900D01*
X39823305Y-34844532D01*
X39764156Y-34662175D01*
X39699582Y-34472396D01*
X39551484Y-34076991D01*
X39386209Y-33690216D01*
X39204147Y-33312570D01*
X39005688Y-32944551D01*
X38791222Y-32586659D01*
X38561139Y-32239393D01*
X38315830Y-31903252D01*
X38055685Y-31578735D01*
X37781094Y-31266341D01*
X37492447Y-30966569D01*
X37190134Y-30679918D01*
X36874546Y-30406888D01*
X36546073Y-30147977D01*
X36205104Y-29903684D01*
X35852030Y-29674509D01*
X35487242Y-29460950D01*
X35319145Y-29369484D01*
X35153253Y-29282964D01*
X34988432Y-29200962D01*
X34823547Y-29123053D01*
X34657465Y-29048810D01*
X34489050Y-28977807D01*
X34317169Y-28909616D01*
X34140687Y-28843812D01*
X33958471Y-28779967D01*
X33769385Y-28717657D01*
X33572296Y-28656453D01*
X33366070Y-28595930D01*
X33149571Y-28535661D01*
X32921667Y-28475220D01*
X32681221Y-28414180D01*
X32427101Y-28352114D01*
X32363514Y-28333488D01*
X32348156Y-28319253D01*
X32375828Y-28309157D01*
X32441330Y-28302944D01*
X32539462Y-28300361D01*
X32665026Y-28301154D01*
G37*
G36*
X33530871Y-40619493D02*
G01*
X33560136Y-40620456D01*
X33590924Y-40621964D01*
X33623074Y-40624025D01*
X33656421Y-40626649D01*
X33690803Y-40629845D01*
X33824316Y-40649493D01*
X33961830Y-40682499D01*
X34102556Y-40728281D01*
X34245705Y-40786259D01*
X34390488Y-40855852D01*
X34536114Y-40936478D01*
X34681795Y-41027559D01*
X34826741Y-41128511D01*
X34970163Y-41238756D01*
X35111270Y-41357712D01*
X35249274Y-41484799D01*
X35383386Y-41619435D01*
X35512815Y-41761040D01*
X35636772Y-41909033D01*
X35754468Y-42062834D01*
X35865114Y-42221861D01*
X35895676Y-42269417D01*
X35931319Y-42327908D01*
X35971608Y-42396507D01*
X36016108Y-42474389D01*
X36064382Y-42560728D01*
X36115996Y-42654698D01*
X36170513Y-42755474D01*
X36227499Y-42862230D01*
X36286517Y-42974140D01*
X36347132Y-43090378D01*
X36408909Y-43210119D01*
X36471412Y-43332537D01*
X36534205Y-43456806D01*
X36596853Y-43582100D01*
X36658920Y-43707594D01*
X36719971Y-43832462D01*
X36828229Y-44052623D01*
X36939081Y-44271396D01*
X37052221Y-44488264D01*
X37167339Y-44702709D01*
X37284126Y-44914213D01*
X37402274Y-45122261D01*
X37521475Y-45326334D01*
X37641420Y-45525915D01*
X37761801Y-45720488D01*
X37882309Y-45909534D01*
X38002635Y-46092537D01*
X38122471Y-46268979D01*
X38241509Y-46438343D01*
X38359439Y-46600113D01*
X38475954Y-46753770D01*
X38590745Y-46898797D01*
X38695652Y-47027071D01*
X38805403Y-47158112D01*
X38919184Y-47291059D01*
X39036177Y-47425049D01*
X39155566Y-47559221D01*
X39276533Y-47692712D01*
X39398263Y-47824661D01*
X39519938Y-47954205D01*
X39640742Y-48080482D01*
X39759858Y-48202631D01*
X39876470Y-48319789D01*
X39989761Y-48431094D01*
X40098914Y-48535684D01*
X40203112Y-48632697D01*
X40301539Y-48721271D01*
X40393379Y-48800545D01*
X40440381Y-48839781D01*
X40485996Y-48878364D01*
X40529995Y-48916077D01*
X40572152Y-48952700D01*
X40612240Y-48988016D01*
X40650032Y-49021809D01*
X40685302Y-49053858D01*
X40717822Y-49083948D01*
X40747366Y-49111860D01*
X40773707Y-49137377D01*
X40796617Y-49160280D01*
X40815871Y-49180352D01*
X40831241Y-49197375D01*
X40842501Y-49211132D01*
X40849423Y-49221403D01*
X40851781Y-49227973D01*
X40837700Y-49235868D01*
X40797215Y-49234507D01*
X40732955Y-49224652D01*
X40647552Y-49207066D01*
X40543638Y-49182512D01*
X40423844Y-49151750D01*
X40290802Y-49115545D01*
X40147143Y-49074656D01*
X39995499Y-49029848D01*
X39838501Y-48981882D01*
X39678781Y-48931521D01*
X39518970Y-48879526D01*
X39361700Y-48826660D01*
X39209602Y-48773685D01*
X39065308Y-48721364D01*
X38931449Y-48670458D01*
X38774085Y-48607268D01*
X38604925Y-48536620D01*
X38425384Y-48459184D01*
X38236878Y-48375633D01*
X38040822Y-48286636D01*
X37838632Y-48192867D01*
X37631723Y-48094996D01*
X37421511Y-47993696D01*
X37209412Y-47889636D01*
X36996841Y-47783490D01*
X36785214Y-47675928D01*
X36575946Y-47567622D01*
X36370453Y-47459244D01*
X36170150Y-47351464D01*
X35976454Y-47244955D01*
X35790778Y-47140387D01*
X35378297Y-46901125D01*
X34992774Y-46668278D01*
X34633294Y-46441002D01*
X34298940Y-46218454D01*
X33988797Y-45999790D01*
X33701946Y-45784165D01*
X33437473Y-45570737D01*
X33194460Y-45358661D01*
X32971990Y-45147092D01*
X32769148Y-44935188D01*
X32585017Y-44722105D01*
X32418681Y-44506997D01*
X32269222Y-44289023D01*
X32135725Y-44067337D01*
X32017272Y-43841096D01*
X31912948Y-43609456D01*
X31884356Y-43540509D01*
X31854656Y-43462660D01*
X31824339Y-43377752D01*
X31793895Y-43287626D01*
X31763815Y-43194124D01*
X31734587Y-43099089D01*
X31706702Y-43004363D01*
X31680650Y-42911787D01*
X31656921Y-42823203D01*
X31636005Y-42740455D01*
X31618392Y-42665383D01*
X31604572Y-42599830D01*
X31595036Y-42545637D01*
X31590272Y-42504648D01*
X31590771Y-42478704D01*
X31597023Y-42469646D01*
X31601201Y-42472501D01*
X31608964Y-42480874D01*
X31620121Y-42494473D01*
X31634481Y-42513008D01*
X31651853Y-42536190D01*
X31672048Y-42563727D01*
X31694874Y-42595329D01*
X31720141Y-42630706D01*
X31747658Y-42669568D01*
X31777235Y-42711623D01*
X31808682Y-42756583D01*
X31841807Y-42804155D01*
X31876420Y-42854051D01*
X31912331Y-42905979D01*
X31949349Y-42959650D01*
X31987284Y-43014772D01*
X32077224Y-43147477D01*
X32166129Y-43274111D01*
X32254417Y-43395138D01*
X32342506Y-43511019D01*
X32430813Y-43622218D01*
X32519755Y-43729198D01*
X32609749Y-43832421D01*
X32701213Y-43932350D01*
X32794565Y-44029448D01*
X32890222Y-44124177D01*
X32988601Y-44217001D01*
X33090119Y-44308383D01*
X33195195Y-44398784D01*
X33304245Y-44488668D01*
X33417687Y-44578497D01*
X33535938Y-44668735D01*
X33653038Y-44755346D01*
X33774394Y-44840987D01*
X33900052Y-44925701D01*
X34030055Y-45009536D01*
X34164451Y-45092535D01*
X34303284Y-45174746D01*
X34446600Y-45256212D01*
X34594443Y-45336979D01*
X34746860Y-45417093D01*
X34903896Y-45496600D01*
X35065595Y-45575543D01*
X35232005Y-45653970D01*
X35403169Y-45731924D01*
X35579133Y-45809452D01*
X35759943Y-45886599D01*
X35945644Y-45963410D01*
X36081853Y-46017723D01*
X36200494Y-46064278D01*
X36302149Y-46102721D01*
X36387398Y-46132697D01*
X36456821Y-46153854D01*
X36510999Y-46165836D01*
X36550514Y-46168291D01*
X36575946Y-46160863D01*
X36587876Y-46143201D01*
X36586884Y-46114948D01*
X36573551Y-46075752D01*
X36548458Y-46025259D01*
X36512185Y-45963115D01*
X36465314Y-45888966D01*
X36408425Y-45802457D01*
X36342099Y-45703236D01*
X36271280Y-45596733D01*
X36202684Y-45490611D01*
X36136066Y-45384380D01*
X36071182Y-45277550D01*
X36007785Y-45169631D01*
X35945632Y-45060133D01*
X35884477Y-44948567D01*
X35824075Y-44834441D01*
X35764181Y-44717267D01*
X35704550Y-44596553D01*
X35644937Y-44471811D01*
X35585098Y-44342550D01*
X35524787Y-44208280D01*
X35463758Y-44068511D01*
X35401768Y-43922753D01*
X35338571Y-43770516D01*
X35241611Y-43536371D01*
X35149732Y-43320474D01*
X35061774Y-43120893D01*
X34976573Y-42935694D01*
X34892970Y-42762945D01*
X34809803Y-42600713D01*
X34725909Y-42447065D01*
X34640128Y-42300068D01*
X34551299Y-42157790D01*
X34458258Y-42018298D01*
X34359846Y-41879659D01*
X34254901Y-41739940D01*
X34142260Y-41597208D01*
X34020763Y-41449531D01*
X33889249Y-41294975D01*
X33746555Y-41131609D01*
X33706443Y-41085551D01*
X33667537Y-41040456D01*
X33630029Y-40996558D01*
X33594109Y-40954094D01*
X33559968Y-40913300D01*
X33527795Y-40874411D01*
X33497783Y-40837664D01*
X33470120Y-40803294D01*
X33444998Y-40771538D01*
X33422608Y-40742630D01*
X33403139Y-40716808D01*
X33386783Y-40694308D01*
X33373730Y-40675364D01*
X33364170Y-40660213D01*
X33358295Y-40649091D01*
X33356294Y-40642234D01*
X33358009Y-40637807D01*
X33363045Y-40633825D01*
X33371239Y-40630297D01*
X33382428Y-40627231D01*
X33396447Y-40624638D01*
X33413134Y-40622525D01*
X33432326Y-40620902D01*
X33453859Y-40619779D01*
X33477570Y-40619163D01*
X33503295Y-40619065D01*
X33530871Y-40619493D01*
G37*
G36*
X18164516Y-26002576D02*
G01*
X18214625Y-26008146D01*
X18272111Y-26016647D01*
X18337909Y-26028015D01*
X18412954Y-26042187D01*
X18498180Y-26059100D01*
X18594522Y-26078689D01*
X18872315Y-26143834D01*
X19154772Y-26220621D01*
X19441330Y-26308787D01*
X19731427Y-26408069D01*
X20024501Y-26518203D01*
X20319989Y-26638927D01*
X20617327Y-26769978D01*
X20915954Y-26911091D01*
X21215307Y-27062005D01*
X21514824Y-27222455D01*
X21813941Y-27392180D01*
X22112096Y-27570915D01*
X22408727Y-27758397D01*
X22703271Y-27954364D01*
X22995165Y-28158552D01*
X23283847Y-28370698D01*
X23458746Y-28504493D01*
X23633347Y-28641664D01*
X23808655Y-28783118D01*
X23985678Y-28929762D01*
X24165423Y-29082504D01*
X24348897Y-29242251D01*
X24537109Y-29409911D01*
X24731064Y-29586391D01*
X24931771Y-29772599D01*
X25140236Y-29969441D01*
X25357466Y-30177826D01*
X25584469Y-30398661D01*
X25822253Y-30632852D01*
X26071824Y-30881308D01*
X26334189Y-31144936D01*
X26610356Y-31424644D01*
X27892642Y-32731708D01*
X29707665Y-32985687D01*
X30368816Y-33079873D01*
X30982473Y-33167424D01*
X31549780Y-33248534D01*
X32071879Y-33323391D01*
X32549914Y-33392186D01*
X32985028Y-33455111D01*
X33378365Y-33512355D01*
X33731068Y-33564110D01*
X34044281Y-33610565D01*
X34319146Y-33651911D01*
X34556807Y-33688339D01*
X34758407Y-33720040D01*
X34925090Y-33747203D01*
X35057999Y-33770020D01*
X35158277Y-33788681D01*
X35227068Y-33803377D01*
X35258308Y-33811196D01*
X35291434Y-33820630D01*
X35326158Y-33831552D01*
X35362188Y-33843835D01*
X35399235Y-33857353D01*
X35437008Y-33871977D01*
X35475216Y-33887582D01*
X35513569Y-33904039D01*
X35551778Y-33921223D01*
X35589550Y-33939005D01*
X35626597Y-33957259D01*
X35662627Y-33975858D01*
X35697351Y-33994675D01*
X35730478Y-34013582D01*
X35761717Y-34032454D01*
X35790778Y-34051162D01*
X35851351Y-34094492D01*
X35916171Y-34146924D01*
X35984112Y-34207105D01*
X36054050Y-34273684D01*
X36124858Y-34345308D01*
X36195413Y-34420624D01*
X36264588Y-34498283D01*
X36331259Y-34576930D01*
X36394300Y-34655214D01*
X36452586Y-34731783D01*
X36504992Y-34805285D01*
X36550393Y-34874368D01*
X36587664Y-34937680D01*
X36615679Y-34993869D01*
X36633313Y-35041582D01*
X36639441Y-35079468D01*
X36632567Y-35098527D01*
X36611747Y-35125661D01*
X36576680Y-35161108D01*
X36527067Y-35205103D01*
X36462609Y-35257881D01*
X36383006Y-35319679D01*
X36287958Y-35390732D01*
X36177168Y-35471277D01*
X36050334Y-35561550D01*
X35907157Y-35661786D01*
X35747339Y-35772222D01*
X35570579Y-35893092D01*
X35376578Y-36024634D01*
X35165037Y-36167083D01*
X34935657Y-36320675D01*
X34688137Y-36485646D01*
X32730638Y-37780321D01*
X32910282Y-37972354D01*
X32951670Y-38016944D01*
X32989928Y-38060192D01*
X33025119Y-38102205D01*
X33057307Y-38143093D01*
X33086554Y-38182965D01*
X33112925Y-38221929D01*
X33136483Y-38260095D01*
X33157292Y-38297571D01*
X33175414Y-38334467D01*
X33190915Y-38370891D01*
X33203856Y-38406951D01*
X33214302Y-38442758D01*
X33222316Y-38478419D01*
X33227961Y-38514044D01*
X33231302Y-38549742D01*
X33232402Y-38585621D01*
X33228710Y-38624846D01*
X33217968Y-38670023D01*
X33200674Y-38720427D01*
X33177328Y-38775331D01*
X33148428Y-38834011D01*
X33114474Y-38895739D01*
X33075965Y-38959791D01*
X33033400Y-39025439D01*
X32987277Y-39091959D01*
X32938097Y-39158623D01*
X32886358Y-39224707D01*
X32832558Y-39289485D01*
X32777199Y-39352229D01*
X32720777Y-39412215D01*
X32663793Y-39468717D01*
X32606745Y-39521008D01*
X32582594Y-39541821D01*
X32559015Y-39562362D01*
X32536144Y-39582504D01*
X32514116Y-39602119D01*
X32493069Y-39621081D01*
X32473138Y-39639263D01*
X32454458Y-39656537D01*
X32437168Y-39672776D01*
X32421401Y-39687855D01*
X32407296Y-39701644D01*
X32394987Y-39714018D01*
X32384610Y-39724850D01*
X32376303Y-39734012D01*
X32370200Y-39741377D01*
X32366439Y-39746818D01*
X32365155Y-39750209D01*
X32366584Y-39752600D01*
X32370781Y-39755109D01*
X32377610Y-39757709D01*
X32386933Y-39760372D01*
X32398616Y-39763072D01*
X32412522Y-39765780D01*
X32428515Y-39768471D01*
X32446460Y-39771116D01*
X32466219Y-39773689D01*
X32487656Y-39776161D01*
X32510637Y-39778507D01*
X32535023Y-39780698D01*
X32560680Y-39782708D01*
X32587472Y-39784509D01*
X32615261Y-39786075D01*
X32643913Y-39787377D01*
X32705322Y-39791332D01*
X32766124Y-39798399D01*
X32825854Y-39808352D01*
X32884051Y-39820963D01*
X32940252Y-39836007D01*
X32993994Y-39853255D01*
X33044813Y-39872482D01*
X33092248Y-39893460D01*
X33135836Y-39915962D01*
X33175114Y-39939762D01*
X33209618Y-39964633D01*
X33238887Y-39990347D01*
X33262457Y-40016679D01*
X33279865Y-40043401D01*
X33290650Y-40070286D01*
X33294348Y-40097108D01*
X33292920Y-40108763D01*
X33288734Y-40122697D01*
X33281934Y-40138717D01*
X33272667Y-40156634D01*
X33261076Y-40176257D01*
X33247307Y-40197395D01*
X33231506Y-40219858D01*
X33213818Y-40243456D01*
X33194387Y-40267997D01*
X33173359Y-40293291D01*
X33150880Y-40319148D01*
X33127093Y-40345376D01*
X33102145Y-40371787D01*
X33076181Y-40398188D01*
X33049346Y-40424389D01*
X33021785Y-40450201D01*
X32755416Y-40697986D01*
X33145677Y-41150193D01*
X33235978Y-41255522D01*
X33323349Y-41360108D01*
X33407761Y-41463931D01*
X33489188Y-41566974D01*
X33567602Y-41669219D01*
X33642976Y-41770646D01*
X33715284Y-41871239D01*
X33784497Y-41970979D01*
X33850588Y-42069848D01*
X33913531Y-42167828D01*
X33973298Y-42264900D01*
X34029862Y-42361047D01*
X34083195Y-42456250D01*
X34133271Y-42550491D01*
X34180062Y-42643752D01*
X34223540Y-42736015D01*
X34261526Y-42820112D01*
X34298614Y-42906742D01*
X34334485Y-42994805D01*
X34368823Y-43083203D01*
X34401310Y-43170840D01*
X34431629Y-43256616D01*
X34459461Y-43339435D01*
X34484489Y-43418197D01*
X34506395Y-43491805D01*
X34524862Y-43559161D01*
X34539573Y-43619166D01*
X34550210Y-43670724D01*
X34556454Y-43712736D01*
X34557989Y-43744104D01*
X34554497Y-43763730D01*
X34545660Y-43770516D01*
X34517966Y-43764254D01*
X34473358Y-43746269D01*
X34413795Y-43717759D01*
X34341238Y-43679919D01*
X34257647Y-43633950D01*
X34164982Y-43581047D01*
X34065203Y-43522410D01*
X33960269Y-43459236D01*
X33852142Y-43392723D01*
X33742780Y-43324068D01*
X33634144Y-43254469D01*
X33528195Y-43185124D01*
X33426891Y-43117232D01*
X33332193Y-43051988D01*
X33246061Y-42990593D01*
X33170455Y-42934242D01*
X33081325Y-42863763D01*
X32984726Y-42783611D01*
X32882483Y-42695583D01*
X32776420Y-42601475D01*
X32668360Y-42503084D01*
X32560128Y-42402207D01*
X32453548Y-42300640D01*
X32350443Y-42200180D01*
X32252637Y-42102624D01*
X32161955Y-42009768D01*
X32080220Y-41923410D01*
X32009255Y-41845345D01*
X31950886Y-41777370D01*
X31906935Y-41721283D01*
X31879227Y-41678880D01*
X31869586Y-41651957D01*
X31867659Y-41646852D01*
X31862012Y-41645387D01*
X31852844Y-41647424D01*
X31840355Y-41652828D01*
X31824744Y-41661462D01*
X31806212Y-41673190D01*
X31784957Y-41687877D01*
X31761180Y-41705385D01*
X31735080Y-41725580D01*
X31706856Y-41748324D01*
X31676709Y-41773482D01*
X31644837Y-41800918D01*
X31611442Y-41830495D01*
X31576721Y-41862078D01*
X31540875Y-41895529D01*
X31504103Y-41930714D01*
X31465811Y-41967347D01*
X31427735Y-42002799D01*
X31390096Y-42036909D01*
X31353110Y-42069512D01*
X31316995Y-42100446D01*
X31281968Y-42129547D01*
X31248249Y-42156652D01*
X31216054Y-42181596D01*
X31185601Y-42204218D01*
X31157108Y-42224354D01*
X31130793Y-42241840D01*
X31106874Y-42256512D01*
X31085568Y-42268209D01*
X31067093Y-42276766D01*
X31051667Y-42282020D01*
X31039507Y-42283808D01*
X31015195Y-42280497D01*
X30989031Y-42270971D01*
X30961488Y-42255836D01*
X30933037Y-42235702D01*
X30904151Y-42211177D01*
X30875301Y-42182867D01*
X30846960Y-42151381D01*
X30819598Y-42117327D01*
X30793689Y-42081313D01*
X30769703Y-42043948D01*
X30748112Y-42005838D01*
X30729389Y-41967592D01*
X30714006Y-41929818D01*
X30702433Y-41893123D01*
X30695143Y-41858117D01*
X30692609Y-41825406D01*
X30690448Y-41771971D01*
X30686063Y-41725469D01*
X30679120Y-41685864D01*
X30669282Y-41653118D01*
X30656214Y-41627196D01*
X30639579Y-41608062D01*
X30619043Y-41595679D01*
X30594269Y-41590010D01*
X30564922Y-41591021D01*
X30530665Y-41598673D01*
X30491164Y-41612932D01*
X30446082Y-41633760D01*
X30395084Y-41661121D01*
X30337834Y-41694980D01*
X30273996Y-41735300D01*
X30203234Y-41782044D01*
X30102587Y-41849635D01*
X30011322Y-41908416D01*
X29928369Y-41958431D01*
X29852657Y-41999726D01*
X29783116Y-42032346D01*
X29718675Y-42056337D01*
X29658262Y-42071743D01*
X29600807Y-42078611D01*
X29545240Y-42076985D01*
X29490490Y-42066911D01*
X29435486Y-42048435D01*
X29379156Y-42021601D01*
X29320431Y-41986455D01*
X29258240Y-41943043D01*
X29191512Y-41891410D01*
X29119176Y-41831600D01*
X28790861Y-41546648D01*
X28635996Y-41713903D01*
X28597435Y-41758238D01*
X28545000Y-41820893D01*
X28479480Y-41900880D01*
X28401665Y-41997210D01*
X28312344Y-42108893D01*
X28212306Y-42234940D01*
X28102341Y-42374363D01*
X27983238Y-42526172D01*
X27855787Y-42689378D01*
X27720777Y-42862992D01*
X27578998Y-43046025D01*
X27431240Y-43237488D01*
X27278290Y-43436392D01*
X27120940Y-43641747D01*
X26959978Y-43852566D01*
X26796195Y-44067857D01*
X26730965Y-44151887D01*
X26667814Y-44231942D01*
X26606931Y-44307823D01*
X26548507Y-44379330D01*
X26492732Y-44446264D01*
X26439798Y-44508425D01*
X26389895Y-44565613D01*
X26343213Y-44617629D01*
X26299943Y-44664274D01*
X26260276Y-44705346D01*
X26224401Y-44740648D01*
X26192510Y-44769978D01*
X26164793Y-44793139D01*
X26141441Y-44809929D01*
X26122643Y-44820149D01*
X26108592Y-44823600D01*
X26085001Y-44818589D01*
X26054014Y-44803831D01*
X26016077Y-44779745D01*
X25971633Y-44746749D01*
X25921128Y-44705259D01*
X25865006Y-44655692D01*
X25803711Y-44598468D01*
X25737689Y-44534002D01*
X25667384Y-44462713D01*
X25593241Y-44385017D01*
X25515704Y-44301332D01*
X25435218Y-44212076D01*
X25352227Y-44117665D01*
X25267177Y-44018518D01*
X25180511Y-43915052D01*
X25092675Y-43807683D01*
X25045397Y-43753601D01*
X25004825Y-43708957D01*
X24969534Y-43665473D01*
X24938100Y-43614876D01*
X24909097Y-43548889D01*
X24881102Y-43459236D01*
X24852689Y-43337643D01*
X24822435Y-43175832D01*
X24788913Y-42965530D01*
X24750701Y-42698460D01*
X24706372Y-42366346D01*
X24654503Y-41960913D01*
X24593668Y-41473886D01*
X24522443Y-40896988D01*
X24439404Y-40221944D01*
X24343126Y-39440478D01*
X24307227Y-39148079D01*
X24271682Y-38864137D01*
X24236700Y-38589995D01*
X24202489Y-38326996D01*
X24169258Y-38076483D01*
X24137216Y-37839799D01*
X24106571Y-37618287D01*
X24077532Y-37413290D01*
X24050308Y-37226151D01*
X24025108Y-37058213D01*
X24002140Y-36910818D01*
X23981612Y-36785311D01*
X23963735Y-36683033D01*
X23948715Y-36605328D01*
X23936763Y-36553539D01*
X23928087Y-36529008D01*
X23917821Y-36516280D01*
X23903454Y-36499197D01*
X23885239Y-36478048D01*
X23863431Y-36453124D01*
X23838283Y-36424716D01*
X23810050Y-36393114D01*
X23778987Y-36358608D01*
X23745346Y-36321489D01*
X23709382Y-36282046D01*
X23671349Y-36240571D01*
X23631501Y-36197354D01*
X23590093Y-36152685D01*
X23547378Y-36106855D01*
X23503610Y-36060153D01*
X23459044Y-36012871D01*
X23413934Y-35965298D01*
X23012339Y-35530592D01*
X22625209Y-35099842D01*
X22252488Y-34672940D01*
X21894123Y-34249776D01*
X21550059Y-33830242D01*
X21220241Y-33414229D01*
X20904615Y-33001628D01*
X20603126Y-32592329D01*
X20315721Y-32186225D01*
X20042344Y-31783206D01*
X19782941Y-31383163D01*
X19537459Y-30985988D01*
X19305841Y-30591571D01*
X19088034Y-30199804D01*
X18883984Y-29810577D01*
X18693636Y-29423783D01*
X18614328Y-29250312D01*
X18534802Y-29068004D01*
X18455711Y-28878762D01*
X18377710Y-28684494D01*
X18301451Y-28487104D01*
X18227587Y-28288498D01*
X18156773Y-28090582D01*
X18089660Y-27895261D01*
X18026904Y-27704441D01*
X17969156Y-27520027D01*
X17917070Y-27343925D01*
X17871300Y-27178040D01*
X17832499Y-27024279D01*
X17801320Y-26884546D01*
X17778417Y-26760748D01*
X17764443Y-26654789D01*
X17759159Y-26591911D01*
X17754982Y-26535349D01*
X17752002Y-26484594D01*
X17750312Y-26439139D01*
X17750000Y-26398474D01*
X17751158Y-26362093D01*
X17753878Y-26329487D01*
X17758248Y-26300147D01*
X17764361Y-26273566D01*
X17772307Y-26249235D01*
X17782177Y-26226646D01*
X17794061Y-26205292D01*
X17808050Y-26184663D01*
X17824236Y-26164253D01*
X17842708Y-26143551D01*
X17863557Y-26122052D01*
X17891298Y-26094819D01*
X17917070Y-26071152D01*
X17941808Y-26050988D01*
X17966446Y-26034262D01*
X17991918Y-26020913D01*
X18019160Y-26010875D01*
X18049107Y-26004086D01*
X18082691Y-26000482D01*
X18120850Y-26000000D01*
X18164516Y-26002576D01*
G37*
D11*
X43392857Y-57188152D02*
X43154762Y-57854819D01*
X43154762Y-57854819D02*
X42916667Y-57188152D01*
X42107143Y-57807200D02*
X42202381Y-57854819D01*
X42202381Y-57854819D02*
X42392857Y-57854819D01*
X42392857Y-57854819D02*
X42488095Y-57807200D01*
X42488095Y-57807200D02*
X42535714Y-57759580D01*
X42535714Y-57759580D02*
X42583333Y-57664342D01*
X42583333Y-57664342D02*
X42583333Y-57378628D01*
X42583333Y-57378628D02*
X42535714Y-57283390D01*
X42535714Y-57283390D02*
X42488095Y-57235771D01*
X42488095Y-57235771D02*
X42392857Y-57188152D01*
X42392857Y-57188152D02*
X42202381Y-57188152D01*
X42202381Y-57188152D02*
X42107143Y-57235771D01*
X41250000Y-57854819D02*
X41250000Y-57331009D01*
X41250000Y-57331009D02*
X41297619Y-57235771D01*
X41297619Y-57235771D02*
X41392857Y-57188152D01*
X41392857Y-57188152D02*
X41583333Y-57188152D01*
X41583333Y-57188152D02*
X41678571Y-57235771D01*
X41250000Y-57807200D02*
X41345238Y-57854819D01*
X41345238Y-57854819D02*
X41583333Y-57854819D01*
X41583333Y-57854819D02*
X41678571Y-57807200D01*
X41678571Y-57807200D02*
X41726190Y-57711961D01*
X41726190Y-57711961D02*
X41726190Y-57616723D01*
X41726190Y-57616723D02*
X41678571Y-57521485D01*
X41678571Y-57521485D02*
X41583333Y-57473866D01*
X41583333Y-57473866D02*
X41345238Y-57473866D01*
X41345238Y-57473866D02*
X41250000Y-57426247D01*
X40869047Y-57188152D02*
X40345238Y-57188152D01*
X40345238Y-57188152D02*
X40869047Y-57854819D01*
X40869047Y-57854819D02*
X40345238Y-57854819D01*
X39535714Y-57854819D02*
X39535714Y-57331009D01*
X39535714Y-57331009D02*
X39583333Y-57235771D01*
X39583333Y-57235771D02*
X39678571Y-57188152D01*
X39678571Y-57188152D02*
X39869047Y-57188152D01*
X39869047Y-57188152D02*
X39964285Y-57235771D01*
X39535714Y-57807200D02*
X39630952Y-57854819D01*
X39630952Y-57854819D02*
X39869047Y-57854819D01*
X39869047Y-57854819D02*
X39964285Y-57807200D01*
X39964285Y-57807200D02*
X40011904Y-57711961D01*
X40011904Y-57711961D02*
X40011904Y-57616723D01*
X40011904Y-57616723D02*
X39964285Y-57521485D01*
X39964285Y-57521485D02*
X39869047Y-57473866D01*
X39869047Y-57473866D02*
X39630952Y-57473866D01*
X39630952Y-57473866D02*
X39535714Y-57426247D01*
X39059523Y-57188152D02*
X39059523Y-57854819D01*
X39059523Y-57283390D02*
X39011904Y-57235771D01*
X39011904Y-57235771D02*
X38916666Y-57188152D01*
X38916666Y-57188152D02*
X38773809Y-57188152D01*
X38773809Y-57188152D02*
X38678571Y-57235771D01*
X38678571Y-57235771D02*
X38630952Y-57331009D01*
X38630952Y-57331009D02*
X38630952Y-57854819D01*
X38154761Y-57759580D02*
X38107142Y-57807200D01*
X38107142Y-57807200D02*
X38154761Y-57854819D01*
X38154761Y-57854819D02*
X38202380Y-57807200D01*
X38202380Y-57807200D02*
X38154761Y-57759580D01*
X38154761Y-57759580D02*
X38154761Y-57854819D01*
X37250000Y-57188152D02*
X37250000Y-57997676D01*
X37250000Y-57997676D02*
X37297619Y-58092914D01*
X37297619Y-58092914D02*
X37345238Y-58140533D01*
X37345238Y-58140533D02*
X37440476Y-58188152D01*
X37440476Y-58188152D02*
X37583333Y-58188152D01*
X37583333Y-58188152D02*
X37678571Y-58140533D01*
X37250000Y-57807200D02*
X37345238Y-57854819D01*
X37345238Y-57854819D02*
X37535714Y-57854819D01*
X37535714Y-57854819D02*
X37630952Y-57807200D01*
X37630952Y-57807200D02*
X37678571Y-57759580D01*
X37678571Y-57759580D02*
X37726190Y-57664342D01*
X37726190Y-57664342D02*
X37726190Y-57378628D01*
X37726190Y-57378628D02*
X37678571Y-57283390D01*
X37678571Y-57283390D02*
X37630952Y-57235771D01*
X37630952Y-57235771D02*
X37535714Y-57188152D01*
X37535714Y-57188152D02*
X37345238Y-57188152D01*
X37345238Y-57188152D02*
X37250000Y-57235771D01*
X36773809Y-57854819D02*
X36773809Y-57188152D01*
X36773809Y-56854819D02*
X36821428Y-56902438D01*
X36821428Y-56902438D02*
X36773809Y-56950057D01*
X36773809Y-56950057D02*
X36726190Y-56902438D01*
X36726190Y-56902438D02*
X36773809Y-56854819D01*
X36773809Y-56854819D02*
X36773809Y-56950057D01*
X36440476Y-57188152D02*
X36059524Y-57188152D01*
X36297619Y-56854819D02*
X36297619Y-57711961D01*
X36297619Y-57711961D02*
X36250000Y-57807200D01*
X36250000Y-57807200D02*
X36154762Y-57854819D01*
X36154762Y-57854819D02*
X36059524Y-57854819D01*
X35726190Y-57854819D02*
X35726190Y-56854819D01*
X35297619Y-57854819D02*
X35297619Y-57331009D01*
X35297619Y-57331009D02*
X35345238Y-57235771D01*
X35345238Y-57235771D02*
X35440476Y-57188152D01*
X35440476Y-57188152D02*
X35583333Y-57188152D01*
X35583333Y-57188152D02*
X35678571Y-57235771D01*
X35678571Y-57235771D02*
X35726190Y-57283390D01*
X34392857Y-57188152D02*
X34392857Y-57854819D01*
X34821428Y-57188152D02*
X34821428Y-57711961D01*
X34821428Y-57711961D02*
X34773809Y-57807200D01*
X34773809Y-57807200D02*
X34678571Y-57854819D01*
X34678571Y-57854819D02*
X34535714Y-57854819D01*
X34535714Y-57854819D02*
X34440476Y-57807200D01*
X34440476Y-57807200D02*
X34392857Y-57759580D01*
X33916666Y-57854819D02*
X33916666Y-56854819D01*
X33916666Y-57235771D02*
X33821428Y-57188152D01*
X33821428Y-57188152D02*
X33630952Y-57188152D01*
X33630952Y-57188152D02*
X33535714Y-57235771D01*
X33535714Y-57235771D02*
X33488095Y-57283390D01*
X33488095Y-57283390D02*
X33440476Y-57378628D01*
X33440476Y-57378628D02*
X33440476Y-57664342D01*
X33440476Y-57664342D02*
X33488095Y-57759580D01*
X33488095Y-57759580D02*
X33535714Y-57807200D01*
X33535714Y-57807200D02*
X33630952Y-57854819D01*
X33630952Y-57854819D02*
X33821428Y-57854819D01*
X33821428Y-57854819D02*
X33916666Y-57807200D01*
X33011904Y-57759580D02*
X32964285Y-57807200D01*
X32964285Y-57807200D02*
X33011904Y-57854819D01*
X33011904Y-57854819D02*
X33059523Y-57807200D01*
X33059523Y-57807200D02*
X33011904Y-57759580D01*
X33011904Y-57759580D02*
X33011904Y-57854819D01*
X32535714Y-57854819D02*
X32535714Y-57188152D01*
X32535714Y-56854819D02*
X32583333Y-56902438D01*
X32583333Y-56902438D02*
X32535714Y-56950057D01*
X32535714Y-56950057D02*
X32488095Y-56902438D01*
X32488095Y-56902438D02*
X32535714Y-56854819D01*
X32535714Y-56854819D02*
X32535714Y-56950057D01*
X31916667Y-57854819D02*
X32011905Y-57807200D01*
X32011905Y-57807200D02*
X32059524Y-57759580D01*
X32059524Y-57759580D02*
X32107143Y-57664342D01*
X32107143Y-57664342D02*
X32107143Y-57378628D01*
X32107143Y-57378628D02*
X32059524Y-57283390D01*
X32059524Y-57283390D02*
X32011905Y-57235771D01*
X32011905Y-57235771D02*
X31916667Y-57188152D01*
X31916667Y-57188152D02*
X31773810Y-57188152D01*
X31773810Y-57188152D02*
X31678572Y-57235771D01*
X31678572Y-57235771D02*
X31630953Y-57283390D01*
X31630953Y-57283390D02*
X31583334Y-57378628D01*
X31583334Y-57378628D02*
X31583334Y-57664342D01*
X31583334Y-57664342D02*
X31630953Y-57759580D01*
X31630953Y-57759580D02*
X31678572Y-57807200D01*
X31678572Y-57807200D02*
X31773810Y-57854819D01*
X31773810Y-57854819D02*
X31916667Y-57854819D01*
X30440477Y-56807200D02*
X31297619Y-58092914D01*
X29964286Y-57854819D02*
X30059524Y-57807200D01*
X30059524Y-57807200D02*
X30107143Y-57759580D01*
X30107143Y-57759580D02*
X30154762Y-57664342D01*
X30154762Y-57664342D02*
X30154762Y-57378628D01*
X30154762Y-57378628D02*
X30107143Y-57283390D01*
X30107143Y-57283390D02*
X30059524Y-57235771D01*
X30059524Y-57235771D02*
X29964286Y-57188152D01*
X29964286Y-57188152D02*
X29821429Y-57188152D01*
X29821429Y-57188152D02*
X29726191Y-57235771D01*
X29726191Y-57235771D02*
X29678572Y-57283390D01*
X29678572Y-57283390D02*
X29630953Y-57378628D01*
X29630953Y-57378628D02*
X29630953Y-57664342D01*
X29630953Y-57664342D02*
X29678572Y-57759580D01*
X29678572Y-57759580D02*
X29726191Y-57807200D01*
X29726191Y-57807200D02*
X29821429Y-57854819D01*
X29821429Y-57854819D02*
X29964286Y-57854819D01*
X29202381Y-57188152D02*
X29202381Y-58188152D01*
X29202381Y-57235771D02*
X29107143Y-57188152D01*
X29107143Y-57188152D02*
X28916667Y-57188152D01*
X28916667Y-57188152D02*
X28821429Y-57235771D01*
X28821429Y-57235771D02*
X28773810Y-57283390D01*
X28773810Y-57283390D02*
X28726191Y-57378628D01*
X28726191Y-57378628D02*
X28726191Y-57664342D01*
X28726191Y-57664342D02*
X28773810Y-57759580D01*
X28773810Y-57759580D02*
X28821429Y-57807200D01*
X28821429Y-57807200D02*
X28916667Y-57854819D01*
X28916667Y-57854819D02*
X29107143Y-57854819D01*
X29107143Y-57854819D02*
X29202381Y-57807200D01*
X27916667Y-57807200D02*
X28011905Y-57854819D01*
X28011905Y-57854819D02*
X28202381Y-57854819D01*
X28202381Y-57854819D02*
X28297619Y-57807200D01*
X28297619Y-57807200D02*
X28345238Y-57711961D01*
X28345238Y-57711961D02*
X28345238Y-57331009D01*
X28345238Y-57331009D02*
X28297619Y-57235771D01*
X28297619Y-57235771D02*
X28202381Y-57188152D01*
X28202381Y-57188152D02*
X28011905Y-57188152D01*
X28011905Y-57188152D02*
X27916667Y-57235771D01*
X27916667Y-57235771D02*
X27869048Y-57331009D01*
X27869048Y-57331009D02*
X27869048Y-57426247D01*
X27869048Y-57426247D02*
X28345238Y-57521485D01*
X27440476Y-57188152D02*
X27440476Y-57854819D01*
X27440476Y-57283390D02*
X27392857Y-57235771D01*
X27392857Y-57235771D02*
X27297619Y-57188152D01*
X27297619Y-57188152D02*
X27154762Y-57188152D01*
X27154762Y-57188152D02*
X27059524Y-57235771D01*
X27059524Y-57235771D02*
X27011905Y-57331009D01*
X27011905Y-57331009D02*
X27011905Y-57854819D01*
X26535714Y-57473866D02*
X25773810Y-57473866D01*
X25345238Y-57807200D02*
X25250000Y-57854819D01*
X25250000Y-57854819D02*
X25059524Y-57854819D01*
X25059524Y-57854819D02*
X24964286Y-57807200D01*
X24964286Y-57807200D02*
X24916667Y-57711961D01*
X24916667Y-57711961D02*
X24916667Y-57664342D01*
X24916667Y-57664342D02*
X24964286Y-57569104D01*
X24964286Y-57569104D02*
X25059524Y-57521485D01*
X25059524Y-57521485D02*
X25202381Y-57521485D01*
X25202381Y-57521485D02*
X25297619Y-57473866D01*
X25297619Y-57473866D02*
X25345238Y-57378628D01*
X25345238Y-57378628D02*
X25345238Y-57331009D01*
X25345238Y-57331009D02*
X25297619Y-57235771D01*
X25297619Y-57235771D02*
X25202381Y-57188152D01*
X25202381Y-57188152D02*
X25059524Y-57188152D01*
X25059524Y-57188152D02*
X24964286Y-57235771D01*
X24059524Y-57807200D02*
X24154762Y-57854819D01*
X24154762Y-57854819D02*
X24345238Y-57854819D01*
X24345238Y-57854819D02*
X24440476Y-57807200D01*
X24440476Y-57807200D02*
X24488095Y-57759580D01*
X24488095Y-57759580D02*
X24535714Y-57664342D01*
X24535714Y-57664342D02*
X24535714Y-57378628D01*
X24535714Y-57378628D02*
X24488095Y-57283390D01*
X24488095Y-57283390D02*
X24440476Y-57235771D01*
X24440476Y-57235771D02*
X24345238Y-57188152D01*
X24345238Y-57188152D02*
X24154762Y-57188152D01*
X24154762Y-57188152D02*
X24059524Y-57235771D01*
X23630952Y-57854819D02*
X23630952Y-57188152D01*
X23630952Y-57378628D02*
X23583333Y-57283390D01*
X23583333Y-57283390D02*
X23535714Y-57235771D01*
X23535714Y-57235771D02*
X23440476Y-57188152D01*
X23440476Y-57188152D02*
X23345238Y-57188152D01*
X22630952Y-57807200D02*
X22726190Y-57854819D01*
X22726190Y-57854819D02*
X22916666Y-57854819D01*
X22916666Y-57854819D02*
X23011904Y-57807200D01*
X23011904Y-57807200D02*
X23059523Y-57711961D01*
X23059523Y-57711961D02*
X23059523Y-57331009D01*
X23059523Y-57331009D02*
X23011904Y-57235771D01*
X23011904Y-57235771D02*
X22916666Y-57188152D01*
X22916666Y-57188152D02*
X22726190Y-57188152D01*
X22726190Y-57188152D02*
X22630952Y-57235771D01*
X22630952Y-57235771D02*
X22583333Y-57331009D01*
X22583333Y-57331009D02*
X22583333Y-57426247D01*
X22583333Y-57426247D02*
X23059523Y-57521485D01*
X21773809Y-57807200D02*
X21869047Y-57854819D01*
X21869047Y-57854819D02*
X22059523Y-57854819D01*
X22059523Y-57854819D02*
X22154761Y-57807200D01*
X22154761Y-57807200D02*
X22202380Y-57711961D01*
X22202380Y-57711961D02*
X22202380Y-57331009D01*
X22202380Y-57331009D02*
X22154761Y-57235771D01*
X22154761Y-57235771D02*
X22059523Y-57188152D01*
X22059523Y-57188152D02*
X21869047Y-57188152D01*
X21869047Y-57188152D02*
X21773809Y-57235771D01*
X21773809Y-57235771D02*
X21726190Y-57331009D01*
X21726190Y-57331009D02*
X21726190Y-57426247D01*
X21726190Y-57426247D02*
X22202380Y-57521485D01*
X21297618Y-57188152D02*
X21297618Y-57854819D01*
X21297618Y-57283390D02*
X21249999Y-57235771D01*
X21249999Y-57235771D02*
X21154761Y-57188152D01*
X21154761Y-57188152D02*
X21011904Y-57188152D01*
X21011904Y-57188152D02*
X20916666Y-57235771D01*
X20916666Y-57235771D02*
X20869047Y-57331009D01*
X20869047Y-57331009D02*
X20869047Y-57854819D01*
X20392856Y-57473866D02*
X19630952Y-57473866D01*
X18726190Y-57854819D02*
X18726190Y-56854819D01*
X18726190Y-57807200D02*
X18821428Y-57854819D01*
X18821428Y-57854819D02*
X19011904Y-57854819D01*
X19011904Y-57854819D02*
X19107142Y-57807200D01*
X19107142Y-57807200D02*
X19154761Y-57759580D01*
X19154761Y-57759580D02*
X19202380Y-57664342D01*
X19202380Y-57664342D02*
X19202380Y-57378628D01*
X19202380Y-57378628D02*
X19154761Y-57283390D01*
X19154761Y-57283390D02*
X19107142Y-57235771D01*
X19107142Y-57235771D02*
X19011904Y-57188152D01*
X19011904Y-57188152D02*
X18821428Y-57188152D01*
X18821428Y-57188152D02*
X18726190Y-57235771D01*
X17869047Y-57807200D02*
X17964285Y-57854819D01*
X17964285Y-57854819D02*
X18154761Y-57854819D01*
X18154761Y-57854819D02*
X18249999Y-57807200D01*
X18249999Y-57807200D02*
X18297618Y-57711961D01*
X18297618Y-57711961D02*
X18297618Y-57331009D01*
X18297618Y-57331009D02*
X18249999Y-57235771D01*
X18249999Y-57235771D02*
X18154761Y-57188152D01*
X18154761Y-57188152D02*
X17964285Y-57188152D01*
X17964285Y-57188152D02*
X17869047Y-57235771D01*
X17869047Y-57235771D02*
X17821428Y-57331009D01*
X17821428Y-57331009D02*
X17821428Y-57426247D01*
X17821428Y-57426247D02*
X18297618Y-57521485D01*
X16964285Y-57807200D02*
X17059523Y-57854819D01*
X17059523Y-57854819D02*
X17249999Y-57854819D01*
X17249999Y-57854819D02*
X17345237Y-57807200D01*
X17345237Y-57807200D02*
X17392856Y-57759580D01*
X17392856Y-57759580D02*
X17440475Y-57664342D01*
X17440475Y-57664342D02*
X17440475Y-57378628D01*
X17440475Y-57378628D02*
X17392856Y-57283390D01*
X17392856Y-57283390D02*
X17345237Y-57235771D01*
X17345237Y-57235771D02*
X17249999Y-57188152D01*
X17249999Y-57188152D02*
X17059523Y-57188152D01*
X17059523Y-57188152D02*
X16964285Y-57235771D01*
X16535713Y-57854819D02*
X16535713Y-56854819D01*
X16440475Y-57473866D02*
X16154761Y-57854819D01*
X16154761Y-57188152D02*
X16535713Y-57569104D01*
D12*
X46626190Y-53377710D02*
X46321428Y-53377710D01*
X46321428Y-53377710D02*
X46169047Y-53453900D01*
X46169047Y-53453900D02*
X46016666Y-53606281D01*
X46016666Y-53606281D02*
X45940476Y-53911043D01*
X45940476Y-53911043D02*
X45940476Y-54444377D01*
X45940476Y-54444377D02*
X46016666Y-54749139D01*
X46016666Y-54749139D02*
X46169047Y-54901520D01*
X46169047Y-54901520D02*
X46321428Y-54977710D01*
X46321428Y-54977710D02*
X46626190Y-54977710D01*
X46626190Y-54977710D02*
X46778571Y-54901520D01*
X46778571Y-54901520D02*
X46930952Y-54749139D01*
X46930952Y-54749139D02*
X47007143Y-54444377D01*
X47007143Y-54444377D02*
X47007143Y-53911043D01*
X47007143Y-53911043D02*
X46930952Y-53606281D01*
X46930952Y-53606281D02*
X46778571Y-53453900D01*
X46778571Y-53453900D02*
X46626190Y-53377710D01*
X45254762Y-54977710D02*
X45254762Y-53377710D01*
X45254762Y-53377710D02*
X44645238Y-53377710D01*
X44645238Y-53377710D02*
X44492857Y-53453900D01*
X44492857Y-53453900D02*
X44416667Y-53530091D01*
X44416667Y-53530091D02*
X44340476Y-53682472D01*
X44340476Y-53682472D02*
X44340476Y-53911043D01*
X44340476Y-53911043D02*
X44416667Y-54063424D01*
X44416667Y-54063424D02*
X44492857Y-54139615D01*
X44492857Y-54139615D02*
X44645238Y-54215805D01*
X44645238Y-54215805D02*
X45254762Y-54215805D01*
X43654762Y-54139615D02*
X43121429Y-54139615D01*
X42892857Y-54977710D02*
X43654762Y-54977710D01*
X43654762Y-54977710D02*
X43654762Y-53377710D01*
X43654762Y-53377710D02*
X42892857Y-53377710D01*
X42207143Y-54977710D02*
X42207143Y-53377710D01*
X42207143Y-53377710D02*
X41292857Y-54977710D01*
X41292857Y-54977710D02*
X41292857Y-53377710D01*
X39388096Y-54901520D02*
X39159524Y-54977710D01*
X39159524Y-54977710D02*
X38778572Y-54977710D01*
X38778572Y-54977710D02*
X38626191Y-54901520D01*
X38626191Y-54901520D02*
X38550000Y-54825329D01*
X38550000Y-54825329D02*
X38473810Y-54672948D01*
X38473810Y-54672948D02*
X38473810Y-54520567D01*
X38473810Y-54520567D02*
X38550000Y-54368186D01*
X38550000Y-54368186D02*
X38626191Y-54291996D01*
X38626191Y-54291996D02*
X38778572Y-54215805D01*
X38778572Y-54215805D02*
X39083334Y-54139615D01*
X39083334Y-54139615D02*
X39235715Y-54063424D01*
X39235715Y-54063424D02*
X39311905Y-53987234D01*
X39311905Y-53987234D02*
X39388096Y-53834853D01*
X39388096Y-53834853D02*
X39388096Y-53682472D01*
X39388096Y-53682472D02*
X39311905Y-53530091D01*
X39311905Y-53530091D02*
X39235715Y-53453900D01*
X39235715Y-53453900D02*
X39083334Y-53377710D01*
X39083334Y-53377710D02*
X38702381Y-53377710D01*
X38702381Y-53377710D02*
X38473810Y-53453900D01*
X36873809Y-54825329D02*
X36950000Y-54901520D01*
X36950000Y-54901520D02*
X37178571Y-54977710D01*
X37178571Y-54977710D02*
X37330952Y-54977710D01*
X37330952Y-54977710D02*
X37559524Y-54901520D01*
X37559524Y-54901520D02*
X37711905Y-54749139D01*
X37711905Y-54749139D02*
X37788095Y-54596758D01*
X37788095Y-54596758D02*
X37864286Y-54291996D01*
X37864286Y-54291996D02*
X37864286Y-54063424D01*
X37864286Y-54063424D02*
X37788095Y-53758662D01*
X37788095Y-53758662D02*
X37711905Y-53606281D01*
X37711905Y-53606281D02*
X37559524Y-53453900D01*
X37559524Y-53453900D02*
X37330952Y-53377710D01*
X37330952Y-53377710D02*
X37178571Y-53377710D01*
X37178571Y-53377710D02*
X36950000Y-53453900D01*
X36950000Y-53453900D02*
X36873809Y-53530091D01*
X35273809Y-54977710D02*
X35807143Y-54215805D01*
X36188095Y-54977710D02*
X36188095Y-53377710D01*
X36188095Y-53377710D02*
X35578571Y-53377710D01*
X35578571Y-53377710D02*
X35426190Y-53453900D01*
X35426190Y-53453900D02*
X35350000Y-53530091D01*
X35350000Y-53530091D02*
X35273809Y-53682472D01*
X35273809Y-53682472D02*
X35273809Y-53911043D01*
X35273809Y-53911043D02*
X35350000Y-54063424D01*
X35350000Y-54063424D02*
X35426190Y-54139615D01*
X35426190Y-54139615D02*
X35578571Y-54215805D01*
X35578571Y-54215805D02*
X36188095Y-54215805D01*
X34588095Y-54139615D02*
X34054762Y-54139615D01*
X33826190Y-54977710D02*
X34588095Y-54977710D01*
X34588095Y-54977710D02*
X34588095Y-53377710D01*
X34588095Y-53377710D02*
X33826190Y-53377710D01*
X33140476Y-54139615D02*
X32607143Y-54139615D01*
X32378571Y-54977710D02*
X33140476Y-54977710D01*
X33140476Y-54977710D02*
X33140476Y-53377710D01*
X33140476Y-53377710D02*
X32378571Y-53377710D01*
X31692857Y-54977710D02*
X31692857Y-53377710D01*
X31692857Y-53377710D02*
X30778571Y-54977710D01*
X30778571Y-54977710D02*
X30778571Y-53377710D01*
X28797619Y-54977710D02*
X28797619Y-53377710D01*
X28797619Y-53377710D02*
X28416667Y-53377710D01*
X28416667Y-53377710D02*
X28188095Y-53453900D01*
X28188095Y-53453900D02*
X28035714Y-53606281D01*
X28035714Y-53606281D02*
X27959524Y-53758662D01*
X27959524Y-53758662D02*
X27883333Y-54063424D01*
X27883333Y-54063424D02*
X27883333Y-54291996D01*
X27883333Y-54291996D02*
X27959524Y-54596758D01*
X27959524Y-54596758D02*
X28035714Y-54749139D01*
X28035714Y-54749139D02*
X28188095Y-54901520D01*
X28188095Y-54901520D02*
X28416667Y-54977710D01*
X28416667Y-54977710D02*
X28797619Y-54977710D01*
X27197619Y-54139615D02*
X26664286Y-54139615D01*
X26435714Y-54977710D02*
X27197619Y-54977710D01*
X27197619Y-54977710D02*
X27197619Y-53377710D01*
X27197619Y-53377710D02*
X26435714Y-53377710D01*
X24835714Y-54825329D02*
X24911905Y-54901520D01*
X24911905Y-54901520D02*
X25140476Y-54977710D01*
X25140476Y-54977710D02*
X25292857Y-54977710D01*
X25292857Y-54977710D02*
X25521429Y-54901520D01*
X25521429Y-54901520D02*
X25673810Y-54749139D01*
X25673810Y-54749139D02*
X25750000Y-54596758D01*
X25750000Y-54596758D02*
X25826191Y-54291996D01*
X25826191Y-54291996D02*
X25826191Y-54063424D01*
X25826191Y-54063424D02*
X25750000Y-53758662D01*
X25750000Y-53758662D02*
X25673810Y-53606281D01*
X25673810Y-53606281D02*
X25521429Y-53453900D01*
X25521429Y-53453900D02*
X25292857Y-53377710D01*
X25292857Y-53377710D02*
X25140476Y-53377710D01*
X25140476Y-53377710D02*
X24911905Y-53453900D01*
X24911905Y-53453900D02*
X24835714Y-53530091D01*
X24150000Y-54977710D02*
X24150000Y-53377710D01*
X23235714Y-54977710D02*
X23921429Y-54063424D01*
X23235714Y-53377710D02*
X24150000Y-54291996D01*
X21102381Y-54291996D02*
X21178571Y-54368186D01*
X21178571Y-54368186D02*
X21102381Y-54444377D01*
X21102381Y-54444377D02*
X21026190Y-54368186D01*
X21026190Y-54368186D02*
X21102381Y-54291996D01*
X21102381Y-54291996D02*
X21102381Y-54444377D01*
X17978570Y-54977710D02*
X18511904Y-54215805D01*
X18892856Y-54977710D02*
X18892856Y-53377710D01*
X18892856Y-53377710D02*
X18283332Y-53377710D01*
X18283332Y-53377710D02*
X18130951Y-53453900D01*
X18130951Y-53453900D02*
X18054761Y-53530091D01*
X18054761Y-53530091D02*
X17978570Y-53682472D01*
X17978570Y-53682472D02*
X17978570Y-53911043D01*
X17978570Y-53911043D02*
X18054761Y-54063424D01*
X18054761Y-54063424D02*
X18130951Y-54139615D01*
X18130951Y-54139615D02*
X18283332Y-54215805D01*
X18283332Y-54215805D02*
X18892856Y-54215805D01*
X17292856Y-54139615D02*
X16759523Y-54139615D01*
X16530951Y-54977710D02*
X17292856Y-54977710D01*
X17292856Y-54977710D02*
X17292856Y-53377710D01*
X17292856Y-53377710D02*
X16530951Y-53377710D01*
X16073809Y-53377710D02*
X15540475Y-54977710D01*
X15540475Y-54977710D02*
X15007142Y-53377710D01*
X13254760Y-54139615D02*
X12721427Y-54139615D01*
X12492855Y-54977710D02*
X13254760Y-54977710D01*
X13254760Y-54977710D02*
X13254760Y-53377710D01*
X13254760Y-53377710D02*
X12492855Y-53377710D01*
M02*
