%TF.GenerationSoftware,KiCad,Pcbnew,10.0.4*%
%TF.CreationDate,2026-07-13T22:32:36-04:00*%
%TF.ProjectId,data_streamdeck,64617461-5f73-4747-9265-616d6465636b,C*%
%TF.SameCoordinates,Original*%
%TF.FileFunction,Paste,Top*%
%TF.FilePolarity,Positive*%
%FSLAX46Y46*%
G04 Gerber Fmt 4.6, Leading zero omitted, Abs format (unit mm)*
G04 Created by KiCad (PCBNEW 10.0.4) date 2026-07-13 22:32:36*
%MOMM*%
%LPD*%
G01*
G04 APERTURE LIST*
G04 Aperture macros list*
%AMRoundRect*
0 Rectangle with rounded corners*
0 $1 Rounding radius*
0 $2 $3 $4 $5 $6 $7 $8 $9 X,Y pos of 4 corners*
0 Add a 4 corners polygon primitive as box body*
4,1,4,$2,$3,$4,$5,$6,$7,$8,$9,$2,$3,0*
0 Add four circle primitives for the rounded corners*
1,1,$1+$1,$2,$3*
1,1,$1+$1,$4,$5*
1,1,$1+$1,$6,$7*
1,1,$1+$1,$8,$9*
0 Add four rect primitives between the rounded corners*
20,1,$1+$1,$2,$3,$4,$5,0*
20,1,$1+$1,$4,$5,$6,$7,0*
20,1,$1+$1,$6,$7,$8,$9,0*
20,1,$1+$1,$8,$9,$2,$3,0*%
G04 Aperture macros list end*
%ADD10RoundRect,0.150000X0.150000X0.425000X-0.150000X0.425000X-0.150000X-0.425000X0.150000X-0.425000X0*%
%ADD11RoundRect,0.075000X0.075000X0.500000X-0.075000X0.500000X-0.075000X-0.500000X0.075000X-0.500000X0*%
%ADD12O,1.000000X2.100000*%
%ADD13O,1.000000X1.800000*%
%ADD14R,0.900000X0.900000*%
%ADD15R,0.900000X1.500000*%
%ADD16R,1.500000X0.900000*%
%ADD17RoundRect,0.135000X-0.185000X0.135000X-0.185000X-0.135000X0.185000X-0.135000X0.185000X0.135000X0*%
%ADD18RoundRect,0.140000X0.170000X-0.140000X0.170000X0.140000X-0.170000X0.140000X-0.170000X-0.140000X0*%
%ADD19RoundRect,0.375000X0.625000X0.375000X-0.625000X0.375000X-0.625000X-0.375000X0.625000X-0.375000X0*%
%ADD20RoundRect,0.500000X0.500000X1.400000X-0.500000X1.400000X-0.500000X-1.400000X0.500000X-1.400000X0*%
%ADD21RoundRect,0.140000X-0.140000X-0.170000X0.140000X-0.170000X0.140000X0.170000X-0.140000X0.170000X0*%
%ADD22R,0.900000X1.000000*%
%ADD23RoundRect,0.200000X0.600000X-0.200000X0.600000X0.200000X-0.600000X0.200000X-0.600000X-0.200000X0*%
%ADD24RoundRect,0.250001X1.249999X-0.799999X1.249999X0.799999X-1.249999X0.799999X-1.249999X-0.799999X0*%
%ADD25RoundRect,0.200000X-0.600000X0.200000X-0.600000X-0.200000X0.600000X-0.200000X0.600000X0.200000X0*%
%ADD26RoundRect,0.250001X-1.249999X0.799999X-1.249999X-0.799999X1.249999X-0.799999X1.249999X0.799999X0*%
%ADD27RoundRect,0.135000X0.185000X-0.135000X0.185000X0.135000X-0.185000X0.135000X-0.185000X-0.135000X0*%
%ADD28RoundRect,0.250000X0.475000X-0.250000X0.475000X0.250000X-0.475000X0.250000X-0.475000X-0.250000X0*%
%ADD29RoundRect,0.150000X-0.150000X0.512500X-0.150000X-0.512500X0.150000X-0.512500X0.150000X0.512500X0*%
%ADD30R,1.750000X0.700000*%
%ADD31R,1.000000X1.450000*%
%ADD32R,1.550000X1.000000*%
%ADD33R,1.500000X0.800000*%
%ADD34R,1.500000X1.300000*%
%ADD35R,1.500000X1.500000*%
%ADD36R,1.400000X0.800000*%
%ADD37RoundRect,0.135000X-0.135000X-0.185000X0.135000X-0.185000X0.135000X0.185000X-0.135000X0.185000X0*%
G04 APERTURE END LIST*
D10*
%TO.C,J7*%
X30700000Y-6780000D03*
X29900000Y-6780000D03*
D11*
X28750000Y-6780000D03*
X27750000Y-6780000D03*
X27250000Y-6780000D03*
X26250000Y-6780000D03*
D10*
X25100000Y-6780000D03*
X24300000Y-6780000D03*
X24300000Y-6780000D03*
X25100000Y-6780000D03*
D11*
X25750000Y-6780000D03*
X26750000Y-6780000D03*
X28250000Y-6780000D03*
X29250000Y-6780000D03*
D10*
X29900000Y-6780000D03*
X30700000Y-6780000D03*
D12*
X31820000Y-6205000D03*
D13*
X31820000Y-2025000D03*
D12*
X23180000Y-6205000D03*
D13*
X23180000Y-2025000D03*
%TD*%
D14*
%TO.C,U1*%
X28560000Y-39600000D03*
X29960000Y-39600000D03*
X31360000Y-39600000D03*
X28560000Y-38200000D03*
X29960000Y-38200000D03*
X31360000Y-38200000D03*
X28560000Y-36800000D03*
X29960000Y-36800000D03*
X31360000Y-36800000D03*
D15*
X22240000Y-45450000D03*
X23510000Y-45450000D03*
X24780000Y-45450000D03*
X26050000Y-45450000D03*
X27320000Y-45450000D03*
X28590000Y-45450000D03*
X29860000Y-45450000D03*
X31130000Y-45450000D03*
X32400000Y-45450000D03*
X33670000Y-45450000D03*
X34940000Y-45450000D03*
X36210000Y-45450000D03*
X37480000Y-45450000D03*
X38750000Y-45450000D03*
D16*
X40000000Y-43685000D03*
X40000000Y-42415000D03*
X40000000Y-41145000D03*
X40000000Y-39875000D03*
X40000000Y-38605000D03*
X40000000Y-37335000D03*
X40000000Y-36065000D03*
X40000000Y-34795000D03*
X40000000Y-33525000D03*
X40000000Y-32255000D03*
X40000000Y-30985000D03*
X40000000Y-29715000D03*
D15*
X38750000Y-27950000D03*
X37480000Y-27950000D03*
X36210000Y-27950000D03*
X34940000Y-27950000D03*
X33670000Y-27950000D03*
X32400000Y-27950000D03*
X31130000Y-27950000D03*
X29860000Y-27950000D03*
X28590000Y-27950000D03*
X27320000Y-27950000D03*
X26050000Y-27950000D03*
X24780000Y-27950000D03*
X23510000Y-27950000D03*
X22240000Y-27950000D03*
%TD*%
D17*
%TO.C,R2*%
X46000000Y-10090000D03*
X46000000Y-11110000D03*
%TD*%
D18*
%TO.C,C2*%
X46000000Y-15080000D03*
X46000000Y-14120000D03*
%TD*%
D17*
%TO.C,R4*%
X46000000Y-48390000D03*
X46000000Y-49410000D03*
%TD*%
D19*
%TO.C,U2*%
X16150000Y-6800000D03*
X16150000Y-4500000D03*
D20*
X9850000Y-4500000D03*
D19*
X16150000Y-2200000D03*
%TD*%
D21*
%TO.C,C11*%
X29520000Y-51500000D03*
X30480000Y-51500000D03*
%TD*%
D22*
%TO.C,SW1*%
X35450000Y-3200000D03*
X39550000Y-3200000D03*
X35450000Y-4800000D03*
X39550000Y-4800000D03*
%TD*%
D18*
%TO.C,C5*%
X9000000Y-90680000D03*
X9000000Y-89720000D03*
%TD*%
D17*
%TO.C,R3*%
X9000000Y-59390000D03*
X9000000Y-60410000D03*
%TD*%
D23*
%TO.C,J5*%
X10600000Y-99200000D03*
X10600000Y-97950000D03*
X10600000Y-96700000D03*
X10600000Y-95450000D03*
X10600000Y-94200000D03*
X10600000Y-92950000D03*
X10600000Y-91700000D03*
X10600000Y-90450000D03*
X10600000Y-89200000D03*
D24*
X13500000Y-101750000D03*
X13500000Y-86650000D03*
%TD*%
D25*
%TO.C,J6*%
X44300000Y-89200000D03*
X44300000Y-90450000D03*
X44300000Y-91700000D03*
X44300000Y-92950000D03*
X44300000Y-94200000D03*
X44300000Y-95450000D03*
X44300000Y-96700000D03*
X44300000Y-97950000D03*
X44300000Y-99200000D03*
D26*
X41400000Y-86650000D03*
X41400000Y-101750000D03*
%TD*%
D21*
%TO.C,C9*%
X23020000Y-51500000D03*
X23980000Y-51500000D03*
%TD*%
%TO.C,C10*%
X32520000Y-51500000D03*
X33480000Y-51500000D03*
%TD*%
D23*
%TO.C,J3*%
X10600000Y-60900000D03*
X10600000Y-59650000D03*
X10600000Y-58400000D03*
X10600000Y-57150000D03*
X10600000Y-55900000D03*
X10600000Y-54650000D03*
X10600000Y-53400000D03*
X10600000Y-52150000D03*
X10600000Y-50900000D03*
D24*
X13500000Y-63450000D03*
X13500000Y-48350000D03*
%TD*%
D18*
%TO.C,C6*%
X46000000Y-94980000D03*
X46000000Y-94020000D03*
%TD*%
D27*
%TO.C,R8*%
X34500000Y-10010000D03*
X34500000Y-8990000D03*
%TD*%
D17*
%TO.C,R1*%
X9000000Y-21090000D03*
X9000000Y-22110000D03*
%TD*%
D28*
%TO.C,C8*%
X6500000Y-10750000D03*
X6500000Y-8850000D03*
%TD*%
D25*
%TO.C,J4*%
X44300000Y-50900000D03*
X44300000Y-52150000D03*
X44300000Y-53400000D03*
X44300000Y-54650000D03*
X44300000Y-55900000D03*
X44300000Y-57150000D03*
X44300000Y-58400000D03*
X44300000Y-59650000D03*
X44300000Y-60900000D03*
D26*
X41400000Y-48350000D03*
X41400000Y-63450000D03*
%TD*%
D27*
%TO.C,R7*%
X20500000Y-10010000D03*
X20500000Y-8990000D03*
%TD*%
D29*
%TO.C,U3*%
X28450000Y-11362500D03*
X27500000Y-11362500D03*
X26550000Y-11362500D03*
X26550000Y-13637500D03*
X27500000Y-13637500D03*
X28450000Y-13637500D03*
%TD*%
D30*
%TO.C,J8*%
X52850000Y-71825000D03*
X52850000Y-72925000D03*
X52850000Y-74025000D03*
X52850000Y-75125000D03*
X52850000Y-76225000D03*
X52850000Y-77325000D03*
X52850000Y-78425000D03*
X52850000Y-79525000D03*
D31*
X43625000Y-80650000D03*
D32*
X42050000Y-69425000D03*
D33*
X45125000Y-80975000D03*
D34*
X52725000Y-80725000D03*
D35*
X52725000Y-69375000D03*
D36*
X44475000Y-69025000D03*
%TD*%
D18*
%TO.C,C4*%
X46000000Y-53380000D03*
X46000000Y-52420000D03*
%TD*%
D37*
%TO.C,R9*%
X26490000Y-51500000D03*
X27510000Y-51500000D03*
%TD*%
D25*
%TO.C,J2*%
X44300000Y-12600000D03*
X44300000Y-13850000D03*
X44300000Y-15100000D03*
X44300000Y-16350000D03*
X44300000Y-17600000D03*
X44300000Y-18850000D03*
X44300000Y-20100000D03*
X44300000Y-21350000D03*
X44300000Y-22600000D03*
D26*
X41400000Y-10050000D03*
X41400000Y-25150000D03*
%TD*%
D18*
%TO.C,C3*%
X9000000Y-52380000D03*
X9000000Y-51420000D03*
%TD*%
D17*
%TO.C,R6*%
X46000000Y-86690000D03*
X46000000Y-87710000D03*
%TD*%
D23*
%TO.C,J1*%
X10600000Y-22600000D03*
X10600000Y-21350000D03*
X10600000Y-20100000D03*
X10600000Y-18850000D03*
X10600000Y-17600000D03*
X10600000Y-16350000D03*
X10600000Y-15100000D03*
X10600000Y-13850000D03*
X10600000Y-12600000D03*
D24*
X13500000Y-25150000D03*
X13500000Y-10050000D03*
%TD*%
D18*
%TO.C,C1*%
X9000000Y-14080000D03*
X9000000Y-13120000D03*
%TD*%
D22*
%TO.C,SW2*%
X41450000Y-3200000D03*
X45550000Y-3200000D03*
X41450000Y-4800000D03*
X45550000Y-4800000D03*
%TD*%
D17*
%TO.C,R5*%
X9000000Y-97690000D03*
X9000000Y-98710000D03*
%TD*%
D28*
%TO.C,C7*%
X19000000Y-7450000D03*
X19000000Y-5550000D03*
%TD*%
M02*
