M48
; DRILL file KiCad 10.0.4 date 2026-08-10T16:01:08
; FORMAT={-:-/ absolute / metric / decimal}
; #@! TF.CreationDate,2026-08-10T16:01:08+03:00
; #@! TF.GenerationSoftware,Kicad,Pcbnew,10.0.4
; #@! TF.FileFunction,MixedPlating,1,2
FMAT,2
METRIC
; #@! TA.AperFunction,Plated,PTH,ComponentDrill
T1C0.200
; #@! TA.AperFunction,Plated,PTH,ViaDrill
T2C0.250
; #@! TA.AperFunction,Plated,PTH,ViaDrill
T3C0.300
; #@! TA.AperFunction,Plated,PTH,ComponentDrill
T4C0.600
; #@! TA.AperFunction,NonPlated,NPTH,ComponentDrill
T5C0.650
; #@! TA.AperFunction,NonPlated,NPTH,ComponentDrill
T6C2.200
%
G90
G05
T1
X30.81Y-36.9
X30.81Y-38.3
X31.51Y-36.2
X31.51Y-37.6
X31.51Y-39.0
X32.21Y-36.9
X32.21Y-38.3
X32.91Y-36.2
X32.91Y-37.6
X32.91Y-39.0
X33.61Y-36.9
X33.61Y-38.3
T2
X8.73Y-50.1
X8.78Y-13.85
X28.0Y-71.92
X35.2Y-71.92
X42.5Y-106.0
X49.0Y-106.0
X50.35Y-86.3
X51.0Y-14.25
X51.806Y-85.781
T3
X2.125Y-20.6
X2.125Y-56.9
X2.292Y-90.286
X2.575Y-93.079
X2.868Y-14.304
X2.964Y-10.486
X3.657Y-45.435
X4.7Y-60.0
X5.249Y-45.435
X6.498Y-36.621
X6.55Y-3.7
X6.937Y-17.677
X7.218Y-30.737
X7.637Y-55.503
X7.719Y-19.305
X8.245Y-39.559
X8.347Y-14.773
X8.365Y-25.942
X8.471Y-86.52
X9.333Y-19.128
X9.355Y-53.427
X9.412Y-54.728
X9.435Y-18.066
X9.452Y-20.506
X9.452Y-88.719
X9.496Y-48.893
X9.622Y-56.061
X9.917Y-73.499
X10.022Y-40.333
X10.133Y-39.37
X10.235Y-5.651
X10.24Y-53.35
X10.322Y-24.87
X10.621Y-63.477
X10.85Y-16.7
X12.35Y-88.391
X12.933Y-23.597
X12.961Y-91.411
X13.332Y-88.719
X13.431Y-69.037
X13.745Y-14.005
X14.65Y-10.4
X14.65Y-25.5
X14.65Y-46.7
X14.65Y-61.8
X14.65Y-83.0
X14.65Y-98.1
X15.592Y-34.559
X15.969Y-45.435
X16.484Y-9.881
X17.0Y-70.5
X17.1Y-5.55
X17.184Y-42.497
X17.98Y-68.938
X18.358Y-31.359
X19.2Y-70.3
X19.393Y-7.617
X19.619Y-1.158
X19.812Y-10.286
X19.9Y-70.7
X20.172Y-2.543
X20.362Y-72.4
X20.75Y-73.31
X21.18Y-107.2
X21.71Y-70.2
X21.71Y-42.497
X21.71Y-55.033
X22.287Y-92.711
X24.05Y-3.871
X24.3Y-106.9
X24.49Y-43.95
X24.723Y-28.219
X25.681Y-7.013
X25.798Y-28.634
X26.3Y-11.4
X26.75Y-7.9
X26.849Y-47.733
X27.9Y-9.8
X28.258Y-66.0
X28.44Y-43.232
X28.492Y-70.085
X28.9Y-7.9
X29.348Y-106.669
X29.75Y-62.0
X29.75Y-97.0
X30.21Y-8.03
X30.267Y-46.394
X30.699Y-25.048
X30.741Y-72.814
X30.89Y-9.8
X31.242Y-68.938
X31.633Y-54.854
X31.736Y-74.903
X31.747Y-48.369
X32.05Y-9.57
X32.089Y-69.855
X32.786Y-25.538
X32.82Y-30.539
X32.971Y-84.05
X33.821Y-25.598
X33.925Y-70.189
X34.0Y-11.6
X34.227Y-21.147
X34.227Y-41.713
X34.486Y-57.187
X34.53Y-46.721
X34.94Y-36.621
X35.02Y-9.4
X36.069Y-72.153
X37.119Y-1.158
X37.473Y-15.796
X37.886Y-1.572
X38.85Y-55.6
X39.05Y-5.3
X39.397Y-43.514
X39.627Y-46.252
X39.788Y-51.584
X40.197Y-54.249
X40.197Y-68.292
X40.28Y-53.364
X40.459Y-43.671
X40.525Y-70.6
X40.525Y-74.2
X40.616Y-11.792
X40.811Y-35.0
X40.869Y-33.047
X40.978Y-30.579
X41.0Y-56.49
X41.145Y-47.338
X41.382Y-67.87
X41.667Y-7.0
X42.289Y-27.87
X42.38Y-14.297
X42.521Y-45.078
X43.014Y-13.769
X43.145Y-55.799
X43.292Y-50.202
X43.681Y-17.013
X43.698Y-39.632
X43.837Y-38.273
X43.837Y-42.399
X44.0Y-60.0
X44.397Y-56.49
X44.443Y-37.46
X44.55Y-5.3
X44.676Y-33.281
X44.768Y-49.739
X45.143Y-44.41
X45.515Y-51.614
X45.711Y-52.439
X46.2Y-26.279
X46.637Y-23.508
X46.649Y-78.028
X46.65Y-10.4
X46.65Y-30.079
X46.65Y-46.7
X46.65Y-61.8
X46.65Y-83.0
X46.65Y-98.1
X46.738Y-56.483
X46.964Y-90.288
X47.07Y-53.394
X47.073Y-87.115
X47.076Y-63.541
X47.1Y-1.225
X47.151Y-29.471
X47.249Y-16.478
X47.273Y-92.758
X47.3Y-6.079
X47.326Y-49.98
X47.337Y-15.093
X47.337Y-17.593
X47.573Y-84.847
X47.75Y-55.5
X47.885Y-32.593
X48.037Y-45.466
X48.625Y-47.744
X48.65Y-19.2
X48.975Y-64.525
X49.025Y-78.05
X49.097Y-6.724
X49.268Y-25.942
X49.364Y-60.622
X49.55Y-91.8
X49.6Y-1.225
X49.691Y-76.433
X49.86Y-88.719
X50.276Y-72.834
X50.324Y-53.306
X50.89Y-59.773
X50.901Y-48.024
X51.107Y-34.807
X51.4Y-5.1
X51.948Y-55.49
X52.094Y-49.117
X52.276Y-57.187
X52.548Y-90.288
X52.561Y-86.566
X52.625Y-15.299
X52.682Y-35.004
X53.084Y-13.118
X53.22Y-16.254
X53.779Y-5.55
X53.907Y-14.722
X54.198Y-63.123
X54.198Y-74.213
X54.198Y-76.433
X54.198Y-78.652
X54.198Y-71.997
X54.2Y-65.343
X54.244Y-11.942
X54.415Y-89.504
X55.2Y-1.225
X55.4Y-56.9
X55.4Y-93.8
X55.907Y-18.212
X56.447Y-74.736
X58.094Y-78.358
X58.125Y-66.775
X58.275Y-16.2
X58.275Y-52.5
X58.275Y-88.8
T5
X26.86Y-5.705
X32.64Y-5.705
T6
X3.25Y-3.32
X3.25Y-32.58
X3.25Y-39.62
X3.25Y-68.88
X3.25Y-75.92
X3.25Y-105.17
X23.25Y-68.88
X23.25Y-75.92
X23.25Y-105.17
X36.25Y-68.88
X36.25Y-75.92
X36.25Y-105.17
X56.25Y-3.32
X56.25Y-32.58
X56.25Y-39.62
X56.25Y-105.17
T4
X25.43Y-2.425G85X25.43Y-1.625
G05
X25.43Y-6.755G85X25.43Y-5.655
G05
X34.07Y-2.425G85X34.07Y-1.625
G05
X34.07Y-6.755G85X34.07Y-5.655
G05
M30
