%TF.GenerationSoftware,KiCad,Pcbnew,10.0.4*%
%TF.CreationDate,2026-08-10T16:01:08+03:00*%
%TF.ProjectId,data_streamdeck,64617461-5f73-4747-9265-616d6465636b,rev?*%
%TF.SameCoordinates,Original*%
%TF.FileFunction,Other,User*%
%FSLAX46Y46*%
G04 Gerber Fmt 4.6, Leading zero omitted, Abs format (unit mm)*
G04 Created by KiCad (PCBNEW 10.0.4) date 2026-08-10 16:01:08*
%MOMM*%
%LPD*%
G01*
G04 APERTURE LIST*
%ADD10C,0.050000*%
G04 APERTURE END LIST*
%TO.C,U7*%
D10*
X19350000Y-7300000D02*
X20350000Y-7300000D01*
X19350000Y-10300000D02*
X19350000Y-7300000D01*
X20350000Y-7100000D02*
X22450000Y-7100000D01*
X20350000Y-7300000D02*
X20350000Y-7100000D01*
X20350000Y-10300000D02*
X19350000Y-10300000D01*
X20350000Y-10500000D02*
X20350000Y-10300000D01*
X22450000Y-7100000D02*
X22450000Y-7300000D01*
X22450000Y-7300000D02*
X23450000Y-7300000D01*
X22450000Y-8410000D02*
X22450000Y-9190000D01*
X22450000Y-9190000D02*
X23450000Y-9190000D01*
X22450000Y-10300000D02*
X22450000Y-10500000D01*
X22450000Y-10500000D02*
X20350000Y-10500000D01*
X23450000Y-7300000D02*
X23450000Y-8410000D01*
X23450000Y-8410000D02*
X22450000Y-8410000D01*
X23450000Y-9190000D02*
X23450000Y-10300000D01*
X23450000Y-10300000D02*
X22450000Y-10300000D01*
%TO.C,H15*%
X38700000Y-75920000D02*
G75*
G02*
X33800000Y-75920000I-2450000J0D01*
G01*
X33800000Y-75920000D02*
G75*
G02*
X38700000Y-75920000I2450000J0D01*
G01*
%TO.C,H6*%
X58700000Y-32580000D02*
G75*
G02*
X53800000Y-32580000I-2450000J0D01*
G01*
X53800000Y-32580000D02*
G75*
G02*
X58700000Y-32580000I2450000J0D01*
G01*
%TO.C,R4*%
X49780000Y-57320000D02*
X50720000Y-57320000D01*
X50720000Y-59180000D01*
X49780000Y-59180000D01*
X49780000Y-57320000D01*
%TO.C,C8*%
X2620000Y-9100000D02*
X4580000Y-9100000D01*
X4580000Y-12500000D01*
X2620000Y-12500000D01*
X2620000Y-9100000D01*
%TO.C,H16*%
X38700000Y-105170000D02*
G75*
G02*
X33800000Y-105170000I-2450000J0D01*
G01*
X33800000Y-105170000D02*
G75*
G02*
X38700000Y-105170000I2450000J0D01*
G01*
%TO.C,C1*%
X8790000Y-13040000D02*
X9710000Y-13040000D01*
X9710000Y-14860000D01*
X8790000Y-14860000D01*
X8790000Y-13040000D01*
%TO.C,H11*%
X58700000Y-39620000D02*
G75*
G02*
X53800000Y-39620000I-2450000J0D01*
G01*
X53800000Y-39620000D02*
G75*
G02*
X58700000Y-39620000I2450000J0D01*
G01*
%TO.C,BZ1*%
X24500000Y-82150000D02*
X25000000Y-82150000D01*
X24500000Y-86850000D02*
X24500000Y-82150000D01*
X25000000Y-79750000D02*
X34500000Y-79750000D01*
X25000000Y-82150000D02*
X25000000Y-79750000D01*
X25000000Y-86850000D02*
X24500000Y-86850000D01*
X25000000Y-89250000D02*
X25000000Y-86850000D01*
X34500000Y-79750000D02*
X34500000Y-82150000D01*
X34500000Y-82150000D02*
X35000000Y-82150000D01*
X34500000Y-86850000D02*
X34500000Y-89250000D01*
X34500000Y-89250000D02*
X25000000Y-89250000D01*
X35000000Y-82150000D02*
X35000000Y-86850000D01*
X35000000Y-86850000D02*
X34500000Y-86850000D01*
%TO.C,H8*%
X5700000Y-68880000D02*
G75*
G02*
X800000Y-68880000I-2450000J0D01*
G01*
X800000Y-68880000D02*
G75*
G02*
X5700000Y-68880000I2450000J0D01*
G01*
%TO.C,H4*%
X58700000Y-105170000D02*
G75*
G02*
X53800000Y-105170000I-2450000J0D01*
G01*
X53800000Y-105170000D02*
G75*
G02*
X58700000Y-105170000I2450000J0D01*
G01*
%TO.C,U2*%
X7000000Y-1100000D02*
X7000000Y-8300000D01*
X7000000Y-8300000D02*
X15800000Y-8300000D01*
X15800000Y-1100000D02*
X7000000Y-1100000D01*
X15800000Y-8300000D02*
X15800000Y-1100000D01*
%TO.C,U5*%
X26350000Y-105000000D02*
X33150000Y-105000000D01*
X26350000Y-108200000D02*
X26350000Y-105000000D01*
X33150000Y-105000000D02*
X33150000Y-108200000D01*
X33150000Y-108200000D02*
X26350000Y-108200000D01*
%TO.C,D2*%
X54500000Y-15150000D02*
X54500000Y-20750000D01*
X54500000Y-20750000D02*
X58500000Y-20750000D01*
X58500000Y-15150000D02*
X54500000Y-15150000D01*
X58500000Y-20750000D02*
X58500000Y-15150000D01*
%TO.C,R6*%
X49780000Y-93620000D02*
X50720000Y-93620000D01*
X50720000Y-95480000D01*
X49780000Y-95480000D01*
X49780000Y-93620000D01*
%TO.C,H14*%
X25700000Y-105170000D02*
G75*
G02*
X20800000Y-105170000I-2450000J0D01*
G01*
X20800000Y-105170000D02*
G75*
G02*
X25700000Y-105170000I2450000J0D01*
G01*
%TO.C,J3*%
X9550000Y-48350000D02*
X11150000Y-48350000D01*
X9550000Y-60150000D02*
X9550000Y-48350000D01*
X11150000Y-47250000D02*
X11750000Y-47250000D01*
X11150000Y-48350000D02*
X11150000Y-47250000D01*
X11150000Y-60150000D02*
X9550000Y-60150000D01*
X11150000Y-61250000D02*
X11150000Y-60150000D01*
X11750000Y-45150000D02*
X15750000Y-45150000D01*
X11750000Y-47250000D02*
X11750000Y-45150000D01*
X11750000Y-61250000D02*
X11150000Y-61250000D01*
X11750000Y-63350000D02*
X11750000Y-61250000D01*
X15750000Y-45150000D02*
X15750000Y-45750000D01*
X15750000Y-45750000D02*
X15950000Y-45750000D01*
X15750000Y-62750000D02*
X15750000Y-63350000D01*
X15750000Y-63350000D02*
X11750000Y-63350000D01*
X15950000Y-45750000D02*
X15950000Y-47250000D01*
X15950000Y-47250000D02*
X16350000Y-47250000D01*
X15950000Y-61250000D02*
X15950000Y-62750000D01*
X15950000Y-62750000D02*
X15750000Y-62750000D01*
X16350000Y-47250000D02*
X16350000Y-61250000D01*
X16350000Y-61250000D02*
X15950000Y-61250000D01*
%TO.C,J5*%
X9550000Y-84650000D02*
X11150000Y-84650000D01*
X9550000Y-96450000D02*
X9550000Y-84650000D01*
X11150000Y-83550000D02*
X11750000Y-83550000D01*
X11150000Y-84650000D02*
X11150000Y-83550000D01*
X11150000Y-96450000D02*
X9550000Y-96450000D01*
X11150000Y-97550000D02*
X11150000Y-96450000D01*
X11750000Y-81450000D02*
X15750000Y-81450000D01*
X11750000Y-83550000D02*
X11750000Y-81450000D01*
X11750000Y-97550000D02*
X11150000Y-97550000D01*
X11750000Y-99650000D02*
X11750000Y-97550000D01*
X15750000Y-81450000D02*
X15750000Y-82050000D01*
X15750000Y-82050000D02*
X15950000Y-82050000D01*
X15750000Y-99050000D02*
X15750000Y-99650000D01*
X15750000Y-99650000D02*
X11750000Y-99650000D01*
X15950000Y-82050000D02*
X15950000Y-83550000D01*
X15950000Y-83550000D02*
X16350000Y-83550000D01*
X15950000Y-97550000D02*
X15950000Y-99050000D01*
X15950000Y-99050000D02*
X15750000Y-99050000D01*
X16350000Y-83550000D02*
X16350000Y-97550000D01*
X16350000Y-97550000D02*
X15950000Y-97550000D01*
%TO.C,H2*%
X58700000Y-3320000D02*
G75*
G02*
X53800000Y-3320000I-2450000J0D01*
G01*
X53800000Y-3320000D02*
G75*
G02*
X58700000Y-3320000I2450000J0D01*
G01*
%TO.C,D7*%
X17700000Y200000D02*
X17700000Y-3800000D01*
X17700000Y-3800000D02*
X23300000Y-3800000D01*
X23300000Y200000D02*
X17700000Y200000D01*
X23300000Y-3800000D02*
X23300000Y200000D01*
%TO.C,J9*%
X45100000Y180000D02*
X47310000Y180000D01*
X45100000Y-2630000D02*
X45100000Y180000D01*
X45500000Y-2630000D02*
X45100000Y-2630000D01*
X45500000Y-5280000D02*
X45500000Y-2630000D01*
X46700000Y-5280000D02*
X45500000Y-5280000D01*
X46700000Y-6380000D02*
X46700000Y-5280000D01*
X47310000Y180000D02*
X47310000Y-20000D01*
X47310000Y-20000D02*
X50690000Y-20000D01*
X50690000Y180000D02*
X52900000Y180000D01*
X50690000Y-20000D02*
X50690000Y180000D01*
X51300000Y-5280000D02*
X51300000Y-6380000D01*
X51300000Y-6380000D02*
X46700000Y-6380000D01*
X52500000Y-2630000D02*
X52500000Y-5280000D01*
X52500000Y-5280000D02*
X51300000Y-5280000D01*
X52900000Y180000D02*
X52900000Y-2630000D01*
X52900000Y-2630000D02*
X52500000Y-2630000D01*
%TO.C,SW2*%
X46200000Y-103400000D02*
X51800000Y-103400000D01*
X46200000Y-107000000D02*
X46200000Y-103400000D01*
X51800000Y-103400000D02*
X51800000Y-107000000D01*
X51800000Y-107000000D02*
X46200000Y-107000000D01*
%TO.C,D5*%
X1000000Y-87750000D02*
X1000000Y-93350000D01*
X1000000Y-93350000D02*
X5000000Y-93350000D01*
X5000000Y-87750000D02*
X1000000Y-87750000D01*
X5000000Y-93350000D02*
X5000000Y-87750000D01*
%TO.C,C5*%
X8790000Y-85640000D02*
X9710000Y-85640000D01*
X9710000Y-87460000D01*
X8790000Y-87460000D01*
X8790000Y-85640000D01*
%TO.C,H3*%
X5700000Y-105170000D02*
G75*
G02*
X800000Y-105170000I-2450000J0D01*
G01*
X800000Y-105170000D02*
G75*
G02*
X5700000Y-105170000I2450000J0D01*
G01*
%TO.C,H12*%
X5700000Y-75920000D02*
G75*
G02*
X800000Y-75920000I-2450000J0D01*
G01*
X800000Y-75920000D02*
G75*
G02*
X5700000Y-75920000I2450000J0D01*
G01*
%TO.C,SW1*%
X39700000Y-103400000D02*
X45300000Y-103400000D01*
X39700000Y-107000000D02*
X39700000Y-103400000D01*
X45300000Y-103400000D02*
X45300000Y-107000000D01*
X45300000Y-107000000D02*
X39700000Y-107000000D01*
%TO.C,C4*%
X38990000Y-56030000D02*
X40810000Y-56030000D01*
X40810000Y-56950000D01*
X38990000Y-56950000D01*
X38990000Y-56030000D01*
%TO.C,R9*%
X27570000Y-47030000D02*
X29430000Y-47030000D01*
X29430000Y-47970000D01*
X27570000Y-47970000D01*
X27570000Y-47030000D01*
%TO.C,J10*%
X38220000Y-69500000D02*
X41030000Y-69500000D01*
X38220000Y-71710000D02*
X38220000Y-69500000D01*
X38220000Y-73090000D02*
X38420000Y-73090000D01*
X38220000Y-75300000D02*
X38220000Y-73090000D01*
X38420000Y-71710000D02*
X38220000Y-71710000D01*
X38420000Y-73090000D02*
X38420000Y-71710000D01*
X41030000Y-69500000D02*
X41030000Y-69900000D01*
X41030000Y-69900000D02*
X43680000Y-69900000D01*
X41030000Y-74900000D02*
X41030000Y-75300000D01*
X41030000Y-75300000D02*
X38220000Y-75300000D01*
X43680000Y-69900000D02*
X43680000Y-71100000D01*
X43680000Y-71100000D02*
X44780000Y-71100000D01*
X43680000Y-73700000D02*
X43680000Y-74900000D01*
X43680000Y-74900000D02*
X41030000Y-74900000D01*
X44780000Y-71100000D02*
X44780000Y-73700000D01*
X44780000Y-73700000D02*
X43680000Y-73700000D01*
%TO.C,R10*%
X28820000Y-77830000D02*
X30680000Y-77830000D01*
X30680000Y-78770000D01*
X28820000Y-78770000D01*
X28820000Y-77830000D01*
%TO.C,R2*%
X49780000Y-21020000D02*
X50720000Y-21020000D01*
X50720000Y-22880000D01*
X49780000Y-22880000D01*
X49780000Y-21020000D01*
%TO.C,H10*%
X38700000Y-68880000D02*
G75*
G02*
X33800000Y-68880000I-2450000J0D01*
G01*
X33800000Y-68880000D02*
G75*
G02*
X38700000Y-68880000I2450000J0D01*
G01*
%TO.C,D3*%
X1000000Y-51450000D02*
X1000000Y-57050000D01*
X1000000Y-57050000D02*
X5000000Y-57050000D01*
X5000000Y-51450000D02*
X1000000Y-51450000D01*
X5000000Y-57050000D02*
X5000000Y-51450000D01*
%TO.C,C12*%
X34740000Y-71490000D02*
X35660000Y-71490000D01*
X35660000Y-73310000D01*
X34740000Y-73310000D01*
X34740000Y-71490000D01*
%TO.C,H13*%
X25700000Y-75920000D02*
G75*
G02*
X20800000Y-75920000I-2450000J0D01*
G01*
X20800000Y-75920000D02*
G75*
G02*
X25700000Y-75920000I2450000J0D01*
G01*
%TO.C,J6*%
X43150000Y-83550000D02*
X43550000Y-83550000D01*
X43150000Y-97550000D02*
X43150000Y-83550000D01*
X43550000Y-82050000D02*
X43750000Y-82050000D01*
X43550000Y-83550000D02*
X43550000Y-82050000D01*
X43550000Y-97550000D02*
X43150000Y-97550000D01*
X43550000Y-99050000D02*
X43550000Y-97550000D01*
X43750000Y-81450000D02*
X47750000Y-81450000D01*
X43750000Y-82050000D02*
X43750000Y-81450000D01*
X43750000Y-99050000D02*
X43550000Y-99050000D01*
X43750000Y-99650000D02*
X43750000Y-99050000D01*
X47750000Y-81450000D02*
X47750000Y-83550000D01*
X47750000Y-83550000D02*
X48350000Y-83550000D01*
X47750000Y-97550000D02*
X47750000Y-99650000D01*
X47750000Y-99650000D02*
X43750000Y-99650000D01*
X48350000Y-83550000D02*
X48350000Y-84650000D01*
X48350000Y-84650000D02*
X49950000Y-84650000D01*
X48350000Y-96450000D02*
X48350000Y-97550000D01*
X48350000Y-97550000D02*
X47750000Y-97550000D01*
X49950000Y-84650000D02*
X49950000Y-96450000D01*
X49950000Y-96450000D02*
X48350000Y-96450000D01*
%TO.C,U1*%
X2000000Y-12100000D02*
X2000000Y-60100000D01*
X2000000Y-60100000D02*
X23000000Y-60100000D01*
X23000000Y-12100000D02*
X2000000Y-12100000D01*
X23000000Y-26350000D02*
X23000000Y-12100000D01*
X23000000Y-26350000D02*
X43200000Y-26350000D01*
X23000000Y-60100000D02*
X23000000Y-45850000D01*
X43200000Y-45850000D02*
X23000000Y-45850000D01*
X43200000Y-45850000D02*
X43200000Y-26350000D01*
%TO.C,J8*%
X45280000Y-65520000D02*
X58280000Y-65520000D01*
X45280000Y-79320000D02*
X45280000Y-65520000D01*
X58280000Y-65520000D02*
X58280000Y-79320000D01*
X58280000Y-79320000D02*
X45280000Y-79320000D01*
%TO.C,R8*%
X25030000Y-8570000D02*
X25970000Y-8570000D01*
X25970000Y-10430000D01*
X25030000Y-10430000D01*
X25030000Y-8570000D01*
%TO.C,C3*%
X8790000Y-49340000D02*
X9710000Y-49340000D01*
X9710000Y-51160000D01*
X8790000Y-51160000D01*
X8790000Y-49340000D01*
%TO.C,C16*%
X18140000Y-8690000D02*
X19060000Y-8690000D01*
X19060000Y-10510000D01*
X18140000Y-10510000D01*
X18140000Y-8690000D01*
%TO.C,H7*%
X5700000Y-39620000D02*
G75*
G02*
X800000Y-39620000I-2450000J0D01*
G01*
X800000Y-39620000D02*
G75*
G02*
X5700000Y-39620000I2450000J0D01*
G01*
%TO.C,H5*%
X5700000Y-32580000D02*
G75*
G02*
X800000Y-32580000I-2450000J0D01*
G01*
X800000Y-32580000D02*
G75*
G02*
X5700000Y-32580000I2450000J0D01*
G01*
%TO.C,H9*%
X25700000Y-68880000D02*
G75*
G02*
X20800000Y-68880000I-2450000J0D01*
G01*
X20800000Y-68880000D02*
G75*
G02*
X25700000Y-68880000I2450000J0D01*
G01*
%TO.C,R7*%
X33530000Y-8570000D02*
X34470000Y-8570000D01*
X34470000Y-10430000D01*
X33530000Y-10430000D01*
X33530000Y-8570000D01*
%TO.C,J4*%
X43150000Y-47250000D02*
X43550000Y-47250000D01*
X43150000Y-61250000D02*
X43150000Y-47250000D01*
X43550000Y-45750000D02*
X43750000Y-45750000D01*
X43550000Y-47250000D02*
X43550000Y-45750000D01*
X43550000Y-61250000D02*
X43150000Y-61250000D01*
X43550000Y-62750000D02*
X43550000Y-61250000D01*
X43750000Y-45150000D02*
X47750000Y-45150000D01*
X43750000Y-45750000D02*
X43750000Y-45150000D01*
X43750000Y-62750000D02*
X43550000Y-62750000D01*
X43750000Y-63350000D02*
X43750000Y-62750000D01*
X47750000Y-45150000D02*
X47750000Y-47250000D01*
X47750000Y-47250000D02*
X48350000Y-47250000D01*
X47750000Y-61250000D02*
X47750000Y-63350000D01*
X47750000Y-63350000D02*
X43750000Y-63350000D01*
X48350000Y-47250000D02*
X48350000Y-48350000D01*
X48350000Y-48350000D02*
X49950000Y-48350000D01*
X48350000Y-60150000D02*
X48350000Y-61250000D01*
X48350000Y-61250000D02*
X47750000Y-61250000D01*
X49950000Y-48350000D02*
X49950000Y-60150000D01*
X49950000Y-60150000D02*
X48350000Y-60150000D01*
%TO.C,R1*%
X8780000Y-21020000D02*
X9720000Y-21020000D01*
X9720000Y-22880000D01*
X8780000Y-22880000D01*
X8780000Y-21020000D01*
%TO.C,D8*%
X35200000Y200000D02*
X35200000Y-3800000D01*
X35200000Y-3800000D02*
X40800000Y-3800000D01*
X40800000Y200000D02*
X35200000Y200000D01*
X40800000Y-3800000D02*
X40800000Y200000D01*
%TO.C,J2*%
X43150000Y-10950000D02*
X43550000Y-10950000D01*
X43150000Y-24950000D02*
X43150000Y-10950000D01*
X43550000Y-9450000D02*
X43750000Y-9450000D01*
X43550000Y-10950000D02*
X43550000Y-9450000D01*
X43550000Y-24950000D02*
X43150000Y-24950000D01*
X43550000Y-26450000D02*
X43550000Y-24950000D01*
X43750000Y-8850000D02*
X47750000Y-8850000D01*
X43750000Y-9450000D02*
X43750000Y-8850000D01*
X43750000Y-26450000D02*
X43550000Y-26450000D01*
X43750000Y-27050000D02*
X43750000Y-26450000D01*
X47750000Y-8850000D02*
X47750000Y-10950000D01*
X47750000Y-10950000D02*
X48350000Y-10950000D01*
X47750000Y-24950000D02*
X47750000Y-27050000D01*
X47750000Y-27050000D02*
X43750000Y-27050000D01*
X48350000Y-10950000D02*
X48350000Y-12050000D01*
X48350000Y-12050000D02*
X49950000Y-12050000D01*
X48350000Y-23850000D02*
X48350000Y-24950000D01*
X48350000Y-24950000D02*
X47750000Y-24950000D01*
X49950000Y-12050000D02*
X49950000Y-23850000D01*
X49950000Y-23850000D02*
X48350000Y-23850000D01*
%TO.C,C11*%
X30590000Y-47040000D02*
X32410000Y-47040000D01*
X32410000Y-47960000D01*
X30590000Y-47960000D01*
X30590000Y-47040000D01*
%TO.C,R5*%
X8780000Y-93620000D02*
X9720000Y-93620000D01*
X9720000Y-95480000D01*
X8780000Y-95480000D01*
X8780000Y-93620000D01*
%TO.C,C17*%
X22620000Y-3900000D02*
X24580000Y-3900000D01*
X24580000Y-7300000D01*
X22620000Y-7300000D01*
X22620000Y-3900000D01*
%TO.C,R3*%
X8780000Y-57320000D02*
X9720000Y-57320000D01*
X9720000Y-59180000D01*
X8780000Y-59180000D01*
X8780000Y-57320000D01*
%TO.C,D6*%
X54500000Y-87750000D02*
X54500000Y-93350000D01*
X54500000Y-93350000D02*
X58500000Y-93350000D01*
X58500000Y-87750000D02*
X54500000Y-87750000D01*
X58500000Y-93350000D02*
X58500000Y-87750000D01*
%TO.C,C7*%
X16420000Y-4800000D02*
X18380000Y-4800000D01*
X18380000Y-8200000D01*
X16420000Y-8200000D01*
X16420000Y-4800000D01*
%TO.C,U6*%
X28400000Y-70970000D02*
X29750000Y-70970000D01*
X28400000Y-73830000D02*
X28400000Y-70970000D01*
X29750000Y-70650000D02*
X33250000Y-70650000D01*
X29750000Y-70970000D02*
X29750000Y-70650000D01*
X29750000Y-73830000D02*
X28400000Y-73830000D01*
X29750000Y-74150000D02*
X29750000Y-73830000D01*
X33250000Y-70650000D02*
X33250000Y-70970000D01*
X33250000Y-70970000D02*
X34600000Y-70970000D01*
X33250000Y-73830000D02*
X33250000Y-74150000D01*
X33250000Y-74150000D02*
X29750000Y-74150000D01*
X34600000Y-70970000D02*
X34600000Y-73830000D01*
X34600000Y-73830000D02*
X33250000Y-73830000D01*
%TO.C,C6*%
X49790000Y-85640000D02*
X50710000Y-85640000D01*
X50710000Y-87460000D01*
X49790000Y-87460000D01*
X49790000Y-85640000D01*
%TO.C,J1*%
X9550000Y-12050000D02*
X11150000Y-12050000D01*
X9550000Y-23850000D02*
X9550000Y-12050000D01*
X11150000Y-10950000D02*
X11750000Y-10950000D01*
X11150000Y-12050000D02*
X11150000Y-10950000D01*
X11150000Y-23850000D02*
X9550000Y-23850000D01*
X11150000Y-24950000D02*
X11150000Y-23850000D01*
X11750000Y-8850000D02*
X15750000Y-8850000D01*
X11750000Y-10950000D02*
X11750000Y-8850000D01*
X11750000Y-24950000D02*
X11150000Y-24950000D01*
X11750000Y-27050000D02*
X11750000Y-24950000D01*
X15750000Y-8850000D02*
X15750000Y-9450000D01*
X15750000Y-9450000D02*
X15950000Y-9450000D01*
X15750000Y-26450000D02*
X15750000Y-27050000D01*
X15750000Y-27050000D02*
X11750000Y-27050000D01*
X15950000Y-9450000D02*
X15950000Y-10950000D01*
X15950000Y-10950000D02*
X16350000Y-10950000D01*
X15950000Y-24950000D02*
X15950000Y-26450000D01*
X15950000Y-26450000D02*
X15750000Y-26450000D01*
X16350000Y-10950000D02*
X16350000Y-24950000D01*
X16350000Y-24950000D02*
X15950000Y-24950000D01*
%TO.C,D4*%
X54500000Y-51450000D02*
X54500000Y-57050000D01*
X54500000Y-57050000D02*
X58500000Y-57050000D01*
X58500000Y-51450000D02*
X54500000Y-51450000D01*
X58500000Y-57050000D02*
X58500000Y-51450000D01*
%TO.C,J7*%
X24430000Y1080000D02*
X35070000Y1080000D01*
X35070000Y-7860000D01*
X24430000Y-7860000D01*
X24430000Y1080000D01*
%TO.C,C2*%
X49790000Y-13040000D02*
X50710000Y-13040000D01*
X50710000Y-14860000D01*
X49790000Y-14860000D01*
X49790000Y-13040000D01*
%TO.C,C14*%
X18890000Y-106740000D02*
X20710000Y-106740000D01*
X20710000Y-107660000D01*
X18890000Y-107660000D01*
X18890000Y-106740000D01*
%TO.C,C9*%
X24590000Y-47040000D02*
X26410000Y-47040000D01*
X26410000Y-47960000D01*
X24590000Y-47960000D01*
X24590000Y-47040000D01*
%TO.C,C10*%
X33590000Y-47040000D02*
X35410000Y-47040000D01*
X35410000Y-47960000D01*
X33590000Y-47960000D01*
X33590000Y-47040000D01*
%TO.C,U4*%
X18750000Y-70900000D02*
X22250000Y-70900000D01*
X22250000Y-73900000D01*
X18750000Y-73900000D01*
X18750000Y-70900000D01*
%TO.C,C15*%
X27540000Y-71490000D02*
X28460000Y-71490000D01*
X28460000Y-73310000D01*
X27540000Y-73310000D01*
X27540000Y-71490000D01*
%TO.C,C13*%
X16540000Y-71490000D02*
X17460000Y-71490000D01*
X17460000Y-73310000D01*
X16540000Y-73310000D01*
X16540000Y-71490000D01*
%TO.C,U3*%
X27700000Y-8300000D02*
X28700000Y-8300000D01*
X27700000Y-11300000D02*
X27700000Y-8300000D01*
X28700000Y-8100000D02*
X30800000Y-8100000D01*
X28700000Y-8300000D02*
X28700000Y-8100000D01*
X28700000Y-11300000D02*
X27700000Y-11300000D01*
X28700000Y-11500000D02*
X28700000Y-11300000D01*
X30800000Y-8100000D02*
X30800000Y-8300000D01*
X30800000Y-8300000D02*
X31800000Y-8300000D01*
X30800000Y-11300000D02*
X30800000Y-11500000D01*
X30800000Y-11500000D02*
X28700000Y-11500000D01*
X31800000Y-8300000D02*
X31800000Y-11300000D01*
X31800000Y-11300000D02*
X30800000Y-11300000D01*
%TO.C,D1*%
X1000000Y-15150000D02*
X1000000Y-20750000D01*
X1000000Y-20750000D02*
X5000000Y-20750000D01*
X5000000Y-15150000D02*
X1000000Y-15150000D01*
X5000000Y-20750000D02*
X5000000Y-15150000D01*
%TO.C,H1*%
X5700000Y-3320000D02*
G75*
G02*
X800000Y-3320000I-2450000J0D01*
G01*
X800000Y-3320000D02*
G75*
G02*
X5700000Y-3320000I2450000J0D01*
G01*
%TD*%
M02*
